<svg fill="none" stroke-linecap="round" stroke-linejoin="round" viewBox="0 0 24 24" xmlns="http://www.w3.org/2000/svg"><path clip-rule="evenodd" d="m8.763 4.537a1.599 1.599 0 0 0 -1.342.731 1.688 1.688 0 0 0 -.276.927v2.488l-1.192 2.441a4.23 4.23 0 0 0 -.427 1.854v4.827c0 .44.17.862.474 1.173.304.31.715.485 1.145.485h9.71a1.6 1.6 0 0 0 1.145-.485 1.68 1.68 0 0 0 .474-1.173v-4.826a4.23 4.23 0 0 0 -.427-1.855l-.764-1.565a4.232 4.232 0 0 1 -.428-1.855v-1.509c0-.44-.17-.862-.474-1.173a1.599 1.599 0 0 0 -1.144-.485zm9.619 3.167v-1.509c0-.839-.325-1.648-.912-2.25a3.12 3.12 0 0 0 -2.233-.945h-6.474a3.12 3.12 0 0 0 -2.233.945 3.222 3.222 0 0 0 -.912 2.25v2.13l-1.034 2.122a5.776 5.776 0 0 0 -.584 2.531v4.827c0 .839.325 1.648.912 2.25a3.12 3.12 0 0 0 2.233.945h9.71a3.12 3.12 0 0 0 2.233-.945 3.222 3.222 0 0 0 .912-2.25v-4.826c0-.878-.2-1.745-.584-2.532l-.764-1.566a2.685 2.685 0 0 1 -.27-1.177z" fill="#fff" fill-rule="evenodd"/><path d="m8.753 4.537h6.457c.428 0 .838.174 1.14.485.304.311.474.733.474 1.173v1.51c0 .643.146 1.278.426 1.854l.762 1.565c.28.576.426 1.21.426 1.855v4.826c0 .44-.17.862-.473 1.173a1.592 1.592 0 0 1 -1.141.485h-9.685c-.428 0-.838-.174-1.14-.485a1.682 1.682 0 0 1 -.474-1.173v-4.826c0-.644.146-1.279.426-1.855l1.189-2.441v-2.488c0-.44.17-.862.473-1.173a1.592 1.592 0 0 1 1.141-.485z" fill="#eab308"/><path clip-rule="evenodd" d="m8.763 5.049c-.291 0-.572.118-.781.332-.21.215-.329.507-.329.814v1.51c0 .565.13 1.122.376 1.628l.764 1.565a4.75 4.75 0 0 1 .479 2.08v4.827c0 .407-.113.804-.32 1.146h7.903c.292 0 .573-.118.782-.332.21-.215.328-.507.328-.814v-4.826a3.71 3.71 0 0 0 -.375-1.629l-.764-1.565a4.744 4.744 0 0 1 -.48-2.08v-1.51c0-.307-.118-.6-.328-.814a1.092 1.092 0 0 0 -.781-.332zm-1.618 13.901c.291 0 .572-.118.781-.332.21-.215.328-.507.328-.814v-4.827c0-.565-.128-1.123-.375-1.628l-.734-1.505-.735 1.505a3.716 3.716 0 0 0 -.375 1.629v4.826c0 .307.12.6.328.814.21.214.49.332.782.332zm-.509-11.246v-1.509c0-.573.222-1.124.62-1.532s.94-.639 1.507-.639h6.474a2.1 2.1 0 0 1 1.507.64c.398.407.62.958.62 1.531v1.51c0 .565.129 1.123.375 1.628l.764 1.566c.316.646.48 1.358.48 2.08v4.826c0 .573-.222 1.124-.62 1.532s-.94.639-1.508.639h-9.71c-.567 0-1.11-.231-1.508-.64a2.193 2.193 0 0 1 -.62-1.531v-4.826c0-.722.165-1.434.48-2.08l1.139-2.335z" fill="#713f12" fill-rule="evenodd"/><path d="m14.094 16.83c.946 0 1.713-.787 1.713-1.757s-.767-1.756-1.713-1.756c-.947 0-1.714.786-1.714 1.756s.767 1.756 1.713 1.756z" fill="#84cc16"/><path clip-rule="evenodd" d="m13.731 14.341a.714.714 0 0 0 -.696.732c0 .421.329.732.696.732.368 0 .696-.31.696-.732a.715.715 0 0 0 -.696-.732zm-2.731.732c0-1.518 1.206-2.78 2.731-2.78s2.731 1.262 2.731 2.78-1.206 2.78-2.73 2.78c-1.526 0-2.732-1.262-2.732-2.78zm-.494-7.024a1.02 1.02 0 0 1 1.017-1.025h1.714c.562 0 1.018.46 1.018 1.025a1.02 1.02 0 0 1 -1.018 1.024h-1.714a1.02 1.02 0 0 1 -1.017-1.024z" fill="#854d0e" fill-rule="evenodd"/></svg>