<svg viewBox="0 0 24 24" xmlns="http://www.w3.org/2000/svg"><radialGradient id="a" cx="12" cy="12.024" gradientTransform="rotate(45.001 12 12)" gradientUnits="userSpaceOnUse" r="7.022"><stop offset=".573" stop-color="#b00"/><stop offset="1" stop-color="#d91330"/></radialGradient><g stroke-linecap="round" stroke-linejoin="round"><circle cx="12" cy="12" fill="none" r="8.5" stroke="#fff"/><path d="M12 4.5c-4.1 0-7.5 3.4-7.5 7.5 0 4.2 3.4 7.6 7.5 7.5 4.1 0 7.5-3.4 7.5-7.5S16.1 4.5 12 4.5zm.1 3.3c2.3 0 4.2 1.9 4.2 4.2 0 2.3-1.9 4.2-4.2 4.2S7.9 14.3 7.9 12c-.1-2.3 1.8-4.2 4.2-4.2-.1 0-.1 0 0 0z" fill="url(#a)" stroke="#800" stroke-miterlimit="10"/><path d="M15.2 9.5L18.4 7 17 5.6l-2.5 3.2zm-6.4 5L5.6 17 7 18.4l2.5-3.2zm.7-5.7L7.1 5.6 5.6 7.1l3.2 2.5zm5 6.4l2.5 3.2 1.4-1.4-3.2-2.5z" fill="#fff" stroke="#fff"/></g></svg>