<svg viewBox="0 0 24 24" fill="none" xmlns="http://www.w3.org/2000/svg"><mask id="a" maskUnits="userSpaceOnUse" x="2.992" y="3" width="19" height="19" fill="#000"><path fill="#fff" d="M2.992 3H21.992V22H2.992z"/><path d="M12 20a7.714 7.714 0 0 0 3.091-.625 8.06 8.06 0 0 0 2.554-1.734 8.254 8.254 0 0 0 1.734-2.558 7.865 7.865 0 0 0 0-6.166 8.237 8.237 0 0 0-4.298-4.292 7.938 7.938 0 0 0-6.176 0 8.025 8.025 0 0 0-2.554 1.742 8.277 8.277 0 0 0-1.73 2.558 7.865 7.865 0 0 0 0 6.166c.412.954 1 1.822 1.734 2.558a8.075 8.075 0 0 0 2.552 1.734c.977.416 2.03.626 3.092.617z"/></mask><path d="M12 20a7.714 7.714 0 0 0 3.091-.625 8.06 8.06 0 0 0 2.554-1.734 8.254 8.254 0 0 0 1.734-2.558 7.865 7.865 0 0 0 0-6.166 8.237 8.237 0 0 0-4.298-4.292 7.938 7.938 0 0 0-6.176 0 8.025 8.025 0 0 0-2.554 1.742 8.277 8.277 0 0 0-1.73 2.558 7.865 7.865 0 0 0 0 6.166c.412.954 1 1.822 1.734 2.558a8.075 8.075 0 0 0 2.552 1.734c.977.416 2.03.626 3.092.617z" fill="#EC4899"/><path d="M15.091 19.375l-.393-.92h-.001l.394.92zm2.554-1.734l-.708-.706-.001.001.71.705zm1.734-2.558l.918.396.002-.004-.92-.392zm0-6.166l.92-.392-.002-.005-.918.397zm-4.298-4.292l.396-.918-.007-.003-.389.921zm-6.176 0l-.389-.921-.005.002.394.92zM6.351 6.367l.71.705.002-.003-.712-.702zm-1.73 2.558l-.918-.396-.001.004.92.392zm0 6.166l-.92.392.002.004.919-.396zm1.734 2.558l.71-.705-.002-.001-.708.706zm2.552 1.734l-.393.919h.001l.392-.92zM11.993 21c1.2.008 2.39-.233 3.493-.706l-.79-1.838c-.85.364-1.765.55-2.69.544l-.013 2zm3.491-.706a9.063 9.063 0 0 0 2.87-1.949l-1.418-1.409a7.065 7.065 0 0 1-2.238 1.52l.786 1.838zm2.87-1.947a9.253 9.253 0 0 0 1.943-2.868l-1.836-.792a7.251 7.251 0 0 1-1.524 2.248l1.416 1.412zm1.945-2.872c.468-1.099.71-2.28.71-3.475h-2c0 .925-.187 1.84-.55 2.69l1.84.785zM21.01 12a8.865 8.865 0 0 0-.71-3.475l-1.84.784c.363.85.55 1.766.55 2.69h2zm-.712-3.48a9.237 9.237 0 0 0-4.82-4.813l-.792 1.837a7.236 7.236 0 0 1 3.776 3.77l1.836-.794zM15.47 3.704A8.938 8.938 0 0 0 11.993 3v2c.927 0 1.845.186 2.7.546l.777-1.842zM11.993 3c-1.194 0-2.376.24-3.477.704l.778 1.842a6.938 6.938 0 0 1 2.7-.546V3zm-3.482.706A9.025 9.025 0 0 0 5.64 5.665l1.424 1.404A7.025 7.025 0 0 1 9.3 5.544l-.787-1.838zm-2.87 1.956A9.277 9.277 0 0 0 3.704 8.53l1.837.792a7.277 7.277 0 0 1 1.52-2.249l-1.418-1.41zm-1.94 2.871a8.865 8.865 0 0 0-.709 3.475h2c0-.925.187-1.84.55-2.69l-1.84-.785zm-.709 3.475c0 1.194.241 2.376.71 3.475l1.84-.784a6.865 6.865 0 0 1-.55-2.691h-2zm.711 3.48a9.254 9.254 0 0 0 1.944 2.867l1.416-1.412a7.253 7.253 0 0 1-1.523-2.248l-1.837.792zm1.943 2.866a9.076 9.076 0 0 0 2.868 1.948l.787-1.838a7.077 7.077 0 0 1-2.236-1.52l-1.42 1.41zm2.87 1.949a8.715 8.715 0 0 0 3.492.697l-.017-2a6.715 6.715 0 0 1-2.692-.537l-.784 1.84z" fill="#FAFAFA" mask="url(#a)"/><path d="M9.74 16.183c-.265.203-.504.22-.715.065-.211-.154-.264-.386-.159-.688l.902-2.678-2.298-1.644a.634.634 0 0 1-.285-.423.528.528 0 0 1 .124-.43.595.595 0 0 1 .498-.179l2.813.02.853-2.697a.54.54 0 0 1 1.062 0l.853 2.698 2.813-.02a.588.588 0 0 1 .496.178.523.523 0 0 1 .126.43.634.634 0 0 1-.285.423l-2.298 1.644.902 2.678c.105.303.052.533-.159.688-.203.154-.45.134-.714-.065l-2.27-1.665-2.26 1.665z" fill="#fff"/></svg>