<svg viewBox="0 0 24 24" fill="none" xmlns="http://www.w3.org/2000/svg"><mask id="a" maskUnits="userSpaceOnUse" x="3" y="3" width="18" height="18" fill="#000"><path fill="#fff" d="M3 3H21V21H3z"/><path fill-rule="evenodd" clip-rule="evenodd" d="M4.617 19.924A1 1 0 0 1 4 19v-8c0-.327.09-.794.388-1.21C4.724 9.326 5.274 9 6 9h7c.327 0 .794.09 1.21.388.465.336.79.886.79 1.612v5c0 .327-.09.794-.389 1.21-.335.465-.885.79-1.611.79H7.414l-1.707 1.707a1 1 0 0 1-1.09.217zM7 17h6c.8 0 1-.667 1-1v-5c0-.8-.667-1-1-1H6c-.8 0-1 .667-1 1v8l2-2z"/><path d="M5 11v8l2-2h6c.8 0 1-.667 1-1v-5c0-.8-.667-1-1-1H6c-.8 0-1 .667-1 1z"/><path fill-rule="evenodd" clip-rule="evenodd" d="M19.383 14.924A1 1 0 0 0 20 14V6c0-.327-.09-.794-.389-1.21C19.276 4.326 18.726 4 18 4h-7c-.327 0-.794.09-1.21.388C9.326 4.724 9 5.274 9 6v5c0 .327.09.794.388 1.21.336.465.886.79 1.612.79h5.586l1.707 1.707a1 1 0 0 0 1.09.217zM17 12h-6c-.8 0-1-.667-1-1V6c0-.8.667-1 1-1h7c.8 0 1 .667 1 1v8l-2-2z"/><path d="M19 6v8l-2-2h-6c-.8 0-1-.667-1-1V6c0-.8.667-1 1-1h7c.8 0 1 .667 1 1z"/></mask><path fill-rule="evenodd" clip-rule="evenodd" d="M4.617 19.924A1 1 0 0 1 4 19v-8c0-.327.09-.794.388-1.21C4.724 9.326 5.274 9 6 9h7c.327 0 .794.09 1.21.388.465.336.79.886.79 1.612v5c0 .327-.09.794-.389 1.21-.335.465-.885.79-1.611.79H7.414l-1.707 1.707a1 1 0 0 1-1.09.217zM7 17h6c.8 0 1-.667 1-1v-5c0-.8-.667-1-1-1H6c-.8 0-1 .667-1 1v8l2-2z" fill="#0E7490"/><path d="M5 11v8l2-2h6c.8 0 1-.667 1-1v-5c0-.8-.667-1-1-1H6c-.8 0-1 .667-1 1z" fill="#CFFAFE"/><path fill-rule="evenodd" clip-rule="evenodd" d="M19.383 14.924A1 1 0 0 0 20 14V6c0-.327-.09-.794-.389-1.21C19.276 4.326 18.726 4 18 4h-7c-.327 0-.794.09-1.21.388C9.326 4.724 9 5.274 9 6v5c0 .327.09.794.388 1.21.336.465.886.79 1.612.79h5.586l1.707 1.707a1 1 0 0 0 1.09.217zM17 12h-6c-.8 0-1-.667-1-1V6c0-.8.667-1 1-1h7c.8 0 1 .667 1 1v8l-2-2z" fill="#0E7490"/><path d="M19 6v8l-2-2h-6c-.8 0-1-.667-1-1V6c0-.8.667-1 1-1h7c.8 0 1 .667 1 1z" fill="#CFFAFE"/><path d="M7 17v-.5a.5.5 0 0 0-.354.146L7 17zm-2 2h-.5a.5.5 0 0 0 .854.354L5 19zm12-7l.354-.354A.5.5 0 0 0 17 11.5v.5zm2 2l-.354.354A.5.5 0 0 0 19.5 14H19zM7 17.5h6v-1H7v1zm6 0c.563 0 .963-.246 1.206-.583.224-.311.294-.67.294-.917h-1c0 .087-.03.228-.106.333-.057.08-.157.167-.394.167v1zm1.5-1.5v-5h-1v5h1zm0-5c0-.563-.246-.963-.583-1.206A1.617 1.617 0 0 0 13 9.5v1c.087 0 .228.03.333.106.08.057.167.157.167.394h1zM13 9.5H6v1h7v-1zm-7 0c-.563 0-.963.246-1.206.583-.224.311-.294.67-.294.917h1c0-.087.03-.228.106-.333.057-.08.157-.167.394-.167v-1zM4.5 11v8h1v-8h-1zm.854 8.354l2-2-.708-.708-2 2 .708.708zM17 11.5h-6v1h6v-1zm-6 0c-.237 0-.337-.088-.394-.167A.618.618 0 0 1 10.5 11h-1c0 .247.07.606.294.917.243.337.643.583 1.206.583v-1zm-.5-.5V6h-1v5h1zm0-5c0-.237.088-.337.167-.394A.619.619 0 0 1 11 5.5v-1c-.247 0-.606.07-.917.294C9.746 5.037 9.5 5.437 9.5 6h1zm.5-.5h7v-1h-7v1zm7 0c.237 0 .337.088.394.167A.619.619 0 0 1 18.5 6h1c0-.247-.07-.606-.294-.917-.243-.337-.643-.583-1.206-.583v1zm.5.5v8h1V6h-1zm.854 7.646l-2-2-.708.708 2 2 .708-.708zM4.617 19.924L5 19l-.383.924zM4.388 9.79l-.811-.585.811.585zm9.821-.403l.585-.811-.585.811zm.402 7.821l-.811-.584.811.584zM7.414 18v-1a1 1 0 0 0-.707.293l.707.707zm-1.707 1.707L5 19l.707.707zm13.676-4.783L19 14l.383.924zm.229-10.133l.811-.585-.811.585zM9.79 4.388l-.585-.811.585.811zm-.403 7.821l.812-.584-.812.584zm7.198.791l.707-.707a1 1 0 0 0-.707-.293v1zm1.707 1.707L19 14l-.707.707zM3 19a2 2 0 0 0 1.235 1.848L5 19H3zm0-8v8h2v-8H3zm.577-1.794A3.116 3.116 0 0 0 3 11h2c0-.168.05-.417.2-.625L3.577 9.206zM6 8c-1.052 0-1.902.483-2.423 1.206L5.2 10.375c.15-.209.4-.375.8-.375V8zm7 0H6v2h7V8zm1.794.577A3.116 3.116 0 0 0 13 8v2c.168 0 .417.05.625.2l1.169-1.623zM16 11c0-1.052-.483-1.902-1.206-2.423L13.625 10.2c.209.15.375.4.375.8h2zm0 5v-5h-2v5h2zm-.577 1.794A3.116 3.116 0 0 0 16 16h-2c0 .168-.05.417-.2.625l1.623 1.169zM13 19c1.052 0 1.902-.483 2.423-1.206L13.8 16.625c-.15.209-.4.375-.8.375v2zm-5.586 0H13v-2H7.414v2zm-1 1.414l1.707-1.707-1.414-1.414L5 19l1.414 1.414zm-2.18.434a2 2 0 0 0 2.18-.434L5 19l-.765 1.848zM19 14l.765 1.848A2 2 0 0 0 21 14h-2zm0-8v8h2V6h-2zm-.2-.625c.15.208.2.458.2.625h2c0-.486-.13-1.172-.577-1.794L18.8 5.375zM18 5c.4 0 .65.167.8.375l1.623-1.169C19.903 3.483 19.052 3 18 3v2zm-7 0h7V3h-7v2zm-.625.2c.208-.15.457-.2.625-.2V3c-.486 0-1.172.13-1.794.577L10.375 5.2zM10 6c0-.4.166-.65.375-.8L9.206 3.577C8.483 4.097 8 4.948 8 6h2zm0 5V6H8v5h2zm.2.625c-.15-.208-.2-.457-.2-.625H8c0 .486.13 1.172.577 1.794l1.623-1.169zM11 12c-.4 0-.65-.166-.8-.375l-1.623 1.169C9.097 13.517 9.948 14 11 14v-2zm5.586 0H11v2h5.586v-2zM19 14l-1.707-1.707-1.414 1.414 1.707 1.707L19 14zm0 0l-1.414 1.414a2 2 0 0 0 2.18.434L19 14z" fill="#fff" mask="url(#a)"/></svg>