<svg width="24" height="24" viewBox="0 0 24 24" fill="none" xmlns="http://www.w3.org/2000/svg">
<mask id="path-1-outside-1_7084_41505" maskUnits="userSpaceOnUse" x="3" y="3" width="18" height="18" fill="black">
<rect fill="white" x="3" y="3" width="18" height="18"/>
<path fill-rule="evenodd" clip-rule="evenodd" d="M11 16V20H10V16H11Z"/>
<path d="M13 11V13H10.3333C7.4 13 5 10.3 5 7V5H7.66667C10.6 5 13 7.7 13 11Z"/>
<path fill-rule="evenodd" clip-rule="evenodd" d="M14 14H10.3333C6.74024 14 4 10.7383 4 7V4H7.66667C11.2598 4 14 7.2617 14 11V14ZM13 11C13 7.7 10.6 5 7.66667 5H5V7C5 10.3 7.4 13 10.3333 13H13V11Z"/>
<path d="M19 8V9C19 12.3 16.6 15 13.6667 15H11V14C11 10.7 13.4 8 16.3333 8H19Z"/>
<path fill-rule="evenodd" clip-rule="evenodd" d="M20 7V9C20 12.7383 17.2598 16 13.6667 16H10V14C10 10.2617 12.7402 7 16.3333 7H20ZM19 9V8H16.3333C13.4 8 11 10.7 11 14V15H13.6667C16.6 15 19 12.3 19 9Z"/>
</mask>
<path fill-rule="evenodd" clip-rule="evenodd" d="M11 16V20H10V16H11Z" fill="#4D7C0F"/>
<path d="M13 11V13H10.3333C7.4 13 5 10.3 5 7V5H7.66667C10.6 5 13 7.7 13 11Z" fill="#65A30D"/>
<path fill-rule="evenodd" clip-rule="evenodd" d="M14 14H10.3333C6.74024 14 4 10.7383 4 7V4H7.66667C11.2598 4 14 7.2617 14 11V14ZM13 11C13 7.7 10.6 5 7.66667 5H5V7C5 10.3 7.4 13 10.3333 13H13V11Z" fill="#4D7C0F"/>
<path d="M19 8V9C19 12.3 16.6 15 13.6667 15H11V14C11 10.7 13.4 8 16.3333 8H19Z" fill="#84CC16"/>
<path fill-rule="evenodd" clip-rule="evenodd" d="M20 7V9C20 12.7383 17.2598 16 13.6667 16H10V14C10 10.2617 12.7402 7 16.3333 7H20ZM19 9V8H16.3333C13.4 8 11 10.7 11 14V15H13.6667C16.6 15 19 12.3 19 9Z" fill="#4D7C0F"/>
<path d="M13 13V13.5H13.5V13H13ZM5 5V4.5H4.5V5H5ZM19 8H19.5V7.5H19V8ZM11 15H10.5V15.5H11V15ZM12.5 11V13H13.5V11H12.5ZM13 12.5H10.3333V13.5H13V12.5ZM10.3333 12.5C7.72988 12.5 5.5 10.0808 5.5 7H4.5C4.5 10.5192 7.07012 13.5 10.3333 13.5V12.5ZM5.5 7V5H4.5V7H5.5ZM5 5.5H7.66667V4.5H5V5.5ZM7.66667 5.5C10.2701 5.5 12.5 7.91915 12.5 11H13.5C13.5 7.48085 10.9299 4.5 7.66667 4.5V5.5ZM18.5 8V9H19.5V8H18.5ZM18.5 9C18.5 12.0808 16.2701 14.5 13.6667 14.5V15.5C16.9299 15.5 19.5 12.5192 19.5 9H18.5ZM13.6667 14.5H11V15.5H13.6667V14.5ZM11.5 15V14H10.5V15H11.5ZM11.5 14C11.5 10.9192 13.7299 8.5 16.3333 8.5V7.5C13.0701 7.5 10.5 10.4808 10.5 14H11.5ZM16.3333 8.5H19V7.5H16.3333V8.5ZM11 16H12V15H11V16ZM11 20V21H12V20H11ZM10 20H9V21H10V20ZM14 14V15H15V14H14ZM4 4V3H3V4H4ZM20 7H21V6H20V7ZM10 21H11V19H10V21ZM11 15H10V17H11V15ZM12 20V16H10V20H12ZM9 16V20H11V16H9ZM3 7C3 11.1714 6.07586 15 10.3333 15V13C7.40463 13 5 10.3052 5 7H3ZM15 11C15 6.82861 11.9241 3 7.66667 3V5C10.5954 5 13 7.69478 13 11H15ZM10.3333 15H14V13H10.3333V15ZM3 4V7H5V4H3ZM7.66667 3H4V5H7.66667V3ZM15 14V11H13V14H15ZM13.6667 17C17.9241 17 21 13.1714 21 9H19C19 12.3052 16.5954 15 13.6667 15V17ZM16.3333 6C12.0759 6 9 9.82861 9 14H11C11 10.6948 13.4046 8 16.3333 8V6ZM21 9V7H19V9H21ZM10 17H13.6667V15H10V17ZM9 14V16H11V14H9ZM20 6H16.3333V8H20V6Z" fill="white" mask="url(#path-1-outside-1_7084_41505)"/>
<path fill-rule="evenodd" clip-rule="evenodd" d="M11 16V20H10V16H11Z" fill="#A3E635"/>
<path d="M13 13.5H13.5V13V11C13.5 7.48085 10.9299 4.5 7.66667 4.5H5H4.5V5V7C4.5 10.5192 7.07012 13.5 10.3333 13.5H13Z" fill="#65A30D" stroke="#A3E635"/>
<path d="M19.5 8V7.5H19H16.3333C13.0701 7.5 10.5 10.4808 10.5 14V15V15.5H11H13.6667C16.9299 15.5 19.5 12.5192 19.5 9V8Z" fill="#84CC16" stroke="#A3E635"/>
</svg>
