<svg width="24" height="24" viewBox="0 0 24 24" fill="none" xmlns="http://www.w3.org/2000/svg">
<path fill-rule="evenodd" clip-rule="evenodd" d="M14.4202 14.2101C14.8315 14.3472 15.2429 14.4158 15.7913 14.4158C16.2712 14.4158 16.7511 14.3472 17.1624 14.2787C18.5335 14.1416 19.0819 13.6617 19.2876 12.3592C19.3561 11.9478 19.4247 11.6051 19.4932 11.2623C19.5618 11.0566 19.6303 10.9195 19.836 10.7824C19.836 10.7481 19.8531 10.7139 19.8703 10.6796C19.8874 10.6453 19.9046 10.611 19.9046 10.5767C19.9046 10.4054 19.9217 10.2511 19.9388 10.0969C19.956 9.94262 19.9731 9.78837 19.9731 9.61699C20.0417 9.54843 19.9731 9.41132 19.836 9.41132C18.7391 9.20566 17.6423 9.06855 16.5454 9.06855C15.3114 9.06855 14.0089 9.20566 12.7749 9.47988C12.5693 9.54843 12.3636 9.54843 12.0894 9.54843H11.9523C11.6781 9.54843 11.4038 9.47988 11.1982 9.41132C9.96421 9.13711 8.66168 9 7.42771 9C6.26229 9 5.16542 9.13711 4.13711 9.34277C4.06855 9.34277 4 9.41132 4 9.54843C4 9.72937 4.0191 9.91031 4.03714 10.0812C4.05327 10.234 4.06855 10.3787 4.06855 10.5082C4.10283 10.5425 4.11997 10.5767 4.13711 10.611C4.15425 10.6453 4.17139 10.6796 4.20566 10.7139C4.41132 10.7824 4.54843 10.9881 4.54843 11.1937C4.61699 11.6051 4.68554 11.9478 4.7541 12.2906C5.02831 13.5931 5.50819 14.073 6.87927 14.2787C7.35915 14.3472 7.83903 14.4158 8.31891 14.4158C8.79879 14.4158 9.27867 14.3472 9.68999 14.2101C10.561 13.8081 10.9737 12.8167 11.3119 12.0039C11.3198 11.9851 11.3275 11.9664 11.3353 11.9478C11.4724 11.7422 11.541 11.5365 11.6095 11.3308C11.6095 11.3166 11.6124 11.2966 11.6159 11.273C11.6291 11.183 11.6497 11.0424 11.541 10.9881C11.4724 10.9881 11.4724 10.9881 11.4724 10.9195C11.4724 10.851 11.541 10.851 11.6781 10.851H12.2265H12.5007C12.5693 10.851 12.6378 10.851 12.6378 10.9195V10.9881C12.4322 11.0566 12.5007 11.2623 12.5693 11.3994C12.6035 11.5022 12.6378 11.5879 12.6721 11.6736C12.7064 11.7593 12.7406 11.845 12.7749 11.9478C13.1177 12.839 13.529 13.7988 14.4202 14.2101ZM15.0409 9.91059C14.4143 9.96857 13.5352 10.0499 13.5968 10.8506C13.6653 11.6732 13.871 12.7701 14.488 13.4556C14.9679 13.9355 15.9276 13.867 16.5446 13.7984C17.093 13.7299 17.5729 13.6613 18.0528 13.4556C18.327 13.25 18.4641 12.9758 18.5327 12.7015C18.6698 12.016 18.8069 11.2619 18.6698 10.5764C18.6024 10.0375 18.0719 9.96192 17.5982 9.89442L17.5729 9.89082C17.0677 9.84489 16.5317 9.8605 16.0062 9.87581C15.7473 9.88335 15.491 9.89082 15.2421 9.89082C15.1794 9.89778 15.1118 9.90404 15.041 9.91059L15.0409 9.91059ZM9.16709 9.983C9.83045 10.0275 10.6394 10.0818 10.5802 10.8509C10.5116 11.7421 10.2374 12.7704 9.62043 13.5245C9.14055 14.0044 8.18079 13.9359 7.56381 13.8673C7.01537 13.7988 6.53549 13.7302 6.05561 13.5245C5.7814 13.3189 5.64429 13.0447 5.57574 12.7704C5.43863 12.0849 5.30152 11.3308 5.43863 10.6453C5.50598 10.1064 6.03656 10.0308 6.51023 9.96333L6.53549 9.95973C7.04071 9.9138 7.5767 9.92941 8.10223 9.94472L8.10224 9.94472C8.36112 9.95226 8.61746 9.95973 8.86633 9.95973C8.96022 9.96912 9.06182 9.97593 9.16709 9.983Z" fill="#F97316"/>
<path d="M14.2107 14.6641L14.2358 14.6757L14.2621 14.6845C14.7296 14.8403 15.1948 14.9158 15.7913 14.9158C16.3077 14.9158 16.8147 14.8432 17.2286 14.7745C17.9447 14.7012 18.5473 14.5308 18.996 14.1281C19.4534 13.7176 19.6703 13.1393 19.7811 12.4393C19.846 12.0503 19.9108 11.7238 19.9771 11.3924C20.0017 11.322 20.017 11.2924 20.0292 11.274C20.0386 11.2599 20.0567 11.2362 20.1133 11.1984L20.336 11.05V10.8652C20.3441 10.8478 20.3535 10.8264 20.362 10.8037C20.3801 10.7555 20.4046 10.6758 20.4046 10.5767C20.4046 10.4369 20.4184 10.3089 20.4358 10.1521L20.4367 10.1437C20.4498 10.0255 20.4649 9.89025 20.4707 9.74071C20.5327 9.55359 20.4873 9.35927 20.4104 9.2312C20.3037 9.05339 20.1146 8.93274 19.8961 8.9139C18.7909 8.70801 17.6722 8.56855 16.5454 8.56855C15.2761 8.56855 13.9371 8.70942 12.6665 8.99179L12.6413 8.99738L12.6168 9.00554C12.502 9.04381 12.3813 9.04843 12.0894 9.04843H11.9523C11.7537 9.04843 11.537 8.99722 11.3563 8.93698L11.3318 8.92883L11.3066 8.92323C10.036 8.64086 8.69705 8.5 7.42771 8.5C6.23622 8.5 5.11766 8.63865 4.07415 8.84549C3.65336 8.88259 3.5 9.29047 3.5 9.54843C3.5 9.74943 3.52005 9.94512 3.53702 10.1064L3.53828 10.1182C3.55584 10.2851 3.56855 10.4058 3.56855 10.5082V10.7153L3.69189 10.8386C3.69212 10.8391 3.69236 10.8396 3.6926 10.8401C3.71183 10.8788 3.75945 10.9747 3.85211 11.0674L3.93557 11.1509L4.04251 11.1865C4.04311 11.1872 4.04381 11.188 4.04456 11.1891C4.04651 11.1919 4.0478 11.1947 4.04843 11.1966C4.04843 11.1966 4.04843 11.1966 4.04843 11.1966V11.2351L4.05524 11.2759C4.12512 11.6952 4.19499 12.0446 4.26335 12.3864L4.2638 12.3887L4.26378 12.3887L4.26482 12.3936C4.40916 13.0792 4.62528 13.6457 5.06149 14.0589C5.49769 14.4722 6.08259 14.6648 6.8051 14.7731L6.8051 14.7731L6.80856 14.7736L6.82457 14.7759C7.29383 14.843 7.80335 14.9158 8.31891 14.9158C8.84281 14.9158 9.37733 14.8414 9.8481 14.6845L9.87438 14.6757L9.89952 14.6641C10.4659 14.4027 10.8565 13.9554 11.1423 13.4982C11.4103 13.0694 11.6076 12.595 11.7698 12.2052C11.773 12.1973 11.7763 12.1895 11.7795 12.1817C11.9318 11.9405 12.0123 11.7037 12.0743 11.5177C12.0852 11.5449 12.0961 11.5691 12.1058 11.5897C12.1411 11.6924 12.1759 11.7794 12.2064 11.8558L12.2079 11.8593C12.2424 11.9456 12.2715 12.0188 12.3006 12.1059L12.3042 12.1167L12.3083 12.1273C12.6395 12.9886 13.1087 14.1555 14.2107 14.6641ZM11.6032 11.3519C11.6032 11.3519 11.604 11.3519 11.6057 11.3518L11.6032 11.3519Z" stroke="white"/>
</svg>
