<svg width="24" height="24" fill="none" xmlns="http://www.w3.org/2000/svg"><mask id="a" style="mask-type:alpha" maskUnits="userSpaceOnUse" x="7" y="4" width="10" height="16"><path fill-rule="evenodd" clip-rule="evenodd" d="M7.5 5.036c0-.54.416-1.036 1-1.036h7c.584 0 1 .497 1 1.036v13.928c0 .54-.416 1.036-1 1.036h-7c-.584 0-1-.497-1-1.036V5.036z" fill="#0F172A"/></mask><g mask="url(#a)"><path fill="#D9D9D9" d="M4 4H21V21H4z"/></g><path fill-rule="evenodd" clip-rule="evenodd" d="M7.5 5.036c0-.54.416-1.036 1-1.036h7c.584 0 1 .497 1 1.036v13.928c0 .54-.416 1.036-1 1.036h-7c-.584 0-1-.497-1-1.036V5.036z" fill="#0F172A"/><path fill-rule="evenodd" clip-rule="evenodd" d="M8.5 3c-1.21 0-2 1.02-2 2.036v13.928c0 1.016.79 2.036 2 2.036h7c1.21 0 2-1.02 2-2.036V5.036C17.5 4.02 16.71 3 15.5 3h-7zm-1 2.036c0-.237.08-.466.22-.648A.973.973 0 0 1 8.5 4h7c.328 0 .602.156.78.388.14.182.22.41.22.648v13.928c0 .237-.08.466-.22.648a.973.973 0 0 1-.78.388h-7a.973.973 0 0 1-.78-.388c-.14-.182-.22-.41-.22-.648V5.036z" fill="#fff"/><path fill-rule="evenodd" clip-rule="evenodd" d="M8 5.906C8 5.435 8.37 5 8.889 5h6.222c.52 0 .889.435.889.906v12.188c0 .471-.37.906-.889.906H8.89c-.52 0-.889-.435-.889-.906V5.906z" fill="#0F172A"/><path fill-rule="evenodd" clip-rule="evenodd" d="M8 5.906C8 5.435 8.37 5 8.889 5h6.222c.52 0 .889.435.889.906v12.188c0 .471-.37.906-.889.906H8.89c-.52 0-.889-.435-.889-.906V5.906z" fill="#FDE68A"/><mask id="b" style="mask-type:alpha" maskUnits="userSpaceOnUse" x="8" y="5" width="8" height="14"><path fill-rule="evenodd" clip-rule="evenodd" d="M8 5.906C8 5.435 8.37 5 8.889 5h6.222c.52 0 .889.435.889.906v12.188c0 .471-.37.906-.889.906H8.89c-.52 0-.889-.435-.889-.906V5.906z" fill="#0F172A"/><path fill-rule="evenodd" clip-rule="evenodd" d="M8 5.906C8 5.435 8.37 5 8.889 5h6.222c.52 0 .889.435.889.906v12.188c0 .471-.37.906-.889.906H8.89c-.52 0-.889-.435-.889-.906V5.906z" fill="#E2E8F0"/></mask><g mask="url(#b)"><path d="M8 8.5l8-2m-8 4l8-2" stroke="#F8FAFC" stroke-width="1.2" stroke-linecap="square"/></g><path d="M9 7.25A.25.25 0 0 1 9.25 7h1a.25.25 0 0 1 .25.25v1a.25.25 0 0 1-.25.25h-1A.25.25 0 0 1 9 8.25v-1z" fill="#F59E0B"/><path d="M9 9.25A.25.25 0 0 1 9.25 9h1a.25.25 0 0 1 .25.25v1a.25.25 0 0 1-.25.25h-1a.25.25 0 0 1-.25-.25v-1z" fill="#22C55E"/><path d="M9 11.25a.25.25 0 0 1 .25-.25h1a.25.25 0 0 1 .25.25v1a.25.25 0 0 1-.25.25h-1a.25.25 0 0 1-.25-.25v-1z" fill="#14B8A6"/><path d="M9 13.25a.25.25 0 0 1 .25-.25h1a.25.25 0 0 1 .25.25v1a.25.25 0 0 1-.25.25h-1a.25.25 0 0 1-.25-.25v-1z" fill="#6366F1"/><path d="M9 15.25a.25.25 0 0 1 .25-.25h1a.25.25 0 0 1 .25.25v1a.25.25 0 0 1-.25.25h-1a.25.25 0 0 1-.25-.25v-1z" fill="#8B5CF6"/><path d="M11.5 7.25a.25.25 0 0 1 .25-.25h1a.25.25 0 0 1 .25.25v1a.25.25 0 0 1-.25.25h-1a.25.25 0 0 1-.25-.25v-1z" fill="#F97316"/><path d="M11.5 9.25a.25.25 0 0 1 .25-.25h1a.25.25 0 0 1 .25.25v1a.25.25 0 0 1-.25.25h-1a.25.25 0 0 1-.25-.25v-1z" fill="#84CC16"/><path d="M11.5 11.25a.25.25 0 0 1 .25-.25h1a.25.25 0 0 1 .25.25v1a.25.25 0 0 1-.25.25h-1a.25.25 0 0 1-.25-.25v-1z" fill="#10B981"/><path d="M11.5 13.25a.25.25 0 0 1 .25-.25h1a.25.25 0 0 1 .25.25v1a.25.25 0 0 1-.25.25h-1a.25.25 0 0 1-.25-.25v-1z" fill="#3B82F6"/><path d="M11.5 15.25a.25.25 0 0 1 .25-.25h1a.25.25 0 0 1 .25.25v1a.25.25 0 0 1-.25.25h-1a.25.25 0 0 1-.25-.25v-1z" fill="#A855F7"/><path d="M14 7.25a.25.25 0 0 1 .25-.25h1a.25.25 0 0 1 .25.25v1a.25.25 0 0 1-.25.25h-1a.25.25 0 0 1-.25-.25v-1z" fill="#EF4444"/><path d="M14 9.25a.25.25 0 0 1 .25-.25h1a.25.25 0 0 1 .25.25v1a.25.25 0 0 1-.25.25h-1a.25.25 0 0 1-.25-.25v-1z" fill="#EAB308"/><path d="M14 11.25a.25.25 0 0 1 .25-.25h1a.25.25 0 0 1 .25.25v1a.25.25 0 0 1-.25.25h-1a.25.25 0 0 1-.25-.25v-1z" fill="#06B6D4"/><path d="M14 13.25a.25.25 0 0 1 .25-.25h1a.25.25 0 0 1 .25.25v1a.25.25 0 0 1-.25.25h-1a.25.25 0 0 1-.25-.25v-1z" fill="#0EA5E9"/><path d="M14 15.25a.25.25 0 0 1 .25-.25h1a.25.25 0 0 1 .25.25v1a.25.25 0 0 1-.25.25h-1a.25.25 0 0 1-.25-.25v-1z" fill="#D946EF"/><circle cx="12" cy="4.5" r=".25" fill="#D9D9D9"/></svg>