<?xml version="1.0" encoding="utf-8"?>
<!-- Generator: Adobe Illustrator 26.3.1, SVG Export Plug-In . SVG Version: 6.00 Build 0)  -->
<svg version="1.1" id="Layer_1" xmlns="http://www.w3.org/2000/svg" xmlns:xlink="http://www.w3.org/1999/xlink" x="0px" y="0px"
	 viewBox="0 0 24 24" style="enable-background:new 0 0 24 24;" xml:space="preserve">
<style type="text/css">
	.st0{fill:#F1A9CB;}
	.st1{fill:#DA1D70;}
	.st2{fill:#E63F8E;}
	.st3{fill:#C11656;}
</style>
<path class="st0" d="M13.2,5.2c-0.4,0.3-0.8,0.6-1.2,1c-0.3-0.4-0.7-0.8-1.1-1l0,0C6.3,2.3-1,9.2,7.1,16.3c0.8,0.7,3.9,3.2,4.9,3.2
	l0,0c1,0,4.1-2.5,4.9-3.2C25,9.2,17.7,2.3,13.2,5.2L13.2,5.2z"/>
<path class="st1" d="M13,6.2c-0.4,0.2-0.7,0.5-1,0.9c-0.3-0.3-0.6-0.6-1-0.9C7.1,3.7,1,9.6,7.8,15.6c0.7,0.6,3.3,2.7,4.2,2.7
	c0.9,0,3.5-2.1,4.2-2.7C23,9.6,16.9,3.7,13,6.2z"/>
<path class="st2" d="M12.7,8.1c-0.2,0.2-0.5,0.4-0.7,0.6c-0.2-0.2-0.4-0.4-0.6-0.6c-2.6-1.6-6.7,2.3-2.1,6.3
	c0.4,0.4,2.2,1.8,2.8,1.8c0.6,0,2.3-1.4,2.8-1.8C19.3,10.4,15.2,6.5,12.7,8.1z"/>
<path class="st3" d="M12.4,9.8c-0.1,0.1-0.3,0.2-0.4,0.3c-0.1-0.1-0.2-0.2-0.4-0.3c-1.5-0.9-3.9,1.3-1.2,3.6c0.3,0.2,1.3,1,1.6,1
	c0.3,0,1.3-0.8,1.6-1C16.2,11.1,13.9,8.8,12.4,9.8z"/>
</svg>
