<svg width="24" height="24" fill="none" xmlns="http://www.w3.org/2000/svg"><path d="M8.682 12a3.318 3.318 0 1 1 6.636 0 3.318 3.318 0 0 1-6.636 0zM12 5.5a6.5 6.5 0 1 0 0 13 6.5 6.5 0 0 0 0-13z" fill="#7F1D1D" stroke="#fff" stroke-linecap="round" stroke-linejoin="round"/><path d="M12 17.392a5.393 5.393 0 1 0 0-10.785 5.393 5.393 0 0 0 0 10.785z" stroke="#DC2626" stroke-width="3.319" stroke-linecap="round" stroke-linejoin="round"/><path d="M15 15l2 2m-8-2l-2 2M7 7l2 2m8-2l-2 2" stroke="#fff" stroke-width="1.414" stroke-linecap="round" stroke-linejoin="round"/><path d="M12 20.5a8.5 8.5 0 1 0 0-17 8.5 8.5 0 0 0 0 17z" stroke="#fff" stroke-linecap="round" stroke-linejoin="round"/><path d="M19.5 12a7.5 7.5 0 1 1-15 0 7.5 7.5 0 0 1 15 0z" stroke="#7F1D1D" stroke-linecap="round" stroke-linejoin="round"/><path d="M12 15.983a3.983 3.983 0 1 0 0-7.966 3.983 3.983 0 0 0 0 7.966z" stroke="#7F1D1D" stroke-width=".5" stroke-linecap="round" stroke-linejoin="round"/></svg>