<svg viewBox="0 0 300 249.92" xmlns="http://www.w3.org/2000/svg"><g fill-rule="evenodd"><path d="m97.06 0-3.7.24-9.2 1.19c-7.62 1.68-14.73 3.44-21.25 6.21-28 11.89-48.76 33.45-58.26 63.87-3.11 9.97-6.16 26.08-3.82 39.49 1 5.64 1.58 11.07 3.1 16.12a104.54 104.54 0 0 0 14.33 30.33c9.21 13.07 20.9 22.81 35 31 4.83 2.82 10.43 4.84 16 6.8 1.7.6 6 1 6.92 2.39.65 1.7-2.72 10.61-3.34 12.66q-3.82 13.55-7.64 27.1c-.89 2.91-3.61 9.25-3.22 12.18l.35.11 80.71.12h44.42c10.08 0 20.39.42 28.77-1.43 38.24-8.43 63.46-29.87 77-62.92 6.28-15.34 9.24-39.22 4.29-58.62-7.46-29.25-23.89-49.83-46.68-63.75a109.62 109.62 0 0 0 -17.55-8.24c-2.85-1.11-8-1.41-10-3.46q5.25-18.69 10.51-37.37c.87-2.88 4.08-11.15 3.7-13.85l-.4-.05z" fill="#120e0b"/><g fill="#fff"><path d="m99.45 30.44h89.66c2.41 0 6.28-.48 7.88.48v.08c0 3.35-1.74 6.75-2.63 9.67l-5.25 18.33c-1.08 3.47-1.48 8.17-3.47 10.86l-66.73.14c-19.86 0-31.69-1-40.72 10.35-4 5-9.06 12.72-7.4 22.56 2.29 13.55 9.79 22.11 21.85 25.79 5 1.53 11.9 1.2 18.39 1.2h49.54c2.31 0 6.24-.53 7.88.35 0 2.78-1.21 5.12-1.91 7.41q-2.08 7.28-4.18 14.56-6 21-12.05 42c-3.35 10.85-4.68 19.11-14.69 23.4-5.92 2.54-15.82 1.79-24.24 1.79-2.64 0-7.16.6-8.95-.48v-.12c0-3.75 2.31-8.76 3.34-12.18l6.69-23.75c.7-2.31 4.06-11 3.22-13l-19.46-.24c-8.69-1.43-15.85-2.35-22.68-5.25-19.7-8.35-33.46-23.68-40-45.25-2.17-7.17-4-18.12-2.27-27.34a95.72 95.72 0 0 1 2.39-11.22 73.27 73.27 0 0 1 11.58-22.32 71.32 71.32 0 0 1 35.7-24.71 106.18 106.18 0 0 1 12.42-2.63z"/><path d="m157.23 79.75h32.59c7.87 0 16-.34 22.57 1.08 30.33 6.53 50 26.54 56.23 57.19 3.19 15.72-1 32.85-6.8 42.86-11.26 19.35-26.52 32.76-52.18 37.72-5.65 1.1-12.36.84-19 .84h-28.3c-3 0-9.59.67-11.7-.36v-.6c1.53-2.46 3.54-4.59 4.78-7.4 2.05-4.64 3.23-10.27 4.77-15.28 1.49-4.83 2.37-12 4.78-16 2.62-.68 6.62-.24 9.67-.24h19.22c4.25 0 8.67.23 12.18-.59 10.1-2.36 17.53-8.7 21.25-17.43 5.68-13.31.11-27.82-8.24-34.39a33.92 33.92 0 0 0 -13.73-6.57c-4.9-1.11-11.44-.59-17.19-.59h-50.5c-1.65 0-5.83.54-6.57-.48-.65-1.55 2.76-10.74 3.35-12.66 3.28-10.6 4.17-18.8 12.89-24.11a23.71 23.71 0 0 1 6.33-2.51z"/></g></g></svg>