<svg viewBox="0 0 512 512" xmlns="http://www.w3.org/2000/svg"><path d="m411.9 196h-311.8c-8.6 0-15.5 6.9-15.5 15.5v113.8c0 8.6 6.9 15.5 15.5 15.5h311.9c8.6 0 15.5-6.9 15.5-15.5v-113.8c0-8.5-7-15.5-15.6-15.5zm-152.2 41.7c0-3.3 2.7-5.9 5.9-5.9h23.8c3.3 0 5.9 2.7 5.9 5.9v23.8c0 3.3-2.7 5.9-5.9 5.9h-23.8c-3.3 0-5.9-2.7-5.9-5.9zm-47.3 0c0-3.3 2.7-5.9 5.9-5.9h23.8c3.3 0 5.9 2.7 5.9 5.9v23.8c0 3.3-2.7 5.9-5.9 5.9h-23.8c-3.3 0-5.9-2.7-5.9-5.9zm-47.2 0c0-3.3 2.7-5.9 5.9-5.9h23.8c3.3 0 5.9 2.7 5.9 5.9v23.8c0 3.3-2.7 5.9-5.9 5.9h-23.8c-3.3 0-5.9-2.7-5.9-5.9zm-47.6 23.8v-23.8c0-3.3 2.7-5.9 5.9-5.9h24.1c3.3 0 5.9 2.7 5.9 5.9v23.8c0 3.3-2.7 5.9-5.9 5.9h-24.1c-3.2 0-5.9-2.6-5.9-5.9zm59.4 49.5c0 3.3-2.7 5.9-5.9 5.9h-23.8c-3.3 0-5.9-2.7-5.9-5.9v-23.8c0-3.3 2.7-5.9 5.9-5.9h23.7c3.3 0 5.9 2.7 5.9 5.9v23.8zm47.5 0c0 3.3-2.7 5.9-5.9 5.9h-23.8c-3.3 0-5.9-2.7-5.9-5.9v-23.8c0-3.3 2.7-5.9 5.9-5.9h23.8c3.3 0 5.9 2.7 5.9 5.9zm47.5 0c0 3.3-2.7 5.9-5.9 5.9h-23.8c-3.3 0-5.9-2.7-5.9-5.9v-23.8c0-3.3 2.7-5.9 5.9-5.9h23.8c3.3 0 5.9 2.7 5.9 5.9zm47.6 0c0 3.3-2.7 5.9-5.9 5.9h-23.8c-3.3 0-5.9-2.7-5.9-5.9v-23.8c0-3.3 2.7-5.9 5.9-5.9h23.8c3.3 0 5.9 2.7 5.9 5.9zm23-49.5c0 3.3-2.7 5.9-5.9 5.9h-23.8c-3.3 0-5.9-2.7-5.9-5.9v-23.8c0-3.3 2.7-5.9 5.9-5.9h23.8c3.3 0 5.9 2.7 5.9 5.9zm47.3 0c0 3.3-2.7 5.9-5.9 5.9h-23.8c-3.3 0-5.9-2.7-5.9-5.9v-23.8c0-3.3 2.7-5.9 5.9-5.9h23.8c3.3 0 5.9 2.7 5.9 5.9z"/><path d="m136.6 81h239.8c16.6 0 30 13.4 30 30v72.8c0 16.6-13.4 30-30 30h-239.8c-16.6 0-30-13.4-30-30v-72.8c0-16.6 13.4-30 30-30z"/><path d="m376.4 86.1c13.8 0 25 11.2 25 25v72.8c0 13.8-11.2 25-25 25h-239.8c-13.8 0-25-11.2-25-25v-72.8c0-13.8 11.2-25 25-25zm0-10h-239.8c-19.3 0-35 15.7-35 35v72.8c0 19.3 15.7 35 35 35h239.7c19.3 0 35-15.7 35-35v-72.8c0-19.3-15.6-35-34.9-35z"/><path d="m209.1 163-30.1-14.3 30.1-14.3c1.3-.6 2.5-1.4 3.5-2.4.7-.8 1-1.8 1-2.9.1-1.2-.4-2.3-1.2-3.1-.9-.8-2-1.3-3.2-1.2-.5 0-1 .1-1.5.2-.9.3-1.8.7-2.7 1.1l-36.7 17.1-.4.2c-3.4 1.6-5.1 3.4-5.1 5.5 0 2 1.6 3.8 4.9 5.3.4.2.7.3.9.4l36.4 16.8c.8.4 1.6.7 2.4.9.6.2 1.2.3 1.8.3 1.2.1 2.3-.4 3.2-1.2 1.5-1.7 1.6-4.2.2-6-1-1-2.2-1.8-3.5-2.4z"/><path d="m274 112.8c-1.1-.9-2.4-1.4-3.8-1.3-.9 0-1.8.4-2.5 1.1-1 1.2-1.8 2.5-2.4 3.9l-27 57.9-.1.2c-.7 1.3-1.1 2.7-1.2 4.2 0 1.3.6 2.5 1.6 3.3 1.1.9 2.4 1.4 3.8 1.3.9 0 1.9-.4 2.5-1.1 1-1.1 1.8-2.4 2.3-3.8l27.1-58c.4-.8.8-1.7 1-2.6.2-.6.3-1.2.3-1.8 0-1.3-.6-2.5-1.6-3.3z"/><path d="m343.4 143.5-.4-.2-36.6-17.1c-.9-.4-1.8-.8-2.7-1.1-.5-.2-1.1-.3-1.7-.3-1.2-.1-2.3.4-3.1 1.2-.8.9-1.2 2-1.2 3.1s.3 2.1 1 2.9c1 1 2.2 1.9 3.5 2.4l30.1 14.3-29.9 14.3c-1.3.6-2.5 1.4-3.5 2.4-.7.8-1 1.8-1 2.8-.1 1.2.4 2.3 1.2 3.2.8.8 1.9 1.2 3.1 1.2.6 0 1.2-.1 1.8-.3.8-.2 1.6-.5 2.4-.9l36.5-16.8c.3-.1.5-.2.7-.4 3.3-1.5 5-3.3 5-5.3s-1.7-3.9-5.2-5.4z"/><path d="m394 268.3c-14 0-26 8.5-31.1 20.7-3.7-2.8-7.9-4.8-12.4-5.9v-7c0-18.6-15.1-33.7-33.7-33.7s-33.7 15.1-33.7 33.7v31.7c-1-.1-2.1-.1-3.2-.1-6.6 0-13.1 1.8-18.7 5.2-2 1.2-3.9 2.6-5.6 4.2-1.6-1.4-3.3-2.7-5.2-3.8-5.7-3.4-12.3-5.1-18.9-5.2-.9 0-1.8 0-2.8.1v-29.2c0-18.7-15.2-33.8-33.9-33.8-12.9 0-24.2 7.3-29.9 18-5.8-4.7-13.2-7.5-21.3-7.5-16.1 0-29.7 11.3-33.1 26.5-15.1 3.5-26.3 17.1-26.3 33.1v56.6c0 39.8 32.3 72.2 72.1 72.3h15.4c24.4 0 46.8-12.2 60.2-32.5l1.4-2.1.1-.2c2.5-3.9 8.2-13.7 22.3-38.5 18.2 32.2 20.8 36.3 21.9 37.9l1.7 2.7c13.4 20.4 35.9 32.5 60.3 32.5h15.6c39.8 0 72.3-32.5 72.3-72.4v-69.6c.2-18.5-14.9-33.7-33.5-33.7z" fill="#fff"/><path d="m245.2 321.8c-4.2-2.5-9-3.8-13.9-3.8-4.4 0-8.8 1.1-12.7 3.2v-42.2c0-13.1-10.7-23.8-23.8-23.8s-23.8 10.7-23.8 23.8v13.7c-.6 0-1.2-.1-1.8-.1s-1.1 0-1.7.1v-3.2c0-13.2-10.7-23.9-23.9-23.9s-23.9 10.7-23.9 23.9v1.8c-.5 0-1.1-.1-1.7-.1-13.2.1-23.9 10.8-23.8 24v56.6c0 34.3 27.8 62.2 62.1 62.3h15.3c20.9 0 40.5-10.6 51.9-28.1l1.5-2.2c2.8-4.2 10-16.7 28.6-49.7 6.5-11.7 2.6-25.8-8.4-32.3zm-4.4 25c-16 28.2-25.3 44.6-27.9 48.6l-1.7 2.5c-8.7 13.3-23.5 21.3-39.4 21.3h-15.3c-26.1 0-47.3-21.2-47.2-47.3v-56.7c-.2-4.9 3.7-9 8.6-9.2s9 3.7 9.2 8.6v.6 22.6c0 2.1 1.7 3.8 3.8 3.8s3.8-1.7 3.8-3.8v-48.3c.4-5 4.8-8.6 9.7-8.2 4.4.4 7.9 3.8 8.2 8.2v48.2c.1 2.1 1.9 3.8 4 3.6 2-.1 3.5-1.7 3.6-3.6v-21.3c.4-5 4.8-8.6 9.7-8.2 4.4.4 7.9 3.9 8.2 8.2v21.3c0 2.1 1.7 3.8 3.8 3.8h.1c2.1 0 3.8-1.7 3.8-3.8v-58.7c0-4.9 4-8.9 8.9-8.9 4.9 0 8.9 4 8.9 8.9v67.3c0 2.1 1.7 3.8 3.8 3.8.8 0 1.6-.4 2.1-.9.2-.1.5 0 .6-.1l12.6-12.6c2.2-2.3 5.3-3.5 8.5-3.5 2.2 0 4.4.6 6.3 1.7 4.2 2.5 5.7 7.8 3.3 12.1z"/><path d="m240.8 346.8c-16 28.2-25.3 44.6-27.9 48.6l-1.7 2.5c-8.7 13.3-23.5 21.3-39.4 21.3h-15.3c-26.1 0-47.3-21.2-47.2-47.3v-56.7c-.2-4.9 3.7-9 8.6-9.2s9 3.7 9.2 8.6v.6 22.6c0 2.1 1.7 3.8 3.8 3.8s3.8-1.7 3.8-3.8v-48.3c.4-5 4.8-8.6 9.7-8.2 4.4.4 7.9 3.8 8.2 8.2v48.2c.1 2.1 1.9 3.8 4 3.6 2-.1 3.5-1.7 3.6-3.6v-21.3c.4-5 4.8-8.6 9.7-8.2 4.4.4 7.9 3.9 8.2 8.2v21.3c0 2.1 1.7 3.8 3.8 3.8h.1c2.1 0 3.8-1.7 3.8-3.8v-58.7c0-4.9 4-8.9 8.9-8.9 4.9 0 8.9 4 8.9 8.9v67.3c0 2.1 1.7 3.8 3.8 3.8.8 0 1.6-.4 2.1-.9.2-.1.5 0 .6-.1l12.6-12.6c2.2-2.3 5.3-3.5 8.5-3.5 2.2 0 4.4.6 6.3 1.7 4.2 2.5 5.7 7.8 3.3 12.1z"/><path d="m393.9 278.4c-12.5 0-22.9 9.8-23.6 22.3-.7-.1-1.4-.1-2.1-.1-2.3 0-4.5.4-6.7 1-4.5-6-11.5-9.5-19-9.6-.7 0-1.3 0-2 .1v-16.1c0-13.1-10.6-23.7-23.7-23.7h-.1c-13.1 0-23.6 10.6-23.7 23.7v45c-4-2.3-8.5-3.5-13.1-3.5-4.8 0-9.6 1.3-13.7 3.8-11.1 6.5-14.9 20.8-8.6 32 24.3 43.2 27.5 48.2 28.6 49.8l1.7 2.6c11.5 17.5 31.1 28.1 52.1 28h15.4c34.4 0 62.3-27.9 62.4-62.4v-69.3c-.1-13.1-10.8-23.7-23.9-23.6zm8.6 23.6v69.5c0 26.1-21.2 47.2-47.2 47.2h-15.4c-15.8 0-30.7-7.9-39.4-21.1l-1.7-2.7c-2.8-4.2-13-22.1-28.1-49-2.3-4.1-.9-9.2 3.1-11.6 1.8-1.1 3.9-1.7 6-1.7 3.1 0 6.1 1.2 8.3 3.4l12.6 12.6c.8.8 1.9 1.3 3 1.3.6 0 1.1-.1 1.6-.4 1.6-.7 2.7-2.2 2.7-4v-69.5c0-4.7 3.8-8.6 8.6-8.6 4.7 0 8.6 3.8 8.6 8.6v61.1c-.1 2.4 1.7 4.4 4.1 4.5s4.4-1.7 4.5-4.1c0-.1 0-.3 0-.4v-21.5c-.2-4.7 3.6-8.7 8.3-8.9s8.7 3.6 8.9 8.3v.6 21.5c-.1 2.4 1.7 4.4 4.1 4.5s4.4-1.7 4.5-4.1c0-.1 0-.3 0-.4v-12.9c.2-4.7 4.1-8.5 8.9-8.3 4.5.1 8.1 3.8 8.3 8.3v12.9c-.1 2.4 1.7 4.4 4.1 4.5s4.4-1.7 4.5-4.1c0-.1 0-.3 0-.4v-35.1c-.2-4.7 3.5-8.7 8.3-8.9 4.7-.2 8.7 3.5 8.9 8.3-.1.2-.1.4-.1.6z"/><path d="m402.5 301.4v.6 69.5c0 26.1-21.2 47.2-47.2 47.2h-15.4c-15.8 0-30.7-7.9-39.4-21.1l-1.7-2.7c-2.8-4.2-13-22.1-28.1-49-2.3-4.1-.9-9.2 3.1-11.6 1.8-1.1 3.9-1.7 6-1.7 3.1 0 6.1 1.2 8.3 3.4l12.6 12.6c.8.8 1.9 1.3 3 1.3.6 0 1.1-.1 1.6-.4 1.6-.7 2.7-2.2 2.7-4v-69.5c0-4.7 3.8-8.6 8.6-8.6 4.7 0 8.6 3.8 8.6 8.6v61.1c-.1 2.4 1.7 4.4 4.1 4.5s4.4-1.7 4.5-4.1c0-.1 0-.3 0-.4v-21.5c-.2-4.7 3.6-8.7 8.3-8.9s8.7 3.6 8.9 8.3v.6 21.5c-.1 2.4 1.7 4.4 4.1 4.5s4.4-1.7 4.5-4.1c0-.1 0-.3 0-.4v-12.9c.2-4.7 4.1-8.5 8.9-8.3 4.5.1 8.1 3.8 8.3 8.3v12.9c-.1 2.4 1.7 4.4 4.1 4.5s4.4-1.7 4.5-4.1c0-.1 0-.3 0-.4v-35.1c-.2-4.7 3.5-8.7 8.3-8.9 4.7-.1 8.7 3.6 8.8 8.3z"/></svg>