<svg enable-background="new 0 0 24 24" viewBox="0 0 24 24" xmlns="http://www.w3.org/2000/svg"><path clip-rule="evenodd" d="m4.8 11.5c0-.2.1-.3.2-.5v-1h1.6v.2c.3 0 .6.1.9.3v-.5h.5c.3-.2.6-.3 1-.3s.7.1 1 .3h1.6v1.6h-.9v1.2h.1c.1 0 .3 0 .4.1v-.7h1.6v.8c.2 0 .3-.1.5-.1h.1v-1.3h-1v-1.6h1.6c.3-.2.6-.3 1-.3.4 0 .7.1 1 .3h.5v.6c.1.2.2.5.2.7v.3l.6.3c.1-.1.1-.2.2-.3h-.1v-1.6h1.6v1c.4 0 .7.2 1 .5v-1.5c0-.6-.4-1-1-1h-14c-.6 0-1 .4-1 1v2c.2-.2.5-.4.8-.5z" fill="#171717" fill-rule="evenodd"/><path d="m0 0h24v24h-24z" fill="none"/><g fill="#171717"><path d="m9.8 4.3c-.1-.1-.2-.1-.2-.1h-.1c-.1 0-.1 0-.2.1l-1.9.9c-.1 0-.4.1-.4.4 0 .2.1.3.3.4l1.9.9s.1 0 .1.1h.1c.1 0 .2 0 .2-.1.1-.1.1-.3 0-.5.2-.1.1-.1 0-.2l-1.3-.6 1.3-.6c.1 0 .2-.1.2-.1.1-.1.1-.1.1-.2 0-.2 0-.3-.1-.4z"/><path d="m13 3.6c-.1-.1-.2-.1-.3-.1s-.2 0-.2.1c-.1.1-.1.1-.1.2l-1.4 3c0 .1-.1.2-.1.3 0 .1 0 .2.1.3s.2.1.3.1c.1 0 .2 0 .2-.1.1-.1.1-.1.1-.2l1.4-3s0-.1.1-.2v-.1c.1-.1 0-.2-.1-.3z"/><path d="m16.6 5.2-1.9-.9s-.1 0-.1-.1h-.1c-.1 0-.2 0-.3.1-.1.1-.1.2-.1.2 0 .1 0 .2.1.2.1.1.1.1.2.2l1.3.6-1.3.6c-.1 0-.2.1-.2.1-.1.1-.1.1-.1.2s0 .2.1.3c.1.1.2.1.3.1h.1s.1 0 .1-.1l1.9-.7h.1c.2-.1.3-.3.3-.4s-.1-.3-.4-.4z"/></g><path d="m6 2.5h12c.3 0 .5.2.5.5v5c0 .3-.2.5-.5.5h-12c-.3 0-.5-.2-.5-.5v-5c0-.3.2-.5.5-.5z" fill="none" stroke="#171717"/><path d="m11.4 13.5c-.2-.1-.4-.2-.7-.2-.2 0-.4.1-.6.2v-2.1c0-.6-.5-1.2-1.2-1.2-.6 0-1.2.5-1.2 1.2v.6h-.1s-.1 0-.1 0v-.2c0-.7-.5-1.2-1.2-1.2s-1.2.5-1.2 1.2v.2h-.1c-.5 0-1 .5-1 1.2v2.8c0 1.6 1.4 3 3.1 3h.8c1 0 2-.5 2.6-1.4l.1-.1c.1-.2.5-.8 1.4-2.4.2-.6 0-1.3-.6-1.6zm-.2 1.2c-.8 1.4-1.2 2.2-1.4 2.4l-.1.1c-.4.7-1.2 1-1.9 1h-.7c-1.3 0-2.3-1-2.3-2.3v-2.8c0-.2.2-.4.4-.5.2 0 .4.2.5.4v1.1c0 .1.1.2.2.2s.2-.1.2-.2v-2.4c0-.2.2-.4.5-.4.2 0 .4.2.4.4v2.4c0 .1.1.2.2.2s.2-.1.2-.2v-1c0-.2.2-.4.5-.4.2 0 .4.2.4.4v1c0 .1.1.2.2.2.1 0 .2-.1.2-.2v-2.9c0-.2.2-.4.4-.4s.4.2.4.4v3.3c0 .1.1.2.2.2h.1l.6-.6c.1-.1.3-.2.4-.2s.2 0 .3.1c.2.2.2.5.1.7z" fill="#171717"/><path d="m11.2 14.7c-.8 1.4-1.2 2.2-1.4 2.4l-.1.1c-.4.7-1.2 1-1.9 1h-.7c-1.3 0-2.3-1-2.3-2.3v-2.8c0-.2.2-.4.4-.5.2 0 .4.2.5.4v1.1c0 .1.1.2.2.2s.1.1.1 0v-2.4c0-.2.2-.4.5-.4.2 0 .4.2.4.4v2.4c0 .1.1.2.2.2s.2-.1.2-.2v-1c0-.2.2-.4.5-.4.2 0 .4.2.4.4v1c0 .1.1.2.2.2.1 0 .2-.1.2-.2v-2.9c0-.2.2-.4.4-.4s.4.2.4.4v3.3c0 .1.1.2.2.2h.1l.6-.6c.1-.1.3-.2.4-.2s.2 0 .3.1c.3 0 .3.3.2.5z" fill="#fafafa"/><path d="m18.8 11.5c-.6 0-1.1.5-1.2 1.1h-.1c-.1 0-.2 0-.3.1-.2-.3-.6-.5-.9-.5h-.1v-.8c0-.6-.5-1.1-1.2-1.1-.6 0-1.2.5-1.2 1.1v2.2c-.2-.1-.4-.2-.6-.2s-.5.1-.7.2c-.5.3-.7 1-.4 1.6 1.2 2.1 1.3 2.3 1.4 2.4l.1.1c.6.8 1.5 1.4 2.6 1.4h.8c1.7 0 3.1-1.4 3.1-3v-3.4c-.1-.7-.6-1.2-1.3-1.2zm.4 1.1v3.4c0 1.3-1 2.3-2.3 2.3h-.8c-.8 0-1.5-.4-1.9-1l-.1-.1c-.1-.2-.6-1.1-1.4-2.4-.1-.2 0-.4.1-.6.1-.1.2-.1.3-.1s.3.1.4.2l.6.6s.1.1.1.1h.1c.1 0 .1-.1.1-.2v-3.4c0-.2.2-.4.4-.4s.4.2.4.4v3c0 .1.1.2.2.2s.2-.1.2-.2v-1c0-.2.2-.4.4-.4s.4.2.4.4v1c0 .1.1.2.2.2s.2-.1.2-.2v-.6c0-.2.2-.4.4-.4s.4.2.4.4v.6c0 .1.1.2.2.2s.2-.1.2-.2v-1.7c0-.2.2-.4.4-.4.6-.1.8 0 .8.3z" fill="#171717"/><path d="m19.2 12.6v3.4c0 1.3-1 2.3-2.3 2.3h-.8c-.8 0-1.5-.4-1.9-1l-.1-.1c-.1-.2-.6-1.1-1.4-2.4-.1-.2 0-.4.1-.6.1-.1.2-.1.3-.1s.3.1.4.2l.6.6s.1.1.1.1h.1c.1 0 .1-.1.1-.2v-3.4c0-.2.2-.4.4-.4s.4.2.4.4v3c0 .1.1.2.2.2s.2-.1.2-.2v-1c0-.2.2-.4.4-.4s.4.2.4.4v1c0 .1.1.2.2.2s.2-.1.2-.2v-.6c0-.2.2-.4.4-.4s.4.2.4.4v.6c0 .1.1.2.2.2s.2-.1.2-.2v-1.7c0-.2.2-.4.4-.4.6-.1.8 0 .8.3z" fill="#fafafa"/></svg>