<svg width="24" height="24" fill="none" xmlns="http://www.w3.org/2000/svg"><g clip-path="url(#clip0_6990_41554)"><path d="M9.806 5.295a.341.341 0 0 0-.253-.092c-.037 0-.068.006-.099.012l-.012.006a1.145 1.145 0 0 0-.154.062l-1.93.9-.019.006C7.253 6.226 7 6.35 7 6.59c0 .16.111.29.327.389a.1.1 0 0 1 .037.018l1.917.882a.723.723 0 0 0 .272.074h.018c.08 0 .16-.03.235-.093l.012-.012a.372.372 0 0 0 .012-.475l-.012-.012a.747.747 0 0 0-.216-.148l-1.344-.641 1.344-.635a.82.82 0 0 0 .222-.148l.006-.006a.333.333 0 0 0 .08-.229.335.335 0 0 0-.104-.259zM13.03 4.6a.454.454 0 0 0-.284-.099.326.326 0 0 0-.216.092l-.006.007a.77.77 0 0 0-.142.234L10.97 7.867l-.006.006a.693.693 0 0 0-.08.271v.006c0 .105.05.204.13.272.08.061.166.098.258.098h.025a.276.276 0 0 0 .216-.098.7.7 0 0 0 .142-.235l1.418-3.033c.018-.044.05-.1.061-.16a.47.47 0 0 0 .019-.13.298.298 0 0 0-.123-.265zm3.618 1.59l-1.942-.906c-.05-.018-.099-.043-.148-.061a.399.399 0 0 0-.123-.025.33.33 0 0 0-.253.099l-.007.006a.36.36 0 0 0-.092.246c0 .093.03.173.08.235l.006.006a.724.724 0 0 0 .222.154l1.338.635-1.331.635a.822.822 0 0 0-.223.148l-.006.006a.318.318 0 0 0-.08.222.332.332 0 0 0 .093.253l.006.006a.36.36 0 0 0 .253.099.469.469 0 0 0 .13-.019.564.564 0 0 0 .14-.055l1.912-.876a.126.126 0 0 0 .056-.03c.21-.099.32-.229.32-.383-.012-.11-.067-.271-.35-.394z" fill="#171717"/><rect x="5.5" y="3.5" width="13" height="6" rx=".5" stroke="#171717"/><mask id="a" maskUnits="userSpaceOnUse" x="3" y="9.2" width="18" height="11" fill="#000"><path fill="#fff" d="M3 9.2H21V20.2H3z"/><path d="M11.213 14.709c-.79 1.39-1.245 2.197-1.372 2.393l-.087.12a2.31 2.31 0 0 1-1.937 1.05h-.755a2.322 2.322 0 0 1-2.324-2.33v-2.79a.442.442 0 0 1 .421-.456.442.442 0 0 1 .456.421V14.26c0 .104.086.184.184.184a.19.19 0 0 0 .185-.184v-2.37a.44.44 0 0 1 .478-.403c.22.017.386.184.404.403v2.37a.187.187 0 0 0 .196.179.192.192 0 0 0 .178-.18V13.21a.44.44 0 0 1 .48-.404c.218.017.385.19.403.404v1.049c0 .104.086.184.184.184h.006a.186.186 0 0 0 .184-.184V11.37a.438.438 0 1 1 .877 0v3.31c0 .104.086.184.184.184.04 0 .081-.017.104-.046.012-.006.023 0 .029-.006l.623-.622a.57.57 0 0 1 .42-.173c.11 0 .22.029.312.086a.447.447 0 0 1 .167.606zm8.024-2.103v3.373a2.303 2.303 0 0 1-2.313 2.293h-.751a2.308 2.308 0 0 1-1.928-1.024l-.086-.131c-.138-.205-.637-1.075-1.378-2.378a.412.412 0 0 1 .15-.563.584.584 0 0 1 .292-.085.58.58 0 0 1 .408.165l.62.614a.21.21 0 0 0 .229.045.21.21 0 0 0 .132-.193v-3.373c0-.228.184-.415.419-.415.23 0 .419.182.419.415v2.963a.206.206 0 0 0 .2.217c.115 0 .219-.086.219-.2v-1.057a.424.424 0 0 1 .407-.433.425.425 0 0 1 .436.404v1.069a.206.206 0 0 0 .2.217c.116 0 .219-.086.219-.2v-.642a.421.421 0 0 1 .843 0v.625a.206.206 0 0 0 .201.217c.115.005.218-.086.218-.2V12.607a.42.42 0 0 1 .408-.432.42.42 0 0 1 .436.404v.028z"/><path fill-rule="evenodd" clip-rule="evenodd" d="M18.818 11.463c-.614 0-1.119.477-1.153 1.08-.035-.005-.07-.005-.104-.005-.114 0-.218.017-.327.05a1.183 1.183 0 0 0-.93-.466c-.034 0-.063 0-.097.006v-.78a1.15 1.15 0 0 0-1.159-1.148h-.006c-.642 0-1.153.512-1.159 1.149v2.184a1.32 1.32 0 0 0-1.314.011 1.14 1.14 0 0 0-.419 1.553c1.188 2.1 1.349 2.338 1.4 2.418l.086.125A3.046 3.046 0 0 0 16.19 19h.752A3.048 3.048 0 0 0 20 15.968v-3.362a1.173 1.173 0 0 0-1.182-1.143zm.419 4.516V12.578a.42.42 0 0 0-.436-.404.42.42 0 0 0-.408.432v1.724c0 .113-.103.204-.218.199a.206.206 0 0 1-.2-.217v-.625a.423.423 0 0 0-.844 0v.643c0 .113-.103.199-.218.199a.206.206 0 0 1-.2-.217v-1.069a.425.425 0 0 0-.437-.404.424.424 0 0 0-.407.432v1.059c0 .113-.104.199-.219.199a.206.206 0 0 1-.2-.217V11.35a.416.416 0 0 0-.42-.415.416.416 0 0 0-.418.415v3.373a.21.21 0 0 1-.132.193.204.204 0 0 1-.23-.045l-.62-.614a.58.58 0 0 0-.407-.165.584.584 0 0 0-.292.085.412.412 0 0 0-.15.563c.74 1.303 1.24 2.173 1.378 2.378l.086.13a2.308 2.308 0 0 0 1.928 1.024h.751a2.303 2.303 0 0 0 2.313-2.292z"/><path fill-rule="evenodd" clip-rule="evenodd" d="M11.432 13.475a1.36 1.36 0 0 0-.686-.185c-.219 0-.432.052-.623.156V11.37a1.171 1.171 0 0 0-2.34 0v.675c-.03 0-.058-.006-.087-.006-.029 0-.052 0-.086.006v-.156c0-.651-.525-1.176-1.177-1.176-.651 0-1.176.525-1.176 1.176v.087c-.023 0-.052-.006-.086-.006A1.174 1.174 0 0 0 4 13.152v2.785a3.067 3.067 0 0 0 3.056 3.067h.755a3.046 3.046 0 0 0 2.555-1.384l.075-.11c.138-.207.49-.824 1.406-2.444a1.18 1.18 0 0 0-.415-1.591zm-1.591 3.627c.127-.197.582-1.004 1.372-2.393a.447.447 0 0 0-.167-.606.59.59 0 0 0-.311-.086.57.57 0 0 0-.421.173l-.623.622c-.006.006-.017 0-.029.006a.135.135 0 0 1-.104.046.186.186 0 0 1-.184-.184v-3.31a.438.438 0 1 0-.877 0v2.889c0 .098-.08.184-.184.184h-.006a.186.186 0 0 1-.184-.184v-1.05a.439.439 0 0 0-.404-.403.44.44 0 0 0-.479.404v1.049a.192.192 0 0 1-.178.179.187.187 0 0 1-.196-.18V11.89a.434.434 0 0 0-.404-.403.44.44 0 0 0-.478.403v2.37a.19.19 0 0 1-.185.184.186.186 0 0 1-.184-.184v-1.142a.442.442 0 0 0-.456-.42.442.442 0 0 0-.42.455v2.79a2.322 2.322 0 0 0 2.323 2.33h.755a2.31 2.31 0 0 0 1.937-1.05l.087-.12z"/></mask><path d="M11.213 14.709c-.79 1.39-1.245 2.197-1.372 2.393l-.087.12a2.31 2.31 0 0 1-1.937 1.05h-.755a2.322 2.322 0 0 1-2.324-2.33v-2.79a.442.442 0 0 1 .421-.456.442.442 0 0 1 .456.421V14.26c0 .104.086.184.184.184a.19.19 0 0 0 .185-.184v-2.37a.44.44 0 0 1 .478-.403c.22.017.386.184.404.403v2.37a.187.187 0 0 0 .196.179.192.192 0 0 0 .178-.18V13.21a.44.44 0 0 1 .48-.404c.218.017.385.19.403.404v1.049c0 .104.086.184.184.184h.006a.186.186 0 0 0 .184-.184V11.37a.438.438 0 1 1 .877 0v3.31c0 .104.086.184.184.184.04 0 .081-.017.104-.046.012-.006.023 0 .029-.006l.623-.622a.57.57 0 0 1 .42-.173c.11 0 .22.029.312.086a.447.447 0 0 1 .167.606zm8.024-2.103v3.373a2.303 2.303 0 0 1-2.313 2.293h-.751a2.308 2.308 0 0 1-1.928-1.024l-.086-.131c-.138-.205-.637-1.075-1.378-2.378a.412.412 0 0 1 .15-.563.584.584 0 0 1 .292-.085.58.58 0 0 1 .408.165l.62.614a.21.21 0 0 0 .229.045.21.21 0 0 0 .132-.193v-3.373c0-.228.184-.415.419-.415.23 0 .419.182.419.415v2.963a.206.206 0 0 0 .2.217c.115 0 .219-.086.219-.2v-1.057a.424.424 0 0 1 .407-.433.425.425 0 0 1 .436.404v1.069a.206.206 0 0 0 .2.217c.116 0 .219-.086.219-.2v-.642a.421.421 0 0 1 .843 0v.625a.206.206 0 0 0 .201.217c.115.005.218-.086.218-.2V12.607a.42.42 0 0 1 .408-.432.42.42 0 0 1 .436.404v.028z" fill="#34D399"/><path fill-rule="evenodd" clip-rule="evenodd" d="M18.818 11.463c-.614 0-1.119.477-1.153 1.08-.035-.005-.07-.005-.104-.005-.114 0-.218.017-.327.05a1.183 1.183 0 0 0-.93-.466c-.034 0-.063 0-.097.006v-.78a1.15 1.15 0 0 0-1.159-1.148h-.006c-.642 0-1.153.512-1.159 1.149v2.184a1.32 1.32 0 0 0-1.314.011 1.14 1.14 0 0 0-.419 1.553c1.188 2.1 1.349 2.338 1.4 2.418l.086.125A3.046 3.046 0 0 0 16.19 19h.752A3.048 3.048 0 0 0 20 15.968v-3.362a1.173 1.173 0 0 0-1.182-1.143zm.419 4.516V12.578a.42.42 0 0 0-.436-.404.42.42 0 0 0-.408.432v1.724c0 .113-.103.204-.218.199a.206.206 0 0 1-.2-.217v-.625a.423.423 0 0 0-.844 0v.643c0 .113-.103.199-.218.199a.206.206 0 0 1-.2-.217v-1.069a.425.425 0 0 0-.437-.404.424.424 0 0 0-.407.432v1.059c0 .113-.104.199-.219.199a.206.206 0 0 1-.2-.217V11.35a.416.416 0 0 0-.42-.415.416.416 0 0 0-.418.415v3.373a.21.21 0 0 1-.132.193.204.204 0 0 1-.23-.045l-.62-.614a.58.58 0 0 0-.407-.165.584.584 0 0 0-.292.085.412.412 0 0 0-.15.563c.74 1.303 1.24 2.173 1.378 2.378l.086.13a2.308 2.308 0 0 0 1.928 1.024h.751a2.303 2.303 0 0 0 2.313-2.292z" fill="#34D399"/><path fill-rule="evenodd" clip-rule="evenodd" d="M11.432 13.475a1.36 1.36 0 0 0-.686-.185c-.219 0-.432.052-.623.156V11.37a1.171 1.171 0 0 0-2.34 0v.675c-.03 0-.058-.006-.087-.006-.029 0-.052 0-.086.006v-.156c0-.651-.525-1.176-1.177-1.176-.651 0-1.176.525-1.176 1.176v.087c-.023 0-.052-.006-.086-.006A1.174 1.174 0 0 0 4 13.152v2.785a3.067 3.067 0 0 0 3.056 3.067h.755a3.046 3.046 0 0 0 2.555-1.384l.075-.11c.138-.207.49-.824 1.406-2.444a1.18 1.18 0 0 0-.415-1.591zm-1.591 3.627c.127-.197.582-1.004 1.372-2.393a.447.447 0 0 0-.167-.606.59.59 0 0 0-.311-.086.57.57 0 0 0-.421.173l-.623.622c-.006.006-.017 0-.029.006a.135.135 0 0 1-.104.046.186.186 0 0 1-.184-.184v-3.31a.438.438 0 1 0-.877 0v2.889c0 .098-.08.184-.184.184h-.006a.186.186 0 0 1-.184-.184v-1.05a.439.439 0 0 0-.404-.403.44.44 0 0 0-.479.404v1.049a.192.192 0 0 1-.178.179.187.187 0 0 1-.196-.18V11.89a.434.434 0 0 0-.404-.403.44.44 0 0 0-.478.403v2.37a.19.19 0 0 1-.185.184.186.186 0 0 1-.184-.184v-1.142a.442.442 0 0 0-.456-.42.442.442 0 0 0-.42.455v2.79a2.322 2.322 0 0 0 2.323 2.33h.755a2.31 2.31 0 0 0 1.937-1.05l.087-.12z" fill="#34D399"/><path d="M11.213 14.709l.218.123-.218-.123zm-1.372 2.393l.204.145.006-.01-.21-.135zm-.087.12l-.203-.145-.006.01.21.136zm-5.016-1.28l.25.002v-.001h-.25zm0-2.79h.25v-.012l-.25.012zm.421-.456l-.012-.25.012.25zm.456.421h.25v-.012l-.25.012zm.369-1.228l-.25-.017V11.89h.25zm.478-.403l.02-.25H6.48l-.018.25zm.404.403h.25v-.01l-.001-.01-.25.02zm0 2.37h-.25v.014l.25-.014zm.196.179l.014.25-.014-.25zm.178-.18l.25.017v-.016h-.25zm0-1.048l-.249-.018v.017h.25zm.48-.404l.019-.25h-.002l-.018.25zm.403.404h.25v-.01l-.001-.01-.25.02zm1.54 1.608l-.113-.223-.049.024-.034.043.195.156zm.028-.006l.177.177-.177-.177zm.623-.622l.177.177.004-.005-.181-.172zm.732-.087l-.132.212.132-.212zm3.199 3.145l-.21.137h.001l.209-.137zm-.086-.131l.208-.138v-.002l-.208.14zm-1.378-2.378l.218-.123v-.002l-.218.125zm.15-.563l.126.216.002-.001-.128-.215zm.7.08l-.176.177.176-.178zm.62.614l.175-.178-.176.178zm.229.045l.092.233.006-.002-.098-.23zm.97-.603l.25.013v-.013h-.25zm.419-1.04h.25v-.013l-.25.012zm.843-.029h.25v-.013l-.25.013zm0 1.07l.25.012v-.013h-.25zm.419-.626l-.25-.013v.013h.25zm.436-.404l-.012.25h.006l.006-.25zm.407.404h.25v-.013l-.25.013zm0 .625l.25.013v-.013h-.25zm.201.217l.013-.25h-.013v.25zm.218-1.923h.25v-.013l-.25.013zm.408-.432l.012.25-.012-.25zm.436.404h.25v-.013l-.25.013zm-8.241 2.007c-.794 1.397-1.243 2.193-1.365 2.38l.42.272c.132-.204.594-1.022 1.38-2.405l-.435-.247zm-1.359 2.371l-.086.121.407.29.086-.12-.407-.29zm-.092.13a2.06 2.06 0 0 1-1.728.936v.5a2.56 2.56 0 0 0 2.147-1.163l-.42-.273zm-1.728.936h-.755v.5h.755v-.5zm-.755 0a2.072 2.072 0 0 1-2.074-2.078l-.5-.003a2.572 2.572 0 0 0 2.574 2.581v-.5zm-2.074-2.08v-2.79h-.5v2.79h.5zm0-2.802a.192.192 0 0 1 .183-.194l-.024-.5a.692.692 0 0 0-.659.718l.5-.024zm.183-.194a.192.192 0 0 1 .194.183l.5-.024a.692.692 0 0 0-.718-.658l.024.5zm.194.171V13.147h.5v-.001-.001-.001-.001-.001-.001-.001-.001-.001-.001-.001-.001-.001-.001-.001-.001-.001-.001-.001-.001-.001-.001-.001-.001-.001-.001-.001-.001h-.5zm0 .03v1.112h.5v-1.113h-.5zm0 1.112c0 .247.203.434.434.434v-.5c.02 0 .036.008.046.018.01.011.02.028.02.048h-.5zm.434.434a.44.44 0 0 0 .435-.434h-.5c0-.025.01-.04.017-.048a.066.066 0 0 1 .048-.018v.5zm.435-.434v-2.37h-.5v2.37h.5zm-.001-2.353c.007-.098.095-.18.211-.171l.036-.499a.69.69 0 0 0-.746.636l.499.034zm.21-.171a.184.184 0 0 1 .173.174l.499-.04a.684.684 0 0 0-.633-.633l-.04.499zm.173.154v2.37h.5v-2.37h-.5zm0 2.384a.437.437 0 0 0 .46.414l-.028-.499c.04-.002.066.03.067.057l-.499.028zm.46.414c.23-.013.4-.2.414-.412l-.499-.032a.058.058 0 0 1 .016-.037.062.062 0 0 1 .04-.018l.03.5zm.415-.428v-1.05h-.5v1.05h.5zm-.001-1.032c.007-.099.095-.18.211-.172l.036-.498a.69.69 0 0 0-.746.635l.499.035zm.21-.172c.093.008.166.081.173.175l.499-.04a.689.689 0 0 0-.633-.633l-.04.498zm.173.155v1.049h.5v-1.05h-.5zm0 1.049c0 .247.203.434.434.434v-.5c.02 0 .036.008.046.018.011.011.02.028.02.048h-.5zm.434.434h.006v-.5h-.006v.5zm.006 0a.436.436 0 0 0 .434-.434h-.5c0-.02.008-.036.018-.046a.067.067 0 0 1 .048-.02v.5zm.434-.434V11.37h-.5v2.889h.5zm0-2.889c0-.104.085-.188.189-.188v-.5a.688.688 0 0 0-.689.688h.5zm.189-.188c.104 0 .188.084.188.188h.5a.688.688 0 0 0-.688-.688v.5zm.188.188v3.31h.5v-3.31h-.5zm0 3.31c0 .247.203.434.434.434v-.5c.02 0 .036.008.046.018.011.011.02.028.02.048h-.5zm.434.434a.384.384 0 0 0 .3-.14l-.391-.312a.131.131 0 0 1 .05-.039.103.103 0 0 1 .041-.009v.5zm.216-.072c-.054.027-.105.023-.095.023h.013c.007 0 .02 0 .037-.004a.26.26 0 0 0 .139-.072l-.354-.353a.242.242 0 0 1 .159-.07h.006s-.02-.001-.04.002a.278.278 0 0 0-.089.027l.224.447zm.094-.053l.623-.623-.354-.353-.623.623.354.353zm.627-.627a.32.32 0 0 1 .24-.095v-.5a.82.82 0 0 0-.602.25l.362.345zm.24-.095a.34.34 0 0 1 .179.048l.264-.424a.84.84 0 0 0-.443-.124v.5zm.179.049c.109.067.131.182.082.27l.435.246a.697.697 0 0 0-.253-.941l-.264.425zm-5.55-1.199v.03h.5v-.03h-.5zm13.623-.511v3.373h.5v-3.373h-.5zm0 3.373a2.053 2.053 0 0 1-2.063 2.043v.5c1.41 0 2.563-1.134 2.563-2.543h-.5zm-2.063 2.043h-.751v.5h.751v-.5zm-.751 0a2.058 2.058 0 0 1-1.72-.912l-.417.275a2.558 2.558 0 0 0 2.137 1.136v-.5zm-1.72-.912l-.085-.13-.418.274.086.131.418-.275zm-.087-.133c-.13-.194-.623-1.052-1.367-2.361l-.435.247c.736 1.295 1.243 2.178 1.387 2.393l.415-.279zm-1.368-2.363a.162.162 0 0 1 .059-.222l-.252-.432a.662.662 0 0 0-.24.904l.433-.25zm.06-.223a.335.335 0 0 1 .165-.05v-.5a.834.834 0 0 0-.42.12l.255.43zm.165-.05a.33.33 0 0 1 .232.092l.352-.355a.83.83 0 0 0-.584-.237v.5zm.232.092l.62.614.351-.355-.62-.614-.351.355zm.62.614a.46.46 0 0 0 .325.135v-.5a.043.043 0 0 1 .026.01l-.352.355zm.325.135c.069 0 .124-.015.172-.034l-.184-.465-.002.001.008-.001h.006v.5zm.178-.037a.46.46 0 0 0 .284-.423h-.5c0-.009.003-.018.008-.026a.03.03 0 0 1 .012-.01l.196.46zm.284-.423v-3.373h-.5v3.373h.5zm0-3.373c0-.09.072-.165.169-.165v-.5c-.374 0-.67.3-.67.665h.5zm.169-.165c.096 0 .169.074.169.165h.5a.666.666 0 0 0-.67-.665v.5zm.169.165v2.963h.5V11.35h-.5zm0 2.95a.456.456 0 0 0 .45.48v-.5c.02 0 .033.008.039.015a.042.042 0 0 1 .01.031L15.2 14.3zm.45.48c.224 0 .469-.17.469-.45h-.5c0-.022.01-.038.018-.045.005-.005.01-.005.013-.005v.5zm.469-.45v-.001-.001-.001-.001-.001-.001-.001-.001-.001-.001-.001-.001-.001-.001-.001-.001h-.5V14.33h.5zm0-.017v-1.04h-.5v1.04h.5zm0-1.053c-.005-.078.065-.165.17-.17l-.025-.5a.674.674 0 0 0-.645.695l.5-.025zm.17-.17c.083-.004.168.069.173.167l.5-.026a.675.675 0 0 0-.698-.64l.024.499zm.173.154V13.272h.5v-.001-.001-.001-.001-.001-.001-.001-.001-.001-.001-.001-.001-.001-.001-.001-.001-.001-.001-.001-.001-.001-.001-.001-.001-.001-.001-.001-.001h-.5zm0 .028v1.041h.5v-1.04h-.5zm0 1.029a.456.456 0 0 0 .45.479v-.5c.02 0 .033.008.04.015a.042.042 0 0 1 .01.031l-.5-.025zm.45.479c.224 0 .469-.17.469-.45h-.5c0-.022.011-.038.018-.045.006-.005.01-.005.014-.005v.5zm.469-.45v-.001-.001-.001-.001-.001-.001-.001-.001-.001-.001-.001-.001-.001-.001-.001-.001h-.5V14.33h.5zm0-.017v-.625h-.5v.625h.5zm0-.613a.171.171 0 0 1 .174-.166l.024-.5a.671.671 0 0 0-.698.641l.5.025zm.18-.166c.083.002.159.071.164.167l.5-.026a.673.673 0 0 0-.651-.641l-.014.5zm.163.154v.625h.5v-.625h-.5zm0 .613a.456.456 0 0 0 .451.479v-.5c.02 0 .033.008.039.015a.042.042 0 0 1 .01.031l-.5-.025zm.439.478c.245.012.48-.18.48-.449h-.5c0-.02.01-.035.017-.04a.038.038 0 0 1 .028-.01l-.025.5zm.48-.449v-.001-.001-.001-.001-.001-.001-.001-.001-.001-.001-.001-.001-.001-.001-.001-.001h-.5V14.33h.5zm0-.017v-1.706h-.5v1.706h.5zm0-1.719c-.004-.08.063-.165.17-.17l-.024-.5a.67.67 0 0 0-.645.695l.499-.025zm.17-.17a.17.17 0 0 1 .174.167l.5-.025a.67.67 0 0 0-.699-.641l.025.5zm.174.155v.028h.5v-.028h-.5zm-2.868 1.752v-.018h-.5v.018h.5zm.343-1.087v.028h.5v-.028h-.5zm.919 1.086v-.017h-.5v.018h.5zm1.262 0v-.017h-.5v.018h.5zm.344-1.752v.029h.5v-.028h-.5zm-7.555.898l.258-.429-.006-.003-.252.432zm-1.309-.03h-.5v.843l.74-.403-.24-.44zm-2.34-1.4v.5h.5v-.5h-.5zm-.173 0h-.5v.59l.582-.097-.082-.493zm-2.353-.07v.5h.5v-.5h-.5zm-.086-.005v-.5h-.005l.005.5zM4 13.152h.5v-.005l-.5.005zm3.056 5.852l-.002.5h.002v-.5zm3.31-1.384l-.413-.282-.007.01.42.273zm.075-.11l.412.283.004-.005-.416-.277zm1.406-2.444l.436.246.003-.005-.438-.24zm6.971-3.604v.5h.004l-.004-.5zm-1.153 1.081l-.082.494.55.09.03-.555-.498-.029zm-.43.046l-.4.3.212.283.337-.106-.15-.477zm-.93-.467l.007-.5h-.007v.5zm-.098.006h-.5v.59l.582-.097-.082-.493zm-2.324-.78l-.5-.004v.005h.5zm0 2.185l-.252.432.752.438v-.87h-.5zm-1.314.011l.25.434.006-.004-.256-.43zm-.419 1.553l.435-.246-.001-.002-.434.248zm1.4 2.418l-.42.272.008.011.412-.283zm.086.125l.417-.276-.005-.007-.412.283zM16.19 19v-.5h-.003l.003.5zM20 15.968l.5.002v-.002H20zm0-3.362h.5v-.014l-.5.014zm-8.316.437a1.86 1.86 0 0 0-.938-.253v1a.86.86 0 0 1 .434.117l.504-.864zm-.938-.253c-.298 0-.595.071-.862.217l.479.878a.795.795 0 0 1 .383-.095v-1zm-.123.656V11.37h-1v2.076h1zm0-2.076c0-.922-.748-1.67-1.67-1.67v1c.37 0 .67.3.67.67h1zM8.954 9.7c-.922 0-1.67.748-1.67 1.67h1c0-.37.3-.67.67-.67v-1zm-1.67 1.67v.675h1v-.675h-1zm.5.175h.006l-.034-.004a.806.806 0 0 0-.059-.002v1a.19.19 0 0 1-.016 0h.01a1.069 1.069 0 0 0 .092.006v-1zm-.087-.006c-.033 0-.09 0-.169.013l.165.986h-.005l-.006.001c-.001 0-.001 0 0 0h.015v-1zm.414.506v-.156h-1v.156h1zm0-.156c0-.928-.749-1.676-1.677-1.676v1c.376 0 .677.3.677.676h1zm-1.677-1.676c-.927 0-1.676.748-1.676 1.676h1c0-.375.3-.676.676-.676v-1zm-1.676 1.676v.087h1v-.087h-1zm.5-.413H5.278h-.01a.945.945 0 0 0-.097-.006v1h-.003a1.161 1.161 0 0 0 .089.006v-1zm-.09-.006A1.674 1.674 0 0 0 3.5 13.156l1-.009a.674.674 0 0 1 .675-.677l-.009-1zM3.5 13.152v2.785h1v-2.785h-1zm0 2.785c0 1.964 1.59 3.56 3.554 3.567l.004-1A2.567 2.567 0 0 1 4.5 15.937h-1zm3.556 3.567h.755v-1h-.755v1zm.755 0a3.546 3.546 0 0 0 2.975-1.612l-.84-.543a2.546 2.546 0 0 1-2.135 1.155v1zm2.967-1.601l.075-.11-.825-.564-.075.11.825.564zm.079-.115c.151-.227.517-.87 1.426-2.476l-.87-.492c-.925 1.634-1.263 2.226-1.388 2.413l.832.555zm1.429-2.48a1.68 1.68 0 0 0-.596-2.262l-.516.857a.68.68 0 0 1 .235.922l.877.482zm6.532-4.345c-.877 0-1.603.682-1.653 1.552l.999.057a.653.653 0 0 1 .654-.61v-1zm-1.072 1.087c-.081-.014-.157-.012-.185-.012v1h.031l-.009-.001.163-.987zm-.185-.012c-.169 0-.322.026-.476.074l.299.954a.565.565 0 0 1 .177-.028v-1zm.073.25a1.683 1.683 0 0 0-1.322-.666l-.015 1a.683.683 0 0 1 .537.267l.8-.6zm-1.33-.666c-.03 0-.098 0-.178.013l.163.986-.008.001h-.003.027v-1zm.403.506v-.78h-1v.78h1zm0-.78A1.65 1.65 0 0 0 15.048 9.7v1c.37 0 .66.292.66.649h1zM15.048 9.7h-.006v1h.006v-1zm-.006 0c-.918 0-1.65.735-1.659 1.644l1 .01a.655.655 0 0 1 .66-.654v-1zm-1.659 1.649v2.184h1V11.35h-1zm.752 1.752a1.778 1.778 0 0 0-.894-.239v1c.14 0 .276.036.39.103l.504-.864zm-.894-.239a1.82 1.82 0 0 0-.927.253l.51.86a.82.82 0 0 1 .417-.112v-1zm-.92.249a1.64 1.64 0 0 0-.604 2.235l.867-.497a.64.64 0 0 1 .234-.87l-.498-.868zm-.606 2.233c1.187 2.098 1.355 2.349 1.416 2.443l.839-.544c-.042-.065-.196-.292-1.385-2.392l-.87.493zm1.423 2.454l.087.126.823-.567-.086-.125-.824.566zm.082.119a3.546 3.546 0 0 0 2.973 1.583l-.006-1a2.546 2.546 0 0 1-2.134-1.136l-.833.553zm2.97 1.583h.752v-1h-.752v1zm.752 0a3.548 3.548 0 0 0 3.558-3.53l-1-.004a2.548 2.548 0 0 1-2.558 2.534v1zm3.558-3.532v-3.362h-1v3.362h1zm0-3.376a1.673 1.673 0 0 0-1.686-1.63l.008 1a.673.673 0 0 1 .678.657l1-.027z" fill="#34D399" mask="url(#a)"/><path fill-rule="evenodd" clip-rule="evenodd" d="M5 9a1 1 0 0 0-1 1v4a1 1 0 0 0 1 1h14a1 1 0 0 0 1-1v-4a1 1 0 0 0-1-1H5zm0 1h1.615v1.615H5V10zm2.477 0h1.615v1.616H7.477V10zm4.092 0H9.953v1.616h1.616V10zm.861 0h1.616v1.616H12.43V10zm4.092 0h-1.615v1.616h1.615V10zm.862 0h1.615v1.616h-1.615V10zm-9.568 2.1H6.2v1.616h1.616V12.1zm.86 0h1.616v1.616H8.677V12.1zm4.093 0h-1.615v1.616h1.615V12.1zm.861 0h1.616v1.616H13.63V12.1zm4.092 0h-1.615v1.616h1.615V12.1z" fill="#171717"/></g><defs><clipPath id="clip0_6990_41554"><path fill="#fff" d="M0 0H24V24H0z"/></clipPath></defs></svg>