<svg viewBox="0 0 3000 1500" xmlns="http://www.w3.org/2000/svg" xmlns:xlink="http://www.w3.org/1999/xlink"><clipPath id="a"><path d="m0 0h3000v1500h-3000z" transform="matrix(-1 0 0 -1 3000 1500)"/></clipPath><g clip-path="url(#a)" fill="none" stroke-miterlimit="10" stroke-width="140.68"><path d="m74.64-513.47 187.52 216.92-243.28 151.77 187.52 216.93-243.28 151.78 187.51 216.92-243.27 151.78 187.51 216.92-243.27 151.78 187.51 216.93-243.28 151.77 187.52 216.93-243.28 151.77" stroke="#11456b"/><path d="m402.48-463.89 187.52 216.92-243.28 151.78 187.52 216.92-243.28 151.78 187.52 216.92-243.28 151.78 187.51 216.93-243.27 151.77 187.51 216.93-243.28 151.77 187.52 216.93-243.28 151.77" stroke="#0c5483"/><path d="m730.32-414.31 187.52 216.92-243.28 151.78 187.52 216.93-243.28 151.77 187.52 216.93-243.28 151.77 187.51 216.93-243.27 151.77 187.51 216.93-243.28 151.77 187.52 216.93-243.28 151.78" stroke="#0064a0"/><path d="m1058.16-364.73 187.52 216.93-243.28 151.77 187.52 216.93-243.28 151.77 187.52 216.93-243.28 151.77 187.51 216.93-243.27 151.78 187.51 216.92-243.28 151.78 187.52 216.92-243.28 151.78" stroke="#0e82c5"/><path d="m1386-315.14 187.52 216.92-243.28 151.77 187.52 216.93-243.28 151.77 187.52 216.93-243.28 151.78 187.51 216.92-243.27 151.78 187.51 216.92-243.28 151.78 187.52 216.93-243.28 151.77" stroke="#38a3dc"/><path d="m1713.84-265.56 187.52 216.92-243.28 151.78 187.52 216.92-243.28 151.78 187.52 216.92-243.28 151.78 187.51 216.93-243.27 151.77 187.51 216.93-243.27 151.77 187.51 216.93-243.28 151.77" stroke="#5fbceb"/><path d="m2041.68-215.98 187.52 216.92-243.28 151.78 187.52 216.92-243.28 151.78 187.52 216.93-243.28 151.77 187.51 216.93-243.27 151.77 187.51 216.93-243.27 151.77 187.51 216.93-243.28 151.78" stroke="#96d4f5"/><path d="m2369.52-166.4 187.52 216.93-243.28 151.77 187.52 216.93-243.28 151.77 187.52 216.93-243.28 151.77 187.51 216.93-243.27 151.77 187.51 216.93-243.27 151.78 187.51 216.92-243.28 151.78" stroke="#cce9fb"/><path d="m2697.37-116.81 187.51 216.92-243.28 151.77 187.52 216.93-243.28 151.77 187.52 216.93-243.28 151.78 187.52 216.92-243.28 151.78 187.51 216.92-243.27 151.78 187.51 216.93-243.28 151.77" stroke="#e9f5fe"/><path d="m3025.21-67.23 187.51 216.92-243.28 151.77 187.52 216.93-243.28 151.78 187.52 216.92-243.28 151.78 187.52 216.92-243.28 151.78 187.51 216.93-243.27 151.77 187.51 216.93-243.28 151.77" stroke="#f7fcff"/></g></svg>