<svg viewBox="0 0 92 82.93" xmlns="http://www.w3.org/2000/svg"><path d="m28.32 6.1c-1.87 3.74-5.69 6.1-9.87 6.1h-9.91c-4.72 0-8.54 3.82-8.54 8.53v53.66c0 4.71 3.82 8.54 8.54 8.54h74.92c4.71 0 8.54-3.82 8.54-8.54v-53.66c0-4.71-3.82-8.54-8.54-8.54h-9.91c-4.18 0-8-2.36-9.87-6.1-1.87-3.73-5.68-6.09-9.86-6.09h-15.63c-4.18 0-8 2.36-9.87 6.1zm17.68 14.63c15.78 0 28.48 13.79 26.65 29.92-1.39 12.29-11.29 22.18-23.57 23.57-16.12 1.82-29.91-10.88-29.91-26.66 0-14.76 12.07-26.83 26.83-26.83zm1.08 9.79c-10.35-.63-18.75 7.78-18.12 18.13.51 8.49 7.47 15.44 15.96 15.95 10.35.62 18.74-7.78 18.12-18.12-.51-8.49-7.47-15.44-15.96-15.96z"/></svg>