<?xml version="1.0" encoding="UTF-8"?>
<svg id="Layer_2" data-name="Layer 2" xmlns="http://www.w3.org/2000/svg" xmlns:xlink="http://www.w3.org/1999/xlink" viewBox="0 0 205.44 237.04">
  <defs>
    <style>
      .cls-1 {
        fill: none;
      }

      .cls-2 {
        fill: #81756c;
      }

      .cls-2, .cls-3, .cls-4, .cls-5 {
        stroke: #1d1d1b;
        stroke-linecap: round;
        stroke-linejoin: round;
      }

      .cls-3 {
        fill: #fdcf00;
      }

      .cls-4, .cls-5 {
        fill: #fff;
      }

      .cls-5 {
        stroke-width: 1.31px;
      }
    </style>
    <symbol id="New_Symbol_297" data-name="New Symbol 297" viewBox="0 0 205.44 237.04">
      <g>
        <path class="cls-1" d="M24.52,73.34v90.21l78.12,45.1,78.12-45.1V73.34L102.64,28.24,24.52,73.34Zm156.07,90.1l-77.95,45L24.7,163.45V73.44L102.64,28.44l77.95,45v90Z"/>
        <polygon class="cls-4" points="43.03 84.03 102.64 49.61 102.64 28.44 24.7 73.44 24.7 163.45 43.03 152.86 43.03 84.03"/>
        <polygon class="cls-3" points="102.64 187.28 43.03 152.86 24.7 163.45 102.64 208.45 180.59 163.45 162.26 152.86 102.64 187.28"/>
        <polygon class="cls-2" points="102.64 49.61 162.26 84.03 162.26 152.86 180.59 163.45 180.59 73.44 102.64 28.44 102.64 49.61"/>
        <polygon class="cls-2" points="24.52 163.55 24.52 73.34 .5 59.47 .5 177.42 102.64 236.39 102.64 208.65 24.52 163.55"/>
        <polygon class="cls-5" points="180.76 73.34 180.76 163.55 102.64 208.65 102.64 236.39 204.79 177.42 204.79 59.47 180.76 73.34"/>
        <polygon class="cls-3" points="102.64 28.24 180.76 73.34 204.79 59.47 102.64 .5 .5 59.47 24.52 73.34 102.64 28.24"/>
        <polygon class="cls-2" points="63.13 141.25 63.13 95.63 43.03 84.03 43.03 152.86 102.64 187.28 102.64 164.07 63.13 141.25"/>
        <polygon class="cls-3" points="63.13 95.63 102.64 72.82 142.15 95.63 162.26 84.03 102.64 49.61 43.03 84.03 63.13 95.63"/>
        <polygon class="cls-4" points="142.15 141.25 102.64 164.07 102.64 187.28 162.26 152.86 162.26 84.03 142.15 95.63 142.15 141.25"/>
        <polygon class="cls-3" points="102.64 144.35 80.21 131.4 63.13 141.25 102.64 164.07 142.15 141.25 125.08 131.4 102.64 144.35"/>
        <polygon class="cls-2" points="125.08 105.49 125.08 131.4 142.15 141.25 142.15 95.63 102.64 72.82 102.64 92.54 125.08 105.49"/>
        <polygon class="cls-4" points="80.21 131.4 80.21 105.49 102.64 92.54 102.64 72.82 63.13 95.63 63.13 141.25 80.21 131.4"/>
        <polygon class="cls-4" points="102.64 144.35 125.08 131.4 125.08 105.49 102.64 117.41 102.64 144.35"/>
        <polygon class="cls-2" points="102.64 117.41 80.21 105.49 80.21 131.4 102.64 144.35 102.64 117.41"/>
        <polygon class="cls-3" points="125.08 105.49 102.64 92.54 80.21 105.49 102.64 117.41 125.08 105.49"/>
      </g>
    </symbol>
  </defs>
  <g id="Layer_2-2" data-name="Layer 2">
    <use width="205.44" height="237.04" xlink:href="#New_Symbol_297"/>
  </g>
</svg>