<?xml version="1.0" encoding="UTF-8" standalone="no"?>
<!DOCTYPE svg PUBLIC "-//W3C//DTD SVG 1.1//EN" "http://www.w3.org/Graphics/SVG/1.1/DTD/svg11.dtd">
<svg width="100%" height="100%" viewBox="0 0 24 24" version="1.1" xmlns="http://www.w3.org/2000/svg" xmlns:xlink="http://www.w3.org/1999/xlink" xml:space="preserve" xmlns:serif="http://www.serif.com/" style="fill-rule:evenodd;clip-rule:evenodd;stroke-linecap:round;stroke-linejoin:round;">
    <rect x="0" y="0" width="24" height="24" style="fill:none;fill-rule:nonzero;"/>
    <circle cx="12" cy="12" r="9" style="fill:none;stroke:rgb(255,255,254);stroke-width:2px;"/>
    <path d="M12,3C16.967,3 21,7.033 21,12C21,16.967 16.967,21 12,21C7.033,21 3,16.967 3,12C3,7.033 7.033,3 12,3ZM13.714,10.421L10.263,10.831L10.093,11.628L10.479,11.739C10.64,11.786 10.738,11.847 10.775,11.921C10.813,11.995 10.812,12.12 10.772,12.296L10.181,15.091C10.06,15.661 10.11,16.086 10.333,16.365C10.556,16.645 10.911,16.784 11.399,16.784C11.829,16.784 12.232,16.704 12.609,16.544C12.986,16.384 13.286,16.183 13.509,15.94L13.685,15.108C13.606,15.159 13.521,15.198 13.427,15.226C13.333,15.253 13.235,15.267 13.134,15.267C12.981,15.267 12.88,15.212 12.829,15.103C12.778,14.993 12.778,14.819 12.829,14.581L13.714,10.421ZM12.548,9.788C12.806,9.788 13.035,9.729 13.236,9.609C13.438,9.49 13.6,9.328 13.723,9.123C13.846,8.918 13.907,8.694 13.907,8.452C13.907,8.108 13.789,7.816 13.553,7.576C13.316,7.336 13.019,7.216 12.659,7.216C12.409,7.216 12.18,7.277 11.971,7.4C11.762,7.523 11.596,7.687 11.473,7.89C11.35,8.093 11.288,8.319 11.288,8.569C11.288,8.905 11.408,9.192 11.648,9.431C11.889,9.669 12.188,9.788 12.548,9.788Z" style="fill:rgb(255,255,254);"/>
</svg>
