<svg viewBox="0 0 480 480" xmlns="http://www.w3.org/2000/svg" xmlns:xlink="http://www.w3.org/1999/xlink"><clipPath id="a"><rect height="313.17" rx="25" width="380" x="50" y="50.68"/></clipPath><rect fill="#fff" height="480" rx="50" width="480"/><g clip-path="url(#a)"><path d="m43.23 25.21h400.36v283.15h-400.36z" fill="#0e82c5"/><path d="m44.28 236.48c1.34-2.56 2.54-5.24 4-7.72 2.98-5.06 6.43-9.93 9.82-14.72 4.29-6.07 8.86-12.04 14.25-17.19 5.71-5.46 12.89-10.41 21.11-10.37s15.62 5.23 21.37 10.84c11.6 11.32 19.88 25.79 28.64 39.29 8.73 13.45 16.98 27.86 28.57 39.12 5.78 5.62 13.1 10.79 21.5 10.75s15.62-5.23 21.37-10.84c11.6-11.32 19.88-25.79 28.64-39.29s16.98-27.86 28.57-39.12c5.78-5.62 13.1-10.79 21.5-10.75s15.62 5.23 21.37 10.84c11.6 11.32 19.88 25.79 28.64 39.29 8.73 13.45 16.98 27.86 28.57 39.12 5.78 5.62 13.1 10.79 21.5 10.75s15.62-5.23 21.37-10.84c11.57-11.29 19.82-25.7 28.55-39.16v135.04h-400.39z" fill="#67a030"/></g></svg>