<svg clip-rule="evenodd" fill-rule="evenodd" stroke-linejoin="round" stroke-miterlimit="2" viewBox="0 0 8254 8634" xmlns="http://www.w3.org/2000/svg"><g fill="#dae1e6"><path d="m19048 45460h8529v631h-8529z" transform="matrix(.9427173166 -.33779265768 .33731873624 .9413908517 -33291.33265580001 -33480.3596808)"/><path d="m19048 45460h8529v631h-8529z" transform="matrix(.9427173166 -.33779265768 .33731873624 .9413908517 -33291.33265580001 -32448.7563376)"/><path d="m19048 45460h8529v631h-8529z" transform="matrix(.9427173166 -.33779265768 .33731873624 .9413908517 -33291.33265580001 -31417.1529944)"/><path d="m19048 45460h8529v631h-8529z" transform="matrix(.9427173166 -.33779265768 .33731873624 .9413908517 -33291.33265580001 -30385.57540780001)"/><path d="m19048 45460h8529v631h-8529z" transform="matrix(.9427173166 -.33779265768 .33731873624 .9413908517 -33291.33265580001 -29353.9720646)"/><path d="m19048 45460h8529v631h-8529z" transform="matrix(.9427173166 -.33779265768 .33731873624 .9413908517 -33291.33265580001 -28322.3687214)"/></g></svg>
