<?xml version="1.0" encoding="utf-8"?>
<!-- Generator: Adobe Illustrator 27.6.1, SVG Export Plug-In . SVG Version: 6.00 Build 0)  -->
<svg version="1.1" id="Layer_2_00000106110017779060962480000004004802090730298274_"
	 xmlns="http://www.w3.org/2000/svg" xmlns:xlink="http://www.w3.org/1999/xlink" x="0px" y="0px" viewBox="0 0 600 600"
	 style="enable-background:new 0 0 600 600;" xml:space="preserve">
<style type="text/css">
	.st0{clip-path:url(#SVGID_00000057853350281796319840000007298689391107838887_);}
	.st1{opacity:0.5;fill:#D3C7A2;}
	.st2{fill:#F8FAFC;}
	.st3{fill:#8F8E77;}
	.st4{clip-path:url(#SVGID_00000139271974342069099800000003775803735633487763_);}
	.st5{fill:#09090B;}
	.st6{clip-path:url(#SVGID_00000073719132075001488570000003229751604703923585_);}
	.st7{fill:#D3C7A2;}
	.st8{fill:#CC8400;}
	.st9{fill:none;stroke:#CC8400;stroke-width:4;stroke-miterlimit:10;}
	.st10{clip-path:url(#SVGID_00000125579203319980709780000007360530843869801104_);}
	.st11{fill:#BAB86C;}
	.st12{fill:#4C482D;}
	.st13{fill:#4C2F00;}
	.st14{fill:#4C483B;}
	.st15{fill:#4C4B40;}
</style>
<g>
	<defs>
		<path id="SVGID_1_" d="M-1056.2,71.3c242.5-0.1,322.7,275,188.7,411c-150,152.3-309,69.1-370-66.5
			C-1315.6,242.3-1215.3,71.3-1056.2,71.3z"/>
	</defs>
	<clipPath id="SVGID_00000147217676509582937500000016450133209042687895_">
		<use xlink:href="#SVGID_1_"  style="overflow:visible;"/>
	</clipPath>
	<g id="LOGO-ELEMENTS" style="clip-path:url(#SVGID_00000147217676509582937500000016450133209042687895_);">
		<path class="st1" d="M-1056.2,71.3c242.5-0.1,322.7,275,188.7,411c-150,152.3-309,69.1-370-66.5
			C-1315.6,242.3-1215.3,71.3-1056.2,71.3z"/>
		<path class="st2" d="M-1033.8,202.9c102.9,0,136.9,116.6,80.1,174.4c-63.6,64.6-131.1,29.3-157-28.2
			C-1143.8,275.5-1101.3,203-1033.8,202.9z"/>
		<circle class="st3" cx="-1026.6" cy="315.8" r="80.4"/>
		<g>
			<path class="st2" d="M-1290.5,421.2C-1290.5,421.2-1290.5,421.2-1290.5,421.2c-0.8,0-1.8-0.2-2.8-1.3l3-2.6c-0.1,0-0.2,0-0.3,0
				c1.1-0.2,4.8-4.2,9.5-9.2c1.9-2.1,4.2-4.5,6.8-7.3c0.3-0.3,0.5-1,0.7-1.9c2-7.1,7.2-15.2,43.4-21.1c13.4-2.2,21.3-16,26.5-25.1
				c1.8-3.2,3.4-5.9,4.9-7.6c4.8-5.7,11.2-4.3,16.2-2.5c2,0.7,4.1,3.3,6.4,6c1.3,1.6,2.7,3.3,3.5,3.9c1.8,1.2,3.5,2.3,5.1,3.4
				c7.3,4.8,13.7,9,18.8,14.1c19.2,0.6,22.9-4,28-10.2c4.2-5.1,9.5-11.5,24.1-16.6c16.7-5.8,31.5-14,48.7-24.6
				c12.1-7.5,17.3-9.3,21.1-10.7c2.1-0.8,3.6-1.3,5.7-2.6c3.9-2.5,8.1-6.8,12.1-11c5.4-5.7,10.5-11,15.8-13
				c4.3-1.6,10.4-0.9,13.1,3.5c1.2,1.9,1.5,4.2,1.8,6.1c0.1,0.7,0.2,1.4,0.3,2c1.8,10.2,11.4,18.5,21.5,27.2
				c8,6.9,16.4,14.1,21.3,22.8c3.6,6.4,3.8,9.4,4,12.5c0.1,2.1,0.3,4.2,1.5,7.7c0.3,0.9,1.9,2.1,3.1,2.9c0.6,0.4,1.2,0.8,1.7,1.3
				c5.1,4,9.5,5.1,14.7,3.4c1.3-1.3,2.6-2.8,4-4.3c1.6-1.9,4.8-3.9,8.1-6.1c2.8-1.9,5.8-3.8,7-5.2c1.1-1.3,2.4-3,3.7-4.8
				c3.7-5,7.5-10.2,11.7-10.3c1.2,0,2.9,0.4,4.5,2.3c1.6,2.1,3.8,3.7,6.2,5.4c2.1,1.5,4.3,3.1,6.1,5c3.4,3.6,4.8,6.8,6.3,10.2
				c3.2,7.2,7.2,16.3,34.3,36.2c10.3,7.5,20.9,13.6,29.5,6.4l2.6,3.1c-10.7,8.9-23.4,1.8-34.4-6.3c-28-20.6-32.2-30.1-35.6-37.8
				c-1.4-3.2-2.6-5.9-5.5-9c-1.6-1.7-3.5-3-5.5-4.5c-2.5-1.8-5.1-3.7-7-6.2c-0.6-0.8-1.1-0.8-1.2-0.8c-2.2,0-6,5.2-8.5,8.7
				c-1.4,1.9-2.7,3.7-3.9,5.1c-1.6,1.8-4.6,3.7-7.8,5.8c-3,1.9-6,3.9-7.3,5.4c-0.5,0.6-1,1.2-1.6,1.8l0.1,0.3
				c0.5,2.9,3.1,5.2,5.8,7.6c3.2,2.9,6.9,6.2,7,11.1c0.1,2.8-1,5.1-3,7.1c-7.9,7.4-30,5.8-41.9,4.9l-2.2-0.2l-0.3-1.5
				c-1.3-6.5,3.6-9.8,10.4-14.4c3.8-2.6,8.5-5.7,13.7-10.3c-4.1-0.1-8.1-1.8-12.3-5.1c-0.4-0.4-0.9-0.7-1.5-1.1
				c-1.8-1.3-3.8-2.7-4.5-4.8c-1.4-4.1-1.6-6.6-1.7-8.8c-0.2-2.9-0.3-5.3-3.5-10.8c-4.6-8.1-12.6-15-20.4-21.7
				c-10.7-9.2-20.8-17.9-22.9-29.5c-0.1-0.7-0.2-1.5-0.3-2.3c-0.2-1.7-0.4-3.3-1.2-4.5c-1.6-2.5-5.5-2.9-8.4-1.9
				c-4.4,1.6-9.5,6.9-14.3,12c-4.2,4.4-8.5,8.9-12.8,11.6c-2.5,1.6-4.2,2.2-6.5,3c-3.6,1.3-8.6,3.1-20.4,10.3
				c-17.4,10.7-32.4,19-49.4,25c-13.5,4.7-18.2,10.3-22.3,15.3c-5.1,6.2-9.5,11.6-27.5,11.7c3.8,4.9,6.6,10.7,8.2,18.5l0.3,1.5
				l-1.4,0.7c-15.7,8-39.4,20.2-54.2,8.3l-1.6-1.2l1.2-1.6c4.5-5.7,10.9-8.6,17.8-11.6c8.1-3.6,16.4-7.3,22.9-16.1
				c-4.7-4.7-10.7-8.6-17.9-13.3c-1.7-1.1-3.4-2.2-5.1-3.4c-1.3-0.9-2.7-2.6-4.4-4.7c-1.4-1.8-3.6-4.4-4.6-4.8
				c-5.9-2.1-9.2-1.8-11.8,1.3c-1.2,1.5-2.7,4-4.4,7c-5.6,9.8-14.1,24.6-29.4,27.1c-36.8,5.9-39,13.9-40.2,18.2
				c-0.4,1.3-0.7,2.5-1.7,3.5c-2.6,2.8-4.9,5.2-6.8,7.2C-1285.3,418.6-1287.8,421.2-1290.5,421.2z M-1187.9,401.2
				c12.6,7.8,32.7-2.1,46.8-9.3c-1.6-6.9-4.3-12-7.9-16.4c-7,9.2-16,13.2-24,16.8C-1178.9,395-1184.1,397.3-1187.9,401.2z
				 M-935.5,398.1c10.8,0.8,31.5,2.1,37.8-3.9c1.2-1.1,1.8-2.5,1.7-4.1c0-3.2-2.8-5.6-5.6-8.2c-2.5-2.2-5-4.5-6.3-7.5c0,0,0,0-0.1,0
				c-7.2,7.2-13.7,11.6-18.7,15C-932.5,393.3-935.3,395.3-935.5,398.1z"/>
		</g>
	</g>
</g>
<g>
	<defs>
		<path id="SVGID_00000161631861820935379540000002895486405724267427_" d="M1605.5,2042c22,0,29.2,24.9,17.1,37.2
			c-13.6,13.8-28,6.3-33.5-6C1582,2057.4,1591.1,2042,1605.5,2042z"/>
	</defs>
	<clipPath id="SVGID_00000139277409424993304300000001316638128208487309_">
		<use xlink:href="#SVGID_00000161631861820935379540000002895486405724267427_"  style="overflow:visible;"/>
	</clipPath>
	
		<g id="LOGO-ELEMENTS_00000173860590029478622620000003426197614777758643_" style="clip-path:url(#SVGID_00000139277409424993304300000001316638128208487309_);">
		<g>
			<path class="st2" d="M1607.3,2086.4c-7.3,0-14.4-5.2-18.1-13.3c-3.5-7.8-3.2-16.3,0.9-22.6c3.4-5.3,9-8.4,15.4-8.4
				c9.6,0,17.5,5,21,13.4c3.4,8.2,1.8,17.6-4,23.5C1617.7,2083.9,1612.5,2086.4,1607.3,2086.4z"/>
			<path class="st5" d="M1605.5,2042.3c9.5,0,17.3,5,20.8,13.3c3.4,8.1,1.8,17.5-4,23.3c-4.7,4.8-9.9,7.3-15,7.3
				c-7.3,0-14.3-5.2-17.9-13.2c-3.5-7.8-3.2-16.1,0.9-22.4C1593.7,2045.3,1599.2,2042.3,1605.5,2042.3L1605.5,2042.3L1605.5,2042.3
				 M1605.5,2042C1605.5,2042,1605.5,2042,1605.5,2042c-14.4,0-23.5,15.5-16.4,31.2c3.4,7.6,10.3,13.4,18.2,13.4
				c4.9,0,10.1-2.2,15.3-7.4C1634.7,2066.9,1627.5,2042,1605.5,2042L1605.5,2042z"/>
		</g>
		<g>
			<path class="st2" d="M1608.3,2072.6c-3.1,0-6-2.2-7.6-5.6c-1.5-3.3-1.3-6.8,0.4-9.5c1.4-2.2,3.8-3.5,6.4-3.5c4,0,7.3,2.1,8.8,5.6
				c1.4,3.4,0.8,7.4-1.7,9.9C1612.7,2071.6,1610.5,2072.6,1608.3,2072.6z"/>
			<path class="st5" d="M1607.6,2054.2c4,0,7.2,2.1,8.6,5.5c1.4,3.4,0.7,7.2-1.6,9.7c-2,2-4.1,3-6.2,3c-3,0-5.9-2.2-7.4-5.5
				c-1.5-3.2-1.3-6.7,0.4-9.3C1602.7,2055.5,1605,2054.2,1607.6,2054.2L1607.6,2054.2 M1607.6,2053.9
				C1607.6,2053.9,1607.5,2053.9,1607.6,2053.9c-6.1,0-10,6.6-7,13.2c1.5,3.2,4.4,5.7,7.7,5.7c2.1,0,4.3-0.9,6.5-3.1
				C1619.9,2064.4,1616.9,2053.9,1607.6,2053.9L1607.6,2053.9z"/>
		</g>
		<g>
			<path class="st5" d="M1608.2,2071.2c-3.9,0-7.1-3.2-7.1-7.1s3.2-7.1,7.1-7.1s7.1,3.2,7.1,7.1S1612.1,2071.2,1608.2,2071.2z"/>
			<path class="st2" d="M1608.2,2057.2c3.8,0,6.9,3.1,6.9,6.9s-3.1,6.9-6.9,6.9c-3.8,0-6.9-3.1-6.9-6.9S1604.4,2057.2,1608.2,2057.2
				 M1608.2,2056.8c-4,0-7.3,3.3-7.3,7.3s3.3,7.3,7.3,7.3c4,0,7.3-3.3,7.3-7.3S1612.2,2056.8,1608.2,2056.8L1608.2,2056.8z"/>
		</g>
		<g>
			<g>
				<circle class="st5" cx="1608.2" cy="2064.1" r="7.5"/>
				<path class="st2" d="M1608.2,2056.8c4,0,7.3,3.3,7.3,7.3c0,4-3.3,7.3-7.3,7.3s-7.3-3.3-7.3-7.3
					C1600.9,2060.1,1604.2,2056.8,1608.2,2056.8 M1608.2,2056.4c-4.2,0-7.6,3.4-7.6,7.6c0,4.2,3.4,7.6,7.6,7.6s7.6-3.4,7.6-7.6
					C1615.8,2059.9,1612.4,2056.4,1608.2,2056.4L1608.2,2056.4z"/>
			</g>
			<path class="st5" d="M1599.7,2068.1c-0.5,0.6-0.8,1-2.5,0.9c-0.5-0.5-1-0.8-1.7-1.3c-0.1-0.1-0.3-0.2-0.5-0.3
				c-0.1,0-0.2-0.2-0.3-0.3c-0.2-0.2-0.4-0.5-0.6-0.5c-0.5-0.2-1-0.3-1.5,0.2c-0.1,0.2-0.3,0.4-0.4,0.7c-0.5,0.8-1.2,2.1-2.4,2.3
				c-3.3,0.5-3.8,1.3-3.9,1.9c0,0.1,0,0.1-0.1,0.2c-0.2,0.3-0.4,0.5-0.6,0.7c-0.4,0.5-0.8,0.8-0.9,0.8c0,0,0,0,0,0l-0.3,0.2
				c0.1,0.1,0.2,0.1,0.2,0.1c0,0,0,0,0,0c0.2,0,0.5-0.2,1.1-1c0.2-0.2,0.4-0.4,0.6-0.7c0.1-0.1,0.1-0.2,0.2-0.3
				c0.1-0.4,0.3-1.1,3.6-1.6c1.4-0.2,2.2-1.6,2.7-2.5c0.2-0.3,0.3-0.5,0.4-0.6c0.2-0.3,0.5-0.3,1.1-0.1c0.1,0,0.3,0.3,0.4,0.4
				c0.2,0.2,0.3,0.3,0.4,0.4c0.2,0.1,0.3,0.2,0.5,0.3c0.6,0.4,1.2,0.8,1.6,1.2c-0.6,0.8-1.3,1.1-2.1,1.5c-0.6,0.3-1.2,0.5-1.6,1.1
				l-0.1,0.1l0.1,0.1c1.3,1.1,3.5,0,4.9-0.8l0.1-0.1l0-0.1c-0.1-0.7-0.4-1.2-0.7-1.7c1.6,0,2-0.5,2.5-1.1c0.3-0.4,0.7-0.8,1.6-1.2
				c0-0.1-0.1-0.2-0.1-0.3C1600.4,2067.2,1600,2067.7,1599.7,2068.1z M1597.8,2071c-1.3,0.7-3.1,1.5-4.2,0.8
				c0.3-0.4,0.8-0.6,1.3-0.8c0.7-0.3,1.5-0.7,2.2-1.5C1597.4,2069.9,1597.7,2070.4,1597.8,2071z"/>
			<path class="st2" d="M1594.9,2071c-0.5,0.2-1,0.4-1.3,0.8c1.1,0.7,3-0.2,4.2-0.8c-0.1-0.6-0.4-1.1-0.7-1.5
				C1596.5,2070.3,1595.7,2070.7,1594.9,2071z"/>
			<path class="st5" d="M1629.7,2072.2c-0.8,0.6-1.7,0.1-2.7-0.6c-2.5-1.8-2.8-2.6-3.1-3.3c-0.1-0.3-0.3-0.6-0.6-0.9
				c-0.2-0.2-0.4-0.3-0.6-0.5c-0.2-0.2-0.4-0.3-0.6-0.5c-0.1-0.2-0.3-0.2-0.4-0.2c-0.4,0-0.7,0.5-1.1,0.9c-0.1,0.2-0.2,0.3-0.3,0.4
				c-0.1,0.1-0.4,0.3-0.6,0.5c-0.3,0.2-0.6,0.4-0.7,0.6c-0.1,0.1-0.2,0.3-0.4,0.4c-0.5,0.2-0.9,0.1-1.3-0.3c0,0-0.1-0.1-0.2-0.1
				c-0.1-0.1-0.3-0.2-0.3-0.3c-0.1-0.3-0.1-0.5-0.1-0.7c0-0.3,0-0.6-0.4-1.1c-0.3-0.5-0.7-0.9-1.1-1.3c0,0.1-0.1,0.3-0.1,0.4
				c0.3,0.3,0.6,0.7,0.9,1.1c0.3,0.5,0.3,0.7,0.3,1c0,0.2,0,0.4,0.2,0.8c0.1,0.2,0.2,0.3,0.4,0.4c0,0,0.1,0.1,0.1,0.1
				c0.4,0.3,0.7,0.5,1.1,0.5c-0.5,0.4-0.9,0.7-1.2,0.9c-0.6,0.4-1.1,0.7-0.9,1.3l0,0.1l0.2,0c1.1,0.1,3.1,0.2,3.8-0.4
				c0.2-0.2,0.3-0.4,0.3-0.6c0-0.4-0.3-0.7-0.6-1c-0.2-0.2-0.5-0.4-0.5-0.7l0,0c0-0.1,0.1-0.1,0.1-0.2c0.1-0.1,0.4-0.3,0.7-0.5
				c0.3-0.2,0.6-0.4,0.7-0.5c0.1-0.1,0.2-0.3,0.4-0.5c0.2-0.3,0.6-0.8,0.8-0.8c0,0,0.1,0,0.1,0.1c0.2,0.2,0.4,0.4,0.6,0.6
				c0.2,0.1,0.4,0.3,0.5,0.4c0.3,0.3,0.4,0.5,0.5,0.8c0.3,0.7,0.7,1.6,3.2,3.4c1,0.7,2.1,1.4,3.1,0.6L1629.7,2072.2z M1619.5,2070.1
				c0.3,0.2,0.5,0.5,0.5,0.7c0,0.1,0,0.3-0.2,0.4c-0.6,0.5-2.4,0.4-3.4,0.4c0-0.3,0.3-0.4,0.8-0.8c0.5-0.3,1-0.7,1.7-1.4
				c0,0,0,0,0,0C1619.1,2069.7,1619.3,2069.9,1619.5,2070.1z"/>
			<path class="st2" d="M1618.9,2069.4c-0.6,0.7-1.2,1.1-1.7,1.4c-0.5,0.4-0.8,0.5-0.8,0.8c1,0.1,2.9,0.2,3.4-0.4
				c0.1-0.1,0.2-0.2,0.2-0.4c0-0.3-0.2-0.5-0.5-0.7C1619.3,2069.9,1619.1,2069.7,1618.9,2069.4
				C1618.9,2069.4,1618.9,2069.4,1618.9,2069.4z"/>
			<path class="st2" d="M1614.6,2064.5c-0.9-0.8-1.8-1.5-2-2.5c0-0.1,0-0.1,0-0.2c0-0.2,0-0.4-0.2-0.6c-0.2-0.4-0.8-0.5-1.2-0.3
				c-0.5,0.2-0.9,0.7-1.4,1.2c-0.4,0.4-0.7,0.8-1.1,1c-0.2,0.1-0.3,0.2-0.5,0.2c-0.3,0.1-0.8,0.3-1.9,1c-1.6,1-2.9,1.7-4.4,2.2
				c-0.2,0.1-0.3,0.1-0.4,0.2c0,0.1,0.1,0.2,0.1,0.3c0.1-0.1,0.3-0.1,0.4-0.2c1.5-0.5,2.9-1.3,4.5-2.3c1.1-0.7,1.5-0.8,1.8-0.9
				c0.2-0.1,0.4-0.1,0.6-0.3c0.4-0.2,0.8-0.7,1.2-1.1c0.4-0.5,0.9-0.9,1.3-1.1c0.3-0.1,0.6-0.1,0.8,0.2c0.1,0.1,0.1,0.3,0.1,0.4
				c0,0.1,0,0.1,0,0.2c0.2,1,1.1,1.8,2.1,2.7c0.3,0.3,0.7,0.6,1,0.9c0-0.1,0.1-0.3,0.1-0.4C1615.1,2065,1614.8,2064.7,1614.6,2064.5
				z"/>
		</g>
	</g>
</g>
<g>
	<defs>
		<path id="SVGID_00000132064200210124886660000005372037168930179465_" d="M1017.5,28.3c242.5-0.1,322.7,275,188.7,411
			c-150,152.3-309,69.1-370-66.5C758.1,199.3,858.4,28.3,1017.5,28.3z"/>
	</defs>
	<clipPath id="SVGID_00000030448558848991001300000005164100536207998644_">
		<use xlink:href="#SVGID_00000132064200210124886660000005372037168930179465_"  style="overflow:visible;"/>
	</clipPath>
	
		<g id="LOGO-ELEMENTS_00000012461113574638896650000013491955023943881346_" style="clip-path:url(#SVGID_00000030448558848991001300000005164100536207998644_);">
		<path class="st7" d="M1017.5,28.3c242.5-0.1,322.7,275,188.7,411c-150,152.3-309,69.1-370-66.5
			C758.1,199.3,858.4,28.3,1017.5,28.3z"/>
		<path class="st8" d="M1039.9,159.9c102.9,0,136.9,116.6,80.1,174.4c-63.6,64.6-131.1,29.3-157-28.2
			C929.9,232.5,972.5,160,1039.9,159.9z"/>
		<circle class="st3" cx="1047.1" cy="272.8" r="80.4"/>
		<path class="st9" d="M782,375.6c1.2,1.4,3.5,0,4.7-1.4l14.3-15.1c3.3-3.5-3.7-14.8,43-22.3c19-3.1,27-26.9,32.6-33.4
			c3.7-4.4,8.6-3.8,14-1.9c2.7,1,7,8.1,9.5,9.7c17.8,11.9,30.7,18.5,34.9,38.8c-16.7,8.6-38.5,19.3-52.1,8.6
			c9.6-12.1,29.6-10.9,41.9-29.5c36.4,1.1,21-15.8,53-26.9c17.6-6.1,33.3-15.1,49-24.8c19.1-11.7,20.8-9.5,26.9-13.4
			c9.3-5.9,18.7-20.5,27.5-23.8c3.7-1.4,8.6-0.7,10.8,2.7c1.4,2.2,1.3,5,1.8,7.5c3.4,19.3,32.2,31.4,43,50.6
			c5.8,10.2,2.2,10.8,5.4,20c0.7,2,3.7,3.7,5.4,5.1c6.4,5.1,12.2,6.1,19.6,2.6c1.4,7.5,12.6,10.8,12.7,18.4
			c0.2,13.4-30.1,10.9-43.4,9.9c-2-9.9,14-10.5,32.7-32.1c2.9-3.3,12.2-8.1,15.1-11.2c5.1-5.8,6.4-9.9,11.5-13.6
			c1.6-1.2,4-0.9,5.3,0.7c3.2,4.2,8.6,6.5,12.4,10.5c10.2,10.8,1,17.3,40.9,46.6c9.9,7.3,22.1,14.6,31.9,6.4"/>
	</g>
</g>
<g>
	<defs>
		<path id="SVGID_00000065785305442320231970000004381614544894159521_" d="M-483.9,58.7c242.5-0.1,322.7,275,188.7,411
			c-150,152.3-309,69.1-370-66.5C-743.2,229.7-642.9,58.7-483.9,58.7z"/>
	</defs>
	<clipPath id="SVGID_00000062169579934610738060000003860237143386773138_">
		<use xlink:href="#SVGID_00000065785305442320231970000004381614544894159521_"  style="overflow:visible;"/>
	</clipPath>
	
		<g id="LOGO-ELEMENTS_00000129901576297736730150000013781918910225011108_" style="clip-path:url(#SVGID_00000062169579934610738060000003860237143386773138_);">
		<path class="st7" d="M-483.9,58.7c242.5-0.1,322.7,275,188.7,411c-150,152.3-309,69.1-370-66.5
			C-743.2,229.7-642.9,58.7-483.9,58.7z"/>
		<path class="st8" d="M-461.4,190.3c102.9,0,136.9,116.6,80.1,174.4c-63.6,64.6-131.1,29.3-157-28.2
			C-571.4,262.9-528.9,190.4-461.4,190.3z"/>
		<circle class="st3" cx="-454.2" cy="303.3" r="80.4"/>
		<path class="st9" d="M-719.4,406c1.2,1.4,3.5,0,4.7-1.4l14.3-15.1c3.3-3.5-3.7-14.8,43-22.3c19-3.1,27-26.9,32.6-33.4
			c3.7-4.4,8.6-3.8,14-1.9c2.7,1,7,8.1,9.5,9.7c17.8,11.9,30.7,18.5,34.9,38.8c-16.7,8.6-38.5,19.3-52.1,8.6
			c9.6-12.1,29.6-10.9,41.9-29.5c36.4,1.1,21-15.8,53-26.9c17.6-6.1,33.3-15.1,49-24.8c19.1-11.7,20.8-9.5,26.9-13.4
			c9.3-5.9,18.7-20.5,27.5-23.8c3.7-1.4,8.6-0.7,10.8,2.7c1.4,2.2,1.3,5,1.8,7.5c3.4,19.3,32.2,31.4,43,50.6
			c5.8,10.2,2.2,10.8,5.4,20c0.7,2,3.7,3.7,5.4,5.1c6.4,5.1,12.2,6.1,19.6,2.6c1.4,7.5,12.6,10.8,12.7,18.4
			c0.2,13.4-30.1,10.9-43.4,9.9c-2-9.9,14-10.5,32.7-32.1c2.9-3.3,12.2-8.1,15.1-11.2c5.1-5.8,6.4-9.9,11.5-13.6
			c1.6-1.2,4-0.9,5.3,0.7c3.2,4.2,8.6,6.5,12.4,10.5c10.2,10.8,1,17.3,40.9,46.6c9.9,7.3,22.1,14.6,31.9,6.4"/>
	</g>
</g>
<polyline class="st11" points="-883.3,744.6 -291.2,744.6 -291.2,1336.7 -883.3,1336.7 "/>
<rect x="-291.2" y="744.6" class="st8" width="592.1" height="592.1"/>
<rect x="300.9" y="744.6" class="st7" width="592.1" height="592.1"/>
<polyline class="st3" points="1485,1336.7 893,1336.7 893,744.6 1485,744.6 "/>
<g>
	<g>
		<path class="st12" d="M-798.5,1021h-15.1v-15.9h53.2v15.9h-14.9v46.3h-23.2V1021z"/>
		<path class="st12" d="M-689.5,1043.8h-24.7v7.8h27.9l-2.4,15.8h-47.7v-62.2h47.9v15.9h-25.7v6.9h24.7V1043.8z"/>
		<path class="st12" d="M-643.8,1047.5c0.4,5,2.7,7.1,6.9,7.1c3.4,0,5-1.5,5-4.1c0-2.9-2.1-4.6-10.4-6.9c-16.9-4.5-21-11.4-21-19.6
			c0-13.7,11.2-20.5,26.3-20.5c15.6,0,26.4,6.8,27,20.6h-21.1c-0.1-3.4-1.6-6.3-5.5-6.3c-2.4,0-4.3,1.2-4.3,3.3
			c0,2.9,2.2,4.1,10.1,6.3c17.1,4.7,22.2,10.5,22.2,20.8c0,15.1-12.8,20.9-28.5,20.9c-18.4,0-27.4-9.3-28-21.5H-643.8z"/>
		<path class="st12" d="M-571.9,1021h-15.1v-15.9h53.2v15.9h-14.9v46.3h-23.2V1021z"/>
		<path class="st12" d="M-462.9,1043.8h-24.7v7.8h27.9l-2.4,15.8h-47.7v-62.2h47.9v15.9h-25.7v6.9h24.7V1043.8z"/>
		<path class="st12" d="M-412.8,1045.7v21.7h-22.5v-62.2h32.6c16.9,0,22.3,9.5,22.3,17.1c0,8.3-4.2,12.7-9.6,14.9
			c7.2,2.5,8.8,8.6,8.8,15.1v2.3c0,4.7-0.1,10.6,0.5,12.9H-403c-0.9-2.4-1.3-6.7-1.3-12.4v-1.8c0-6.1-1.5-7.4-6.3-7.4H-412.8z
			 M-412.8,1031.1h3.9c4.3,0,5.6-2.8,5.6-5.9c0-3.6-1.7-5.6-5.7-5.6h-3.8V1031.1z"/>
	</g>
</g>
<g>
	<g>
		<path class="st13" d="M-197.4,1021h-15.1v-15.9h53.2v15.9h-14.9v46.3h-23.2V1021z"/>
		<path class="st13" d="M-88.3,1043.8H-113v7.8H-85l-2.4,15.8h-47.7v-62.2h47.9v15.9H-113v6.9h24.7V1043.8z"/>
		<path class="st13" d="M-42.6,1047.5c0.4,5,2.7,7.1,6.9,7.1c3.4,0,5-1.5,5-4.1c0-2.9-2.1-4.6-10.4-6.9c-16.9-4.5-21-11.4-21-19.6
			c0-13.7,11.2-20.5,26.3-20.5c15.6,0,26.4,6.8,27,20.6H-30c-0.1-3.4-1.6-6.3-5.5-6.3c-2.4,0-4.3,1.2-4.3,3.3
			c0,2.9,2.2,4.1,10.1,6.3c17.1,4.7,22.2,10.5,22.2,20.8c0,15.1-12.8,20.9-28.5,20.9c-18.4,0-27.4-9.3-28-21.5H-42.6z"/>
		<path class="st13" d="M29.2,1021H14.1v-15.9h53.2v15.9H52.4v46.3H29.2V1021z"/>
		<path class="st13" d="M138.3,1043.8h-24.7v7.8h27.9l-2.4,15.8H91.4v-62.2h47.9v15.9h-25.7v6.9h24.7V1043.8z"/>
		<path class="st13" d="M188.3,1045.7v21.7h-22.5v-62.2h32.6c16.9,0,22.3,9.5,22.3,17.1c0,8.3-4.2,12.7-9.6,14.9
			c7.2,2.5,8.8,8.6,8.8,15.1v2.3c0,4.7-0.1,10.6,0.5,12.9h-22.3c-0.9-2.4-1.3-6.7-1.3-12.4v-1.8c0-6.1-1.5-7.4-6.3-7.4H188.3z
			 M188.3,1031.1h3.9c4.3,0,5.6-2.8,5.6-5.9c0-3.6-1.7-5.6-5.7-5.6h-3.8V1031.1z"/>
	</g>
</g>
<g>
	<g>
		<path class="st14" d="M403.8,1021h-15.1v-15.9h53.2v15.9H427v46.3h-23.2V1021z"/>
		<path class="st14" d="M512.8,1043.8h-24.7v7.8h27.9l-2.4,15.8H466v-62.2h47.9v15.9h-25.7v6.9h24.7V1043.8z"/>
		<path class="st14" d="M558.5,1047.5c0.4,5,2.7,7.1,6.9,7.1c3.4,0,5-1.5,5-4.1c0-2.9-2.1-4.6-10.4-6.9c-16.9-4.5-21-11.4-21-19.6
			c0-13.7,11.2-20.5,26.3-20.5c15.6,0,26.4,6.8,27,20.6h-21.1c-0.1-3.4-1.6-6.3-5.5-6.3c-2.4,0-4.3,1.2-4.3,3.3
			c0,2.9,2.2,4.1,10.1,6.3c17.1,4.7,22.2,10.5,22.2,20.8c0,15.1-12.8,20.9-28.5,20.9c-18.4,0-27.4-9.3-28-21.5H558.5z"/>
		<path class="st14" d="M630.3,1021h-15.1v-15.9h53.2v15.9h-14.9v46.3h-23.2V1021z"/>
		<path class="st14" d="M739.4,1043.8h-24.7v7.8h27.9l-2.4,15.8h-47.7v-62.2h47.9v15.9h-25.7v6.9h24.7V1043.8z"/>
		<path class="st14" d="M789.5,1045.7v21.7H767v-62.2h32.6c16.9,0,22.3,9.5,22.3,17.1c0,8.3-4.2,12.7-9.6,14.9
			c7.2,2.5,8.8,8.6,8.8,15.1v2.3c0,4.7-0.1,10.6,0.5,12.9h-22.3c-0.9-2.4-1.3-6.7-1.3-12.4v-1.8c0-6.1-1.5-7.4-6.3-7.4H789.5z
			 M789.5,1031.1h3.9c4.3,0,5.6-2.8,5.6-5.9c0-3.6-1.7-5.6-5.7-5.6h-3.8V1031.1z"/>
	</g>
</g>
<g>
	<g>
		<path class="st15" d="M1004.9,1021h-15.1v-15.9h53.2v15.9h-14.9v46.3h-23.2V1021z"/>
		<path class="st15" d="M1114,1043.8h-24.7v7.8h27.9l-2.4,15.8h-47.7v-62.2h47.9v15.9h-25.7v6.9h24.7V1043.8z"/>
		<path class="st15" d="M1159.7,1047.5c0.4,5,2.7,7.1,6.9,7.1c3.4,0,5-1.5,5-4.1c0-2.9-2.1-4.6-10.4-6.9c-16.9-4.5-21-11.4-21-19.6
			c0-13.7,11.2-20.5,26.3-20.5c15.6,0,26.4,6.8,27,20.6h-21.1c-0.1-3.4-1.6-6.3-5.5-6.3c-2.4,0-4.3,1.2-4.3,3.3
			c0,2.9,2.2,4.1,10.1,6.3c17.1,4.7,22.2,10.5,22.2,20.8c0,15.1-12.8,20.9-28.5,20.9c-18.4,0-27.4-9.3-28-21.5H1159.7z"/>
		<path class="st15" d="M1231.5,1021h-15.1v-15.9h53.2v15.9h-14.9v46.3h-23.2V1021z"/>
		<path class="st15" d="M1340.6,1043.8h-24.7v7.8h27.9l-2.4,15.8h-47.7v-62.2h47.9v15.9h-25.7v6.9h24.7V1043.8z"/>
		<path class="st15" d="M1390.6,1045.7v21.7h-22.5v-62.2h32.6c16.9,0,22.3,9.5,22.3,17.1c0,8.3-4.2,12.7-9.6,14.9
			c7.2,2.5,8.8,8.6,8.8,15.1v2.3c0,4.7-0.1,10.6,0.5,12.9h-22.3c-0.9-2.4-1.3-6.7-1.3-12.4v-1.8c0-6.1-1.5-7.4-6.3-7.4H1390.6z
			 M1390.6,1031.1h3.9c4.3,0,5.6-2.8,5.6-5.9c0-3.6-1.7-5.6-5.7-5.6h-3.8V1031.1z"/>
	</g>
</g>
<g>
	<g>
		<path class="st5" d="M226.5,30.5l-196,196C11,246,0,272.4,0,300c0,27.6,11,54,30.5,73.5l196,196c40.6,40.6,106.5,40.6,147.1,0
			l196-196C589,354,600,327.6,600,300c0-27.6-11-54-30.5-73.5l-196-196C354,11,327.6,0,300,0C272.4,0,246,11,226.5,30.5z M300,251.1
			c22.9,22.9,26,26,48.9,48.9c-22.9,22.9-26,26-48.9,48.9c-22.9-22.9-26-26-48.9-48.9C274,277.1,277.1,274,300,251.1z"/>
	</g>
</g>
</svg>
