<?xml version="1.0" encoding="utf-8"?>
<!-- Generator: Adobe Illustrator 27.6.1, SVG Export Plug-In . SVG Version: 6.00 Build 0)  -->
<svg version="1.1" id="Layer_1" xmlns="http://www.w3.org/2000/svg" xmlns:xlink="http://www.w3.org/1999/xlink" x="0px" y="0px"
	 viewBox="0 0 330.9 331.9" style="enable-background:new 0 0 330.9 331.9;" xml:space="preserve">
<style type="text/css">
	.st0{opacity:2.000000e-02;}
	.st1{fill:#E63F8E;stroke:#FFFFFF;stroke-width:2;stroke-miterlimit:10;}
	.st2{fill:#F3B1D0;stroke:#FFFFFF;stroke-width:2;stroke-miterlimit:10;}
	.st3{fill:#FFFFFF;stroke:#FFFFFF;stroke-width:2;stroke-miterlimit:10;}
	.st4{fill:#FEF7FB;stroke:#FFFFFF;stroke-width:2;stroke-miterlimit:10;}
</style>
<g class="st0">
	<path class="st1" d="M57,1h64.6v34.8H57L57,1z"/>
	<path class="st2" d="M119.2,18.3h64.6v34.8h-64.6V18.3z"/>
	<path class="st3" d="M181.4,35.7h64.6v34.8h-64.6V35.7z"/>
	<path class="st4" d="M243.6,53h64.6v34.8h-64.6V53z"/>
	<path class="st4" d="M78.8,43.2h64.6v34.8H78.8L78.8,43.2z"/>
	<path class="st3" d="M141,60.5h64.6v34.8H141V60.5z"/>
	<path class="st2" d="M203.2,77.8h64.6v34.8h-64.6V77.8z"/>
	<path class="st1" d="M265.4,95.2h64.6v34.8h-64.6V95.2z"/>
	<path class="st1" d="M60.1,110.1h64.6v34.8H60.1V110.1z"/>
	<path class="st2" d="M122.3,127.5h64.6v34.8h-64.6L122.3,127.5z"/>
	<path class="st3" d="M184.5,144.8h64.6v34.8h-64.6V144.8z"/>
	<path class="st4" d="M246.7,162.1h64.6v34.8h-64.6V162.1z"/>
	<path class="st3" d="M38.3,68h64.6v34.8H38.3L38.3,68z"/>
	<path class="st1" d="M100.5,85.3h64.6v34.8h-64.6V85.3z"/>
	<path class="st2" d="M162.7,102.7h64.6v34.8h-64.6V102.7z"/>
	<path class="st4" d="M224.9,120h64.6v34.8h-64.6L224.9,120z"/>
	<path class="st2" d="M19.7,135h64.6v34.8H19.7L19.7,135z"/>
	<path class="st3" d="M81.9,152.3h64.6v34.8H81.9V152.3z"/>
	<path class="st1" d="M144.1,169.6h64.6v34.8h-64.6V169.6z"/>
	<path class="st4" d="M206.2,187h64.6v34.8h-64.6V187z"/>
	<path class="st3" d="M41.4,177.1H106v34.8H41.4V177.1z"/>
	<path class="st1" d="M103.6,194.4h64.6v34.8h-64.6L103.6,194.4z"/>
	<path class="st4" d="M165.8,211.8h64.6v34.8h-64.6V211.8z"/>
	<path class="st2" d="M228,229.1h64.6v34.8H228L228,229.1z"/>
	<path class="st1" d="M22.8,244.1h64.6v34.8H22.8L22.8,244.1z"/>
	<path class="st4" d="M85,261.4h64.6v34.8H85L85,261.4z"/>
	<path class="st3" d="M147.1,278.8h64.6v34.8h-64.6V278.8z"/>
	<path class="st2" d="M209.3,296.1h64.6v34.8h-64.6V296.1z"/>
	<path class="st4" d="M1,201.9h64.6v34.8H1V201.9z"/>
	<path class="st2" d="M63.2,219.3h64.6V254H63.2L63.2,219.3z"/>
	<path class="st3" d="M125.4,236.6h64.6v34.8h-64.6V236.6z"/>
	<path class="st1" d="M187.6,253.9h64.6v34.8h-64.6V253.9z"/>
</g>
</svg>
