<svg xmlns="http://www.w3.org/2000/svg" width="68.029" height="68.029"><path fill="#63EBCD" d="M57.586 19.317a1.794 1.794 0 0 0-.202.044L16.932 30.704c-1.603.449-3.208.898-4.811 1.349-1.444.405-2.924.718-4.164 1.604-2.043 1.458-3.207 3.996-2.882 6.496a6.988 6.988 0 0 0 4.576 5.668c2.856 1.029 5.812-.307 8.57-1.078l35.996-10.095 4.409-1.235c1.304-.366 2.639-.659 3.857-1.268 1.922-.958 3.274-3.05 3.569-5.142.678-4.82-3.823-8.703-8.466-7.686z"/><path fill="#333" d="M54.459 25.675a1.946 1.946 0 0 0-.203.044A611046.839 611046.839 0 0 0 8.993 38.413c-1.444.404-2.923.719-4.164 1.604-2.044 1.458-3.207 3.998-2.884 6.497a6.997 6.997 0 0 0 4.578 5.669c2.856 1.029 5.812-.308 8.57-1.081l35.995-10.094 4.41-1.236c1.305-.366 2.638-.657 3.856-1.265 1.922-.957 3.275-3.05 3.57-5.145.678-4.82-3.824-8.703-8.465-7.687zm4.713 8.838c-.649 1.066-1.777 1.429-2.905 1.746l-20.124 5.644-20.263 5.683-4.863 1.363c-1.219.342-2.352.72-3.584.202-2.014-.842-2.933-3.141-1.987-5.117.722-1.507 2.089-1.918 3.58-2.336l6.414-1.8c4.437-1.242 8.872-2.486 13.309-3.73l26.343-7.387c2.147-.537 4.17.811 4.685 2.921.237.978-.1 1.982-.605 2.811z"/></svg>