<svg xmlns="http://www.w3.org/2000/svg" width="68.029" height="68.029"><path fill="#EA6598" d="M57.586 19.317a1.637 1.637 0 0 0-.202.044L16.932 30.704c-1.604.449-3.208.898-4.812 1.35-1.443.404-2.924.718-4.164 1.604-2.043 1.458-3.207 3.996-2.882 6.496a6.988 6.988 0 0 0 4.576 5.668c2.855 1.029 5.812-.307 8.57-1.078l35.995-10.095 4.409-1.235c1.305-.366 2.64-.659 3.857-1.268 1.922-.958 3.273-3.05 3.569-5.143.68-4.82-3.821-8.703-8.464-7.686z"/><path fill="#333" d="M54.459 25.675a2.318 2.318 0 0 0-.203.044A611046.839 611046.839 0 0 0 8.992 38.413c-1.444.404-2.923.719-4.164 1.604-2.044 1.458-3.207 3.998-2.884 6.497a6.998 6.998 0 0 0 4.578 5.669c2.855 1.028 5.812-.309 8.569-1.081 11.998-3.364 23.997-6.729 35.995-10.095l4.41-1.235c1.306-.366 2.639-.657 3.856-1.266 1.922-.957 3.274-3.05 3.569-5.145.681-4.819-3.821-8.702-8.462-7.686zm4.713 8.838c-.648 1.065-1.776 1.429-2.904 1.745l-20.124 5.645-20.264 5.683-4.862 1.363c-1.22.342-2.353.72-3.584.202-2.015-.842-2.934-3.141-1.988-5.117.722-1.507 2.089-1.918 3.58-2.336l6.414-1.8c4.437-1.242 8.872-2.486 13.309-3.73l26.343-7.387c2.147-.537 4.171.811 4.686 2.921.236.978-.101 1.982-.606 2.811z"/></svg>