<svg width="45" height="44" viewBox="0 0 45 44" fill="none" xmlns="http://www.w3.org/2000/svg">
<g clip-path="url(#clip0_322_3912)">
<path d="M44.2027 0H0.308105V43.9122H44.2027V0Z" fill="#1C79BE"/>
<mask id="mask0_322_3912" style="mask-type:luminance" maskUnits="userSpaceOnUse" x="0" y="0" width="45" height="44">
<path d="M44.2027 0H0.308105V43.9122H44.2027V0Z" fill="white"/>
</mask>
<g mask="url(#mask0_322_3912)">
<path d="M23.2806 12.0559C24.3257 12.0559 24.879 11.5816 25.2215 11.0371L25.2039 11.1162C25.1073 11.6256 25.5201 11.9417 25.9065 11.9417H26.2402L27.1712 6.47026H26.0207L25.8626 7.30459C25.6518 6.87425 25.0634 6.35609 24.1149 6.35609C22.4375 6.35609 21.445 7.77884 21.2694 9.2982C21.085 11.0371 22.174 12.0559 23.2806 12.0559ZM24.2818 7.2519C26.2139 7.36607 25.5903 11.1776 23.6231 11.0635C21.8402 10.9581 22.3935 7.14651 24.2818 7.2519ZM8.36799 6.1014C8.36799 4.86307 7.60392 4.29222 6.24264 4.29222C5.40831 4.29222 4.09972 4.29222 3.62547 4.29222L2.30811 11.9417C2.47497 11.9417 3.89773 11.9417 4.70571 11.9417C5.25022 11.9417 5.77717 11.9242 6.06699 11.8627C7.4107 11.5729 7.95521 10.5629 8.06938 9.82515C8.21869 8.79761 7.59513 8.12136 6.87497 7.95449C7.4107 7.83154 8.36799 7.26068 8.36799 6.1014ZM5.55761 11.002C5.40831 11.0371 5.17118 11.0635 4.67058 11.0635H3.79234L4.23146 8.499H5.52248C7.23505 8.499 7.07697 10.6156 5.55761 11.002ZM6.06699 7.51537C5.90012 7.56806 5.68056 7.58563 5.28535 7.58563H4.38954L4.8111 5.13533H5.97916C7.37557 5.13533 7.27018 7.1026 6.06699 7.51537ZM13.4618 6.47904H13.1105C13.1105 6.47904 12.6011 9.48264 12.5484 9.82515C12.4255 10.5629 12.083 11.0635 11.1169 11.0635C10.5724 11.0635 10.0367 10.721 10.1596 9.95689C10.2123 9.65828 10.5724 7.48024 10.6075 7.30459C10.7129 6.71617 10.2211 6.47904 9.81709 6.47904H9.5097C9.43944 6.93573 9.09693 8.85908 8.97398 9.61437C8.92128 9.91297 8.90372 10.2204 8.92128 10.4224C9.03545 11.4411 9.90491 12.0647 10.9764 12.0647C12.8295 12.0647 13.5321 11.0635 13.7516 9.87784C13.8219 9.49142 14.1732 7.50659 14.1995 7.30459C14.2873 6.70739 13.8219 6.47904 13.4618 6.47904ZM15.3764 14.1022L15.9121 11.081C16.1229 11.5114 16.7201 12.0559 17.6686 12.0559C19.3812 12.0559 20.4438 10.677 20.5492 9.06108C20.6634 7.3485 19.6885 6.35609 18.5556 6.35609C17.572 6.35609 16.9045 6.8479 16.562 7.35729L16.5796 7.28703C16.685 6.76008 16.2458 6.46148 15.877 6.46148H15.5081C15.5081 6.46148 14.5069 12.3457 14.3752 13.0571C14.2171 13.8914 14.867 14.0846 15.0778 14.0846H15.3764V14.1022ZM18.1692 7.3485C19.9432 7.44511 19.3899 11.2743 17.5017 11.1689C15.5696 11.0547 16.1931 7.23433 18.1692 7.3485ZM41.8379 14.8224C41.3373 14.8224 40.6698 14.796 40.2658 14.6555C39.7915 14.4886 39.37 14.1549 38.9309 13.8036C38.7113 13.6279 38.4742 13.4435 38.2283 13.2766C37.9209 13.0659 37.675 12.9693 37.4291 12.9693C37.1041 12.9693 36.788 13.1537 36.4103 13.5577C35.8921 14.1022 35.4881 14.7697 35.1632 15.279C35.1456 15.3054 35.1105 15.3493 35.0666 15.3493C34.9876 15.3493 34.9788 15.2351 34.9788 15.2088C34.9612 13.7772 34.7504 5.99601 34.5923 3.66866C34.5221 2.64112 34.2147 2 33.7844 2C33.4331 2 32.9149 2.47425 32.5899 3.81796C31.7644 7.23433 29.9903 14.8311 29.2351 18.6866C29.2175 18.792 29.0945 18.792 29.077 18.6866C28.9891 18.2914 28.9189 17.8435 28.8486 17.4659C28.6203 16.2715 28.4271 15.2527 28.0406 14.6818C27.6015 14.0407 26.9428 13.9968 26.1524 14.5413C25.9768 14.6643 25.8099 14.8048 25.6343 14.9717C25.1249 15.4196 24.554 15.9377 23.5967 15.9377H15.0426L14.8143 17.2112H23.8514C24.8526 17.2112 25.7836 16.614 26.3368 16.2012C26.6179 15.9904 26.8199 15.8762 26.9692 15.8762C27.1887 15.8762 27.2854 16.1046 27.3644 16.4383C27.4083 16.6052 27.4522 16.8335 27.5049 17.097C27.6894 17.9753 27.9704 19.3629 28.3217 20.285C28.4886 20.7154 28.7345 20.9525 29.0155 20.9525C29.4458 20.9525 29.885 20.4343 30.1309 19.6176C30.4646 18.5373 32.4494 9.67585 33.2838 5.96088C33.3189 5.81158 33.3365 5.72375 33.3365 5.71497C33.354 5.65349 33.3891 5.60958 33.4418 5.60958C33.4858 5.60958 33.5384 5.64471 33.5384 5.73254V5.7501C33.5999 9.50898 33.7844 16.1046 34.0566 16.7808C34.2059 17.1585 34.4343 17.3517 34.7241 17.3517C35.0578 17.3517 35.453 17.0794 35.7341 16.6491C35.8746 16.4383 36.059 16.1573 36.2522 15.8587C36.7265 15.1297 36.8406 14.8926 36.9987 14.717C37.2359 14.4623 37.5081 14.4535 37.8945 14.7258C37.9472 14.7697 38.0175 14.8136 38.0965 14.8751C38.5093 15.1824 39.1943 15.604 39.9672 15.8236C40.4766 15.9729 41.1353 15.9992 41.6007 15.9992C41.8993 15.9992 42.2155 15.9904 42.3121 15.9816L42.5229 14.8048C42.4175 14.8136 42.1189 14.8224 41.8379 14.8224Z" fill="white"/>
</g>
</g>
<defs>
<clipPath id="clip0_322_3912">
<rect width="44" height="44" fill="white" transform="translate(0.308105)"/>
</clipPath>
</defs>
</svg>
