<svg width="161" height="44" viewBox="0 0 161 44" fill="none" xmlns="http://www.w3.org/2000/svg">
<g clip-path="url(#clip0_322_3959)">
<path d="M160.588 0H0V44H160.588V0Z" fill="#008542"/>
<path d="M19 32.4665L22.0626 17.6887H25.9442L25.5068 19.7777H25.5631C26.1527 18.8989 26.9868 18.2122 27.9624 17.8024C28.8221 17.469 29.7383 17.3054 30.6603 17.3207C31.4873 17.298 32.3023 17.5224 33.0012 17.9653C33.3269 18.1839 33.6032 18.4683 33.8123 18.8002C34.0214 19.1322 34.1586 19.5042 34.2152 19.8923C34.7322 19.0876 35.4628 18.4426 36.3254 18.0293C37.1806 17.5768 38.1314 17.3349 39.0989 17.3236C39.8616 17.3167 40.6186 17.4557 41.3291 17.7331C41.9871 17.984 42.56 18.4174 42.9806 18.9823C43.4051 19.5758 43.6233 20.2922 43.6016 21.0216C43.5798 21.6654 43.4851 22.3046 43.3192 22.927L42.0768 28.9236L41.3425 32.4665H37.3342L39.268 22.4313C39.268 21.1421 38.7175 20.4974 37.6165 20.4974C36.9748 20.4883 36.3494 20.6999 35.8451 21.0968C35.3161 21.5164 34.8851 22.0463 34.5819 22.6495C34.2589 23.2675 34.0169 23.9246 33.8621 24.6045L32.1827 32.4665H28.1743L30.0532 23.1226C30.0815 22.831 30.0956 22.5723 30.0956 22.3465C30.1176 21.8744 29.9837 21.4082 29.7146 21.0197C29.5579 20.8362 29.3595 20.693 29.136 20.6021C28.9125 20.5113 28.6704 20.4754 28.4302 20.4974C27.7788 20.4888 27.1432 20.6973 26.6235 21.09C26.0976 21.505 25.6689 22.03 25.3675 22.6283C25.0467 23.2516 24.8139 23.9163 24.6757 24.6036L23.0223 32.4665H19ZM59.565 26.0306C59.6655 25.2676 59.7221 24.4995 59.7346 23.7301C59.7721 22.5082 59.4791 21.2989 58.8867 20.2296C58.3363 19.2735 57.5029 18.5117 56.5014 18.0491C55.3659 17.5416 54.1316 17.2933 52.8881 17.3221C51.7437 17.3068 50.6111 17.5555 49.5784 18.0491C48.5964 18.5253 47.7297 19.2091 47.038 20.0533C46.3291 20.919 45.7838 21.9067 45.4289 22.968C45.0565 24.0632 44.868 25.2125 44.871 26.3693C44.871 28.4569 45.4567 30.0628 46.628 31.1869C47.7994 32.3111 49.3825 32.8731 51.3773 32.8731C53.4007 32.8731 54.998 32.4521 56.169 31.6099C57.4498 30.6239 58.4265 29.2965 58.9869 27.7804H54.9361C54.5872 28.3421 54.1594 28.8507 53.6657 29.2907C53.1795 29.6691 52.5731 29.8595 51.9578 29.8269C50.7724 29.8269 49.9396 29.4975 49.4594 28.8388C48.9419 27.997 48.6956 27.0165 48.7536 26.0301L59.565 26.0306ZM49.1771 23.4772C49.9293 21.3764 51.2604 20.3259 53.1705 20.3259C54.9864 20.3259 55.8944 21.3751 55.8944 23.4733L49.1771 23.4772ZM70.4048 32.4665L70.7155 30.5751C69.8586 32.0994 68.3857 32.8616 66.2967 32.8616C65.2643 32.8873 64.2429 32.6441 63.3329 32.1558C62.5052 31.6863 61.8386 30.9779 61.4203 30.1232C60.965 29.1677 60.7403 28.1187 60.7641 27.0606C60.7619 25.8438 60.928 24.6325 61.2579 23.4613C61.5731 22.3344 62.0791 21.2699 62.7538 20.3139C63.41 19.4022 64.2672 18.6536 65.259 18.1262C66.329 17.5737 67.52 17.2971 68.7239 17.3216C69.6065 17.3078 70.4789 17.5113 71.2643 17.9142C71.6112 18.0854 71.9265 18.3145 72.1965 18.5916C72.3997 18.8046 72.5729 19.0443 72.7115 19.3041L72.8878 19.65L74.5259 12H78.5766L74.2431 32.4526L70.4048 32.4665ZM69.1907 20.3259C68.742 20.3156 68.2957 20.3945 67.8777 20.5581C67.4597 20.7217 67.0784 20.9667 66.7559 21.2789C66.072 21.9471 65.5651 22.7749 65.2807 23.6877C64.9585 24.6047 64.7915 25.5689 64.7864 26.5408C64.7602 27.3823 65.0244 28.2072 65.5346 28.8769C65.7816 29.1907 66.1001 29.441 66.4635 29.6067C66.8269 29.7725 67.2246 29.849 67.6235 29.8298C68.0715 29.8357 68.516 29.7505 68.93 29.5795C69.3441 29.4085 69.7191 29.1552 70.0324 28.835C70.7234 28.1421 71.2409 27.2958 71.5427 26.3649C71.8654 25.4458 72.0344 24.4797 72.0428 23.5056C72.089 22.6693 71.8307 21.8446 71.3158 21.184C71.049 20.8901 70.7193 20.6603 70.3512 20.5117C69.9832 20.3631 69.5868 20.2996 69.1907 20.3259ZM77.0662 32.4665L80.1977 17.6887H84.206L81.0885 32.4665H77.0662ZM85.3936 12.001L84.6738 15.4167H80.6231L81.4132 12.001H85.3936ZM99.2821 22.783H95.2877C95.3147 22.436 95.264 22.0874 95.1396 21.7624C95.0151 21.4374 94.8198 21.1442 94.5679 20.9041C93.9744 20.4778 93.2502 20.2732 92.5214 20.3259C92.0886 20.3128 91.6581 20.3929 91.2591 20.5609C90.8601 20.7289 90.5019 20.9808 90.2089 21.2996C89.5847 21.9892 89.1367 22.8196 88.9033 23.72C88.6366 24.6734 88.5013 25.6587 88.501 26.6487C88.4659 27.4629 88.699 28.2661 89.1644 28.9352C89.4119 29.2409 89.7302 29.4818 90.0918 29.6367C90.4534 29.7917 90.8473 29.8562 91.2394 29.8245C91.6153 29.8387 91.9903 29.7776 92.3423 29.6447C92.6943 29.5118 93.0161 29.3099 93.2888 29.0508C93.8392 28.5029 94.2485 27.8298 94.4817 27.089H98.492C98.132 28.2191 97.5727 29.2756 96.8405 30.2085C96.1679 31.0556 95.3014 31.7285 94.314 32.1702C93.2688 32.6454 92.1307 32.8816 90.9826 32.8616C89.7706 32.8941 88.5662 32.6606 87.4541 32.1775C86.4974 31.7415 85.7112 31.0022 85.2173 30.0741C84.6696 28.9782 84.4046 27.7628 84.4464 26.5384C84.4254 24.9273 84.7635 23.3317 85.436 21.8676C86.0498 20.5085 87.039 19.3528 88.2871 18.5366C89.6031 17.7063 91.1354 17.2839 92.691 17.3226C94.3663 17.2451 96.0213 17.7158 97.4051 18.6634C98.6095 19.5569 99.2352 20.9301 99.2821 22.783ZM109.247 26.8197L109.656 25.3518C109.15 25.6163 108.599 25.7842 108.031 25.847C107.324 25.9411 106.57 26.0535 105.767 26.1843C105.099 26.2621 104.461 26.5046 103.91 26.89C103.685 27.0838 103.509 27.3282 103.396 27.6032C103.283 27.8782 103.237 28.176 103.261 28.4722C103.253 28.7189 103.307 28.9637 103.42 29.1835C103.532 29.4033 103.699 29.5908 103.904 29.7281C104.354 30.0361 104.89 30.1942 105.435 30.18C105.901 30.2155 106.369 30.15 106.808 29.988C107.246 29.8261 107.645 29.5715 107.976 29.2416C108.58 28.5429 109.015 27.7145 109.247 26.8207V26.8197ZM104.886 22.2048H101.173C101.276 21.143 101.702 20.1382 102.394 19.3263C103.057 18.5963 103.907 18.0618 104.851 17.7808C105.902 17.4653 106.994 17.3106 108.091 17.3221C110.02 17.3221 111.492 17.6091 112.509 18.183C113.042 18.4694 113.483 18.9013 113.78 19.4286C114.078 19.9559 114.219 20.5568 114.188 21.1613C114.143 21.9882 114.03 22.8099 113.851 23.6184L112.522 29.6014C112.387 30.1513 112.316 30.7148 112.31 31.2809C112.304 31.6806 112.351 32.0794 112.451 32.4665H108.5V31.0125C107.954 31.6156 107.265 32.0718 106.496 32.3393C105.651 32.6762 104.749 32.8487 103.84 32.8476C102.679 32.8843 101.539 32.5398 100.593 31.8667C100.153 31.5344 99.8009 31.0983 99.5694 30.5971C99.3379 30.096 99.2339 29.5454 99.2666 28.9944C99.2467 28.1258 99.4797 27.2702 99.9373 26.5316C100.415 25.8028 101.077 25.2136 101.857 24.8237C102.789 24.3552 103.793 24.0473 104.828 23.9132C106.023 23.7908 106.769 23.7133 107.065 23.6805C107.361 23.6477 107.733 23.6031 108.18 23.5466C108.453 23.5189 108.724 23.4765 108.992 23.4194C109.043 23.4024 109.094 23.3882 109.147 23.377C109.517 23.3023 109.859 23.1264 110.135 22.8687C110.371 22.5852 110.488 22.2207 110.46 21.8527C110.484 21.5608 110.422 21.2683 110.281 21.0114C110.141 20.7545 109.928 20.5445 109.669 20.4074C109.11 20.1223 108.49 19.9793 107.862 19.9911C107.162 19.9707 106.473 20.1652 105.887 20.5485C105.613 20.7389 105.383 20.9848 105.21 21.2701C105.038 21.5555 104.927 21.8739 104.886 22.2048ZM114.935 32.4665L117.997 17.6887H121.852L121.273 20.3866C121.731 19.4128 122.492 18.6132 123.441 18.1074C124.41 17.5841 125.495 17.3146 126.596 17.324C126.922 17.3164 127.247 17.3353 127.57 17.3804L126.737 21.276C126.176 21.1511 125.603 21.0849 125.029 21.0785C124.483 21.0571 123.939 21.1446 123.428 21.3356C122.916 21.5267 122.448 21.8176 122.05 22.1913C121.222 23.0007 120.653 24.2381 120.343 25.9034L118.958 32.4665H114.935ZM140.877 26.0306C140.978 25.2676 141.034 24.4995 141.047 23.7301C141.084 22.5083 140.792 21.299 140.2 20.2296C139.649 19.2735 138.816 18.5117 137.814 18.0491C136.679 17.5416 135.445 17.2933 134.201 17.3221C133.057 17.3068 131.924 17.5555 130.891 18.0491C129.909 18.5253 129.043 19.2091 128.351 20.0533C127.642 20.919 127.097 21.9067 126.742 22.968C126.37 24.0633 126.181 25.2128 126.185 26.3697C126.185 28.4574 126.77 30.0633 127.942 31.1874C129.113 32.3116 130.696 32.8736 132.691 32.8736C134.714 32.8736 136.312 32.4526 137.483 31.6104C138.763 30.6234 139.739 29.2952 140.298 27.7784H136.248C135.899 28.3402 135.471 28.8488 134.977 29.2888C134.491 29.6672 133.885 29.8575 133.269 29.825C132.084 29.825 131.251 29.4956 130.771 28.8369C130.254 27.9951 130.007 27.0146 130.065 26.0282L140.877 26.0306ZM130.489 23.4772C131.242 21.3789 132.573 20.3298 134.483 20.3298C136.299 20.3298 137.207 21.3789 137.207 23.4772H130.489Z" fill="#FDC82F"/>
</g>
<defs>
<clipPath id="clip0_322_3959">
<rect width="160.588" height="44" fill="white"/>
</clipPath>
</defs>
</svg>
