<svg width="84" height="44" viewBox="0 0 84 44" fill="none" xmlns="http://www.w3.org/2000/svg">
<g clip-path="url(#clip0_322_3919)">
<path d="M6.33962 0C6.33962 0 0.588379 0 0.588379 5.77423V36.9938C0.588379 36.9938 0.588379 43.2653 6.83495 43.2653H77.3909C77.3909 43.2653 83.1421 43.2653 83.1421 37.4911V19.8092C83.1421 19.8092 83.1421 0 63.4118 0H6.33962Z" fill="#6A2875"/>
<path d="M11.1503 15.3868C13.1316 15.3868 13.4893 15.4697 13.6544 15.9117C13.7645 16.2709 13.847 16.934 13.9296 17.5418C15.2229 16.0499 17.3143 15 19.7634 15C22.2125 15 24.1663 15.8012 25.377 17.1826C26.6979 18.6745 27.2758 20.6361 27.2758 23.7028V36.163C27.2758 36.605 27.0281 36.7708 24.6616 36.7708H24.469C21.8547 36.7708 21.7722 36.605 21.7722 36.163V25.2223C21.7722 22.4319 21.6071 21.5754 20.9742 20.8571C20.4513 20.2493 19.4332 19.9178 18.2774 19.9178C17.3418 19.9178 16.2961 20.1112 15.5807 20.5532C14.7276 21.0781 14.535 21.7412 14.4524 22.7082C14.3699 23.6475 14.3699 25.1394 14.3699 26.6866V36.163C14.3699 36.605 14.1222 36.7708 11.7557 36.7708H11.5631C8.94885 36.7708 8.86629 36.605 8.86629 36.163V25.0013C8.86629 21.8517 8.75622 18.3153 8.59112 16.1327C8.5636 15.5802 8.70119 15.4144 11.0127 15.4144H11.1503V15.3868Z" fill="white"/>
<path d="M42.2648 21.6098C41.2466 20.3941 40.0358 19.7587 38.6324 19.7587C35.688 19.7587 34.2846 22.1071 34.2846 26.3894C34.2846 28.7654 34.8349 30.3126 35.6605 31.2519C36.376 32.1084 37.5592 32.4123 38.6875 32.4123C39.8157 32.4123 41.109 31.9979 41.7144 31.3624C42.1547 30.8651 42.2648 30.2297 42.2648 29.1798V21.6098ZM45.1817 6C47.5482 6 47.7959 6.16577 47.7959 6.60781V31.3348C47.7959 32.2189 48.1536 32.4675 48.9516 32.4675C49.447 32.4675 49.4745 32.6609 49.4745 34.1252V34.5673C49.4745 35.9763 49.3919 36.3078 49.1167 36.4183C48.4013 36.6946 47.3006 36.9156 46.2274 36.9156C44.4387 36.9156 43.2554 36.1144 42.7051 34.8988C41.3292 36.3631 39.3204 37.1643 37.0914 37.1643C31.808 37.1643 28.5884 33.0201 28.5884 26.3894C28.5884 19.2338 32.1657 14.9791 37.4491 14.9791C39.3479 14.9791 40.9164 15.6145 42.2373 16.8025V6.60781C42.2373 6.16577 42.3198 6 44.934 6H45.1817Z" fill="white"/>
<path d="M59.5855 32.2122C60.2735 30.9966 60.6312 30.6374 61.0715 30.9689C62.64 32.0188 64.5388 32.7095 66.2449 32.7095C68.3913 32.7095 69.6296 31.9083 69.6296 30.8032C69.6296 27.6536 59.3104 29.5875 59.3104 21.8517C59.3104 17.597 62.9427 15 67.6483 15C70.3175 15 72.6015 15.7183 74.3076 17.0168C74.7204 17.2931 74.6378 17.6247 73.8123 19.006L73.4546 19.5862C72.7391 20.8295 72.4364 21.0505 71.9961 20.7466C70.7028 19.9454 69.4645 19.4481 67.8684 19.4481C66.7127 19.4481 65.7771 19.6967 65.2542 20.1388C64.8965 20.4703 64.7039 20.8295 64.7039 21.3268C64.7039 24.3659 75.0231 22.7911 75.0231 30.0848C75.0231 31.9359 74.2526 33.7317 72.9592 34.975C71.4733 36.4393 69.2443 37.2128 66.2999 37.2128C63.1904 37.2128 60.4661 36.1906 58.7875 34.7816C58.4573 34.5053 58.5123 34.1461 59.1452 32.9581L59.5855 32.2122Z" fill="white"/>
<path d="M54.5053 16C56.8993 16 57.1195 16.1658 57.1195 16.6078V36.7762C57.1195 37.2182 56.8718 37.384 54.5053 37.384H54.2851C51.6709 37.384 51.5884 37.2182 51.5884 36.7762V16.6078C51.5884 16.1658 51.6709 16 54.2851 16H54.5053Z" fill="white"/>
<path d="M55.1382 13.128C57.092 13.128 58.688 11.5256 58.688 9.564C58.688 7.60242 57.092 6 55.1382 6C53.1844 6 51.5884 7.60242 51.5884 9.564C51.5884 11.5256 53.1844 13.128 55.1382 13.128Z" fill="#82C341"/>
</g>
<defs>
<clipPath id="clip0_322_3919">
<rect width="82.72" height="44" fill="white" transform="translate(0.588379)"/>
</clipPath>
</defs>
</svg>
