<?xml version="1.0" encoding="UTF-8"?>
<svg id="Layer_2" data-name="Layer 2" xmlns="http://www.w3.org/2000/svg" viewBox="0 0 377.16 362.18">
  <defs>
    <style>
      .cls-1 {
        fill: #8e5ca2;
        fill-rule: evenodd;
      }
    </style>
  </defs>
  <g id="Layer_2-2" data-name="Layer 2">
    <g>
      <path class="cls-1" d="M303.89,223.78c-6.06,3.14-9.01,10.45-8.05,17.13,.63,4.42,3.61,8.09,7.35,10.38,3.09,1.89,6.73,2.56,10.16,2.05,3.24-.49,6.3-2.04,8.52-4.64,4.57-5.32,5.02-15.3,.47-20.98-4.38-5.46-12.36-7.1-18.45-3.94h0Z"/>
      <path class="cls-1" d="M116.32,324.79c-3.64,.25-10.68,1.59-13.45,4.15-12.76,11.8-3.14,34.35,14.31,33.2,5.41-.36,11.45-2.31,14.74-6.87,2.75-3.82,3.91-8.21,3.73-12.45-.41-9.81-7.96-18.81-19.32-18.02h0Z"/>
      <path class="cls-1" d="M309.35,21.73c5.78-1.93,7.57-11.18,1.41-14.04-4.52-2.1-12.35,.28-13.52,5.71-.37,1.74-.03,3.27,.79,4.55,2.18,3.44,7.69,4.99,11.33,3.78h0Z"/>
      <path class="cls-1" d="M365.58,158.79c-1.6-.95-3.27-1.77-4.98-2.47-11.93-4.87-26.06-3.86-38.27-1.02-10.55,2.45-20.79,6.99-31.9,6.04-8.25-.71-12.61-7.82-7.49-15.42,3.81-5.67,11.05-10.11,17.21-12.77,9.55-4.13,17.71-11.53,17.02-22.9-1.02-16.64-21.01-26.06-34.37-16.26-6.68,4.9-11.16,11.78-15.53,18.67-3.6,5.68-8.06,12.28-15.57,12.26-4.81,0-9.3-4.39-9.77-9.22-.68-6.92,6.63-14.26,10.81-18.78,4.62-5,8.42-10.58,12.58-15.96,13.15-17.04,30.03-42.39,17.27-64.15C276.55,6.52,265.33-.71,253.17,.06c-29.41,1.85-41.32,32.06-42.15,57.66-.27,8.28,.42,16.55-1.66,24.68-1.21,4.71-3.62,9.9-8.87,10.96-7.86,1.58-11.64-7.45-11.67-13.72-.08-13.29,1.43-26.87-9.99-36.43-8.47-7.09-21.31-10.15-31.33-4.57-9.84,5.48-17.26,14.44-15.54,26.2,1.5,10.29,8.04,18.77,12.4,27.93,4.57,9.59,7.11,21.56-2.4,29-7.67,5.99-18.01,1.79-23.74-4.4-6.09-6.58-9.47-15.24-15.4-21.97-8.43-9.57-31.31-18.74-39.13-3.14-10.35,20.65,15.42,29.04,28.94,36.27,7.68,4.1,13.99,8.9,16.27,17.68,2.45,9.41-4.22,18.09-13.95,18.31-10.61,.24-21.12-5.85-30.86-9.28-14.73-5.2-29.79-5.12-44.09,1.4-6.89,3.14-12.49,8.4-15.96,15.14-6.67,12.99-5.49,30.63,6.45,40.17,6.41,5.11,14.65,7.21,22.46,9.16,19.67,4.88,35.37-7.93,53.6-12.16,12.24-2.84,29.35,3.54,20.41,18.79-5.62,9.58-16,15.29-21.83,24.73-2.84,4.6-4.97,11.6-3.94,17.08,1.42,7.6,9.9,14.34,17.24,14.93,9.36,.76,17.41-5.29,20.99-13.65,2.24-5.24,2.22-10.66,3.52-16.08,1.66-6.91,2.73-14.1,6.82-20.08,5.07-7.44,14.47-13.06,23.21-7.36,22.61,14.75-9.61,42.88-15.73,56.69-4.24,9.56-5.59,21.19-2.04,31.17,1.99,5.6,5.75,11.65,10,15.83,15.2,14.98,42.29,20.19,62.05,12.35,7.8-3.09,17.39-9.88,21.83-17.19,6.43-10.59,6.85-20.1,4.5-31.71-1.84-9.06-5.44-19.81-2.31-28.96,1.66-4.84,5.37-7.75,10.34-8.83,13.11-2.86,19.3,5.57,26.57,14.58,7.86,9.72,17.41,19.23,30.22,21.41,11.91,2.02,26.7-4.09,21.83-18.79-2.85-8.6-13.36-15.46-20.75-20.01-12.04-7.41-33.65-14.84-33.01-32.45,.43-11.88,14.98-12.84,23.91-12.74,22.19,.24,46.68,6.89,67.9-2.17,6.51-2.78,12.39-7.82,15.73-14.1,6.19-11.64,3.19-26.71-8.43-33.58h0Z"/>
      <path class="cls-1" d="M108.03,58.49c3.27-11.19-14.24-9.52-10.46,.81,2.1,5.76,8.9,4.57,10.46-.81Z"/>
      <path class="cls-1" d="M346.01,134.85c8.17-.77,14.82-9.26,12.46-17.24-1.88-6.37-9.63-8.81-15.67-8.43-8.01,.49-15.75,8.39-13.04,16.68,2.04,6.26,9.71,9.61,16.25,8.99h0Z"/>
      <path class="cls-1" d="M49.27,88.09c3.44,3.11,9.16,2.74,11.85-1.94,3.68-6.4-3.05-13.87-9.81-11.71-5.08,1.62-5.99,7.52-3.62,11.67,.44,.77,.97,1.42,1.58,1.97h0Z"/>
      <path class="cls-1" d="M23.22,135.25c1.64,1.17,3.55,2.06,5.7,2.56,10.49,2.46,25.82-8.32,26.42-19.2,.16-2.93-1.11-7-3.07-9.24-6.75-7.68-21.96-6.04-29.57-.5-9.3,6.78-7.97,20.34,.53,26.38h0Z"/>
      <path class="cls-1" d="M343.68,225.42c-3.62,2.96-.34,7.8,3.03,9.25,5.49,2.36,9.43-4.66,4.81-8.5-2.22-1.84-5.55-2.62-7.84-.75h0Z"/>
      <path class="cls-1" d="M268.55,306.15c-5.56-3.31-14.43-3.29-14.03,5.39,.34,7.47,11.25,9.41,16.07,5.07,4.3-3.88,2.01-8.05-2.03-10.45h0Z"/>
      <path class="cls-1" d="M70.02,236.52c-4.34-3.37-12.37-2.27-15.48,2.13-3.84,5.44,.99,12.66,7.4,12.03,5.82-.57,14.81-8.94,8.08-14.16h0Z"/>
    </g>
  </g>
</svg>