<?xml version="1.0" encoding="UTF-8"?>
<svg id="Layer_2" data-name="Layer 2" xmlns="http://www.w3.org/2000/svg" viewBox="0 0 412 384.39">
  <defs>
    <style>
      .cls-1 {
        fill: #fac000;
        fill-rule: evenodd;
      }
    </style>
  </defs>
  <g id="Layer_2-2" data-name="Layer 2">
    <g>
      <path class="cls-1" d="M364.59,69.52c.06-1.96-.08-3.75-.37-5.36-.07-.65-.18-1.3-.33-1.96-1.2-5.03-4.6-8.15-8.79-9.62-1.58-.58-3.26-.89-4.97-.97-5.58-.31-11.57,1.69-15.43,5.57-1.79,1.79-2.85,3.79-3.33,5.83-1.04,3.54-.42,7.67,2.79,12.05,7.73,10.54,22.62,8.97,30.43-5.54h0Z"/>
      <path class="cls-1" d="M51.54,246.98c-6.53-2.23-8.54,5.24-7.16,10.27,2.61,10.17,15.32-.56,11.54-7.09-.75-1.29-2.14-2.41-4.38-3.18h0Z"/>
      <path class="cls-1" d="M396.51,220.14c-4.36-1.67-9.94-3.22-14.63-3.32-8.99-.18-17.55,.37-23.26-7.5-4.18-5.76-.99-11.15,2.08-16.56,2.85-5.01,5.39-9.7,5.43-15.61,.06-6.75-2.71-13.19-7.04-18.29-4.5-5.28-10.56-7.62-15.64-12.06-5.95-5.2-9.03-13.02-9.93-20.73-1.42-12.15,.4-26.98-8.16-36.92-6.52-7.57-16.76-9.18-26.08-10.53-8.76-1.27-19.05-3.37-22-13.04-3.05-9.99,5.94-17.38,12.36-23.44,6.82-6.43,14.65-13.56,14.1-23.78-.72-13.39-16.97-21.79-28.5-16.99-22.7,9.45-.28,50.96-29.34,55.72-9.75,1.6-20.1-5.59-27.89-10.58-10.32-6.62-19.82-9.77-31.66-4.6-4.88,2.13-10.3,6.37-15.91,3.98-7.34-3.13-6.51-13.72-7.07-20.15-.76-8.72-12.38-15.88-19.06-8.08-4.77,5.58,.83,12.97,2.19,18.78,1.9,8.04-.91,23.63-12.17,22.72-19.28-1.55-13.31-33.65-31.07-36.48-5.42-.86-12.42,3.91-15.21,8.36-5.38,8.59,2.74,16.26,8.42,21.87,3.96,3.91,10.93,8.5,10.89,14.83-.05,5.57-6.15,8.5-10.12,11.2-5.87,3.99-15.1,9.98-14.65,18.16,.16,2.99,1.87,5.62,2.08,8.57,1.14,15.86-29.66,9.95-28.61,27.12,.51,8.58,10.25,14.51,13.23,22.24,4.26,11.03-4.45,22.74-15.09,24.92-11.16,2.28-22.41-3.62-33.41-4.64-4.45-.41-11.36-.24-15.07,2.8-7.65,6.26-8.36,18.25,2.76,27.66,3.11,2.63,9.49,3.72,13.42,3.73,4.65,.01,9.22-1.32,13.7-2.44,8.46-2.13,18.9-6.26,27.49-2.78,6.71,2.73,10.99,9.93,11.31,16.93,.33,7.3-3.29,13.97-4.25,21.08-2.51,18.68,13.23,26.3,28.54,30.61,12.17,3.43,27.07,8.89,33.17,20.95,8.75,17.28-14.64,35.91,1.13,52.02,3.11,3.17,9.83,5.63,14.3,4.11,14.99-5.07,15.86-23.57,27.85-31.5,4.83-3.2,12.27,3.99,14.9,7.16,4.12,4.96,6.54,12.9,13.83,13.9,5.71,.79,11.15-2.27,15.84-5.16,3.48-2.15,7.48-5.26,11.48-6.35,5.69-1.54,7.68,3.72,9.76,8.04,2.79,5.82,3.08,12.1,3.43,18.42,.62,11.13,5.04,23.01,18.04,23.35,10.74,.28,18.01-8.33,13.85-18.35-3.1-7.47-8.47-14.14-10.73-21.91-1.13-3.92-.99-8.09,1.59-11.5,6.48-8.57,18.06-9.69,26.93-14.52,4.67-2.54,8.35-5.93,9.83-11.16,1.74-6.15,.01-13.11,1.83-19.11,1.46-4.81,5.16-10.83,10.48-11.94,4.26-.88,8.37,2.18,11.75,4.4,6.36,4.18,14.84,12.64,22.17,5.31,5.86-5.85,1.48-15.77-4.25-19.85-7.01-4.98-21.67-6.46-18.5-18.51,.05-.18,.1-.34,.15-.5,3.2-10.44,17.52-9.02,24.78-5.01,9.01,4.98,16.83,11.73,25.27,17.55,3.28,2.26,7.25,4.93,11.27,5.67,10.2,1.88,21.95-5.32,23.1-15.69,1.17-10.49-6.02-19.02-15.36-22.59h0Z"/>
      <path class="cls-1" d="M401.79,143.43c4.95,1.63,7.74-1.13,8.68-4.95,1.59-3.26,1.08-7.38-1.52-10.1-.02-.03-.04-.07-.07-.1-1.95-2.9-4.25-3.57-6.35-2.89-.68,.22-1.34,.58-1.96,1.06-5.33,2.91-6.55,8.67-3.69,12.89,.83,1.77,2.39,3.26,4.91,4.09h0Z"/>
      <path class="cls-1" d="M28.18,143.22c9.3,3.07,10.96-9.39,7.09-15.15-1.95-2.9-4.25-3.57-6.35-2.89-6.01,1.94-10.43,14.85-.73,18.04h0Z"/>
      <path class="cls-1" d="M356.22,96.84c-10.48,5.36-15.74,21.81-11.68,32.83,5.03,13.68,28.49,20,38.7,8.53,7.52-8.45,2.62-21.98,.5-31.6,.07,.05,.11,.11,.16,.2-4.82-9.57-18.17-14.82-27.68-9.95h0Z"/>
      <path class="cls-1" d="M195.52,20.93c6.35-4.25,7.74-15.47-.14-18.43-11.47-4.31-16.01,5.4-14.66,13.01,1.11,6.29,6.25,11.14,14.8,5.42h0Z"/>
      <path class="cls-1" d="M308.68,325.66c-11.47-4.31-16.01,5.4-14.66,13.01,1.11,6.29,6.25,11.14,14.8,5.42,6.34-4.25,7.73-15.47-.15-18.43h0Z"/>
      <path class="cls-1" d="M50.64,213.19c-6.62-.1-12.94,3.28-12.32,10.6-1.06,11.49,13.16,19.66,22.78,13.65,5.23-2.57,7.86-8.48,2.47-17.86-2.37-4.11-7.74-6.31-12.93-6.4h0Z"/>
      <path class="cls-1" d="M158.96,378.98c3.58,4.04,16.5,6.93,21.33,4.55,10.73-5.3,14.91-19.83,6.58-29.21-15-16.9-40.83,10.09-27.91,24.66h0Z"/>
    </g>
  </g>
</svg>