<?xml version="1.0" encoding="UTF-8"?>
<svg id="Layer_2" data-name="Layer 2" xmlns="http://www.w3.org/2000/svg" viewBox="0 0 377.42 348.1">
  <defs>
    <style>
      .cls-1 {
        fill: #1eb1a3;
        fill-rule: evenodd;
      }
    </style>
  </defs>
  <g id="Layer_2-2" data-name="Layer 2">
    <g>
      <path class="cls-1" d="M244.53,321.62c-4.18,.09-8.72,1.07-11.58,4.37-.28,.33-.52,.67-.72,1.02-1.34,2.38-.9,5.34,.53,7.69,1.03,1.69,3.42,3.38,5.12,4.35,6.42,3.66,16.04,2.48,20.72-3.48,1.75-2.23,2.36-5.21,1.17-7.85-2.47-5.48-10.07-6.21-15.23-6.09h0Z"/>
      <path class="cls-1" d="M308.78,137.44c-5.58-3.03-13.42-6.02-15.23-12.86-.26-.98-.36-1.93-.32-2.85,.16-3.73,2.6-6.81,5.24-9.22,3.26-2.97,7.18-5.45,10.98-7.66,11.75-6.82,25.51-15.45,24.43-31.1-.55-7.93-7.94-13.92-15.93-13.84-4.42,.04-8.73,1.22-12.62,3.31-4.11,2.2-7.98,5.52-11.38,8.66-2.82,2.6-5.52,5.27-8.15,8.07-5.11,5.41-11.56,12.48-19.77,11.83-5.74-.46-8.91-5.81-9.05-11.13-.18-6.3,8.56-20.19-.98-23.97-6.9-2.74-14.05,2.54-18.16,7.59-3.69,4.53-6.77,10.49-12.86,12.07-12.88,3.35-18.2-13.07-17.98-22.75,.1-4.63,.95-9.28,1.27-13.9,.53-7.85,.17-17.29-6.99-22.24-6.65-4.59-15.7-1.67-20.97,3.45-14.03,13.61-.53,33.28-9.62,48.19-4.48,7.34-14.44,8.31-21.98,5.84-12.22-3.99-18.63-18.67-23.78-29.24-5.55-11.37-14.58-27.25-29.66-24.71-6.74,1.13-10.15,7.08-11.31,13.35-1.03,5.57,1.01,11.23,3.52,16.13,3.37,6.56,8.5,11.79,13.06,17.5,3.36,4.2,13.34,17.02,6.9,22.06-3.41,2.67-9.58,.09-12.55-2.17-4.17-3.19-23.83-24.42-27.39-9.6-.68,2.81,1.06,6.49,2.41,8.81,3.33,5.72,13,14.03,8.96,21.61-2.7,5.08-11.33,5.38-16.02,3.22-7.76-3.58-13.02-10.62-19.29-16.15-5.31-4.69-11.46-8.89-18.32-10.92-6.68-1.96-14.91-.47-17.51,6.82-2.91,8.16,4.13,15.87,9.9,20.7,6.18,5.18,13.75,8.6,20.69,12.62,6.95,4.02,16.38,9.01,18.82,17.34,1.75,5.98-.38,11.74-6.09,14.19-4.41,1.9-9.4,1.38-13.91,2.98-3.51,1.24-7.74,4.62-7.68,8.66,.06,4.18,4.63,7.1,8.27,8.07,4.65,1.24,11.74,1.67,12.8,7.68,.98,5.51-4.9,8.82-9.25,10.3-6.76,2.31-15.24-.46-21.44,3.78-4.81,3.29-4.82,10.51-.98,14.67,6.81,7.38,19.87,5.14,28.85,5.14,4.95,0,10.32,3.79,12.18,8.25,2.8,6.71-4.27,11.86-7.92,16.71-2.28,3.03-5.41,8.98-3.29,12.74,6.26,11.13,25.03-3.99,32.89-5.09,4.86-.68,8.94,1.01,9.54,6.39,.36,3.18-.62,5.96-2.9,8.17-4.3,4.17-10.9,5.96-16.38,8.02-3.01,1.13-6.01,2.54-8.34,4.81-1.8,1.76-3.37,4.21-4.33,6.52-1.83,4.38-2.23,9.87-1.52,14.54,.77,5.11,4.66,9.54,8.99,12.2,2.11,1.29,5.29,1.98,7.71,2.31,5.39,.74,11.5-.84,15.51-4.63,2.99-2.82,4.75-7.32,5.7-11.24,1.44-5.91-.07-12.27,1.97-18.06,1.77-5.04,7.02-6.78,11.98-6.67,3.75,.09,8.06,2.86,9.46,6.38,2.09,5.24,.04,13.94-2.2,18.9-3.79,8.39-11,15.29-12.44,24.8-1.19,7.8-.59,16.86,6.18,22.03,5.12,3.91,12.16,4.27,17.6,.9,4.53-2.8,6.71-8.31,8.02-13.23,2.76-10.46,.38-21.19,2.17-31.73,.84-4.88,2.73-11.71,8.93-11.74,1.65,0,3.61,.71,4.87,1.74,2.52,2.06,3.69,5.71,4.37,8.77,1.04,4.6,.94,9.33,1.23,14,.33,5.62,1.24,11.29,2.52,16.77,.88,3.78,2.81,7.32,5.55,10.07,5.33,5.33,14.34,6.71,20.3,1.55,3.69-3.2,4.45-8.87,4.38-13.48-.04-2.55-.5-5.07-1.17-7.52-2.33-8.61-6.51-16.98-4.68-26.15,1.07-5.38,5.6-12.33,11.57-12.87,1.87-.17,3.81,.22,5.4,1.24,6.28,4.01,7.2,13.33,14.81,15.63,4.19,1.26,9.47,.23,12.42-3.17,2.47-2.85,3.38-6.7,3.38-10.38,0-3.82-.61-7.77,1.45-11.22,5.12-8.6,14.45-3.7,20,1.54,3.77,3.56,6.91,7.8,9.87,12.03,2.02,2.9,4.36,5.56,6.94,7.97,4.01,3.75,8.41,7.05,13.47,9.24,4.96,2.15,9.25,3.52,14.67,2.34,2.39-.52,5.05-1.89,6.88-3.5,7.56-6.67,5.93-18.74,2.32-26.89-1.65-3.73-4.09-7.04-6.92-9.95-4.92-5.03-10.82-8.86-16.59-12.79-5.4-3.66-11.27-7.87-13.67-14.21-6.19-16.34,19.98-12.44,25.95-21.9,2.57-4.09,2.05-9.41,.3-13.62-1.68-4.05-3.97-7.86-5.74-11.89-2.71-6.14-6.86-15.9-.72-21.34,5.27-4.68,12.64-3.08,18.62-5.65,5.47-2.34,8.03-7.77,8.4-13.4,.41-6.4-2.97-11.54-8.62-14.61h0Z"/>
      <path class="cls-1" d="M27.63,240.32c-1.55-.73-3.33-1.23-5.32-1.42-2.82-.28-6.15,.26-8.91,.83-4.77,.98-10.92,3.38-12.79,8.34-3.24,8.57,7.09,16.12,14.11,17.7,7.31,1.64,15.46-2.7,18.87-9.26,2.95-5.69-.08-13.41-5.97-16.19h0Z"/>
      <path class="cls-1" d="M346.93,214.4c7.01-.43,14.69-2.57,19.73-7.73,1.66-1.7,2.87-3.68,3.63-5.78,2.58-7.06,.11-15.45-7.51-18.78-4.44-1.94-9.51-1.91-14.25-1.4-4.09,.43-9.17,.82-13.04,2.3-7.07,2.69-15.63,9.43-14.07,18.21,1.83,10.29,16.88,13.71,25.51,13.19h0Z"/>
      <path class="cls-1" d="M149.14,62.01c4.37,.72,11.77-1.46,15.37-5.3,2.41-2.56,3.12-5.87,.13-9.54-2.8-3.44-8.49-4.12-12.66-4.16-5.55-.05-12.98,1.01-13.9,7.77-.88,6.47,5.5,10.32,11.05,11.23h0Z"/>
      <path class="cls-1" d="M287.06,58.35c1.77-.14,4.17-1.58,5.22-3.01,1.5-2.04,2.16-6.33,1.14-8.71-2.21-5.18-9.64-5.66-13.36-1.84-2.38,2.45-2.12,6.08-.46,8.97,1.59,2.75,4.43,4.83,7.46,4.59h0Z"/>
      <path class="cls-1" d="M224.45,42.26c2.7,6.23,9.56,7.13,14.78,2.86,1.77-1.46,3.35-3.22,4.71-5.15,2.11-2.98,3.74-6.36,4.98-9.63,1.55-4.08,2.46-9.14,2.28-13.5-.28-7.2-4.69-14.1-11.76-16.29-5.03-1.56-11.62,.21-15.06,4.22-5.27,6.15-3.39,14.61-2.57,21.9,.58,5.17,.53,10.71,2.64,15.58h0Z"/>
      <path class="cls-1" d="M365.82,284.44c-3.89-4.92-8.49-9.29-13.83-12.63-4.83-3.03-10.79-6.99-16.76-6.42-11.83,1.14-6.06,15.81-2.94,22.25,3.28,6.76,6.41,13.49,8.79,20.64,1.49,4.5,2.7,9.32,5.44,13.26,4.55,6.57,13.31,9,20.35,6.32,2.68-1.02,5.11-2.79,6.96-5.35,8.71-12.03-.16-28.16-8.01-38.08h0Z"/>
      <path class="cls-1" d="M35.78,274.08c-.28,.09-.56,.18-.82,.28-6.98,2.74-4.09,11.22,2.85,11.97,3.49,.37,10.17-.74,10.64-5.07,.62-5.77-8.3-8.48-12.67-7.18h0Z"/>
    </g>
  </g>
</svg>