<?xml version="1.0" encoding="UTF-8"?>
<svg id="Layer_2" data-name="Layer 2" xmlns="http://www.w3.org/2000/svg" viewBox="0 0 370.6 389.86">
  <defs>
    <style>
      .cls-1 {
        fill: #49af50;
        fill-rule: evenodd;
      }
    </style>
  </defs>
  <g id="Layer_2-2" data-name="Layer 2">
    <path class="cls-1" d="M126.42,348.59c.6-.97,1.19-1.93,1.75-2.87,7.95-13.42,7.94-29.53,.87-43.19-4.18-8.06-10.43-16.97-19.07-20.59-28.68-12-37.94,31.22-63.73,30.53-7.22-.19-13.7-6.09-12.67-13.66,1.84-13.58,17.77-16.41,28.01-20.09,7.07-2.54,15.54-10.97,19.99-16.84,5.15-6.81,7.63-15.06,7.02-23.59-1.02-14.28-10.17-27.89-22.4-34.87-9.19-5.24-19.68-6.73-30.11-6.68-9.11,.03-20.58,3.3-29.34,.35-7.91-2.67-9.39-14.72-1.49-18.89,13.68-7.21,29.54,5.44,42.35,8.11,14.87,3.11,30.59-9.94,34.5-23.97,1.88-6.75-.44-17.74-5.99-22.56-12.05-10.47-32.39-14.21-40.85-28.51-4.14-6.99-2.25-15.24,3.47-20.59,14.71-13.76,28.15,4.39,37.48,13.92,15.94,16.27,40.14,18.9,59.76,7.79,8.89-5.04,17.99-11.19,23.45-20.05,7.03-11.41,9.23-23.12,4.47-35.68-4.26-11.24-12.6-24.69-5.08-36.4,5.27-8.21,16.19-6.19,22.23-.11,7.62,7.67,4.77,21.73,2.89,31.14-3.17,15.84,4.65,32.26,20.73,36.95,16.44,4.78,34.11,.38,49.05-6.73,14.36-6.83,29.26-14.41,40.07-26.38,15-16.62,23.85-51.74,49.56-54.98,12.99-1.64,20.94,9.06,15.86,20.98-5.88,13.8-21.19,22.09-33.08,29.93-23.84,15.73-48.63,38.04-51.33,68.45-1.35,15.13,3.56,31.19,18.13,37.96,12.07,5.62,23.52,7.67,35.15,.44,8.99-5.59,23.37-12.64,33.85-7.02,7.82,4.2,10.28,13.39,5.52,20.69-4.57,7.01-13.3,9.42-21.15,10.51-18.13,2.54-34.48,6.11-47.04,20.54-9.37,10.78-14.17,30.89-12.7,44.72,1.79,16.85,12.04,30.94,26.45,39.45,8.64,5.09,18.09,7.81,27.43,11.19,10.19,3.7,21.34,8.11,27.49,17.65,5.78,8.95,2.11,20.43-9.71,20.04-5.9-.19-11.32-3.66-15.99-6.95-24.25-17.04-48.05-34.11-77.28-41.47-26.34-6.62-54.75-4.77-77.66,10.81-5.76,3.92-11,8.51-15.92,13.44-7.12,7.14-24.01,20.9-14.31,32.54,5.29,6.36,13.88,8.48,15.37,17.7,4.39,27.25-35.64,37.34-50.83,18.18-8.42-10.63-1.18-21.64,4.83-31.38h0Z"/>
  </g>
</svg>