<?xml version="1.0" encoding="UTF-8"?><svg id="Layer_2" xmlns="http://www.w3.org/2000/svg" viewBox="0 0 18.02 18"><defs><style>.cls-1{fill:#fefeff;}.cls-2{fill:#2e2b28;}</style></defs><g id="Layer_1-2"><g id="nav-icon-releases"><g><path class="cls-2" d="M9,17.5c-1.16,0-2.26-.22-3.28-.66-1.01-.43-1.92-1.05-2.71-1.84-.79-.79-1.41-1.7-1.84-2.71-.89-2.08-.89-4.48,0-6.56,.43-1.01,1.05-1.92,1.83-2.71,.79-.8,1.7-1.42,2.71-1.85,1.04-.44,2.15-.67,3.29-.67s2.24,.23,3.28,.67c2.06,.88,3.68,2.5,4.56,4.55,.89,2.08,.89,4.47,0,6.56-.43,1.01-1.05,1.92-1.84,2.71-.78,.79-1.69,1.41-2.71,1.84-1.03,.44-2.13,.66-3.29,.67h0Z"/><path class="cls-1" d="M9,1c1.05,0,2.1,.21,3.09,.63,1.93,.82,3.47,2.36,4.3,4.29,.84,1.97,.84,4.2,0,6.17-.41,.96-1,1.82-1.73,2.56-.73,.74-1.6,1.33-2.55,1.73-.98,.42-2.03,.62-3.09,.62h0c-1.06,0-2.11-.2-3.08-.62-.95-.41-1.82-1-2.55-1.73-.73-.74-1.32-1.6-1.73-2.56-.84-1.97-.84-4.2,0-6.17,.41-.95,1-1.82,1.73-2.56,.73-.74,1.6-1.33,2.55-1.74,.99-.42,2.04-.63,3.09-.63m0-1c-1.2,0-2.37,.24-3.48,.71-1.07,.46-2.04,1.11-2.87,1.96-.83,.84-1.48,1.8-1.94,2.87-.95,2.21-.95,4.75,0,6.95,.46,1.07,1.11,2.03,1.94,2.87,.83,.83,1.8,1.49,2.87,1.95,1.08,.46,2.25,.7,3.48,.7,1.23,0,2.4-.24,3.49-.71,1.08-.46,2.04-1.12,2.87-1.95,.83-.84,1.49-1.8,1.94-2.87,.95-2.21,.95-4.75,0-6.95-.94-2.18-2.65-3.89-4.82-4.82-1.1-.47-2.27-.71-3.48-.71h0Z"/></g><g><path class="cls-1" d="M9,12.19c-.43,0-.84-.08-1.23-.25-.38-.16-.72-.39-1.01-.69-.29-.3-.53-.64-.69-1.02-.33-.78-.33-1.68,0-2.46,.16-.38,.39-.72,.69-1.02,.3-.3,.64-.53,1.02-.69,.39-.17,.81-.25,1.23-.25s.84,.08,1.23,.25c.77,.33,1.38,.94,1.71,1.71,.33,.78,.33,1.68,0,2.46-.16,.38-.39,.72-.69,1.02-.29,.3-.63,.53-1.02,.69-.38,.17-.8,.25-1.23,.25h0Z"/><path class="cls-2" d="M9.01,6c.39,0,.79,.08,1.16,.24,.72,.31,1.3,.89,1.61,1.61,.32,.74,.32,1.57,0,2.31-.15,.36-.37,.68-.65,.96-.27,.28-.6,.5-.96,.65-.37,.16-.76,.23-1.16,.23h0c-.4,0-.79-.08-1.15-.23-.36-.15-.68-.37-.96-.65-.27-.28-.5-.6-.65-.96-.32-.74-.32-1.57,0-2.31,.15-.36,.37-.68,.65-.96,.27-.28,.6-.5,.96-.65,.37-.16,.76-.24,1.16-.24m0-.37c-.45,0-.89,.09-1.3,.27-.4,.17-.76,.42-1.08,.73-.31,.31-.55,.68-.73,1.07-.35,.83-.35,1.78,0,2.61,.17,.4,.42,.76,.73,1.08,.31,.31,.67,.56,1.07,.73,.41,.17,.84,.26,1.3,.26,.46,0,.9-.09,1.31-.26,.4-.17,.76-.42,1.07-.73,.31-.31,.56-.68,.73-1.08,.35-.83,.35-1.78,0-2.61-.35-.82-.99-1.46-1.81-1.81-.41-.18-.85-.27-1.3-.27h0Z"/></g><path class="cls-2" d="M9.01,9.75c.1,0,.2-.02,.29-.06s.17-.09,.24-.16,.12-.15,.16-.24c.08-.18,.08-.39,0-.58s-.22-.33-.4-.4-.39-.08-.58,0c-.09,.04-.17,.09-.24,.16s-.12,.15-.16,.24c-.08,.18-.08,.39,0,.58,.04,.09,.09,.17,.16,.24s.15,.12,.24,.16,.19,.06,.29,.06Z"/></g></g></svg>