<?xml version="1.0" encoding="UTF-8"?><svg id="Layer_2" xmlns="http://www.w3.org/2000/svg" viewBox="0 0 18.02 18"><defs><style>.cls-1{fill:#fff;}.cls-2{fill:#fefeff;}.cls-3{fill:#2e2b28;}</style></defs><g id="Layer_1-2"><g id="nav-icon-home"><g><path class="cls-3" d="M9,17.51c-1.16,0-2.26-.22-3.28-.66-1.01-.43-1.93-1.05-2.71-1.84-.79-.79-1.41-1.7-1.84-2.71-.89-2.08-.89-4.48,0-6.56,.43-1.01,1.05-1.92,1.83-2.71,.79-.8,1.7-1.42,2.71-1.85,1.04-.44,2.15-.67,3.29-.67s2.24,.23,3.28,.67c2.06,.88,3.68,2.5,4.56,4.55,.89,2.08,.89,4.47,0,6.56-.43,1.01-1.05,1.92-1.84,2.71-.78,.79-1.7,1.41-2.71,1.84-1.03,.44-2.13,.66-3.29,.67h0Z"/><path class="cls-2" d="M9,1c1.05,0,2.1,.21,3.09,.63,1.93,.82,3.47,2.36,4.3,4.29,.84,1.97,.84,4.2,0,6.17-.41,.96-1,1.82-1.73,2.56-.73,.74-1.6,1.33-2.55,1.73-.98,.42-2.03,.62-3.09,.62h0c-1.06,0-2.11-.2-3.08-.62-.95-.41-1.82-1-2.55-1.73-.73-.74-1.32-1.6-1.73-2.56-.84-1.97-.84-4.2,0-6.17,.41-.95,1-1.82,1.73-2.56,.73-.74,1.6-1.33,2.55-1.74,.99-.42,2.04-.63,3.09-.63m0-1c-1.2,0-2.37,.24-3.48,.71-1.07,.46-2.04,1.11-2.87,1.96-.83,.84-1.48,1.8-1.94,2.87-.95,2.21-.95,4.75,0,6.95,.46,1.07,1.11,2.03,1.94,2.87,.83,.83,1.8,1.49,2.87,1.95,1.08,.46,2.25,.7,3.48,.7,1.23,0,2.4-.24,3.49-.71,1.08-.46,2.04-1.12,2.87-1.95,.83-.84,1.49-1.8,1.94-2.87,.95-2.21,.95-4.75,0-6.95-.94-2.18-2.65-3.89-4.82-4.82-1.1-.47-2.27-.71-3.48-.71h0Z"/></g></g><g id="nav-icon-booking"><path class="cls-1" d="M11.58,6.3c.22,0,.67,.13,.67,.67v3.34c0,.22-.13,.67-.67,.67H7.58l-1.34,1.34V6.97c0-.22,.13-.67,.67-.67h4.67m0-.8H6.91c-.95,0-1.47,.76-1.47,1.47v5.34c0,.32,.2,.62,.49,.74,.1,.04,.2,.06,.31,.06,.21,0,.41-.08,.57-.23l1.1-1.1h3.68c.95,0,1.47-.76,1.47-1.47v-3.34c0-.95-.76-1.47-1.47-1.47h0Z"/></g></g></svg>