<?xml version="1.0" encoding="UTF-8"?><svg id="Layer_2" xmlns="http://www.w3.org/2000/svg" viewBox="0 0 18.02 18"><defs><style>.cls-1{fill:#fefeff;}.cls-2{fill:#2e2b28;}.cls-3{fill:#fff;stroke:#fefeff;stroke-miterlimit:10;stroke-width:.22px;}</style></defs><g id="Layer_1-2"><g id="nav-icon-home"><g><path class="cls-2" d="M9,17.51c-1.16,0-2.26-.22-3.28-.66-1.01-.43-1.92-1.05-2.71-1.84-.79-.79-1.41-1.7-1.84-2.71-.89-2.08-.89-4.47,0-6.56,.43-1.01,1.05-1.92,1.83-2.71,.79-.8,1.7-1.42,2.71-1.85,1.04-.44,2.15-.67,3.29-.67s2.24,.23,3.28,.67c2.06,.88,3.68,2.5,4.56,4.55,.89,2.08,.89,4.47,0,6.56-.43,1.01-1.05,1.92-1.84,2.71-.78,.78-1.69,1.4-2.71,1.84-1.03,.44-2.13,.66-3.29,.67h0Z"/><path class="cls-1" d="M9,1c1.05,0,2.1,.21,3.09,.63,1.93,.82,3.47,2.36,4.3,4.29,.84,1.97,.84,4.2,0,6.17-.41,.96-1,1.82-1.73,2.56-.73,.74-1.6,1.33-2.55,1.73-.98,.42-2.03,.62-3.09,.62h0c-1.06,0-2.11-.2-3.08-.62-.95-.41-1.82-1-2.55-1.73-.73-.74-1.32-1.6-1.73-2.56-.84-1.97-.84-4.2,0-6.17,.41-.95,1-1.82,1.73-2.56,.73-.74,1.6-1.33,2.55-1.74,.99-.42,2.04-.63,3.09-.63m0-1c-1.2,0-2.37,.24-3.48,.71-1.07,.46-2.04,1.11-2.87,1.96-.83,.84-1.48,1.8-1.94,2.87-.95,2.21-.95,4.75,0,6.95,.46,1.07,1.11,2.03,1.94,2.87,.83,.83,1.8,1.49,2.87,1.95,1.08,.46,2.25,.7,3.48,.7,1.23,0,2.4-.24,3.49-.71,1.08-.46,2.04-1.12,2.87-1.95,.83-.84,1.49-1.8,1.94-2.87,.95-2.21,.95-4.75,0-6.95-.94-2.18-2.65-3.89-4.82-4.82-1.1-.47-2.27-.71-3.48-.71h0Z"/></g><path class="cls-3" d="M4.86,9.73c.07,.48,.26,.83,.56,1.04,.3,.21,.7,.28,1.2,.2l1.2-.18c.42-.01,.84,0,1.25,.05,.43,.04,.85,.12,1.27,.22,.43,.1,.86,.24,1.27,.39l-.1-.67c-.8-.31-1.65-.5-2.51-.57-.43-.04-.87-.05-1.3-.03l-1.17,.18c-.32,.05-.57,.02-.73-.09-.16-.11-.27-.32-.31-.63l-.07-.48c-.05-.31-.01-.54,.11-.69,.12-.15,.35-.25,.67-.3l1.13-.17c.43-.11,.85-.25,1.26-.42,.8-.33,1.55-.77,2.23-1.3l-.1-.68c-.35,.28-.71,.53-1.1,.76-.38,.22-.77,.43-1.18,.6-.36,.16-.74,.29-1.12,.4l-1.22,.19c-.5,.08-.86,.26-1.08,.56-.22,.29-.3,.68-.22,1.16l.07,.48Zm3.55,.95l-.59,.09,.52,1.43c.03,.07,.03,.15,0,.22-.04,.06-.1,.1-.17,.11-.06,.01-.13,0-.18-.03-.06-.04-.1-.1-.14-.16l-1-1.48-.62,.1,1.08,1.65c.1,.18,.25,.32,.43,.43,.17,.09,.36,.12,.54,.08,.16-.02,.31-.09,.43-.19,.12-.1,.2-.23,.23-.38,.04-.17,.02-.35-.05-.52l-.48-1.35Zm-1.6-2.94l.44,2.83,.62-.09-.44-2.83-.62,.09Zm4.54,3.32c.02,.17,.09,.33,.19,.47,.1,.13,.22,.22,.37,.28,.16,.06,.34,.07,.51,.04,.17-.02,.33-.09,.47-.19,.13-.1,.22-.23,.28-.37,.06-.16,.07-.34,.04-.5l-.78-5.05c-.02-.17-.09-.33-.19-.47-.1-.13-.23-.22-.38-.27-.16-.06-.33-.07-.5-.04-.17,.02-.33,.09-.47,.19-.13,.1-.22,.23-.27,.37-.06,.16-.07,.34-.04,.51l.78,5.05Zm.62-.09l-.78-5.05c-.03-.16,.07-.31,.22-.35,.01,0,.02,0,.03,0,.08-.02,.17,0,.23,.05,.07,.05,.11,.13,.12,.21l.78,5.05c.02,.08,0,.17-.05,.23-.05,.07-.12,.11-.21,.12-.16,.03-.31-.07-.35-.22,0-.01,0-.02,0-.03h0Z"/></g></g></svg>