<svg viewBox="0 0 3000 3000" xmlns="http://www.w3.org/2000/svg" xmlns:xlink="http://www.w3.org/1999/xlink"><clipPath id="a"><path d="m0 0h3000v3000h-3000z" transform="matrix(-1 0 0 -1 3000 3000)"/></clipPath><g clip-path="url(#a)" fill="none" stroke-miterlimit="10" stroke-width="222.11"><path d="m-211.38-569.04 296.06 342.48-384.09 239.62 296.05 342.49-384.09 239.63 296.05 342.49-384.09 239.63 296.05 342.49-384.09 239.62 296.06 342.49-384.1 239.63 296.06 342.49-384.1 239.62" stroke="#11456b"/><path d="m306.23-490.76 296.05 342.48-384.09 239.63 296.05 342.49-384.09 239.62 296.06 342.49-384.1 239.63 296.06 342.49-384.1 239.62 296.06 342.49-384.09 239.63 296.05 342.49-384.09 239.62" stroke="#0c5483"/><path d="m823.83-412.48 296.06 342.48-384.1 239.63 296.06 342.49-384.1 239.62 296.06 342.49-384.09 239.63 296.05 342.49-384.09 239.62 296.05 342.5-384.09 239.62 296.05 342.49-384.09 239.63" stroke="#0064a0"/><path d="m1341.43-334.2 296.06 342.48-384.09 239.63 296.05 342.49-384.09 239.63 296.05 342.49-384.09 239.62 296.05 342.49-384.09 239.63 296.06 342.49-384.1 239.62 296.06 342.49-384.1 239.63" stroke="#0e82c5"/><path d="m1859.04-255.92 296.05 342.49-384.09 239.62 296.05 342.49-384.09 239.63 296.06 342.49-384.1 239.62 296.06 342.49-384.1 239.63 296.06 342.49-384.09 239.62 296.05 342.49-384.09 239.63" stroke="#38a3dc"/><path d="m2376.64-177.64 296.05 342.49-384.09 239.62 296.06 342.49-384.1 239.63 296.06 342.49-384.09 239.62 296.05 342.5-384.09 239.62 296.05 342.49-384.09 239.63 296.05 342.49-384.09 239.62" stroke="#5fbceb"/><path d="m2894.24-99.35 296.06 342.48-384.09 239.63 296.05 342.49-384.09 239.62 296.05 342.49-384.09 239.63 296.05 342.49-384.09 239.62 296.05 342.49-384.09 239.63 296.06 342.49-384.1 239.62" stroke="#96d4f5"/><path d="m3411.85-21.07 296.05 342.48-384.09 239.63 296.05 342.49-384.09 239.62 296.05 342.49-384.09 239.63 296.06 342.49-384.1 239.62 296.06 342.49-384.1 239.63 296.06 342.49-384.09 239.63" stroke="#cce9fb"/></g></svg>