<svg viewBox="0 0 2381.1 3782.02" xmlns="http://www.w3.org/2000/svg" xmlns:xlink="http://www.w3.org/1999/xlink"><clipPath id="a"><path d="m0 0h2381.1v3782.02h-2381.1z"/></clipPath><g clip-path="url(#a)" fill="none" stroke-miterlimit="10" stroke-width="400"><path d="m-258.68-490.96 1449.23 714.34 1449.23-714.34" stroke="#70236d"/><path d="m-258.68-90.96 1449.23 714.34 1449.23-714.34" stroke="#871f7f"/><path d="m-258.68 309.04 1449.23 714.34 1449.23-714.34" stroke="#9b328a"/><path d="m-258.68 709.04 1449.23 714.34 1449.23-714.34" stroke="#a54292"/><path d="m-258.68 1152.25 1449.23 714.33 1449.23-714.33" stroke="#af579d"/><path d="m-258.68 1595.45 1449.23 714.33 1449.23-714.33" stroke="#c886b9"/><path d="m-258.68 2038.65 1449.23 714.34 1449.23-714.34" stroke="#e0b8d7"/><path d="m-258.68 2481.85 1449.23 714.34 1449.23-714.34" stroke="#efd9eb"/><path d="m-258.68 2925.05 1449.23 714.34 1449.23-714.34" stroke="#faedf6"/><path d="m-258.68 3368.26 1449.23 714.33 1449.23-714.33" stroke="#fef9fc"/></g></svg>