<svg enable-background="new 0 0 2381.1 3782" viewBox="0 0 2381.1 3782" xmlns="http://www.w3.org/2000/svg" xmlns:xlink="http://www.w3.org/1999/xlink"><clipPath id="a"><path d="m0 0h2381.1v3782h-2381.1z"/></clipPath><g clip-path="url(#a)" fill="none" stroke-miterlimit="10" stroke-width="400"><path d="m-258.7 709 1449.2 714.3 1449.3-714.3" stroke="#038fb3"/><path d="m-258.7 309 1449.2 714.3 1449.3-714.3" stroke="#067291"/><path d="m-258.7-91 1449.2 714.3 1449.3-714.3" stroke="#185c76"/><path d="m-258.7-491 1449.2 714.3 1449.3-714.3" stroke="#1e4c63"/><path d="m-258.7 1152.2 1449.2 714.3 1449.2-714.3" stroke="#17b3d5"/><path d="m-258.7 1595.4 1449.2 714.3 1449.2-714.3" stroke="#5bc3e3"/><path d="m-258.7 2038.7 1449.3 714.3 1449.2-714.3" stroke="#93d3ea"/><path d="m-258.7 2481.9 1449.2 714.3 1449.2-714.3" stroke="#c0e4f2"/><path d="m-258.7 2925.1 1449.2 714.3 1449.2-714.3" stroke="#dff1f9"/><path d="m-258.7 3368.2 1449.2 714.3 1449.2-714.3" stroke="#f5fbfe"/></g></svg>