<svg viewBox="0 0 2381.1 3782.02" xmlns="http://www.w3.org/2000/svg" xmlns:xlink="http://www.w3.org/1999/xlink"><clipPath id="a"><path d="m0 0h2381.1v3782.02h-2381.1z"/></clipPath><g clip-path="url(#a)" fill="none" stroke-miterlimit="10" stroke-width="400"><path d="m-258.68 3072.98 1449.23-714.34 1449.23 714.34" stroke="#67a030"/><path d="m-258.68 3472.98 1449.23-714.34 1449.23 714.34" stroke="#507c2f"/><path d="m-258.68 3872.98 1449.23-714.34 1449.23 714.34" stroke="#476528"/><path d="m-258.68 4272.98 1449.23-714.34 1449.23 714.34" stroke="#415724"/><path d="m-258.68 2629.77 1449.23-714.33 1449.23 714.33" stroke="#8fbf25"/><path d="m-258.68 2186.57 1449.23-714.33 1449.23 714.33" stroke="#b0cb1b"/><path d="m-258.68 1743.37 1449.23-714.34 1449.23 714.34" stroke="#cad856"/><path d="m-258.68 1300.17 1449.23-714.34 1449.23 714.34" stroke="#e2e89e"/><path d="m-258.68 856.97 1449.23-714.34 1449.23 714.34" stroke="#f1f4d1"/><path d="m-258.68 413.77 1449.23-714.34 1449.23 714.34" stroke="#fffdf1"/></g></svg>