<?xml version="1.0" encoding="utf-8"?>
<!-- Generator: Adobe Illustrator 27.6.1, SVG Export Plug-In . SVG Version: 6.00 Build 0)  -->
<svg version="1.1" id="Layer_1" xmlns="http://www.w3.org/2000/svg" xmlns:xlink="http://www.w3.org/1999/xlink" x="0px" y="0px"
	 viewBox="0 0 3782 2381.1" style="enable-background:new 0 0 3782 2381.1;" xml:space="preserve">
<style type="text/css">
	.st0{display:none;clip-path:url(#SVGID_00000019654878113589761000000000572998217129200257_);}
	.st1{display:inline;fill:none;stroke:#038FB3;stroke-width:400;stroke-miterlimit:10;}
	.st2{display:inline;fill:none;stroke:#075985;stroke-width:400;stroke-miterlimit:10;}
	.st3{display:inline;fill:none;stroke:#185C76;stroke-width:400;stroke-miterlimit:10;}
	.st4{display:inline;fill:none;stroke:#1E4C63;stroke-width:400;stroke-miterlimit:10;}
	.st5{display:inline;fill:none;stroke:#17B3D5;stroke-width:400;stroke-miterlimit:10;}
	.st6{display:inline;fill:none;stroke:#5BC3E3;stroke-width:400;stroke-miterlimit:10;}
	.st7{display:inline;fill:none;stroke:#93D3EA;stroke-width:400;stroke-miterlimit:10;}
	.st8{display:inline;fill:none;stroke:#C0E4F2;stroke-width:400;stroke-miterlimit:10;}
	.st9{display:inline;fill:none;stroke:#DFF1F9;stroke-width:400;stroke-miterlimit:10;}
	.st10{display:inline;fill:none;stroke:#F5FBFE;stroke-width:400;stroke-miterlimit:10;}
	.st11{opacity:0.2;clip-path:url(#SVGID_00000019654878113589761000000000572998217129200257_);}
	.st12{fill:none;stroke:#EA580C;stroke-width:400;stroke-miterlimit:10;}
	.st13{fill:none;stroke:#EC6720;stroke-width:400;stroke-miterlimit:10;}
	.st14{fill:none;stroke:#EE7634;stroke-width:400;stroke-miterlimit:10;}
	.st15{fill:none;stroke:#F08548;stroke-width:400;stroke-miterlimit:10;}
	.st16{fill:none;stroke:#F2945C;stroke-width:400;stroke-miterlimit:10;}
	.st17{fill:none;stroke:#F4A271;stroke-width:400;stroke-miterlimit:10;}
	.st18{fill:none;stroke:#F7B185;stroke-width:400;stroke-miterlimit:10;}
	.st19{fill:none;stroke:#F9C099;stroke-width:400;stroke-miterlimit:10;}
	.st20{fill:none;stroke:#FBCFAD;stroke-width:400;stroke-miterlimit:10;}
	.st21{fill:none;stroke:#FDDEC1;stroke-width:400;stroke-miterlimit:10;}
	.st22{fill:none;stroke:#FFEDD5;stroke-width:400;stroke-miterlimit:10;}
</style>
<g>
	<defs>
		<rect id="SVGID_1_" y="0" width="3782" height="2381.1"/>
	</defs>
	<clipPath id="SVGID_00000054240587630274434410000014155539489377248944_">
		<use xlink:href="#SVGID_1_"  style="overflow:visible;"/>
	</clipPath>
	<g style="display:none;clip-path:url(#SVGID_00000054240587630274434410000014155539489377248944_);">
		<path class="st1" d="M709,2639.8l714.3-1449.2L709-258.7"/>
		<path class="st2" d="M309,2639.8l714.3-1449.2L309-258.7"/>
		<path class="st3" d="M-91,2639.8l714.3-1449.2L-91-258.7"/>
		<path class="st4" d="M-491,2639.8l714.3-1449.2L-491-258.7"/>
		<path class="st5" d="M1152.2,2639.8l714.3-1449.2L1152.2-258.6"/>
		<path class="st6" d="M1595.4,2639.8l714.3-1449.2L1595.4-258.6"/>
		<path class="st7" d="M2038.7,2639.8L2753,1190.5L2038.7-258.7"/>
		<path class="st8" d="M2481.9,2639.8l714.3-1449.2L2481.9-258.6"/>
		<path class="st9" d="M2925.1,2639.8l714.3-1449.2L2925.1-258.6"/>
		<path class="st10" d="M3368.2,2639.8l714.3-1449.2L3368.2-258.6"/>
	</g>
	<g style="opacity:0.2;clip-path:url(#SVGID_00000054240587630274434410000014155539489377248944_);">
		<path class="st12" d="M-714.3,2639.8L0,1190.6L-714.3-258.7"/>
		<polyline class="st13" points="-264.7,2639.8 449.6,1190.6 -264.7,-258.7 		"/>
		<polyline class="st14" points="185,2639.8 899.3,1190.6 185,-258.7 		"/>
		<polyline class="st15" points="634.6,2639.8 1348.9,1190.6 634.6,-258.7 		"/>
		<polyline class="st16" points="1084.2,2639.8 1798.5,1190.6 1084.2,-258.7 		"/>
		<polyline class="st17" points="1533.8,2639.8 2248.1,1190.6 1533.9,-258.7 		"/>
		<polyline class="st18" points="1983.5,2639.8 2697.8,1190.6 1983.5,-258.7 		"/>
		<polyline class="st19" points="2433.1,2639.8 3147.4,1190.6 2433.1,-258.7 		"/>
		<polyline class="st20" points="2882.7,2639.8 3597,1190.6 2882.7,-258.7 		"/>
		<polyline class="st21" points="3332.4,2639.8 4046.7,1190.6 3332.4,-258.7 		"/>
		<path class="st22" d="M3782,2639.8l714.3-1449.2L3782-258.7"/>
	</g>
</g>
</svg>
