<svg viewBox="0 0 2381.1 3782.02" xmlns="http://www.w3.org/2000/svg" xmlns:xlink="http://www.w3.org/1999/xlink"><clipPath id="a"><path d="m0 0h2381.1v3782.02h-2381.1z"/></clipPath><g clip-path="url(#a)" fill="none" stroke-miterlimit="10" stroke-width="400"><path d="m-258.68-490.96 1449.23 714.34 1449.23-714.34" stroke="#8e1733"/><path d="m-258.68-90.96 1449.23 714.34 1449.23-714.34" stroke="#a31933"/><path d="m-258.68 309.04 1449.23 714.34 1449.23-714.34" stroke="#bf1735"/><path d="m-258.68 709.04 1449.23 714.34 1449.23-714.34" stroke="#dc103e"/><path d="m-258.68 1152.25 1449.23 714.33 1449.23-714.33" stroke="#e73658"/><path d="m-258.68 1595.45 1449.23 714.33 1449.23-714.33" stroke="#ed6d84"/><path d="m-258.68 2038.65 1449.23 714.34 1449.23-714.34" stroke="#f4a8b5"/><path d="m-258.68 2481.85 1449.23 714.34 1449.23-714.34" stroke="#fad5dd"/><path d="m-258.68 2925.05 1449.23 714.34 1449.23-714.34" stroke="#fce9ee"/><path d="m-258.68 3368.26 1449.23 714.33 1449.23-714.33" stroke="#fef6f8"/></g></svg>