<?xml version="1.0" encoding="UTF-8"?>
<svg id="Layer_2" data-name="Layer 2" xmlns="http://www.w3.org/2000/svg" viewBox="0 0 1705.07 531.21">
  <defs>
    <style>
      .cls-1 {
        fill: #f39f03;
      }

      .cls-2 {
        fill: #eeebec;
      }

      .cls-3 {
        fill: #fdcf00;
      }
    </style>
  </defs>
  <g id="Layer_2-2" data-name="Layer 2">
    <g>
      <path class="cls-3" d="M405.5,37.76v123.87c0,36-4.16,78.49-53.78,127.29-26.46,26.02-54.45,42.62-73.28,51.96-5.65,2.8-9.22,8.55-9.22,14.86v90.88c0,9.15,7.42,16.58,16.59,16.58h43.86c6.7,0,12.15,5.45,12.15,12.15v10.29c0,6.7-5.45,12.15-12.15,12.15H174.21c-6.7,0-12.14-5.45-12.14-12.15v-10.3c0-6.7,5.44-12.14,12.14-12.14h43.87c9.15,0,16.58-7.42,16.58-16.59v-92.24c0-6.24-3.49-11.95-9.06-14.78-18.13-9.23-45.12-25.52-70.7-50.67-49.61-48.8-53.77-91.28-53.77-127.29V37.76c14.26-.5,27.06-.96,38.65-1.38,54.53-1.96,81.89-2.95,110.32-2.97h.85c30.03,0,62.13,1.12,125.5,3.33,9.02,.32,18.67,.65,29.05,1.02Z"/>
      <path d="M506.32,85.92v81.85c0,29.67-6.89,64.95-57.96,101.54-19.01,13.61-40.8,25.19-64.8,34.45-2.74,2.92-5.59,5.86-8.59,8.82-25.52,25.08-52.25,42.31-72.59,53.26v64.21h27.28c24.98,0,45.31,20.33,45.31,45.31v10.29c0,24.98-20.33,45.31-45.31,45.31H174.18c-24.98,0-45.31-20.33-45.31-45.31v-10.29c0-24.98,20.32-45.31,45.31-45.31h27.27v-65.69c-19.57-10.78-45.27-27.61-69.85-51.78-3.01-2.96-5.87-5.89-8.59-8.82-23.99-9.26-45.79-20.83-64.8-34.45C7.13,232.72,.25,197.45,.25,167.77V85.94c0-12.83,10.25-23.15,23.33-23.48,15.12-.39,28.42-.74,40.27-1.05l4.08-.11v-28.92c0-14.93,10.66-27.01,24.26-27.49,17.41-.6,32.72-1.16,46.38-1.65C193.48,1.26,221.05,.27,250.07,.25h.88c30.58,0,62.88,1.13,126.62,3.35,11.23,.39,23.44,.82,36.83,1.28,13.59,.46,24.24,12.53,24.24,27.47v28.97c3.99,.11,8.11,.21,12.42,.32l31.95,.8h.01c13.07,.33,23.31,10.64,23.3,23.48Zm-33.15,81.83h0V95.37l-22.94-.58c-4-.11-7.85-.2-11.56-.3v67.14c-.01,26.9-2.67,55.24-16.16,85.19,2.19-1.45,4.38-2.94,6.56-4.5,40.7-29.15,44.11-52.82,44.11-74.57Zm-67.67-6.12V37.76c-10.38-.37-20.03-.7-29.05-1.02-63.37-2.21-95.47-3.33-125.5-3.33h-.85c-28.43,.02-55.79,1.01-110.32,2.97-11.59,.42-24.39,.88-38.65,1.38v123.87c0,36.01,4.16,78.49,53.77,127.29,25.58,25.15,52.57,41.44,70.7,50.67,5.57,2.83,9.07,8.54,9.07,14.78v92.24c0,9.17-7.44,16.59-16.59,16.59h-43.87c-6.7,0-12.14,5.44-12.14,12.14v10.3c0,6.7,5.44,12.14,12.14,12.14h155.46c6.7,0,12.15-5.44,12.15-12.14v-10.29c0-6.7-5.45-12.15-12.15-12.15h-43.86c-9.17,0-16.59-7.43-16.59-16.58v-90.88c0-6.31,3.57-12.06,9.22-14.86,18.83-9.34,46.82-25.94,73.28-51.96,49.62-48.8,53.78-91.29,53.78-127.29ZM77.55,242.32c2.18,1.56,4.36,3.05,6.55,4.49-13.5-29.94-16.16-58.29-16.16-85.19V94.47l-3.2,.09c-9.44,.25-19.82,.52-31.3,.81v72.37c0,21.75,3.4,45.43,44.11,74.58Z"/>
    </g>
    <path d="M232.08,265.6v-127.82c-12.02,8.1-18.65,10.06-25.51,11.29v-31.16c15.21-1.47,24.04-22.08,25.51-25.51h43.91v173.2h-43.91Z"/>
    <g>
      <path d="M1117.23,85.92v81.85c0,29.67-6.89,64.95-57.96,101.54-19.01,13.61-40.8,25.19-64.8,34.45-2.74,2.92-5.59,5.86-8.59,8.82-25.52,25.08-52.25,42.31-72.59,53.26v64.21h27.28c24.98,0,45.31,20.33,45.31,45.31v10.29c0,24.98-20.33,45.31-45.31,45.31h-155.48c-24.98,0-45.31-20.33-45.31-45.31v-10.29c0-24.98,20.32-45.31,45.31-45.31h27.27v-65.69c-19.57-10.78-45.27-27.61-69.85-51.78-3.01-2.96-5.87-5.89-8.59-8.82-23.99-9.26-45.79-20.83-64.8-34.45-51.08-36.59-57.96-71.86-57.96-101.54V85.94c0-12.83,10.25-23.15,23.33-23.48,15.12-.39,28.42-.74,40.27-1.05l4.08-.11v-28.92c0-14.93,10.66-27.01,24.26-27.49,17.41-.6,32.72-1.16,46.38-1.65,54.91-1.98,82.48-2.97,111.5-2.99h.88c30.58,0,62.88,1.13,126.62,3.35,11.23,.39,23.44,.82,36.83,1.28,13.59,.46,24.24,12.53,24.24,27.47v28.97c3.99,.11,8.11,.21,12.42,.32l31.95,.8h.01c13.07,.33,23.31,10.64,23.3,23.48Zm-33.15,81.83h0V95.37l-22.94-.58c-4-.11-7.85-.2-11.56-.3v67.14c-.01,26.9-2.67,55.24-16.16,85.19,2.19-1.45,4.38-2.94,6.56-4.5,40.7-29.15,44.11-52.82,44.11-74.57Zm-67.67-6.12V37.76c-10.38-.37-20.03-.7-29.05-1.02-63.37-2.21-95.47-3.33-125.5-3.33h-.85c-28.43,.02-55.79,1.01-110.32,2.97-11.59,.42-24.39,.88-38.65,1.38v123.87c0,36.01,4.16,78.49,53.77,127.29,25.58,25.15,52.57,41.44,70.7,50.67,5.57,2.83,9.07,8.54,9.07,14.78v92.24c0,9.17-7.44,16.59-16.59,16.59h-43.87c-6.7,0-12.14,5.44-12.14,12.14v10.3c0,6.7,5.44,12.14,12.14,12.14h155.46c6.7,0,12.15-5.44,12.15-12.14v-10.29c0-6.7-5.45-12.15-12.15-12.15h-43.86c-9.17,0-16.59-7.43-16.59-16.58v-90.88c0-6.31,3.57-12.06,9.22-14.86,18.83-9.34,46.82-25.94,73.28-51.96,49.62-48.8,53.78-91.29,53.78-127.29Zm-327.95,80.69c2.18,1.56,4.36,3.05,6.55,4.49-13.5-29.94-16.16-58.29-16.16-85.19V94.47l-3.2,.09c-9.44,.25-19.82,.52-31.3,.81v72.37c0,21.75,3.4,45.43,44.11,74.58Z"/>
      <path class="cls-2" d="M1016.41,37.76v123.87c0,36-4.16,78.49-53.78,127.29-26.46,26.02-54.45,42.62-73.28,51.96-5.65,2.8-9.22,8.55-9.22,14.86v90.88c0,9.15,7.42,16.58,16.59,16.58h43.86c6.7,0,12.15,5.45,12.15,12.15v10.29c0,6.7-5.45,12.15-12.15,12.15h-155.46c-6.7,0-12.14-5.45-12.14-12.15v-10.3c0-6.7,5.44-12.14,12.14-12.14h43.87c9.15,0,16.58-7.42,16.58-16.59v-92.24c0-6.24-3.49-11.95-9.06-14.78-18.13-9.23-45.12-25.52-70.7-50.67-49.61-48.8-53.77-91.28-53.77-127.29V37.76c14.26-.5,27.06-.96,38.65-1.38,54.53-1.96,81.89-2.95,110.32-2.97h.85c30.03,0,62.13,1.12,125.5,3.33,9.02,.32,18.67,.65,29.05,1.02Z"/>
    </g>
    <path d="M804.24,265.6v-16.19c0-12.51,.74-21.34,7.36-32.38,6.87-11.53,15.21-19.14,25.02-27.97l17.42-15.95c16.68-15.21,17.91-16.68,17.91-28.21v-13.98c0-9.32-2.94-13-12.02-13-9.57,0-12.27,4.17-12.27,12.76v27.72h-43.42v-26.25c0-28.21,20.36-42.93,55.2-42.93,28.21,0,57.16,7.36,57.16,45.14v8.34c0,13.98-.98,25.02-17.91,40.72l-24.29,22.57c-6.87,6.38-18.89,16.19-18.89,26.01h62.07v33.61h-113.34Z"/>
    <g>
      <path d="M1704.82,85.92v81.85c0,29.67-6.89,64.95-57.96,101.54-19.01,13.61-40.8,25.19-64.8,34.45-2.74,2.92-5.59,5.86-8.59,8.82-25.52,25.08-52.25,42.31-72.59,53.26v64.21h27.28c24.98,0,45.31,20.33,45.31,45.31v10.29c0,24.98-20.33,45.31-45.31,45.31h-155.48c-24.98,0-45.31-20.33-45.31-45.31v-10.29c0-24.98,20.32-45.31,45.31-45.31h27.27v-65.69c-19.57-10.78-45.27-27.61-69.85-51.78-3.01-2.96-5.87-5.89-8.59-8.82-23.99-9.26-45.79-20.83-64.8-34.45-51.08-36.59-57.96-71.86-57.96-101.54V85.94c0-12.83,10.25-23.15,23.33-23.48,15.12-.39,28.42-.74,40.27-1.05l4.08-.11v-28.92c0-14.93,10.66-27.01,24.26-27.49,17.41-.6,32.72-1.16,46.38-1.65,54.91-1.98,82.48-2.97,111.5-2.99h.88c30.58,0,62.88,1.13,126.62,3.35,11.23,.39,23.44,.82,36.83,1.28,13.59,.46,24.24,12.53,24.24,27.47v28.97c3.99,.11,8.11,.21,12.42,.32l31.95,.8h.01c13.07,.33,23.31,10.64,23.3,23.48Zm-33.15,81.83h-.01V95.37l-22.94-.58c-4-.11-7.85-.2-11.56-.3v67.14c0,26.9-2.67,55.24-16.16,85.19,2.19-1.45,4.38-2.94,6.56-4.5,40.7-29.15,44.11-52.82,44.11-74.57Zm-67.67-6.12V37.76c-10.38-.37-20.03-.7-29.05-1.02-63.37-2.21-95.47-3.33-125.5-3.33h-.85c-28.43,.02-55.79,1.01-110.32,2.97-11.59,.42-24.39,.88-38.65,1.38v123.87c0,36.01,4.16,78.49,53.77,127.29,25.58,25.15,52.57,41.44,70.7,50.67,5.57,2.83,9.07,8.54,9.07,14.78v92.24c-.01,9.17-7.44,16.59-16.59,16.59h-43.87c-6.7,0-12.14,5.44-12.14,12.14v10.3c0,6.7,5.44,12.14,12.14,12.14h155.46c6.7,0,12.15-5.44,12.15-12.14v-10.29c0-6.7-5.45-12.15-12.15-12.15h-43.86c-9.17,0-16.59-7.43-16.59-16.58v-90.88c0-6.31,3.57-12.06,9.22-14.86,18.83-9.34,46.82-25.94,73.28-51.96,49.62-48.8,53.78-91.29,53.78-127.29Zm-327.95,80.69c2.18,1.56,4.36,3.05,6.55,4.49-13.5-29.94-16.16-58.29-16.16-85.19V94.47l-3.2,.09c-9.44,.25-19.82,.52-31.3,.81v72.37c0,21.75,3.4,45.43,44.11,74.58Z"/>
      <path class="cls-1" d="M1604,37.76v123.87c0,36-4.16,78.49-53.78,127.29-26.46,26.02-54.45,42.62-73.28,51.96-5.65,2.8-9.22,8.55-9.22,14.86v90.88c0,9.15,7.42,16.58,16.59,16.58h43.86c6.7,0,12.15,5.45,12.15,12.15v10.29c0,6.7-5.45,12.15-12.15,12.15h-155.46c-6.7,0-12.14-5.45-12.14-12.15v-10.3c0-6.7,5.44-12.14,12.14-12.14h43.87c9.15,0,16.58-7.42,16.58-16.59v-92.24c.01-6.24-3.49-11.95-9.06-14.78-18.13-9.23-45.12-25.52-70.7-50.67-49.61-48.8-53.77-91.28-53.77-127.29V37.76c14.26-.5,27.06-.96,38.65-1.38,54.53-1.96,81.89-2.95,110.32-2.97h.85c30.03,0,62.13,1.12,125.5,3.33,9.02,.32,18.67,.65,29.05,1.02Z"/>
    </g>
    <path d="M1435,226.35c0,5.15,.25,12.76,12.02,12.76,11.04,0,12.27-6.87,12.27-13.49v-21.34c0-9.32-3.43-11.53-12.27-11.53h-17.91v-33.36h18.89c8.34,0,11.29-2.21,11.29-10.79v-17.17c0-6.87-1.96-12.02-12.27-12.02-11.53,0-12.02,7.11-12.02,11.78v13.25h-42.44v-12.76c0-29.44,20.12-41.95,54.22-41.95,28.7,0,56.92,10.06,56.92,39.99v9.81c0,21.83-8.1,27.48-19.87,35.57,16.93,5.4,19.87,14.97,19.87,28.46v24.29c0,24.53-19.63,40.48-56.67,40.48-45.88,0-56.18-19.87-56.18-40.23v-19.63h44.16v17.91Z"/>
  </g>
</svg>