<svg width="24" height="24" viewBox="0 0 24 24" fill="none" xmlns="http://www.w3.org/2000/svg">
<g clip-path="url(#clip0_6994_41635)">
<mask id="mask0_6994_41635" style="mask-type:alpha" maskUnits="userSpaceOnUse" x="-1" y="-1" width="25" height="24">
<rect width="19.0046" height="15.7298" transform="matrix(0.846472 -0.532433 -0.532433 -0.846472 7.52344 22.4546)" fill="#171717"/>
</mask>
<g mask="url(#mask0_6994_41635)">
<circle cx="12" cy="12" r="8.5" fill="#0F766E" stroke="white"/>
<path d="M7.5876 14.9734V8.59048C7.58707 8.52403 7.59993 8.45814 7.62539 8.39676C7.65085 8.33537 7.68839 8.27974 7.7358 8.23317C7.78047 8.18605 7.83433 8.1486 7.89404 8.12311C7.95375 8.09762 8.01806 8.08464 8.08298 8.08497C8.21635 8.08604 8.34389 8.13977 8.43782 8.23446C8.53175 8.32914 8.58444 8.45711 8.58443 8.59048V11.6135L9.54675 10.6227C9.62973 10.5312 9.73048 10.4575 9.84288 10.4062C9.95527 10.3549 10.0769 10.327 10.2005 10.3243C10.3243 10.3254 10.4465 10.3526 10.5591 10.404C10.6717 10.4554 10.7722 10.5299 10.8542 10.6227L12.2124 12.0439C12.2388 12.0763 12.2652 12.0743 12.2936 12.0337L13.6315 10.6857L13.0854 10.1517C13.033 10.1091 12.996 10.0505 12.9798 9.98497C12.9637 9.9194 12.9694 9.85036 12.9961 9.78831C13.0233 9.72096 13.0663 9.66112 13.1214 9.61379C13.1765 9.56646 13.2421 9.53301 13.3128 9.51626L15.6536 8.9072C15.7177 8.88635 15.7864 8.88366 15.852 8.89943C15.9175 8.91519 15.9775 8.9488 16.0251 8.99652C16.0738 9.04053 16.1085 9.09778 16.1251 9.16126C16.1417 9.22473 16.1394 9.29166 16.1185 9.35384L15.5094 11.7028C15.494 11.7755 15.4609 11.8434 15.4131 11.9003C15.3653 11.9573 15.3043 12.0017 15.2354 12.0296C15.1737 12.0565 15.1049 12.0623 15.0396 12.0461C14.9743 12.03 14.9161 11.9928 14.874 11.9403L14.338 11.3861L12.9169 12.8539C12.8335 12.9483 12.7315 13.0242 12.6172 13.077C12.5029 13.1298 12.3789 13.1582 12.253 13.1605C12.1274 13.1567 12.0039 13.1275 11.8898 13.0749C11.7757 13.0222 11.6735 12.947 11.5891 12.8539L10.2512 11.4652C10.2248 11.4246 10.1944 11.4246 10.1619 11.4652L8.5946 13.0508V14.608C8.5946 14.6547 8.61488 14.677 8.65549 14.677H15.8932C16.0237 14.6796 16.1482 14.7326 16.2406 14.825C16.3329 14.9173 16.3859 15.0418 16.3885 15.1724C16.3895 15.2389 16.3769 15.3049 16.3514 15.3664C16.3259 15.4278 16.2881 15.4834 16.2403 15.5297C16.1956 15.5768 16.1418 15.6143 16.0821 15.6398C16.0224 15.6653 15.9581 15.6782 15.8932 15.6779H8.26974C8.17866 15.6819 8.08773 15.6672 8.00254 15.6348C7.91734 15.6023 7.8397 15.5527 7.77439 15.4891C7.70895 15.421 7.65853 15.3399 7.62636 15.2511C7.59419 15.1622 7.58098 15.0677 7.5876 14.9734Z" fill="#99F6E4"/>
<path d="M20.7506 14.2097C20.4271 17.1792 10.1743 20.8615 10.1743 20.8615C10.8625 20.2534 11.1386 19.836 12.0602 17.9955C13.2757 15.5682 14.5825 14.8364 15.6122 14.0991C16.8199 13.2341 20.9424 12.449 20.7506 14.2097Z" fill="url(#paint0_linear_6994_41635)"/>
</g>
</g>
<defs>
<linearGradient id="paint0_linear_6994_41635" x1="13.8568" y1="14.982" x2="15.4629" y2="17.5357" gradientUnits="userSpaceOnUse">
<stop stop-color="#FFFEFE"/>
<stop offset="1" stop-color="#ABABAB"/>
</linearGradient>
<clipPath id="clip0_6994_41635">
<rect width="24" height="24" fill="white"/>
</clipPath>
</defs>
</svg>
