<svg width="24" height="24" viewBox="0 0 24 24" fill="none" xmlns="http://www.w3.org/2000/svg">
<mask id="path-1-outside-1_6957_45351" maskUnits="userSpaceOnUse" x="-1.82798" y="-0.0173164" width="25.4558" height="25.4558" fill="black">
<rect fill="white" x="-1.82798" y="-0.0173164" width="25.4558" height="25.4558"/>
<path fill-rule="evenodd" clip-rule="evenodd" d="M8.32835 15.6239C8.57568 15.8712 8.57568 16.2722 8.32835 16.5195L5.06037 19.7875C4.81304 20.0348 4.41203 20.0348 4.1647 19.7875C3.91737 19.5402 3.91737 19.1392 4.1647 18.8918L7.43268 15.6239C7.68001 15.3765 8.08102 15.3765 8.32835 15.6239Z"/>
<path fill-rule="evenodd" clip-rule="evenodd" d="M15.7325 14.8501C15.605 15.1758 15.2376 15.3365 14.9119 15.2091L14.0101 14.8562L6.94613 12.092L6.5604 11.9411C6.23467 11.8136 6.07394 11.4462 6.2014 11.1205C6.32886 10.7948 6.69624 10.634 7.02198 10.7615L7.92377 11.1144L14.9877 13.8785L15.3735 14.0295C15.6992 14.1569 15.8599 14.5243 15.7325 14.8501Z"/>
<path fill-rule="evenodd" clip-rule="evenodd" d="M18.6374 11.9452C18.5099 12.2709 18.1425 12.4316 17.8168 12.3042L16.915 11.9513L9.851 9.18714L9.46527 9.0362C9.13954 8.90875 8.97881 8.54136 9.10627 8.21563C9.23373 7.8899 9.60111 7.72917 9.92685 7.85663L10.8286 8.20951L17.8687 10.9643L18.2783 11.1246C18.6041 11.2521 18.7648 11.6195 18.6374 11.9452Z"/>
<path fill-rule="evenodd" clip-rule="evenodd" d="M15.1427 4.06809C16.4002 4.06809 17.6062 4.56763 18.4954 5.45682C19.3846 6.34602 19.8841 7.55202 19.8841 8.80953C19.8841 10.067 19.3846 11.273 18.4954 12.1622L11.2332 19.4244C10.9859 19.6717 10.5849 19.6717 10.3376 19.4244L4.52781 13.6147C4.28048 13.3673 4.28048 12.9663 4.52781 12.719L11.79 5.45682C12.6792 4.56763 13.8852 4.06809 15.1427 4.06809ZM17.5997 6.35249C16.9481 5.70084 16.0643 5.33475 15.1427 5.33475C14.2211 5.33475 13.3373 5.70084 12.6857 6.35249L10.8286 8.20951L9.851 9.18714L7.92377 11.1144L6.94613 12.092L5.87131 13.1668L10.7854 18.0809L14.0101 14.8562L14.9877 13.8785L16.915 11.9513L17.5997 11.2666C17.6957 11.1706 17.7854 11.0697 17.8687 10.9643C18.3512 10.3539 18.6175 9.59543 18.6175 8.80953C18.6175 7.88796 18.2514 7.00414 17.5997 6.35249Z"/>
<path d="M10.8286 8.20951L17.8687 10.9643C18.3512 10.3539 18.6175 9.59543 18.6175 8.80953C18.6175 7.88796 18.2514 7.00414 17.5997 6.35249C16.9481 5.70084 16.0643 5.33475 15.1427 5.33475C14.2211 5.33475 13.3373 5.70084 12.6857 6.35249L10.8286 8.20951Z"/>
<path d="M7.92377 11.1144L14.9877 13.8785L16.915 11.9513L9.851 9.18714L7.92377 11.1144Z"/>
<path d="M14.0101 14.8562L6.94613 12.092L5.87131 13.1668L8.32835 15.6239L10.7854 18.0809L14.0101 14.8562Z"/>
</mask>
<path fill-rule="evenodd" clip-rule="evenodd" d="M8.32835 15.6239C8.57568 15.8712 8.57568 16.2722 8.32835 16.5195L5.06037 19.7875C4.81304 20.0348 4.41203 20.0348 4.1647 19.7875C3.91737 19.5402 3.91737 19.1392 4.1647 18.8918L7.43268 15.6239C7.68001 15.3765 8.08102 15.3765 8.32835 15.6239Z" fill="#D97706"/>
<path fill-rule="evenodd" clip-rule="evenodd" d="M15.7325 14.8501C15.605 15.1758 15.2376 15.3365 14.9119 15.2091L14.0101 14.8562L6.94613 12.092L6.5604 11.9411C6.23467 11.8136 6.07394 11.4462 6.2014 11.1205C6.32886 10.7948 6.69624 10.634 7.02198 10.7615L7.92377 11.1144L14.9877 13.8785L15.3735 14.0295C15.6992 14.1569 15.8599 14.5243 15.7325 14.8501Z" fill="#DC2626"/>
<path fill-rule="evenodd" clip-rule="evenodd" d="M18.6374 11.9452C18.5099 12.2709 18.1425 12.4316 17.8168 12.3042L16.915 11.9513L9.851 9.18714L9.46527 9.0362C9.13954 8.90875 8.97881 8.54136 9.10627 8.21563C9.23373 7.8899 9.60111 7.72917 9.92685 7.85663L10.8286 8.20951L17.8687 10.9643L18.2783 11.1246C18.6041 11.2521 18.7648 11.6195 18.6374 11.9452Z" fill="#FACC15"/>
<path fill-rule="evenodd" clip-rule="evenodd" d="M15.1427 4.06809C16.4002 4.06809 17.6062 4.56763 18.4954 5.45682C19.3846 6.34602 19.8841 7.55202 19.8841 8.80953C19.8841 10.067 19.3846 11.273 18.4954 12.1622L11.2332 19.4244C10.9859 19.6717 10.5849 19.6717 10.3376 19.4244L4.52781 13.6147C4.28048 13.3673 4.28048 12.9663 4.52781 12.719L11.79 5.45682C12.6792 4.56763 13.8852 4.06809 15.1427 4.06809ZM17.5997 6.35249C16.9481 5.70084 16.0643 5.33475 15.1427 5.33475C14.2211 5.33475 13.3373 5.70084 12.6857 6.35249L10.8286 8.20951L9.851 9.18714L7.92377 11.1144L6.94613 12.092L5.87131 13.1668L10.7854 18.0809L14.0101 14.8562L14.9877 13.8785L16.915 11.9513L17.5997 11.2666C17.6957 11.1706 17.7854 11.0697 17.8687 10.9643C18.3512 10.3539 18.6175 9.59543 18.6175 8.80953C18.6175 7.88796 18.2514 7.00414 17.5997 6.35249Z" fill="#FACC15"/>
<path d="M10.8286 8.20951L17.8687 10.9643C18.3512 10.3539 18.6175 9.59543 18.6175 8.80953C18.6175 7.88796 18.2514 7.00414 17.5997 6.35249C16.9481 5.70084 16.0643 5.33475 15.1427 5.33475C14.2211 5.33475 13.3373 5.70084 12.6857 6.35249L10.8286 8.20951Z" fill="#22D3EE"/>
<path d="M7.92377 11.1144L14.9877 13.8785L16.915 11.9513L9.851 9.18714L7.92377 11.1144Z" fill="#FACC15"/>
<path d="M14.0101 14.8562L6.94613 12.092L5.87131 13.1668L8.32835 15.6239L10.7854 18.0809L14.0101 14.8562Z" fill="#DC2626"/>
<path d="M15.1427 5.33475L15.1427 5.83475L15.1427 5.83475L15.1427 5.33475ZM5.51776 12.8133C5.3225 13.0085 5.3225 13.3251 5.51776 13.5204C5.71302 13.7156 6.0296 13.7156 6.22487 13.5204L5.51776 12.8133ZM10.4318 17.7274C10.2366 17.9226 10.2366 18.2392 10.4318 18.4345C10.6271 18.6297 10.9437 18.6297 11.1389 18.4345L10.4318 17.7274ZM18.6175 8.80953L18.1175 8.80953L18.1175 8.80953L18.6175 8.80953ZM10.8286 8.20951L10.4751 7.85595C10.3558 7.97527 10.3047 8.14672 10.3392 8.31188C10.3738 8.47704 10.4893 8.61364 10.6464 8.67513L10.8286 8.20951ZM17.8687 10.9643L17.6865 11.4299C17.8913 11.5101 18.1245 11.4469 18.2609 11.2744L17.8687 10.9643ZM7.92377 11.1144L7.57022 10.7608C7.4509 10.8801 7.39981 11.0516 7.43436 11.2168C7.46891 11.3819 7.58443 11.5185 7.74157 11.58L7.92377 11.1144ZM14.9877 13.8785L14.8055 14.3442C14.9905 14.4166 15.2008 14.3726 15.3413 14.2321L14.9877 13.8785ZM16.915 11.9513L17.2685 12.3049C17.3879 12.1855 17.4389 12.0141 17.4044 11.8489C17.3698 11.6838 17.2543 11.5472 17.0972 11.4857L16.915 11.9513ZM9.851 9.18714L10.0332 8.72152C9.84821 8.64913 9.63792 8.69312 9.49745 8.83359L9.851 9.18714ZM14.0101 14.8562L14.3637 15.2097C14.483 15.0904 14.5341 14.919 14.4995 14.7538C14.465 14.5886 14.3494 14.452 14.1923 14.3906L14.0101 14.8562ZM6.94613 12.092L7.12833 11.6264C6.94334 11.554 6.73305 11.598 6.59258 11.7385L6.94613 12.092ZM15.1427 5.83475C15.9317 5.83475 16.6883 6.14817 17.2462 6.70604L17.9533 5.99894C17.2079 5.25352 16.1969 4.83475 15.1427 4.83475L15.1427 5.83475ZM13.0392 6.70604C13.5971 6.14817 14.3537 5.83475 15.1427 5.83475L15.1427 4.83475C14.0885 4.83475 13.0775 5.25352 12.3321 5.99894L13.0392 6.70604ZM17.2462 6.70604C17.8041 7.26392 18.1175 8.02057 18.1175 8.80953L19.1175 8.80953C19.1175 7.75535 18.6987 6.74435 17.9533 5.99894L17.2462 6.70604ZM10.6464 8.67513L17.6865 11.4299L18.0509 10.4987L11.0108 7.74389L10.6464 8.67513ZM18.2609 11.2744C18.8129 10.5761 19.1175 9.70854 19.1175 8.80953L18.1175 8.80953C18.1175 9.48233 17.8895 10.1317 17.4764 10.6542L18.2609 11.2744ZM12.3321 5.99894L10.4751 7.85595L11.1822 8.56306L13.0392 6.70604L12.3321 5.99894ZM7.74157 11.58L14.8055 14.3442L15.1699 13.4129L8.10597 10.6488L7.74157 11.58ZM15.3413 14.2321L17.2685 12.3049L16.5614 11.5978L14.6342 13.525L15.3413 14.2321ZM17.0972 11.4857L10.0332 8.72152L9.6688 9.65276L16.7328 12.4169L17.0972 11.4857ZM9.49745 8.83359L7.57022 10.7608L8.27732 11.4679L10.2046 9.5407L9.49745 8.83359ZM14.1923 14.3906L7.12833 11.6264L6.76393 12.5576L13.8279 15.3218L14.1923 14.3906ZM6.59258 11.7385L5.51776 12.8133L6.22487 13.5204L7.29969 12.4456L6.59258 11.7385ZM11.1389 18.4345L14.3637 15.2097L13.6566 14.5026L10.4318 17.7274L11.1389 18.4345ZM14.9119 15.2091L15.2763 14.2778L15.2763 14.2778L14.9119 15.2091ZM15.7325 14.8501L16.6637 15.2145L16.6637 15.2145L15.7325 14.8501ZM6.5604 11.9411L6.196 12.8723L6.196 12.8723L6.5604 11.9411ZM6.2014 11.1205L7.13264 11.4849L7.13264 11.4849L6.2014 11.1205ZM7.02198 10.7615L7.38638 9.83026L7.38637 9.83026L7.02198 10.7615ZM15.3735 14.0295L15.7379 13.0982L15.7379 13.0982L15.3735 14.0295ZM17.8168 12.3042L18.1812 11.3729L18.1812 11.3729L17.8168 12.3042ZM18.6374 11.9452L19.5686 12.3096L19.5686 12.3096L18.6374 11.9452ZM9.46527 9.0362L9.10087 9.96745L9.10087 9.96745L9.46527 9.0362ZM9.10627 8.21563L10.0375 8.58003L10.0375 8.58003L9.10627 8.21563ZM9.92685 7.85663L10.2912 6.92539L10.2912 6.92539L9.92685 7.85663ZM18.2783 11.1246L18.6427 10.1934L18.2783 11.1246ZM15.1427 4.06809L15.1427 3.06809L15.1427 3.06809L15.1427 4.06809ZM19.8841 8.80953L20.8841 8.80953L20.8841 8.80953L19.8841 8.80953ZM6.57842 12.4597C6.1879 12.0692 5.55473 12.0692 5.16421 12.4597C4.77368 12.8503 4.77368 13.4834 5.16421 13.8739L6.57842 12.4597ZM10.0783 18.788C10.4688 19.1785 11.102 19.1785 11.4925 18.788C11.883 18.3975 11.883 17.7643 11.4925 17.3738L10.0783 18.788ZM10.8286 8.20951L11.5357 8.91661C11.7744 8.67798 11.8766 8.33509 11.8075 8.00476C11.7384 7.67443 11.5073 7.40124 11.193 7.27826L10.8286 8.20951ZM17.8687 10.9643L18.2331 10.0331C17.8234 9.87275 17.357 9.99903 17.0842 10.3442L17.8687 10.9643ZM7.92377 11.1144L8.63088 11.8215C8.86951 11.5829 8.97168 11.24 8.90258 10.9096C8.83349 10.5793 8.60244 10.3061 8.28817 10.1831L7.92377 11.1144ZM14.9877 13.8785L15.3521 12.9473C14.9822 12.8025 14.5616 12.8905 14.2806 13.1714L14.9877 13.8785ZM16.915 11.9513L16.2079 11.2442C15.9692 11.4828 15.8671 11.8257 15.9362 12.1561C16.0053 12.4864 16.2363 12.7596 16.5506 12.8826L16.915 11.9513ZM9.851 9.18714L9.4866 10.1184C9.85658 10.2632 10.2772 10.1752 10.5581 9.89425L9.851 9.18714ZM14.0101 14.8562L13.303 14.1491C13.0644 14.3877 12.9622 14.7306 13.0313 15.0609C13.1004 15.3913 13.3314 15.6644 13.6457 15.7874L14.0101 14.8562ZM6.94613 12.092L6.58173 13.0233C6.95171 13.168 7.37231 13.0801 7.65324 12.7991L6.94613 12.092ZM9.03546 17.2266C9.67331 16.5888 9.67331 15.5546 9.03546 14.9168L7.62124 16.331C7.47805 16.1878 7.47805 15.9556 7.62124 15.8124L9.03546 17.2266ZM5.76748 20.4946L9.03546 17.2266L7.62124 15.8124L4.35326 19.0804L5.76748 20.4946ZM3.4576 20.4946C4.09545 21.1325 5.12962 21.1325 5.76748 20.4946L4.35326 19.0804C4.49646 18.9372 4.72862 18.9372 4.87181 19.0804L3.4576 20.4946ZM3.4576 18.1847C2.81974 18.8226 2.81974 19.8568 3.4576 20.4946L4.87181 19.0804C5.015 19.2236 5.015 19.4558 4.87181 19.599L3.4576 18.1847ZM6.72557 14.9168L3.4576 18.1847L4.87181 19.599L8.13979 16.331L6.72557 14.9168ZM9.03546 14.9168C8.3976 14.2789 7.36343 14.2789 6.72557 14.9168L8.13979 16.331C7.9966 16.4742 7.76444 16.4742 7.62124 16.331L9.03546 14.9168ZM14.5475 16.1403C15.3875 16.469 16.335 16.0545 16.6637 15.2145L14.8012 14.4857C14.875 14.2971 15.0877 14.204 15.2763 14.2778L14.5475 16.1403ZM5.27016 10.7561C4.94145 11.5961 5.35596 12.5436 6.196 12.8723L6.9248 11.0098C7.11338 11.0836 7.20644 11.2963 7.13264 11.4849L5.27016 10.7561ZM7.38637 9.83026C6.54633 9.50155 5.59887 9.91606 5.27016 10.7561L7.13264 11.4849C7.05885 11.6735 6.84616 11.7665 6.65758 11.6927L7.38637 9.83026ZM16.6637 15.2145C16.9924 14.3744 16.5779 13.427 15.7379 13.0982L15.0091 14.9607C14.8205 14.8869 14.7274 14.6742 14.8012 14.4857L16.6637 15.2145ZM17.4524 13.2354C18.2924 13.5641 19.2399 13.1496 19.5686 12.3096L17.7061 11.5808C17.7799 11.3922 17.9926 11.2992 18.1812 11.3729L17.4524 13.2354ZM8.17503 7.85123C7.84632 8.69127 8.26083 9.63874 9.10087 9.96745L9.82967 8.10496C10.0183 8.17875 10.1113 8.39145 10.0375 8.58003L8.17503 7.85123ZM10.2912 6.92539C9.4512 6.59668 8.50374 7.01119 8.17503 7.85123L10.0375 8.58003C9.96372 8.76861 9.75103 8.86167 9.56245 8.78787L10.2912 6.92539ZM19.5686 12.3096C19.8973 11.4695 19.4828 10.5221 18.6427 10.1934L17.914 12.0559C17.7254 11.9821 17.6323 11.7694 17.7061 11.5808L19.5686 12.3096ZM19.2025 4.74972C18.1258 3.67299 16.6654 3.06809 15.1427 3.06809L15.1427 5.06809C16.135 5.06809 17.0866 5.46227 17.7883 6.16393L19.2025 4.74972ZM20.8841 8.80953C20.8841 7.2868 20.2792 5.82644 19.2025 4.74972L17.7883 6.16393C18.4899 6.86559 18.8841 7.81724 18.8841 8.80953L20.8841 8.80953ZM19.2025 12.8693C20.2792 11.7926 20.8841 10.3323 20.8841 8.80953L18.8841 8.80953C18.8841 9.80182 18.4899 10.7535 17.7883 11.4551L19.2025 12.8693ZM11.9403 20.1315L19.2025 12.8693L17.7883 11.4551L10.5261 18.7173L11.9403 20.1315ZM9.63045 20.1315C10.2683 20.7694 11.3025 20.7694 11.9403 20.1315L10.5261 18.7173C10.6693 18.5741 10.9015 18.5741 11.0447 18.7173L9.63045 20.1315ZM3.8207 14.3218L9.63045 20.1315L11.0447 18.7173L5.23492 12.9076L3.8207 14.3218ZM3.8207 12.0119C3.18285 12.6497 3.18285 13.6839 3.8207 14.3218L5.23492 12.9076C5.37811 13.0508 5.37811 13.2829 5.23492 13.4261L3.8207 12.0119ZM11.0829 4.74972L3.8207 12.0119L5.23492 13.4261L12.4971 6.16393L11.0829 4.74972ZM15.1427 3.06809C13.62 3.06809 12.1596 3.67299 11.0829 4.74972L12.4971 6.16393C13.1987 5.46227 14.1504 5.06809 15.1427 5.06809L15.1427 3.06809ZM11.4925 17.3738L6.57842 12.4597L5.16421 13.8739L10.0783 18.788L11.4925 17.3738ZM17.0842 10.3442C17.0249 10.4192 16.961 10.4911 16.8926 10.5595L18.3068 11.9737C18.4303 11.8502 18.5459 11.7202 18.6532 11.5844L17.0842 10.3442ZM18.6427 10.1934L18.2331 10.0331L17.5043 11.8956L17.914 12.0559L18.6427 10.1934ZM11.193 7.27826L10.2912 6.92539L9.56245 8.78787L10.4642 9.14075L11.193 7.27826ZM9.10087 9.96745L9.4866 10.1184L10.2154 8.2559L9.82967 8.10496L9.10087 9.96745ZM16.5506 12.8826L17.4524 13.2354L18.1812 11.3729L17.2794 11.0201L16.5506 12.8826ZM16.8926 10.5595L16.2079 11.2442L17.6221 12.6584L18.3068 11.9737L16.8926 10.5595ZM10.5581 9.89425L11.5357 8.91661L10.1215 7.5024L9.1439 8.48004L10.5581 9.89425ZM15.7379 13.0982L15.3521 12.9473L14.6234 14.8098L15.0091 14.9607L15.7379 13.0982ZM8.28817 10.1831L7.38638 9.83026L6.65758 11.6927L7.55937 12.0456L8.28817 10.1831ZM5.16421 13.8739L7.62124 16.331L9.03546 14.9168L6.57842 12.4597L5.16421 13.8739ZM7.62124 16.331L10.0783 18.788L11.4925 17.3738L9.03546 14.9168L7.62124 16.331ZM14.2806 13.1714L13.303 14.1491L14.7172 15.5633L15.6949 14.5857L14.2806 13.1714ZM7.65324 12.7991L8.63088 11.8215L7.21666 10.4073L6.23903 11.3849L7.65324 12.7991ZM6.196 12.8723L6.58173 13.0233L7.31053 11.1608L6.9248 11.0098L6.196 12.8723ZM13.6457 15.7874L14.5475 16.1403L15.2763 14.2778L14.3745 13.9249L13.6457 15.7874Z" fill="white" mask="url(#path-1-outside-1_6957_45351)"/>
</svg>
