<svg width="24" height="24" viewBox="0 0 24 24" fill="none" xmlns="http://www.w3.org/2000/svg">
<mask id="mask0_6994_41582" style="mask-type:alpha" maskUnits="userSpaceOnUse" x="2" y="3" width="19" height="18">
<path d="M2 21L12.5556 21L21 13.2L21 3L2 3L2 21Z" fill="black"/>
</mask>
<g mask="url(#mask0_6994_41582)">
<path d="M2.50223 7.64675V13.2732C2.47903 14.0349 2.6372 14.7911 2.96379 15.4803L2.96367 15.4804L2.96886 15.4907C3.28341 16.1167 3.79224 16.6247 4.41935 16.9398L4.41928 16.94L4.43057 16.9453C5.05902 17.2417 5.74311 17.4003 6.43658 17.4116V19.1183C6.42278 19.4615 6.5305 19.7985 6.74067 20.0704L6.7514 20.0843L6.76308 20.0974C6.88362 20.2326 7.03319 20.3388 7.20044 20.4081C7.36273 20.4753 7.53768 20.5063 7.71298 20.4989C7.97148 20.498 8.22442 20.4218 8.44039 20.2792L8.44041 20.2792L8.44485 20.2762C8.65089 20.1369 8.84542 19.9814 9.02656 19.8112L11.6411 17.406H16.3332C17.105 17.4297 17.8716 17.2705 18.5695 16.9413L18.5696 16.9415L18.5818 16.9353C19.2088 16.6185 19.7172 16.1092 20.0314 15.4824L20.0316 15.4824L20.0368 15.4713C20.3614 14.7821 20.5193 14.0268 20.4979 13.2659V7.64675C20.5205 6.88532 20.3624 6.12937 20.0365 5.44016L20.0366 5.44008L20.0304 5.42776C19.7141 4.80418 19.2075 4.2968 18.5838 3.97792L18.5775 3.97469L18.5711 3.97163C17.8734 3.63962 17.1061 3.47873 16.3333 3.50225H6.66679C5.89401 3.47873 5.12667 3.63962 4.42901 3.97163L4.42893 3.97146L4.41677 3.97766C3.79226 4.29605 3.28521 4.80388 2.96944 5.42827L2.96928 5.4282L2.96362 5.44016C2.63768 6.12938 2.4796 6.88533 2.50223 7.64675Z" fill="#8B5CF6" stroke="white"/>
<path d="M6.0015 9.31917C5.98991 9.00775 6.04546 8.69746 6.16444 8.4091C6.28341 8.12075 6.46307 7.86097 6.69136 7.64721C7.15584 7.21563 7.77306 6.98365 8.40881 7.00174C8.75196 6.98828 9.09365 7.05303 9.40772 7.19103C9.72179 7.32904 9.99989 7.53665 10.2207 7.79793C10.6742 8.34213 10.9141 9.03094 10.8962 9.73717C10.9099 10.3809 10.784 11.0199 10.527 11.611C10.1152 12.5441 9.37835 13.2984 8.45171 13.7351C8.12962 13.8939 7.77763 13.984 7.41839 13.9995C7.33865 14.0027 7.25907 13.99 7.18435 13.9622C7.10963 13.9343 7.04127 13.8919 6.98329 13.8374C6.93008 13.7892 6.88776 13.7303 6.85915 13.6646C6.83053 13.5989 6.81627 13.528 6.81729 13.4564C6.8123 13.3243 6.85381 13.1946 6.93465 13.0896C7.06318 12.9662 7.2273 12.8856 7.4041 12.8593C7.81292 12.7447 8.1951 12.5515 8.52901 12.2906C8.8974 12.0043 9.19178 11.6348 9.38773 11.2129H9.30474C9.16512 11.3832 8.973 11.503 8.75801 11.5541C8.54334 11.6054 8.32329 11.6311 8.10251 11.6309C7.80907 11.6453 7.51625 11.592 7.24707 11.4751C6.97788 11.3581 6.73967 11.1808 6.5511 10.957C6.17654 10.494 5.98153 9.91285 6.0015 9.31917V9.31917ZM12.107 9.31917C12.0956 9.00803 12.151 8.69803 12.2694 8.40976C12.3879 8.1215 12.5667 7.86157 12.794 7.64721C13.0231 7.4322 13.2929 7.26446 13.5877 7.15367C13.8825 7.04288 14.1965 6.99123 14.5115 7.00174C14.8546 6.98828 15.1963 7.05303 15.5104 7.19103C15.8245 7.32904 16.1025 7.53665 16.3234 7.79793C16.7768 8.34213 17.0168 9.03094 16.9989 9.73717C17.013 10.3803 16.8891 11.0191 16.6354 11.611C16.4194 12.1114 16.1062 12.5646 15.7137 12.9446C15.3784 13.2689 14.9916 13.536 14.5687 13.7351C14.2457 13.8943 13.8927 13.9844 13.5325 13.9995C13.4532 14.0025 13.3742 13.9897 13.2999 13.9618C13.2257 13.934 13.1578 13.8917 13.1003 13.8374C13.0467 13.7893 13.0039 13.7305 12.9748 13.6649C12.9457 13.5992 12.9309 13.5282 12.9314 13.4564C12.9272 13.324 12.9698 13.1942 13.0516 13.0896C13.1763 12.9688 13.335 12.8884 13.5068 12.8593C13.9228 12.7475 14.3121 12.5542 14.6517 12.2906C15.0201 12.0043 15.3145 11.6348 15.5104 11.2129H15.4274C15.2856 11.3834 15.0916 11.5032 14.875 11.5541C14.6574 11.605 14.4345 11.6308 14.2109 11.6309C13.9197 11.6444 13.6292 11.5906 13.3625 11.4737C13.0958 11.3567 12.86 11.1799 12.6738 10.957C12.2952 10.4957 12.097 9.91408 12.1156 9.31917H12.107Z" fill="#FAFAFA"/>
<path d="M15.9025 18.023L21.1539 13.126C20.6731 13.3612 20.7715 13.4818 19.1509 13.574C17.2968 13.6795 16.5303 15.0472 16.19 15.6992C15.8248 16.3986 15.9025 18.023 15.9025 18.023Z" fill="url(#paint0_linear_6994_41582)"/>
</g>
<defs>
<linearGradient id="paint0_linear_6994_41582" x1="16.7163" y1="13.5521" x2="18.8796" y2="15.8719" gradientUnits="userSpaceOnUse">
<stop stop-color="white"/>
<stop offset="1" stop-color="#C9C9C9"/>
</linearGradient>
</defs>
</svg>
