<svg width="24" height="24" viewBox="0 0 24 24" fill="none" xmlns="http://www.w3.org/2000/svg">
<g clip-path="url(#clip0_7084_41632)">
<mask id="mask0_7084_41632" style="mask-type:alpha" maskUnits="userSpaceOnUse" x="-1" y="-1" width="25" height="24">
<rect width="19.0046" height="15.7298" transform="matrix(0.846472 -0.532433 -0.532433 -0.846472 7.52344 22.4541)" fill="#171717"/>
</mask>
<g mask="url(#mask0_7084_41632)">
<circle cx="12" cy="12" r="8.5" fill="#075985" stroke="#FAFAFA"/>
</g>
<path d="M15.2066 12.6524C15.3303 12.6524 15.4025 12.5832 15.4217 12.4447C15.4479 12.1474 15.4937 11.8521 15.5587 11.5608C15.5947 11.3782 15.6803 11.209 15.8062 11.0718C15.9483 10.9465 16.1211 10.8611 16.307 10.8243C16.5265 10.7683 16.827 10.7123 17.2056 10.6549C17.3529 10.6313 17.4281 10.5591 17.4281 10.4398C17.4297 10.4129 17.4259 10.3859 17.4171 10.3605C17.4082 10.335 17.3945 10.3116 17.3765 10.2915C17.3586 10.2713 17.3369 10.255 17.3126 10.2433C17.2883 10.2315 17.262 10.2247 17.2351 10.2232C16.8511 10.1506 16.5462 10.0848 16.3203 10.0258C16.133 9.98471 15.9582 9.89935 15.8106 9.77689C15.682 9.64685 15.5944 9.4819 15.5587 9.30253C15.4928 9.0114 15.447 8.71608 15.4217 8.41866C15.4025 8.28018 15.3303 8.21095 15.2066 8.21095C15.1789 8.20824 15.1509 8.21143 15.1244 8.22032C15.098 8.22921 15.0738 8.24359 15.0533 8.26252C15.0329 8.28144 15.0167 8.30449 15.0058 8.33013C14.9948 8.35577 14.9895 8.38343 14.99 8.41129C14.9429 8.79578 14.8928 9.0963 14.8427 9.31432C14.8091 9.49938 14.7244 9.67135 14.5982 9.81077C14.4557 9.93928 14.2802 10.0255 14.0914 10.0597C13.8661 10.1113 13.5582 10.1643 13.1707 10.2174C13.1433 10.2174 13.1162 10.2232 13.0911 10.2344C13.0661 10.2456 13.0437 10.262 13.0253 10.2824C13.007 10.3028 12.9932 10.3268 12.9847 10.3529C12.9763 10.379 12.9734 10.4066 12.9763 10.4339C12.9749 10.4608 12.9788 10.4877 12.9879 10.5131C12.9969 10.5385 13.0108 10.5618 13.0289 10.5818C13.047 10.6018 13.0688 10.618 13.0931 10.6295C13.1174 10.641 13.1438 10.6477 13.1707 10.649C13.5582 10.7212 13.8646 10.7875 14.087 10.8464C14.2732 10.8874 14.4463 10.9739 14.5908 11.0983C14.7174 11.2311 14.8037 11.3971 14.8398 11.577C14.9051 11.8687 14.9543 12.1638 14.9871 12.4609C14.9873 12.4885 14.9933 12.5156 15.0048 12.5407C15.0163 12.5657 15.033 12.588 15.0537 12.6061C15.0745 12.6242 15.0988 12.6377 15.1252 12.6457C15.1515 12.6537 15.1793 12.656 15.2066 12.6524V12.6524ZM12.5093 8.76926C12.58 8.76926 12.6242 8.72802 12.6375 8.647C12.6793 8.42185 12.7349 8.19948 12.8039 7.98114C12.8245 7.91412 12.8601 7.8527 12.9081 7.80162C12.9561 7.75054 13.0152 7.71116 13.0809 7.68652C13.3064 7.60696 13.5386 7.5478 13.7747 7.50974C13.8075 7.50536 13.8375 7.48887 13.8587 7.46353C13.88 7.43818 13.891 7.4058 13.8896 7.37274C13.8912 7.34039 13.8801 7.3087 13.8586 7.28446C13.8372 7.26023 13.807 7.24538 13.7747 7.2431C13.5401 7.20111 13.3091 7.14103 13.0838 7.06339C13.0196 7.03967 12.9614 7.00199 12.9135 6.95308C12.8657 6.90417 12.8292 6.84524 12.8069 6.78054C12.7354 6.56017 12.6788 6.33526 12.6375 6.10732C12.6367 6.09132 12.6328 6.07563 12.6259 6.06116C12.619 6.04669 12.6094 6.03374 12.5974 6.02304C12.5855 6.01235 12.5716 6.00413 12.5564 5.99888C12.5413 5.99362 12.5253 5.99143 12.5093 5.99242C12.4762 5.99103 12.4439 6.00204 12.4185 6.0233C12.3932 6.04456 12.3767 6.07453 12.3723 6.10732C12.3308 6.33496 12.2752 6.55981 12.2058 6.78054C12.1848 6.84597 12.1489 6.9056 12.1008 6.9547C12.0527 7.0038 11.9939 7.04102 11.9289 7.06339C11.7049 7.14039 11.4754 7.20046 11.2424 7.2431C11.1614 7.25784 11.1201 7.30203 11.1201 7.37274C11.1196 7.40675 11.1319 7.43973 11.1545 7.46511C11.1772 7.49049 11.2085 7.50642 11.2424 7.50974C11.476 7.54812 11.7058 7.60728 11.9289 7.68652C11.9948 7.71155 12.0542 7.751 12.1029 7.80197C12.1516 7.85295 12.1883 7.91417 12.2103 7.98114C12.2809 8.19871 12.3351 8.4213 12.3723 8.647C12.3756 8.68085 12.3915 8.71222 12.4169 8.73487C12.4423 8.75752 12.4753 8.7698 12.5093 8.76926V8.76926Z" fill="#F0F9FF"/>
<path d="M11.9985 16.9945C11.0946 17.0109 10.2027 16.789 9.41475 16.3517C8.6725 15.9378 8.05917 15.3314 7.64118 14.5982C7.20667 13.8283 6.98575 12.9589 7.00071 12.0778C6.99831 11.547 7.07453 11.0187 7.22697 10.5097C7.37443 10.0154 7.59847 9.54654 7.89115 9.1198C8.17989 8.69735 8.53107 8.3199 8.93304 8C8.84454 8.25339 8.78338 8.51529 8.75057 8.78134C8.71164 9.09071 8.69215 9.40216 8.69219 9.71391C8.67086 10.748 8.92908 11.7689 9.4403 12.6719C9.93237 13.5164 10.655 14.2076 11.5259 14.6666C12.4818 15.1609 13.5489 15.4086 14.6278 15.3868C14.8972 15.3882 15.1665 15.375 15.4344 15.3472C15.6257 15.3309 15.815 15.2972 16 15.2463C15.5394 15.8009 14.9514 16.2391 14.2848 16.5246C13.5661 16.8431 12.7863 17.0052 11.9985 16.9999V16.9945Z" fill="#FFFBEB"/>
<path d="M20.8106 14.3049C19.8764 16.3035 10.2342 20.9567 10.2342 20.9567C10.9611 20.4102 11.2911 20.0783 12.4911 18.6804C14.0737 16.8368 15.3606 16.0734 16.41 15.3676C17.6411 14.5396 21.3645 13.1199 20.8106 14.3049Z" fill="url(#paint0_linear_7084_41632)"/>
</g>
<defs>
<linearGradient id="paint0_linear_7084_41632" x1="14.7035" y1="16.3281" x2="15.5228" y2="17.6308" gradientUnits="userSpaceOnUse">
<stop stop-color="#FFFEFE"/>
<stop offset="1" stop-color="#ABABAB"/>
</linearGradient>
<clipPath id="clip0_7084_41632">
<rect width="24" height="24" fill="white"/>
</clipPath>
</defs>
</svg>
