<svg fill="none" height="24" width="24" xmlns="http://www.w3.org/2000/svg" xmlns:xlink="http://www.w3.org/1999/xlink"><mask id="a" fill="#000" height="19" maskUnits="userSpaceOnUse" width="17" x="4" y="3"><path d="m4 3h17v19h-17z" fill="#fff"/><path clip-rule="evenodd" d="m7.47 6.442c1.764-1.541 4.527-2.442 8.55-2.442h3.54c.243 0 .44.199.44.444v1.804c-.225 3.935-1.3 6.723-3.088 8.526-1.791 1.807-4.233 2.56-7.05 2.56h-2.659a14.026 14.026 0 0 0 -.431 2.27.442.442 0 1 1 -.876-.098c.107-.972.29-1.9.566-2.774-1.46-1.746-1.462-3.44-1.462-4.288.006-2.313.698-4.451 2.47-6.002zm.025 10.002a9.516 9.516 0 0 1 .97-1.92c.94-1.423 2.305-2.593 4.22-3.451a.446.446 0 0 0 .224-.587.44.44 0 0 0 -.582-.226c-2.052.92-3.553 2.194-4.596 3.771-.357.54-.659 1.114-.91 1.716-.94-1.345-.94-2.588-.94-3.3v-.002c.007-2.132.638-3.994 2.168-5.332 1.54-1.347 4.06-2.224 7.971-2.224h3.098v1.32c-.218 3.802-1.25 6.344-2.83 7.936-1.576 1.59-3.762 2.3-6.427 2.3h-2.366z" fill="#000" fill-rule="evenodd"/><path d="m7.495 16.444a9.516 9.516 0 0 1 .97-1.92c.94-1.423 2.305-2.593 4.22-3.451a.446.446 0 0 0 .224-.587.44.44 0 0 0 -.582-.226c-2.052.92-3.553 2.194-4.596 3.771-.357.54-.659 1.114-.91 1.716-.94-1.345-.94-2.588-.94-3.3v-.002c.007-2.132.638-3.994 2.168-5.332 1.54-1.347 4.06-2.224 7.971-2.224h3.098v1.32c-.218 3.802-1.25 6.344-2.83 7.936-1.576 1.59-3.762 2.3-6.427 2.3h-2.366z" fill="#000"/></mask><path clip-rule="evenodd" d="m7.47 6.442c1.764-1.541 4.527-2.442 8.55-2.442h3.54c.243 0 .44.199.44.444v1.804c-.225 3.935-1.3 6.723-3.088 8.526-1.791 1.807-4.233 2.56-7.05 2.56h-2.659a14.026 14.026 0 0 0 -.431 2.27.442.442 0 1 1 -.876-.098c.107-.972.29-1.9.566-2.774-1.46-1.746-1.462-3.44-1.462-4.288.006-2.313.698-4.451 2.47-6.002zm.025 10.002a9.516 9.516 0 0 1 .97-1.92c.94-1.423 2.305-2.593 4.22-3.451a.446.446 0 0 0 .224-.587.44.44 0 0 0 -.582-.226c-2.052.92-3.553 2.194-4.596 3.771-.357.54-.659 1.114-.91 1.716-.94-1.345-.94-2.588-.94-3.3v-.002c.007-2.132.638-3.994 2.168-5.332 1.54-1.347 4.06-2.224 7.971-2.224h3.098v1.32c-.218 3.802-1.25 6.344-2.83 7.936-1.576 1.59-3.762 2.3-6.427 2.3h-2.366z" fill="#4d7c0f" fill-rule="evenodd"/><path d="m7.495 16.444a9.516 9.516 0 0 1 .97-1.92c.94-1.423 2.305-2.593 4.22-3.451a.446.446 0 0 0 .224-.587.44.44 0 0 0 -.582-.226c-2.052.92-3.553 2.194-4.596 3.771-.357.54-.659 1.114-.91 1.716-.94-1.345-.94-2.588-.94-3.3v-.002c.007-2.132.638-3.994 2.168-5.332 1.54-1.347 4.06-2.224 7.971-2.224h3.098v1.32c-.218 3.802-1.25 6.344-2.83 7.936-1.576 1.59-3.762 2.3-6.427 2.3h-2.366z" fill="#84cc16"/><path d="m7.495 16.444-.469-.175a.5.5 0 0 0 .469.675zm.97-1.92.417.276zm4.22-3.451.205.456zm-.358-.813.205.457zm-4.596 3.771.417.276zm-.91 1.716-.41.287a.5.5 0 0 0 .872-.094zm-.94-3.3h.5zm0-.002-.5-.001v.001zm2.169-5.332-.33-.376.33.377zm11.07-2.224h.5a.5.5 0 0 0 -.5-.5zm0 1.32.498.03.001-.03h-.5zm-2.83 7.936.355.352zm-8.327 2.475c.245-.654.55-1.26.919-1.82l-.834-.552a10.014 10.014 0 0 0 -1.022 2.021l.937.35zm.919-1.82c.884-1.337 2.171-2.448 4.008-3.27l-.41-.913c-1.993.893-3.434 2.122-4.432 3.631zm4.008-3.27a.946.946 0 0 0 .476-1.245l-.915.403a.054.054 0 0 1 .03-.072l.409.913zm.476-1.245a.94.94 0 0 0 -1.243-.48l.409.912a.06.06 0 0 1 -.08-.03l.915-.402zm-1.243-.48c-2.131.954-3.71 2.287-4.809 3.95l.834.552c.986-1.49 2.41-2.706 4.384-3.59l-.41-.913zm-4.809 3.95c-.376.569-.692 1.17-.954 1.8l.923.385c.24-.575.526-1.12.865-1.633zm-.083 1.706c-.847-1.213-.85-2.323-.85-3.013h-1c0 .732-.002 2.107 1.03 3.586zm-.85-3.013v-.003h-1v.003zm0-.002c.006-2.032.605-3.738 1.997-4.956l-.659-.753c-1.666 1.458-2.331 3.475-2.337 5.707l1 .002zm1.998-4.956c1.414-1.237 3.797-2.101 7.642-2.101v-1c-3.976 0-6.634.89-8.3 2.348zm7.642-2.101h3.098v-1h-3.099v1zm2.598-.5v1.32h1v-1.319h-1zm.001 1.292c-.214 3.73-1.222 6.137-2.685 7.612l.71.704c1.695-1.71 2.751-4.387 2.974-8.259zm-2.685 7.612c-1.455 1.468-3.496 2.151-6.073 2.151v1c2.753 0 5.085-.734 6.783-2.447zm-6.075 2.151h-2.365v1h2.365zm-2.39-9.502.658.753zm12.528-.194.999.057zm-3.087 8.526.71.704zm-9.708 2.56v-1a1 1 0 0 0 -.962.728l.962.271zm-.431 2.27.994.11zm-.487.393-.111.994zm-.39-.49-.993-.11.994.11zm.567-2.775.954.3a1 1 0 0 0 -.187-.941zm-1.462-4.288-1-.001v.001zm0 0-1-.004v.002l1 .001zm11.02-9.444c-4.153 0-7.193.927-9.207 2.69l1.316 1.505c1.511-1.321 3.997-2.195 7.891-2.195zm3.54 0h-3.54v2h3.54zm1.44 1.444c0-.79-.637-1.444-1.44-1.444v2a.557.557 0 0 1 -.56-.556zm0 1.778v-1.778h-2v1.778zm-.002.082.002-.081h-2v-.031l1.998.114zm-3.375 9.174c2.02-2.038 3.143-5.097 3.375-9.173l-1.998-.115c-.216 3.794-1.244 6.31-2.799 7.879l1.42 1.408zm-7.763 2.855c2.993 0 5.726-.802 7.762-2.855l-1.42-1.408c-1.549 1.561-3.7 2.263-6.342 2.263zm-2.657 0h2.657v-2h-2.656v2zm.563 1.381c.083-.751.215-1.454.4-2.11l-1.925-.542a15.02 15.02 0 0 0 -.463 2.433l1.988.22zm-1.592 1.277c.799.09 1.505-.49 1.592-1.277l-1.988-.219a.558.558 0 0 1 .618-.492zm-1.272-1.594a1.444 1.444 0 0 0 1.272 1.594l.222-1.988a.556.556 0 0 1 .494.613l-1.988-.22zm.606-2.964a15.553 15.553 0 0 0 -.606 2.964l1.988.219c.1-.918.273-1.78.526-2.584l-1.908-.6zm-1.508-3.989c0 .906 0 2.904 1.696 4.93l1.534-1.283c-1.227-1.466-1.23-2.858-1.23-3.647zm0-.002v.001l2 .003v-.001zm2.813-6.753c-2.049 1.792-2.806 4.241-2.813 6.751l2 .006c.006-2.113.631-3.94 2.13-5.251l-1.318-1.506z" fill="#fff" mask="url(#a)"/></svg>