<svg fill="none" height="24" width="24" xmlns="http://www.w3.org/2000/svg"><mask id="a" fill="#000" height="18" maskUnits="userSpaceOnUse" width="18" x="2.981" y="1.991"><path d="M2.981 1.991h18v18h-18z" fill="#fff"/><path d="M5.983 5.421a.43.43 0 0 1 .429-.429h11.157a.43.43 0 0 1 .43.43v4.29a.43.43 0 0 1-.43.43H6.412a.43.43 0 0 1-.43-.43v-4.29z"/><path clip-rule="evenodd" d="M6.412 3.99h11.157c.79 0 1.43.641 1.43 1.431v4.292c0 .79-.64 1.43-1.43 1.43H6.412c-.79 0-1.43-.64-1.43-1.43V5.42c0-.79.64-1.43 1.43-1.43zm0 1.002a.43.43 0 0 0-.43.43v4.29c0 .238.193.43.43.43h11.157a.43.43 0 0 0 .43-.43v-4.29a.43.43 0 0 0-.43-.43z" fill-rule="evenodd"/><path d="M5.983 12.287a.43.43 0 0 1 .43-.429H17.57a.43.43 0 0 1 .429.43v3.09c0 .9-.73 1.63-1.631 1.63H7.614a1.63 1.63 0 0 1-1.631-1.63v-3.09z"/><path clip-rule="evenodd" d="M6.412 10.857H17.57c.79 0 1.43.64 1.43 1.43v3.09a2.632 2.632 0 0 1-2.632 2.632H7.614a2.632 2.632 0 0 1-2.632-2.632v-3.09c0-.79.64-1.43 1.43-1.43zm0 1.001a.43.43 0 0 0-.43.43v3.09c0 .9.731 1.63 1.632 1.63h8.754c.9 0 1.63-.73 1.63-1.63v-3.09a.43.43 0 0 0-.428-.43z" fill-rule="evenodd"/></mask><mask id="b" fill="#000" height="11" maskUnits="userSpaceOnUse" width="18" x="3" y="11"><path d="M3 11h18v11H3z" fill="#fff"/><path d="M8.942 16.157a.43.43 0 0 1-.011.096l.133-.132c-.071.012-.097-.007-.122-.079z"/><path clip-rule="evenodd" d="M6.885 16.157l.026.021.003.002c.039.03.065.034.105.007a.186.186 0 0 0 .009-.006l.001-.001a.425.425 0 0 0 .028-.023v-1.443a.427.427 0 0 1 .428-.429c.183 0 .338.114.4.275l.003.006a.428.428 0 0 1 .026.148v1.443a.42.42 0 0 0 .038.03c.035.02.062.02.098-.002a.279.279 0 0 0 .031-.024l.004-.004v-2.729a.433.433 0 0 1 .002-.043.429.429 0 0 1 .855.043v2.614c.025.072.051.09.122.079l.51-.51a.43.43 0 0 1 .071-.058l.005-.003a.426.426 0 0 1 .12-.052h.005a.43.43 0 0 1 .405.719l-.128.24a112.74 112.74 0 0 1-.559 1.032l-.03.053a26.433 26.433 0 0 1-.091.164 6.79 6.79 0 0 1-.259.436c-.2.285-.771.856-1.457.856L7.513 19c-.9.007-2.513.019-2.513-1.929v-2.356a.427.427 0 0 1 .428-.429c.237 0 .429.192.429.429v1.443a.465.465 0 0 0 .029.027c.037.03.068.032.107.005L6 16.183a.303.303 0 0 0 .025-.022l.003-.004v-2.386c0-.113.045-.217.117-.293l.009-.01a.427.427 0 0 1 .633.03.427.427 0 0 1 .098.273zm.44-3.52a1.429 1.429 0 0 0-2.225.687 1.43 1.43 0 0 0-1.1 1.39v2.356c0 .66.146 1.241.459 1.718a2.5 2.5 0 0 0 1.173.945c.7.282 1.498.272 1.9.267l.124-.002c.62 0 1.134-.255 1.487-.503a3.35 3.35 0 0 0 .79-.78c.141-.202.442-.751.668-1.166l.322-.601.09-.169a1.429 1.429 0 0 0-1.071-2.293v-1.058a1.428 1.428 0 0 0-2.618-.792z" fill-rule="evenodd"/><path d="M15.058 16.157c0 .033.004.066.011.096l-.133-.132c.071.012.097-.007.122-.079z"/><path clip-rule="evenodd" d="M17.115 16.157a.567.567 0 0 1-.029.023c-.042.031-.069.034-.114 0a.425.425 0 0 1-.029-.023V14.2a.427.427 0 1 0-.857 0v1.957a.33.33 0 0 1-.038.03c-.037.022-.066.02-.104-.006a.335.335 0 0 1-.029-.024v-2.729a.428.428 0 1 0-.857 0v2.614c-.025.072-.051.09-.121.079l-.51-.51a.433.433 0 0 0-.369-.121.427.427 0 0 0-.238.726l.128.242.103.192a71.555 71.555 0 0 0 .577 1.056c.113.2.208.362.259.436.2.285.771.856 1.457.856l.143.001c.9.007 2.513.019 2.513-1.929v-2.356a.427.427 0 0 0-.428-.429.428.428 0 0 0-.429.429v1.443c-.01.01-.02.02-.029.027-.04.032-.072.032-.114-.001a.345.345 0 0 1-.028-.026v-1.272a.426.426 0 0 0-.429-.428.429.429 0 0 0-.428.428zm.629-2.686c.032.004.064.01.095.016A1.428 1.428 0 0 1 20 14.713v2.357c0 .66-.146 1.241-.459 1.718a2.5 2.5 0 0 1-1.173.945c-.7.282-1.498.272-1.9.267l-.124-.002c-.62 0-1.134-.255-1.487-.503a3.35 3.35 0 0 1-.79-.78c-.141-.202-.442-.751-.668-1.166a96.223 96.223 0 0 1-.322-.601l-.09-.169a1.429 1.429 0 0 1 1.071-2.293v-1.058a1.428 1.428 0 0 1 2.709-.635c.415.074.768.328.977.678z" fill-rule="evenodd"/></mask><path d="M5.983 5.421a.43.43 0 0 1 .429-.429h11.157a.43.43 0 0 1 .43.43v4.29a.43.43 0 0 1-.43.43H6.412a.43.43 0 0 1-.43-.43v-4.29z" fill="#94a3b8"/><path clip-rule="evenodd" d="M6.412 3.99h11.157c.79 0 1.43.641 1.43 1.431v4.292c0 .79-.64 1.43-1.43 1.43H6.412c-.79 0-1.43-.64-1.43-1.43V5.42c0-.79.64-1.43 1.43-1.43zm0 1.002a.43.43 0 0 0-.43.43v4.29c0 .238.193.43.43.43h11.157a.43.43 0 0 0 .43-.43v-4.29a.43.43 0 0 0-.43-.43z" fill="#1e293b" fill-rule="evenodd"/><path d="M5.983 12.287a.43.43 0 0 1 .43-.429H17.57a.43.43 0 0 1 .429.43v3.09c0 .9-.73 1.63-1.631 1.63H7.614a1.63 1.63 0 0 1-1.631-1.63v-3.09z" fill="#475569"/><path clip-rule="evenodd" d="M6.412 10.857H17.57c.79 0 1.43.64 1.43 1.43v3.09a2.632 2.632 0 0 1-2.632 2.632H7.614a2.632 2.632 0 0 1-2.632-2.632v-3.09c0-.79.64-1.43 1.43-1.43zm0 1.001a.43.43 0 0 0-.43.43v3.09c0 .9.731 1.63 1.632 1.63h8.754c.9 0 1.63-.73 1.63-1.63v-3.09a.43.43 0 0 0-.428-.43z" fill="#1e293b" fill-rule="evenodd"/><path d="M6.412 5.493h11.157V4.49H6.412v1.002zm11.086-.072v4.292h1.001V5.42h-1.001zm.071 4.22H6.412v1.001h11.157zm-11.086.072V5.42h-1v4.292h1zm-.071-.072a.07.07 0 0 1 .071.072h-1c0 .513.415.93.929.93V9.64zm11.086.072c0-.04.032-.072.071-.072v1.001a.93.93 0 0 0 .93-.93h-1.001zm.071-4.22a.072.072 0 0 1-.071-.072h1.001a.93.93 0 0 0-.93-.93zM6.412 4.49a.93.93 0 0 0-.93.93h1.001c0 .04-.032.072-.071.072zm0 7.868H17.57v-1.001H6.412v1zm11.086-.072v3.09h1.001v-3.09zm-1.13 4.22H7.614v1.002h8.754zm-9.884-1.13v-3.09H5.482v3.09zm1.13 1.13a1.13 1.13 0 0 1-1.13-1.13H5.482c0 1.177.955 2.132 2.132 2.132zm9.884-1.13a1.13 1.13 0 0 1-1.13 1.13v1.002a2.131 2.131 0 0 0 2.131-2.132zm.072-3.018a.072.072 0 0 1-.072-.072h1.001a.93.93 0 0 0-.93-.93v1.002zm-11.158-1a.93.93 0 0 0-.93.93h1.002a.07.07 0 0 1-.072.07zM17.57 2.989H6.412v2.003h11.157V2.989zm2.432 2.432A2.432 2.432 0 0 0 17.57 2.99v2.003a.43.43 0 0 1 .43.43h2zm0 4.292V5.42h-2.003v4.292h2.003zm-2.432 2.431a2.432 2.432 0 0 0 2.432-2.431h-2.003a.43.43 0 0 1-.429.429zm-11.157 0H17.57v-2.002H6.412v2.002zM3.98 9.713a2.432 2.432 0 0 0 2.432 2.431v-2.002a.43.43 0 0 1-.43-.43H3.98zm0-4.292v4.292h2.003V5.42H3.98zM6.412 2.99A2.432 2.432 0 0 0 3.98 5.421h2.003a.43.43 0 0 1 .429-.429V2.989zM17.57 9.856H6.412v2.002H17.57zM20 12.287a2.432 2.432 0 0 0-2.431-2.431v2.002a.43.43 0 0 1 .429.43H20zm0 3.09v-3.09h-2v3.09zm-3.633 3.633A3.633 3.633 0 0 0 20 15.377h-2c0 .9-.73 1.63-1.631 1.63v2.003zm-8.754 0h8.754v-2.002H7.614v2.003zM3.98 15.378a3.633 3.633 0 0 0 3.634 3.633v-2.002c-.9 0-1.631-.73-1.631-1.63H3.98zm0-3.09v3.09h2.003v-3.09zm2.432-2.431a2.432 2.432 0 0 0-2.432 2.431h2.003a.43.43 0 0 1 .43-.429V9.856z" fill="#fff" mask="url(#a)"/><path d="M8.942 16.157a.43.43 0 0 1-.011.096l.133-.132c-.071.012-.097-.007-.122-.079z" fill="#000"/><path clip-rule="evenodd" d="M6.885 16.157l.026.021.003.002c.039.03.065.034.105.007a.186.186 0 0 0 .009-.006l.001-.001a.425.425 0 0 0 .028-.023v-1.443a.427.427 0 0 1 .428-.429c.183 0 .338.114.4.275l.003.006a.428.428 0 0 1 .026.148v1.443a.42.42 0 0 0 .038.03c.035.02.062.02.098-.002a.279.279 0 0 0 .031-.024l.004-.004v-2.729a.433.433 0 0 1 .002-.043.429.429 0 0 1 .855.043v2.614c.025.072.051.09.122.079l.51-.51a.43.43 0 0 1 .071-.058l.005-.003a.426.426 0 0 1 .12-.052h.005a.43.43 0 0 1 .405.719l-.128.24a112.74 112.74 0 0 1-.559 1.032l-.03.053a26.433 26.433 0 0 1-.091.164 6.79 6.79 0 0 1-.259.436c-.2.285-.771.856-1.457.856L7.513 19c-.9.007-2.513.019-2.513-1.929v-2.356a.427.427 0 0 1 .428-.429c.237 0 .429.192.429.429v1.443a.465.465 0 0 0 .029.027c.037.03.068.032.107.005L6 16.183a.303.303 0 0 0 .025-.022l.003-.004v-2.386c0-.113.045-.217.117-.293l.009-.01a.427.427 0 0 1 .633.03.427.427 0 0 1 .098.273zm.44-3.52a1.429 1.429 0 0 0-2.225.687 1.43 1.43 0 0 0-1.1 1.39v2.356c0 .66.146 1.241.459 1.718a2.5 2.5 0 0 0 1.173.945c.7.282 1.498.272 1.9.267l.124-.002c.62 0 1.134-.255 1.487-.503a3.35 3.35 0 0 0 .79-.78c.141-.202.442-.751.668-1.166l.322-.601.09-.169a1.429 1.429 0 0 0-1.071-2.293v-1.058a1.428 1.428 0 0 0-2.618-.792z" fill="#000" fill-rule="evenodd"/><path d="M15.058 16.157c0 .033.004.066.011.096l-.133-.132c.071.012.097-.007.122-.079z" fill="#000"/><path clip-rule="evenodd" d="M17.115 16.157a.567.567 0 0 1-.029.023c-.042.031-.069.034-.114 0a.425.425 0 0 1-.029-.023V14.2a.427.427 0 1 0-.857 0v1.957a.33.33 0 0 1-.038.03c-.037.022-.066.02-.104-.006a.335.335 0 0 1-.029-.024v-2.729a.428.428 0 1 0-.857 0v2.614c-.025.072-.051.09-.121.079l-.51-.51a.433.433 0 0 0-.369-.121.427.427 0 0 0-.238.726l.128.242.103.192a71.555 71.555 0 0 0 .577 1.056c.113.2.208.362.259.436.2.285.771.856 1.457.856l.143.001c.9.007 2.513.019 2.513-1.929v-2.356a.427.427 0 0 0-.428-.429.428.428 0 0 0-.429.429v1.443c-.01.01-.02.02-.029.027-.04.032-.072.032-.114-.001a.345.345 0 0 1-.028-.026v-1.272a.426.426 0 0 0-.429-.428.429.429 0 0 0-.428.428zm.629-2.686c.032.004.064.01.095.016A1.428 1.428 0 0 1 20 14.713v2.357c0 .66-.146 1.241-.459 1.718a2.5 2.5 0 0 1-1.173.945c-.7.282-1.498.272-1.9.267l-.124-.002c-.62 0-1.134-.255-1.487-.503a3.35 3.35 0 0 1-.79-.78c-.141-.202-.442-.751-.668-1.166a96.223 96.223 0 0 1-.322-.601l-.09-.169a1.429 1.429 0 0 1 1.071-2.293v-1.058a1.428 1.428 0 0 1 2.709-.635c.415.074.768.328.977.678z" fill="#000" fill-rule="evenodd"/><path d="M6.357 16.157a.5.5 0 1 0-1 0zm1.028-2.386a.5.5 0 0 0-1 0zm-.928-.928a.5.5 0 1 0 0 1zm.071 3.314a.5.5 0 1 0-1 0zm-1-2.386a.5.5 0 1 0 1 0zm1.957.014a.5.5 0 1 0 0 1zm.929 2.372a.5.5 0 1 0-1 0zm-.857 0a.5.5 0 1 0-1 0zm-1-1.443a.5.5 0 1 0 1 0zm3.623 1.502l.442.234a.5.5 0 0 0-.796-.587l.354.354zm.353-.959a.5.5 0 1 0-.707.707zm-1.98 1.374l.354.354zm.667-1.374a.5.5 0 0 0 .707.707zm-.635.9a.5.5 0 1 0-1 0zm-.5-2.729h-.5a.5.5 0 0 0 1 .007zm1.06 3.186a.5.5 0 0 0-.163-.986zm.27-.736a.5.5 0 1 0-.945.328l.944-.328zm.003.487a.5.5 0 0 0-.974-.223zm-.714 1.49a.5.5 0 1 0 .819.573l-.82-.573zm-1.048 1.643a.5.5 0 1 0 0-1zm.953-2.923l-.111-.488zm-.024-3.151a.5.5 0 0 0-1-.013zm1.907 3.27a.5.5 0 0 0-.881-.472l.881.471zm-.984-.28a.5.5 0 1 0 .882.471zm9.064-2.629a.5.5 0 1 0 0 1zm-.429 2.372h.5a.5.5 0 0 0-.862-.344zm-.171 0l.355-.352a.5.5 0 0 0-.855.352zm-.5-1.272a.5.5 0 1 0 1 0zm-.957-1.614a.5.5 0 0 0 0 1zm-.428 2.886h.5a.5.5 0 0 0-.823-.382zm.856 0l.333-.373a.5.5 0 0 0-.833.373zm-.5-1.957a.5.5 0 0 0 1 0zm-2.623 2.017l.354-.354zm1.02 1.02l-.353.354.354-.354zm.607-.606l-.354.354zm-1.374-.667a.5.5 0 0 0 .707-.707zm1.414-3.464a.5.5 0 0 0 0 1zm.428 3.657l.335-.37a.5.5 0 0 0-.835.37zm-.5-2.729a.5.5 0 0 0 1 0zm-.397 2.2a.5.5 0 1 0-.163.986zm.512.578a.5.5 0 0 0-.944-.328zm-.107-.306a.5.5 0 0 0-.707.707zm-.946 2.528a.5.5 0 1 0 .82-.573zm1.867.07a.5.5 0 1 0 0 1zM6.216 15.81a.5.5 0 0 0-.696.717zm-.223.379l-.291-.407.29.407zm.382.328a.5.5 0 0 0-.701-.712zm.132-2.695a.5.5 0 1 0-.707-.707zm-.105-.005a.5.5 0 1 0 .771-.637zm.81 1.963a.5.5 0 1 0-.603.797l.604-.798zm-.193.407l.276.417zm.31.393a.5.5 0 1 0-.6-.8zm2.093 1.037l-.436-.244zm.071-.128l-.437-.242zm-1.081-.954a.5.5 0 1 0-.662-.749l.662.75zm-.362-.35l-.272-.42zm.18-.414a.5.5 0 1 0-.585.81l.586-.81zm-.68-1.03a.5.5 0 1 0-.92-.389l.92.39zm-.132-.003a.5.5 0 1 0 .939-.343zm1.167-1.303a.5.5 0 1 0-.995-.1zM9.65 15.55l.265.424zm.125-.053l.118.486zm.089.487a.5.5 0 0 0 .19-.982zm-.053-.044a.5.5 0 0 0 .926-.376zm-4.317-1.198a.5.5 0 1 0-.92-.39zm-.066 2.344a.928.928 0 0 0 .929-.929h-1a.07.07 0 0 1 .071-.071zm-.928-.929c0 .513.416.929.928.929v-1c.04 0 .072.032.072.071zm0-1.443v1.443h1v-1.443zm2.885 1.443v-2.384h-1v2.385h1zm-.928.929a.928.928 0 0 0 .928-.929h-1a.07.07 0 0 1 .072-.071zm-.929-.929a.93.93 0 0 0 .929.929v-1a.07.07 0 0 1 .071.071zm1.957.929a.928.928 0 0 0 .929-.929h-1a.07.07 0 0 1 .071-.071zm-.928-.929c0 .513.415.929.928.929v-1c.04 0 .072.032.072.071zm2.956 1.434l1.02-1.021-.707-.707-1.02 1.02zm-1.313 0a.928.928 0 0 0 1.313 0l-.707-.707a.071.071 0 0 1 .1 0zm0-1.313a.929.929 0 0 0 0 1.313l.707-.707a.072.072 0 0 1 0 .1zm-.615-.12c0 .512.416.928.928.928v-1c.04 0 .072.032.072.071h-1zm1.397-.53a.431.431 0 0 1 .427.237l.005.013-.944.328c.017.05.074.214.24.324a.6.6 0 0 0 .435.084zm-1.326 2.87c-.473 0-1.017.024-1.462-.156a.998.998 0 0 1-.482-.377c-.116-.178-.212-.454-.212-.895h-1c0 .588.129 1.067.377 1.444.249.379.59.613.943.755.669.27 1.453.23 1.836.23v-1zM4.5 16.158v.912h1v-.913h-1zm4.407.827l.056-.056-.707-.708-.056.057zm-.41-.898a.074.074 0 0 1 .016-.001v1a.93.93 0 0 0 .208-.024l-.223-.975zm.224.975a.93.93 0 0 0 .697-.697l-.974-.223a.071.071 0 0 1 .054-.055zm9.85-.976c.04 0 .072.032.072.071h-1c0 .513.416.929.928.929zm-.071.071a.07.07 0 0 1 .072-.071v1a.928.928 0 0 0 .928-.929zm0-1.443v1.443h1v-1.443zm.072.071a.072.072 0 0 1-.072-.071h1a.928.928 0 0 0-.928-.929zm-.957.1c0 .04-.032.072-.072.072v-1a.928.928 0 0 0-.928.928zm0 1.272v-1.271h-1v1.272h1zm-.072-.071c.04 0 .072.032.072.071h-1c0 .513.416.929.928.929zm-.071.071a.07.07 0 0 1 .071-.071v1a.928.928 0 0 0 .929-.929zm.071-1.2a.072.072 0 0 1-.071-.072h1a.928.928 0 0 0-.929-.928zm-1.028 1.129c.04 0 .072.032.072.071h-1c0 .513.415.929.928.929zm-.072.071a.07.07 0 0 1 .072-.071v1a.928.928 0 0 0 .928-.929zm.072-1.886a.071.071 0 0 1-.072-.071h1a.928.928 0 0 0-.928-.929zm-2.341 1.592a.072.072 0 0 1 0 .101l-.707-.707a.928.928 0 0 0 0 1.313zm1.02 1.02l-1.02-1.02-.707.707 1.02 1.02.707-.706zm-.1 0a.071.071 0 0 1 .1 0l-.707.708a.929.929 0 0 0 1.313 0l-.707-.707zm0 .102a.071.071 0 0 1 0-.101l.706.707a.929.929 0 0 0 0-1.313l-.707.707zm-.92-1.02a.072.072 0 0 1-.101 0l.707-.708a.928.928 0 0 0-1.313 0l.707.707zm1.241.192a.07.07 0 0 1 .072-.071v1a.928.928 0 0 0 .928-.929zm.072-2.657a.071.071 0 0 1-.072-.072h1a.928.928 0 0 0-.928-.928zm-.632 3.114a.6.6 0 0 0 .435-.084.621.621 0 0 0 .24-.324l-.944-.328.005-.013a.42.42 0 0 1 .148-.17.431.431 0 0 1 .28-.067zm1.489 2.884c.383 0 1.167.041 1.836-.229a1.99 1.99 0 0 0 .943-.755c.248-.377.377-.856.377-1.444h-1c0 .441-.096.717-.212.895a.998.998 0 0 1-.482.377c-.445.18-.989.156-1.462.156zm-2.524-3.282l-.442.234v.001l.003.004a.551.551 0 0 0 .007.014l.028.053a82.719 82.719 0 0 0 .423.788c.233.43.517.946.638 1.118l.82-.573a19 19 0 0 1-.579-1.021l-.318-.592-.1-.189a13.458 13.458 0 0 1-.035-.066l-.002-.003v-.001zm4.68-.059v.913h1v-.913zm-.72-.344l.013-.012a.425.425 0 0 1 .521-.007l.013.011-.71.704c.043.044.2.201.446.2.249-.003.402-.164.443-.207l-.725-.69zm-.99-.036c-.014.012-.002 0 .023-.014a.427.427 0 0 1 .42-.007c.035.019.052.036.043.028l-.665.747c.032.029.195.183.44.173a.579.579 0 0 0 .275-.083.834.834 0 0 0 .113-.083l-.648-.761zm-1.026-.002c-.007.006.008-.008.039-.025a.42.42 0 0 1 .447.036l-.67.742c.047.043.2.178.43.174.218-.004.364-.133.399-.163zm.036.503l-.056-.057-.707.707.056.057zm-.521.784a.932.932 0 0 0 .208.024v-1c.004 0 .01 0 .015.002zm-.563-.455l.321.322.707-.708-.321-.321zm-8.432-.012a.774.774 0 0 0 .091-.078l-.701-.712.007-.007a.295.295 0 0 1 .02-.016zm.446-.816a.204.204 0 0 1 .013-.008l.552.833a.64.64 0 0 0 .034-.024l-.6-.8zm3.129 2.081l.072-.13-.875-.483-.07.126zm.531-.975l.102-.192-.881-.47-.103.19zm-2.069-.28a.761.761 0 0 0 .091-.07l-.662-.749.008-.006a.282.282 0 0 1 .02-.015zm.264-3.17v-.011l-1-.013v.01zm-.995-.1a.934.934 0 0 0-.005.093h1v.007zm2.464 1.667a.93.93 0 0 0-.398.01l.237.971a.07.07 0 0 1-.03 0l.19-.981zm-.398.01a.925.925 0 0 0-.271.114l.53.848a.075.075 0 0 1-.022.009zm-.271.114a.927.927 0 0 0-.165.131l.707.707a.07.07 0 0 1-.012.01zm-2.755-.774a.927.927 0 0 0-.073.362h1a.072.072 0 0 1-.006.028zm.543-1.172a.928.928 0 0 0-.716-.337v1a.072.072 0 0 1-.055-.026zm.472 3.402a.584.584 0 0 0 .676.023l-.543-.84a.417.417 0 0 1 .262-.061c.113.01.183.061.19.067l-.585.81zm3.092-1.018a.927.927 0 0 0-.204-.307l-.707.707a.073.073 0 0 1-.015-.024zm-2.38-1.17a.929.929 0 0 0-.872-.609v1a.071.071 0 0 1-.067-.047l.939-.343zm1.823 1.822l-.442-.233-.001.002-.003.006a4.56 4.56 0 0 1-.059.11 118.855 118.855 0 0 1-.62 1.146l.876.484a76.362 76.362 0 0 0 .686-1.273l.004-.006v-.001zm-1.194 1.157a8.244 8.244 0 0 1-.282.482l.819.573c.076-.109.206-.334.336-.568zm-4.413-3.02a.927.927 0 0 0-.073.36h1a.072.072 0 0 1-.006.029l-.92-.39zM5.8 13.114a.927.927 0 0 0-.272.656h1c0 .02-.008.038-.02.05zm.81 3.462a.579.579 0 0 0 .686.027l-.553-.834a.422.422 0 0 1 .42-.02.321.321 0 0 1 .05.03l-.604.797zm-1.09-.05a.579.579 0 0 0 .764.068l-.582-.813a.422.422 0 0 1 .514.028zm.337-.37h-1a1 1 0 0 0 .275.69zm1.028 0h-1a1 1 0 0 0 .352.761l.648-.76zm-.857 0l.706.709a1 1 0 0 0 .294-.709zm1.886 0h-1a1 1 0 0 0 .355.765zm-.857 0l.665.747a1 1 0 0 0 .335-.747zm3.123.06l-.707-.708a1 1 0 0 0-.177.24l.884.467zm0-.606l-.707.707.707-.708zm-.606 0l-.707-.708.707.707zm-1.49.546l.667.746a1 1 0 0 0 .334-.746h-1zm.98-.036l.707.707zm-.133.132l-.975-.223a1 1 0 0 0 1.682.93zm.182 1.889l-.819-.574.82.573zm-2.2-1.962l-.598.801.004.003.595-.804zm.115 0l.594.805.002-.001-.596-.803zm.057-1.62l-.934-.358zm.8 0l-.933.359zm.067 1.626l.521-.853-.52.853zm.104-.005l.579.815zm.03-2.764l-1-.026zm1.559 2.136l-.542-.84zm.125-.055l-.243-.97-.006.002.249.969zm.172-.008l-.151.989.15-.989zm.319.233l.896-.445zm-.21.735l-.882-.47.883.47zm-.102.192l-.881-.473zm-.485.892l-.874-.485zm-.092.164l.871.491-.871-.49zM7.512 19l.008 1-.007-1zm-2.483-4.44l-.933-.358zm.858 1.624l.626-.779-.626.78zM6 16.183l-.62-.785zm.145-2.705l-.729-.686zm.624 0l-.728.685zm.555-.842l-.608.794a1 1 0 0 0 1.44-.238zm-2.224.687l.229.974a1 1 0 0 0 .72-.66l-.95-.314zm-.641 5.465l-.836.55zm1.173.945l.375-.927zm1.9.267l.014 1zm1.61-.505l-.575-.818.576.818zm.79-.78l-.819-.573.82.573zm.668-1.166l-.879-.477.88.477zm.324-.601l.882.47zm.09-.169l-.795-.607a1 1 0 0 0-.089.137l.883.47zm-.127-1.876l.707-.707zm-.945-.417h-1a1 1 0 0 0 .955 1zm8.201 1.671l.725.69a1 1 0 0 0 .275-.69zm-1.028 0l.648.761a1 1 0 0 0 .352-.76h-1zm.857 0h-1a1 1 0 0 0 .29.705zm-1.886 0l.645.765a1 1 0 0 0 .355-.765zm.857 0h-1a1 1 0 0 0 .335.747zm-3.123.06l.884-.468a.998.998 0 0 0-.177-.24l-.707.707zm2.095-.06h-1a1 1 0 0 0 .33.742zm-.978-.036l.707-.707zm.132.132l-.707.707a1 1 0 0 0 1.682-.93zm-.182 1.889l.819-.574-.82.573zm2.2-1.962l.594.804-.595-.804zm-.115 0l.594-.804-.594.805zm-.057-2.134l.934-.358zm-.285-.26l.268-.963-.268.964zm-.582 2.4l-.521-.853.52.853zm-.104-.005l.578-.816zm-.269-3.137l-.44.897zm-1.32 2.51l.542-.841-.542.84zm-.125-.056l-.248.97zm-.172-.008l.151.989-.15-.989zm-.319.233l-.896-.445zm.21.735l.882-.47-.883.47zm.102.192l.881-.473zm.485.892l.874-.485zm.092.164l-.871.491.871-.49zM16.488 19l-.008 1 .007-1zm2.413-4.56l.768-.64zm-.787 1.745l-.626-.779.626.78zM18 16.183l-.62.785zm-.057-1.451l-.933.358zm-.007-.018l-.916.4zm-.786 0l-.916-.4zm-.007.018l-.934-.358zm.6-1.261l-.859.51a1 1 0 0 0 .72.48l.14-.99zm.096.016l-.206.979a1 1 0 0 0 .72-.12zm1.702 5.301l.836.55zm-1.173.945l-.375-.927zm-1.9.267l-.014 1zm-1.61-.505l.575-.818-.576.818zm-.79-.78l.819-.573-.82.573zm-.668-1.166l.878-.477-.879.477zm-.324-.601l-.882.47zm-.09-.169l.884-.47a1 1 0 0 0-.088-.137l-.795.607zm.127-1.876l-.707-.707zm.945-.417l.045 1a1 1 0 0 0 .955-1zm2.709-1.693l-.896.446a1 1 0 0 0 .72.539l.175-.985zm-10.9 3.375l.698-.717-.697.717zm.126.02l.582.814-.582-.813zm.032-.027l.701.713.004-.005zm.129-2.693l-.707-.707zm.633.03l-.77.637.77-.636zm.124 2.68l-.603.798.004.003.599-.8zm.108.01l-.552-.834.552.833zm.01-.008l.596.803.003-.002zm2.393 1.437l.873.487zm.071-.128l.875.484zM8.081 16.16l.662.75.004-.005zm-.031.024l-.543-.84zm-.112-.009l.585-.81zm-.848-1.629l.921.39-.92-.39zm.798.02l.939-.344-.94.343zm.2-1.182l.994.1-.995-.1zM9.65 15.55l-.53-.848-.003.002zm.125-.053l-.237-.971-.006.001zm.184-.004l-.19.982zm.315.26l-.927.375.927-.376zm-5.24-1.206l-.921-.39.92.39zm1.823.167c0-.79-.64-1.429-1.429-1.429v2a.572.572 0 0 1-.571-.571zm0 1.443v-1.443h-2v1.443zm-1.829-2.386v2.386h2v-2.386zm3.886 2.386v-1.443h-2v1.443zm-2.857-1.443v1.443h2v-1.443zm3.885-1.286c0-.789-.64-1.428-1.429-1.428v2a.572.572 0 0 1-.571-.572zm-2.857 0v2.73h2v-2.73zm1.782 1.475l-.51.51 1.414 1.415.51-.51zm1.075 1.254v-.115h-2v.115zm0-.115v-2.614h-2v2.614zm-2 .115a.57.57 0 0 1 .014-.127l1.95.447a1.43 1.43 0 0 0 .036-.32zm1.696.803l.133-.132-1.415-1.414-.132.132 1.414 1.415zm-1.344.608c-.038.054-.15.184-.303.291-.154.109-.269.14-.335.14v2c.62 0 1.134-.256 1.487-.504a3.35 3.35 0 0 0 .79-.78zm-.237-2.854c0 .07-.014.14-.038.205l-1.868-.717c-.061.16-.094.333-.094.512zm-.572.571a.571.571 0 0 1-.533-.366l1.867-.717a1.429 1.429 0 0 0-1.334-.917zm1.6-1.857v.015l-2-.052v.037zm1.196 2.89a.566.566 0 0 1-.094.076l-1.084-1.681a1.43 1.43 0 0 0-.236.19zm-.808 0a.57.57 0 0 1-.108-.15l1.791-.89a1.43 1.43 0 0 0-.27-.375zm.707-.102l-.884-.467v.001l-.002.003-.007.012-.025.048-.093.174 1.765.941.094-.177.027-.05.006-.012.002-.004v-.001zm-1.01-.229l-.102.19 1.763.945.103-.194-1.765-.94zm-.67 1.229a13.604 13.604 0 0 1-.189.325l-.017.027 1.638 1.147c.085-.121.205-.33.311-.518l-1.742-.981zm-.844.782l-.15.001.014 2h.136v-2zm-.15.001c-.493.004-.888-.01-1.165-.138a.466.466 0 0 1-.22-.185c-.05-.082-.121-.257-.121-.606H4c0 .625.13 1.18.411 1.643.285.469.68.772 1.087.962.754.35 1.615.327 2.022.324l-.015-2zM6 14.714c0 .07-.013.14-.038.205l-1.867-.717c-.062.16-.095.333-.095.512zm1.028-.943c0 .151-.06.29-.155.392l-1.457-1.37c-.24.254-.388.6-.388.978zm-.571.572a.573.573 0 0 1-.416-.18l1.456-1.37c-.26-.276-.63-.45-1.04-.45zm1.475-2.5a2.422 2.422 0 0 0-1.475-.5v2c.099 0 .187.032.26.087l1.215-1.588zm-1.475-.5A2.43 2.43 0 0 0 4.15 13.01l1.9.627a.429.429 0 0 1 .407-.294zM4.87 12.35A2.43 2.43 0 0 0 3 14.714h2c0-.202.14-.373.329-.417l-.458-1.947zM3 17.07c0 .807.178 1.59.623 2.267l1.672-1.098C5.113 17.962 5 17.585 5 17.07zm.623 2.267a3.494 3.494 0 0 0 1.635 1.323l.749-1.854a1.496 1.496 0 0 1-.712-.567zm1.635 1.323c.911.368 1.904.345 2.288.34l-.027-2c-.42.005-1.024.003-1.512-.194zm2.288.34l.11-.002v-2L7.52 19l.027 2zm.11-.002c.898 0 1.61-.367 2.062-.686l-1.151-1.635c-.254.179-.568.321-.91.321v2zm2.062-.686c.456-.32.81-.704 1.034-1.024l-1.639-1.146c-.1.142-.293.357-.546.535zm1.034-1.024c.183-.261.518-.877.727-1.263l-1.758-.953c-.24.444-.508.926-.608 1.07zm.727-1.263c.124-.228.241-.446.327-.607l-1.765-.94-.32.594zm.327-.607l.09-.169-1.766-.94-.09.169zm.002-.032a2.429 2.429 0 0 0-.214-3.19l-1.414 1.415a.429.429 0 0 1 .039.561zm-.214-3.19a2.424 2.424 0 0 0-1.607-.708l-.09 1.998a.423.423 0 0 1 .283.124zm-.652.29v-1.058h-2v1.058zm0-1.058A2.428 2.428 0 0 0 8.513 11v2c.237 0 .429.192.429.428zM8.513 11c-.844 0-1.587.431-2.02 1.081l1.663 1.11A.427.427 0 0 1 8.513 13zm-2.628 2.771v2.386h2v-2.386zm.115 3.3v-2.357H4v2.356h2zm-3-2.357v2.356h2v-2.356zm16.143 0a.572.572 0 0 1-.572.571v-2a1.43 1.43 0 0 0-1.428 1.429zm0 1.443v-1.443h-2v1.443zm-2.171-1.272v1.272h2v-1.272zm.114-.685a.572.572 0 0 1-.571.571v-2a1.43 1.43 0 0 0-1.429 1.429zm0 1.957V14.2h-2v1.957zM15.944 14.2v1.957h2V14.2zm.115-.771a.572.572 0 0 1-.571.571v-2c-.79 0-1.429.64-1.429 1.428h2zm-1.143 0v2.728h2v-2.729h-2zm-1.196 2.889l.51.51 1.415-1.414-.51-.51zm2.34-.16v-.116h-2v.115h2zm0-.116v-2.614h-2v2.614zm-2 .115c0 .109.011.216.035.32l1.95-.447a.57.57 0 0 1 .014.127h-2zm1.717-.61l-.132-.133-1.415 1.414.133.133 1.414-1.415zm-1.708 3.168c.161.231.435.53.79.78.352.248.866.503 1.486.503v-2c-.066 0-.181-.03-.335-.139a1.376 1.376 0 0 1-.303-.291zm2.398-3.319l.005-.004a.747.747 0 0 1 .02-.016l1.19 1.608c.035-.026.065-.05.082-.066zm.026-.02c.024-.018.215-.163.514-.17a.91.91 0 0 1 .56.17l-1.188 1.61c.092.067.331.227.677.218.334-.008.56-.17.626-.22l-1.19-1.608zm1.074 0a.517.517 0 0 1 .043.035l-1.33 1.493c.024.022.058.051.099.081zm.377-1.176c0-.179-.033-.352-.094-.512l-1.867.716a.573.573 0 0 1-.039-.204zm-.094-.512a1.43 1.43 0 0 0-.951-.865l-.536 1.927a.57.57 0 0 1-.38-.345zm-.951-.865a1.432 1.432 0 0 0-.383-.052v2a.572.572 0 0 1-.153-.02zm-1.456 2.57a.555.555 0 0 1 .085-.06l1.042 1.707c.073-.045.13-.09.162-.118l-1.29-1.53zm.085-.06a.912.912 0 0 1 .517-.13.903.903 0 0 1 .478.162l-1.157 1.631c.104.074.305.192.584.205.286.014.502-.09.62-.161zm.995.032a.717.717 0 0 1 .064.05L15.245 16.9c.03.027.07.062.12.097l1.157-1.631zm.393-1.937c0-.564-.327-1.05-.798-1.282l-.883 1.795a.572.572 0 0 1-.319-.513zm-.798-1.282a1.427 1.427 0 0 0-.63-.146v2a.574.574 0 0 1-.253-.059zm-.984 2.757a1.436 1.436 0 0 0-.236-.19l-1.084 1.68a.566.566 0 0 1-.094-.075zm-.236-.19a1.428 1.428 0 0 0-.418-.183l-.497 1.937a.572.572 0 0 1-.169-.073zm-.418-.183a1.432 1.432 0 0 0-.572-.029l.302 1.978a.57.57 0 0 1-.227-.012zm-.572-.029c-.29.045-.571.18-.794.402l1.414 1.415a.573.573 0 0 1-.318.16zm-.794.402a1.43 1.43 0 0 0-.27.375l1.792.89a.569.569 0 0 1-.108.15zm-.27.375a1.429 1.429 0 0 0 .27 1.646l1.414-1.415a.57.57 0 0 1 .108.659l-1.791-.89zm.977.938l-.884.468v.001l.003.004.006.012.027.05.094.177 1.765-.94-.093-.175-.025-.048-.007-.012-.001-.003zm-.754.712l.103.194 1.763-.945-.101-.19zm.103.194c.141.263.327.606.493.905l1.748-.97c-.158-.286-.338-.62-.478-.88zm.493.905l.095.17 1.742-.981-.089-.16zm.095.17c.106.189.226.397.31.518l1.639-1.147-.017-.027a13.659 13.659 0 0 1-.19-.325zm2.587 1.801l.136.001.015-2h-.151v2zm.136.001c.407.003 1.268.026 2.022-.324.407-.19.802-.493 1.087-.962.28-.463.411-1.018.411-1.643h-2c0 .35-.072.524-.121.606a.465.465 0 0 1-.22.185c-.277.129-.672.142-1.164.138zM20 14.714a1.43 1.43 0 0 0-.33-.914l-1.537 1.28a.573.573 0 0 1-.133-.366zm-.33-.914a1.427 1.427 0 0 0-1.099-.515v2a.573.573 0 0 1-.438-.205l1.536-1.28zm-2.252 1.668a.709.709 0 0 1 .07-.063l1.253 1.558a1.31 1.31 0 0 0 .127-.117zm.07-.063a.914.914 0 0 1 .578-.197c.296.002.49.14.554.19l-1.24 1.57c.106.083.338.238.67.24.34.003.578-.154.691-.245zm1.132-.007a.68.68 0 0 1 .061.055l-1.42 1.409c.03.03.07.067.119.106zm.352-.513c0-.178-.034-.351-.095-.511l-1.867.716a.573.573 0 0 1-.038-.205zm-.095-.511a1.371 1.371 0 0 0-.025-.06l-1.832.8a.511.511 0 0 1-.01-.024zm-.025-.06a1.428 1.428 0 0 0-1.309-.857v2a.571.571 0 0 1-.523-.343zm-1.309-.857c-.587 0-1.09.354-1.309.856l1.833.801a.571.571 0 0 1-.524.343zm-1.309.856l-.025.06 1.868.717a.583.583 0 0 1-.01.024l-1.833-.8zm-.025.06a1.44 1.44 0 0 0-.094.512h2c0 .07-.013.14-.038.205l-1.868-.716zm1.396.088l.028.005.412-1.957a2.491 2.491 0 0 0-.162-.029zm.747-.116a.422.422 0 0 1 .22-.06v-2c-.454 0-.882.126-1.247.344zm.22-.06c.236 0 .428.192.428.429h2a2.428 2.428 0 0 0-2.428-2.429zM19 17.07c0 .515-.113.892-.295 1.17l1.672 1.097c.445-.676.623-1.46.623-2.267zm-.295 1.17a1.496 1.496 0 0 1-.712.566l.749 1.854a3.494 3.494 0 0 0 1.635-1.323l-1.672-1.098zm-.712.566c-.488.197-1.092.2-1.512.194l-.027 2c.384.005 1.377.028 2.288-.34zM16.481 19l-.137-.002v2c.027 0 .061 0 .11.002zm-.137-.002c-.343 0-.657-.142-.91-.32l-1.152 1.634c.452.319 1.165.686 2.062.686zm-.91-.32a2.355 2.355 0 0 1-.547-.537l-1.639 1.147c.224.32.578.703 1.034 1.024l1.151-1.635zm-.547-.537c-.1-.143-.368-.625-.609-1.07l-1.758.954c.21.386.545 1.002.728 1.263l1.639-1.146zm-.609-1.07l-.32-.594-1.764.941.326.607 1.758-.953zm-.319-.593l-.09-.169-1.765.94.09.169zm-.178-.306a.429.429 0 0 1 .04-.562l-1.415-1.414a2.429 2.429 0 0 0-.214 3.19l1.59-1.214zm.04-.562a.415.415 0 0 1 .282-.124l-.09-1.998a2.424 2.424 0 0 0-1.607.708l1.414 1.415zm1.237-1.123v-1.059h-2v1.058h2zm0-1.059c0-.236.192-.428.429-.428v-2a2.428 2.428 0 0 0-2.429 2.428zm.429-.428c.166 0 .313.095.384.239l1.79-.89A2.428 2.428 0 0 0 15.488 11v2zm1.105.778a.43.43 0 0 1 .292.204l1.72-1.022a2.43 2.43 0 0 0-1.663-1.151l-.35 1.969zm-.477 1.107v1.272h2v-1.272zM20 17.07v-2.356h-2v2.356zm-1-2.356v2.356h2v-2.356zM5.132 16.846l.04.04 1.393-1.435a.573.573 0 0 1 .017.017zm.04.04c.023.023.052.05.087.077l1.253-1.558.053.046-1.394 1.435zm.087.077c.105.085.322.23.635.244.32.014.556-.116.68-.206L5.41 15.376a.916.916 0 0 1 .574-.166.91.91 0 0 1 .528.196L5.26 16.963zm1.471-.094l.004-.003-1.411-1.417-.004.004zm.143-2.706a.609.609 0 0 1-.012.012l-1.414-1.414-.03.031zm-.012.012a.573.573 0 0 1-.404.168v-2c-.394 0-.753.16-1.01.418zm-.82-.012a.61.61 0 0 1-.025-.028l1.543-1.273a1.427 1.427 0 0 0-.062-.07zm-.025-.028a.573.573 0 0 1-.13-.364h2c0-.344-.124-.662-.327-.909zm.22 2.783l.072.058 1.206-1.595a.63.63 0 0 1 .016.012l.004.003-1.297 1.522zm.076.06l.003.003 1.198-1.601-.003-.003-1.198 1.602zm.007.006c.063.046.262.19.559.217.329.029.572-.1.693-.18l-1.104-1.667a.921.921 0 0 1 .587-.146c.264.024.431.151.454.168L6.32 16.984zm1.252.037a.563.563 0 0 0 .051-.036l-1.188-1.609a.822.822 0 0 1 .033-.022L7.57 17.02zm.053-.037l.001-.001-1.192-1.606-.001.001zm-2.301-1.536a.84.84 0 0 1 .057-.05l1.24 1.57a1.41 1.41 0 0 0 .106-.094zm.057-.05a.806.806 0 0 1 .03-.022l1.165 1.626.045-.034zm4.863 2.8l.052-.094-1.746-.975-.048.087 1.742.981zm.125-.225c.158-.286.33-.604.463-.851l-1.763-.945c-.131.245-.298.554-.45.828zm-2.95-2.561l-.003.003 1.332 1.492.004-.004-1.332-1.491zm.001 0a.69.69 0 0 1 .059-.047l1.157 1.631c.044-.03.08-.061.108-.086l-1.324-1.499zm.059-.047a.906.906 0 0 1 .029-.02l1.085 1.68.043-.029zm.029-.02a.912.912 0 0 1 .49-.143c.234 0 .401.085.476.13L7.431 17.04a1.087 1.087 0 0 0 1.161-.015zm.966-.012a.482.482 0 0 1 .05.033l-1.17 1.621c.021.016.048.034.078.053zm.05.033c.019.013.03.023.035.027l-1.29 1.529c.022.018.05.04.084.065zm-2.132.045a.42.42 0 0 1 .04-.032l1.197 1.602c.038-.029.07-.056.094-.077l-1.33-1.493zm1.628-.492a.482.482 0 0 1-.008.018l-1.842-.78a1.36 1.36 0 0 0-.018.045zm.895-.205c0-.17-.03-.337-.087-.491l-1.879.687a.572.572 0 0 1-.034-.196zm-.087-.491a1.094 1.094 0 0 0-.008-.02l-1.867.716a.476.476 0 0 1-.004-.009zm-1.342-.938c-.593 0-1.1.362-1.316.873l1.842.779a.571.571 0 0 1-.526.348zm1.6.158a.57.57 0 0 1-.003.043l-1.99-.202a1.436 1.436 0 0 0-.007.107zM8.513 12c-.74 0-1.348.562-1.42 1.284l1.989.202a.571.571 0 0 1-.569.514zm1.674 4.394a.043.043 0 0 1-.004.002l-.533-.846-.533-.846h-.001l-.003.002-.01.007 1.084 1.68zm-.007.004a.572.572 0 0 1-.162.07l-.497-1.938a1.412 1.412 0 0 0-.4.172zm-.167.07h.005l-.486-1.94h-.005zm-.001 0a.57.57 0 0 1-.221.01l.302-1.977a1.432 1.432 0 0 0-.555.025l.474 1.943zm-.221.01a.43.43 0 0 1-.022-.003l.38-1.964a1.523 1.523 0 0 0-.056-.01L9.79 16.48zm-.022-.003a.573.573 0 0 1-.296-.157l1.414-1.415a1.426 1.426 0 0 0-.738-.392zm-.404-.307a.597.597 0 0 1-.018-.04l1.854-.752a1.405 1.405 0 0 0-.045-.098zm-.018-.04a.571.571 0 0 1 .126-.619l1.414 1.415c.42-.42.522-1.034.314-1.547zm-.729.877l-.028.052 1.748.97.03-.054zm-.028.052a1.294 1.294 0 0 0-.04.072l1.745.975.043-.077zm-2.628-2.138a.5.5 0 0 1-.007.018l-1.842-.78-.018.045zm-.007.018a.571.571 0 0 1-.527.348v-2c-.593 0-1.1.362-1.315.873z" fill="#fff" mask="url(#b)"/><path d="M17.553 11.357H6.41a.929.929 0 0 0-.929.929v3.086c0 1.175.953 2.128 2.129 2.128h8.743a2.129 2.129 0 0 0 2.128-2.128v-3.086a.929.929 0 0 0-.928-.929z" fill="#475569" stroke="#1e293b"/><g fill="#94a3b8"><rect height=".857" rx=".214" width="4.2" x="9.969" y="15.685"/><rect height=".857" rx=".214" width=".857" x="6.41" y="14.528"/><rect height=".857" rx=".214" width=".857" x="7.696" y="14.528"/><rect height=".857" rx=".214" width=".857" x="8.981" y="14.528"/><rect height=".857" rx=".214" width=".857" x="10.269" y="14.528"/><rect height=".857" rx=".214" width=".857" x="11.554" y="14.528"/><rect height=".857" rx=".214" width=".857" x="12.84" y="14.528"/><rect height=".857" rx=".214" width=".857" x="14.125" y="14.528"/><rect height=".857" rx=".214" width=".857" x="15.41" y="14.528"/><rect height=".857" rx=".214" width=".857" x="16.696" y="14.528"/><rect height=".857" rx=".214" width=".857" x="7.054" y="13.457"/><rect height=".857" rx=".214" width=".857" x="8.34" y="13.457"/><rect height=".857" rx=".214" width=".857" x="9.625" y="13.457"/><rect height=".857" rx=".214" width=".857" x="10.91" y="13.457"/><rect height=".857" rx=".214" width=".857" x="12.196" y="13.457"/><rect height=".857" rx=".214" width=".857" x="13.481" y="13.457"/><rect height=".857" rx=".214" width=".857" x="14.769" y="13.457"/><rect height=".857" rx=".214" width=".857" x="16.054" y="13.457"/><rect height=".857" rx=".214" width=".857" x="6.41" y="12.386"/><rect height=".857" rx=".214" width=".857" x="7.696" y="12.386"/><rect height=".857" rx=".214" width=".857" x="8.981" y="12.386"/><rect height=".857" rx=".214" width=".857" x="10.269" y="12.386"/><rect height=".857" rx=".214" width=".857" x="11.554" y="12.386"/><rect height=".857" rx=".214" width=".857" x="12.84" y="12.386"/><rect height=".857" rx=".214" width=".857" x="14.125" y="12.386"/><rect height=".857" rx=".214" width=".857" x="15.41" y="12.386"/><rect height=".857" rx=".214" width=".857" x="16.696" y="12.386"/></g><path d="M17.553 4.5H6.41a.929.929 0 0 0-.929.929v4.285a.93.93 0 0 0 .929.929h11.143a.929.929 0 0 0 .928-.929V5.43a.929.929 0 0 0-.928-.929z" fill="#e2e8f0" stroke="#1e293b"/><path d="M15.764 7.453a.627.627 0 0 0-.22-.154l-.109-.052-1.52-.72a1.513 1.513 0 0 0-.127-.055.349.349 0 0 0-.104-.02h-.014a.274.274 0 0 0-.2.09.315.315 0 0 0-.014.4l.007.008a.692.692 0 0 0 .182.13l.202.097.57.276.362.175-.802.391-.319.155a.564.564 0 0 0-.188.134.285.285 0 0 0-.069.192.29.29 0 0 0 .07.205.28.28 0 0 0 .192.097h.028a.307.307 0 0 0 .108-.019.472.472 0 0 0 .12-.045l1.537-.721.063-.03a.163.163 0 0 0 .054-.028c.176-.086.265-.195.265-.322a.284.284 0 0 0-.074-.184zM12.848 5.94a.337.337 0 0 0-.22-.082h-.016a.25.25 0 0 0-.144.05.319.319 0 0 0-.035.03l-.007.009a.993.993 0 0 0-.12.195l-.152.333-1.036 2.257-.003.005a.525.525 0 0 0-.065.23v.031a.292.292 0 0 0 .106.206.334.334 0 0 0 .219.082h.017a.244.244 0 0 0 .184-.086.643.643 0 0 0 .116-.199l.094-.206 1.097-2.386a.554.554 0 0 0 .05-.138.407.407 0 0 0 .017-.1.277.277 0 0 0-.102-.231zM10.49 8.294l.007.01a.312.312 0 0 1-.006.403l-.011.01a.325.325 0 0 1-.196.078h-.015a.4.4 0 0 1-.1-.017.542.542 0 0 1-.129-.048l-1.508-.709-.094-.043a.477.477 0 0 0-.034-.017c-.072-.032-.281-.125-.281-.33 0-.064.022-.126.061-.176a.608.608 0 0 1 .22-.164l.022-.009.069-.033 1.543-.73c.041-.02.083-.039.126-.055l.03-.007a.481.481 0 0 1 .069-.006h.015c.017 0 .034.002.05.005a.302.302 0 0 1 .064.021h-.01a.081.081 0 0 1 .001 0h.01c.03.014.058.033.083.055a.29.29 0 0 1 .086.217.286.286 0 0 1-.068.197.563.563 0 0 1-.188.134h-.005l-1.126.545 1.135.55a.818.818 0 0 1 .156.1l.014.012z" fill="#1e293b"/><path clip-rule="evenodd" d="M5.428 14.285c.237 0 .429.192.429.429v1.443a.428.428 0 0 1-.857 0v-1.443c0-.237.192-.429.428-.429zm1.029-.942c.236 0 .428.192.428.428v2.386a.428.428 0 0 1-.857 0v-2.386c0-.236.192-.428.429-.428zm1.028.942c.237 0 .429.192.429.429v1.443a.428.428 0 0 1-.857 0v-1.443c0-.237.191-.429.428-.429zm2.695 1.325a.429.429 0 0 1 0 .607l-1.02 1.02a.428.428 0 1 1-.607-.606l.056-.056.322-.322.133-.132.51-.51a.429.429 0 0 1 .606 0z" fill="#fde68a" fill-rule="evenodd"/><path clip-rule="evenodd" d="M8.513 13c.237 0 .429.192.429.428v2.729a.43.43 0 0 1-.429.429.428.428 0 0 1-.428-.429v-2.729c0-.236.192-.428.428-.428z" fill="#fde68a" fill-rule="evenodd"/><path d="M8.942 16.157a.43.43 0 0 1-.011.096l.133-.132c-.071.012-.097-.007-.122-.079z" fill="#fde68a"/><path d="M5.857 16.157a.428.428 0 0 1-.857 0v.913c0 2.057 1.8 1.928 2.656 1.928.686 0 1.257-.57 1.457-.857.2-.285 1.067-1.924 1.067-1.924l-1.02 1.02a.428.428 0 1 1-.607-.606l.056-.056a.429.429 0 0 1-.524-.418c-.068.062-.103.058-.171 0a.428.428 0 0 1-.857 0c-.076.067-.102.06-.172 0a.428.428 0 0 1-.857 0c-.068.069-.107.067-.171 0z" fill="#fde68a"/><path clip-rule="evenodd" d="M6.885 16.157c.01.01.02.017.029.023.042.031.069.034.114 0a.43.43 0 0 0 .029-.023v-1.443a.427.427 0 0 1 .428-.429.429.429 0 0 1 .429.429v1.443a.324.324 0 0 0 .038.03c.037.022.066.02.104-.006a.332.332 0 0 0 .029-.024v-2.739a.428.428 0 0 1 .857.01v2.614c.025.072.051.09.122.079l.51-.51a.43.43 0 0 1 .368-.121.427.427 0 0 1 .238.726l-.128.242a112.74 112.74 0 0 1-.588 1.084l-.092.164a6.79 6.79 0 0 1-.259.436c-.2.285-.771.856-1.457.856L7.513 19c-.9.007-2.513.019-2.513-1.929v-2.356a.427.427 0 0 1 .428-.429c.237 0 .429.192.429.429v1.443c.01.01.02.02.029.027.04.032.072.032.114-.001a.339.339 0 0 0 .028-.026v-2.386a.427.427 0 0 1 .74-.293c.073.076.117.18.117.293v2.386zm.44-3.52a1.429 1.429 0 0 0-2.225.687 1.43 1.43 0 0 0-1.1 1.39v2.356c0 .66.146 1.241.459 1.718a2.5 2.5 0 0 0 1.173.945c.7.282 1.498.272 1.9.267l.124-.002c.62 0 1.134-.255 1.487-.503a3.35 3.35 0 0 0 .79-.78c.141-.202.442-.751.668-1.166l.322-.601.09-.169a1.429 1.429 0 0 0-1.071-2.293v-1.058a1.428 1.428 0 0 0-2.618-.792z" fill="#000" fill-rule="evenodd"/><path clip-rule="evenodd" d="M18.572 14.285a.428.428 0 0 0-.429.429v1.443a.428.428 0 1 0 .857 0v-1.443a.428.428 0 0 0-.428-.429zm-1.029.172a.428.428 0 0 0-.428.428v1.272a.428.428 0 1 0 .857 0v-1.272a.428.428 0 0 0-.429-.428zm-1.028-.686a.428.428 0 0 0-.428.429v1.957a.428.428 0 1 0 .856 0V14.2a.429.429 0 0 0-.428-.429zm-2.695 1.84a.429.429 0 0 0 0 .605l1.02 1.021a.428.428 0 1 0 .607-.606l-.056-.056-.322-.322-.133-.132-.51-.51a.429.429 0 0 0-.606 0z" fill="#fde68a" fill-rule="evenodd"/><path clip-rule="evenodd" d="M15.487 13a.428.428 0 0 0-.429.428v2.729a.429.429 0 1 0 .857 0v-2.729a.428.428 0 0 0-.428-.428z" fill="#fde68a" fill-rule="evenodd"/><path d="M15.058 16.157c0 .033.004.066.011.096l-.133-.132c.071.012.097-.007.122-.079z" fill="#fde68a"/><path d="M18.143 16.157a.428.428 0 1 0 .857 0v.913c0 2.057-1.8 1.928-2.656 1.928-.686 0-1.257-.57-1.457-.857-.2-.285-1.067-1.924-1.067-1.924l1.02 1.02a.428.428 0 1 0 .607-.606l-.056-.056a.429.429 0 0 0 .524-.418c.068.062.103.058.172 0a.428.428 0 1 0 .856 0c.076.067.102.06.172 0a.428.428 0 1 0 .857 0c.068.069.107.067.171 0z" fill="#fde68a"/><path clip-rule="evenodd" d="M17.115 16.157a.567.567 0 0 1-.029.023c-.042.031-.069.034-.114 0a.425.425 0 0 1-.029-.023V14.2a.427.427 0 1 0-.857 0v1.957a.33.33 0 0 1-.038.03c-.037.022-.066.02-.104-.006a.335.335 0 0 1-.029-.024v-2.729a.428.428 0 1 0-.857 0v2.614c-.025.072-.051.09-.121.079l-.51-.51a.433.433 0 0 0-.369-.121.427.427 0 0 0-.238.726l.128.242.103.192a71.555 71.555 0 0 0 .577 1.056c.113.2.208.362.259.436.2.285.771.856 1.457.856l.143.001c.9.007 2.513.019 2.513-1.929v-2.356a.427.427 0 0 0-.428-.429.428.428 0 0 0-.429.429v1.443c-.01.01-.02.02-.029.027-.04.032-.072.032-.114-.001a.345.345 0 0 1-.028-.026v-1.272a.426.426 0 0 0-.429-.428.429.429 0 0 0-.428.428zm.629-2.686c.032.004.064.01.095.016A1.428 1.428 0 0 1 20 14.713v2.357c0 .66-.146 1.241-.459 1.718a2.5 2.5 0 0 1-1.173.945c-.7.282-1.498.272-1.9.267l-.124-.002c-.62 0-1.134-.255-1.487-.503a3.35 3.35 0 0 1-.79-.78c-.141-.202-.442-.751-.668-1.166a96.223 96.223 0 0 1-.322-.601l-.09-.169a1.429 1.429 0 0 1 1.071-2.293v-1.058a1.428 1.428 0 0 1 2.709-.635c.415.074.768.328.977.678z" fill="#000" fill-rule="evenodd"/></svg>