<svg fill="none" height="24" width="24" xmlns="http://www.w3.org/2000/svg"><path d="m6.063 7.946.404.287-.404-.287a3.374 3.374 0 0 0 -.258 3.546l.436-.226-.436.226c.125.24.275.462.446.665.01.214.042.427.094.637.14.57.424 1.08.804 1.506.379.424.847.753 1.356.982a4.492 4.492 0 0 0 1.658.385l.146.004h.574v3.723a1.102 1.102 0 1 0 2.204 0v-3.724h.564c.575 0 1.15-.108 1.686-.323a4.071 4.071 0 0 0 1.434-.964c.406-.427.712-.948.867-1.533.061-.228.097-.46.109-.694.17-.203.321-.425.446-.665a3.374 3.374 0 0 0 -.259-3.546 3.692 3.692 0 0 0 -.22-.28c.06-.405.045-.824-.052-1.238-.216-.93-.804-1.691-1.56-2.196a4.44 4.44 0 0 0 -2.552-.726 4.524 4.524 0 0 0 -1.55.311 4.523 4.523 0 0 0 -1.552-.31 4.44 4.44 0 0 0 -2.554.726c-.756.505-1.345 1.267-1.56 2.197a3.334 3.334 0 0 0 -.052 1.24c-.077.089-.15.182-.22.278zm7.025 2.877v-.35l.476-.477a.124.124 0 0 1 .176 0l.35-.35-.35.35a.124.124 0 0 1 0 .175z" fill="#78350f" stroke="#fafafa" stroke-linecap="round" stroke-linejoin="round" stroke-width=".992"/><path d="m10.175 14.609h.014l.145.004h3.319c.444 0 .885-.083 1.29-.247.406-.163.771-.404 1.063-.71.292-.308.505-.675.611-1.077.073-.275.095-.558.064-.837.235-.212.43-.46.574-.737l-.5-.26.5.26a2.316 2.316 0 0 0 -.182-2.446 2.736 2.736 0 0 0 -.53-.556c.16-.425.195-.884.09-1.335-.148-.635-.555-1.18-1.116-1.555a3.381 3.381 0 0 0 -1.942-.548 3.405 3.405 0 0 0 -1.575.417 3.404 3.404 0 0 0 -1.575-.418 3.381 3.381 0 0 0 -1.943.547c-.561.375-.97.921-1.117 1.556-.105.452-.07.912.092 1.336a2.734 2.734 0 0 0 -.53.556l.458.326-.458-.326a2.316 2.316 0 0 0 -.181 2.446c.143.277.338.525.573.737-.029.266-.011.535.054.798.096.39.292.75.565 1.055.273.304.616.549 1.001.721.385.173.807.272 1.236.293z" fill="#a3e635" stroke="#365314" stroke-linecap="round" stroke-linejoin="round" stroke-width="1.125"/><g fill="#78350f"><path clip-rule="evenodd" d="m11.38 15.175v-1.125h1.212v5.344a.606.606 0 1 1 -1.212 0z" fill-rule="evenodd"/><path d="m12.592 10.267-1.03 1.03a.618.618 0 0 0 -.163.285l.708.707.043.048a.617.617 0 0 0 .288-.163l.154-.154z"/><path d="m12.107 12.29-.708-.708a.62.62 0 0 0 .751.755.605.605 0 0 0 -.043-.047z"/><path d="m10.454 10.637a.62.62 0 0 0 -.876.876l1.653 1.653a.62.62 0 0 0 .149.11v-1.714z"/><path d="m11.38 11.562v1.714a.62.62 0 0 0 .77-.939.62.62 0 0 1 -.75-.755z"/><path d="m12.107 13.166a.62.62 0 0 1 -.727.11v.774h1.212v-2.03l-.154.154a.617.617 0 0 1 -.288.163.62.62 0 0 1 -.043.829zm.485-3.468a.606.606 0 1 0 -1.212 0v1.864l.02.02a.618.618 0 0 1 .161-.284l1.03-1.03v-.57zm1.498.824a.62.62 0 1 0 -.876-.877l-.622.622v1.753z"/></g></svg>