<svg fill="none" height="24" width="24" xmlns="http://www.w3.org/2000/svg" xmlns:xlink="http://www.w3.org/1999/xlink"><clipPath id="a"><path d="m0 0h16.74v16h-16.74z" transform="translate(4 4)"/></clipPath><g clip-path="url(#a)"><path d="m7.208 19.846a.713.713 0 0 0 .584.139c.258-.061.5-.18.705-.347l3.869-2.843 3.878 2.843c.205.167.445.285.703.346a.688.688 0 0 0 .584-.138.779.779 0 0 0 .306-.518 1.67 1.67 0 0 0 -.106-.765l-1.53-4.554 3.908-2.803c.22-.141.403-.332.535-.557a.73.73 0 0 0 .053-.604.753.753 0 0 0 -.39-.445 1.752 1.752 0 0 0 -.765-.143l-4.791.037-1.455-4.58a1.716 1.716 0 0 0 -.372-.682.746.746 0 0 0 -.55-.232.734.734 0 0 0 -.548.232c-.172.198-.3.43-.375.681l-1.455 4.581-4.791-.037c-.26-.01-.52.04-.76.143a.746.746 0 0 0 -.389.445.734.734 0 0 0 .05.604c.134.225.318.415.538.557l3.908 2.803-1.53 4.554a1.67 1.67 0 0 0 -.106.765c.025.205.13.391.292.518zm1.244-1.701a.12.12 0 0 1 0-.067l1.455-4.106a.779.779 0 0 0 .029-.428.572.572 0 0 0 -.267-.333l-3.594-2.451c-.025-.02-.033-.04-.027-.059s.025-.019.056-.019l4.354.095a.66.66 0 0 0 .409-.099.623.623 0 0 0 .237-.356l1.227-4.174c0-.032.02-.047.039-.047s.03.015.037.047l1.226 4.174a.69.69 0 0 0 .244.356.658.658 0 0 0 .412.1l4.346-.096c.031 0 .05 0 .056.02.006.019 0 .038-.029.058l-3.592 2.45a.605.605 0 0 0 -.263.333.707.707 0 0 0 .033.428l1.447 4.106a.12.12 0 0 1 0 .067c0 .013-.025 0-.059-.018l-3.45-2.654a.637.637 0 0 0 -.405-.151.671.671 0 0 0 -.412.151l-3.443 2.654c-.03.025-.052.031-.066.018z" fill="#fc0"/></g></svg>