<svg fill="none" height="24" width="24" xmlns="http://www.w3.org/2000/svg"><mask id="a" fill="#000" height="16" maskUnits="userSpaceOnUse" width="8" x="8" y="4"><path d="M8 4h8v16H8z" fill="#fff"/><path d="M9.429 7.188h5.142V6.75c0-.146-.085-.438-.428-.438h-.429C13.571 5.875 13.03 5 12 5s-1.571.875-1.714 1.313h-.429c-.343 0-.428.291-.428.437zm.857 3.937c-.143.292-.429 1.05-.429 1.75h4.286c0-.7-.286-1.458-.429-1.75z"/><path clip-rule="evenodd" d="M9.857 12.875c0 .279-.09 1.03-.218 1.943h4.722c-.128-.913-.218-1.664-.218-1.943zM14.5 17h-5c-.13.85-.403 1.404-.5 2h6c-.097-.596-.37-1.15-.5-2zm-.357-7.188l-.429 1.313h-3.428l-.429-1.313z" fill-rule="evenodd"/><path d="M14.36 14.818H9.64c-.084.598-.04 1.531-.14 2.182h5c-.1-.65-.056-1.584-.14-2.182zm-4.074-7.63l-.429 2.625h4.286l-.429-2.626h-3.428z"/></mask><mask id="b" fill="#000" height="16" maskUnits="userSpaceOnUse" width="8" x="8" y="4"><path d="M8 4h8v16H8z" fill="#fff"/><path d="M9.429 7.188h5.142V6.75c0-.146-.085-.438-.428-.438h-.429C13.571 5.875 13.03 5 12 5s-1.571.875-1.714 1.313h-.429c-.343 0-.428.291-.428.437zm.857 3.937c-.143.292-.429 1.05-.429 1.75h4.286c0-.7-.286-1.458-.429-1.75z"/><path clip-rule="evenodd" d="M9.857 12.875c0 .279-.09 1.03-.218 1.943h4.722c-.128-.913-.218-1.664-.218-1.943zM14.5 17h-5c-.13.85-.403 1.404-.5 2h6c-.097-.596-.37-1.15-.5-2zm-.357-7.188l-.429 1.313h-3.428l-.429-1.313z" fill-rule="evenodd"/><path d="M14.36 14.818H9.64c-.084.598-.04 1.531-.14 2.182h5c-.1-.65-.056-1.584-.14-2.182zm-4.074-7.63l-.429 2.625h4.286l-.429-2.626h-3.428z"/></mask><g fill="#171717"><path d="M9.429 7.188h5.142V6.75c0-.146-.085-.438-.428-.438h-.429C13.571 5.875 13.03 5 12 5s-1.571.875-1.714 1.313h-.429c-.343 0-.428.291-.428.437zm.857 3.937c-.143.292-.429 1.05-.429 1.75h4.286c0-.7-.286-1.458-.429-1.75z"/><path clip-rule="evenodd" d="M9.857 12.875c0 .279-.09 1.03-.218 1.943h4.722c-.128-.913-.218-1.664-.218-1.943zM14.5 17h-5c-.13.85-.403 1.404-.5 2h6c-.097-.596-.37-1.15-.5-2zm-.357-7.188l-.429 1.313h-3.428l-.429-1.313z" fill-rule="evenodd"/><path d="M14.36 14.818H9.64c-.084.598-.04 1.531-.14 2.182h5c-.1-.65-.056-1.584-.14-2.182zm-4.074-7.63l-.429 2.625h4.286l-.429-2.626h-3.428z"/></g><path d="M9.857 6.813h.428v-1h-.428zm.429.875h3.428v-1h-3.428zm3.857 1.625H9.857v1h4.286zm-3.857 2.312h3.428v-1h-3.428zm3.857.75H9.857v1h4.286zm-4.504 2.943h4.722v-1H9.639zM14.5 16.5h-5v1h5zM9 19l-.987-.161A1 1 0 0 0 9 20zm1.286-7.875l.898.44a1 1 0 0 0 .052-.75zm-.429-1.313l-.987-.16a1 1 0 0 0 .037.47zm.429-2.624l.987.16a1 1 0 0 0-.987-1.16zm-.857 0h-1a1 1 0 0 0 1 1zm.857-.875v1a1 1 0 0 0 .95-.69zM15 19v1a1 1 0 0 0 .987-1.161zm-1.286-7.875l-.95-.31a1 1 0 0 0 .052.75zm.429-1.313l.95.31a1 1 0 0 0 .037-.47zm-.429-2.624v-1a1 1 0 0 0-.987 1.16zm.857 0v1a1 1 0 0 0 1-1zm-.857-.875l-.95.31a1 1 0 0 0 .95.69zM9.64 14.818l-.99-.138zm4.722 0l-.99.138zM14.5 17l.989-.151zm-5 0l-.989-.151zm1.357-4.125c0-.225.048-.492.123-.754.074-.26.16-.466.204-.556l-1.796-.88c-.177.361-.53 1.277-.53 2.19h2zm.38-2.06l-.43-1.313-1.9.62.428 1.313 1.901-.62zm-.393-.841l.429-2.625-1.974-.323-.429 2.625zm-.558-3.787h-.857v2h.857zm.143 1V6.75h-2v.438h2zm0-.437a.506.506 0 0 1-.098.303.629.629 0 0 1-.22.192.557.557 0 0 1-.254.067v-2c-.506 0-.914.24-1.16.588a1.49 1.49 0 0 0-.268.85zm.807-.127c.027-.082.118-.265.27-.413A.677.677 0 0 1 12 6V4c-.825 0-1.457.36-1.885.774a3.129 3.129 0 0 0-.78 1.228l1.901.62zm-1.379.69h.429v-2h-.429zm5.286 5.562c0-.913-.354-1.829-.53-2.19l-1.797.88c.044.09.13.296.204.556.075.262.123.529.123.754zm-.478-1.44l.429-1.312-1.902-.62-.428 1.312 1.9.62zm.465-1.784l-.43-2.625-1.974.323.429 2.625 1.974-.323zm-1.416-1.463h.857v-2h-.857zm1.857-1V6.75h-2v.438zm0-.438c0-.229-.059-.553-.268-.85a1.393 1.393 0 0 0-1.16-.588v2a.557.557 0 0 1-.255-.067.629.629 0 0 1-.22-.192.506.506 0 0 1-.097-.303zm-.906-.748a3.13 3.13 0 0 0-.78-1.228A2.675 2.675 0 0 0 12 4v2c.203 0 .357.078.493.21.153.148.244.331.27.413l1.902-.62zM12 20h3v-2h-3zm2.143-14.688h-.429v2h.429zM12 18H9v2h3zm-1.37-3.044c.122-.88.227-1.715.227-2.081h-2c0 .192-.076.859-.208 1.805l1.98.276zm4.721-.276c-.132-.946-.208-1.613-.208-1.805h-2c0 .366.105 1.2.227 2.08zm.636 4.159c-.062-.38-.18-.744-.268-1.034a6.63 6.63 0 0 1-.23-.956l-1.978.302c.076.497.194.903.294 1.233.106.35.173.56.208.777zm-.498-1.99a8.995 8.995 0 0 1-.065-.99c-.011-.366-.022-.814-.073-1.18l-1.98.277c.032.232.041.55.054.964.011.376.026.835.086 1.231zm-5.502 2.312c.035-.217.102-.428.208-.777.1-.33.218-.736.293-1.233l-1.977-.302a6.633 6.633 0 0 1-.23.956c-.088.29-.206.654-.268 1.034zm.502-2.01c.06-.396.075-.855.086-1.23.013-.414.022-.732.055-.965l-1.981-.276c-.051.365-.062.813-.073 1.178a9 9 0 0 1-.065.991z" fill="#fff" mask="url(#a)"/><path d="M10.667 6.864a.5.5 0 0 0-.14-.114.5.5 0 0 0 .234-.282 1.11 1.11 0 0 1 .032-.084c.161-.381.564-.884 1.207-.884s1.046.503 1.207.884a.97.97 0 0 1 .032.084.5.5 0 0 0 .233.282.5.5 0 0 0-.251.518l.409 2.505-.391 1.197a.5.5 0 0 0 .026.375c.092.186.266.633.342 1.109a2.7 2.7 0 0 1 .036.421c0 .266.065.84.154 1.508.021.161.044.33.069.504.034.251.045.58.057.959v.004c.007.222.014.457.028.681.011.185.028.37.055.545.063.415.158.764.248 1.067l.06.198.049.159H9.638a35.426 35.426 0 0 0 .108-.357c.09-.303.185-.652.248-1.067.027-.174.043-.36.055-.545.014-.224.021-.46.028-.681v-.004c.012-.378.023-.708.058-.96l.068-.503c.089-.668.154-1.242.154-1.508a2.7 2.7 0 0 1 .036-.421 4.37 4.37 0 0 1 .342-1.11.5.5 0 0 0 .026-.374l-.39-1.197.408-2.505a.5.5 0 0 0-.112-.404zM7.802 17.66l.479.145-.479-.145-.03.098.479.146-.479-.146-.003.01c-.081.267-.189.62-.25.99A1.5 1.5 0 0 0 9 20.5h6a1.5 1.5 0 0 0 1.48-1.742 7.558 7.558 0 0 0-.25-.99l-.002-.01-.03-.098a6.148 6.148 0 0 1-.215-.887 8.587 8.587 0 0 1-.06-.93l-.002-.076v-.014a11.13 11.13 0 0 0-.075-1.142c-.134-.963-.203-1.587-.203-1.736 0-.671-.168-1.328-.333-1.803l.259-.794a1.5 1.5 0 0 0 .054-.707l-.188-1.157c.384-.27.636-.719.636-1.226V6.75a1.99 1.99 0 0 0-.36-1.138 1.875 1.875 0 0 0-1.08-.74 3.615 3.615 0 0 0-.398-.457A3.175 3.175 0 0 0 12 3.5c-.982 0-1.732.43-2.233.915a3.615 3.615 0 0 0-.398.457 1.87 1.87 0 0 0-1.08.74c-.283.4-.36.832-.36 1.138v.438c0 .507.252.955.637 1.226l-.19 1.157a1.5 1.5 0 0 0 .055.707l.476-.155-.476.155.26.794c-.166.475-.334 1.132-.334 1.803 0 .149-.07.773-.203 1.736-.051.367-.065.8-.075 1.141v.015l-.003.076a8.31 8.31 0 0 1-.059.93 6.147 6.147 0 0 1-.215.887z" fill="#171717" stroke="#fff" stroke-linejoin="round"/><path d="M9.429 7.188h5.142V6.75c0-.146-.085-.438-.428-.438h-.429C13.571 5.875 13.03 5 12 5s-1.571.875-1.714 1.313h-.429c-.343 0-.428.291-.428.437z" fill="#b91c1c"/><path d="M10.286 11.125c-.143.292-.429 1.05-.429 1.75h4.286c0-.7-.286-1.458-.429-1.75z" fill="#fff"/><path clip-rule="evenodd" d="M9.857 12.875c0 .279-.09 1.03-.218 1.943h4.722c-.128-.913-.218-1.664-.218-1.943zM14.5 17h-5c-.13.85-.403 1.404-.5 2h6c-.097-.596-.37-1.15-.5-2zm-.357-7.188l-.429 1.313h-3.428l-.429-1.313z" fill="#b91c1c" fill-rule="evenodd"/><path d="M14.36 14.818H9.64c-.084.598-.04 1.531-.14 2.182h5c-.1-.65-.056-1.584-.14-2.182z" fill="#fff"/><path d="M10.286 7.188l-.429 2.625h4.286l-.429-2.626h-3.428z" fill="#e5e7eb"/><path d="M9.857 6.813h.428v-1h-.428zm.429.875h3.428v-1h-3.428zm3.857 1.625H9.857v1h4.286zm-3.857 2.312h3.428v-1h-3.428zm3.857.75H9.857v1h4.286zm-4.504 2.943h4.722v-1H9.639zM14.5 16.5h-5v1h5zM9 19l-.987-.161A1 1 0 0 0 9 20zm1.286-7.875l.898.44a1 1 0 0 0 .052-.75zm-.429-1.313l-.987-.16a1 1 0 0 0 .037.47zm.429-2.624l.987.16a1 1 0 0 0-.987-1.16zm-.857 0h-1a1 1 0 0 0 1 1zm.857-.875v1a1 1 0 0 0 .95-.69zM15 19v1a1 1 0 0 0 .987-1.161zm-1.286-7.875l-.95-.31a1 1 0 0 0 .052.75zm.429-1.313l.95.31a1 1 0 0 0 .037-.47zm-.429-2.624v-1a1 1 0 0 0-.987 1.16zm.857 0v1a1 1 0 0 0 1-1zm-.857-.875l-.95.31a1 1 0 0 0 .95.69zM9.64 14.818l-.99-.138zm4.722 0l-.99.138zM14.5 17l.989-.151zm-5 0l-.989-.151zm1.357-4.125c0-.225.048-.492.123-.754.074-.26.16-.466.204-.556l-1.796-.88c-.177.361-.53 1.277-.53 2.19h2zm.38-2.06l-.43-1.313-1.9.62.428 1.313 1.901-.62zm-.393-.841l.429-2.625-1.974-.323-.429 2.625zm-.558-3.787h-.857v2h.857zm.143 1V6.75h-2v.438h2zm0-.437a.506.506 0 0 1-.098.303.629.629 0 0 1-.22.192.557.557 0 0 1-.254.067v-2c-.506 0-.914.24-1.16.588a1.49 1.49 0 0 0-.268.85zm.807-.127c.027-.082.118-.265.27-.413A.677.677 0 0 1 12 6V4c-.825 0-1.457.36-1.885.774a3.129 3.129 0 0 0-.78 1.228l1.901.62zm-1.379.69h.429v-2h-.429zm5.286 5.562c0-.913-.354-1.829-.53-2.19l-1.797.88c.044.09.13.296.204.556.075.262.123.529.123.754zm-.478-1.44l.429-1.312-1.902-.62-.428 1.312 1.9.62zm.465-1.784l-.43-2.625-1.974.323.429 2.625 1.974-.323zm-1.416-1.463h.857v-2h-.857zm1.857-1V6.75h-2v.438zm0-.438c0-.229-.059-.553-.268-.85a1.393 1.393 0 0 0-1.16-.588v2a.557.557 0 0 1-.255-.067.629.629 0 0 1-.22-.192.506.506 0 0 1-.097-.303zm-.906-.748a3.13 3.13 0 0 0-.78-1.228A2.675 2.675 0 0 0 12 4v2c.203 0 .357.078.493.21.153.148.244.331.27.413l1.902-.62zM12 20h3v-2h-3zm2.143-14.688h-.429v2h.429zM12 18H9v2h3zm-1.37-3.044c.122-.88.227-1.715.227-2.081h-2c0 .192-.076.859-.208 1.805l1.98.276zm4.721-.276c-.132-.946-.208-1.613-.208-1.805h-2c0 .366.105 1.2.227 2.08zm.636 4.159c-.062-.38-.18-.744-.268-1.034a6.63 6.63 0 0 1-.23-.956l-1.978.302c.076.497.194.903.294 1.233.106.35.173.56.208.777zm-.498-1.99a8.995 8.995 0 0 1-.065-.99c-.011-.366-.022-.814-.073-1.18l-1.98.277c.032.232.041.55.054.964.011.376.026.835.086 1.231zm-5.502 2.312c.035-.217.102-.428.208-.777.1-.33.218-.736.293-1.233l-1.977-.302a6.633 6.633 0 0 1-.23.956c-.088.29-.206.654-.268 1.034zm.502-2.01c.06-.396.075-.855.086-1.23.013-.414.022-.732.055-.965l-1.981-.276c-.051.365-.062.813-.073 1.178a9 9 0 0 1-.065.991z" fill="#7f1d1d" mask="url(#b)"/></svg>