<svg fill="none" height="24" width="24" xmlns="http://www.w3.org/2000/svg"><mask id="a" fill="#000" height="13" maskUnits="userSpaceOnUse" width="12" x="9.012" y="8"><path d="M9.012 8h12v13h-12z" fill="#fff"/><path clip-rule="evenodd" d="M11.14 14.755l-.007-.01.015.02zm.254.43l.154.288a128.56 128.56 0 0 1-.154-.287z" fill-rule="evenodd"/><path d="M16.118 14.77a.817.817 0 0 0 .043-.035v-1.908a.638.638 0 0 1 .054-.257.646.646 0 0 1 .579-.385h.012a.644.644 0 0 1 .646.642v1.908l.042.039c.064.05.113.05.173.002a.443.443 0 0 0 .043-.04V12.57a.64.64 0 0 1 .486-.623l.013-.003a.648.648 0 0 1 .791.626v3.535c0 2.92-2.43 2.902-3.784 2.892H15c-1.032 0-1.892-.858-2.194-1.286-.076-.11-.22-.352-.39-.653l-.138-.246c-.16-.287-.333-.604-.492-.899l-.002-.002-.216-.4-.02-.038a128.56 128.56 0 0 1-.348-.65.66.66 0 0 1-.067-.079l.007.01.008.01a.66.66 0 0 0 .053.06s.074.141.193.362l.154.287.02.038.216.4.002.002a92.522 92.522 0 0 0 .63 1.145c.17.3.313.543.39.653.302.428 1.162 1.285 2.194 1.285l.216.001c1.354.01 3.784.029 3.784-2.892V12.57a.645.645 0 0 0-.79-.626l-.014.003a.646.646 0 0 0-.486.623v2.165a.443.443 0 0 1-.043.04c-.06.049-.11.049-.173-.001a.472.472 0 0 1-.042-.039v-1.908a.64.64 0 0 0-.646-.642h-.012c-.013 0-.026 0-.04.002a.646.646 0 0 0-.593.64v1.908a.817.817 0 0 1-.043.035c-.063.046-.103.05-.172 0a.597.597 0 0 1-.043-.035V11.8a.639.639 0 0 0-.042-.23l-.002-.005-.002-.004a.646.646 0 0 0-1.244.239v2.936a.485.485 0 0 1-.058.043c-.056.034-.1.033-.157-.008a.475.475 0 0 1-.043-.035v-4.092A.642.642 0 0 0 13.71 10a.644.644 0 0 0-.645.643v3.92c-.038.107-.077.135-.184.117l-.768-.765a.632.632 0 0 0-.041-.037l-.007-.006a.65.65 0 0 0-.506-.138.644.644 0 0 0-.411 1.03l-.008-.01-.007-.01a.641.641 0 0 1-.054-.66l-.895-.446a1.642 1.642 0 0 0 .188 1.758l.14.262.155.288a109.035 109.035 0 0 0 .88 1.605c.163.288.33.577.441.735a4.53 4.53 0 0 0 1.067 1.047c.481.338 1.153.663 1.945.663l.209.001h.06c.647.006 1.784.015 2.767-.44a3.2 3.2 0 0 0 1.417-1.247c.366-.6.547-1.337.547-2.205V12.57a1.645 1.645 0 0 0-2.656-1.296 1.645 1.645 0 0 0-.537-.09h-.023a1.646 1.646 0 0 0-1.502-1.027A1.648 1.648 0 0 0 13.71 9c-.905 0-1.645.732-1.645 1.643v2.135a1.652 1.652 0 0 0-1.57.429 1.644 1.644 0 0 0-.311.43l.895.447a.643.643 0 0 1 .739-.337.641.641 0 0 1 .247.125l.007.005a.632.632 0 0 1 .04.038l.77.766c.106.017.145-.011.183-.119v-3.92a.644.644 0 0 1 .93-.576.645.645 0 0 1 .36.577v4.092a.39.39 0 0 0 .043.035c.058.041.101.042.157.008a.485.485 0 0 0 .058-.043V11.8a.644.644 0 0 1 .818-.619.646.646 0 0 1 .426.38l.002.005.002.004a.639.639 0 0 1 .042.23v2.936c.016.014.03.026.043.035.069.05.11.046.172 0z"/></mask><mask id="b" height="16" maskUnits="userSpaceOnUse" width="10" x="7" y="4"><path clip-rule="evenodd" d="M7.5 5.036c0-.54.416-1.036 1-1.036h7c.584 0 1 .497 1 1.036v13.928c0 .54-.416 1.036-1 1.036h-7c-.584 0-1-.497-1-1.036z" fill="#0f172a" fill-rule="evenodd"/></mask><mask id="c" height="14" maskUnits="userSpaceOnUse" width="8" x="8" y="5"><path clip-rule="evenodd" d="M8 5.906C8 5.435 8.37 5 8.889 5h6.222c.52 0 .889.435.889.906v12.188c0 .471-.37.906-.889.906H8.89c-.52 0-.889-.435-.889-.906V5.906z" fill="#0f172a" fill-rule="evenodd"/><path clip-rule="evenodd" d="M8 5.906C8 5.435 8.37 5 8.889 5h6.222c.52 0 .889.435.889.906v12.188c0 .471-.37.906-.889.906H8.89c-.52 0-.889-.435-.889-.906V5.906z" fill="#e2e8f0" fill-rule="evenodd"/></mask><path clip-rule="evenodd" d="M11.14 14.755l-.007-.01.015.02zm.254.43l.154.288a128.56 128.56 0 0 1-.154-.287z" fill="#000" fill-rule="evenodd"/><path d="M16.118 14.77a.817.817 0 0 0 .043-.035v-1.908a.638.638 0 0 1 .054-.257.646.646 0 0 1 .579-.385h.012a.644.644 0 0 1 .646.642v1.908l.042.039c.064.05.113.05.173.002a.443.443 0 0 0 .043-.04V12.57a.64.64 0 0 1 .486-.623l.013-.003a.648.648 0 0 1 .791.626v3.535c0 2.92-2.43 2.902-3.784 2.892H15c-1.032 0-1.892-.858-2.194-1.286-.076-.11-.22-.352-.39-.653l-.138-.246c-.16-.287-.333-.604-.492-.899l-.002-.002-.216-.4-.02-.038a128.56 128.56 0 0 1-.348-.65.66.66 0 0 1-.067-.079l.007.01.008.01a.66.66 0 0 0 .053.06s.074.141.193.362l.154.287.02.038.216.4.002.002a92.522 92.522 0 0 0 .63 1.145c.17.3.313.543.39.653.302.428 1.162 1.285 2.194 1.285l.216.001c1.354.01 3.784.029 3.784-2.892V12.57a.645.645 0 0 0-.79-.626l-.014.003a.646.646 0 0 0-.486.623v2.165a.443.443 0 0 1-.043.04c-.06.049-.11.049-.173-.001a.472.472 0 0 1-.042-.039v-1.908a.64.64 0 0 0-.646-.642h-.012c-.013 0-.026 0-.04.002a.646.646 0 0 0-.593.64v1.908a.817.817 0 0 1-.043.035c-.063.046-.103.05-.172 0a.597.597 0 0 1-.043-.035V11.8a.639.639 0 0 0-.042-.23l-.002-.005-.002-.004a.646.646 0 0 0-1.244.239v2.936a.485.485 0 0 1-.058.043c-.056.034-.1.033-.157-.008a.475.475 0 0 1-.043-.035v-4.092A.642.642 0 0 0 13.71 10a.644.644 0 0 0-.645.643v3.92c-.038.107-.077.135-.184.117l-.768-.765a.632.632 0 0 0-.041-.037l-.007-.006a.65.65 0 0 0-.506-.138.644.644 0 0 0-.411 1.03l-.008-.01-.007-.01a.641.641 0 0 1-.054-.66l-.895-.446a1.642 1.642 0 0 0 .188 1.758l.14.262.155.288a109.035 109.035 0 0 0 .88 1.605c.163.288.33.577.441.735a4.53 4.53 0 0 0 1.067 1.047c.481.338 1.153.663 1.945.663l.209.001h.06c.647.006 1.784.015 2.767-.44a3.2 3.2 0 0 0 1.417-1.247c.366-.6.547-1.337.547-2.205V12.57a1.645 1.645 0 0 0-2.656-1.296 1.645 1.645 0 0 0-.537-.09h-.023a1.646 1.646 0 0 0-1.502-1.027A1.648 1.648 0 0 0 13.71 9c-.905 0-1.645.732-1.645 1.643v2.135a1.652 1.652 0 0 0-1.57.429 1.644 1.644 0 0 0-.311.43l.895.447a.643.643 0 0 1 .739-.337.641.641 0 0 1 .247.125l.007.005a.632.632 0 0 1 .04.038l.77.766c.106.017.145-.011.183-.119v-3.92a.644.644 0 0 1 .93-.576.645.645 0 0 1 .36.577v4.092a.39.39 0 0 0 .043.035c.058.041.101.042.157.008a.485.485 0 0 0 .058-.043V11.8a.644.644 0 0 1 .818-.619.646.646 0 0 1 .426.38l.002.005.002.004a.639.639 0 0 1 .042.23v2.936c.016.014.03.026.043.035.069.05.11.046.172 0z" fill="#000"/><path d="M16.161 14.735l.324.381a.5.5 0 0 0 .176-.38h-.5zm-.043.035l.297.402zm-.172 0l.297-.402zm-.043-.035h-.5a.5.5 0 0 0 .168.374zm-.042-3.166l.466-.18v-.001zm-.43-.389l.134-.482zm-.818 3.555l.322.383a.5.5 0 0 0 .178-.383zm-.058.043l-.26-.427zm-.157-.008l.289-.408-.29.408zm-.043-.035h-.5a.5.5 0 0 0 .165.372zm-.36-4.67l-.22.45zm-.93 4.497l.472.165a.499.499 0 0 0 .028-.165zm-.184.119l-.353.354a.5.5 0 0 0 .272.139zm-.768-.766l-.353.354zm-.107-.086l.27-.42zm-.188-.082l-.124.485zm-.26-.013l.076.495-.075-.495zm-.357.181l-.353-.354.352.354zm0 .909l.441-.235a.502.502 0 0 0-.089-.12l-.353.355zm1.077 1.988l.437-.244zm.139.246l-.435.246zm.39.653l.409-.287-.41.287zm2.41 1.286l-.004.5.003-.5zm3.634-6.838l.383-.32zm-1.141 2.576l.361.345a.5.5 0 0 0 .139-.345zm-.043.04l-.313-.39zm-.173-.001l-.309.393.31-.393zm-.042-.039h-.5a.5.5 0 0 0 .145.353zm-.043-2.138l-.466.18zm-.011-.027l-.458.201.458-.2zm-1.183 0l-.458-.2zm-.011.027l-.467-.18zm-4.418 3.316l-.44.239zm6.41-3.966l-.123-.484zm.015.603a.5.5 0 1 0-.99-.142zm-1.308-.358l-.074.494zm-.148-.005l.04.498zm-.923-.683l.443-.23zm-.477-.34l-.074.494zm-1.03-.717l-.477.153.476-.153zm-2.26 3.425l.315-.388zm3.148 5.625a.5.5 0 0 0-.008 1zm.052 1a.5.5 0 1 0 .008-1zm4.674-8.596a.5.5 0 1 0-.642-.767zm-1.34-.183a.5.5 0 0 0 .641.767zm-1.793-.033a.5.5 0 1 0 0-1zm-.029-1a.5.5 0 0 0 .014 1zm-6.37 2.505a.5.5 0 1 0-.446.895zm.726 1.555l-.405.292.405-.293zm5.661-2.56l.01.5zm.945.194l.477.15zm.47-.435l-.112-.487zm-6.425 3.967l.44-.238zm-.216-.4l-.44.237zm4.29-3.946l.467-.182-.002-.003-.464.184zm0-.005l.464-.185v-.001l-.465.186zm-.02 2.794a.454.454 0 0 1-.016.013l.593.805c.027-.02.05-.04.07-.056zm-.016.013l.012-.008a.398.398 0 0 1 .188-.053.358.358 0 0 1 .22.062l-.592.805c.069.05.207.138.397.133a.646.646 0 0 0 .368-.134zm.42 0l.001.001-.008-.007-.664.748c.023.02.05.043.08.064l.592-.805zm.161-2.568a1.14 1.14 0 0 0-.076-.41l-.933.36a.14.14 0 0 1 .01.05h1zm-.838-1.1a1.148 1.148 0 0 0-.307-.042v1a.15.15 0 0 1 .04.005l.267-.964zm-.307-.042c-.63 0-1.145.51-1.145 1.142h1c0-.077.063-.142.145-.142zm-.967 3.695l-.005.005-.002.001.003-.002.008-.005.52.855a.995.995 0 0 0 .12-.088zm.004 0a.368.368 0 0 1 .206-.05c.106.006.172.05.186.06l-.578.816c.072.05.189.116.345.124a.634.634 0 0 0 .36-.096l-.52-.855zm.392.01a.083.083 0 0 1 .006.004l-.004-.002-.668.743a.965.965 0 0 0 .088.071zm-.473-4.745a1.144 1.144 0 0 0-.504-.117v1c.024 0 .045.005.064.015zM13.71 9.5c-.63 0-1.145.51-1.145 1.143h1c0-.077.063-.143.145-.143zm-1.118 4.898c-.003.01 0-.004.016-.03a.381.381 0 0 1 .116-.117c.134-.089.258-.06.239-.064l-.163.987a.653.653 0 0 0 .474-.088.686.686 0 0 0 .263-.359l-.945-.33zm-.316-.99a1.142 1.142 0 0 0-.335-.145l-.247.969a.13.13 0 0 1 .042.018zm-.335-.145a1.152 1.152 0 0 0-.457-.023l.15.989a.15.15 0 0 1 .06.003l.247-.97zm-.457-.023a1.143 1.143 0 0 0-.636.32l.705.71a.143.143 0 0 1 .081-.041zm-.636.32a1.14 1.14 0 0 0-.217.3l.895.447a.142.142 0 0 1 .027-.038l-.705-.708zm.352 1.264l-.441.234v.002l.003.005.01.02.04.072.14.265.883-.472a96.99 96.99 0 0 1-.18-.335l-.01-.02-.002-.004v-.001zm-.247.598l.155.288.88-.473-.153-.287zm.889 1.633l.14.25.87-.493-.137-.244zm.14.25c.166.294.322.56.416.694l.818-.575c-.06-.086-.19-.306-.364-.612l-.87.492zm.416.694c.181.258.512.621.944.925.431.302 1.004.572 1.658.572v-1c-.378 0-.752-.158-1.084-.391a3.046 3.046 0 0 1-.7-.681zM15 19.495l.213.001.007-1H15v1zm.213.001c.655.005 1.717.021 2.613-.393a2.7 2.7 0 0 0 1.2-1.054c.307-.504.474-1.146.474-1.945h-1c0 .66-.137 1.112-.328 1.425a1.7 1.7 0 0 1-.766.666c-.658.305-1.488.306-2.186.301zM19.5 12.57c0-.278-.1-.534-.266-.732l-.767.642a.139.139 0 0 1 .033.09zm-.266-.732c-.21-.25-.526-.41-.88-.41v1c.046 0 .086.02.113.052zm-1.886 2.552l-.002.002.008-.007.625.78a.944.944 0 0 0 .093-.085zm.006-.005a.371.371 0 0 1 .232-.074.359.359 0 0 1 .218.07l-.619.785a.642.642 0 0 0 .393.145.632.632 0 0 0 .401-.145l-.625-.78zm.45-.004a.088.088 0 0 1 .005.004l-.003-.003-.709.706a.977.977 0 0 0 .088.079zm.148-1.554c0-.143-.027-.282-.076-.41l-.934.36c.006.015.01.032.01.05zm-.076-.41a1.123 1.123 0 0 0-.02-.047l-.916.401.002.006zm-.02-.047a1.145 1.145 0 0 0-1.05-.685v1c.06 0 .112.035.134.086l.916-.402zm-2.099 0a1.008 1.008 0 0 0-.02.048l.934.359.002-.006-.916-.402zm-.02.048a1.14 1.14 0 0 0-.076.41h1c0-.02.004-.036.01-.051l-.934-.36zm-.076.41v1.907h1v-1.908h-1zm.742 1.907V11.8h-1v2.936h1zm-2.29-2.936v2.936h1V11.8h-1zm.742 2.936v-4.092h-1v4.092zm-2.29-4.092v3.92h1v-3.92zm.67 3.683l-.77-.765-.705.708.768.766.706-.709zm6.265 1.779V12.57h-1v3.535zm-2.29-3.535v2.165h1V12.57zm.742 2.165v-1.908h-1v1.908zm-6.999.687l.154.288.882-.473-.155-.288-.88.473zm.393.73c.16.295.334.614.496.903l.873-.487c-.159-.284-.33-.6-.49-.893zm5.875-3.744a1.132 1.132 0 0 0-.011.162h1l.001-.02zm.635-.038a1.145 1.145 0 0 0-.879-.672l-.148.988c.05.008.092.04.111.085l.916-.402zm-.879-.672a1.152 1.152 0 0 0-.17-.013v1l.022.001.148-.989zm-.262-.01c-.43.034-.793.305-.958.681l.916.402a.145.145 0 0 1 .121-.086zm-.44-.414c-.144-.279-.4-.49-.71-.576l-.267.964c.038.01.072.038.09.073zm-.71-.576a1.155 1.155 0 0 0-.136-.029l-.148.99a.05.05 0 0 1 .017.003zm-.136-.029a1.165 1.165 0 0 0-.17-.012v1l.022.001zm-.629-.375a1.145 1.145 0 0 0-.586-.677l-.44.898a.141.141 0 0 1 .074.085zm-2.42 3.19a1.147 1.147 0 0 0-.104-.076l-.54.842a.162.162 0 0 1 .013.01zm2.893 6.014h-.06l-.008 1h.06zm3.967-7.013l.699-.584-.642-.767-.698.584zm-2.45-.8h.017v-1h-.03l.014 1zm-5.488 1.951l-.895-.446-.446.895.895.446zm.24.822l-.007-.01-.805.593.008.01.805-.593zm-.815.58l.028.035.786-.617c0-.002-.002-.003-.003-.005l-.81.586zm.817-.578l-.007-.01-.793.61.008.01zm-.803.596a.592.592 0 0 0 .014.018l.786-.618s0-.002-.002-.002zm.014.018c.028.036.06.07.093.104l.705-.708a.137.137 0 0 1-.012-.014l-.786.617zm-.124-1.213c-.186.374-.155.829.096 1.176l.81-.586a.141.141 0 0 1-.01-.144zm.096 1.176l.014.019.799-.602-.002-.003-.81.586zm6.067-2.352h.01l-.02-1-.069.003.08.997zm.01 0h.003v-1a.8.8 0 0 0-.022 0l.018 1zm1.412-.157a.145.145 0 0 1 .102-.096l-.245-.97c-.386.098-.694.39-.811.768zm.102-.096h.003l-.224-.975a2.075 2.075 0 0 0-.024.006l.245.97zm.003 0a.148.148 0 0 1 .034-.004v-1c-.088 0-.175.01-.258.029l.224.974zm-6.096 3.243l-.001-.002-.88.477.002.002.88-.477zm-.001-.002l-.216-.4-.88.475.217.402zm-.216-.4a10.888 10.888 0 0 0-.02-.036l-.88.473.02.037.88-.473zm4.319-3.885l-.002-.005-.932.363.002.005zm-.004-.008l-.001-.005-.93.37.002.005.93-.37zm-.002-.006a1.142 1.142 0 0 0-.046-.1l-.887.46a.214.214 0 0 1 .005.013zm-1.466-.731c0-.112-.016-.221-.047-.325l-.959.284a.14.14 0 0 1 .006.04h1zm-.047-.325a.862.862 0 0 0-.008-.024l-.952.306.001.002zm-2.342 3.243a1.166 1.166 0 0 0-.073-.067l-.643.767a.13.13 0 0 1 .01.008zm-.073-.067l-.013-.01-.631.775.001.002zm0 0a1.144 1.144 0 0 0-.117-.086l-.54.842.014.01zm4.392-1.809c-.46.009-.854.288-1.028.684l.916.402a.146.146 0 0 1 .13-.086zm-.464-.311a1.146 1.146 0 0 0-.756-.676l-.267.964a.144.144 0 0 1 .095.085zm-1.513-1.056a1.145 1.145 0 0 0-.594-.701l-.44.898c.037.018.064.05.075.087zm-3.463 5.832c.16.296.335.615.497.905l.873-.487a90.46 90.46 0 0 1-.491-.895l-.88.477zm6.752-4.693a1.145 1.145 0 0 0-.835.773l.954.298a.145.145 0 0 1 .105-.097zm-.835.773a1.138 1.138 0 0 0-.052.34h1c0-.015.002-.029.006-.042zm.464.197l-.975-.224zm-1-.09a1 1 0 0 0 1.98.284zm-6.214 3.32l-.882.473.882-.472zm-.14-.26l.883-.471a.992.992 0 0 0-.103-.156l-.78.626zm.295.55l-.881.472v.001l.88-.474zm.738 1.352l-.873.486zm.141.252l-.87.492zm.442.735l.819-.575zm1.067 1.047l.574-.819zm2.154.664l.008-1zm.06 0l.008-1zm2.767-.44l.42.908-.42-.907zm1.417-1.247l.854.52zm.165-6.792l.767-.642zm-2.274-.244l-.326.946a1 1 0 0 0 .94-.156zm-.538-.09v-1H16.8zm-.022 0l-.927.376a1 1 0 0 0 .934.625l-.007-1zm-1.086-.968l-.267.964zm-.416-.06l-.955.297a1 1 0 0 0 .94.704l.015-1zm-.848-.988l-.44.898zm-2.37 3.61l-.247.97a1 1 0 0 0 1.248-.97h-1zm-.655-.032l.15.988zm-.914.46l-.706-.708.706.709zm-.311.432l-.895-.446zm8.51-.96a1 1 0 1 0-1.91-.597l1.91.596zm-1.943-.475c-.01.044-.018.089-.025.134l1.98.284a.34.34 0 0 1-.005.03zm-5.357 2.983l-.14-.26-1.764.94.14.264zm.884 1.626c-.244-.439-.52-.947-.73-1.34l-1.762.948c.213.395.494.914.745 1.365zm.139.246l-.139-.246-1.747.973.145.258 1.74-.985zm.39.653c-.078-.11-.22-.353-.39-.653l-1.741.985c.157.278.35.612.494.818l1.636-1.15zm.822.803a3.538 3.538 0 0 1-.822-.803l-1.637 1.15c.275.39.727.881 1.31 1.29l1.15-1.637zm1.371.482c-.516 0-.989-.214-1.37-.482l-1.15 1.638c.581.407 1.452.844 2.52.844zm.216.001H15v2h.201zm2.4-.347c-.751.347-1.668.353-2.339.348l-.016 2c.622.005 1.98.03 3.195-.533zm.983-.86a2.2 2.2 0 0 1-.983.86l.84 1.815a4.199 4.199 0 0 0 1.851-1.635L18.6 17.79zM19 16.105c0 .73-.152 1.276-.4 1.685l1.707 1.04c.482-.79.693-1.718.693-2.725zm0-3.535v3.535h2V12.57zm-.15-.41a.63.63 0 0 1 .15.41h2a2.64 2.64 0 0 0-.615-1.694l-1.534 1.283zm-.495-.232c.199 0 .377.09.496.231l1.534-1.283a2.645 2.645 0 0 0-2.03-.948zm-.397.136a.641.641 0 0 1 .397-.136v-2c-.61 0-1.176.208-1.625.557zm-1.151.12c.075 0 .146.013.21.036l.653-1.89a2.643 2.643 0 0 0-.864-.145v2zM15.43 11.18a.646.646 0 0 1 .426.38l1.854-.75a2.646 2.646 0 0 0-1.746-1.557zm-.163-.023c.056 0 .111.009.163.023l.534-1.927a2.647 2.647 0 0 0-.669-.096zm-1.274-1.091c.158.077.28.218.333.387l1.91-.592a2.649 2.649 0 0 0-1.363-1.591zM13.71 10c.102 0 .198.024.284.066l.88-1.796A2.645 2.645 0 0 0 13.71 8zm-.645.643c0-.355.288-.643.645-.643V8a2.644 2.644 0 0 0-2.645 2.643zm0 2.135v-2.135h-2v2.135zm-1.506.956a.652.652 0 0 1 .258.013l.495-1.938a2.65 2.65 0 0 0-1.054-.052l.3 1.977zm-.358.181c.1-.1.226-.16.358-.18l-.3-1.978a2.643 2.643 0 0 0-1.47.741zm-.122.169a.643.643 0 0 1 .121-.169l-1.41-1.417c-.207.206-.375.44-.501.694zm.073.686a.642.642 0 0 1-.073-.686l-1.79-.892a2.642 2.642 0 0 0 .304 2.83zm.396.703l-.155-.288-1.762.946.155.288zm5.243-3.288h.022l-.013-2h-.023zm-1.514 6.813h-.06l-.016 2h.06zm3.43-6.378a.354.354 0 0 1-.014.057l-1.909-.596a1.632 1.632 0 0 0-.058.256l1.98.284zm-1.923-.539c-.012.04-.023.08-.033.122l1.95.447a.358.358 0 0 1-.008.027z" fill="#fff" mask="url(#a)"/><g mask="url(#b)"><path d="M4 4h17v17H4z" fill="#d9d9d9"/></g><g clip-rule="evenodd" fill-rule="evenodd"><path d="M7.5 5.036c0-.54.416-1.036 1-1.036h7c.584 0 1 .497 1 1.036v13.928c0 .54-.416 1.036-1 1.036h-7c-.584 0-1-.497-1-1.036z" fill="#0f172a"/><path d="M8.5 3c-1.21 0-2 1.02-2 2.036v13.928c0 1.016.79 2.036 2 2.036h7c1.21 0 2-1.02 2-2.036V5.036C17.5 4.02 16.71 3 15.5 3zm-1 2.036c0-.237.08-.466.22-.648A.973.973 0 0 1 8.5 4h7c.328 0 .602.156.78.388.14.182.22.41.22.648v13.928c0 .237-.08.466-.22.648a.973.973 0 0 1-.78.388h-7a.973.973 0 0 1-.78-.388c-.14-.182-.22-.41-.22-.648z" fill="#fff"/><path d="M8 5.906C8 5.435 8.37 5 8.889 5h6.222c.52 0 .889.435.889.906v12.188c0 .471-.37.906-.889.906H8.89c-.52 0-.889-.435-.889-.906V5.906z" fill="#0f172a"/><path d="M8 5.906C8 5.435 8.37 5 8.889 5h6.222c.52 0 .889.435.889.906v12.188c0 .471-.37.906-.889.906H8.89c-.52 0-.889-.435-.889-.906V5.906z" fill="#e2e8f0"/></g><g mask="url(#c)"><path d="M8 8.5l8-2m-8 4l8-2" stroke="#f8fafc" stroke-linecap="square" stroke-width="1.2"/></g><circle cx="12" cy="4.5" fill="#d9d9d9" r=".25"/><path d="M8.75 7.25A.25.25 0 0 1 9 7h1a.25.25 0 0 1 .25.25v1a.25.25 0 0 1-.25.25H9a.25.25 0 0 1-.25-.25z" fill="#f59e0b"/><path d="M8.75 9.25A.25.25 0 0 1 9 9h1a.25.25 0 0 1 .25.25v1a.25.25 0 0 1-.25.25H9a.25.25 0 0 1-.25-.25z" fill="#22c55e"/><path d="M8.75 11.25A.25.25 0 0 1 9 11h1a.25.25 0 0 1 .25.25v1a.25.25 0 0 1-.25.25H9a.25.25 0 0 1-.25-.25z" fill="#14b8a6"/><path d="M8.75 13.25A.25.25 0 0 1 9 13h1a.25.25 0 0 1 .25.25v1a.25.25 0 0 1-.25.25H9a.25.25 0 0 1-.25-.25z" fill="#06b6d4"/><path d="M8.75 15.25A.25.25 0 0 1 9 15h1a.25.25 0 0 1 .25.25v1a.25.25 0 0 1-.25.25H9a.25.25 0 0 1-.25-.25z" fill="#3b82f6"/><path d="M11.25 7.25A.25.25 0 0 1 11.5 7h1a.25.25 0 0 1 .25.25v1a.25.25 0 0 1-.25.25h-1a.25.25 0 0 1-.25-.25z" fill="#f97316"/><path d="M11.25 9.25A.25.25 0 0 1 11.5 9h1a.25.25 0 0 1 .25.25v1a.25.25 0 0 1-.25.25h-1a.25.25 0 0 1-.25-.25z" fill="#84cc16"/><path d="M11.25 11.25a.25.25 0 0 1 .25-.25h1a.25.25 0 0 1 .25.25v1a.25.25 0 0 1-.25.25h-1a.25.25 0 0 1-.25-.25z" fill="#10b981"/><path d="M11.25 13.25a.25.25 0 0 1 .25-.25h1a.25.25 0 0 1 .25.25v1a.25.25 0 0 1-.25.25h-1a.25.25 0 0 1-.25-.25zm0 2a.25.25 0 0 1 .25-.25h1a.25.25 0 0 1 .25.25v1a.25.25 0 0 1-.25.25h-1a.25.25 0 0 1-.25-.25zm2.5-8A.25.25 0 0 1 14 7h1a.25.25 0 0 1 .25.25v1a.25.25 0 0 1-.25.25h-1a.25.25 0 0 1-.25-.25z" fill="#ef4444"/><path d="M13.75 9.25A.25.25 0 0 1 14 9h1a.25.25 0 0 1 .25.25v1a.25.25 0 0 1-.25.25h-1a.25.25 0 0 1-.25-.25z" fill="#eab308"/><path d="M13.75 11.25A.25.25 0 0 1 14 11h1a.25.25 0 0 1 .25.25v1a.25.25 0 0 1-.25.25h-1a.25.25 0 0 1-.25-.25zm0 2A.25.25 0 0 1 14 13h1a.25.25 0 0 1 .25.25v1a.25.25 0 0 1-.25.25h-1a.25.25 0 0 1-.25-.25zm0 2A.25.25 0 0 1 14 15h1a.25.25 0 0 1 .25.25v1a.25.25 0 0 1-.25.25h-1a.25.25 0 0 1-.25-.25z" fill="#f59e0b"/><path d="M16.161 14.735a.817.817 0 0 1-.043.035c-.063.046-.103.05-.172 0a.597.597 0 0 1-.043-.035V11.8a.639.639 0 0 0-.472-.619.647.647 0 0 0-.818.62v2.935a.485.485 0 0 1-.058.043c-.056.034-.1.033-.157-.008a.475.475 0 0 1-.043-.035v-4.092A.642.642 0 0 0 13.71 10a.644.644 0 0 0-.645.643v3.92c-.038.107-.077.135-.184.117l-.768-.765a.646.646 0 0 0-1.034.169.64.64 0 0 0 .121.74l.194.362.154.287a107.68 107.68 0 0 0 .869 1.585c.17.3.313.543.39.653.3.428 1.16 1.285 2.193 1.285l.216.001c1.354.01 3.784.029 3.784-2.892V12.57a.645.645 0 0 0-1.29 0v2.165a.443.443 0 0 1-.043.04c-.06.049-.11.049-.173-.001a.472.472 0 0 1-.042-.039v-1.908a.64.64 0 0 0-.646-.642.646.646 0 0 0-.645.642z" fill="#fcd34d"/><path clip-rule="evenodd" d="M11.14 14.755a.64.64 0 0 0 .06.069l.194.362.154.287a132.757 132.757 0 0 0 .73 1.339l.139.246c.17.3.313.543.39.653.3.428 1.16 1.285 2.193 1.285l.216.001c1.354.01 3.784.029 3.784-2.892V12.57a.645.645 0 0 0-1.284-.091.64.64 0 0 0-.006.091v2.165a.443.443 0 0 1-.043.04c-.06.049-.11.049-.173-.001a.472.472 0 0 1-.042-.039v-1.908a.64.64 0 0 0-.646-.642c-.017 0-.034 0-.051.002a.646.646 0 0 0-.594.64v1.908a.817.817 0 0 1-.043.035c-.063.046-.103.05-.172 0a.597.597 0 0 1-.043-.035V11.8a.639.639 0 0 0-.548-.635.644.644 0 0 0-.742.635v2.936a.485.485 0 0 1-.058.043c-.056.034-.1.033-.157-.008a.475.475 0 0 1-.043-.035v-4.092A.64.64 0 0 0 13.71 10a.644.644 0 0 0-.645.643v3.92c-.038.107-.077.135-.184.117l-.768-.765a.638.638 0 0 0-.295-.168.652.652 0 0 0-.617.168.643.643 0 0 0-.06.84zm-.768.641l.14.262.155.288a109.035 109.035 0 0 0 .88 1.605c.163.288.33.577.441.735a4.53 4.53 0 0 0 1.067 1.047c.481.338 1.153.663 1.945.663l.209.001h.06c.647.006 1.784.015 2.767-.44a3.2 3.2 0 0 0 1.417-1.247c.366-.6.547-1.337.547-2.205V12.57a1.645 1.645 0 0 0-2.656-1.296 1.645 1.645 0 0 0-.56-.09 1.646 1.646 0 0 0-1.502-1.027A1.648 1.648 0 0 0 13.71 9c-.905 0-1.645.732-1.645 1.643v2.135a1.652 1.652 0 0 0-1.57.429 1.644 1.644 0 0 0-.123 2.19z" fill="#000" fill-rule="evenodd"/></svg>