<svg width="24" height="24" viewBox="0 0 24 24" fill="none" xmlns="http://www.w3.org/2000/svg">
<path d="M5.27734 19C5.27734 19.5532 5.58182 20.0615 6.06956 20.3225C6.55729 20.5835 7.14911 20.5549 7.60939 20.2481L8.91955 19.3746L9.60557 20.0607C10.1914 20.6464 11.1411 20.6464 11.7269 20.0607L12.2218 19.5658L12.7167 20.0607C13.3025 20.6464 14.2522 20.6464 14.838 20.0607L15.524 19.3746L16.8342 20.2481C17.2945 20.5549 17.8863 20.5835 18.374 20.3225C18.8618 20.0615 19.1662 19.5532 19.1662 19V6.55556C19.1662 5.74517 18.8443 4.96798 18.2713 4.39495C17.6983 3.82192 16.9211 3.5 16.1107 3.5H8.3329C7.52252 3.5 6.74532 3.82192 6.1723 4.39495C5.59927 4.96798 5.27734 5.74517 5.27734 6.55556V19Z" fill="#171717" stroke="white" stroke-linecap="round" stroke-linejoin="round"/>
<path d="M6.77734 19V6.55556C6.77734 6.143 6.94123 5.74733 7.23296 5.45561C7.52468 5.16389 7.92034 5 8.3329 5H16.1107C16.5232 5 16.9189 5.16389 17.2106 5.45561C17.5023 5.74733 17.6662 6.143 17.6662 6.55556V19L15.3329 17.4444L13.7773 19L12.2218 17.4444L10.6662 19L9.11068 17.4444L6.77734 19Z" fill="#FAFAFA"/>
<path d="M8 7.5H16.5M8 10H16.5M8 12.5H16.5M8 15H16.5" stroke="#404040" stroke-linecap="square"/>
</svg>
