<svg fill="none" height="24" width="24" xmlns="http://www.w3.org/2000/svg" xmlns:xlink="http://www.w3.org/1999/xlink"><linearGradient id="a" gradientUnits="userSpaceOnUse" x1="17.5" x2="7.5" y1="5" y2="19"><stop offset="0" stop-color="#fde047"/><stop offset="1" stop-color="#eab308"/></linearGradient><g stroke-linecap="round" stroke-linejoin="round"><path d="m18.79 4.624a2.624 2.624 0 0 0 -3.131.039c-2.869-1.18-6.431-.393-8.909 2.087-2.48 2.48-3.267 6.039-2.087 8.908a2.631 2.631 0 0 0 -.53 1.393 2.625 2.625 0 0 0 4.21 2.286c2.867 1.18 6.428.392 8.907-2.087 2.48-2.48 3.268-6.04 2.087-8.908a2.624 2.624 0 0 0 .407-2.41l-.821.269.82-.27a2.624 2.624 0 0 0 -.953-1.307z" fill="#fde047" stroke="#fff" stroke-width="1.75"/><path d="m18.569 4.928a2.249 2.249 0 0 0 -2.848.17c-2.745-1.24-6.26-.53-8.707 1.917-2.446 2.447-3.157 5.96-1.916 8.706a2.25 2.25 0 0 0 3.18 3.18c2.745 1.241 6.26.53 8.706-1.916 2.447-2.447 3.158-5.96 1.916-8.707a2.25 2.25 0 0 0 .487-2.23l-.475.156.475-.156a2.25 2.25 0 0 0 -.818-1.12z" fill="url(#a)" stroke="#171717"/></g></svg>