<svg width="24" height="24" viewBox="0 0 24 24" fill="none" xmlns="http://www.w3.org/2000/svg">
<mask id="mask0_6957_45217" style="mask-type:alpha" maskUnits="userSpaceOnUse" x="2" y="2" width="19" height="19">
<path d="M2.9707 20.9712L12.9707 20.9712L20.9707 13.1712L20.9707 2.97119L2.97071 2.97119L2.9707 20.9712Z" fill="black"/>
</mask>
<g mask="url(#mask0_6957_45217)">
<path d="M18 4H6C4.89543 4 4 4.89543 4 6V18C4 19.1046 4.89543 20 6 20H18C19.1046 20 20 19.1046 20 18V6C20 4.89543 19.1046 4 18 4Z" fill="#0891B2"/>
<path d="M6 4H18H20V6V18C20 19.1046 19.1046 20 18 20H6C4.89543 20 4 19.1046 4 18V6C4 4.89543 4.89543 4 6 4Z" fill="#FBBF24"/>
<path d="M4.59961 19.4001L19.3996 4.6001" stroke="#0891B2" stroke-width="2" stroke-linecap="round" stroke-linejoin="round"/>
<path d="M20 4H4V20L20 4Z" fill="#FDE047"/>
<path d="M14 9L10 5" stroke="#0891B2" stroke-width="2" stroke-linecap="square" stroke-linejoin="round"/>
<path d="M9 14L5 10" stroke="#0891B2" stroke-width="2" stroke-linecap="square" stroke-linejoin="round"/>
<path d="M12 12L5 5" stroke="#0891B2" stroke-width="2" stroke-linecap="square" stroke-linejoin="round"/>
<path d="M17 7L14 4" stroke="#0891B2" stroke-width="2" stroke-linecap="round" stroke-linejoin="round"/>
<path d="M7 17L4 14" stroke="#0891B2" stroke-width="2" stroke-linecap="round" stroke-linejoin="round"/>
<path d="M6 4.5H18C18.8284 4.5 19.5 5.17157 19.5 6V18C19.5 18.8284 18.8284 19.5 18 19.5H6C5.17157 19.5 4.5 18.8284 4.5 18V6C4.5 5.17157 5.17157 4.5 6 4.5Z" stroke="#0891B2" stroke-linecap="round" stroke-linejoin="round"/>
<path d="M18 3.5H6C4.61929 3.5 3.5 4.61929 3.5 6V18C3.5 19.3807 4.61929 20.5 6 20.5H18C19.3807 20.5 20.5 19.3807 20.5 18V6C20.5 4.61929 19.3807 3.5 18 3.5Z" stroke="white" stroke-linecap="round" stroke-linejoin="round"/>
<path d="M12.9754 21.0834L21.4284 12.9204C20.672 13.3435 20.8129 13.5137 18.3214 13.8739C15.4706 14.2861 14.1831 16.4709 13.6076 17.509C12.9903 18.6225 12.9754 21.0834 12.9754 21.0834Z" fill="url(#paint0_linear_6957_45217)"/>
</g>
<defs>
<linearGradient id="paint0_linear_6957_45217" x1="14.5915" y1="14.1711" x2="17.716" y2="17.4066" gradientUnits="userSpaceOnUse">
<stop stop-color="white"/>
<stop offset="1" stop-color="#C9C9C9"/>
</linearGradient>
</defs>
</svg>
