<svg width="24" height="24" viewBox="0 0 24 24" fill="none" xmlns="http://www.w3.org/2000/svg">
<g clip-path="url(#clip0_7084_41358)">
<mask id="mask0_7084_41358" style="mask-type:alpha" maskUnits="userSpaceOnUse" x="-1" y="-1" width="25" height="24">
<rect width="19.0046" height="15.7298" transform="matrix(0.846472 -0.532433 -0.532433 -0.846472 7.52344 22.4546)" fill="#171717"/>
</mask>
<g mask="url(#mask0_7084_41358)">
<path d="M8.68182 12C8.68182 10.1674 10.1674 8.68182 12 8.68182C13.8326 8.68182 15.3182 10.1674 15.3182 12C15.3182 13.8326 13.8326 15.3182 12 15.3182C10.1674 15.3182 8.68182 13.8326 8.68182 12ZM12 5.5C8.41015 5.5 5.5 8.41015 5.5 12C5.5 15.5899 8.41015 18.5 12 18.5C15.5899 18.5 18.5 15.5899 18.5 12C18.5 8.41015 15.5899 5.5 12 5.5Z" fill="#7F1D1D" stroke="white" stroke-linecap="round" stroke-linejoin="round"/>
<path d="M11.9999 17.3925C14.9782 17.3925 17.3925 14.9782 17.3925 11.9999C17.3925 9.02169 14.9782 6.60734 11.9999 6.60734C9.02169 6.60734 6.60734 9.02169 6.60734 11.9999C6.60734 14.9782 9.02169 17.3925 11.9999 17.3925Z" stroke="#DC2626" stroke-width="3.31852" stroke-linecap="round" stroke-linejoin="round"/>
<path d="M15 15L16.9999 16.9999M9 14.9999L7 16.9999M7 7L9 9M16.9999 7L14.9999 9" stroke="white" stroke-width="1.41413" stroke-linecap="round" stroke-linejoin="round"/>
<path d="M12 20.5C16.6944 20.5 20.5 16.6944 20.5 12C20.5 7.30558 16.6944 3.5 12 3.5C7.30558 3.5 3.5 7.30558 3.5 12C3.5 16.6944 7.30558 20.5 12 20.5Z" stroke="white" stroke-linecap="round" stroke-linejoin="round"/>
<path d="M19.5 12C19.5 16.1421 16.1421 19.5 12 19.5C7.85786 19.5 4.5 16.1421 4.5 12C4.5 7.85786 7.85786 4.5 12 4.5C16.1421 4.5 19.5 7.85786 19.5 12Z" stroke="#7F1D1D" stroke-linecap="round" stroke-linejoin="round"/>
<path d="M11.9999 15.9833C14.1999 15.9833 15.9833 14.1999 15.9833 11.9999C15.9833 9.8 14.1999 8.0166 11.9999 8.0166C9.8 8.0166 8.0166 9.8 8.0166 11.9999C8.0166 14.1999 9.8 15.9833 11.9999 15.9833Z" stroke="#7F1D1D" stroke-width="0.5" stroke-linecap="round" stroke-linejoin="round"/>
</g>
<path d="M20.8106 14.3049C19.8764 16.3035 10.2342 20.9567 10.2342 20.9567C10.9611 20.4102 11.2911 20.0783 12.4911 18.6804C14.0737 16.8368 15.3606 16.0734 16.41 15.3676C17.6411 14.5396 21.3645 13.1199 20.8106 14.3049Z" fill="url(#paint0_linear_7084_41358)"/>
</g>
<defs>
<linearGradient id="paint0_linear_7084_41358" x1="14.7035" y1="16.3281" x2="15.5228" y2="17.6308" gradientUnits="userSpaceOnUse">
<stop stop-color="#FFFEFE"/>
<stop offset="1" stop-color="#ABABAB"/>
</linearGradient>
<clipPath id="clip0_7084_41358">
<rect width="24" height="24" fill="white"/>
</clipPath>
</defs>
</svg>
