<svg width="24" height="24" viewBox="0 0 24 24" fill="none" xmlns="http://www.w3.org/2000/svg">
<path d="M8.68182 12C8.68182 10.1674 10.1674 8.68182 12 8.68182C13.8326 8.68182 15.3182 10.1674 15.3182 12C15.3182 13.8326 13.8326 15.3182 12 15.3182C10.1674 15.3182 8.68182 13.8326 8.68182 12ZM12 5.5C8.41015 5.5 5.5 8.41015 5.5 12C5.5 15.5899 8.41015 18.5 12 18.5C15.5899 18.5 18.5 15.5899 18.5 12C18.5 8.41015 15.5899 5.5 12 5.5Z" fill="#7F1D1D" stroke="white" stroke-linecap="round" stroke-linejoin="round"/>
<path d="M11.9999 17.3925C14.9782 17.3925 17.3925 14.9782 17.3925 11.9999C17.3925 9.02169 14.9782 6.60734 11.9999 6.60734C9.02169 6.60734 6.60734 9.02169 6.60734 11.9999C6.60734 14.9782 9.02169 17.3925 11.9999 17.3925Z" stroke="white" stroke-width="3.31852" stroke-linecap="round" stroke-linejoin="round"/>
<path d="M15 15L16.9999 16.9999M9 14.9999L7 16.9999M7 7L9 9M16.9999 7L14.9999 9" stroke="#EF4444" stroke-width="1.41413" stroke-linecap="square" stroke-linejoin="round"/>
<path d="M12 20.5C16.6944 20.5 20.5 16.6944 20.5 12C20.5 7.30558 16.6944 3.5 12 3.5C7.30558 3.5 3.5 7.30558 3.5 12C3.5 16.6944 7.30558 20.5 12 20.5Z" stroke="white" stroke-linecap="round" stroke-linejoin="round"/>
<path d="M19.5 12C19.5 16.1421 16.1421 19.5 12 19.5C7.85786 19.5 4.5 16.1421 4.5 12C4.5 7.85786 7.85786 4.5 12 4.5C16.1421 4.5 19.5 7.85786 19.5 12Z" stroke="#7F1D1D" stroke-linecap="round" stroke-linejoin="round"/>
<path d="M11.9999 15.9833C14.1999 15.9833 15.9833 14.1999 15.9833 11.9999C15.9833 9.8 14.1999 8.0166 11.9999 8.0166C9.8 8.0166 8.0166 9.8 8.0166 11.9999C8.0166 14.1999 9.8 15.9833 11.9999 15.9833Z" stroke="#7F1D1D" stroke-width="0.5" stroke-linecap="round" stroke-linejoin="round"/>
<circle cx="12" cy="12" r="3.5" stroke="white"/>
</svg>
