<?xml version="1.0" encoding="UTF-8"?><svg id="Layer_2" xmlns="http://www.w3.org/2000/svg" viewBox="0 0 49.88 53.15"><defs><style>.cls-1{fill:#fed7aa;}.cls-2{fill:#c2410c;}.cls-3{fill:none;stroke:#fed7aa;stroke-linecap:round;stroke-linejoin:round;stroke-width:.93px;}</style></defs><g id="Layer_1-2"><g id="dark-roundel-isolated"><path class="cls-1" d="m22.59.97c25.2-1.27,33.58,28.61,19.63,42.76-15.62,15.84-32.17,7.18-38.51-6.93C-2.63,22.68,1.16,2.05,22.59.97Z"/><circle class="cls-2" cx="24.37" cy="28.66" r="20.16"/><path class="cls-1" d="m24.37,8.96c10.88,0,19.7,8.82,19.7,19.7s-8.82,19.7-19.7,19.7S4.67,39.54,4.67,28.66,13.49,8.96,24.37,8.96m0-.93C12.99,8.03,3.74,17.29,3.74,28.66s9.25,20.63,20.63,20.63,20.63-9.25,20.63-20.63-9.25-20.63-20.63-20.63h0Z"/><path class="cls-3" d="m38.82,25.43c.02,1.27-2.86,1.04-4.13.94-.18-.86,1.1-.98,2.69-2.6.08-.03.15-.06.23-.1.13.72,1.2,1.02,1.21,1.75Zm-24.31-1.68c-1.17,1.74-3.06,1.63-3.97,2.78,1.29,1.02,3.37,0,4.96-.82-.17-.86-.51-1.46-.99-1.97Zm34.36,4.67c-.33-.51-.82-.96-1.25-1.06-.59-.13-1.19-.52-1.72-.91-3.81-2.79-2.93-3.41-3.9-4.44-.43-.45-.75-1.06-1.34-1.28-.83-.31-.84.85-1.43,1.51-.27.31-1.17.76-1.44,1.07-.14.17-.28.32-.42.46-.59.21-1.1.08-1.63-.35-.16-.13-.45-.29-.51-.48-.3-.87.04-.93-.51-1.9-1.03-1.82-3.77-2.98-4.1-4.82-.04-.24-.04-.5-.17-.71-.2-.32-.67-.38-1.02-.25-.84.31-1.74,1.71-2.63,2.27-.59.37-.75.15-2.56,1.27-1.5.93-3,1.78-4.67,2.36-3.05,1.06-1.58,2.67-5.05,2.56,0,0-.01.02-.02.02-.59-.63-1.39-1.1-2.33-1.73-.23-.15-.64-.83-.9-.92-.52-.19-.98-.24-1.34.18-.53.61-1.29,2.89-3.1,3.18-4.27.69-3.63,1.41-5.64,3.5"/><path class="cls-2" d="m24.13.93c24,0,31.75,28.94,18.09,42.8-5.92,6.01-11.98,8.49-17.56,8.49-9.14,0-17.01-6.66-20.95-15.42C-2.63,22.68,1.16,2.05,22.59.97c.52-.03,1.03-.04,1.54-.04m0-.93v.93-.93h0c-.52,0-1.06.01-1.59.04C11.7.59,6.23,5.92,3.55,10.3c-4.47,7.31-4.74,17.86-.69,26.88,4.36,9.7,12.91,15.97,21.8,15.97,6.27,0,12.57-3.03,18.22-8.77,7.08-7.18,9-18.79,4.78-28.88C43.6,5.8,34.8,0,24.13,0h0Z"/></g></g></svg>