<svg viewBox="0 0 1058.33 241.4" xmlns="http://www.w3.org/2000/svg"><g stroke="#1c1917" stroke-width="4.24"><path d="m100.9 2.3c114.95-5.78 153.16 130.5 89.53 195.03-71.23 72.24-146.71 32.76-175.63-31.62-28.92-64.38-11.64-158.5 86.1-163.41z" fill="#57534e" stroke-miterlimit="10"/><circle cx="109.01" cy="128.61" fill="#d6d3d1" r="89.85" stroke-miterlimit="10"/><path d="m174.92 113.86c.09 5.8-13.04 4.74-18.84 4.31-.83-3.93 5.02-4.49 12.26-11.85.35-.12.7-.27 1.06-.44.6 3.27 5.48 4.66 5.53 7.98zm-110.87-7.68c-5.32 7.94-13.96 7.46-18.1 12.69 5.89 4.66 15.35 0 22.61-3.73-.79-3.93-2.35-6.67-4.51-8.97zm156.71 21.3c-1.52-2.34-3.72-4.39-5.7-4.82-2.69-.59-5.43-2.37-7.83-4.13-17.37-12.74-13.35-15.56-17.78-20.25-1.96-2.07-3.43-4.85-6.1-5.84-3.8-1.42-3.84 3.87-6.54 6.9-1.24 1.4-5.33 3.48-6.55 4.9-.65.76-1.29 1.45-1.92 2.09-2.7.96-5 .38-7.43-1.58-.72-.59-2.05-1.31-2.35-2.19-1.35-3.97.18-4.26-2.32-8.67-4.7-8.3-17.2-13.57-18.68-21.97-.2-1.11-.18-2.3-.78-3.25-.92-1.47-3.04-1.75-4.66-1.16-3.85 1.41-7.95 7.78-11.97 10.34-2.67 1.69-3.41.68-11.68 5.79-6.84 4.23-13.66 8.11-21.3 10.76-13.92 4.84-7.22 12.18-23.03 11.69-.02.04-.05.07-.07.11-2.69-2.87-6.34-5.03-10.63-7.9-1.04-.7-2.9-3.78-4.08-4.21-2.36-.85-4.48-1.08-6.1.82-2.4 2.8-5.9 13.16-14.14 14.49-19.48 3.14-15.25 6.04-24.39 15.57" fill="none" stroke-linecap="round" stroke-linejoin="round"/><path d="m100.9 2.3c114.95-5.78 153.16 130.5 89.53 195.03-71.23 72.24-146.71 32.76-175.63-31.62-28.92-64.38-11.64-158.5 86.1-163.41z" fill="none" stroke-miterlimit="10"/></g><text fill="#44403c" font-family="Goiters-Black, Goiters" font-size="153.45" font-weight="800" transform="translate(275.43 149.36)"><tspan x="0" y="0">MyHill</tspan></text><text fill="#44403c" font-family="OpenSans-ExtraBold, 'Open Sans'" font-size="63.2" font-weight="700" letter-spacing=".4em" transform="translate(332.77 222.88)"><tspan x="0" y="0">PSYCHOLOGY</tspan></text></svg>