<svg viewBox="0 0 477.4 363.99" xmlns="http://www.w3.org/2000/svg"><g stroke-linecap="round" stroke-linejoin="round" stroke-width="3"><path d="m96.34 182.79c12.77 10.1 33.27 0 49.01-8.08-1.72-8.51-5.09-14.46-9.78-19.43-11.53 17.2-30.26 16.17-39.23 27.51z" fill="#44403c" stroke="#fcfeff"/><path d="m335 181.27c12.59.94 41.05 3.24 40.84-9.34-.12-7.21-10.7-10.21-11.99-17.3-.79.38-1.55.69-2.31.96-15.67 15.94-28.34 17.17-26.54 25.68z" fill="#44403c" stroke="#fcfeff"/><path d="m462.83 190.99c-5.83-1.28-11.76-5.13-16.97-8.95-37.64-27.6-28.94-33.73-38.54-43.89-4.24-4.49-7.43-10.5-13.22-12.66-8.23-3.07-8.33 8.39-14.18 14.96-2.69 3.03-11.55 7.54-14.2 10.61-1.41 1.64-2.81 3.14-4.19 4.54.75-.27 1.52-.58 2.31-.96 1.29 7.09 11.87 10.09 11.99 17.3.2 12.58-28.26 10.28-40.84 9.34-1.8-8.51 10.88-9.74 26.54-25.68-5.85 2.06-10.82.8-16.09-3.44-1.57-1.27-4.44-2.84-5.09-4.75-2.93-8.61.38-9.22-5.03-18.77-4.1-7.24-10.94-13.41-17.85-19.39-3.48 10.37-9.18 20.04-17.23 28.2-44.11 44.74-90.56 28-114.51-7.76-.04.01-.07.03-.11.04-30.16 10.48-15.64 26.39-49.92 25.34-.05.08-.11.15-.16.23 4.68 4.97 8.06 10.92 9.78 19.43-15.74 8.08-36.24 18.18-49.01 8.08 8.97-11.35 27.7-10.31 39.23-27.51-5.85-6.21-13.74-10.89-23.03-17.11-2.26-1.51-6.3-8.2-8.86-9.12-5.1-1.84-9.69-2.34-13.22 1.77-5.21 6.07-12.78 28.52-30.65 31.4-42.22 6.81-31.22 11.67-51.03 32.32-4.71 4.9-7.28 11.47-7.28 18.27v108.39c0 10.56 8.56 19.11 19.11 19.11h436.17c10.56 0 19.11-8.56 19.11-19.11v-114.38c0-7.73-5.52-14.19-13.06-15.84z" fill="#44403c" stroke="#fcfeff"/><path d="m180.89 89.53c0-34.58 28.04-62.62 62.62-62.62s62.62 28.04 62.62 62.62c0 3.03-.23 6-.64 8.91 3.64 3.65 7.83 7.19 12 10.79 15.72-46.79-13.96-107.78-79.63-107.73-67.87 6.79-80.17 69.02-60.01 113.89 2.25 5 4.9 9.79 7.91 14.28 2.53-.88 5.01-1.83 7.46-2.83-7.74-10.42-12.33-23.33-12.33-37.31z" fill="#fcfeff" stroke="#292524"/><path d="m300.26 137.43c8.04-8.16 13.74-17.83 17.23-28.2-4.17-3.6-8.35-7.14-12-10.79-4.33 30.36-30.42 53.71-61.98 53.71-20.6 0-38.88-9.95-50.29-25.31-2.45 1-4.94 1.95-7.46 2.83 23.95 35.76 70.39 52.5 114.51 7.76z" fill="#44403c" stroke="#fcfeff"/><path d="m243.51 26.91c-34.58 0-62.62 28.04-62.62 62.62 0 13.98 4.58 26.89 12.33 37.31 13.56-5.51 26.06-12.71 38.59-20.45 17.93-11.07 19.51-8.88 25.31-12.55 8.72-5.53 17.61-19.34 25.94-22.39 3.53-1.29 8.1-.67 10.11 2.51 1.3 2.06 1.26 4.65 1.68 7.05 1.14 6.47 5.3 12.08 10.64 17.43.41-2.91.64-5.88.64-8.91 0-34.58-28.04-62.62-62.62-62.62z" fill="#fcfeff" stroke="#292524"/><path d="m294.85 81.01c-.42-2.4-.38-4.99-1.68-7.05-2.01-3.17-6.58-3.8-10.11-2.51-8.33 3.05-17.23 16.87-25.94 22.39-5.8 3.67-7.38 1.48-25.31 12.55-12.53 7.74-25.03 14.93-38.59 20.45 11.41 15.36 29.69 25.31 50.29 25.31 31.56 0 57.65-23.35 61.98-53.71-5.34-5.36-9.5-10.97-10.64-17.43z" fill="#44403c" stroke="#fcfeff"/></g><text fill="#fcfeff" font-family="Goiters-Black, Goiters" font-size="82.55" font-weight="800" transform="translate(27.2 298.14)"><tspan x="0" y="0">MyHill</tspan></text><path d="m60.25 315.49h362.14v23.5c0 13.8-11.2 25-25 25h-312.14c-13.8 0-25-11.2-25-25z" fill="#44403c"/><text fill="#fcfeff" font-family="OpenSans-ExtraBold, 'Open Sans'" font-size="29.17" font-weight="700" letter-spacing=".4em" transform="translate(88.82 350.14)"><tspan x="0" y="0">PSYCHOLOGY</tspan></text></svg>