<svg viewBox="0 0 758.14 154.89" xmlns="http://www.w3.org/2000/svg"><g stroke-width="2.04"><path d="m48.56 9.2c55.32-2.78 73.72 62.81 43.09 93.87-34.28 34.77-70.61 15.77-84.53-15.22s-5.6-76.28 41.44-78.65z" fill="#d6d3d1" stroke="#57534e" stroke-miterlimit="10"/><circle cx="52.47" cy="69.99" fill="#78716c" r="43.24" stroke="#57534e" stroke-miterlimit="10"/><path d="m84.19 62.9c.04 2.79-6.28 2.28-9.07 2.07-.4-1.89 2.42-2.16 5.9-5.71.17-.06.34-.13.51-.21.29 1.57 2.64 2.24 2.66 3.84zm-53.36-3.7c-2.56 3.82-6.72 3.59-8.71 6.11 2.84 2.24 7.39 0 10.88-1.79-.38-1.89-1.13-3.21-2.17-4.32zm76.35 12.78c0-1.71-1.99-4.48-3.67-4.85-1.3-.28-2.61-1.14-3.77-1.99-8.36-6.13-6.43-7.49-8.56-9.75-.94-1-1.65-2.33-2.94-2.81-1.83-.68-1.85 1.86-3.15 3.32-.6.67-2.57 1.67-3.15 2.36-.31.36-.62.7-.93 1.01-1.3.46-2.41.18-3.58-.76-.35-.28-.99-.63-1.13-1.05-.65-1.91.09-2.05-1.12-4.17-2.26-3.99-8.28-6.53-8.99-10.58-.1-.53-.08-1.11-.38-1.57-.44-.71-1.46-.84-2.24-.56-1.85.68-3.83 3.75-5.76 4.97-1.29.82-1.64.33-5.62 2.79-3.29 2.03-6.58 3.9-10.25 5.18-6.7 2.33-3.47 5.86-11.09 5.63-.01.02-.02.04-.04.05-1.3-1.38-3.05-2.42-5.11-3.8-.5-.34-1.4-1.82-1.97-2.03-1.13-.41-2.15-.52-2.94.39-1.16 1.35-2.84 6.33-6.81 6.97-9.37 1.51-6.93 2.59-11.33 7.18" fill="none" stroke="#fff7ed" stroke-linecap="round" stroke-linejoin="round"/><path d="m48.56 9.2c55.32-2.78 73.72 62.81 43.09 93.87-34.28 34.77-70.61 15.77-84.53-15.22s-5.6-76.28 41.44-78.65z" fill="none" stroke="#57534e" stroke-miterlimit="10"/></g><text fill="#78716c" font-family="Goiters-Black, Goiters" font-size="124.41" font-weight="800" transform="translate(123.39 118.69)"><tspan x="0" y="0">MyHill</tspan></text></svg>