<svg viewBox="0 0 477.4 363.99" xmlns="http://www.w3.org/2000/svg"><g stroke="#292524" stroke-width="3"><path d="m237.86 1.5c80.22-.06 106.75 90.96 62.4 135.93-49.65 50.35-102.25 22.83-122.41-22.04s-7.86-107.1 60.01-113.89z" fill="#fcfeff" stroke-miterlimit="10"/><circle cx="243.51" cy="89.53" fill="#fcfeff" r="62.62" stroke-miterlimit="10"/><path d="m1.5 212.82c0-6.8 2.57-13.37 7.28-18.27 19.81-20.65 8.81-25.51 51.03-32.32 17.87-2.88 25.44-25.33 30.65-31.4 3.53-4.11 8.12-3.61 13.22-1.77 2.56.92 6.6 7.6 8.86 9.12 16.72 11.19 28.93 17.4 32.8 36.54-15.74 8.08-36.24 18.18-49.01 8.08 9.01-11.4 27.88-10.29 39.39-27.75 34.28 1.05 19.76-14.86 49.92-25.34 16.55-5.75 31.34-14.16 46.16-23.31 17.93-11.07 19.51-8.88 25.31-12.55 8.72-5.53 17.61-19.34 25.94-22.39 3.53-1.29 8.1-.67 10.11 2.51 1.3 2.06 1.26 4.65 1.68 7.05 3.21 18.2 30.3 29.64 40.49 47.62 5.41 9.55 2.09 10.17 5.03 18.77.65 1.91 3.52 3.49 5.09 4.75 5.95 4.79 11.51 5.78 18.4 2.48 1.29 7.09 11.87 10.09 11.99 17.3.2 12.58-28.26 10.28-40.84 9.34-1.95-9.26 13.21-9.88 30.73-30.22 2.64-3.07 11.5-7.58 14.2-10.61 5.84-6.56 5.94-18.02 14.18-14.96 5.79 2.16 8.98 8.17 13.22 12.66 9.6 10.17.9 16.29 38.54 43.89 5.21 3.82 11.13 7.68 16.97 8.95 7.55 1.65 13.06 8.11 13.06 15.84v114.38c0 10.56-8.56 19.11-19.11 19.11h-436.18c-10.56 0-19.11-8.56-19.11-19.11z" fill="none" stroke-linecap="round" stroke-linejoin="round"/></g><text fill="#44403c" font-family="Goiters-Black, Goiters" font-size="82.55" font-weight="800" transform="translate(27.2 298.14)"><tspan x="0" y="0">MyHill</tspan></text><path d="m60.25 315.49h362.14v48.5h-362.14z" fill="#fcfeff"/><text fill="#44403c" font-family="OpenSans-ExtraBold, 'Open Sans'" font-size="29.17" font-weight="700" letter-spacing=".4em" transform="translate(88.82 350.14)"><tspan x="0" y="0">PSYCHOLOGY</tspan></text></svg>