<?xml version="1.0" encoding="UTF-8"?><svg id="Layer_2" xmlns="http://www.w3.org/2000/svg" viewBox="0 0 757.83 173.18"><defs><style>.cls-1{fill:none;stroke:#ffedd5;stroke-miterlimit:10;stroke-width:3.03px;}.cls-2{font-family:OpenSans-ExtraBold, 'Open Sans';font-size:42.84px;font-weight:700;letter-spacing:.6em;}.cls-2,.cls-3{fill:#431407;}.cls-4{fill:#f97316;}.cls-5{fill:#fed7aa;}.cls-6{fill:#c2410c;}.cls-3{font-family:LondonTwo, LondonTwo;font-size:104.01px;letter-spacing:.28em;}</style></defs><g id="Layer_1-2"><g id="light-roundel-sm"><g id="LOGO-ELEMENTS"><path class="cls-4" d="m73.6,3.16c82.11-4.13,109.41,93.23,63.96,139.33-50.89,51.61-104.81,23.4-125.47-22.59C-8.57,73.9,3.78,6.67,73.6,3.16Z"/><path class="cls-6" d="m79.39,159.09c-36.23,0-65.7-29.47-65.7-65.7S43.17,27.69,79.39,27.69s65.7,29.47,65.7,65.7-29.47,65.7-65.7,65.7Z"/><path class="cls-5" d="m79.39,29.2c35.45,0,64.18,28.74,64.18,64.18s-28.74,64.18-64.18,64.18S15.21,128.84,15.21,93.39,43.95,29.2,79.39,29.2m0-3.03c-37.06,0-67.21,30.15-67.21,67.21s30.15,67.21,67.21,67.21,67.21-30.15,67.21-67.21S116.46,26.17,79.39,26.17h0Z"/><path class="cls-1" d="m126.48,82.85c.07,4.15-9.32,3.39-13.46,3.08-.59-2.81,3.59-3.2,8.76-8.47.25-.09.5-.19.75-.31.43,2.34,3.91,3.33,3.95,5.7Zm-79.21-5.49c-3.8,5.67-9.97,5.33-12.93,9.07,4.21,3.33,10.97,0,16.16-2.66-.57-2.81-1.68-4.77-3.22-6.4Zm111.95,15.22c-1.09-1.67-2.66-3.14-4.07-3.45-1.93-.42-3.88-1.69-5.59-2.95-12.41-9.1-9.54-11.12-12.7-14.47-1.4-1.48-2.45-3.46-4.36-4.17-2.71-1.01-2.75,2.77-4.67,4.93-.89,1-3.81,2.49-4.68,3.5-.46.54-.92,1.04-1.37,1.5-1.93.69-3.57.27-5.31-1.13-.52-.42-1.46-.94-1.68-1.57-.97-2.84.13-3.04-1.66-6.19-3.36-5.93-12.29-9.69-13.34-15.7-.14-.79-.13-1.64-.56-2.32-.66-1.05-2.17-1.25-3.33-.83-2.75,1.01-5.68,5.56-8.55,7.38-1.91,1.21-2.43.49-8.34,4.14-4.89,3.02-9.76,5.79-15.22,7.68-9.94,3.45-5.16,8.7-16.46,8.35-.02.03-.04.05-.05.08-1.93-2.05-4.53-3.59-7.59-5.64-.74-.5-2.07-2.7-2.92-3.01-1.68-.61-3.2-.77-4.36.58-1.72,2-4.21,9.4-10.1,10.35-13.91,2.24-10.29,3.85-16.82,10.65"/><path class="cls-5" d="m78.62,3.03c78.2,0,103.46,94.31,58.94,139.45-19.29,19.57-39.03,27.66-57.21,27.66-29.78,0-55.43-21.7-68.25-50.25C-8.57,73.9,3.78,6.67,73.6,3.16c1.69-.09,3.37-.13,5.02-.13m0-3.03v3.03V0c-1.71,0-3.45.04-5.18.13C38.12,1.91,20.3,19.28,11.57,33.55c-14.57,23.8-15.45,58.18-2.24,87.59,6.73,14.98,16.65,27.77,28.69,37,12.84,9.84,27.48,15.04,42.33,15.04,20.42,0,40.95-9.88,59.37-28.56,23.07-23.4,29.33-61.21,15.57-94.09-6.16-14.73-15.95-27.13-28.3-35.86C113.23,4.93,96.96,0,78.63,0h0Z"/></g><text class="cls-3" transform="translate(203.79 95.49)"><tspan x="0" y="0">MYHILL</tspan></text><text class="cls-2" transform="translate(203.79 153.33)"><tspan x="0" y="0">PSYCHOLOGY</tspan></text></g></g></svg>