<?xml version="1.0" encoding="UTF-8"?><svg id="Layer_2" xmlns="http://www.w3.org/2000/svg" viewBox="0 0 1118.09 255.5"><defs><style>.cls-1{font-size:30px;letter-spacing:.28em;}.cls-1,.cls-2{font-family:LondonTwo, LondonTwo;}.cls-1,.cls-3,.cls-4{fill:#c2410c;}.cls-5{font-size:63.2px;letter-spacing:.6em;}.cls-5,.cls-2{fill:#7c2d12;}.cls-5,.cls-4{font-family:OpenSans-ExtraBold, 'Open Sans';font-weight:700;}.cls-2{font-size:153.45px;letter-spacing:.28em;}.cls-6{fill:#fed7aa;}.cls-7{fill:none;stroke:#c2410c;stroke-miterlimit:10;stroke-width:4.47px;}.cls-4{font-size:12.67px;letter-spacing:.4em;}</style></defs><g id="Layer_1-2"><g id="light-roundel-md"><g id="LOGO-ELEMENTS"><path class="cls-3" d="m108.59,4.66c121.15-6.09,161.43,137.55,94.36,205.56-75.08,76.14-154.63,34.53-185.11-33.33C-12.64,109.03,5.57,9.84,108.59,4.66Z"/><circle class="cls-6" cx="117.14" cy="137.78" r="96.93"/><path class="cls-6" d="m117.14,43.09c52.3,0,94.7,42.4,94.7,94.7s-42.4,94.7-94.7,94.7S22.44,190.08,22.44,137.78,64.84,43.09,117.14,43.09m0-4.47c-54.68,0-99.17,44.49-99.17,99.17s44.49,99.17,99.17,99.17,99.17-44.49,99.17-99.17-44.49-99.17-99.17-99.17h0Z"/><path class="cls-7" d="m186.61,122.24c.1,6.12-13.74,4.99-19.86,4.54-.88-4.14,5.29-4.73,12.92-12.49.36-.13.73-.28,1.11-.46.63,3.45,5.77,4.91,5.83,8.41Zm-116.86-8.1c-5.61,8.37-14.72,7.86-19.08,13.38,6.21,4.91,16.18,0,23.84-3.93-.84-4.14-2.48-7.03-4.76-9.45Zm165.17,22.45c-1.61-2.47-3.92-4.63-6.01-5.08-2.84-.62-5.72-2.5-8.25-4.36-18.31-13.42-14.07-16.4-18.74-21.35-2.06-2.18-3.61-5.11-6.43-6.16-4-1.49-4.05,4.08-6.9,7.27-1.31,1.47-5.62,3.67-6.9,5.16-.69.8-1.36,1.53-2.03,2.21-2.85,1.01-5.27.4-7.83-1.67-.76-.62-2.16-1.38-2.48-2.31-1.42-4.19.19-4.49-2.45-9.13-4.96-8.74-18.13-14.3-19.69-23.16-.21-1.17-.18-2.43-.82-3.43-.97-1.55-3.2-1.85-4.91-1.22-4.06,1.49-8.38,8.2-12.62,10.89-2.82,1.78-3.59.72-12.31,6.1-7.21,4.45-14.4,8.55-22.45,11.34-14.67,5.1-7.61,12.83-24.28,12.32-.02.04-.05.08-.08.12-2.84-3.02-6.68-5.3-11.2-8.32-1.1-.74-3.06-3.99-4.3-4.44-2.49-.89-4.72-1.14-6.43.86-2.53,2.95-6.22,13.87-14.91,15.27-20.53,3.31-15.18,5.68-24.82,15.72"/><path class="cls-6" d="m115.99,4.47c115.37,0,152.64,139.14,86.96,205.75-28.47,28.87-57.58,40.81-84.41,40.81-43.94,0-81.77-32.01-100.7-74.14C-12.64,109.03,5.57,9.84,108.59,4.66c2.5-.13,4.97-.19,7.4-.19m.01-4.47v4.47V0c-2.52,0-5.09.07-7.64.19C56.24,2.81,29.95,28.45,17.07,49.5c-21.49,35.12-22.79,85.85-3.3,129.23,9.93,22.1,24.56,40.97,42.33,54.59,18.95,14.52,40.54,22.19,62.45,22.19,14.58,0,29.2-3.36,43.48-10,15.21-7.07,30.05-17.88,44.12-32.15,17.16-17.4,28.26-40.2,32.1-65.94,3.62-24.27.38-50.15-9.13-72.88-9.09-21.74-23.53-40.03-41.75-52.91C167.06,7.28,143.05,0,116,0h0Z"/></g><text class="cls-1" transform="translate(38.68 168.58)"><tspan x="0" y="0">MYHILL</tspan></text><text class="cls-4" transform="translate(50.18 187.23)"><tspan x="0" y="0">PSYCHOLOGY</tspan></text><text class="cls-2" transform="translate(300.67 142.79)"><tspan x="0" y="0">MYHILL</tspan></text><text class="cls-5" transform="translate(300.67 224.32)"><tspan x="0" y="0">PSYCHOLOGY</tspan></text></g></g></svg>