<?xml version="1.0" encoding="UTF-8"?><svg id="Layer_2" xmlns="http://www.w3.org/2000/svg" viewBox="0 0 643.28 685.69"><defs><style>.cls-1{fill:none;stroke:#c2410c;stroke-miterlimit:10;stroke-width:12px;}.cls-2{fill:#fed7aa;}.cls-3,.cls-4,.cls-5{fill:#c2410c;}.cls-4{font-family:OpenSans-ExtraBold, 'Open Sans';font-size:34px;font-weight:700;letter-spacing:.4em;}.cls-5{font-family:Goiters-Black, Goiters;font-size:82.55px;font-variation-settings:'wght' 900;font-weight:800;}</style></defs><g id="Layer_1-2"><g id="light-roundel-lg"><g id="LOGO-ELEMENTS"><path class="cls-3" d="m291.4,12.5c325.13-16.34,433.22,369.14,253.25,551.66-201.49,204.34-414.99,92.67-496.79-89.44C-33.95,292.61,14.92,26.4,291.4,12.5Z"/><path class="cls-2" d="m314.34,629.91c-69.49,0-134.81-27.06-183.95-76.19s-76.19-114.46-76.19-183.95,27.06-134.81,76.19-183.95,114.46-76.19,183.95-76.19,134.81,27.06,183.95,76.19c49.13,49.13,76.19,114.46,76.19,183.95s-27.06,134.81-76.19,183.95c-49.13,49.13-114.46,76.19-183.95,76.19Z"/><path class="cls-2" d="m314.34,115.64c140.36,0,254.14,113.78,254.14,254.14s-113.78,254.14-254.14,254.14S60.2,510.13,60.2,369.78s113.78-254.14,254.14-254.14m0-12c-35.92,0-70.78,7.04-103.6,20.92-31.69,13.41-60.15,32.59-84.59,57.03s-43.63,52.9-57.03,84.59c-13.88,32.82-20.92,67.67-20.92,103.6s7.04,70.78,20.92,103.6c13.41,31.69,32.59,60.15,57.03,84.59s52.9,43.63,84.59,57.03c32.82,13.88,67.67,20.92,103.6,20.92s70.78-7.04,103.6-20.92c31.69-13.41,60.15-32.59,84.59-57.03s43.63-52.9,57.03-84.59c13.88-32.82,20.92-67.67,20.92-103.6s-7.04-70.78-20.92-103.6c-13.41-31.69-32.59-60.15-57.03-84.59s-52.9-43.63-84.59-57.03c-32.82-13.88-67.67-20.92-103.6-20.92h0Z"/><path class="cls-1" d="m500.78,328.06c.26,16.42-36.89,13.4-53.3,12.19-2.35-11.12,14.2-12.69,34.67-33.53.98-.34,1.97-.76,2.99-1.24,1.68,9.25,15.49,13.17,15.65,22.58Zm-313.62-21.73c-15.05,22.45-39.5,21.09-51.2,35.91,16.67,13.18,43.42,0,63.97-10.55-2.24-11.11-6.64-18.87-12.76-25.36Zm443.28,60.25c-4.31-6.62-10.52-12.42-16.13-13.64-7.62-1.67-15.35-6.71-22.15-11.69-49.13-36.02-37.77-44.02-50.3-57.29-5.53-5.86-9.7-13.7-17.25-16.52-10.74-4.01-10.87,10.95-18.51,19.51-3.51,3.95-15.08,9.84-18.52,13.85-1.84,2.14-3.65,4.11-5.44,5.93-7.65,2.71-14.14,1.07-21.03-4.48-2.05-1.66-5.8-3.71-6.64-6.2-3.82-11.24.51-12.05-6.57-24.51-13.3-23.47-48.66-38.39-52.83-62.15-.56-3.13-.5-6.51-2.21-9.2-2.61-4.15-8.59-4.96-13.18-3.28-10.89,3.99-22.49,22.02-33.87,29.24-7.56,4.79-9.63,1.93-33.03,16.38-19.34,11.96-38.65,22.93-60.25,30.42-39.37,13.68-20.41,34.44-65.16,33.07-.07.1-.14.21-.21.31-7.62-8.11-17.93-14.21-30.06-22.33-2.95-1.98-8.21-10.7-11.55-11.9-6.67-2.4-12.66-3.05-17.27,2.31-6.8,7.92-16.68,37.22-40,40.98-55.09,8.89-40.75,15.23-66.6,42.18"/><path class="cls-2" d="m311.27,12c309.63-.02,409.64,373.41,233.38,552.17-76.39,77.48-154.53,109.53-226.54,109.53-117.92,0-219.46-85.91-270.25-198.97C-33.95,292.61,14.92,26.4,291.4,12.5c6.71-.34,13.35-.5,19.87-.5m.03-12v12V0c-6.77,0-13.66.18-20.5.52C150.91,7.55,80.34,76.35,45.78,132.83,16.47,180.72.64,239.72.02,303.45c-.29,29.94,2.76,60.35,9.08,90.39,6.27,29.8,15.62,58.67,27.81,85.8,26.64,59.31,65.92,109.96,113.59,146.49,50.85,38.97,108.81,59.56,167.6,59.56,39.12,0,78.38-9.03,116.69-26.83,40.82-18.97,80.66-48,118.4-86.27,46.05-46.7,75.84-107.89,86.15-176.96,4.87-32.6,5.23-66.02,1.06-99.33-4.17-33.32-12.76-65.71-25.55-96.27-24.4-58.34-63.15-107.44-112.05-142-26.21-18.53-55.28-32.85-86.39-42.57C383.58,5.2,348.21,0,311.3,0h0Z"/></g><text class="cls-5" transform="translate(103.78 452.42)"><tspan x="0" y="0">MyHill</tspan></text><text class="cls-4" transform="translate(134.63 502.46)"><tspan x="0" y="0">PSYCHOLOGY</tspan></text></g></g></svg>