<?xml version="1.0" encoding="UTF-8"?><svg id="Layer_2" xmlns="http://www.w3.org/2000/svg" viewBox="0 0 826.78 214.54"><defs><style>.cls-1{fill:#52525b;font-family:OpenSans-ExtraBold, 'Open Sans';font-size:42.84px;font-weight:700;letter-spacing:.6em;}.cls-2{fill:#f7f0de;}.cls-3{fill:#fcfeff;}.cls-4{fill:#bf7c61;}.cls-5{fill:#3f413f;}.cls-6{fill:#71717a;}.cls-7{fill:#27272a;font-family:LondonTwo, LondonTwo;font-size:104.01px;letter-spacing:.28em;}</style></defs><g id="Layer_1-2"><path class="cls-2" d="m212.83,79.49c-2.1-11.18-4.83-21.93-10.8-31.75-5.45-8.96-12.47-15.71-20.71-21.98-9.14-6.96-17.26-13.69-27.79-18.53C142.66,2.25,131.29-.63,119.25.12c-21.88,1.35-43.35,5.62-62.43,16.79-19.01,11.13-35.42,27.38-44.71,47.49-4.81,10.42-7.82,21.39-10.01,32.63-2.2,11.27-3.03,22.6-.71,33.92,4.5,21.88,17.21,42.14,34.78,55.85,17.15,13.4,39.51,22.47,60.9,26.04,11.35,1.89,23.27,2.81,34.44-.5,5.49-1.63,10.71-2.4,15.99-4.78,2.41-1.09,4.91-1.88,7.48-2.49,1.6-.38,4.63-.32,5.75-1.75-.61-1.77-2.05-.19-2.95-.81-.33-1.35,5.26-4.06,6.22-4.7,2.95-1.99,5.86-4.03,8.73-6.14,4.53-3.33,8.68-6.83,12.4-10.95,3.69-4.1,7.82-7.76,11.53-11.86,4.32-4.78,7.36-10.2,10.07-16,5.5-11.74,8.2-24.22,9.55-37.05,1.29-12.31-1.2-24.28-3.45-36.32Zm-44.4-62.02c-.87.89-7.45-3.31-8.65-3.93-3.82-1.96-7.73-3.74-11.75-5.27-7.55-2.88-15.94-5.34-24.01-6.07,16.41.37,31.01,5.97,44.41,15.27Zm-101.24-3.71c-.28.68-.63.71-1.04.85.15-.58.53-.54,1.04-.85ZM11.86,153.92c-1.48-3.03-2.51-6.19-3.84-9.28-2.92-6.81-5.05-14.12-5.68-21.53-1.24-14.38,2.01-28.65,6.01-42.37,4.28-14.72,11.59-28.16,21.85-39.55,9.61-10.69,21.77-20.69,35.05-26.4.19.14-7.82,5.58-8.78,6.19-2.87,1.84-5.56,3.68-8.08,5.99-5.33,4.88-9.99,10.3-14.68,15.78-9.23,10.78-16.22,23.12-21.18,36.4-5.11,13.67-7.24,27.77-6.7,42.36.26,7.13,1.34,14.1,3.37,20.95,2.01,6.75,5.16,12.92,7.44,19.51-2.29-1.21-3.71-5.87-4.78-8.05Zm4.78,8.06c.51.25.68.68.78,1.38-.71-.35-.79-.83-.78-1.38Zm23.72,24.64c-4.48-3.52-9.19-6.99-12.81-11.43-7.34-8.99-12.7-20.73-15.64-31.91-3.04-11.57-4.37-23.02-3.73-34.96.36-6.59,1.66-13.16,3.53-19.48.85-2.88,1.86-5.72,2.88-8.54.75-2.1,1.68-7.04,3.52-8.35-.42,5.57-2.92,11.31-3.76,16.9-.88,5.86-1.45,11.89-1.46,17.82,0,12.08.42,24.37,4.04,35.98,3.51,11.25,9.24,20.46,16.47,29.68,3.65,4.66,7.45,9.16,11.59,13.39,1.99,2.03,4.01,4.04,6.15,5.91.57.5,4.86,3.36,4.6,4.21-5.54-.41-11.23-5.95-15.38-9.22Zm47.19,21.87c10.09.59,19.97,2.81,30.02,3.66-10.23.54-20.16-1.25-30.02-3.66Zm33.38,1.44c5.55-.77,11.05-1.92,16.65-2.39-5.23,3.06-10.99,2.38-16.65,2.39Zm29.68-6.4c-.02.38-.18.59-.68.49.08-.42.36-.48.68-.5,1.78-2.39,6.35-4.12,8.85-5.72,1.26-.8,6.6-5.32,7.92-4.89.18.23-14.56,10.78-16.77,10.62Zm48.5-41.72c0-.07.04-.11.11-.1-.04.03-.07.06-.11.1Zm.69-.44c-.15.22-.33.3-.57.32.51-1.34,3.68-8.72,5.08-8.76-1.18,2.98-2.73,5.77-4.51,8.44Zm5.08-9.57c-.06.44-.2.83-.56,1.12.06-.43-.2-1.03.56-1.12.02-.04.05-.11.07-.11.09.02.07.06-.07.11Zm2.26-9.48c-4.43,9.84-9.91,19.58-16.45,28.18-3.31,4.36-6.5,7.82-10.89,11.05-5.06,3.72-10.26,7.19-15.57,10.53-4.35,2.73-8.65,5.57-13.06,8.21-2.17,1.3-4.44,3.06-6.8,3.99-2.32.91-5.08.71-7.51,1-11.52,1.39-22.89,3.87-34.57,2.34-10.98-1.45-22.05-4.78-32.78-7.5-9.84-2.48-18.23-11.02-24.95-18.34-7.13-7.78-14.07-15.89-19.3-25.1-5.62-9.92-8.76-21.27-9.62-32.61-1.75-22.86-.12-45.98,11.32-66.32,11.84-21.06,31.03-38.9,54.03-47.17,5.49-1.97,11.43-3.58,17.17-4.57,6.66-1.15,12.32.95,18.77,1.51,1.46.13,11.06,2.27,10.12-.49-.42-1.25-7.35-1.67-8.61-1.9-3.2-.6-6.36-1.15-9.6-1.48,23.19-1.9,44.12,9.05,64.08,19.08,8.97,4.51,16.5,13.57,21.98,21.82,6.41,9.67,11.62,20.6,14.92,31.73,3.04,10.22,3.79,21.61,3.83,32.24.05,11.92-1.58,22.84-6.51,33.8Z"/><path class="cls-3" d="m209.82,76.28c-3.3-11.13-8.51-22.06-14.92-31.73-5.48-8.25-13.01-17.31-21.98-21.82C152.96,12.7,132.03,1.75,108.84,3.65c3.24.33,6.4.88,9.6,1.48,1.26.23,8.19.65,8.61,1.9.94,2.76-8.66.62-10.12.49-6.45-.56-12.11-2.66-18.77-1.51-5.74.99-11.68,2.6-17.17,4.57-23,8.27-42.19,26.11-54.03,47.17-11.44,20.34-13.07,43.46-11.32,66.32.86,11.34,4,22.69,9.62,32.61,5.23,9.21,12.17,17.32,19.3,25.1,6.72,7.32,15.11,15.86,24.95,18.34,10.73,2.72,21.8,6.05,32.78,7.5,11.68,1.53,23.05-.95,34.57-2.34,2.43-.29,5.19-.09,7.51-1,2.36-.93,4.63-2.69,6.8-3.99,4.41-2.64,8.71-5.48,13.06-8.21,5.31-3.34,10.51-6.81,15.57-10.53,4.39-3.23,7.58-6.69,10.89-11.05,6.54-8.6,12.02-18.34,16.45-28.18,4.93-10.96,6.56-21.88,6.51-33.8-.04-10.63-.79-22.02-3.83-32.24Zm-28.63,35.58c-1.31-1.65-2.1-3.64-3.85-4.94-1.52-1.12-3.37-1.48-4.71-2.91-1.19-1.25-1.61-2.72-2.21-4.28-.78-2.03-1.69-2.89-3.31-4.29-1.75-1.5-2.4-3.52-4.37-1.93-1.86,1.5-3.26,3.98-4.91,5.74-.11.55-.44.89-1.01,1,0,.05-.05.09-.1.1-.04.45-.26.71-.72.74-.15.14-.29.27-.43.41,0,.48-.29.66-.71.69l-.44.44c0,.19-.03.38-.05.57,1.67,1.84,5.22,5.33,2.89,7.66-2.08,2.07-6.64,1.45-9.24,1.44-3.21-.01-7.71.51-3.84-3.34,2.31-2.31,5.58-3.33,7.96-5.56-2.09-.86-3.88.27-5.95-1.09-1.82-1.2-2.74-3-3.02-5.08-.33-2.46.05-3.74-1.7-5.76-1-1.15-3.45-3.58-4.97-3.9-.12-.29-.37-.23-.59-.25.13.6-.75.83-.52,1.46-.1.19-.21.38-.32.57-.79.51-.96,1.36-1.21,2.18-1.31.44-2.43,3.13-3.34,4.17-1.25,1.42-2.83,2.55-3.95,4.09-.26.1-.44.29-.57.54-.41,0-.69.2-.87.57-.08.09-.17.18-.26.27-1.77.74-3.2,2.27-5.03,3.04-2.09.89-4.36,1.42-6.54,2.07-.56.04-1.12.07-1.68.11-.32-.07-.64-.18-.86.19-.75.04-1.49.07-2.24.1-5.19-.55-9.8-2.29-13.39-6.28-.85-.93-1.76-1.88-2.98-2.39-.06-.1-.13-.2-.19-.29-.59-.92-1.12-1.88-2.09-2.47-.03-.16-.12-.25-.29-.21v-.12c-.67.13-1.39,0-1.99.43-.31-.03-.67-.27-.85.2-3.13.59-4.61,2.79-6.49,5.05-2.2,2.65-4.81,2.36-8.04,2.59-.04.19-.08.38-.12.58,1.14,2.35,3.84,5.37,1.37,7.04-1.14.77-3.45,1.22-4.8,1.87-1.57.76-3.14,1.52-4.8,2.05-.24-.14-.43-.13-.55.15-1.94-.03-10.1-.93-5.91-4.51,1.5-1.29,4.12-1.53,5.91-2.37,1.82-.85,3.34-2.04,4.84-3.35,1.29-1.13,2.31-1.54,1.18-3.08-.98-1.34-3.55-1.58-4.9-2.57-2.34-1.73-4.08-6.71-7.56-5.82-1.82.47-2.2,2.05-3.11,3.5-1.04,1.64-2.33,3.04-3.81,4.29-2.76,2.32-6.69,5.05-10.27,5.73-2.03.38-3.84.14-5.67,1.29-1.63,1.03-2.72,2.73-3.95,4.19-1.03,1.22-5.62,6.7-6.94,5.59.02-.96,2.18-2.06,2.84-2.66,1.32-1.22,2.46-2.59,3.62-3.96,3.02-3.56,5.05-4.55,9.58-5.48,4.14-.85,6.99-3.18,10.24-5.73,1.58-1.24,2.61-2.28,3.63-3.98.93-1.56,1.54-3.18,3.45-3.73,3.77-1.08,5.21,2.92,7.38,5,1.23,1.18,2.74,1.76,4.21,2.54,1.22.64,2.35,1.82,3.62,2.22,3.22,1.02,6.42-.36,8.35-2.82.98-1.25,1.81-2.49,3.2-3.34,1.41-.86,3.86-.71,4.91-1.96.3-.07.68.11.88-.27-.9-.89-.84-2.41-2.01-3.13-.02-.09-.04-.18-.05-.28.06-.24.09-.47-.22-.57-.66-1.06-.9-2.28-1.42-3.4-.55-2.29-1.03-4.6-1.99-6.78-.29-1.41-.81-2.77-.94-4.22.08-.23.08-.44-.16-.59-.04-1.23-.08-2.45-.12-3.68.15-.27.16-.54.07-.83.03-.18.07-.36.11-.55.25-.26.2-.57.12-.88.03-.28.06-.55.09-.83.48-1,.96-2,1.07-3.12.12-.37.24-.74.36-1.12.73-1.41,1.45-2.83,2.18-4.25.04-.08.06-.16.07-.25.71-.98,1.8-1.66,2.22-2.86.2-.18.4-.36.59-.54,1.36-1.17,2.58-2.5,4.1-3.48.58-.37,1.23-.67,1.54-1.35.23-.03.47-.02.57-.28.5-.34,1.11-.54,1.44-1.11.09-.01.18-.03.26-.07.17.03.26-.05.3-.21.63-.02.92-.55,1.34-.9h.04c1.62-.39,3.13-1.04,4.58-1.84.18-.03.35-.07.52-.1.5.02,1,.14,1.44-.22.46,0,.92.01,1.38.01,1.54.64,3.2.46,4.8.72,3.44.56,6.94.8,10.07,2.63.66.4,1.11,1.18,2,1.19h.02c.7.75,1.52,1.33,2.48,1.7l.05.04c1.49,1.59,3.27,2.88,4.67,4.56.47.56.73,1.33,1.5,1.61l.04.06c.18.96.88,1.65,1.42,2.35,3.67,4.82,4.87,10.36,4.95,16.23.03,2.29-.5,4.52-1.14,6.72-.25.66-.5,1.33-.74,1.99,1.46,1.63,3.45,2.65,4.94,4.28.88.96,1.82,1.85,2.31,3.09.27.06.49.15.23.47.17.59.23,1.19.13,1.79-.4,2.4.54,4.21,2.41,5.62.07.3.29.35.54.32.8.6,1.72.42,2.62.41.21.62.72.23,1.09.31,4.91,1.07,8.46-7.51,11.65-10.02,2.31-1.82,3.14.59,5.09,2.33,2,1.8,2.94,2.72,3.83,5.21,1.76,4.92,6.55,5.73,9.48,9.86,1.41,2,2.43,3.29,4.68,4.3,1.16.51,6.29,1.32,6.55,2.07-3.57,1.38-8.84-1.43-10.99-4.15Z"/><path class="cls-5" d="m185.63,113.94c-2.25-1.01-3.27-2.3-4.68-4.3-2.93-4.13-7.72-4.94-9.48-9.86-.89-2.49-1.83-3.41-3.83-5.21-1.95-1.74-2.78-4.15-5.09-2.33-3.19,2.51-6.74,11.09-11.65,10.02-.37-.08-.88.31-1.09-.31-.9.01-1.82.19-2.62-.41-.25.03-.47-.02-.54-.32-1.87-1.41-2.81-3.22-2.41-5.62.1-.6.04-1.2-.13-1.79-.23-.09-.27-.26-.23-.47-.49-1.24-1.43-2.13-2.31-3.09-1.49-1.63-3.48-2.65-4.94-4.28-1.34-.48-3.81-2.12-4.13-3.64-.27-1.23.56-2.92.52-4.27-.11-3.9-1.12-7.87-3.17-11.21-4.43-7.23-13.18-11.04-21.5-10.25-8.04.77-15.13,5.54-18.69,12.84-1.77,3.65-2.24,7.69-1.69,11.68.3,2.13.87,4.23,1.75,6.2.8,1.78,2.52,3.28,3.15,5.08-1.14.96-2.55.9-3.84,1.2-.2.38-.58.2-.88.27-1.05,1.25-3.5,1.1-4.91,1.96-1.39.85-2.22,2.09-3.2,3.34-1.93,2.46-5.13,3.84-8.35,2.82-1.27-.4-2.4-1.58-3.62-2.22-1.47-.78-2.98-1.36-4.21-2.54-2.17-2.08-3.61-6.08-7.38-5-1.91.55-2.52,2.17-3.45,3.73-1.02,1.7-2.05,2.74-3.63,3.98-3.25,2.55-6.1,4.88-10.24,5.73-4.53.93-6.56,1.92-9.58,5.48-1.16,1.37-2.3,2.74-3.62,3.96-.66.6-2.82,1.7-2.84,2.66,1.32,1.11,5.91-4.37,6.94-5.59,1.23-1.46,2.32-3.16,3.95-4.19,1.83-1.15,3.64-.91,5.67-1.29,3.58-.68,7.51-3.41,10.27-5.73,1.48-1.25,2.77-2.65,3.81-4.29.91-1.45,1.29-3.03,3.11-3.5,3.48-.89,5.22,4.09,7.56,5.82,1.35.99,3.92,1.23,4.9,2.57,1.13,1.54.11,1.95-1.18,3.08-1.5,1.31-3.02,2.5-4.84,3.35-1.79.84-4.41,1.08-5.91,2.37-4.19,3.58,3.97,4.48,5.91,4.51.12-.28.31-.29.55-.15,1.66-.53,3.23-1.29,4.8-2.05,1.35-.65,3.66-1.1,4.8-1.87,2.47-1.67-.23-4.69-1.37-7.04-.39-.29-.38-.49.12-.58,3.23-.23,5.84.06,8.04-2.59,1.88-2.26,3.36-4.46,6.49-5.05.18-.47.54-.23.85-.2.6-.43,1.32-.3,1.99-.43.38-.87,2.99-1.39,3.8-1.29,1.9.22,3.72,2.28,5.31,3.22,3.98,2.36,8.38,3.11,12.98,2.87,4.45-.24,8.99-2.06,12.57-4.71,1.87-1.38,3.47-3.04,4.78-4.96,1.27-1.84,1.89-4.3,3.37-5.96,1.06,1.26,2.78,1.66,3.52,3.23.22.02.47-.04.59.25,1.52.32,3.97,2.75,4.97,3.9,1.75,2.02,1.37,3.3,1.7,5.76.28,2.08,1.2,3.88,3.02,5.08,2.07,1.36,3.86.23,5.95,1.09-2.38,2.23-5.65,3.25-7.96,5.56-3.87,3.85.63,3.33,3.84,3.34,2.6,0,7.16.63,9.24-1.44,2.33-2.33-1.22-5.82-2.89-7.66-.15-.01-.26-.1-.26-.24,0-.21.08-.34.31-.33l.44-.44c.07-.4.31-.62.71-.69.14-.14.28-.27.43-.41.07-.41.34-.63.72-.74.05,0,.09-.05.1-.1.18-.49.5-.84,1.01-1,1.65-1.76,3.05-4.24,4.91-5.74,1.97-1.59,2.62.43,4.37,1.93,1.62,1.4,2.53,2.26,3.31,4.29.6,1.56,1.02,3.03,2.21,4.28,1.34,1.43,3.19,1.79,4.71,2.91,1.75,1.3,2.54,3.29,3.85,4.94,2.15,2.72,7.42,5.53,10.99,4.15-.26-.75-5.39-1.56-6.55-2.07Zm-111.85-4.53c-.74,1.06-3.29,1.26-4.47,1.77-1.21.52-2.31,1.28-3.53,1.79-1.32.55-8.53,2.41-8.32-.86.09-1.37,5.15-2.62,6.53-3.34,2.44-1.26,4.4-3.95,6.93-4.86.97,1.87,1.93,3.7,2.86,5.5Zm56.18-23.12c-3.52,7.5-10.99,12.36-19.35,12.44-4.73-.2-8.87-.97-12.87-3.66-1.16-.78-2.98-1.59-2.16-2.91.77-1.24,4.03-2.59,5.3-3.68,1.57-1.34,3.06-3,4.9-3.98,1.71-.93,3.63-1.05,5.46-1.59,4.04-1.2,6.08-3.8,8.63-6.92.83-1.01,2.64-3.3,4.01-3.47,1.74-.2,2.48,1.87,3.08,3.16.96,2.07,2.09,3.84,3.26,5.79,1.21,2.02.78,2.62-.26,4.82Zm1.4-4.94c-1.83-2.34-3.8-9.59-7.16-9.77-3.83-.2-6.28,5.96-8.74,8.07-3.22,2.75-7.47,2.09-10.89,4.36-1.7,1.12-2.9,2.68-4.44,3.99-1.83,1.56-4.08,2.5-6.06,3.85-11.41-11.43-3.5-29.77,10.83-33.61,7.14-1.92,15.11-.05,20.64,4.9,2.36,2.12,4.17,4.82,5.29,7.78.76,2.01,2.69,8.79.53,10.43Zm23.17,23.5c1.19.94,3.1,3.91,2.31,5.16-1.1,1.73-6.36,1.55-7.92,1.31h-4.96c-.15-.48.1-.69.37-.89,1.09-1.75,3.26-2.77,4.94-3.86,1.82-1.19,3.36-3.22,5.26-1.72Z"/><path class="cls-3" d="m156.84,110.01c-1.1,1.73-6.36,1.55-7.92,1.31h-4.96c-.15-.48.1-.69.37-.89,1.09-1.75,3.26-2.77,4.94-3.86,1.82-1.19,3.36-3.22,5.26-1.72,1.19.94,3.1,3.91,2.31,5.16Z"/><path class="cls-3" d="m73.78,109.41c-.74,1.06-3.29,1.26-4.47,1.77-1.21.52-2.31,1.28-3.53,1.79-1.32.55-8.53,2.41-8.32-.86.09-1.37,5.15-2.62,6.53-3.34,2.44-1.26,4.4-3.95,6.93-4.86.97,1.87,1.93,3.7,2.86,5.5Z"/><path class="cls-4" d="m138.51,77.26c.03,2.29-.5,4.52-1.14,6.72-.25.66-.5,1.33-.74,1.99-1.34-.48-3.81-2.12-4.13-3.64-.27-1.23.56-2.92.52-4.27-.11-3.9-1.12-7.87-3.17-11.21-4.43-7.23-13.18-11.04-21.5-10.25-8.04.77-15.13,5.54-18.69,12.84-1.77,3.65-2.24,7.69-1.69,11.68.3,2.13.87,4.23,1.75,6.2.8,1.78,2.52,3.28,3.15,5.08-1.14.96-2.55.9-3.84,1.2-.9-.89-.84-2.41-2.01-3.13-.02-.09-.04-.18-.05-.28.06-.24.09-.47-.22-.57-.66-1.06-.9-2.28-1.42-3.4-.55-2.29-1.03-4.6-1.99-6.78-.29-1.41-.81-2.77-.94-4.22.08-.23.08-.44-.16-.59-.04-1.23-.08-2.45-.12-3.68.15-.27.16-.54.07-.83.03-.18.07-.36.11-.55.25-.26.2-.57.12-.88.03-.28.06-.55.09-.83.48-1,.96-2,1.07-3.12.12-.37.24-.74.36-1.12.73-1.41,1.45-2.83,2.18-4.25.04-.08.06-.16.07-.25.71-.98,1.8-1.66,2.22-2.86.2-.18.4-.36.59-.54,1.36-1.17,2.58-2.5,4.1-3.48.58-.37,1.23-.67,1.54-1.35.23-.03.47-.02.57-.28.5-.34,1.11-.54,1.44-1.11.09-.01.18-.03.26-.07.17.03.26-.05.3-.21.63-.02.92-.55,1.34-.9h.04c1.62-.39,3.13-1.04,4.58-1.84.18-.03.35-.07.52-.1.5.02,1,.14,1.44-.22.46,0,.92.01,1.38.01,1.54.64,3.2.46,4.8.72,3.44.56,6.94.8,10.07,2.63.66.4,1.11,1.18,2,1.19h.02c.7.75,1.52,1.33,2.48,1.7l.05.04c1.49,1.59,3.27,2.88,4.67,4.56.47.56.73,1.33,1.5,1.61l.04.06c.18.96.88,1.65,1.42,2.35,3.67,4.82,4.87,10.36,4.95,16.23Z"/><polygon class="cls-4" points="97.2 49.22 97.21 49.22 97.21 49.21 97.2 49.22"/><path class="cls-4" d="m135.39,88.78c-.1.19-.21.38-.32.57-.79.51-.96,1.36-1.21,2.18-1.31.44-2.43,3.13-3.34,4.17-1.25,1.42-2.83,2.55-3.95,4.09-.26.1-.44.29-.57.54-.41,0-.69.2-.87.57-.08.09-.17.18-.26.27-1.77.74-3.2,2.27-5.03,3.04-2.09.89-4.36,1.42-6.54,2.07-.56.04-1.12.07-1.68.11-.32-.07-.64-.18-.86.19-.75.04-1.49.07-2.24.1-5.19-.55-9.8-2.29-13.39-6.28-.85-.93-1.76-1.88-2.98-2.39-.06-.1-.13-.2-.19-.29-.59-.92-1.12-1.88-2.09-2.47-.03-.16-.12-.25-.29-.21v-.12c.38-.87,2.99-1.39,3.8-1.29,1.9.22,3.72,2.28,5.31,3.22,3.98,2.36,8.38,3.11,12.98,2.87,4.45-.24,8.99-2.06,12.57-4.71,1.87-1.38,3.47-3.04,4.78-4.96,1.27-1.84,1.89-4.3,3.37-5.96,1.06,1.26,2.78,1.66,3.52,3.23.13.6-.75.83-.52,1.46Z"/><path class="cls-4" d="m157.83,99.25c-.11.55-.44.89-1.01,1,.18-.49.5-.84,1.01-1Z"/><path class="cls-4" d="m155.57,101.5c0,.48-.29.66-.71.69.07-.4.31-.62.71-.69Z"/><path class="cls-4" d="m156.72,100.35c-.04.45-.26.71-.72.74.07-.41.34-.63.72-.74Z"/><path class="cls-4" d="m154.42,102.63c0,.19-.03.38-.05.57-.15-.01-.26-.1-.26-.24,0-.21.08-.34.31-.33Z"/><path class="cls-4" d="m144.11,93.81c-.23-.09-.27-.26-.23-.47.27.06.49.15.23.47Z"/><path class="cls-4" d="m72.21,103.19c-.04.19-.08.38-.12.58-.39-.29-.38-.49.12-.58Z"/><path class="cls-4" d="m130.83,70.92c-1.12-2.96-2.93-5.67-5.29-7.78-5.53-4.95-13.5-6.82-20.64-4.9-14.33,3.85-22.25,22.19-10.83,33.61,1.98-1.35,4.23-2.29,6.06-3.85,1.53-1.31,2.73-2.87,4.44-3.99,3.42-2.26,7.67-1.6,10.89-4.35,2.47-2.11,4.92-8.28,8.75-8.07,3.36.18,5.33,7.43,7.16,9.77,2.15-1.64.23-8.42-.53-10.43Z"/><path class="cls-4" d="m123.87,72.52c-1.37.16-3.18,2.46-4,3.47-2.55,3.12-4.59,5.72-8.64,6.92-1.83.54-3.75.66-5.46,1.59-1.83.99-3.32,2.64-4.89,3.99-1.27,1.09-4.53,2.43-5.3,3.68-.82,1.33,1,2.13,2.16,2.91,3.99,2.69,8.14,3.45,12.87,3.66,8.36-.08,15.83-4.94,19.35-12.44,1.03-2.2,1.47-2.8.25-4.83-1.17-1.95-2.3-3.71-3.26-5.79-.6-1.29-1.34-3.36-3.08-3.16Z"/><text class="cls-7" transform="translate(272.74 103.93)"><tspan x="0" y="0">MYHILL</tspan></text><text class="cls-1" transform="translate(272.74 178.58)"><tspan x="0" y="0">PSYCHOLOGY</tspan></text><rect class="cls-6" x="272.74" y="127.37" width="527.86" height="2"/></g></svg>