<?xml version="1.0" encoding="utf-8"?>
<!-- Generator: Adobe Illustrator 27.6.1, SVG Export Plug-In . SVG Version: 6.00 Build 0)  -->
<svg version="1.1" id="Layer_2_00000075851117097453652360000006164448314267693493_"
	 xmlns="http://www.w3.org/2000/svg" xmlns:xlink="http://www.w3.org/1999/xlink" x="0px" y="0px" viewBox="0 0 826.8 214.5"
	 style="enable-background:new 0 0 826.8 214.5;" xml:space="preserve">
<style type="text/css">
	.st0{fill:#F7F0DE;}
	.st1{fill:#FCFEFF;}
	.st2{fill:#3F413F;}
	.st3{fill:#BF7C61;}
	.st4{enable-background:new    ;}
	.st5{fill:#27272A;}
	.st6{fill:#52525B;}
	.st7{fill:#71717A;}
</style>
<g id="Layer_1-2">
	<path class="st0" d="M212.8,79.5c-2.1-11.2-4.8-21.9-10.8-31.8c-5.4-9-12.5-15.7-20.7-22c-9.1-7-17.3-13.7-27.8-18.5
		c-10.9-5-22.2-7.9-34.3-7.1C97.4,1.5,75.9,5.7,56.8,16.9C37.8,28,21.4,44.3,12.1,64.4C7.3,74.8,4.3,85.8,2.1,97
		c-2.2,11.3-3,22.6-0.7,33.9c4.5,21.9,17.2,42.1,34.8,55.8c17.2,13.4,39.5,22.5,60.9,26c11.3,1.9,23.3,2.8,34.4-0.5
		c5.5-1.6,10.7-2.4,16-4.8c2.4-1.1,4.9-1.9,7.5-2.5c1.6-0.4,4.6-0.3,5.8-1.8c-0.6-1.8-2.1-0.2-2.9-0.8c-0.3-1.4,5.3-4.1,6.2-4.7
		c2.9-2,5.9-4,8.7-6.1c4.5-3.3,8.7-6.8,12.4-10.9c3.7-4.1,7.8-7.8,11.5-11.9c4.3-4.8,7.4-10.2,10.1-16c5.5-11.7,8.2-24.2,9.6-37.1
		C217.6,103.5,215.1,91.5,212.8,79.5L212.8,79.5z M168.4,17.5c-0.9,0.9-7.4-3.3-8.6-3.9c-3.8-2-7.7-3.7-11.8-5.3
		c-7.6-2.9-15.9-5.3-24-6.1C140.4,2.6,155,8.2,168.4,17.5z M67.2,13.8c-0.3,0.7-0.6,0.7-1,0.9C66.3,14,66.7,14.1,67.2,13.8z
		 M11.9,153.9c-1.5-3-2.5-6.2-3.8-9.3c-2.9-6.8-5.1-14.1-5.7-21.5c-1.2-14.4,2-28.7,6-42.4C12.6,66,19.9,52.6,30.2,41.2
		c9.6-10.7,21.8-20.7,35-26.4c0.2,0.1-7.8,5.6-8.8,6.2c-2.9,1.8-5.6,3.7-8.1,6c-5.3,4.9-10,10.3-14.7,15.8
		c-9.2,10.8-16.2,23.1-21.2,36.4c-5.1,13.7-7.2,27.8-6.7,42.4c0.3,7.1,1.3,14.1,3.4,20.9c2,6.8,5.2,12.9,7.4,19.5
		C14.3,160.8,12.9,156.1,11.9,153.9z M16.6,162c0.5,0.2,0.7,0.7,0.8,1.4C16.7,163,16.6,162.5,16.6,162z M40.4,186.6
		c-4.5-3.5-9.2-7-12.8-11.4c-7.3-9-12.7-20.7-15.6-31.9c-3-11.6-4.4-23-3.7-35c0.4-6.6,1.7-13.2,3.5-19.5c0.9-2.9,1.9-5.7,2.9-8.5
		c0.8-2.1,1.7-7,3.5-8.3c-0.4,5.6-2.9,11.3-3.8,16.9c-0.9,5.9-1.4,11.9-1.5,17.8c0,12.1,0.4,24.4,4,36c3.5,11.2,9.2,20.5,16.5,29.7
		c3.7,4.7,7.5,9.2,11.6,13.4c2,2,4,4,6.2,5.9c0.6,0.5,4.9,3.4,4.6,4.2C50.2,195.4,44.5,189.9,40.4,186.6z M87.6,208.5
		c10.1,0.6,20,2.8,30,3.7C107.3,212.7,97.4,210.9,87.6,208.5z M120.9,209.9c5.6-0.8,11.1-1.9,16.6-2.4
		C132.4,210.6,126.6,209.9,120.9,209.9z M150.6,203.5c0,0.4-0.2,0.6-0.7,0.5C150,203.6,150.3,203.5,150.6,203.5
		c1.8-2.4,6.4-4.1,8.9-5.7c1.3-0.8,6.6-5.3,7.9-4.9C167.6,193.1,152.8,203.7,150.6,203.5z M199.1,161.8c0-0.1,0-0.1,0.1-0.1
		C199.2,161.7,199.2,161.8,199.1,161.8z M199.8,161.4c-0.1,0.2-0.3,0.3-0.6,0.3c0.5-1.3,3.7-8.7,5.1-8.8
		C203.1,155.9,201.6,158.7,199.8,161.4L199.8,161.4z M204.9,151.8c-0.1,0.4-0.2,0.8-0.6,1.1C204.4,152.5,204.1,151.9,204.9,151.8
		c0,0,0.1-0.1,0.1-0.1C205,151.7,205,151.7,204.9,151.8z M207.1,142.3c-4.4,9.8-9.9,19.6-16.4,28.2c-3.3,4.4-6.5,7.8-10.9,11.1
		c-5.1,3.7-10.3,7.2-15.6,10.5c-4.4,2.7-8.6,5.6-13.1,8.2c-2.2,1.3-4.4,3.1-6.8,4c-2.3,0.9-5.1,0.7-7.5,1
		c-11.5,1.4-22.9,3.9-34.6,2.3c-11-1.4-22-4.8-32.8-7.5c-9.8-2.5-18.2-11-25-18.3c-7.1-7.8-14.1-15.9-19.3-25.1
		c-5.6-9.9-8.8-21.3-9.6-32.6c-1.8-22.9-0.1-46,11.3-66.3c11.8-21.1,31-38.9,54-47.2C86.5,8.6,92.4,7,98.2,6
		c6.7-1.2,12.3,0.9,18.8,1.5c1.5,0.1,11.1,2.3,10.1-0.5c-0.4-1.2-7.3-1.7-8.6-1.9c-3.2-0.6-6.4-1.2-9.6-1.5
		c23.2-1.9,44.1,9.1,64.1,19.1c9,4.5,16.5,13.6,22,21.8c6.4,9.7,11.6,20.6,14.9,31.7c3,10.2,3.8,21.6,3.8,32.2
		C213.7,120.4,212.1,131.4,207.1,142.3L207.1,142.3z"/>
	<path class="st1" d="M209.8,76.3c-3.3-11.1-8.5-22.1-14.9-31.7c-5.5-8.2-13-17.3-22-21.8c-20-10-40.9-21-64.1-19.1
		c3.2,0.3,6.4,0.9,9.6,1.5c1.3,0.2,8.2,0.7,8.6,1.9c0.9,2.8-8.7,0.6-10.1,0.5C110.5,7,104.8,4.9,98.2,6C92.4,7,86.5,8.6,81,10.6
		c-23,8.3-42.2,26.1-54,47.2c-11.4,20.3-13.1,43.5-11.3,66.3c0.9,11.3,4,22.7,9.6,32.6c5.2,9.2,12.2,17.3,19.3,25.1
		c6.7,7.3,15.1,15.9,25,18.3c10.7,2.7,21.8,6.1,32.8,7.5c11.7,1.5,23.1-0.9,34.6-2.3c2.4-0.3,5.2-0.1,7.5-1c2.4-0.9,4.6-2.7,6.8-4
		c4.4-2.6,8.7-5.5,13.1-8.2c5.3-3.3,10.5-6.8,15.6-10.5c4.4-3.2,7.6-6.7,10.9-11.1c6.5-8.6,12-18.3,16.4-28.2
		c4.9-11,6.6-21.9,6.5-33.8C213.6,97.9,212.9,86.5,209.8,76.3L209.8,76.3z M181.2,111.9c-1.3-1.7-2.1-3.6-3.9-4.9
		c-1.5-1.1-3.4-1.5-4.7-2.9c-1.2-1.2-1.6-2.7-2.2-4.3c-0.8-2-1.7-2.9-3.3-4.3c-1.8-1.5-2.4-3.5-4.4-1.9c-1.9,1.5-3.3,4-4.9,5.7
		c-0.1,0.6-0.4,0.9-1,1c0,0.1-0.1,0.1-0.1,0.1c0,0.4-0.3,0.7-0.7,0.7c-0.1,0.1-0.3,0.3-0.4,0.4c0,0.5-0.3,0.7-0.7,0.7l-0.4,0.4
		c0,0.2,0,0.4-0.1,0.6c1.7,1.8,5.2,5.3,2.9,7.7c-2.1,2.1-6.6,1.4-9.2,1.4c-3.2,0-7.7,0.5-3.8-3.3c2.3-2.3,5.6-3.3,8-5.6
		c-2.1-0.9-3.9,0.3-5.9-1.1c-1.8-1.2-2.7-3-3-5.1c-0.3-2.5,0.1-3.7-1.7-5.8c-1-1.2-3.4-3.6-5-3.9c-0.1-0.3-0.4-0.2-0.6-0.2
		c0.1,0.6-0.8,0.8-0.5,1.5c-0.1,0.2-0.2,0.4-0.3,0.6c-0.8,0.5-1,1.4-1.2,2.2c-1.3,0.4-2.4,3.1-3.3,4.2c-1.2,1.4-2.8,2.6-3.9,4.1
		c-0.3,0.1-0.4,0.3-0.6,0.5c-0.4,0-0.7,0.2-0.9,0.6c-0.1,0.1-0.2,0.2-0.3,0.3c-1.8,0.7-3.2,2.3-5,3c-2.1,0.9-4.4,1.4-6.5,2.1
		c-0.6,0-1.1,0.1-1.7,0.1c-0.3-0.1-0.6-0.2-0.9,0.2c-0.8,0-1.5,0.1-2.2,0.1c-5.2-0.6-9.8-2.3-13.4-6.3c-0.8-0.9-1.8-1.9-3-2.4
		c-0.1-0.1-0.1-0.2-0.2-0.3c-0.6-0.9-1.1-1.9-2.1-2.5c0-0.2-0.1-0.2-0.3-0.2v-0.1c-0.7,0.1-1.4,0-2,0.4c-0.3,0-0.7-0.3-0.8,0.2
		c-3.1,0.6-4.6,2.8-6.5,5.1c-2.2,2.7-4.8,2.4-8,2.6c0,0.2-0.1,0.4-0.1,0.6c1.1,2.3,3.8,5.4,1.4,7c-1.1,0.8-3.4,1.2-4.8,1.9
		c-1.6,0.8-3.1,1.5-4.8,2.1c-0.2-0.1-0.4-0.1-0.5,0.2c-1.9,0-10.1-0.9-5.9-4.5c1.5-1.3,4.1-1.5,5.9-2.4c1.8-0.8,3.3-2,4.8-3.3
		c1.3-1.1,2.3-1.5,1.2-3.1c-1-1.3-3.6-1.6-4.9-2.6c-2.3-1.7-4.1-6.7-7.6-5.8c-1.8,0.5-2.2,2.1-3.1,3.5c-1,1.6-2.3,3-3.8,4.3
		c-2.8,2.3-6.7,5.1-10.3,5.7c-2,0.4-3.8,0.1-5.7,1.3c-1.6,1-2.7,2.7-4,4.2c-1,1.2-5.6,6.7-6.9,5.6c0-1,2.2-2.1,2.8-2.7
		c1.3-1.2,2.5-2.6,3.6-4c3-3.6,5-4.6,9.6-5.5c4.1-0.8,7-3.2,10.2-5.7c1.6-1.2,2.6-2.3,3.6-4c0.9-1.6,1.5-3.2,3.5-3.7
		c3.8-1.1,5.2,2.9,7.4,5c1.2,1.2,2.7,1.8,4.2,2.5c1.2,0.6,2.3,1.8,3.6,2.2c3.2,1,6.4-0.4,8.3-2.8c1-1.2,1.8-2.5,3.2-3.3
		c1.4-0.9,3.9-0.7,4.9-2c0.3-0.1,0.7,0.1,0.9-0.3c-0.9-0.9-0.8-2.4-2-3.1c0-0.1,0-0.2-0.1-0.3c0.1-0.2,0.1-0.5-0.2-0.6
		c-0.7-1.1-0.9-2.3-1.4-3.4c-0.6-2.3-1-4.6-2-6.8c-0.3-1.4-0.8-2.8-0.9-4.2c0.1-0.2,0.1-0.4-0.2-0.6c0-1.2-0.1-2.4-0.1-3.7
		c0.2-0.3,0.2-0.5,0.1-0.8c0-0.2,0.1-0.4,0.1-0.6c0.2-0.3,0.2-0.6,0.1-0.9c0-0.3,0.1-0.6,0.1-0.8c0.5-1,1-2,1.1-3.1
		c0.1-0.4,0.2-0.7,0.4-1.1c0.7-1.4,1.4-2.8,2.2-4.2c0-0.1,0.1-0.2,0.1-0.2c0.7-1,1.8-1.7,2.2-2.9c0.2-0.2,0.4-0.4,0.6-0.5
		c1.4-1.2,2.6-2.5,4.1-3.5c0.6-0.4,1.2-0.7,1.5-1.3c0.2,0,0.5,0,0.6-0.3c0.5-0.3,1.1-0.5,1.4-1.1c0.1,0,0.2,0,0.3-0.1
		c0.2,0,0.3,0,0.3-0.2c0.6,0,0.9-0.5,1.3-0.9h0c1.6-0.4,3.1-1,4.6-1.8c0.2,0,0.3-0.1,0.5-0.1c0.5,0,1,0.1,1.4-0.2c0.5,0,0.9,0,1.4,0
		c1.5,0.6,3.2,0.5,4.8,0.7c3.4,0.6,6.9,0.8,10.1,2.6c0.7,0.4,1.1,1.2,2,1.2h0c0.7,0.8,1.5,1.3,2.5,1.7l0.1,0
		c1.5,1.6,3.3,2.9,4.7,4.6c0.5,0.6,0.7,1.3,1.5,1.6l0,0.1c0.2,1,0.9,1.7,1.4,2.3c3.7,4.8,4.9,10.4,4.9,16.2c0,2.3-0.5,4.5-1.1,6.7
		c-0.2,0.7-0.5,1.3-0.7,2c1.5,1.6,3.4,2.7,4.9,4.3c0.9,1,1.8,1.8,2.3,3.1c0.3,0.1,0.5,0.2,0.2,0.5c0.2,0.6,0.2,1.2,0.1,1.8
		c-0.4,2.4,0.5,4.2,2.4,5.6c0.1,0.3,0.3,0.3,0.5,0.3c0.8,0.6,1.7,0.4,2.6,0.4c0.2,0.6,0.7,0.2,1.1,0.3c4.9,1.1,8.5-7.5,11.6-10
		c2.3-1.8,3.1,0.6,5.1,2.3c2,1.8,2.9,2.7,3.8,5.2c1.8,4.9,6.6,5.7,9.5,9.9c1.4,2,2.4,3.3,4.7,4.3c1.2,0.5,6.3,1.3,6.6,2.1
		C188.6,117.4,183.3,114.6,181.2,111.9L181.2,111.9z"/>
	<path class="st2" d="M185.6,113.9c-2.2-1-3.3-2.3-4.7-4.3c-2.9-4.1-7.7-4.9-9.5-9.9c-0.9-2.5-1.8-3.4-3.8-5.2
		c-1.9-1.7-2.8-4.2-5.1-2.3c-3.2,2.5-6.7,11.1-11.6,10c-0.4-0.1-0.9,0.3-1.1-0.3c-0.9,0-1.8,0.2-2.6-0.4c-0.2,0-0.5,0-0.5-0.3
		c-1.9-1.4-2.8-3.2-2.4-5.6c0.1-0.6,0-1.2-0.1-1.8c-0.2-0.1-0.3-0.3-0.2-0.5c-0.5-1.2-1.4-2.1-2.3-3.1c-1.5-1.6-3.5-2.7-4.9-4.3
		c-1.3-0.5-3.8-2.1-4.1-3.6c-0.3-1.2,0.6-2.9,0.5-4.3c-0.1-3.9-1.1-7.9-3.2-11.2c-4.4-7.2-13.2-11-21.5-10.2
		c-8,0.8-15.1,5.5-18.7,12.8c-1.8,3.7-2.2,7.7-1.7,11.7c0.3,2.1,0.9,4.2,1.8,6.2c0.8,1.8,2.5,3.3,3.2,5.1c-1.1,1-2.6,0.9-3.8,1.2
		c-0.2,0.4-0.6,0.2-0.9,0.3c-1.1,1.2-3.5,1.1-4.9,2c-1.4,0.8-2.2,2.1-3.2,3.3c-1.9,2.5-5.1,3.8-8.3,2.8c-1.3-0.4-2.4-1.6-3.6-2.2
		c-1.5-0.8-3-1.4-4.2-2.5c-2.2-2.1-3.6-6.1-7.4-5C54.6,92.8,54,94.4,53,96c-1,1.7-2,2.7-3.6,4c-3.2,2.6-6.1,4.9-10.2,5.7
		c-4.5,0.9-6.6,1.9-9.6,5.5c-1.2,1.4-2.3,2.7-3.6,4c-0.7,0.6-2.8,1.7-2.8,2.7c1.3,1.1,5.9-4.4,6.9-5.6c1.2-1.5,2.3-3.2,3.9-4.2
		c1.8-1.2,3.6-0.9,5.7-1.3c3.6-0.7,7.5-3.4,10.3-5.7c1.5-1.2,2.8-2.7,3.8-4.3c0.9-1.4,1.3-3,3.1-3.5c3.5-0.9,5.2,4.1,7.6,5.8
		c1.3,1,3.9,1.2,4.9,2.6c1.1,1.5,0.1,1.9-1.2,3.1c-1.5,1.3-3,2.5-4.8,3.3c-1.8,0.8-4.4,1.1-5.9,2.4c-4.2,3.6,4,4.5,5.9,4.5
		c0.1-0.3,0.3-0.3,0.5-0.2c1.7-0.5,3.2-1.3,4.8-2.1c1.3-0.7,3.7-1.1,4.8-1.9c2.5-1.7-0.2-4.7-1.4-7c-0.4-0.3-0.4-0.5,0.1-0.6
		c3.2-0.2,5.8,0.1,8-2.6c1.9-2.3,3.4-4.5,6.5-5.1c0.2-0.5,0.5-0.2,0.8-0.2c0.6-0.4,1.3-0.3,2-0.4c0.4-0.9,3-1.4,3.8-1.3
		c1.9,0.2,3.7,2.3,5.3,3.2c4,2.4,8.4,3.1,13,2.9c4.4-0.2,9-2.1,12.6-4.7c1.9-1.4,3.5-3,4.8-5c1.3-1.8,1.9-4.3,3.4-6
		c1.1,1.3,2.8,1.7,3.5,3.2c0.2,0,0.5,0,0.6,0.2c1.5,0.3,4,2.8,5,3.9c1.8,2,1.4,3.3,1.7,5.8c0.3,2.1,1.2,3.9,3,5.1
		c2.1,1.4,3.9,0.2,5.9,1.1c-2.4,2.2-5.6,3.2-8,5.6c-3.9,3.8,0.6,3.3,3.8,3.3c2.6,0,7.2,0.6,9.2-1.4c2.3-2.3-1.2-5.8-2.9-7.7
		c-0.1,0-0.3-0.1-0.3-0.2c0-0.2,0.1-0.3,0.3-0.3l0.4-0.4c0.1-0.4,0.3-0.6,0.7-0.7c0.1-0.1,0.3-0.3,0.4-0.4c0.1-0.4,0.3-0.6,0.7-0.7
		c0.1,0,0.1-0.1,0.1-0.1c0.2-0.5,0.5-0.8,1-1c1.6-1.8,3.1-4.2,4.9-5.7c2-1.6,2.6,0.4,4.4,1.9c1.6,1.4,2.5,2.3,3.3,4.3
		c0.6,1.6,1,3,2.2,4.3c1.3,1.4,3.2,1.8,4.7,2.9c1.8,1.3,2.5,3.3,3.9,4.9c2.1,2.7,7.4,5.5,11,4.2
		C191.9,115.3,186.8,114.5,185.6,113.9L185.6,113.9z M73.8,109.4c-0.7,1.1-3.3,1.3-4.5,1.8c-1.2,0.5-2.3,1.3-3.5,1.8
		c-1.3,0.6-8.5,2.4-8.3-0.9c0.1-1.4,5.2-2.6,6.5-3.3c2.4-1.3,4.4-3.9,6.9-4.9C71.9,105.8,72.9,107.6,73.8,109.4z M130,86.3
		c-3.5,7.5-11,12.4-19.3,12.4c-4.7-0.2-8.9-1-12.9-3.7c-1.2-0.8-3-1.6-2.2-2.9c0.8-1.2,4-2.6,5.3-3.7c1.6-1.3,3.1-3,4.9-4
		c1.7-0.9,3.6-1.1,5.5-1.6c4-1.2,6.1-3.8,8.6-6.9c0.8-1,2.6-3.3,4-3.5c1.7-0.2,2.5,1.9,3.1,3.2c1,2.1,2.1,3.8,3.3,5.8
		C131.4,83.5,131,84.1,130,86.3z M131.4,81.3c-1.8-2.3-3.8-9.6-7.2-9.8c-3.8-0.2-6.3,6-8.7,8.1c-3.2,2.8-7.5,2.1-10.9,4.4
		c-1.7,1.1-2.9,2.7-4.4,4c-1.8,1.6-4.1,2.5-6.1,3.8c-11.4-11.4-3.5-29.8,10.8-33.6c7.1-1.9,15.1,0,20.6,4.9c2.4,2.1,4.2,4.8,5.3,7.8
		C131.6,72.9,133.5,79.7,131.4,81.3z M154.5,104.8c1.2,0.9,3.1,3.9,2.3,5.2c-1.1,1.7-6.4,1.6-7.9,1.3h-5c-0.1-0.5,0.1-0.7,0.4-0.9
		c1.1-1.8,3.3-2.8,4.9-3.9C151.1,105.4,152.6,103.3,154.5,104.8L154.5,104.8z"/>
	<path class="st1" d="M156.8,110c-1.1,1.7-6.4,1.6-7.9,1.3h-5c-0.1-0.5,0.1-0.7,0.4-0.9c1.1-1.8,3.3-2.8,4.9-3.9
		c1.8-1.2,3.4-3.2,5.3-1.7C155.7,105.8,157.6,108.8,156.8,110L156.8,110z"/>
	<path class="st1" d="M73.8,109.4c-0.7,1.1-3.3,1.3-4.5,1.8c-1.2,0.5-2.3,1.3-3.5,1.8c-1.3,0.6-8.5,2.4-8.3-0.9
		c0.1-1.4,5.2-2.6,6.5-3.3c2.4-1.3,4.4-3.9,6.9-4.9C71.9,105.8,72.8,107.6,73.8,109.4z"/>
	<path class="st3" d="M138.5,77.3c0,2.3-0.5,4.5-1.1,6.7c-0.2,0.7-0.5,1.3-0.7,2c-1.3-0.5-3.8-2.1-4.1-3.6c-0.3-1.2,0.6-2.9,0.5-4.3
		c-0.1-3.9-1.1-7.9-3.2-11.2c-4.4-7.2-13.2-11-21.5-10.2c-8,0.8-15.1,5.5-18.7,12.8c-1.8,3.7-2.2,7.7-1.7,11.7
		c0.3,2.1,0.9,4.2,1.8,6.2c0.8,1.8,2.5,3.3,3.2,5.1c-1.1,1-2.6,0.9-3.8,1.2c-0.9-0.9-0.8-2.4-2-3.1c0-0.1,0-0.2-0.1-0.3
		c0.1-0.2,0.1-0.5-0.2-0.6c-0.7-1.1-0.9-2.3-1.4-3.4c-0.6-2.3-1-4.6-2-6.8c-0.3-1.4-0.8-2.8-0.9-4.2c0.1-0.2,0.1-0.4-0.2-0.6
		c0-1.2-0.1-2.4-0.1-3.7c0.2-0.3,0.2-0.5,0.1-0.8c0-0.2,0.1-0.4,0.1-0.6c0.2-0.3,0.2-0.6,0.1-0.9c0-0.3,0.1-0.6,0.1-0.8
		c0.5-1,1-2,1.1-3.1c0.1-0.4,0.2-0.7,0.4-1.1c0.7-1.4,1.4-2.8,2.2-4.2c0-0.1,0.1-0.2,0.1-0.2c0.7-1,1.8-1.7,2.2-2.9
		c0.2-0.2,0.4-0.4,0.6-0.5c1.4-1.2,2.6-2.5,4.1-3.5c0.6-0.4,1.2-0.7,1.5-1.3c0.2,0,0.5,0,0.6-0.3c0.5-0.3,1.1-0.5,1.4-1.1
		c0.1,0,0.2,0,0.3-0.1c0.2,0,0.3,0,0.3-0.2c0.6,0,0.9-0.5,1.3-0.9h0c1.6-0.4,3.1-1,4.6-1.8c0.2,0,0.3-0.1,0.5-0.1
		c0.5,0,1,0.1,1.4-0.2c0.5,0,0.9,0,1.4,0c1.5,0.6,3.2,0.5,4.8,0.7c3.4,0.6,6.9,0.8,10.1,2.6c0.7,0.4,1.1,1.2,2,1.2h0
		c0.7,0.8,1.5,1.3,2.5,1.7l0.1,0c1.5,1.6,3.3,2.9,4.7,4.6c0.5,0.6,0.7,1.3,1.5,1.6l0,0.1c0.2,1,0.9,1.7,1.4,2.3
		C137.2,65.9,138.4,71.4,138.5,77.3L138.5,77.3z"/>
	<polygon class="st3" points="97.2,49.2 97.2,49.2 97.2,49.2 	"/>
	<path class="st3" d="M135.4,88.8c-0.1,0.2-0.2,0.4-0.3,0.6c-0.8,0.5-1,1.4-1.2,2.2c-1.3,0.4-2.4,3.1-3.3,4.2
		c-1.2,1.4-2.8,2.6-3.9,4.1c-0.3,0.1-0.4,0.3-0.6,0.5c-0.4,0-0.7,0.2-0.9,0.6c-0.1,0.1-0.2,0.2-0.3,0.3c-1.8,0.7-3.2,2.3-5,3
		c-2.1,0.9-4.4,1.4-6.5,2.1c-0.6,0-1.1,0.1-1.7,0.1c-0.3-0.1-0.6-0.2-0.9,0.2c-0.8,0-1.5,0.1-2.2,0.1c-5.2-0.6-9.8-2.3-13.4-6.3
		c-0.8-0.9-1.8-1.9-3-2.4c-0.1-0.1-0.1-0.2-0.2-0.3c-0.6-0.9-1.1-1.9-2.1-2.5c0-0.2-0.1-0.2-0.3-0.2v-0.1c0.4-0.9,3-1.4,3.8-1.3
		c1.9,0.2,3.7,2.3,5.3,3.2c4,2.4,8.4,3.1,13,2.9c4.4-0.2,9-2.1,12.6-4.7c1.9-1.4,3.5-3,4.8-5c1.3-1.8,1.9-4.3,3.4-6
		c1.1,1.3,2.8,1.7,3.5,3.2C136,87.9,135.2,88.2,135.4,88.8L135.4,88.8z"/>
	<path class="st3" d="M157.8,99.2c-0.1,0.6-0.4,0.9-1,1C157,99.8,157.3,99.4,157.8,99.2z"/>
	<path class="st3" d="M155.6,101.5c0,0.5-0.3,0.7-0.7,0.7C154.9,101.8,155.2,101.6,155.6,101.5z"/>
	<path class="st3" d="M156.7,100.3c0,0.4-0.3,0.7-0.7,0.7C156.1,100.7,156.3,100.5,156.7,100.3z"/>
	<path class="st3" d="M154.4,102.6c0,0.2,0,0.4-0.1,0.6c-0.1,0-0.3-0.1-0.3-0.2C154.1,102.8,154.2,102.6,154.4,102.6z"/>
	<path class="st3" d="M144.1,93.8c-0.2-0.1-0.3-0.3-0.2-0.5C144.2,93.4,144.4,93.5,144.1,93.8z"/>
	<path class="st3" d="M72.2,103.2c0,0.2-0.1,0.4-0.1,0.6C71.7,103.5,71.7,103.3,72.2,103.2z"/>
	<path class="st3" d="M130.8,70.9c-1.1-3-2.9-5.7-5.3-7.8c-5.5-5-13.5-6.8-20.6-4.9c-14.3,3.8-22.2,22.2-10.8,33.6
		c2-1.3,4.2-2.3,6.1-3.8c1.5-1.3,2.7-2.9,4.4-4c3.4-2.3,7.7-1.6,10.9-4.3c2.5-2.1,4.9-8.3,8.8-8.1c3.4,0.2,5.3,7.4,7.2,9.8
		C133.5,79.7,131.6,72.9,130.8,70.9L130.8,70.9z"/>
	<path class="st3" d="M123.9,72.5c-1.4,0.2-3.2,2.5-4,3.5c-2.6,3.1-4.6,5.7-8.6,6.9c-1.8,0.5-3.8,0.7-5.5,1.6c-1.8,1-3.3,2.6-4.9,4
		c-1.3,1.1-4.5,2.4-5.3,3.7c-0.8,1.3,1,2.1,2.2,2.9c4,2.7,8.1,3.4,12.9,3.7c8.4-0.1,15.8-4.9,19.3-12.4c1-2.2,1.5-2.8,0.2-4.8
		c-1.2-1.9-2.3-3.7-3.3-5.8C126.4,74.4,125.6,72.3,123.9,72.5z"/>
	<g class="st4">
		<path class="st5" d="M339.9,33.3l10.6-7.7v83.6l-14.1-5.1v-44h-0.1l-20.7,28.5L295,60.2h-0.2v43.9l-14.1,5.1V25.9l10.7,7.4
			l24.2,32.9L339.9,33.3z"/>
		<path class="st5" d="M429.1,67v38.2h-14.1V67l-27.8-33.1l12.1-6.1L422,54.7L444.8,28l12,5.8L429.1,67z"/>
		<path class="st5" d="M556.9,108.9l-13.9-4.8V74.8h-35.4v29.3l-14.1,4.8V31.5h14.1V63H543V31.5h13.9V108.9z"/>
		<path class="st5" d="M616.7,105.1h-14.1v-72l14.1-5.3V105.1z"/>
		<path class="st5" d="M676.6,93.2H706l5.2,11.9h-48.8V31.5h14.1V93.2z"/>
		<path class="st5" d="M762.8,93.2h29.4l5.2,11.9h-48.8V31.5h14.1V93.2z"/>
	</g>
	<g class="st4">
		<path class="st6" d="M285.7,148.7c1.9,0,3.4,0.2,4.8,0.7s2.4,1.1,3.3,1.9c0.9,0.8,1.5,1.7,1.9,2.8c0.4,1,0.6,2.2,0.6,3.4
			c0,1.1-0.2,2.2-0.5,3.2c-0.3,1.1-0.9,2-1.8,2.8c-0.8,0.8-2,1.5-3.4,2.1c-1.4,0.5-3.2,0.8-5.3,0.8h-3.4v12.8h-5.8v-30.4H285.7z
			 M281.9,161.4h3.3c0.9,0,1.7-0.1,2.4-0.3c0.7-0.2,1.2-0.5,1.6-0.9c0.4-0.4,0.7-0.8,0.9-1.3c0.2-0.5,0.3-1,0.3-1.5
			c0-1.1-0.4-2-1.2-2.7c-0.8-0.8-2-1.1-3.8-1.1h-3.5V161.4z"/>
		<path class="st6" d="M341.2,155.9c-1.3-0.7-2.4-1.2-3.3-1.7c-0.9-0.4-1.9-0.7-2.9-0.7c-1.1,0-2,0.3-2.8,1
			c-0.7,0.7-1.1,1.5-1.1,2.6c0,0.9,0.3,1.7,1,2.2c0.7,0.5,1.5,1,2.6,1.4s2.1,0.8,3.4,1.1c1.2,0.4,2.3,0.9,3.4,1.5
			c1,0.6,1.9,1.5,2.6,2.5c0.7,1,1,2.4,1,4.2c0,1.5-0.3,2.9-0.8,4c-0.5,1.2-1.2,2.2-2.2,3c-0.9,0.8-2,1.4-3.2,1.9s-2.5,0.6-3.9,0.6
			c-1.6,0-3.2-0.3-4.8-0.9s-3.2-1.5-5-2.6l2.1-5.1c0.5,0.4,1.1,0.8,1.7,1.2s1.2,0.8,1.8,1.1c0.6,0.3,1.2,0.6,1.8,0.8
			c0.6,0.2,1.1,0.3,1.7,0.3c0.9,0,1.6-0.1,2.2-0.3c0.6-0.2,1.1-0.5,1.5-0.9s0.7-0.8,0.8-1.2c0.2-0.5,0.3-0.9,0.3-1.4
			c0-1.2-0.3-2.1-1-2.7c-0.7-0.6-1.5-1.1-2.6-1.6s-2.1-0.8-3.4-1.1s-2.3-0.8-3.4-1.4s-1.9-1.4-2.6-2.4c-0.7-1-1-2.4-1-4.1
			c0-1.2,0.3-2.4,0.8-3.4c0.5-1.1,1.2-2,2.1-2.8c0.9-0.8,1.9-1.4,3.1-1.9c1.2-0.5,2.4-0.7,3.8-0.7c2.8,0,5.7,0.9,8.6,2.7
			L341.2,155.9z"/>
		<path class="st6" d="M389.6,163.4v15.7h-5.8v-15.7l-11.4-13.6l5-2.5l9.4,11.1l9.4-11l4.9,2.4L389.6,163.4z"/>
		<path class="st6" d="M454.7,156c-1.7-0.8-3.3-1.5-4.8-2s-3.1-0.7-4.8-0.7c-1.4,0-2.8,0.3-4,0.8c-1.2,0.5-2.3,1.3-3.2,2.2
			c-0.9,0.9-1.6,2.1-2.1,3.3c-0.5,1.3-0.8,2.7-0.8,4.2c0,1.5,0.3,2.9,0.8,4.2c0.5,1.3,1.2,2.4,2.1,3.3c0.9,0.9,2,1.6,3.3,2.1
			c1.3,0.5,2.7,0.8,4.2,0.8c0.7,0,1.3,0,2-0.1c0.7-0.1,1.5-0.2,2.3-0.5c0.8-0.2,1.7-0.5,2.6-0.9s2-0.8,3.1-1.4l1.8,5
			c-2.3,1.2-4.4,2-6.4,2.4c-2,0.4-3.8,0.6-5.5,0.6c-2.4,0-4.6-0.4-6.6-1.2c-2-0.8-3.7-1.9-5.2-3.3c-1.5-1.4-2.6-3-3.4-4.9
			c-0.8-1.9-1.2-3.9-1.2-6.2c0-2.3,0.5-4.5,1.3-6.4c0.9-1.9,2.1-3.6,3.6-4.9c1.5-1.4,3.2-2.4,5.2-3.2c1.9-0.8,4-1.1,6.1-1.1
			c1.7,0,3.6,0.2,5.5,0.6s4.1,1.2,6.4,2.2L454.7,156z"/>
		<path class="st6" d="M513.8,180.6l-5.7-2v-12.1h-14.6v12.1l-5.8,2v-31.9h5.8v12.9H508v-12.9h5.7V180.6z"/>
		<path class="st6" d="M576.4,170.1c-0.8,1.9-2,3.5-3.5,4.9s-3.2,2.5-5.2,3.3c-2,0.8-4.1,1.2-6.4,1.2c-2.3,0-4.4-0.4-6.4-1.2
			c-2-0.8-3.7-1.9-5.2-3.3c-1.5-1.4-2.6-3.1-3.4-4.9c-0.8-1.9-1.3-3.9-1.3-6.1c0-2.2,0.4-4.2,1.3-6.1c0.8-1.9,2-3.5,3.4-4.9
			c1.5-1.4,3.2-2.5,5.2-3.3c2-0.8,4.1-1.2,6.4-1.2c2.3,0,4.4,0.4,6.4,1.2c2,0.8,3.7,1.9,5.2,3.3s2.6,3,3.5,4.9
			c0.8,1.9,1.3,3.9,1.3,6.1C577.6,166.2,577.2,168.2,576.4,170.1z M570.9,159.8c-0.5-1.3-1.3-2.4-2.2-3.3s-2-1.7-3.3-2.2
			s-2.6-0.8-4.1-0.8c-1.5,0-2.8,0.3-4.1,0.8s-2.3,1.3-3.3,2.2s-1.7,2-2.2,3.3c-0.5,1.3-0.8,2.6-0.8,4.1c0,1.5,0.3,2.9,0.8,4.1
			c0.5,1.3,1.3,2.4,2.2,3.3s2,1.7,3.3,2.2c1.3,0.5,2.6,0.8,4.1,0.8c1.5,0,2.8-0.3,4.1-0.8c1.3-0.5,2.4-1.3,3.3-2.2s1.7-2,2.2-3.3
			c0.5-1.3,0.8-2.6,0.8-4.1C571.7,162.5,571.5,161.1,570.9,159.8z"/>
		<path class="st6" d="M614.7,174.2h12.1l2.1,4.9h-20.1v-30.3h5.8V174.2z"/>
		<path class="st6" d="M688.3,170.1c-0.8,1.9-2,3.5-3.5,4.9s-3.2,2.5-5.2,3.3c-2,0.8-4.1,1.2-6.4,1.2c-2.3,0-4.4-0.4-6.4-1.2
			c-2-0.8-3.7-1.9-5.2-3.3c-1.5-1.4-2.6-3.1-3.4-4.9c-0.8-1.9-1.3-3.9-1.3-6.1c0-2.2,0.4-4.2,1.3-6.1c0.8-1.9,2-3.5,3.4-4.9
			c1.5-1.4,3.2-2.5,5.2-3.3c2-0.8,4.1-1.2,6.4-1.2c2.3,0,4.4,0.4,6.4,1.2c2,0.8,3.7,1.9,5.2,3.3s2.6,3,3.5,4.9
			c0.8,1.9,1.3,3.9,1.3,6.1C689.6,166.2,689.2,168.2,688.3,170.1z M682.9,159.8c-0.5-1.3-1.3-2.4-2.2-3.3s-2-1.7-3.3-2.2
			s-2.6-0.8-4.1-0.8c-1.5,0-2.8,0.3-4.1,0.8s-2.3,1.3-3.3,2.2s-1.7,2-2.2,3.3c-0.5,1.3-0.8,2.6-0.8,4.1c0,1.5,0.3,2.9,0.8,4.1
			c0.5,1.3,1.3,2.4,2.2,3.3s2,1.7,3.3,2.2c1.3,0.5,2.6,0.8,4.1,0.8c1.5,0,2.8-0.3,4.1-0.8c1.3-0.5,2.4-1.3,3.3-2.2s1.7-2,2.2-3.3
			c0.5-1.3,0.8-2.6,0.8-4.1C683.7,162.5,683.4,161.1,682.9,159.8z"/>
		<path class="st6" d="M746.1,156.3c-2.1-1.1-4-1.9-5.5-2.2c-1.6-0.4-3.1-0.6-4.4-0.6c-1.5,0-2.8,0.3-4,0.8s-2.3,1.3-3.2,2.2
			c-0.9,0.9-1.6,2-2.1,3.3c-0.5,1.3-0.8,2.7-0.8,4.2c0,1.3,0.2,2.6,0.6,3.9s1.1,2.4,2,3.3s2,1.8,3.4,2.4c1.3,0.6,2.9,0.9,4.8,0.9
			c1.1,0,2.2-0.1,3.1-0.3c0.9-0.2,1.8-0.4,2.6-0.8v-8.1l5.7-2.6v14c-2.1,1-4.1,1.8-6,2.3s-3.8,0.7-5.5,0.7c-2.4,0-4.6-0.4-6.7-1.2
			s-3.8-1.9-5.3-3.3c-1.5-1.4-2.7-3.1-3.5-5c-0.8-1.9-1.3-4-1.3-6.3c0-2.2,0.4-4.3,1.2-6.2c0.8-1.9,2-3.5,3.4-4.9
			c1.5-1.4,3.2-2.4,5.2-3.2c2-0.8,4.2-1.2,6.6-1.2c0.9,0,1.7,0,2.5,0.1c0.8,0.1,1.7,0.2,2.6,0.4c0.9,0.2,1.9,0.5,2.9,0.9
			c1,0.4,2.2,0.9,3.6,1.5L746.1,156.3z"/>
		<path class="st6" d="M793.8,163.4v15.7H788v-15.7l-11.4-13.6l5-2.5l9.4,11.1l9.4-11l4.9,2.4L793.8,163.4z"/>
	</g>
	<rect x="272.7" y="127.4" class="st7" width="527.9" height="2"/>
</g>
</svg>
