<svg viewBox="0 0 320 320" xmlns="http://www.w3.org/2000/svg"><path d="m0 0h320v320h-320z" fill="none"/><path d="m272.17 125.18a86.15 86.15 0 0 0 -55.29-27.35c.73-2.18 1.69-5 3-8.89 1.59-4.75 3.67-11 6.45-19.34a17.83 17.83 0 0 0 -2.48-16.23 18.06 18.06 0 0 0 -14.61-7.49h-96.5c-33.34 0-54.38 16.29-66.17 29.95-14.13 16.39-22.57 38.23-22.57 58.43 0 49.14 39.86 84.23 78.11 88l-13.34 39.24a9.38 9.38 0 0 0 1.23 8.61 9.49 9.49 0 0 0 7.69 4h42.57a24.74 24.74 0 0 0 10.58-2.35 17.85 17.85 0 0 0 8.87 2.35h48a88.48 88.48 0 0 0 88.29-88.37 90.35 90.35 0 0 0 -23.83-60.56zm-174.38 8.61c.24-7.79 7-14.13 15.13-14.13h18a4.15 4.15 0 0 1 2.23.6 4 4 0 0 1 1.67 4.69l-6.23 18.46a8 8 0 0 1 -7.58 5.44h-8.58a14.57 14.57 0 0 1 -14.59-15.06zm87.34 61.4 5.54-18.36a8 8 0 0 1 7.66-5.68h9.46a14.6 14.6 0 0 1 -.17 29.19h-18.62a4 4 0 0 1 -3.83-5.15z" fill="#120e0b"/><path d="m260.83 214.92a7.44 7.44 0 0 1 6.17 11.67 72 72 0 0 1 -59.34 31.23h-45.51a3.43 3.43 0 0 1 -3.35-4.52l10.7-32a6.87 6.87 0 0 1 6.51-4.69h31.61a30.62 30.62 0 0 0 7.71-1 21.41 21.41 0 0 1 5.34-.73z" fill="#aaa6af"/><path d="m236.3 163.43a3.44 3.44 0 0 0 -2.8 5.44 30.85 30.85 0 0 1 -.1 33.86 3.43 3.43 0 0 0 3 5.32h34.6a6.87 6.87 0 0 0 6.67-5.23 70.87 70.87 0 0 0 -.06-34.16 6.88 6.88 0 0 0 -6.67-5.23z" fill="#aaa6af"/><path d="m207.62 113.66h-45.88a8.55 8.55 0 0 0 -8.14 5.87l-10.27 30.8a3.43 3.43 0 0 0 3.35 4.52h61.11a30.48 30.48 0 0 1 7.31.89 25.67 25.67 0 0 0 6.16.83h40.52a6.87 6.87 0 0 0 6-10.6c-18.11-27.86-45.94-32.31-60.16-32.31z" fill="#aaa6af"/><g fill="#78747d"><path d="m156 214.92a3.43 3.43 0 0 1 3.22 4.63l-10.86 32.45a8.54 8.54 0 0 1 -8.14 5.86h-28.07a3.42 3.42 0 0 1 -3.34-4.53l11.42-33.71a6.85 6.85 0 0 1 6.5-4.66z"/><path d="m175.8 169.67a3.43 3.43 0 0 0 -3.35-4.52h-60.08a29.62 29.62 0 0 1 -7.25-.87 28.71 28.71 0 0 0 -6.72-.85h-40.2a6.87 6.87 0 0 0 -5.57 10.9c11.5 16.94 33.13 32 56.31 32h8.56a4.81 4.81 0 0 1 2.64.71 6.66 6.66 0 0 0 3.68 1h34.24a6.86 6.86 0 0 0 6.51-4.69z"/><path d="m81.5 133.29c.26-8.35 2.08-11.36 5.22-16a3.43 3.43 0 0 0 -3-5.35h-31.62a10.33 10.33 0 0 0 -10.07 8 65.13 65.13 0 0 0 -.34 28.34 10.32 10.32 0 0 0 10.1 8.26h31.8a3.44 3.44 0 0 0 3-5.32c-2.91-4.34-5.45-6.61-5.09-17.93z"/><path d="m208.57 71.21a6.87 6.87 0 0 0 -6.7-9h-89.13c-26.21 0-46.94 12.45-59.83 32.33a6.85 6.85 0 0 0 6 10.57h40.35a26.25 26.25 0 0 0 6.24-.82 31.4 31.4 0 0 1 7.42-.89h78.75a8.58 8.58 0 0 0 8.14-5.86z"/></g></svg>