<?xml version="1.0" encoding="UTF-8"?>
<svg id="Layer_2" data-name="Layer 2" xmlns="http://www.w3.org/2000/svg" viewBox="0 0 800 144.92">
  <defs>
    <style>
      .cls-1 {
        fill: #714732;
      }
    </style>
  </defs>
  <g id="Layer_1-2" data-name="Layer 1">
    <g>
      <path class="cls-1" d="M26.18,22.26h.74L43.46,0h9.54V53h-10.6V15.9h-.21s-1.06,3.39-2.97,5.94l-7.42,9.96h-10.6l-7.42-9.96c-1.91-2.54-2.97-5.94-2.97-5.94h-.21V53H0V0H9.54L26.18,22.26Z"/>
      <path class="cls-1" d="M106.53,34.45L84.27,0h12.19l10.39,15.9c3.39,5.3,4.88,9.54,4.88,9.54h.21s1.48-4.24,4.88-9.54L127.1,0h12.3l-22.26,34.45v18.55h-10.6v-18.55Z"/>
      <path class="cls-1" d="M181.26,21.73h31.8V0h10.6V53h-10.6V31.27h-31.8v21.73h-10.6V0h10.6V21.73Z"/>
      <path class="cls-1" d="M260.77,53V0h10.6V53h-10.6Z"/>
      <path class="cls-1" d="M308.47,0h10.6V43.46h31.8v9.54h-42.4V0Z"/>
      <path class="cls-1" d="M384.26,0h10.6V43.46h31.8v9.54h-42.4V0Z"/>
      <path class="cls-1" d="M10.6,143.86H0v-53H38.16c9.54,0,15.9,6.36,15.9,15.9s-6.36,15.37-15.9,15.37H10.6v21.73Zm0-31.27h27.56c3.18,0,5.3-2.12,5.3-5.3v-1.59c0-3.18-2.12-5.3-5.3-5.3H10.6v12.19Z"/>
      <path class="cls-1" d="M125.08,127.64c0-4.24-4.66-6.04-15.26-6.04-16.75,0-23.96-4.45-23.96-15.16s8.48-16.64,24.38-16.64c14.63,0,24.38,6.78,24.38,16.96h-10.6c0-4.45-5.51-7.42-13.78-7.42-9.01,0-13.78,2.44-13.78,7.1,0,4.03,4.24,5.62,14.31,5.62,17.49,0,24.91,4.77,24.91,15.58s-8.9,17.28-25.44,17.28c-15.26,0-25.44-6.78-25.44-16.96h10.6c0,4.45,5.94,7.42,14.84,7.42,9.65,0,14.84-2.76,14.84-7.74Z"/>
      <path class="cls-1" d="M183.91,125.31l-22.26-34.45h12.19l10.39,15.9c3.39,5.3,4.88,9.54,4.88,9.54h.21s1.48-4.24,4.88-9.54l10.28-15.9h12.3l-22.26,34.45v18.55h-10.6v-18.55Z"/>
      <path class="cls-1" d="M285.15,122.13h11.34c-2.12,13.46-12.93,22.79-27.24,22.79-15.9,0-27.56-11.66-27.56-27.56s11.66-27.56,27.56-27.56c14.31,0,25.12,9.33,27.24,22.79h-11.34c-1.8-7.63-7.95-12.72-15.9-12.72-9.54,0-16.43,7.42-16.43,17.49s6.89,17.49,16.43,17.49c7.95,0,14.1-5.19,15.9-12.72Z"/>
      <path class="cls-1" d="M341.54,112.59h31.8v-21.73h10.6v53h-10.6v-21.73h-31.8v21.73h-10.6v-53h10.6v21.73Z"/>
      <path class="cls-1" d="M473.51,117.36c0,15.9-11.66,27.56-27.56,27.56s-27.56-11.66-27.56-27.56,11.66-27.56,27.56-27.56,27.56,11.66,27.56,27.56Zm-11.13,0c0-10.07-6.89-17.49-16.43-17.49s-16.43,7.42-16.43,17.49,6.89,17.49,16.43,17.49,16.43-7.42,16.43-17.49Z"/>
      <path class="cls-1" d="M507.96,90.86h10.6v43.46h31.8v9.54h-42.4v-53Z"/>
      <path class="cls-1" d="M633.05,117.36c0,15.9-11.66,27.56-27.56,27.56s-27.56-11.66-27.56-27.56,11.66-27.56,27.56-27.56,27.56,11.66,27.56,27.56Zm-11.13,0c0-10.07-6.89-17.49-16.43-17.49s-16.43,7.42-16.43,17.49,6.89,17.49,16.43,17.49,16.43-7.42,16.43-17.49Z"/>
      <path class="cls-1" d="M692.41,122.66v-9.54h27.24c.21,1.38,.32,2.76,.32,4.24,0,15.9-11.66,27.56-27.56,27.56s-27.56-11.66-27.56-27.56,11.66-27.56,27.56-27.56c7.95,0,14.84,2.86,19.72,7.74l-7.53,7.63c-2.97-3.29-7.21-5.3-12.19-5.3-9.54,0-16.43,7.42-16.43,17.49s6.89,17.49,16.43,17.49c7.74,0,13.78-4.88,15.79-12.19h-15.79Z"/>
      <path class="cls-1" d="M767.14,125.31l-22.26-34.45h12.19l10.39,15.9c3.39,5.3,4.88,9.54,4.88,9.54h.21s1.48-4.24,4.88-9.54l10.28-15.9h12.3l-22.26,34.45v18.55h-10.6v-18.55Z"/>
    </g>
  </g>
</svg>