<svg id="Layer_2" data-name="Layer 2" xmlns="http://www.w3.org/2000/svg" viewBox="0 0 600 591.61"><defs><style>.cls-1{fill:#f6ecd1}.cls-2{fill:#ecdda8}.cls-3{fill:#fefefd}.cls-4{fill:#fbfbf5}.cls-5{fill:#faf7e3}.cls-6{fill:#fcfeff}.cls-7{fill:#935944}.cls-8{fill:#b06b52}.cls-9{fill:#b1a997}.cls-10{fill:#cbbfad}.cls-11{fill:#e2d9c4}.cls-12{fill:#a95c42}.cls-13{fill:#714732}.cls-14{fill:#5e5e5f}.cls-15{fill:#502311}.cls-16{fill:none;stroke:#714732;stroke-miterlimit:10}.cls-17{fill:#6d6358;font-family:HelveticaNeue-Medium,&apos;Helvetica Neue&apos;;font-size:44.94px;font-weight:500;letter-spacing:.05em}</style></defs><g id="Layer_1-2" data-name="Layer 1"><circle class="cls-6" cx="316.19" cy="296.92" r="281.07"/><g id="LOGO_ARTWORK" data-name="LOGO ARTWORK"><path class="cls-2" d="M158.51 547.7c-.57-4.49 5.78-2.14 8.65-2.58q.28 2.42 2.73 2.67c3.27 3.4 7.81 6 12.85 5.96 3.93 4.16 9.87 1.59 14.52 4.17 5.04 1.32 9.82 3.81 15.09 4.02-.53 3.91 4.08 2.18 6.46 2.65 3.9-.48 4.34 3.21 7.74 2.65 1.8-.52 4.03 1.4 5.41-.03l2.65.1c2.65 4.85 11 2.12 15.54 3.27 5.12 4.07 13.5 1.64 16.9 3.97 3.74 2.54 8.51 1.1 12.76 1.47-.24 2.87 1.3 2.67 2.69 2.68 7.84.03 50.78.89 51.94-2.62.14 0 25.72.1 27.64-1.67 2.05-1.48 8.21-2.3 7.31 1.56-5.26-.78-9.42 3.19-14.7 2.77-2.45.32-6.27-1.15-7.79 1.3-1.3 2.5-4.79.98-7.08 1.45-27.2 7.01-40.11-1.12-59.99-.09-3.83-6.19-17.62-.18-22.67-3.51-.39-2.17-1.92-1.82-3.34-1.87-5.7-1.29-11.12-3.43-17.19-2.7-.8 0-1.71-.02-1.87-1.01-.76-3.07-4.59-1.08-6.8-1.69-2.04-.16-3.25.57-3.38 2.72-15.76 1.68-12.15-6.77-26.3-6.12.05-1.4.1-2.8-1.94-2.67-2.17-.51-3.25-2.97-5.84-2.69-6.66.56-8.05-6.73-15.09-5.43-.27-1.52-1.52-1.72-2.71-2.02-1.32-1.67-3.56-1.11-5.43-1.28.48-2.44-2.43-2.07-4.03-2.74-.08-1.34-1.04-1.35-2.01-1.34-.24-.22.61-1.2-2.69-1.36zM360.91 6.35c-5.66 3.81-12.7 1.77-19.07 2.14-.92-3.89-23.4-.67-27.38.03-2.5-.47-2.09 3.38-4.8 2.65-37.64-.99-54.31 5.37-54.45 5.39-3.13.87-6.55.25-9.56 1.18-3.95 3.87-10.39.26-13.71 4.89-2.41.27-5.7-.6-6.07 2.7-7.91-2.2-33.71 16.68-36.41 10.07 1.16-2.83 7.39-1.43 8.92-7.24 3.2-.16 6.64.47 9.16-1.98 1.85-1.44 4.79-.3 4.96-3.46 6.45.73 11.36-3.41 17.54-4.32.75-.08 1.48-.5 1.91-1.24 1.35-.3 3.89.79 4.07-1.22 1.97-.55 6.14 1.15 6.72-1.36 1.65-.49 7.46-.14 7.41-1.97 9.07-.66 17.56-4.97 26.86-4.17 1.91.12 2.54-1.02 2.82-2.6 31.72.69 8.17-2.74 89.62-2.74.81 2.79 5.73.59 6.78 1.32-.92 3.23-11.55-.09-15.32 1.92z"/><path class="cls-5" d="M596.49 245.4c-.12-1-1-.69-1.11.03-.05.95 1.04.82 1.11-.03z"/><path class="cls-2" d="M263.55 586.9c-4.65-.04-8.73-3.2-13.43-2.82-.86-1.29-2.58-1.01-4.39-2.34 14.11-1.66 26.52 6.49 40.72 5.18 2.06 2.76 8.2.49 11.56 1.24 11.05 2.66 22.76-1.54 34.08-1.34 1.95-.44 5.64 1.14 6.37-1.29l2.68-.03c1.77 1.17 5.9 1.34 6.11-1.33 4-.46 8.22 1.04 12.01-1.33 3.04 0 20.09-2.79 21.11-5.17 1.33-3.12 5.4-.37 5.82-2.7.86-3.53 6.34.33 6.13-4.36 2.67-.39 8.52.75 8.22-3.21 4.15-.15 4.61 1.2 5.34-1.43.07-1.65 1.89-.99 2.46-1.82 2.32-3.28 6.24-2.04 9.59-2.26.62.02 1.47-.23 1.7.6.51 2.99-7.5 2.45-5.02 5.46-.57 3.89-6.08.42-7.43 5.36-2.59 0-5.17.4-6.74 2.72-2.96.02-6.55-.51-8.1 2.66-2.72.34-6.54-.92-7.39 2.7-2.51.49-5.72-.95-7.7 1.04-2.14 3.21-7.84.2-8.56 4.93h-3.3c-2.44-1.7-5.14.47-7.74.13-2.01-.22-2.48.92-2.43 2.59-20.39 1.28-40.89 1.78-61.59 1.41-.78 0-1.82.19-2.29-.23-4.46-2.69-12.35 0-12.17-1.19-.35-1.58-1.63-1.17-2.68-1.23-4.47.36-8.35-2.85-12.94-1.94z"/><path class="cls-9" d="M598.11 314.26c1.56 8.3-4.04 43.14-7.2 53.9-2.51 20.47-31.81 82.47-53.01 104.05-6.14-.09 11.05-14.34 16.97-30.88.25-.3.74.66 2.57-2.88 4.12-9.4 10.76-18.02 12.97-28.09 2.53-2.89 4.6-3.55 6.78-14.2 5.79-8.75 8.5-20.73 11.2-31.17 2.2 1.28 1.01-5.36 1.58-6.67 1.85-1.51.84-4.08 1.44-5.95 1.78-2.99 1.01-6.26 1.25-9.42.31-11.78 3.13-23.44 2.85-35.32-.07-1.1.32-1.96 1.29-2.52 1.49 2.62-.96 7.47 1.31 9.15zM10.44 253.15c.61-.99 1.37-1.92 1.18-3.2.4-.15 1-.26.99-.71.49-3.44 1.85-6.61 1.68-10.16 2.31-.65.75-3.05 1.38-4.68 4.05-1.97 2.02-6.03 2.73-9.4 2.1-.59.89-2.62 1.31-4.08 2.14-.76.91-2.64 1.28-4.11 1.69-.12 1.22-1.53 1.37-2.67 2.24-.35.92-3.13 1.55-4.69 1.24-.24 1.14-1.19 1.09-2.1 1.11-7.47 4.83-12.86 4.5-4.78-.55.1-20.13 57.15-22.85 98.42-2.52 1.34-.54 5.68-1.21 8.13-1.59 2.23-2.55 25-.13 25.66 1.04 4.89-1.51 10.59 1.55 14.79-1.43 27.93-10.73-37.27-1.28-72.58 2.51-2.04.65-5.38 1.34-8.09 2.64-1.7.54-6.25 1.99-8.96 1.29-2.09 2.4-4.22 1.51-6.79z"/><path class="cls-5" d="M317.67 3.12c-38.17 5.91-32.48 1.09-29.79 1.36 6.64.65 13.04-2.15 19.69-1.38.92.11 1.89-.08 2.33-1 3.84-3.99 11.09-.23 16.1-2.09 11.56.89 23.62-.76 35.03 1.36 4.63 2.28 9.12-1.31 13.68-.93 3.05.56 7.93-1.61 9.63 1.71 1.51 2.56 7.53-.89 7.37 3.65-3.48-.3-7.38.62-10.67-.39-3.8-3.23-37.1-2.28-63.37-2.28z"/><path class="cls-1" d="M376.23 4.44c1.65.07 3.35-.28 4.81.96 4.39 1.07 9.39.03 13.98.44 3.81.16.58 3.44 8.11 2.7-.11 1.66.24 2.86 2.33 2.68 3.28.1 5.66 3.37 9.14 2.69-.31 2.74 7.02 3.91 9.33 4.73 1.95.26.34 2.29 5.85 2.98 1.16.14 1.17 2.54-.2 2.32-1.59-.16-3.77 1.06-4.33-1.74-.13-.65-.76-.95-1.29-.82-3.9.9-6.7-1.91-9.99-3.02-1.47-1.07-3.44-.78-4.92-1.66-4.2-4.28-8.93-.77-16.63-5.71-4.95-3.11-10.54-1.41-15.71-3.53-2.2-1.31-6.9 1.07-7.26-1.62 2.06-.5 6.04 1.23 6.79-1.39z"/><path class="cls-5" d="M506.98 73.18c9.18-1.67 14.15 7.71 19.78 13.19 2.64 3.41 8.79 4.87 8.53 10.2-.02.44.03 1.13.44 1.18 4.11.52.51 5.67 4.46 6.38 8.73 3.26 3.09-1.83 7.61-2.53 3.14.61.7 5.26-1.76 5.29-2.23-.3-5.06.84-6.85-.79-10.04-14.11-33.24-31.85-32.21-32.94z"/><path class="cls-4" d="M504.26 510.66c-1.56-8.69 4.97-1.39 4.71-8.13 1.15-1.13 2.11-.52 1.95-2.13 3.62-4.8 11.44-8.67 11.56-11.92 1.22-1.3 2.08-3.03 4.07-3.41 1.54-.12.72-.9 1.93-2.05 1.34-.35 5.62-.68 3.34-2.72-.13-1.7 2.22-.98 2.09-2.65l1.36.02c.09 1.61 2.07 1.97 2.37 3.78-3.65-1.01-1.45 1.88-3.16 2.76-2.12-.01-2.95 2.49-5.28 2.44-2.18-.05-2.34 4.47-3.93 5.3-1.48.77.63 2.27-.42 3.28-1.04.8-2.02-1.63-3.22-.42-1.56 1.49 2.02 2.74-.41 4.26-.5.53-1.06.92-1.75.79-8.2-1.73-2.84 8.02-15.22 10.82z"/><path class="cls-1" d="M78.26 114.29c.95-2.07 1.69-4.09 4.22-5.11 1.88-.75 2.53-3.41 4.01-4.59 1.53-1.22 3.36-2.2 4.38-3.86.87-2.37 4-2.69 4.26-5.25.14-.14 1.66.19 1.75-.64 2.01-3.48 6.64-4.71 8.35-8.79 3.45-6.25 12.1-6.77 12.42-11.87.32-1.77 3.1-.64 4.42-.97-1.38 6.86-10.67 9.6-15.18 14.52-8.31 9.84-20.17 17.54-26.56 28.46-.03 2.21-1.32 2.25-2.87 2.17-1.26-1.95-1.62-.45-3.17.11-.21-2.02.64-3.2 2.7-3.44-.03 2.34 3.11.62 1.26-.75z"/><path class="cls-11" d="M252.83 581.43c-2.13.07-4.29-.2-7.11.3 1.82 1.33 3.53 1.05 4.39 2.34-4.96 2.06-8.55-3.05-13.36-2.7-3.09.27-.5-1.8-6.8-2.7-.35-2.34-3.17-.59-4.44-1.63-1.9-1.59-4.69-.83-5-1.07-.27-2.6-3.88-.04-4.03-2.66 17.81-.91 18.94 6.67 23.6 3.31 1.33-.77 2.28-.88 2.66.96.88 5.2 8.53.09 10.09 3.84z"/><path class="cls-1" d="M248.74 13.83c-1.8.3-7.07.09-7.43 2.01-2.21.03-4.42.13-6.63.1-.19-3.95 6.17-.4 7.91-4.13 1.75-1.21 4.49-.41 6.56-.58 4.66 1.03 7.87-3.57 12.35-2.69 2.08.11 4.04-.11 5.58-1.58 3.66-2.4 8.58-.59 12.75-1.12-.28 1.58-.91 2.71-2.82 2.6-9.3-.79-17.79 3.51-26.86 4.17-.87-.07-1.29.4-1.4 1.21zM176.68 556.5c5.9-.98 7.79 6.27 13.8 5.36 2.59-.27 3.67 2.19 5.84 2.69 2.04-.13 1.99 1.28 1.94 2.67-3.08 2.79-2.89-4.03-11.59-2.68-.56 0-1.39.06-1.53-.41-.68-2.26-3.61-1.99-4.43-4.13-.44-1.17-1.72-.72-2.67-.84.09-1.17-1.46-1.5-1.36-2.67zm39.81 16.82c.15 2.62 3.76.06 4.03 2.66-4.95 1.07-8.25-3.84-13.2-2.66-1.08-.14-2.74.39-3.06-.69-.64-2.16-4-2.45-3.38-5.28 7.75-1.19 9.61 5.38 15.61 5.97z"/><path class="cls-5" d="M212.49 22.73c-.35 1.53-.96 2.76-2.86 2.63-2.95.72-5.17 3.59-8.67 2.72.1-.93-.42-2.11.82-2.63 1.72-.72 1.99-3.54 4.76-2.88 1.89.45 3.96.13 5.96.15zM176.68 556.5c-.1 1.17 1.45 1.5 1.36 2.67-1.83.31-4.42-.87-5.44 1.24-.8 2.42-7.5 1.81-4.58-1.01 1.61 0 5.13-.88 2.85-2.87-1.39-.94-.7-2.2-.97-3.31 1.13-.06 2.05.36 2.78 1.2-.35 2.94 2.3 1.79 4 2.08z"/><path class="cls-1" d="M368.69 587.36c.27-2.76 2.61-2.85 4.47-3.09 4.82-.81 4.3-3.82 10.46-2.82-1.78 2.64-5.06 2.7-7.58 3.89-2.03 2.26-4.62 2.36-7.35 2.02z"/><path class="cls-5" d="M105.23 86.05c-1.71 4.08-6.33 5.31-8.35 8.79-.07.69-1.08.58-1.73.63.1-1.67-.66-4.51 1.76-4.67 1.47-.09 2.15-.99 2.63-2.17.77-1.94 3.84-4.52 5.69-2.58z"/><path class="cls-11" d="M263.55 586.9c4.59-.91 8.47 2.3 12.94 1.94 1.05.06 2.32-.35 2.68 1.23-4.06-.84-16.25 2.64-15.61-3.17z"/><path class="cls-1" d="M540.59 106.93h2.71c-.02 1.98.31 3.71 2.74 4.03.01.55.12 1.06.65 1.36.27 1.37.68 2.65 2.05 3.35.62 1.51 1.05 3.26 3.34 2.75 0 5.37 1.86 8.25-11.48-11.49z"/><path class="cls-5" d="M414.59 13.91c-3.48.67-5.86-2.59-9.14-2.69-2.09.18-2.44-1.02-2.33-2.68 1.52.27 4.13-.69 5.13.6.53 4.26 6.93-.14 6.34 4.77z"/><path class="cls-1" d="M355.22 590.08c-.06-1.67.42-2.81 2.43-2.59 2.6.34 5.29-1.82 7.74-.13-1.74 4.22-6.6 2.45-10.17 2.72zM231.94 17.17c-.42.74-1.16 1.16-1.91 1.24-4.51.22-8.15 3.46-12.39 4.03-.28-3.85 5.02-2.02 6.56-5.06 2.59.28 5.14-.86 7.74-.21zm160.39 561.52c1.55-3.17 5.14-2.64 8.1-2.66.15 4.67-5.22 2.04-8.1 2.66zm-7.39 2.7c.77-3.31 4.18-2.59 6.78-2.61.09 1.67-.32 3.04-2.37 2.61-1.51-.32-2.96 1.49-4.42 0z"/><path class="cls-11" d="M251.47 584.17c3.48-.06 6.74 1.85 10.11 2.66-3.35 1.26-8.48.33-10.11-2.66z"/><path class="cls-1" d="M220.54 576c1.72.04 3.47-.21 4.98 1.05 1.27 1.04 4.09-.71 4.44 1.63-2.98-.02-7.98.66-9.42-2.68z"/><path class="cls-5" d="M411.21 573.31c.49 3.41-3.16 2.66-5.39 2.7.03-3.35-1.04-2.66 5.39-2.7z"/><path class="cls-1" d="M405.85 573.37c-.04 3.46 1.31 2.64-5.4 2.64 1.32-1.87 3.21-2.56 5.4-2.64z"/><path class="cls-4" d="M546.04 110.96c-2.43-.32-2.76-2.05-2.74-4.03 3.57-.03 2.74-1.08 2.74 4.03z"/><path class="cls-5" d="M1.48 309.12l-.11 6.07c-1.87-1.69-1.82-4.6.11-6.07z"/><path class="cls-4" d="M548.74 115.67c-1.37-.7-1.78-1.98-2.05-3.35q2.03.36 2.05 3.35zM37.83 447.3c1.21.26 2.52.39 2.68 2.03-1.44.04-2.89.11-2.68-2.03z"/><path class="cls-1" d="M598.61 327.33c-.03.85-.45 1.32-1.32 1.33-.17-.88.41-1.53 1.32-1.33z"/><path class="cls-11" d="M236.01 15.95c-.09.97-.63 1.33-1.57 1.17.3-1.49-.03-1.19 1.57-1.17z"/><path class="cls-5" d="M216.49 22.49l-1.42.12c-.06-1.19 1.34-1.35 1.42-.12z"/><path class="cls-11" d="M98.46 512.7c.93-.06 1.48.52 1.37 1.46-1.56-.2-1.28.16-1.37-1.46z"/><path class="cls-4" d="M33.77 178.35c0 .88-.46 1.33-1.34 1.36.02-.88.46-1.33 1.34-1.36zm1.35-1.35c-.01.88-.46 1.33-1.35 1.35.02-.87.48-1.32 1.35-1.35z"/><path class="cls-11" d="M189.45 35.41c.21 1.87 1.73 1.25 2.81 1.47-.63 1.94-2.69 1.76-4.04 2.5-6.74 3.25-13.81 8.65-14.45 7.7-1.26-3.27 3.58-4.67 5.53-6.44 3.59-1.19 6.36-4.88 10.15-5.23z"/><path class="cls-1" d="M87.04 127.81c4.37-4.23 8.83-9.24 11.65-14.94 1.74-1.73 2.85.61 2.49 2.12-1.21 2.55-4 4.22-4.08 7.39-3.36.37-4 5.12-7.3 6.12-.72-1.02-1.8-.62-2.76-.7z"/><path class="cls-10" d="M60.64 464.99c-.01.53.12.99.62 1.26.47 1.08.45 2.54 2.12 2.66-.42 4.21 4.34 5.94 5.84 9.55 11.58 20.68 42.37 38.51 32.65 36.88-.64-.58-1.1-1.37-2.03-1.42-.03-.9-.54-1.25-1.38-1.22-20.86-14.91-58.46-61.91-55.4-65.78 2.5.95 3.37 4.2 6.25 4.44 1.44 1.71 2.71 4.19 5.33 4.11.19 1-.34 2.35 1.29 2.66 1.86 2.14 1.73 5.74 4.72 6.85z"/><path class="cls-1" d="M118.02 499.87c-.88 6.13-6.7-6.42-10.08-5.42.47-4.58-6.86-5.68-6.74-10.11.88 0 1.3-.48 1.34-1.33 5.15 4.68 9.85 10.49 14.14 15.51.02.87.46 1.33 1.34 1.35z"/><path class="cls-11" d="M102.5 515.4c.84-.06 1.36-.44 1.35-1.34 2.3 2.18 20.41 13.44 17.7 15.11-6.69-3.76-13.88-8.31-19.05-13.77z"/><path class="cls-1" d="M161.86 544.99q-3.18.09-3.35 2.71c-1.2 0-2.55.31-2.79-1.52-.51-2.53-4.64.19-5.23-2.22-.29-1.99 2.56-1.43 2.84-3.48.53-1.28 4.33-1.29 4.89-.02.65 2.28 3.76 1.75 3.64 4.54zm-.66 4.07c.97 0 1.93 0 2.01 1.34-.99.04-1.98.07-2.01-1.34zm-2.05-1.32c.98-.04 1.96-.07 2.04 1.3-.99.05-1.95.06-2.04-1.3z"/><path class="cls-11" d="M103.84 514.05c-.85-.02-1.3-.47-1.35-1.31.92-.05 1.36.4 1.35 1.31zm-2.65.65l.68.65c-.36-.08-.59-.29-.68-.65zm0-2.7l-.7-.64c.37.07.6.28.7.64z"/><path class="cls-1" d="M351.93 573.35c3.43.19 6.95-.24 10.27-.88 9.24-4.94 20.18-1.46 30.12-1.87.2 4.68-5.27.83-6.13 4.36-.43 2.39-4.47-.47-5.82 2.7-.64 1.5-2.7.96-3.55 2.26-2.66-.51-4.8 1.58-7.37 1.49-.12-4.91 5.31-1.07 7.57-4.18 2.08-1.34.04-3.65-1.57-2.27-1.86 1.73-4.02.85-6.05 1.02 1.56-6.56-12.33 1.24-22.19.03.44-2.9 4.34.23 4.73-2.66zm-63.4 2.74c61.62 0 45.71-.31 39.24 1.32-8.56 2.13-18 1.12-27.1 1.28-1.15-3.64-10.95 1.07-12.14-2.6zm-38.38-5.5c4.75-1.39 10.42-.54 14.95.71 3.8 4.84 14.72-1.4 14.71 4.73-4.25-.38-9.02 1.07-12.76-1.47-3.38-2.31-11.79.09-16.9-3.97zm-37.8-8.64c3.28.1 6.87-.82 9.67 1.34 3.09 2.31 7.63.18 9.94 3.92-1.38 1.43-3.61-.49-5.41.03-3.4.56-3.85-3.13-7.74-2.65-2.38-.47-6.99 1.26-6.46-2.65z"/><path class="cls-11" d="M288.53 576.09c1.19 3.67 10.99-1.04 12.14 2.6-21.2.03-20.4.88-20.87-2.6h8.73z"/><path class="cls-1" d="M304.73 584.14c-2.39 1.5-5.95-1.09-8.78.06-3.59.46-6.65-1.66-10.1-1.65-.48 0-.55-.64-.67-1.06 2.35-.19 19.93.45 19.56 2.65zm-134.84-36.35c7.99-1.02 3.17 2.71 8.21 2.66 2.94.12 2.94.15 3.37 3.23-3.6-.42-6.92-1.37-9.4-4.32-.53-.63-2.05-.18-2.18-1.58zm64.72 19.52c3.41.07 9.48-.82 10.97 3.09-3.54-.41-9.13.69-10.97-3.09z"/><path class="cls-5" d="M351.93 573.35c-.4 2.89-4.3-.24-4.73 2.66h-6.07c1.91-2.8 7.41-2.81 10.8-2.66z"/><path class="cls-1" d="M182.74 553.75c3.55-1.27 4.94-.6 5.48 2.62-2.12-.27-3.9-1.23-5.48-2.62zm-7.36 2.68c-1.48.11-2.99.24-2.71-2.02 1.18.29 2.44.5 2.71 2.02z"/><path class="cls-10" d="M504.3 75.15c-.17-1.37-.55-2.02 2.53-1.81 11.28 10.83 23.5 21.79 33.76 33.6 4.83 7.14 23.33 31.75 27.01 45.13-2.43.07-1.87-3.2-3.74-4.11-1.21 2.17.71 3.77.84 5.68-4.88-1.84-16.82-43.76-60.4-78.48z"/><path class="cls-1" d="M368.1 14.58c-2.49-.02-4.89-1.07-7.42-.68.19-4.81-8.94-.12-8.16-5.27 5.23.67 8.97-3.99 14.24-2.79.07 1.64-1.85.94-2.32 1.92.11.42 38 11.09 44.86 12.73 1.95 2.82 7.77 2.08 8.32 5.56-.65 1.36-3.05.41-4.34.63-1.07-3.85-12.4 1.55-13.05-3.28-.72-1.74-3.87.21-4.82-1.53-1.21-1.97-3.03-1.97-4.97-1.93-4.04.32-2.94-3.65-9.52-2.67-.18-1.43-1.26-1.32-2.28-1.34-3.63.26-6.74-2.65-10.53-1.35zm123.39 51.79c-2.87-1.63-5.59-3.53-8.69-4.74-3.37-5.87-14.57-7.15-14.96-10.66-5.65-5.6-14.64-6.7-20.91-11.67-1.42-.69-.19-3.57 1.18-3.07 2.16.76 4.73-.06 6.6 1.87 2.73 2.32 7.13 2.19 9.38 5.29 4.36 3.95 10.58 5.13 14.69 9.58 4.04 4.11 10.9 5.64 13.99 10.15-1.3.07-2.26-1.34-3.75-1.01.45 1.78 2.72 2.29 2.47 4.26z"/><path class="cls-11" d="M491.49 66.37c.25-1.97-2.02-2.48-2.47-4.26 1.49-.33 2.45 1.08 3.75 1.01 1.74 3.71 6.97 4.51 9.6 7.64 1.02.95 3.05.53 3.2 2.47-1.76.02-.28.81-2.67.64-3.25-1.39-5.77-4.08-8.73-6.1.01-1.52-1.58-1.31-2.67-1.39z"/><path class="cls-1" d="M495.46 65.81c-1.4-.39-2.29-1.3-2.69-2.69 1.95-.16 2.87.72 2.69 2.69z"/><path class="cls-10" d="M20.93 398.82c1.9 11 8.99 20.23 11.71 30.22.84 1.81 7.48 10.75 5.13 12.28-2.09-1.3-23.11-35.9-33.43-85.77.83 0 1.09 1.09 2.24 1.01.54-1.86.01-3.87.34-5.79 1.96.88 1.79 2.96 1.73 4.35-.02 9.48 5.2 15.48 7.27 32.37 2.48 3.48 1.72 8.58 5.02 11.32z"/><path class="cls-2" d="M37.77 441.33c1.36-.89-.15-1.87.1-2.8 1.44.11 1.7 1.36 2.1 2.34.64 1.52 4.66 6.44 5.23 2.9.17-1.05-.25-2.37 1.42-2.58.1 1.07-.52 2.5 1.33 2.71-1.01 2.16-1.75 2.8 1.31 2.71.52 9.72-2.79 1.6-6.2.3-.71.9.39 1.69.06 2.52-2.13-.94-2.32-3.38-3.7-4.93-.7-.78-1.61-1.87-1.64-3.18z"/><path class="cls-1" d="M68.87 484.3a13.74 13.74 0 0 1 4.02 4.78c-4.31-.05-4.11.49-4.02-4.78z"/><path class="cls-10" d="M2.92 345.47c2.14.91.86 2.75 1.14 4.17-2.18-.9-.93-2.74-1.14-4.17z"/><path class="cls-1" d="M63.45 477.6c1.41.4 2.37 1.23 2.59 2.76q-2.49-.21-2.59-2.76zm2.76 3.95c1.29.21 2.1.99 2.61 2.16-1.47 0-2.69-.29-2.61-2.16z"/><path class="cls-11" d="M31.12 431.09c.89.06 1.33.52 1.25 1.43-.84-.11-1.29-.56-1.25-1.43z"/><path class="cls-2" d="M45.2 452.67c.97.05 1.42.55 1.29 1.53-.81-.19-1.3-.65-1.29-1.53z"/><path class="cls-11" d="M97.08 511.4c.93-.06 1.37.39 1.38 1.31-.85-.03-1.29-.48-1.38-1.31z"/><path class="cls-4" d="M352.52 8.62c-.78 5.15 8.35.47 8.16 5.27-1.91.61-8.67-.21-8.05 2.5 1.98 3.78-10.74 8.42-11.96 5.11-1.55-3.97-8.67 1.23-8.98-4.19 4.18-1.01 7.51 1.46 11.41 1.31.99.05 2.01-.11 2.83.73 1.74 1.2 2.68-1.85 3.81-2.86-4.35-2.26-8.55-.55-13.01-1.74-4.04-1.24-8.17-2.14-12.43-2.22-.02-5.05-.61-4.43 28.22-3.91z"/><path class="cls-1" d="M341.83 8.49c-18.46 0-17.56-1.18-17.53 4.04-44.19.96 5.46 2.94 6.07 4.7-4.3-.15-8.91.3-13.1-.13-3.75-2.79-10.74.34-14.59-2.37-2.09-1.47-5.19 2.39-6.13-3.39 4.27-.89 13.12 1.67 15.74-1.6.28-.97 1.22-1.38 2.16-1.21 2.99.53 5.41-1.8 8.45-1.48 5.52.82 14.83-2.33 18.93 1.44zm-57.19 2.91c-2.19 3.73-12.4 2.6-13.94 3.82-3.76 3.76-9.82.56-13.58 2.75-1.2 4.86-9.98-.85-11.43 3.75-3.5 2.28-9.47.26-13.77.91 3.32-4.63 9.76-1.02 13.71-4.89 3.01-.93 6.43-.3 9.56-1.18 2.76-.3-.44-1.48 6.7-2.01 7.79.23 14.99-3.74 22.74-3.15zm84.81-8.28c2.05.48 5.95-1.25 6.76 1.31-2.05-.48-6 1.29-6.76-1.31z"/><path class="cls-5" d="M229.3 22.79q-.35 2.53-3.44 2.55c.34-1.94 1.48-2.8 3.44-2.55z"/><path class="cls-11" d="M248.74 13.83c.11-.82.53-1.28 1.4-1.21-.06.88-.54 1.27-1.4 1.21zm-7.42 2.01c.12-.82.57-1.26 1.42-1.25-.06.89-.51 1.33-1.42 1.25z"/><path class="cls-9" d="M563.86 147.95c1.88.91 1.32 4.18 3.74 4.11 0 2.05.12 4.07 2.6 4.77 2.86 8.41 21.58 52.15 15.58 56.59-9.72-39.46-24.19-61.43-21.93-65.47zm32.94 148.34c-1.44-.42-1.28-1.6-1.3-2.71.86-10.6-3.74-26.43 0-29.51 3.04 1.9 0 8.28 2.95 10.28-.24 3.14.54 6.31-.33 9.42-2.45 2.28.24 9.02-1.31 12.52z"/><path class="cls-10" d="M585.79 213.42c1.01.02 1.34-.62 1.46-1.48 1.68.85 4.02 13.78 4.09 16.95-.16.89.28 1.34 1.11 1.49l.09 4.6c-1.91.21-1.11 1.87-1.54 2.88-2.14-.91-.42-3.95-1.37-5.46-2.28-6.11-1.85-12.79-3.84-18.97z"/><path class="cls-9" d="M592.54 234.98c.56 1.74-.67 4.78 1.22 5.63-.27 5.64 2.29 10.96 1.5 16.61-1.83 2.12.29 5.11-1.2 7.4-2.48-2.22-.96-6.41-1.6-9.42.6-5.83-3.74-19.8.09-20.22z"/><path class="cls-14" d="M596.8 296.29c1.55-3.51-1.13-10.24 1.31-12.52.85 54.13-1.71 21.79-1.31 12.52z"/><path class="cls-9" d="M598.39 305.09c-.51-2.69-1.18-11.52.86-11.45-.54 7.51 2.13 10.78-.86 11.45z"/><path class="cls-7" d="M594.05 264.62c1.5-2.29-.63-5.28 1.2-7.4.22 6.18.59 9.2-1.16 9.3l-.05-1.89z"/><path class="cls-10" d="M570.21 156.83c-2.49-.7-2.58-2.7-2.59-4.75 1.72 1.12 2.42 2.79 2.59 4.75z"/><path class="cls-1" d="M599.77 304.77c-.29 1.75 1.32 5.39-1.28 5.68-.12-6.33-.57-5.25 1.28-5.68zm-.52-11.14l-.81-.02c.25-1.35-.55-2.71.07-4.06 1.79 1.13 1.88 1.64.74 4.08zm-45.83-169.12c-1.26-.16-1.35-1.07-1.34-2.06 1.45.03 1.4 1.04 1.34 2.06zm43.07 120.89c-.06.85-1.16.98-1.11.03.1-.72.99-1.03 1.11-.03zm1.95 28.95c-.74-.3-1.2-.78-1.04-1.64 1 .14 1.24.75 1.04 1.64zm-4.68-33.74c-.79-.26-1.17-.76-.92-1.62.91.2 1.09.81.92 1.62zm-1.3-10.23c-.83-.15-1.27-.6-1.11-1.49.89.11 1.23.63 1.11 1.49zm-37.69-103.87c-.83-.12-1.3-.55-1.26-1.42.9.05 1.3.54 1.26 1.42zm-160.48 444c-.09-1.87 4.53-3.55 6.25-3.12.45 3.24-3.94 2.98-6.25 3.12zm12.88 2.8c.81-1.78 1.96-3.14 4.1-3.23-.08 4.07.99 3.23-4.1 3.23zm-66.04 12.18c1.89-1.1 4.08-.89 6.11-1.33-.22 2.67-4.34 2.5-6.11 1.33zM298 588.16c2.22-1.06 2.91-.96 4.07.6-1.37-.09-2.86.59-4.07-.6zm105.15-20.86c.22-1.86 1.63-1.27 2.72-1.33-.41 1.46-1.14 2.27-2.72 1.33zm-116.71 19.62c1-.13 1.97-.21 2.15 1.17-.99.12-1.9.07-2.15-1.17z"/><path class="cls-10" d="M66.03 133.69c-2.77 1.41-4.08 4.35-5.39 6.9-10.81 12.45-12.87 26.03-19.95 33.9-.17-.79-.43-1.51-1.44-1.48C52.84 140.25 73 121.58 74.3 118.48c9.59-3.48-5.51 7.69-8.27 15.21z"/><path class="cls-9" d="M39.26 173.01c3.64 1.22-1.52 9.43-2.67 11.87-2.17 2.76-1.53 7.31-4.52 9.31-4.24-5.54 4.67-10.87 4.58-16.78.15-1.71 1.21-3.25 2.61-4.4z"/><path class="cls-10" d="M30.92 192.33c.16.75.43 1.44 1.15 1.86-.28 2.32-.53 4.65-2.31 6.43-.05-.98-.02-2.01-1.41-2.07.48-2.23.93-4.47 2.57-6.22z"/><path class="cls-1" d="M14.02 243.03c-.14 2.14-1.44 4.02-1.41 6.21 0 .44-.6.55-.99.71.38-2.37-1.55-7.42 2.4-6.92z"/><path class="cls-11" d="M18.18 227.51c.17 2.66.58 5.41-2.51 6.89-.42-2.75.72-4.94 2.51-6.89z"/><path class="cls-1" d="M8.93 259.94c-1.43-1.8 1.14-4.52.6-6.75 2.62-.12.77 4.51-.6 6.75z"/><path class="cls-11" d="M20.94 217.43c-.13 1.26.7 2.85-1.22 3.48.17-1.24-.93-2.93 1.22-3.48z"/><path class="cls-10" d="M78.26 114.29c1.85 1.37-1.29 3.09-1.26.75.26-.52.73-.68 1.26-.75z"/><path class="cls-11" d="M19.62 222.16c-.05 1.1.46 2.43-1.22 2.83-.03-1.13-.64-2.51 1.22-2.83zm-4.14 14.11c.03 1.12.54 2.43-1.18 2.81.01-1.1-.53-2.43 1.18-2.81z"/><path class="cls-10" d="M25.01 207.34c.04.91.14 1.86-1.09 2.1-.3-1.04-.28-1.92 1.09-2.1z"/><path class="cls-11" d="M23.61 212.02c.14 1.03.13 1.97-1.24 2.11-.08-1-.13-1.97 1.24-2.11zm-1.31 2.72c.08 1.01.05 1.95-1.3 2.06-.07-1.01-.09-1.98 1.3-2.06z"/><path class="cls-1" d="M68.78 125.09c.04.88-.39 1.35-1.26 1.43-.04-.88.37-1.37 1.26-1.43z"/><path class="cls-10" d="M523.13 483.69c5.24-3.13 8.52-9.52 13.4-13.54.09.93-.06 2.03 1.38 2.05-.19 1.31-30.28 33.52-42.38 40.51-1.53-.13-1.3-1.27-1.4-1.41 1.8.07 8.36-9.55 15.24-13.31 1.11-3.73 5.36-4.58 7.08-7.74.59-1.58 3.37-.57 3.3-2.52.62-.29 1.03-.78 1.31-1.38 1.83-.04 1.87-2.08 2.07-2.66z"/><path class="cls-11" d="M523.13 483.69c.76-2.35-.02-6.36 3.54-6.05.76.05 1.31-.54 1.58-1.11 2.31-3.69 6.19-6.13 7.92-10.21 3.61-.95.13-4.94 3.46-5.59 3.75-2.01 5.36-6.87 8.52-9.76 1.17-1.3 0-3.68 2.09-4.24 3.36-.84.34-6.51 4.64-5.4-5.22 14.59-26.68 39.33-31.75 42.36zm31.78-42.4c-.53-3.47 3.67-5.57 2.68-9.32-.08-.65-.11-1.7.51-1.81 3.21-.48 1.65-3.29 2.4-5.07 3.54-.7 1.68-5.41 4.77-6.42 1.13-1.6.19-8.36 2.5-7.31 1.15.38 1.47-1.42 2.64-1-2.21 10.07-8.85 18.69-12.97 28.09-.58 1.12-.89 2.61-2.54 2.84zm22.29-45.13c-1.74-10.21 4.59-7 3.86-14.67-.25-1.23-.09-1.92.82-2.85 3.51-3.61.37-4.93 1.47-5.36 4.15-1.47.7-7.6 5.06-8.29-2.7 10.44-5.42 22.42-11.2 31.17zm-6.75 14.16c1.47-4.86.83-12.08 6.71-14.11-.94 4.91-2.63 11.11-6.71 14.11zm19.53-52c-.63-3.79.23-8.68-.07-12.86q.09-2.32 2.75-2.51c-.23 3.16.53 6.43-1.25 9.42-.59 1.87.41 4.44-1.44 5.95z"/><path class="cls-1" d="M580.23 402.5c.12 2.37-.08 6.32-3.14 6.39.89-2.21.7-4.94 3.14-6.39z"/><path class="cls-11" d="M588.53 363.04c-2.56-.6-.53-2.37 1.19-2.11-.04 2.46.27 1.98-1.19 2.11z"/><path class="cls-10" d="M589.69 362.94c.15 1.02.21 2-1.23 2.09.08-2.39-.23-1.97 1.23-2.09z"/><path class="cls-1" d="M582.96 395.79c.19 1-.19 1.57-1.24 1.62-.02-.87.47-1.36 1.24-1.62z"/><path class="cls-11" d="M494.15 511.35c.01.9.53 1.3 1.37 1.37-1.06 4.16-6.18 4.38-8.23 7.85-1.64 2.2-5.79 1.62-5.99 4.88-1.05.15-2.46-.4-2.68 1.37-1.13.1-2.61-.35-2.68 1.36-.88.01-1.33.46-1.35 1.34-.88 0-1.34.46-1.36 1.34-.87.01-1.32.48-1.38 1.33-2.41 2.16-6.57.25-7.37 4.09-1.3.03-1.95.72-2.06 1.99-3.19.03-.6 1.33-3.33 1.36v-3.35c1.54-.23 2.83-.72 2.73-2.64 2.19.14 4.1-.46 4.72-2.71 1.1-.06 2.7.17 2.65-1.38.87 0 1.32-.47 1.39-1.32 1.1-.04 2.7.18 2.67-1.37.87-.02 1.31-.48 1.37-1.33 1.04.08 1.3-.96 1.98-1.38.99.03 1.97.02 2.05-1.35q2.5-.22 2.72-2.64c4.3-.24 4.97-3.19 6.95-6.02 3.16-.51.21-3.44 5.83-2.78z"/><path class="cls-1" d="M478.62 526.82c.22-1.77 1.63-1.22 2.68-1.37-.17 1.88-1.62 1.25-2.68 1.37zm-14.13 9.45c.54-.99.77-2.23 2.04-2.68.02 1.42.09 2.89-2.04 2.68zm-2.06 1.99c.1-1.26.76-1.96 2.06-1.99.14 1.52-.54 2.18-2.06 1.99zm13.52-10.08c.06-1.39 1.04-1.37 2.03-1.34-.08 1.35-1.05 1.36-2.03 1.34z"/><path class="cls-1" d="M474.6 529.52c.01-.88.47-1.33 1.35-1.34-.02.88-.46 1.33-1.35 1.34zm-1.36 1.33c.02-.88.47-1.32 1.35-1.33-.01.89-.46 1.33-1.35 1.33zm-1.38 1.34c.06-.85.5-1.31 1.36-1.32 0 .9-.46 1.35-1.36 1.32zm-11.45 7.42c.07-.86.51-1.32 1.4-1.29-.05.88-.51 1.33-1.4 1.29z"/><path class="cls-10" d="M5.46 309.12c.72 8.02-.41 17.23-.13 25.66-2.41-.74-1.48-23.22.13-25.66zm.16 33.51c1.3 1.57 1.86 4.69 1.25 6.94-2.22-1.99-1.24-4.55-1.25-6.94zm1.05-41.65c-.3 1.74 1.05 4.78-1.14 5.52.34-1.72-1.04-4.83 1.14-5.52z"/><path class="cls-1" d="M5.6 276.99c.24-1.58-1.07-4.59 1.21-4.94-.23 1.69.83 3.69-1.21 4.94zm-2.68 14.15c.23-1.57-1.09-4.66 1.23-4.93-.28 1.68.8 3.69-1.23 4.93zm1.34-7.41c.13-1.43-.9-4.1 1.25-4.26-.27 1.46.82 3.33-1.25 4.26z"/><path class="cls-11" d="M19.53 234.21c-.09 1.27.83 2.89-1.19 3.5.14-1.25-.79-2.87 1.19-3.5zm1.38-4.69c-.18 1.24.78 2.89-1.25 3.46.14-1.25-.77-2.89 1.25-3.46z"/><path class="cls-1" d="M6.94 268.89c-.13-1.03-.31-2.07 1.18-2.25.14 1.03 0 1.91-1.18 2.25z"/><path class="cls-10" d="M29.51 202.56c.24.93-.23 1.34-1.07 1.48-.08-.81.24-1.33 1.07-1.48z"/><path class="cls-5" d="M528.49 483.01c.34-1.86 1.5-2.71 3.34-2.72 2.28 2.04-2 2.38-3.34 2.72zm-23.05 22.84c.72-1.6 1.88-2.72 3.53-3.32q-.22 3.29-3.53 3.32z"/><path class="cls-1" d="M521.07 490.39c.07-.93.47-1.62 1.41-1.91-.04.96-.03 1.95-1.41 1.91z"/><path class="cls-5" d="M532.56 478.97c.02-.88.5-1.3 1.35-1.34-.02.88-.47 1.33-1.35 1.34zm-6.01 6.09c-.02-.87.4-1.34 1.27-1.42.03.88-.39 1.35-1.27 1.42z"/><path class="cls-1" d="M519.71 491.73c.04-.86.5-1.29 1.34-1.33.03.92-.42 1.37-1.34 1.33zm-1.35 1.33c.05-.85.51-1.28 1.35-1.33.03.93-.41 1.38-1.35 1.33z"/><path class="cls-5" d="M516.99 494.44c.06-.87.5-1.34 1.39-1.35.01.94-.46 1.38-1.39 1.35zm-7.38 7.45c0-.88.46-1.36 1.31-1.49.1.96-.34 1.46-1.31 1.49z"/><path class="cls-14" d="M413.92 312c-14.96-.63-27.27 1.43-9.81-14.03h-.05c2.01-.17 2.04-1.6 1.9-1.5 3.88-.52 5.89-5.07 9.94-5.68 1 .12 1.36-.37 1.24-1.31 1.4-3.83-4.45-4.02-6.89-4.21-.25-.84-.84-1.16-1.69-1.08-2.21-.48-3.32-2.7-5.4-3.38-.02-.92-.59-1.25-1.4-1.34-.03-.8-.34-1.37-1.21-1.49.05-.44.02-.85-.28-1.21-.05-.52.64-6.3-1.25-5.36.08-1.55.02-3.09-.42-4.59 1.35-4.52-1.06-2.91-1.65-5.55.96-.74.61-1.14-.36-1.38-1.02-1.9-1.6-4.1-3.51-5.43.05-.91-.42-1.38-1.27-1.54-5.29-7.54-10.73-9.11-12.1-11.88-.96-1.54-2.19.9-3.43.72-.1-.84.13-1.86.76-2.1 3.87-1.39-.06-6.08 3.4-7.46-.19 4.18.49 8.79 5.55 9.51-.02 1.03 8.62 8.15 8.76 8.28.16.73.49 1.31 1.3 1.47.43.82.16 3.13 2.76 3.55-.27.34 1.99 6.98 1.82 11.93-.04.59.5.95 1.05 1.14 2.58 15.06 18.7 18.89 29.35 8.66 7.38-6.98 20.5-30.79 28.74-22.26 3.41 3.78 7.57 6.97 10.69 10.97.02.83.38 1.33 1.27 1.32 2.9 4.27 7.52 17.44 14.11 21.37 6.16 3.18 10.15 9.17 15.51 13.03 13.03 18.69 19.68 11.67 32.82 19.94-2.11 4.58-20.02 3.35-38.78-19.73-8.67-8.6-17.06-12.02-22.13-23.26-1.6-8.23-8.3-14.39-14.65-19.39-5.01-3.34-8.54 1.84-10.6 5.68-.77.19-1.12.7-1.16 1.47-.83.82-1.82 1.51-2.14 2.73-.97-.1-1.14.57-1.24 1.3-1.71 1.01-2.36 3.03-3.98 4.13-.95 0-1.28.55-1.22 1.42-.17.23-2.54.64-2.93 3.22-.83.06-1.18.6-1.35 1.35-.86.03-1.1.65-1.43 1.31-1.74.16 0 1.05-2.74 1.67-2.89-2.55-6.53 1.81-9.9 1.73-1.34.24-1.32 1.05-.52 2.19 1.29 1.85 3.21 1.12 4.88 1.4-.28 2.67-.32-.41-19.78 15.38-.75-1.52 1.92-2.22 1.02-3.5-.96-1.38-9.96 8-7.83 8.98.9 1 2 .67 3.07.13 1.99-1.53.37-5.17 3.74-5.6-1.86 8.29 7.34 2.79 11.68 3.2 6.28-1.05 19.66 2.11 19.15-7.68 3.85-.8-2.64-4.55 1.43-4.13-.14-.14-.26.34 1.14 1.88 4.33 4.72.83 9.55-3.74 12.09-2.05-.05-3.49.81-5.24 1.7-4.62 1.32-13.01.56-14.98 1.24zm9.62-2.16c-4.4-1.34-8.81-1.64-13.21.04 4.39.64 8.79.45 13.21-.04zm2.12-.55c.46.32.64.24.77-.3-.46-.32-.64-.24-.77.3zm-263.06 8.43c-2.41-.6-8.2-5.22-7.1-7.76 1.34-1.56 1.54-4.15 3.96-4.71 2.91-.68 5.08-3.33 8.31-3.12 2.11-3.36 6.43-2.24 9.17-4.55 2.56-2.68 12.49-6.53 15.24-9.42 2.34.13.32-.97 2.99-1.96.68.81.71 2.08 1.98 2.47.98.3 1.33 1.1 1.21 2.1-6.4-.5-10.34 6.31-15.66 8.98-2.95 3.39-27.31 8.65-19.51 13.92 2.36 1.43 4.8.99 7.17.41 3.53-1.14 7.43-.12 10.63-2.31 6.98-1.45 12.44-5.65 18.88-8.41 5.78-1.54.65-9.16-1.03-12.47.9-.11 1.97.06 2.07-1.31 3.31 2.31 3.67 7.96 6.39 11.23 2.84 4.48-5.29 7.03-6.4 6.99-.14 0-24.05 14.01-38.31 9.91zm-6.81-56.45c-.85-.06-1.22.5-1.49 1.17-3.03 1.58-4 4.67-5.45 7.42-.15 0-21.24 24.63-41.31 25.27-.92.06-1.76.37-2.3 1.2-8.32.13-14.29 6.11-14.32 7.13-2.01 1.65-3.91 3.4-5.34 5.6-1.37.15-.91 1.55-1.38 2.48-9.21 6.73-13.89 15.86-18.46 14.16-.59-.67.05-1.27.38-1.78 22.52-20.18 24.83-29.2 33.31-29.4.14-.01.49-.74.46-.89 1.7-.03 4.74.55 5.5-1.28 2.05-.76 4.45.81 6.06-1.34 1.06-.28 2.47.06 2.72-1.35 1.79-.85 4.32.74 5.32-1.4.77-.06 1.41-.25 1.29-1.23 3.42-.26 5.8-1.63 7.73-4.31 19.93-11.58 24.73-34.28 37.7-25.96 5.67 3.53 9.06 10.59 15 13.4.61 2.25 3.91 1.91 4.18 4-.99-.1-1.92-.12-1.89 1.29-2.92-.52-4.74-3.98-7.92-4.32-4.68-4.18-11.8-18.63-19.76-9.89z"/><path class="cls-5" d="M591 237.86c-.64 7.5 4 16.5-.38 19.05-1.74-.89 0-3.26-1.32-4.55-1.71-4.13-.27-9.32-.77-13.82.63-3.98-1.79-6.95-3.23-10.28-.11-2.47-.64-4.63-1.92-6.9-1.66-3.57-.4-8.74-1.12-12.54-3.4-3.02-3.2-7.82-5.16-11.48.64-4.03-3.78-6.38-2.72-10.37.02-6.81-2.75-4.1-2.73-7.54.35-4.17-3.93-5.22-5.61-8.24-.33-.71-.69-1.45-1.49-1.74-3.72-1.33.9-3.98-.94-6.26-5.47-9.48-6.86-7.96-6.14-19.84 1.87-1.76 3.53 8.9 7.23 10.29-.02 2.57.08 4.9 2.79 5.99 1.66 6.36 14.08 34.15 18.29 53.79 1.99 6.19 1.56 12.86 3.84 18.97.95 1.51-.77 4.55 1.37 5.46z"/><path class="cls-10" d="M40.5 351.59c-1.13-.25-1.25-1.1-1.25-2.05.64-7.56-2.27-14.65-1.37-22.24 2.1-.42 1.29-2.11 1.3-3.27-.55-12.22 1.26-24.95-.68-36.83-1.19 13.2.03 26.13-.64 38.77-4.29-2.39.51-73.33 4.12-86.87 1.95-.49.62-.55.62-2.72 1.32.24 1-1.65 2.17-1.71.48 6.82-1.57 14.18-1.51 21.21-3.13 6.45-3.91 80.7-.95 81.64.15 2.68.52 5.36-.15 8.02-2.35 1.25.08 4.31-1.65 6.05zm25.72 84.87c-.11-.9-.49-1.62-1.35-2.02-1.49-6.99-7.2-12.56-9.04-19.61-.16-.48-.67-.53-1.08-.69-1.49-9.12-6.6-17.23-8-26.26-1.43-5.11-2.09-11.41-4.74-15.62.81-4.83-2.26-9.24-1.16-13.96 2.58-1.58-.12-5.14 1.62-7.37 2.73 6.33 1.74 14.32 4.19 21.19 1.37 10.41 5.46 19.88 7.68 30.05 2.69 10.18 10.18 18.58 11.85 28.89-.06.91.38 1.37 1.29 1.4-.02.95-.04 1.9 1.23 2.09-.23 1.59 1.42 2.46 1.52 3.92-.07.9.36 1.36 1.24 1.44 1.07 1.46 1.31 3.41 2.71 4.68-.8.43-1.62.79-2.57.62.03-1.16-1.52-1.48-1.41-2.68 0-.84-.44-1.29-1.27-1.36-.75-4.14-.73-1.93-1.39-2.73 0-.95-.06-1.86-1.32-1.97z"/><path class="cls-5" d="M74.19 444.6c-1.87-1.7-2.35-5.94-3.96-6.12-.1-.28-2.46-4.97-1.4-6.02 2.96-.29 3.91 2.21 5.18 4 1.21 2.43 3.98 4.21 3.57 7.26-.33 4.06 2.27 2.28 5.14 4.89-.51 2.88 2.61 3.85 3.18 6.12 4.03 1.14 1.71 5.63 3.06 5.75 1.68.14 1.71 1.85 2.58 2.6 1.57 1.34 2.33 2.92 2.9 4.74 4.65 2.7 3.9 9.99 8.18 9.84 1.39-.09 2.76-.21 2.08 2.07 1.05 7.81 15.39 9.3 11.97 18.8-8.31-9.73-17.76-19.83-26-30.11-5.28-8.09-10.46-16.46-16.49-23.81z"/><path class="cls-14" d="M248.81 261.29c-1.07 2.24-4.46.6-5.9 2.77-1.13.51-2.99-.02-3.12 1.62-.21.16-.96-.38-1.59 1.09-.97.53-2.33.08-2.68 1.41-.96.54-2.53-.06-2.48 1.53-.2.14-1.7-.28-2.19 1.15-2.3 1.68-6.58 5.45-7.75 8.51-.94-.06-1.42.36-1.4 1.32-1.55.38-7.56 4.2-12.87 4.47.61-3.51-10.82 2.3-12.76-4.06 12.63 5.67 23.8-3.9 31.45-13.25 8.59-7.33 10.58-3.79 11.39-6.47 1.5.09 2.36-1.49 3.84-1.46.85.06 1.47-.19 1.56-1.16 2.19-1.05 5.01-.36 4.5 2.51z"/><path class="cls-1" d="M172.36 272c-.01-.66-1.35-.83-1.25-.1.15.55 1.18.98 1.25.1z"/><path class="cls-11" d="M43.88 247.75c-.54-4.4 1.98-8.91.89-13.1-1.58.08-2.17 6.28-2.17-4.36 2.18-.42 1.49-6.07 2.66-8.11 3.23-1.71-.03-7.19 1.94-10.11 1.48-2.63 1.03-3.65-1.96-5.43-.16-3.84 4.63-5.88 6.69-8.78.08.86.51 1.37 1.41 1.4.14 2.15 0 4.24-1.33 6.08-.35 4.94 1.02 10.26-2.14 14.55-.28 1.92-3.93 18.32-3.25 20.3-.06 2.53-.33 6.55-2.75 7.56zm164.73 50.75c.3.76 1.74.53 1.5-.32-.24-.79-1.66-.55-1.5.32zM330.37 17.24c-.98-2.84-1.92.52-24.25-3.7 14.67-2.81 29.33.48 43.62 2.96-1.13 1-2.08 4.06-3.81 2.86-2.52-1.67-5.55.02-8.28-1.76-2.06-1.1-4.91-.03-7.28-.35z"/><path class="cls-9" d="M91.19 297.84c-18.11 22.36-27.28 25.81-25.45 27.88 5.38 1.99 13.41-12.97 14.49-9.25-.06.21-1.2.17-1.51 2.45-3.85 2.38-6.07 6.61-10.06 8.9-2.39 1.92-7.46 1.99-5.81-2.34 3.67-6.35 10.87-9.48 15.33-15.34 3.26-2.24 9.85-13.36 13.01-12.3z"/><path class="cls-13" d="M310.15 129.66c7.08-.89 3.26.9 7.27 1.2 6.29.91 13.02 2.22 18.31 5.78 0 1.89-2.7.7-2.69 2.57-4.42-2.05-9.75-1.22-14.11-4.08-2.27-3.52-8.95-.66-8.78-5.47z"/><path class="cls-15" d="M208.84 285.18c-1.83.86-4.33-.81-5.39 1.38-.93.24-1.88.22-2.82.31-1.57.19-1.41 2.93.28 2.71-.04 1.42-1.67 1.49-2.55 1.19.12-1-.24-1.81-1.21-2.1-1.27-.39-1.3-1.67-1.98-2.47.36-4.49-9.23-7.08-11.7-10.72 1.07-4.26 6.3 3.34 9.24 2.76.75.15.95.87 1.4 1.33-.03 1.4 1.03 1.28 1.96 1.55 1.97 6.38 13.34.54 12.76 4.06z"/><path class="cls-1" d="M53.34 199.26c-2.56-.29-.98-2.93.32-3.75 3.82-8.77 5.86-19.32 12.39-26.65.28 9.14-2.34-.55-2.63 10.82-3.18 1.05-3.02 3.7-2.94 6.26 1.05 4.45-3.88 5.92-4.7 10.24-.81 1.88.43 3.09-2.44 3.09z"/><path class="cls-9" d="M501.34 301.17c-1.1-.15-1.81-.94-2.42-1.71-5.23-8.09-16.58-10.4-19.76-19.78 1.18-.24 1.7.79 2.02 1.45 4.85 8.02 16.93 11.07 20.16 20.05zM429.8 283c3.12-.71-1.15 1.13 4.43 7.93-2.75 1.07-2.98-4.39-6.67-2.5.34.95 1.17 1.6 1.02 2.55-1.72.3-2.6-2.12-4.46-1.39.28-2.62 3.44-2.53 5.67-6.6z"/><path class="cls-11" d="M92.11 302.11c3.24-3.35 7-5.59 11.82-5.63-.41 3.85-5.09-.84-7.3 6.92-1.25-1.43-3-.8-4.52-1.29z"/><path class="cls-4" d="M368.1 14.58c3.79-1.3 6.9 1.61 10.53 1.35 1.02.01 2.1-.1 2.28 1.34-4.19-.78-10.59 2.13-12.81-2.69z"/><path class="cls-1" d="M85.58 309.07c1.43-2.21 3.33-3.95 5.34-5.6-.22 3.26-2.09 5.61-3.86 8.12-.18 1.85-1.54 1.53-2.74 1.51-.37-4.72 3-1.41 1.26-4.03z"/><path class="cls-5" d="M302.05 295.62c2.54-.51 5.04 1.28 7.49.48 1.71-.7 3.48-.42 5.22-.56.19 1.35-.23 2.14-1.76 2.12-3.08-.92-10.46 2.15-10.95-2.04z"/><path class="cls-1" d="M77.51 148.58l.08 3.48c-.95.71-.56 1.77-.69 2.69-3.19-.2-2.55 1.56-2.68 4.05-1.06.11-1.34-1.06-2.19-1.31.86-3.57 2.64-6.56 5.48-8.91z"/><path class="cls-5" d="M471.89 528.17c-1.1.06-2.74-.23-2.68 1.35-2.24-.02.51 1.57-4.06 1.35-.1-1.42 0-2.57 1.74-2.99 1.3-3.34 6.22-2.54 6.36-2.4v1.35c-.89 0-1.34.45-1.37 1.33z"/><path class="cls-11" d="M398.6 266.82c.44 1.5.5 3.04.42 4.59l-1.16-.08c-.47-1.86-4.27-10.54-.91-10.06.64 1.88-.08 4.08 1.65 5.55z"/><path class="cls-1" d="M393.73 248.98c-2.03-1.02-3.35-2.8-4.79-4.46.25-2.35-3.19-.35-2.93-2.68.63-.11 1.3-.15 1.7-.77 3.26.81 2.5.53 2.62.67-1.05 3.85 3.65 3.19 3.39 7.24z"/><path class="cls-9" d="M478.73 279c-2.35-1.46-2.79-4.18-4-6.35-.65-1.16-1.89-2.3-1.51-3.93 2.59 1.33 3.02 5.37 5.17 7.48.58.8.99 1.78.34 2.8z"/><path class="cls-5" d="M487.43 515.38c-.91 2.99-3.11 4.35-6.05 4.76-.84-3.31 3.4-4.36 6.05-4.76zM71.53 162.86c-.4 2.59 1.46 6.23-2.7 6.06-.14-.14-1.1-6.44 2.68-6.09l.02.02zm-8.11 16.82c.06-2.61-.58-5.92 2.69-6.73-.23 2.55 1.16 6.66-2.69 6.73z"/><path class="cls-9" d="M99.89 293.7c-.16.29-.29.82-.47.83-3.15.07-5.37 2.58-8.17 3.24 1.46-3.5 5.2-4.51 8.64-4.07zm300.73-26.77c.42-7.05-3.07-9.98-.22-9.69 3.12 14.95.19 10.17.22 9.69z"/><path class="cls-4" d="M553.46 143.3c.9-1.21 1.8.25 2.69 0 .3 1.18-.82 2.94 1.35 3.37v2.7c-3.16-.82-3.3-3.65-4.04-6.08z"/><path class="cls-10" d="M120.76 287.06c0 2.64-3.51-.19-4.13 2.23-1.29.21-2.56.48-3.87.4-.23-.23-.03-1.63.37-1.59 2.61.57 5.47-2.46 7.64-1.04z"/><path class="cls-5" d="M390.32 241.72c-4.84-1.21-4.04-1.9-4.04-4.02 1.29.08 1.93-2.18 3.75-.84-1.78 1.69-.48 3.25.29 4.86z"/><path class="cls-9" d="M42.47 350.94c-1.74 2.23.96 5.78-1.62 7.37l-.35-6.72c1.73-1.74-.71-4.8 1.65-6.05l.32 5.4z"/><path class="cls-11" d="M40.73 279.63c-.24-1.78.02-9.22 1.57-9.69.35 3.11.39 7.34-1.57 9.69z"/><path class="cls-10" d="M128.48 282.75c-1.79 1.93-3.37 4.2-6.48 3.96-.11-1.21 5.41-4.8 6.48-3.96z"/><path class="cls-5" d="M397.85 271.34c1.64.11 1.32-.32 1.23 1.39-.73.32-.66 1.66 1.07.88.11 1.05.34 2.1.11 3.17-3.27-1.09-3.83-2.34-2.41-5.44z"/><path class="cls-11" d="M223.11 279.39c.65-1.71 1.7-3.1 3.2-4.16.3 1.33 0 2.97 2.01 3.56-1.78.88-3.52.53-5.21.6zm169.97-20.89c0-4.19-.91-6.84 3.51 1.4-1.29-.19-3.2.65-3.51-1.4zm-206.06 56.13c2.07-1.75 4.57-2.42 7.17-2.82-1.57 2.28-4.56 3.45-7.17 2.82z"/><path class="cls-10" d="M103.83 293.4c-7.14 1.63-3.05-2.3 4.09-2.44-2.8 2.49-3.85.56-4.09 2.44z"/><path class="cls-5" d="M53.34 199.26h1.35c-.4 2.59 1.44 6.2-2.68 6.08 1.33-1.83 1.46-3.92 1.33-6.08z"/><path class="cls-11" d="M84.2 311.55c.71 2.64-1.98 4.02-3.97 4.91-.62-2.14 2.35-3.73 3.97-4.91z"/><path class="cls-5" d="M72.02 157.48c.84.25 1.13 1.43 2.19 1.31.23 1.08-1.44 1.58-.58 3.19.64 1.19-1.35.55-2.1.87-.47-.46.82-3.54.49-5.37zm370.71 137.4c-2.65-.18-1.79-3.18.33-3.14 1.96-.2.9 2.84-.33 3.14zm30.51 230.59q.3-2.66 4.05-2.69c-1.39 2.76-3.48 3.26-4.05 2.69z"/><path class="cls-11" d="M226.35 275.17c1.04-1.68 2.39-3.03 4.19-3.9l.06 2.8c.67-.66-2.98 1.71-4.24 1.1z"/><path class="cls-5" d="M66.14 171.62c-.11-3.3-.81-2.79 2.66-2.73l.03.03q-.14 2.55-2.69 2.7zm252.7 123.29c.5-2.3 3.72-.97 5.42-1.32-.32 2.42-3.74.98-5.42 1.32zM74.24 157.48q.1-2.56 2.65-2.73-.09 2.56-2.65 2.73z"/><path class="cls-1" d="M398.8 255l-1.09-.45c.06-1.74-.79-.47-1.63-3.03 2.99-.16 3.09-.03 2.72 3.48z"/><path class="cls-5" d="M413.92 312c.89-.31 1.79-.36 2.7-.08.46 2.97-3.06 3.11-2.7.08z"/><path class="cls-1" d="M461.83 533.63c.1 1.92-1.19 2.41-2.73 2.64q.14-2.6 2.73-2.64z"/><path class="cls-9" d="M435.36 278.57c.25-1.69 1.48-2.48 2.88-3.1-.09 1.85-1.03 2.89-2.88 3.1z"/><path class="cls-1" d="M465.16 530.88l1.39.04c-1.64 4.42-5.91 2.45-1.39-.04z"/><path class="cls-9" d="M106.57 292.16c.96-.86 1.34-1.83 4.86-1.13-1.28 1.86-3.21.9-4.86 1.13z"/><path class="cls-5" d="M66.19 431.07l-.03-1.31q2.53.15 2.68 2.7c-.14.14.04.07-1.36.01.02-.88-.44-1.32-1.29-1.4z"/><path class="cls-11" d="M42.52 259.88c.19-1.35-.52-2.86.74-4.01.98 2.33.86 2.99-.74 4.01zm400.93 10.03c.21-2.44 2.67-.88 2.57.98-1.14.35-1.54-1.27-2.57-.98zm-212.59.96c.35-1.05 1.22-1.13 2.14-1.12 1.11 4.89-1.99 1.2-2.14 1.12z"/><path class="cls-10" d="M109.82 290.82c.5-1.37 1.76-1.08 2.79-1.27.18.19.16-.04 0 1.28-1.48.27-.85.26-2.79 0z"/><path class="cls-11" d="M42.3 337.51c-1.5-.48-1.03-1.74-1.09-2.79 1.78.37 1.26 1.65 1.09 2.79z"/><path class="cls-5" d="M436.75 295.09c-.92-.1-1.97.25-1.51-2.56l.3-.3c1.78.37 1.23 1.73 1.21 2.86z"/><path class="cls-11" d="M238.92 261.41c-.46 1.51-1.71 1.3-2.86 1.33-.03-.49-.44-1.66 2.86-1.33zm-160.2 57.5c.14-1.03.44-1.95 1.49-2.41-.12 1.04.67 2.64-1.49 2.41zm444.33 165.36c-.33 1.02-.63 2.05-1.99 2.08-.13-1.45.65-2.04 1.99-2.08z"/><path class="cls-1" d="M500.23 505.95c-.07 1.33-1.05 1.33-2.01 1.37 0-1.42 1.01-1.4 2.01-1.37z"/><path class="cls-11" d="M194.65 311.65c.15-1.23 1.04-1.39 2.03-1.4.19 1.72-.89 1.59-2.03 1.4z"/><path class="cls-14" d="M195.75 281c-.98.03-1.61-.36-1.63-1.43 1.06-.11 1.4.6 1.63 1.43z"/><path class="cls-11" d="M473.25 278.12c1.23.17 1.34 1.04 1.29 2.03-1.26-.15-1.42-.99-1.29-2.03z"/><path class="cls-5" d="M168.6 271.31c1.4-1.45 1.82 1.65.04 1.43l-.04-1.43zM411.21 25.39c.99-.05 1.96-.08 2.07 1.28-.99.06-1.94.05-2.07-1.28z"/><path class="cls-9" d="M473.21 268.7c-1.19-.07-1.4-.9-1.44-1.87 1.29 0 1.51.82 1.44 1.87zm-77.37-8.78c1.99-.31 2.4 1.54.1 1.22-.03-.41-.07-.81-.1-1.22z"/><path class="cls-1" d="M400.4 257.25c-1.46-.15-1.08.24-1.58-1.92 1.53-.18 1.7.75 1.58 1.92zm76.21 266.88c.85-1.69.32-1.35 2.05-1.35-.08 1.37-1.05 1.38-2.05 1.35z"/><path class="cls-5" d="M406 296.44c-.12 1.18-.96 1.45-1.94 1.53 0-1.33.77-1.69 1.94-1.53z"/><path class="cls-11" d="M196.69 310.24c.02-1.12.76-1.14 1.58-1.05-.11.98-.62 1.35-1.58 1.05z"/><path class="cls-5" d="M434.23 290.94c2.58.05.61 3.73-.5.18.2.04.37-.02.5-.18z"/><path class="cls-1" d="M191.23 288.46c-.11.98-.82 1.2-1.64 1.28-.06-1.2.56-1.53 1.64-1.28zm2.55-1.44c-.04 1.07-.76 1.19-1.59 1.14.07-1.02.67-1.31 1.59-1.14z"/><path class="cls-9" d="M431.3 282.56c.1-.72.48-1.16 1.23-1.23.19 1.02-.32 1.32-1.23 1.23zm1.35-1.37c.19-.67.59-1.11 1.32-1.16.2 1.11-.46 1.26-1.32 1.16z"/><path class="cls-11" d="M221.71 280.71c-.02-.96.46-1.38 1.4-1.32.04.98-.45 1.4-1.4 1.32z"/><path class="cls-9" d="M434.01 279.91c.15-.72.55-1.17 1.31-1.23.22 1.11-.57 1.14-1.31 1.23zm4.24-4.45c-.06-.87.27-1.42 1.22-1.42.04.86-.35 1.34-1.22 1.42z"/><path class="cls-11" d="M230.59 274.08c1.98.18.2 1.96.02-.01h-.02zm-82.93-2.74c-.06-.86.19-1.47 1.19-1.48.24 1-.21 1.45-1.19 1.48zm87.87-3.15c.27-.82.86-1.13 1.69-1.05 0 1.26-.54 1.66-1.69 1.05zm2.68-1.42c.29-.68.69-1.2 1.54-1.06.21 1.4-.38 1.64-1.54 1.06z"/><path class="cls-9" d="M471.73 266.77c-.89 0-1.25-.49-1.27-1.32.82.06 1.43.32 1.27 1.32z"/><path class="cls-11" d="M446.84 265.88c.03-.77.39-1.28 1.16-1.47.39 1.1-.12 1.49-1.16 1.47zm-207.04-.2c.13-.87.59-1.32 1.5-1.2.02 1.05-.39 1.57-1.5 1.2z"/><path class="cls-1" d="M155.79 261.27l.02-.02c1.96.17.09 1.97-.02.02z"/><path class="cls-11" d="M519.75 487.73c-.02.88-.46 1.34-1.35 1.33.03-.87.47-1.33 1.35-1.33z"/><path class="cls-5" d="M118.02 499.87c-.88-.02-1.32-.48-1.34-1.35.88.01 1.33.46 1.34 1.35z"/><path class="cls-1" d="M396.04 251.45c-.81-.15-1.13-.74-1.3-1.47 1.15-.15 1.77.17 1.3 1.47zm102.18 255.87c-.02.85-.44 1.33-1.31 1.38-.07-.94.37-1.39 1.31-1.38zm-1.32 1.39c-.06.88-.58 1.24-1.41 1.27.03-.91.47-1.37 1.41-1.27zm-1.41 1.27c-.02.89-.45 1.36-1.37 1.32.04-.88.48-1.33 1.37-1.32z"/><path class="cls-11" d="M233.05 269.72c0-1.03.63-1.27 1.51-1.2.02 1.06-.39 1.57-1.51 1.2z"/><path class="cls-1" d="M492.82 66.46c.85.02 1.3.46 1.35 1.31-.9.03-1.34-.42-1.35-1.31z"/><path class="cls-5" d="M390.33 243.04v-1.3c1.4-.13 1.3 1.44 0 1.3zM501.57 73.19c.54.03 1.05.13 1.33.68-1.08 1.02-1.21.19-1.33-.68z"/><path class="cls-10" d="M72.05 158.59c-2.79.45-5.89 7.48-5.96 10.27-2.97-.48-10.51 21.76-11.44 24.63-.09 2.01-2.42 2.51-2.73 4.38-2.55 3.23-7.48 5.45-6.75 10.1-.94.08-1.98.03-1.78 1.48-.11 3.61-3.37 6.21-3.03 9.93-13.84 33.79-9.42 37.41-13.47 40.48-1.15-1.38.03-3.22-1.03-5.1-.14 4.04-2.75 7.34-1.11 11.28 3.64-10.26 1.62 5.62-.91 8.23-.71-10.14-.54-1.88-2.76-1.51-.53-2.48.39-4.52 1.21-6.76.56-15.25 7.65-26.74 15.62-51.14 2.42-1.64 3.14-4.09 3.32-6.82 1.33-2.03 2.69-4.06 2.77-6.62 2.11-.83 2.76-2.54 2.63-4.79 2.15-.57.85-2.61 1.33-4.07 2.44-.69.55-4.91 3.01-6.35 2.33-2.6 2.73-6.4 5.35-8.74 1-.85 1.1-1.88 1.17-3 1.68-1.66 6.14-8.64 5.97-10.92 3.65-2.87 4.59-7.61 7.11-11.26 6.32-7.08 9.45-17.64 9.55-7.71-.8.11-1.21.57-1.24 1.38-1.46.36-1.23 1.6-1.39 2.63-3.59 2.97-5.52 7.23-5.46 10.01z"/><path class="cls-9" d="M21.09 272.76c2.51-.43 3.97-19.56.41 34.98-2.68 56.38 7.54 68.08 2.27 68.73-.68-1.86 1.12-4.23-1.29-5.39-.25-2.19 1.03-4.56-1.37-6.06-1.12-3.74-5.84-46.07-1.24-81.45 2.62-2.33.32-7.49 1.22-10.81z"/><path class="cls-10" d="M23.78 376.47c1.88-.23.99-1.93 1.51-2.87 2.67 2.01 1.71 13.31 4.41 14.42.65 2.24-1.21 7.32 1.35 8.08-.12 1.54 1.04 4.42-1.3 4.69-.33-1.17.81-2.94-1.38-3.34-.55-1.63.92-5.15-1.33-5.4-1.73-4.96-3.69-10.28-3.25-15.58zm12.74 45.16c-3.21-6.58-3.44-15.31-5.49-16.1-.1-1.32-.43-3.4 1.46-3.48.08 1.1-.57 2.53 1.32 2.75 1.88 1.88.85 4.4 1.79 6.6 1.22 2.51 4.44 9 .92 10.23z"/><path class="cls-1" d="M20.93 398.82c-2.01-.91-1.73-3.11-2.43-4.69-.73-3.21-3.2-6.19-2.83-9.54 2.69 1.14 1.52 5.41 4.8 6.44 1.21 2.02.13 5.37.46 7.79z"/><path class="cls-5" d="M57.33 145.96c.13 2.33.36 4.69-2.03 6.22-3.85 6.97-8.01 5.76 2.03-6.22z"/><path class="cls-1" d="M63.46 163.57c.19 2.26-4.3 9.26-5.96 10.9-.08-2.18-.13-4.29 1.99-5.77 1.74-1.64.31-6.06 3.97-5.12z"/><path class="cls-5" d="M57.33 145.96c2.54-9.21 8.42-4.1 5.03-2.73-1.25.13-1.97.72-2.42 1.92-.46 1.26-1.68.73-2.62.81z"/><path class="cls-10" d="M20.99 274.09c-.61 2.91 1.35 7.55-1.12 9.48.19-2.78-1.54-7.95 1.12-9.48z"/><path class="cls-1" d="M41.24 208.04c-.17 2.73-.9 5.18-3.32 6.82-.15-2.25 1.62-4 1.58-6.27-.01-.63 1.09-.52 1.74-.55z"/><path class="cls-5" d="M62.15 137.93c.72-1.94 2.15-3.23 3.89-4.24-.02 3.51-.41 3.93-3.89 4.24z"/><path class="cls-10" d="M19.72 355.6c2.4.96.78 4.71 1.25 6.77-2.43-.91-.78-4.72-1.25-6.77z"/><path class="cls-11" d="M32.49 402.06c-1 .04-1.4.68-1.57 1.56-1.43-.21-1.27-1.68-1.23-2.78.47-.46 1.04.75 1.52-2.16 1.95.55 1 2.2 1.28 3.38z"/><path class="cls-10" d="M21.11 365.02c1.85 1.19 1.6 2.95 1.31 4.73-2.24-.27-1.08-3.19-1.31-4.73z"/><path class="cls-1" d="M46.54 197.86c.24 1.96-1.12 2.78-2.53 3.56-.33-2.02.64-3.11 2.53-3.56zm19.6-37.72c-.54 1.41-1.5 2.48-2.66 3.4q0-3.15 2.66-3.4z"/><path class="cls-10" d="M22.48 371.08c2.16.86.84 2.72 1.18 4.11-2.25-.83-1-2.68-1.18-4.11z"/><path class="cls-11" d="M28.36 397.44c2.19.4 1.05 2.17 1.38 3.34-.67.65-1.56-2.42-1.38-3.34z"/><path class="cls-1" d="M47.84 193.81c-.02 1.1.5 2.43-1.2 2.82.05-1.09-.53-2.45 1.2-2.82z"/><path class="cls-11" d="M31.03 405.54c.94.36 1.43 1.01 1.29 2.05-1.62-.08-1.23.45-1.29-2.05zm-4-13.5c.97.05 1.39.52 1.13 1.5-.76-.21-1.16-.69-1.13-1.5z"/><path class="cls-1" d="M29.04 400.79c.81-.02.65-.14.63 1.38-.8-.19-1.65-.36-.63-1.38zm20.15-209.68c.11.92-.33 1.38-1.23 1.45-.05-.87.37-1.35 1.23-1.45zm26.28-70.12c.11-.83.55-1.32 1.43-1.33 0 .96-.45 1.43-1.43 1.33z"/><path class="cls-11" d="M76.95 143.35c-.04.81-.47 1.26-1.27 1.37-.1-.94.37-1.36 1.27-1.37zm1.42-2.58c-.07.51-.21.97-.72 1.21 0-.54.03-1.08.72-1.21z"/><path class="cls-5" d="M31.21 398.68c-.58-1.8.94-4.57-1.37-5.39l-.15-5.28c4.85-.43.92 4.47 4.34 5.87 2.54 1.31-.42 5.17 2.82 6.14 2.72 2.57-.68 7.37 1.59 10.32 2.67 5.58 2.25 12.61 5.61 17.85 3.23 2.83 1.68 6.97 4.27 9.97 1.5 1.24.33 3.43 1.57 4.58 2.72 1.58 2 4.18 2.08 6.56-.64.6-1.59-1.41-2.69-1.36-.37-1.44.86-3.61-1.35-4.03-.13-1.05.44-2.46-1.33-2.71-.47-5.31-4.67-10-6.12-15.26-.82-1.66-.53-3.96-2.56-5 .77-4.37-2.21-7.82-2.76-11.79.17-1.66-.4-3.05-1.36-4.34-.13-1.05.41-2.43-1.31-2.72-.32-1.13.7-2.85-1.29-3.41z"/><path class="cls-11" d="M74.19 444.6c9.55 12.58 17.97 26.26 28.35 38.42-.29 6.2-8.97-9.08-14.12-12.17.06-1.89-.81-3.04-2.7-3.37.21-3.01-2.49-4.51-3.72-6.75-.79-1.45-1.74-3.37-3.7-4.01-2.47-3.69-5-7.34-6.68-11.5.95.18 1.77-.19 2.57-.62z"/><path class="cls-5" d="M29.7 388.02c-2.73-1.22-1.71-12.32-4.41-14.42-.77-2.61.97-6.26-1.45-8.05-.18-7.62-2.26-15.15-2.55-22.77 4.63-.47.77 5.89 3.17 7.71 3.49 1.72.31 5.18 1.96 8.06 1.16 2.06-.4 5.58 1.63 6.88 3.81 2.12.71 17.6 1.64 22.59zm17.05-.14c1.42 8.85 6.2 16.82 7.95 25.71-.82-.02-1.91-.25-2.07-.85-.77-3.74-6.53-2.06-6.02-6.3 1.11-8.43-11.31-59.48.14-18.55zm41.67 82.96c5.43 3.25 7.58 9.84 12.78 13.51-.12 4.43 7.21 5.53 6.74 10.11-.71 0-1.38-.2-1.78-.79-1.08-2.24-4.46-2.09-5.44-4.14-.94-3.58-6.87-6.42-7.04-7.53-1.55-5.08-6.79-4.36-5.27-11.16zm-33.67-56.7c.41.16.92.21 1.08.69 1.84 7.05 7.55 12.62 9.04 19.61-2.18-1.68-6.91-1.09-6.84-4.59-.15-8.77-4.63-3.73-3.28-15.72zm20.08 71.62c-2.68-1.8-4.14-4.66-5.61-7.3-1.5-3.61-6.26-5.33-5.84-9.55.7-.06 1.73.12 1.82.59 3.41 5.14 10.21 8.97 9.63 16.26z"/><path class="cls-9" d="M38.5 287.19c1.94 11.88.13 24.61.68 36.83 0 1.16.8 2.85-1.3 3.27-.01-.64-.04-32.93.61-40.11z"/><path class="cls-5" d="M78.3 456.71c1.96.65 2.9 2.56 3.7 4.01 1.23 2.24 3.93 3.74 3.72 6.75-1.37.09-2.25-.03-2.97-1.72-.99-3.04-7.3-5.31-4.45-9.05zM22.4 297.66c-.13-3.66-.2-7.32 1.19-10.81 1.56.47.48 11.3-1.19 10.81z"/><path class="cls-9" d="M26.68 262.55c-1.49.62-1.43 2.11-1.91 3.48-1.64-3.94.97-7.24 1.11-11.28 1.06 1.89-.12 3.73 1.03 5.1.07.91.09 1.82-.23 2.7z"/><path class="cls-5" d="M60.64 464.99c-3-1.11-2.87-4.71-4.72-6.85 3.63.03 4.29 4.09 4.72 6.85z"/><path class="cls-1" d="M40.56 247.14c-.61 2.7 1.34 7.25-1.33 8.82 0-10.32-.45-8.84 1.33-8.82z"/><path class="cls-5" d="M54.63 455.47l-1.28-.15c.02-2.11-2.05-3.72-1.42-5.97.19-.18 3.18 1.12 2.7 6.11zm31.09 12.01c1.89.33 2.76 1.48 2.7 3.37-2.31-.4-2.4-.5-2.7-3.37zm-22.34 1.44c-1.67-.12-1.65-1.59-2.12-2.66q2.15.12 2.12 2.66z"/><path class="cls-11" d="M66.22 436.46c1.26.11 1.32 1.02 1.32 1.97-1.46.03-1.4-.97-1.32-1.97z"/><path class="cls-5" d="M21.3 309.14c-.17-.5-.19-.99.21-1.4 1.05.63.78 1.07-.21 1.4z"/><path class="cls-11" d="M67.58 438.48c.88.08 1.27.57 1.22 1.45-.85-.11-1.34-.52-1.22-1.45zm1.36 2.69c.84.07 1.27.52 1.27 1.36-.92 0-1.38-.41-1.27-1.36zm-17.01 8.19c-.64 2.25 1.44 3.86 1.42 5.97-1.93-.73-2.8-2.53-4.05-3.96 0-6.36.81-1.91 2.63-2zm504.22-310.12c-1.79-.2-1.22-1.61-1.36-2.65 1.84.18 1.27 1.59 1.36 2.65zm-16.86-26.26c-1.38-.08-1.35-1.06-1.3-2.05 1.34.11 1.34 1.07 1.3 2.05zm2.67 3.4c-.85-.07-1.3-.51-1.29-1.39.88.04 1.34.48 1.29 1.39zm1.38 1.99c-.91-.01-1.34-.47-1.29-1.38.86.06 1.29.52 1.29 1.38zm14.1 22.3c-.84-.09-1.3-.52-1.26-1.4.9.03 1.32.5 1.26 1.4zM37.93 420.95c2.03 1.04 1.75 3.33 2.56 5 1.46 5.26 5.65 9.95 6.12 15.26-1.67.2-1.25 1.52-1.42 2.58-.58 3.53-4.59-1.39-5.23-2.9-.4-.98-.66-2.24-2.1-2.34-.5-4.22-5.47-7.01-5.43-11.45 1.06 0 1.88.82 2.06 1.49.77 2.89 3.44 3.44 5.41 4.88 1.49-2.88-3.77-7.9-3.38-11.82.6.03 1.08-.17 1.41-.69zm10.02 22.96c1.78.25 1.21 1.65 1.31 2.71-3.07.09-2.31-.56-1.31-2.71zm-1.33-2.71c1.77.25 1.2 1.66 1.33 2.71-1.85-.21-1.23-1.64-1.33-2.71z"/><path class="cls-10" d="M568.83 163.02c-.8-.21-1.28-.65-1.12-1.55.95.1 1.29.64 1.12 1.55z"/><path class="cls-1" d="M474.63 525.51c-.05.86-.5 1.31-1.37 1.33 0-1.7-.28-1.35 1.37-1.33z"/><path class="cls-1" d="M471.89 528.17c.03-.88.48-1.33 1.37-1.33-.03.88-.48 1.33-1.37 1.33zm-2.67 1.36c.01-.9.47-1.34 1.38-1.31-.07.85-.5 1.31-1.38 1.31zm-1.37 1.33c.04-.87.47-1.33 1.36-1.32-.02.88-.48 1.32-1.36 1.32z"/><path class="cls-15" d="M380.15 187.33c2.51 24.78 4.25 15.94 3.22 28.74-2.91 2.46-.91 7.74-2.95 11.07-1.16 2.48.69 2.62 0 5.06-3.46 1.39.48 6.07-3.4 7.46-.62.25-.85 1.27-.76 2.1-1.47 1.5-2.52 3.23-3.03 5.28-1.54.55-2.04 1.93-2.53 3.27-.71 2.52-4.7 4.23-3.86.26 1.3-.23 1.32-1.16 1.18-2.17-.38-4.65 4.2-7.48 4.27-11.95.39-.18.98-.29 1-.76.1-2.34 1.45-4.37 1.6-6.69 1.73.05 2.84-.36 2.69-2.45.34-7.09 2.87-14.03 1.96-21.29-.03-3.14-2.38-6-1.18-9.18 1.69-7.75-3.43-10.46 1.1-10.15-.13.63 0 1.14.67 1.39zM429.8 283c-5.66 10.3-14.05 2.48-9.9 1.73 3.37.08 7.01-4.28 9.9-1.73zm-25.32 20.71c-3.37.44-1.75 4.07-3.74 5.6-1.06.54-2.17.87-3.07-.13-2.13-.95 6.84-10.33 7.83-8.98.9 1.28-1.78 1.99-1.02 3.5zm29.7-6.12c-.32-3.35-3.74-5.54-4.15-5.28-.17-1.79-1.06-1.14-1.44-1.32.14-.95-.68-1.6-1.02-2.55 3.49-1.64 3.57 2.47 6.17 2.68.58.95-.14 2.59 1.4 2.67.43 1.23.07 2.46 1.15 3.45.99 1.14.1 1.68-.97 1.99.35-1.09-.08-1.56-1.14-1.64z"/><path class="cls-9" d="M379.7 241.05c.65 1.31 2.23 1.79 2.65 3.24-1.65.62-2.59-1.5-4.04-.82-1.23.89-2.95 1.3-3.42 3.05-.19.73-.6 1.18-1.35 1.31-1.32-3.28 4.99-8.66 6.15-6.78z"/><path class="cls-15" d="M423.55 309.84c-4.42.48-8.82.68-13.21.04 4.39-1.68 8.81-1.38 13.21-.04z"/><path class="cls-9" d="M398.6 266.82c-1.4-1.15-1.18-2.81-1.38-4.34 2.3.86 1.91 2.58 1.38 4.34z"/><path class="cls-3" d="M403.15 280.81c-1.09-.27-1.56 1.77-2.45.71-1.1-1.53 2.41-3.15 2.45-.71z"/><path class="cls-9" d="M400.16 273.61c-.8.35-.11-.46-1.07-.88l.08-1.38c1.41.28 1.18 1.29 1 2.27zm15.73 17.18c.03-.8.42-1.26 1.24-1.31.12.94-.24 1.43-1.24 1.31z"/><path class="cls-11" d="M410.24 285.28c-1.02.36-1.61.04-1.69-1.08.85-.09 1.44.23 1.69 1.08z"/><path class="cls-9" d="M396.58 253.06c.89.11 1.16.69 1.13 1.49-.89-.11-1.17-.68-1.13-1.49z"/><path class="cls-11" d="M393.08 254.47c-1.07.02-1.41-.55-1.27-1.54.85.16 1.32.62 1.27 1.54zm-5.7-11.27c1.02-.15 1.56.27 1.56 1.33-.84-.07-1.43-.43-1.56-1.33z"/><path class="cls-3" d="M386.28 240.33c3 .25.32 1.88-.31 1.38l.31-1.38z"/><path class="cls-9" d="M168.09 306.68c-1.09 1.84-2.8 2.45-4.82 2.46 1.07-1.87 3.03-2 4.82-2.46zm-51.46-17.39c.51-1.56 1.8-.95 2.84-1-.54 1.5-1.73 1.12-2.84 1z"/><path class="cls-11" d="M85.58 309.07c.77 1.16.71 1.24-1.05 1.43-.1-.81.24-1.29 1.05-1.43z"/><path class="cls-3" d="M176.68 271.46c-.02 2.16-3.07.95-1.13-.3l1.13.3z"/><path class="cls-9" d="M103.83 293.4c.14-.9.72-1.15 1.55-1.03-.24.76-.68 1.21-1.55 1.03zm8.78-2.58c.18-1.43-.22-1.13 1.54-1.13-.21.78-.67 1.24-1.54 1.13z"/><path class="cls-3" d="M557.5 146.68c-2.17-.44-1.05-2.19-1.35-3.37 1.76.05 1.31-.62 1.35 3.37z"/><path class="cls-13" d="M373.24 247.05c3.47 8.61-61.64 84.9-116.3 21.53-.12-1.35-.33-.26-2.9-3.01.16-1.04-.32-1.59-1.4-1.47.14-.96-.21-1.45-1.24-1.27.06-1.91-1.27-1.27-2.58-1.53.09-1.55-.25-2.8-2.07-3.04 1.02-1.72.77-3.19-.36-4.91-.95-1.14-7.87-12.93-7.71-14.32.03-1.12.35-2.38-1.24-2.78-.05-1.98-1.8-4.72-1.55-7.2.07-1.13.54-2.44-1.21-2.79-1.68-6.83-4.35-13.49-4.49-20.59 1.1-2.27-1.53-.18-.83-5.06 3.22-2.93-.47-9.42 1.41-13.47 2.08-.41.62-2.12 1.16-3.4 2.94-.85.13-4.02 1.55-6.03 4.19 4.67-2.76 11.24-1.55 16.89.46 2.45-.59 5.38.43 7.62 1.7 1.66.42 4.22 1.25 6.04 1.33 1.81 1.03 3.83 1.04 5.81-.59 3.16 3.38 4.35 2.71 7.53-.64 3.38 3 4.62 5.38 5.8 1.61.62.98-1.95 1.97-2.53 1.37.73 1.07 3.45 2.71 1.33 3.58 9.19 5.65 19.61 12.92 26.84-10.25-.43-.61 5.22 4 4.22-.31-1.57.95-3.48-1.46-4.27.42-1.41 1.22-2.39 2.82-2.45.07 4.27 1.39 1.22 1.3 4-1.7-.04-1.73 2.7-.03 2.76.08 3.15-2.73-.57-3.38 2.66-1.94-1.27-10.3-5.1-9.03-.49 1.33 1.63 1.5 4.37 4.27 4.72.24.03.59.43.62.68.44 3.7 4.88 4.55 6.01 7.71.54 1.67 1.7 1.49 2.91 1.49 5.08 3.54 8.63 9.11 15.61 10.07 10.62 1.16 29.21 5.6 38.19-.32 12.69-4.34 33.87-14.05 38.7-27.82.91-.09 1.82-.16 1.86-1.4 1.83-.24 2.18-2.58 4.03-2.76 2.04 4.71 4.35-4.49 6.49-4.77z"/><path class="cls-11" d="M352.4 275.23c.39-1.47 1.43-2.26 2.81-2.68q-.06 2.78-2.81 2.68z"/><path class="cls-5" d="M326.25 291.55c1.05-.99 1.29-.16 1.54.68-.63.05-1.2-.07-1.54-.68z"/><path class="cls-7" d="M258.2 270.06c.93.02 1.36.5 1.32 1.42-.92-.03-1.33-.53-1.32-1.42zm-1.22-1.43c.87.08 1.27.56 1.22 1.43-.86-.09-1.23-.6-1.22-1.43zm-1.32-1.33c.79.06 1.2.49 1.27 1.27-.79-.06-1.34-.36-1.27-1.27zm-2.95-3.22c1.07-.06 1.46.47 1.32 1.48-.76-.2-1.29-.63-1.32-1.48z"/><path class="cls-8" d="M251.4 262.82c1.03-.18 1.38.31 1.24 1.27-.81-.04-1.2-.49-1.24-1.27z"/><path class="cls-14" d="M249.83 261.41c1.01-.15 1.62.18 1.57 1.31-.93.04-1.45-.39-1.57-1.31z"/><path class="cls-11" d="M40.67 245.84c-.18-.94.27-1.38 1.16-1.46.07.85-.33 1.33-1.16 1.46zm1.3-6.76c-.09-.6 0-1.12.62-1.41.99 1 .19 1.21-.62 1.41zm25.51 193.39c1.64.05 1.31-.36 1.23 2.09-1.27-.19-1.25-1.14-1.23-2.09zm-1.29-1.4c.84.08 1.3.53 1.29 1.4-.91-.03-1.34-.49-1.29-1.4zm4.05 7.41c.85.1 1.3.55 1.24 1.44-.88-.07-1.31-.54-1.24-1.44z"/><path class="cls-7" d="M244.7 224.86c-.97.6-.36 3.15-1.97 2.53-2.39-1.18-6.02-2.41-5.38-5.8.68-3.18-3.3-4.37-2.71-7.53 0-1.98.29-4-1.04-5.81-.83-1.82.46-4.39-1.25-6.04-2.55-15.23 5.84-21.33 1.11-24.51 4.4-18.97 40.85-57.51 76.68-48.05-.17 4.82 6.52 1.95 8.78 5.47-7.78-.55-16.8 1.21-24-.56-1.04-3.32-3.29-1.87-5.39-1.77.42 1.75 2.46 1.8 2.8 3.4-2.5 1.23-4.13-1.79-6.43-1-2.11.73-4.19 1.63-6.33 1.66-.25 1.3 1.48.84 1.16 1.99-.73.63-1.85.46-2.61 1.3-.62.69-1.31.58-1.43-.72-.02-4.26-8.59 5.58-10.98 5.81-3.4.73-3.93 4.99-7.47 5.47-.16-2.18-2.2-.14-.02.02.05 1.75-2.1.87-2.55 2.19-.65 4.08-4.98 3.34-6.79 5.59 0 5.08-6.92 6.64-6.12 11.74.56 3.23-2.1 4.71-3.68 6.56-3.74 3.19.22 4.65-1.25 8.05-2.55 5.23-1.24 10.65-2.96 16.16-1.16 3.14 1.59 6.3 1.56 9.65 3.1 1.46 1.45 5.33 3.58 5.82 3.17-1.72.01-7.39 1.97-10.29 1.91-3.35-.74-4.23 2.19-4.26-.42 7.28-1.87 15.33.54 22.92z"/><path class="cls-8" d="M230.22 192.15c.12 2.44 1.48 7.14-.86 8.46-.18-2.61-1.16-6.54.86-8.46zm4.46 34.11c1.74.35 1.28 1.65 1.21 2.79-1.54-.44-1.27-1.65-1.21-2.79z"/><path class="cls-7" d="M233.07 180.67c.11 1.21.93 2.67-1.13 3.07-.06-1.18-.33-2.45 1.13-3.07zm-1.32 4.1c.21 1.01.55 2.08-.98 2.37-.27-1.04-.15-1.91.98-2.37z"/><path class="cls-11" d="M244.27 158.15c-.1.98-.39 1.82-1.53 2.01-.04-1.08.52-1.73 1.53-2.01z"/><path class="cls-8" d="M229.53 203.9c1.06.28 1.06.95.66 1.77-.82-.37-1.04-.96-.66-1.77z"/><path class="cls-11" d="M242.74 160.16c-.04.83-.56 1.25-1.29 1.48-.1-.95.3-1.48 1.29-1.48z"/><path class="cls-10" d="M242.76 259.94c.1-.94.52-1.47 1.56-1.16-.09.97-.71 1.22-1.56 1.16z"/><path class="cls-7" d="M335.73 136.63c1.06-.29 23.66 12.53 32.62 29.45-2.99.37-.46 3.71-1.6 5.51-3.87-2.17-4.84-8.68-8.59-11.28-8.38-5.23-1.33-5.19-19.77-16.73-.48-.27-1.22-.63-.87-1.2 2.21-3.94-4.29.15-4.48-3.19-.01-1.87 2.69-.69 2.69-2.57z"/><path class="cls-13" d="M376.14 177.12c.46 1-.13 2.53 1.35 2.69.57 3.89 1.91 4.49 1.47 5.92-3.63.64 1.14 2.52-.57 10.35-1.19 3.17 1.15 6.03 1.18 9.18.91 7.26-1.62 14.2-1.96 21.29.14 2.04-.91 2.54-2.64 2.43-.09-.89-.09-1.78.05-2.67 2.92-1.46-.02-6.28 1.71-8.74 2.53-8.15-.43-17.9-.49-20.35-4.52-16.26-7.34-17.07-4.27-20.96.83-1.18-.93-2.63-1.85-1.27-2.36 2.21-1.39-1.92-3.31-2.06-.7-17.46 7.26 3.85 9.34 4.19zm-7.79-6l.57.25c.63-.71-.48-1.2-.57-.25z"/><path class="cls-11" d="M378.95 185.73c.39-1.26-.69-2.18-.78-3.33 2.28.49 1.16 2.24 1.31 3.53a.936.936 0 0 1-.53-.2zm-1.47-5.91c-.86-.14-1.18-.65-1.04-1.49.89.12 1.14.68 1.04 1.49zm-1.34-2.7c-.86-.14-1.19-.65-1.06-1.49.89.12 1.15.68 1.06 1.49z"/><path class="cls-3" d="M172.36 272c-.07.89-1.1.46-1.25-.1-.1-.73 1.23-.56 1.25.1z"/><path class="cls-14" d="M190.76 280.79c.9-.04 1.53.25 1.57 1.27-.82-.06-1.46-.34-1.57-1.27z"/><path class="cls-1" d="M42.6 230.29c-.04-.91.4-1.36 1.3-1.36-.01.86-.46 1.3-1.3 1.36z"/><path class="cls-3" d="M206.24 286.74c1.45.43 2.54 1.79 4.3 1.5 1.78-.14 2.36 3.18.76 3.76-2.16.49-2.11 3.77-4.62 2.95-.93-.13-.85-.77-.72-1.5.03-2.06-4.66-3.88-.87-5.27 1.39-.62.97-1.38 1.15-1.44z"/><path class="cls-14" d="M200.92 289.58c-2.78-.35-.88-3.54 1.31-2.8-.19 1.05-1.43 1.6-1.31 2.8zm2.54-3.02c.6-1.59 1.88-1.11 3.04-1-.35 1.64.31 1.18-3.04 1z"/><path class="cls-3" d="M208.61 298.5c-.16-.87 1.26-1.11 1.5-.32.23.85-1.21 1.08-1.5.32z"/><path class="cls-9" d="M274.4 133.89c-.12.86-.48 1.39-1.46 1.08.18-.77.65-1.15 1.46-1.08z"/><path class="cls-14" d="M380.79 230.9c-.9-1.18-.85-2.73-.36-3.76 2.04-3.33.04-8.61 2.95-11.07.68 2.77-.62 13.12-2.58 14.84zm2.51-25.57c-2.51-2.52-.94-7.9-2.95-11.23-.24-.6-.03-1.33.29-1.94 2.26 1.21.58 4.29 2.64 5.48-.02 2.56.68 5.2.02 7.69z"/><path class="cls-11" d="M383.3 205.33c1.61-6.82 2.88 12.2.43 11.46-.81-1.63.34-2.91-.43-11.46zM78.9 145.94c.03-.81.44-1.27 1.24-1.38.15.97-.32 1.38-1.24 1.38z"/><path class="cls-9" d="M237.44 236.25c1.59.41 1.27 1.66 1.24 2.78-1.47-.46-1.38-1.61-1.24-2.78z"/><path class="cls-12" d="M366.74 171.6c.09 1.09-.26 2.74 1.32 2.7.57 3.18 2.33-.79 3.73.42.44.42.49 1.13.17 1.54-3.59 4.5 1.4 7.9 1.53 12.22-2.79-.68-3.07-3.39-3.91-5.38-3.3-6.26-6.37.19-8.39-12.18-.27-1.99-2.66-.08-3.6-2.34-3.91-4.71-4.62-.97-5.37-7.93-3.33 2.09-4.83-1.92-5.72-4.53-.06-1.85-2.88-1.55-2.64.26.26 5.15-4.68-.97-7.72 1.99-2-1.95-5.04.11-5.75-1.71.22-2.62-11.63-2.68-11.54-.74l-2.5.03c-.04-1.35-7.89-2.52-9.27-1.85-2.38.28-5.21-1.73-7.5-.21-3.44 2.31-8.55-.57-11.5 1.76-.85 2.95-3.79 1.2-5.75 2.18-1.97 2.45-6.56 1.6-7.14 5.12-1.63.48-3.41.74-4.11 2.66-3.04.89-7.18 2.92-8.07 6.06-.93-.04-1.38.42-1.35 1.34-1.97 2.29-4.57 4.01-6.06 6.72-1.36-.05-1.28.98-1.42 2-1.45.07-1.41 1.52-1.27 1.4-1.9.12-1.28 1.59-1.41 2.65-1.61-.02-1.18 1.59-1.43 2.69-1.28.02-1.18 1.07-1.29 2.03-9.4 8.65 1.44 20.55-12.77 1.35-.39-3.69 3.41-6.9 1.79-10.5-2.34-4.43 6.15-6.11 4.98-11.1-.8-5.1 6.12-6.66 6.12-11.74.11-1.82 5.47-.59 6.79-5.59.44-1.32 2.6-.45 2.55-2.19l.02-.02c3.53-.47 4.07-4.75 7.47-5.47 2.4-.24 10.95-10.06 10.98-5.81.12 1.3.81 1.41 1.43.72.76-.84 1.87-.67 2.61-1.3.32-1.15-1.4-.69-1.16-1.99 2.14-.03 4.22-.92 6.33-1.66 2.3-.8 3.93 2.23 6.43 1-.34-1.6-2.38-1.65-2.8-3.4 2.1-.1 4.35-1.55 5.39 1.77 7.21 1.77 16.22 0 24 .56 4.35 2.85 9.69 2.03 14.11 4.08.18 3.33 6.69-.75 4.48 3.19-.35.57.39.93.87 1.2 4.69 2.94 10.01 5.54 13.23 10.2 2.4 4.6 7.82 6.21 10.06 11.09 1.84 1.98 2.47 5.81 5.07 6.73z"/><path class="cls-1" d="M66.08 168.86c.06-2.77 3.16-9.82 5.96-10.27.15 1.45-.82 2.77-.54 4.24-3.66-.34-2.48 3.73-2.7 6.06l-2.72-.03z"/><path class="cls-11" d="M399.08 272.73c.41.18.62.49.62.94-.75.8-1.59-.51-.62-.94z"/><path class="cls-14" d="M435.13 293.78c-.99-.05-1.11-.71-1.03-1.5 1.44.31 1.17-.07 1.03 1.5z"/><path class="cls-11" d="M45.18 207.97c.1 1.32-.86 1.37-1.78 1.48-.2-1.45.84-1.4 1.78-1.48z"/><path class="cls-10" d="M23.84 365.55c1.94.98.94 2.78 1.19 4.23-2.15-.19-1.1-2.81-1.19-4.23z"/><path class="cls-11" d="M29.85 393.29c1.67.39 1.15 1.72 1.2 2.8-1.78-.34-1.21-1.69-1.2-2.8zm2.65 8.8c1.72.29 1.17 1.66 1.31 2.72-1.86-.22-1.26-1.62-1.31-2.72z"/><path class="cls-14" d="M430.18 292.21c1.92 1.18 3.67 2.48 3.9 4.98-1.86-1.22-3.13-2.91-3.9-4.98zm4 5.38c1.02.08 1.52.53 1.13 1.61-1.12 0-1.27-.71-1.13-1.61z"/><path class="cls-9" d="M428.71 291.04c1.06-.23 1.24.46 1.32 1.26-.91.07-1.38-.31-1.32-1.26z"/><path class="cls-7" d="M374.87 227.61c.09 1.47.18 1.35.04 1.4-2.79.67-2.98 5.02-2.6 7.45-.08 4.47-4.65 7.3-4.27 11.95-1.93.29-.96 2.13-1.28 3.41-1.85.15-2.18 2.51-3.98 2.73-.11-1.26-.04-2.4 1.3-3.12 1.37-.97 3-4.35 1.07-5.37-2.27-.12-1.86 3.93-4.53 3.65 1.89-5.91 6.64-10.43 7.52-16.73 2.56-.75.74-4.69 1.42-6.72 2.86-1.76.56-10.7 1.29-14.23 4.08 1.34-2.27 16.55 4.04 15.58z"/><path class="cls-13" d="M372.31 236.46c-.38-2.43-.19-6.79 2.6-7.45-.15 2.32-1.5 4.35-1.6 6.69-.02.47-.61.58-1 .76zm-5.46 14.12c-.12-1.01-.18-1.97 1.18-2.17.13 1.01.11 1.94-1.18 2.17z"/><path class="cls-12" d="M266.99 258.57c-.06-1.35-.01-2.71 0-4.06 1.18 0 23.21-18.59 36.97-23.74 9.22-2.92 18.02-7.3 24.84-14.12 2.78 0 5.85.46 5.74-3.85 2.26-1.78 4.08-4.85 7.55-4.81.57.02 1.38-.05 1.46-.57.47-2.97 2.74-1.94 4.46-2.09 4.86.45-.92 9.05 3.56 10.2 1.94.32.33 4.48 1.6 7.12 3.4 7.73-5.51 6.6-1.03 15.94 1.27 4.86 8.55-6.03 7.16 3.11-.85.05-1.29.5-1.32 1.35-.91.07-1.35.53-1.23 1.46-2.21-.02-1.05 1.98-1.45 3.27-1.34.01-1.23 1.02-1.31 2.03-1.51.04-.25.28-3.28 3.42-2.9-.22-2.8 2.22-3.49 3.95-20.21 17.98-54.75 22.58-76.16 4.1.04-1.58-1.55-1.17-2.63-1.43-.09-.84-.54-1.28-1.4-1.28z"/><path class="cls-15" d="M350.68 253.22c3.01-3.1 3.38-1.97 3.34-3.94 1.4-.19 1.25-1.55 1.38-2.65 1.14-.28 1.42-1.09 1.33-2.13 1.1-.02 2.71.1 2.6-1.44 2.3-1.79 3.38-5.19 3.29-8.09 2.09-2.11 4.31-4.68 1.3-7.38l.04-2.72c.89 0 1.4-.42 1.48-1.32 1.02.09 1.5-1.3.28-1.39l-.06-3.25c1.73-2.4 1.42-5.92-.74-8.28-.49-1.99 1.95-3.95-.75-5.31l-.13-1.36c1.15-.98-.22-1.46-.61-1.36.79-13.09-18.97-38.12-39.1-41.14-.66-2.64-39.2-10.76-62.88 18.77-2.34 1.56-4.48 3.84-4.61 6.79-3.68 1.97-6.76 8.85-6.75 12.85-2.42.85-.87 4.66-1.35 6.68-3.71 4.97-1.08 13.49-1.31 19.64-1.64 2.12-1.34-.6-2.71-1.33-2.63-8.28-.64-16.54-.49-25.38 3.26-2.34 4.55-5.66 4.63-9.58 1.5-.05 1.16-1.57 1.38-2.63.83-.15 1.31-.6 1.26-1.5 1.78-.2 1.53-2.76 1.39-2.64 1.16-.02 1.31-.98 1.38-1.93.84-.13 1.31-.6 1.32-1.48 2.19-3.95 7.35-6.82 7.41-8.05 5.41-.19 7.04-7.98 12.19-8.73 11.67-4.9 25.07-8.05 43.67-7.02 4.66 1.6 9.33 3.79 14.23 4.17 23.13 7.88 30.91 31.08 32.2 31.14-1.65 5.97 2.39 8.39 2.86 13.54-.07.97.18 1.8 1.36 1.91.12 7.37.15 14.78-.12 22.15-2.23.84-.91 2.74-1.25 4.14-.99 7.06-12.8 24.31-16.63 26.91-6.85 7.28-16.16 10.01-24.61 14.04-4.59 1.71-9.75.75-14.07 2.8-7.61.73-14.62-1.5-22.18-1.35-2.2-3.44-11.97-.92-27.07-15.44.45-2.19 2.18-1.16 3.42-1.36-.03 1.54 1.54 1.23 2.62 1.46.12.81.59 1.24 1.42 1.25 22.27 19.33 61.5 13.7 79.65-8.05z"/><path class="cls-8" d="M333.72 271.37c8.79-3.8 17.08-9.7 22.8-16.93 3.04-.15 3.58-.8 4.09-4.73 2.67.27 2.26-3.77 4.53-3.65 1.94 1.01.3 4.4-1.07 5.37-1.92 1.03-1.13 3.02-1.35 3.15-.99-.02-2.04-.12-1.86 1.4-4.69 12.77-18.85 18.16-29.58 24.94-2.7 1.54-6.82.57-9.12 2.88-5.71 5.69-22.09 1.2-29.02 1.82-10.05.12-18.07-5.07-24.78-11.57-1.01-3.41-3.69-5.2-6.27-7.33-1.84-2.5 2.97-4.01 3.49-1.28.31 2.33 2.51 1.42 3.9 2.39 5.4 5.61 13.8 7.57 21.14 7.53.14.1-.02 1.29.84 1.27 3.12-.92 9.07 3.49 10.59.15 5.24-.83 11.73 1.75 16.22-1.21 3.02.19 5.69-1.39 8.63-1.64 2.75.41 4.98-.55 6.83-2.55z"/><path class="cls-15" d="M328.8 216.65c-10.08 11.39-26.43 12.29-38.1 21.35-10.33 5.83-27.28 21.82-25.01 12.52 2.94-.97 22.71-13.93 24.94-17.53 1.66-.48 3.34-.8 4.17-2.63 1.02-.14 2.28.22 2.63-1.29 1.5-.6 29.91-9.45 32.3-21.02.87 0 1.31-.48 1.49-1.28 2.43.07 2.55-2.69 3.87-3.92 5.16-2.36 12.08-8.91 16.55-1.89 4.62 4.11 5.34 10.61 8.89 15.31-.37 2.68 2.11 3.7 2.63 5.92-1-.08-1.09 1.05-1.79 1.36-.11-.7-.41-1.24-1.16-1.45-1.35-.48-.33-2.68-2.11-2.7-8.98-24.85-14.82-22.1-29.29-2.75z"/><path class="cls-7" d="M271.1 247.16c-1.81 3.48-7.14 2.13-8.23 5.81-10.06.22-20.99-41.19-14.15-46.42.95 7.58-2.13 17.79 3.87 23.86 3.06 1.31.16 4.96 3.03 6.46 1.07.6 1.48 1.75 1.23 2.92.31 9.74 2.05 6.91 9.84 7.33 2.88-.46 3.58-4.78 7.04-2.7.32 2.52-2.88.44-2.64 2.74zm19.52 28.19c-7.34.04-15.74-1.92-21.14-7.53-1.39-.97-3.59-.07-3.9-2.39-.52-2.72-5.34-1.22-3.49 1.28 10.85 8.97 4.14 8.29 3.35 5.84-1.14-3.17-5.56-4.01-6.01-7.71-.03-.26-.38-.65-.62-.68-2.77-.35-2.94-3.09-4.27-4.72-1.33-4.64 7.17-.74 9.03.49 13.21 13.26 23.45 11.78 27.05 15.43z"/><path class="cls-15" d="M260.33 253.02c3.86-.58 4.31 1 4 4.22-4.62 1.01-14.24-4.65-4-4.22z"/><path class="cls-7" d="M266.99 254.51c0 .92-.02 1.84-.03 2.76-1.7-.06-1.67-2.8.03-2.76zm93.87 1.47c-.17-1.52.88-1.42 1.86-1.4-.04 1.24-.96 1.32-1.86 1.4z"/><path class="cls-7" d="M268.35 253.2c-.04.87-.48 1.32-1.37 1.32.05-1.62-.22-1.28 1.37-1.32z"/><path class="cls-8" d="M236.62 192.01c1.52 4.98 8.55 8.5 5.36 14.19-1.61 1.69 1.02 13.65-3.11 9.27.15-2.13-.84-3.6-2.44-4.8.03-3.34-2.72-6.51-1.56-9.65 1.43-3.87.89-11.39 1.75-9.02z"/><path class="cls-12" d="M258.22 150.73c-2.18-.16-.14-2.2.02-.02l-.02.02z"/><path class="cls-8" d="M333.07 160.09v-2.62c1.07-.14 2.35.21 3.07.9 4.78-3.03 7.84 3.53 7.72-1.99-.24-1.81 2.59-2.11 2.64-.26.89 2.61 2.38 6.62 5.72 4.53.77 6.99 1.44 3.19 5.37 7.93.94 2.26 3.32.35 3.6 2.34 2.04 12.4 5.07 5.9 8.39 12.18.84 1.99 1.12 4.7 3.91 5.38.14 3.15 2.4 5.64 2.74 8.74-.58 2.66 1.54 4.42 1.33 7.07.78 7.09-1.43 13.6-1.35 20.59-1.65-.04-1.1 1.62-1.33 2.73-6.3.98.04-14.24-4.04-15.58-.23-1.39.59-3.72-1.29-4.12-.94-21.57-18.96-41.36-36.47-47.82z"/><path class="cls-7" d="M375.01 226.32c-.18-.96.28-1.39 1.19-1.44 0 .81-.4 1.29-1.19 1.44zm-6.95-52.02c-.88-.03-1.31-.48-1.26-1.37.85.06 1.28.5 1.26 1.37zm.28-3.17c.09-.95 1.2-.46.57.25-.19-.08-.38-.17-.57-.25z"/><path class="cls-13" d="M316.35 155.95c-13.83-1.27-27.95 1.59-41.17 6.99.57-3.51 5.17-2.67 7.14-5.12 1.95-.98 4.9.76 5.75-2.18 2.95-2.34 8.06.55 11.5-1.76 2.29-1.52 5.12.49 7.5.21 2.98-1 5.61.95 8.47.87.47-.01.61.59.8.98z"/><path class="cls-7" d="M333.07 157.46c0 3.57 2.11 4.07-14.23-1.54-.11-1.95 11.79-1.88 11.54.74.45 1.16 1.73.71 2.68.81z"/><path class="cls-13" d="M271.08 165.6c-2.29 2.3-4.71 5.92-8.07 6.06.9-3.14 5.03-5.18 8.07-6.06z"/><path class="cls-7" d="M248.77 190.49c-.05 3.74-1.54 6.75-4.56 8.98.83-3.09 2.25-7.1 4.56-8.98zm4.13-7.37c-.13 1.06.35 2.45-1.41 2.65.13-1.06-.49-2.53 1.41-2.65zm-2.84 5.34c.07.88-.35 1.35-1.22 1.44-.06-.87.31-1.38 1.22-1.44zm1.43-2.69c.05.89-.43 1.35-1.26 1.5-.11-.94.31-1.45 1.26-1.5z"/><path class="cls-7" d="M254.17 181.72c.01.87-.41 1.35-1.28 1.41-.05-.9.39-1.37 1.28-1.41zm1.41-2c-.01.88-.48 1.35-1.32 1.48-.1-.97.35-1.46 1.32-1.48z"/><path class="cls-13" d="M262.99 171.67c-.04.86-.49 1.3-1.34 1.33-.03-.92.41-1.37 1.34-1.33zm106.55 36.24c3.07 3.59.43 10.9 1.22 15.71-.01 1.05.36 2.32-1.22 2.65v-18.36zm-1.42 25.07c.34-1.41-.98-3.31 1.25-4.14-.16 1.4.78 3.88-1.25 4.14z"/><path class="cls-7" d="M359.35 220.8c-.03 1.47 2.01 1.27 2.01 2.74.22 1.72 1.55 1.24 2.6 1.33.13 3.92-2.04 7.33-1.4 11.37-1.73.23-1.37 2.74-3.16 2.85-.83-3.92-6.63 3.89-7.27-.5-4.48-9.38 4.43-8.17 1.03-15.94-.78-1.62-.46-3.29-.56-4.94.44-3.22-3.32-1.39-2.69-4.93-.54-2.24 1.53-7.39-1.9-7.45-1.72.15-3.98-.88-4.46 2.09-.08.53-.9.59-1.46.57-3.47-.14-4.94 3-7.39 4.52-.17 4.28-2.76 4.3-5.9 4.14 14.49-19.42 20.33-22.05 29.29 2.75-.09.93.35 1.38 1.26 1.4z"/><path class="cls-13" d="M359.4 239.09c1.79-.11 1.43-2.62 3.16-2.85 0 2.48-1.36 5.34-3.22 6.82-.08-1.33 0-2.65.06-3.97z"/><path class="cls-7" d="M350.68 253.22c-.58 1.84-1.55 3.32-3.49 3.95.69-1.73.6-4.17 3.49-3.95zm6.05-8.72c.09 1.04-.19 1.86-1.33 2.13-.11-1.05-.31-2.16 1.33-2.13z"/><path class="cls-13" d="M271.03 261.27c-.83-.01-1.3-.43-1.42-1.25.94-.11 1.37.34 1.42 1.25zm-2.63-1.42c-.9.05-1.36-.39-1.4-1.28.86 0 1.31.44 1.4 1.28z"/><path class="cls-7" d="M353.97 249.8c0 .89-.46 1.35-1.34 1.41-.04-.93.42-1.39 1.34-1.41zm1.31-2.03c.05.89-.45 1.33-1.25 1.51-.11-.94.3-1.46 1.25-1.51zm2.76-3.31c-.43.02-.87.03-1.3.04-.12-.93.33-1.39 1.23-1.46.14.14.03-.01.07 1.42z"/><path class="cls-7" d="M359.29 241.69c.06 1.72.4 1.37-1.29 1.38-.19-.2.09-1.32 1.29-1.38z"/><path class="cls-12" d="M273.74 244.42c-3.47-2.09-4.15 2.24-7.04 2.7-7.81-.43-9.52 2.42-9.84-7.33.24-1.17-.17-2.32-1.23-2.92-2.87-1.49.03-5.15-3.03-6.46-6.07-6.25-2.93-16.65-3.86-24.43 2.91-1.92 3.11-2.81 1.34-6.11 2.72-.44 3.46-3.56 5.16-5.13 2.79-2.46 1.15-5.83 1.72-8.95 5.37 1.27 6.56-2.76 9.12-6.15 2.06-2.27 5.49-3.25 6.32-6.67.43-.1 1.03-.11 1.11-.6 1.23-4.72 7.54-1.81 9.72-5.11 1.59-1.19 1.87-4.01 4.16-3.74 3.52.8 7.39-1.74 10.51.14 1.89 1.14 3.38 1.44 4.94-.38 3.3-1.44 7.43.89 10.68-1.62 2.17.43 3.88.13 5.41-1.51l3.99.35c.18.76.7 1.02 1.43.98.96 1.58 1.97 1.9 4.04 1.34 15.89 4.44 28.83 18.34 33.66 33.76-1.03.06-2.05.39-2.56 1.24-.77 1.29-2.2-.49-2.85.78-1.82-.3-1.54-2.26-2.56-3.24-.95-.9-5.01-3.16-5.74-2.59-2.82 2.39-6.61-.07-9.33 1.72-2.86 3.81-7.33 6.67-7.29 12.22-1.03.1-2.07-.04-2 1.36-1.75.32-4.41-1-5.34 1.06-.47 1.61.11 3.43 1.46 4.36-8.38 10.98-27.38 13.91-31.12 16.95-3.3-1.09-3.11 2.57-5.39 3.33-5.65.07-8.33 7.21-13.81 8.42-.72.13-1.69 1.08-1.77 2.24z"/><path class="cls-7" d="M313.5 161.65c-3.25 2.51-7.38.18-10.68 1.62-1.56 1.83-3.05 1.52-4.94.38-3.12-1.88-6.99.66-10.51-.14-2.3-.27-2.57 2.56-4.16 3.74-2.17 3.29-8.49.39-9.72 5.11-.08.48-.68.5-1.11.6-.03-.87-.45-1.33-1.34-1.34-.93-1.01 12.02-11.5 31.02-12.73-1.13 1.96 14.86 1.91 14.06.16 4.37-.59 2.69 3.63-2.63 2.59z"/><path class="cls-8" d="M356.63 198.59c.65-1.27 2.08.51 2.85-.78.51-.85 1.53-1.18 2.56-1.24.15 1.57.25 3.14.86 4.63-1.36 1.03-.34 1.38.67 1.37-.34 1.37.36.23.6 2.75-1.36 1.61-.56 2.85.68 4.02-.27 4.35 1.08 8.48.87 12.82-.85.04-1.71-.06-2.56.02-.51-2.22-3-3.24-2.63-5.92.55-1.07 2.07-1.97.44-3.39-.9-2.3-.49-5.24-1.66-7.53-.17-1.38.73-3.9-1.32-4.06.27-1.26-.65-1.92-1.36-2.69z"/><path class="cls-7" d="M272.39 172.96c-.83 3.42-4.27 4.39-6.32 6.67-2.55 3.39-3.76 7.43-9.12 6.15 1.01-3 4.17-5.84 4.66-5.4-.38 1.95 1.4 1.94 1.34 0 1.67-.37 1.68-1.13.51-2.17 1.74-3.9 7.3-6.91 7.59-6.58 0 .88.47 1.31 1.34 1.34zm-15.56 14.06c-.15 2.75.86 5.56-1.6 7.71-1.7 1.57-2.44 4.69-5.16 5.13 0-4 3.07-10.87 6.75-12.85z"/><path class="cls-13" d="M365.4 192.52c3.53 1.35 4.68 14.29 4.09 14.16-1.18-.12-1.43-.95-1.36-1.91.24-4.43-4.98-7.41-2.73-12.25z"/><path class="cls-7" d="M302.05 276.77c-1.51 3.34-7.47-1.07-10.59-.15-.59.01-.78-.67-.81-1.25 3.76.29 7.97-.48 11.4 1.4z"/><path class="cls-12" d="M316.14 159.06c.87 1.73-15.14 1.83-14.06-.16 4.69-.07 9.38-.39 14.06.16z"/><path class="cls-13" d="M362.62 234.97c-.48-2.62.43-5 1.3-7.38 3.01 2.7.79 5.27-1.3 7.38z"/><path class="cls-7" d="M250.07 199.87c1.77 3.3 1.57 4.19-1.34 6.11.45-1.87-1-5.38 1.34-6.11z"/><path class="cls-13" d="M365.65 218.91c0-2.78-1.23-5.45-.74-8.28 2.16 2.36 2.47 5.88.74 8.28zm-31.93 52.46c-1.85 1.99-4.08 2.96-6.83 2.55 1.92-1.8 4.2-2.65 6.83-2.55z"/><path class="cls-7" d="M360.61 249.75c-.54 3.95-1.05 4.53-4.09 4.69 1.26-1.66 2.06-3.71 4.09-4.69zm-42.34 25.82c-1.44 1.36-3.47 1.79-5.44 1.16 1.64-1.21 3.5-1.36 5.44-1.16z"/><path class="cls-13" d="M361.35 223.54c1-.44.28-1.18 2.06-1.4.02 1.36.91 1.42 1.93 1.31 1.09 1.08-3.66 2.7-3.99.09zm3.49-14.2c-1.24-1.17-2.05-2.41-.68-4.02 2.05 1.03 1.21 2.55.68 4.02z"/><path class="cls-7" d="M328.37 162.81c-2.07.56-3.08.22-4.05-1.35 1.43.21 3.11-.34 4.05 1.35z"/><path class="cls-12" d="M263.46 178.21c1.17 1.04 1.16 1.8-.51 2.17-.15-1.88-.29-1.41.51-2.17z"/><path class="cls-13" d="M359.34 243.06c.01.88-.43 1.34-1.3 1.4-.04-1.74-.39-1.38 1.3-1.4zm6.37-20.9c1.55.1.24 1.9-.37 1.29.08-1.54-.04-1.28.37-1.29zm-1.68-18.2c-.57-.33-.61-.83-.47-1.4.8.25 1.48.54.47 1.4z"/><path class="cls-12" d="M363.42 202.59c-1.02-.15-1.8-.38-.53-1.4.49.35.56.85.53 1.4z"/><path class="cls-13" d="M364.04 189.85c.89.03 1.39.4 1.23 1.37-.83-.08-1.23-.55-1.23-1.37zm-1.32-2.74c.91.07 1.36.5 1.11 1.45-.77-.18-1.14-.67-1.11-1.45z"/><path class="cls-7" d="M262.83 178.81c.16 1.97.47 1.57-1.22 1.57-.5-.45.52-1.35 1.22-1.57zm61.5-17.34c-.73.04-1.25-.22-1.43-.98.86-.24 1.32.12 1.43.98zm32.3 37.12c2.82 1.39-.22 5.91 2.67 6.75 1.17 2.29.76 5.23 1.66 7.53 1.63 1.42.11 2.32-.44 3.39-3.55-4.69-4.27-11.2-8.89-15.31-4.48-7.01-11.39-.47-16.55 1.89-1.28 1.1-1.26 3.57-3.37 3.85-.04-5.54 4.43-8.4 7.29-12.22 2.71-1.8 6.5.67 9.33-1.72.73-.57 4.79 1.69 5.74 2.59 1.03.98.75 2.94 2.56 3.24z"/><path class="cls-13" d="M273.74 244.42c.08-1.16 1.05-2.11 1.77-2.24 5.48-1.21 8.16-8.35 13.81-8.42-4.72 5.56-15.33 12.67-15.58 10.66z"/><path class="cls-7" d="M325.83 213.47c-1.35-.93-1.93-2.74-1.46-4.36.93-2.06 3.6-.75 5.36-1.07-.49 2.39-1.69 4.26-3.89 5.42z"/><path class="cls-13" d="M290.63 232.99c.68-1.95 1.87-3.06 4.08-2.56-.74 1.85-2.5 2.06-4.08 2.56zm4.17-2.63c.1-2.01 1.54-1.29 2.63-1.29-.35 1.5-1.61 1.15-2.63 1.29zm-23.7 16.8c-.02-.95.42-1.4 1.39-1.28-.11.8-.58 1.23-1.39 1.28zm88.25-26.36c-.91-.02-1.36-.47-1.26-1.4.81.11 1.27.54 1.26 1.4z"/><path class="cls-7" d="M329.71 208.06c0-1.01.52-1.42 1.5-1.29-.18.8-.63 1.29-1.5 1.29zm39.89-1.35l-.07-1.45c1.18 0 1.3 1.43.07 1.45z"/><path class="cls-12" d="M272.39 172.96c-.87-.02-1.33-.45-1.34-1.34.88 0 1.31.47 1.34 1.34zm86.91 32.38c-1.98-.24-1.11-2.68-1.32-4.06 2.05.16 1.14 2.68 1.32 4.06z"/><path class="cls-7" d="M365.34 223.45c-1.01.11-1.91.05-1.93-1.31 2.51.03 2.01-.37 1.93 1.31z"/><path class="cls-12" d="M261.61 180.38h1.34c.06 1.94-1.72 1.94-1.34 0z"/></g><text class="cls-17" transform="translate(102.42 415.8)"><tspan x="0" y="0">MyHill Psychology</tspan></text><path class="cls-16" d="M62.65 326.9c1.19 1.29 3.27-.01 4.48-1.28l13.38-14.15c3.13-3.31-3.55-13.93 40.46-21.02 17.87-2.88 25.44-25.33 30.65-31.4 3.53-4.11 8.12-3.61 13.22-1.77 2.56.92 6.6 7.6 8.86 9.12 16.72 11.19 28.93 17.4 32.8 36.54-15.74 8.08-36.24 18.18-49.01 8.08 9.01-11.4 27.88-10.29 39.39-27.75 34.28 1.05 19.76-14.86 49.92-25.34 16.55-5.75 31.34-14.16 46.16-23.31 17.93-11.07 19.51-8.88 25.31-12.55 8.72-5.53 17.61-19.34 25.94-22.39 3.53-1.29 8.1-.67 10.11 2.51 1.3 2.06 1.26 4.65 1.68 7.05 3.21 18.2 30.3 29.64 40.49 47.62 5.41 9.55 2.09 10.17 5.03 18.77.65 1.91 3.52 3.49 5.09 4.75 5.95 4.79 11.51 5.78 18.4 2.48 1.29 7.09 11.87 10.09 11.99 17.3.2 12.58-28.26 10.28-40.84 9.34-1.95-9.26 13.21-9.88 30.73-30.22 2.64-3.07 11.5-7.58 14.2-10.61 5.84-6.56 6.43-10.81 14.18-14.96 2.21 5.77 8.98 8.17 13.22 12.66 9.6 10.17.9 16.29 38.54 43.89 9.26 6.79 20.78 13.7 30.03 6.01"/><circle class="cls-16" cx="304.66" cy="217.75" r="62.62"/><path class="cls-16" d="M299.01 129.71c80.22-.06 106.75 90.96 62.4 135.93-49.65 50.35-102.25 22.83-122.41-22.04s-7.86-107.1 60.01-113.89z"/></g></svg>