<?xml version="1.0" encoding="UTF-8"?>
<svg id="Layer_2" data-name="Layer 2" xmlns="http://www.w3.org/2000/svg" xmlns:xlink="http://www.w3.org/1999/xlink" viewBox="0 0 620.7 600">
  <defs>
    <style>
      .cls-1, .cls-2 {
        fill: none;
      }

      .cls-2, .cls-3 {
        stroke: #fffbeb;
        stroke-miterlimit: 10;
        stroke-width: 3px;
      }

      .cls-4 {
        clip-path: url(#clippath);
      }

      .cls-5 {
        fill: #714732;
      }

      .cls-3 {
        fill: #b45309;
      }
    </style>
    <clipPath id="clippath">
      <circle id="BG-CIRCLE" class="cls-1" cx="318.14" cy="300" r="300"/>
    </clipPath>
  </defs>
  <g id="Layer_1-2" data-name="Layer 1">
    <g class="cls-4">
      <g>
        <circle id="BG-CIRCLE-2" data-name="BG-CIRCLE" class="cls-5" cx="318.14" cy="300" r="300"/>
        <g id="LOGO-ELEMENTS">
          <path class="cls-3" d="M309.33,153.41c104.6-.08,139.2,118.61,81.37,177.26-64.74,65.66-133.34,29.78-159.63-28.74-26.28-58.52-10.25-139.67,78.25-148.52Z"/>
          <circle class="cls-2" cx="316.7" cy="268.21" r="81.66"/>
          <path class="cls-2" d="M1.11,410.55c1.55,1.68,4.27-.01,5.84-1.67l17.45-18.45c4.09-4.32-4.62-18.16,52.76-27.41,23.3-3.76,33.18-33.04,39.97-40.95,4.61-5.36,10.59-4.71,17.24-2.31,3.34,1.2,8.6,9.92,11.55,11.89,21.8,14.6,37.73,22.69,42.78,47.65-20.52,10.53-47.26,23.7-63.91,10.53,11.75-14.86,36.35-13.42,51.37-36.18,44.7,1.37,25.77-19.38,65.09-33.04,21.58-7.5,40.87-18.46,60.2-30.4,23.38-14.44,25.45-11.58,33-16.37,11.37-7.21,22.97-25.22,33.83-29.2,4.6-1.69,10.56-.87,13.18,3.27,1.7,2.69,1.64,6.07,2.19,9.2,4.18,23.74,39.51,38.65,52.8,62.1,7.06,12.45,2.73,13.26,6.56,24.48,.85,2.5,4.59,4.55,6.64,6.2,7.75,6.24,15.02,7.54,23.99,3.23,1.68,9.25,15.48,13.16,15.64,22.56,.27,16.4-36.85,13.4-53.26,12.18-2.55-12.07,17.23-12.89,40.08-39.41,3.45-4,15-9.89,18.51-13.84,7.62-8.56,8.39-14.09,18.49-19.5,2.88,7.53,11.71,10.65,17.24,16.51,12.52,13.26,1.18,21.24,50.25,57.24,12.08,8.86,27.1,17.87,39.16,7.84"/>
        </g>
      </g>
    </g>
  </g>
</svg>