<?xml version="1.0" encoding="UTF-8"?>
<svg id="Layer_2" data-name="Layer 2" xmlns="http://www.w3.org/2000/svg" xmlns:xlink="http://www.w3.org/1999/xlink" viewBox="0 0 742.58 746.87">
  <defs>
    <style>
      .cls-1, .cls-2, .cls-3 {
        fill: none;
      }

      .cls-4 {
        clip-path: url(#clippath);
      }

      .cls-5, .cls-6 {
        fill: #fcfeff;
      }

      .cls-7 {
        fill: #b45309;
      }

      .cls-8 {
        fill: #714732;
      }

      .cls-9 {
        font-size: 72px;
      }

      .cls-9, .cls-10 {
        fill: #78350f;
        font-family: OpticianSans-Regular, 'Optician Sans';
      }

      .cls-2 {
        stroke: #fcfeff;
        stroke-linecap: square;
        stroke-linejoin: round;
        stroke-width: 7px;
      }

      .cls-6, .cls-3 {
        stroke: #714732;
        stroke-miterlimit: 10;
        stroke-width: 8px;
      }

      .cls-10 {
        font-size: 67.21px;
      }
    </style>
    <clipPath id="clippath">
      <circle id="BG-CIRCLE-2" data-name="BG-CIRCLE" class="cls-1" cx="371.29" cy="375.57" r="300"/>
    </clipPath>
  </defs>
  <g id="Layer_1-2" data-name="Layer 1">
    <g>
      <circle id="BG-CIRCLE" class="cls-6" cx="371.29" cy="375.57" r="367.29"/>
      <g class="cls-4">
        <g id="LOGO-ELEMENTS">
          <circle id="BG-CIRCLE-3" data-name="BG-CIRCLE" class="cls-8" cx="371.29" cy="375.57" r="300"/>
          <g>
            <path class="cls-7" d="M371.06,445.44c-18.92,0-37.58-6.63-53.94-19.17-15.34-11.75-27.97-28.05-36.54-47.13-16.32-36.32-15.71-77.45,1.57-107.33,10.87-18.79,33.56-42.17,79.93-46.81l.2-.02h.3c47.79,0,86.77,24.96,104.25,66.76,8.17,19.53,10.78,40.78,7.56,61.46-3.37,21.58-12.94,40.9-27.69,55.86-23.47,23.8-49.63,36.38-75.64,36.38Z"/>
            <path class="cls-5" d="M362.58,228.99c104.53,0,139.08,118.63,81.27,177.26-24.55,24.89-49.65,35.19-72.79,35.19-37.89,0-70.52-27.6-86.84-63.93-26.28-58.52-10.25-139.67,78.25-148.52,.03,0,.07,0,.1,0m8-8h-8s-.06,0-.06,0h-.4l-.44,.04c-48.06,4.81-71.66,29.18-83,48.78-17.92,30.98-18.59,73.5-1.76,110.98,8.84,19.68,21.9,36.51,37.76,48.66,17.07,13.08,36.56,19.99,56.37,19.99,27.11,0,54.25-12.99,78.49-37.58,15.34-15.56,25.3-35.63,28.8-58.05,3.34-21.4,.63-43.4-7.82-63.62-8.42-20.13-22.11-37.11-39.58-49.11-17.39-11.95-37.67-18.62-60.36-19.88v-.22h0Z"/>
          </g>
          <path class="cls-5" d="M369.85,270.13c40.62,0,73.66,33.04,73.66,73.66s-33.04,73.66-73.66,73.66-73.66-33.04-73.66-73.66,33.04-73.66,73.66-73.66m0-8c-45.1,0-81.66,36.56-81.66,81.66s36.56,81.66,81.66,81.66,81.66-36.56,81.66-81.66-36.56-81.66-81.66-81.66h0Z"/>
          <path class="cls-2" d="M82.56,457.3c4.09-4.32-9.64-9.47,47.74-18.72,23.3-3.76,33.18-33.04,39.97-40.95,4.61-5.36,10.59-4.71,17.24-2.31,3.34,1.2,8.6,9.92,11.55,11.89,21.8,14.6,37.73,22.69,42.78,47.65-20.52,10.53-47.26,23.7-63.91,10.53,11.75-14.86,36.35-13.42,51.37-36.18,44.7,1.37,25.77-19.38,65.09-33.04,21.58-7.5,40.87-18.46,60.2-30.4,23.38-14.44,20.45-11.58,28-16.37,11.37-7.21,14.97-25.22,25.83-29.2,4.6-1.69,11.56-3.87,14.18,.27,1.7,2.69,5.64,9.07,6.19,12.2,4.18,23.74,47.51,38.65,60.8,62.1,7.06,12.45,2.73,13.26,6.56,24.48,.85,2.5,4.59,4.55,6.64,6.2,7.75,6.24,15.02,7.54,23.99,3.23,1.68,9.25,15.48,13.16,15.64,22.56,.27,16.4-36.85,13.4-53.26,12.18-2.55-12.07,17.23-12.89,40.08-39.41,3.45-4,15-9.89,18.51-13.84,7.62-8.56,8.39-14.09,18.49-19.5,2.88,7.53,11.71,10.65,17.24,16.51,12.52,13.26,1.18,21.24,50.25,57.24,12.08,8.86,9.58,17.87,21.64,7.84"/>
        </g>
      </g>
      <path id="BG-CIRCLE-4" data-name="BG-CIRCLE" class="cls-3" d="M118.56,587.64c-24.74-29.48-44.13-63.06-57.29-99.23s-19.9-74.35-19.9-112.84,6.73-76.67,19.9-112.84,32.55-69.75,57.29-99.23c24.74-29.48,54.44-54.41,87.77-73.65"/>
      <path id="BG-CIRCLE-5" data-name="BG-CIRCLE" class="cls-3" d="M536.25,89.86c33.33,19.24,63.04,44.17,87.77,73.65,24.74,29.48,44.13,63.06,57.29,99.23s19.9,74.35,19.9,112.84-6.73,76.67-19.9,112.84c-13.16,36.16-32.55,69.75-57.29,99.23"/>
      <text class="cls-9" transform="translate(231.04 93.16) rotate(-22.17)"><tspan x="0" y="0">M</tspan></text>
      <text class="cls-9" transform="translate(286.21 72.12) rotate(-11.81)"><tspan x="0" y="0">y</tspan></text>
      <text class="cls-9" transform="translate(339.28 61.94) rotate(-1.54)"><tspan x="0" y="0">H</tspan></text>
      <text class="cls-9" transform="translate(398.73 62.24) rotate(6.57)"><tspan x="0" y="0">i</tspan></text>
      <text class="cls-9" transform="translate(429.39 65.99) rotate(13.96)"><tspan x="0" y="0">l</tspan></text>
      <text class="cls-9" transform="translate(477.24 78.91) rotate(23.05)"><tspan x="0" y="0">l</tspan></text>
      <text class="cls-10" transform="translate(120.06 622.23) rotate(42.1)"><tspan x="0" y="0">P</tspan></text>
      <text class="cls-10" transform="translate(165.84 661.4) rotate(32.59)"><tspan x="0" y="0">s</tspan></text>
      <text class="cls-10" transform="translate(213.16 690.12) rotate(23.55)"><tspan x="0" y="0">y</tspan></text>
      <text class="cls-10" transform="translate(263.8 710.92) rotate(14.36)"><tspan x="0" y="0">c</tspan></text>
      <text class="cls-10" transform="translate(322.3 724.31) rotate(4.38)"><tspan x="0" y="0">h</tspan></text>
      <text class="cls-10" transform="translate(384.16 727.39) rotate(-5.42)"><tspan x="0" y="0">o</tspan></text>
      <text class="cls-10" transform="translate(443.49 720.03) rotate(-14.62)"><tspan x="0" y="0">l</tspan></text>
      <text class="cls-10" transform="translate(492.17 706.33) rotate(-23.5)"><tspan x="0" y="0">o</tspan></text>
      <text class="cls-10" transform="translate(546.63 680.93) rotate(-33.31)"><tspan x="0" y="0">g</tspan></text>
      <text class="cls-10" transform="translate(593.81 648.3) rotate(-42.4)"><tspan x="0" y="0">y</tspan></text>
      <circle id="BG-CIRCLE-6" data-name="BG-CIRCLE" class="cls-1" cx="371.29" cy="375.57" r="300"/>
    </g>
  </g>
</svg>