<svg xmlns="http://www.w3.org/2000/svg" viewBox="0 0 320 320"><defs><style>.cls-1{fill:none;}.cls-2{fill:#2e2b28;}.cls-3{fill:#fff;}.cls-4{fill:#fdcf00;}.cls-5{fill:#e73658;}</style></defs><g id="Layer_2" data-name="Layer 2"><g id="Layer_1-2" data-name="Layer 1"><rect class="cls-1" width="320" height="320"/><path class="cls-2" d="M159.67,277.12a20.91,20.91,0,0,1-9-2,27.61,27.61,0,0,1-10.47,2l-42.57,0a12.5,12.5,0,0,1-10.13-5.23,12.37,12.37,0,0,1-1.59-11.32l12.16-35.73C60.31,219.11,21,183.88,21,134.26c0-20.9,8.71-43.47,23.3-60.39,12.2-14.14,34-31,68.44-31H209.2a21.09,21.09,0,0,1,17.05,8.74,20.79,20.79,0,0,1,2.88,18.93c-2.77,8.31-4.86,14.58-6.44,19.34-.69,2.07-1.28,3.85-1.8,5.4a89.57,89.57,0,0,1,53.48,27.85A93.39,93.39,0,0,1,299,185.74a91.48,91.48,0,0,1-91.38,91.38Zm38.66-103a5,5,0,0,0-4.79,3.55L188,196.05a1,1,0,0,0,.15.89,1,1,0,0,0,.8.4h18.67a11.6,11.6,0,0,0,.17-23.19Zm-85.41-51.49c-6.5,0-11.94,5-12.13,11.23a11.58,11.58,0,0,0,11.58,12H121a5,5,0,0,0,4.74-3.4L131.93,124a1,1,0,0,0-.45-1.2,1.12,1.12,0,0,0-.61-.13Z"/><path class="cls-3" d="M209.2,45.88a18.06,18.06,0,0,1,14.61,7.49,17.83,17.83,0,0,1,2.48,16.23c-2.78,8.31-4.86,14.59-6.45,19.34-1.27,3.84-2.23,6.71-3,8.89a86.15,86.15,0,0,1,55.29,27.35A90.35,90.35,0,0,1,296,185.74a88.48,88.48,0,0,1-88.38,88.38h-48a17.85,17.85,0,0,1-8.87-2.35,24.74,24.74,0,0,1-10.58,2.35l-42.57,0a9.49,9.49,0,0,1-7.69-4,9.38,9.38,0,0,1-1.19-8.61l13.34-39.21C63.86,218.49,24,183.4,24,134.26c0-20.2,8.44-42,22.57-58.43C58.36,62.17,79.4,45.88,112.74,45.88H209.2m-96.83,103H121a8,8,0,0,0,7.58-5.44L134.77,125a4,4,0,0,0-1.67-4.69,4.15,4.15,0,0,0-2.23-.6h-18c-8.1,0-14.89,6.34-15.13,14.13a14.57,14.57,0,0,0,14.58,15.06M189,200.34h18.67a14.6,14.6,0,0,0,.17-29.19h-9.46a8,8,0,0,0-7.66,5.68l-5.54,18.36a4,4,0,0,0,3.82,5.15M209.2,39.88H112.74c-35.61,0-58.11,17.42-70.71,32-15,17.45-24,40.75-24,62.35a93.88,93.88,0,0,0,26.38,65.17c13.73,14.32,31.52,24.19,49.74,27.74l-11,32.4a15.43,15.43,0,0,0,14.56,20.52l42.57,0a30.77,30.77,0,0,0,10.38-1.78,24,24,0,0,0,9.07,1.78h48A94.49,94.49,0,0,0,302,185.74a96.39,96.39,0,0,0-25.43-64.63,92.43,92.43,0,0,0-51.72-28.22l.69-2c1.58-4.76,3.67-11,6.44-19.35a23.73,23.73,0,0,0-3.3-21.62,24.07,24.07,0,0,0-19.48-10Zm-96.83,103a8.59,8.59,0,0,1-8.59-8.87c.15-4.59,4.24-8.32,9.14-8.32h15.27l-5.33,15.83a2,2,0,0,1-1.9,1.36Zm79.28,51.49,4.77-15.77a2,2,0,0,1,1.91-1.42h9.46a8.52,8.52,0,0,1,8.43,8.59,8.62,8.62,0,0,1-8.6,8.6Z"/><path class="cls-4" d="M260.83,214.92A7.44,7.44,0,0,1,267,226.59a72,72,0,0,1-59.34,31.23H162.15a3.43,3.43,0,0,1-3.35-4.52l10.7-32a6.87,6.87,0,0,1,6.51-4.69h31.61a30.62,30.62,0,0,0,7.71-1,21.41,21.41,0,0,1,5.34-.73Z"/><path class="cls-4" d="M236.3,163.43a3.44,3.44,0,0,0-2.8,5.44,30.85,30.85,0,0,1-.1,33.86,3.43,3.43,0,0,0,3,5.32H271a6.87,6.87,0,0,0,6.67-5.23,70.87,70.87,0,0,0-.06-34.16,6.88,6.88,0,0,0-6.67-5.23Z"/><path class="cls-4" d="M207.62,113.66H161.74a8.55,8.55,0,0,0-8.14,5.87l-10.27,30.8a3.43,3.43,0,0,0,3.35,4.52h61.11a30.48,30.48,0,0,1,7.31.89,25.67,25.67,0,0,0,6.16.83h40.52a6.87,6.87,0,0,0,6-10.6C249.67,118.11,221.84,113.66,207.62,113.66Z"/><path class="cls-5" d="M156,214.92a3.43,3.43,0,0,1,3.22,4.63L148.36,252a8.54,8.54,0,0,1-8.14,5.86H112.15a3.42,3.42,0,0,1-3.34-4.53l11.42-33.71a6.85,6.85,0,0,1,6.5-4.66Z"/><path class="cls-5" d="M175.8,169.67a3.43,3.43,0,0,0-3.35-4.52H112.37a29.62,29.62,0,0,1-7.25-.87,28.71,28.71,0,0,0-6.72-.85H58.2a6.87,6.87,0,0,0-5.57,10.9c11.5,16.94,33.13,32,56.31,32h8.56a4.81,4.81,0,0,1,2.64.71,6.66,6.66,0,0,0,3.68,1h34.24a6.86,6.86,0,0,0,6.51-4.69Z"/><path class="cls-5" d="M81.5,133.29c.26-8.35,2.08-11.36,5.22-16a3.43,3.43,0,0,0-3-5.35H52.1a10.33,10.33,0,0,0-10.07,8v0a65.13,65.13,0,0,0-.34,28.34,10.32,10.32,0,0,0,10.1,8.26h31.8a3.44,3.44,0,0,0,3-5.32C83.68,146.88,81.14,144.61,81.5,133.29Z"/><path class="cls-5" d="M208.57,71.21a6.87,6.87,0,0,0-6.7-9H112.74c-26.21,0-46.94,12.45-59.83,32.33a6.85,6.85,0,0,0,6,10.57H99.26a26.25,26.25,0,0,0,6.24-.82,31.4,31.4,0,0,1,7.42-.89h78.75a8.58,8.58,0,0,0,8.14-5.86Z"/></g></g></svg>