<?xml version="1.0" encoding="UTF-8"?><svg id="Layer_2" xmlns="http://www.w3.org/2000/svg" viewBox="0 0 320 320"><defs><style>.cls-1{fill:none;}.cls-2{fill:#fff;}.cls-3{fill:#c0e4f2;}.cls-4{fill:#120e0b;}.cls-5{fill:#38a3dc;}</style></defs><g id="Layer_1-2"><g><rect class="cls-1" width="320" height="320"/><path class="cls-2" d="M209.2,45.88c5.77,0,11.23,2.8,14.61,7.49,3.43,4.76,4.33,10.67,2.48,16.22-2.77,8.31-4.86,14.59-6.44,19.35-1.28,3.83-2.23,6.71-2.96,8.89,21.42,2.13,40.81,11.66,55.28,27.34,15.15,16.41,23.83,38.48,23.83,60.57,0,48.73-39.65,88.38-88.38,88.38h-47.95c-3.15,0-6.19-.82-8.88-2.35-3.28,1.55-6.87,2.35-10.58,2.35l-42.57-.03c-3.04,0-5.92-1.49-7.7-3.98-1.77-2.48-2.2-5.61-1.19-8.6l13.34-39.21c-38.25-3.8-78.11-38.89-78.11-88.03,0-20.2,8.44-42.04,22.57-58.43,11.79-13.66,32.83-29.95,66.16-29.95h96.47m-96.83,102.97h8.59c3.43,0,6.48-2.19,7.58-5.44l6.23-18.46c.57-1.7-.04-3.64-1.67-4.68-.66-.42-1.44-.6-2.23-.6h-17.95c-8.1,0-14.89,6.34-15.13,14.13-.12,3.99,1.33,7.77,4.11,10.63,2.77,2.86,6.49,4.43,10.48,4.43m76.58,51.49h18.67c8.05,0,14.6-6.55,14.6-14.6s-6.47-14.59-14.43-14.59h-9.46c-3.53,0-6.64,2.31-7.66,5.69l-5.55,18.35c-.37,1.21-.14,2.53,.62,3.54,.75,1.02,1.95,1.62,3.21,1.62m20.25-166.46H112.74c-37.87,0-61.83,18.55-75.25,34.11-15.96,18.5-25.49,43.27-25.49,66.27,0,25.83,9.96,50.45,28.05,69.32,12.9,13.46,29.22,23.22,46.26,27.91l-8.9,26.15c-2.28,6.7-1.26,13.79,2.79,19.45,4.03,5.63,10.55,8.99,17.45,9l42.56,.03c3.53,0,6.97-.48,10.28-1.44,2.96,.95,6.06,1.44,9.18,1.44h47.95c55.35,0,100.38-45.03,100.38-100.38,0-25.07-9.85-50.11-27.02-68.71-12.98-14.06-29.78-23.94-48.32-28.6,1.36-4.08,3-9.03,5.01-15.04,3.09-9.25,1.59-19.1-4.12-27.03-5.63-7.82-14.73-12.48-24.35-12.48h0Zm-96.83,102.97c-.75,0-1.36-.26-1.87-.78-.51-.53-.75-1.15-.73-1.9,.04-1.18,1.39-2.5,3.14-2.5h6.92l-1.75,5.19h-5.71Zm88.92,46.3h6.49c1.32,0,2.43,1.19,2.43,2.59s-1.17,2.59-2.6,2.59h-7.88s1.57-5.19,1.57-5.19h0Z"/><path class="cls-2" d="M134.77,124.94l-6.22,18.46c-1.1,3.25-4.15,5.44-7.58,5.44h-8.59c-3.99,0-7.71-1.57-10.48-4.43-2.78-2.86-4.23-6.63-4.11-10.63,.24-7.79,7.03-14.13,15.13-14.13h17.96c.78,0,1.56,.18,2.22,.6,1.64,1.05,2.25,2.99,1.67,4.69Zm73.02,46.2h-9.45c-3.53,0-6.64,2.31-7.66,5.69l-5.55,18.35c-.36,1.21-.14,2.52,.62,3.54,.75,1.02,1.95,1.62,3.21,1.62h18.67c8.04-.01,14.59-6.56,14.59-14.61s-6.47-14.59-14.43-14.59Z"/><path class="cls-4" d="M272.17,125.18c-14.47-15.68-33.86-25.21-55.28-27.34,.73-2.18,1.69-5.06,2.96-8.89,1.58-4.76,3.67-11.03,6.44-19.35,1.85-5.55,.95-11.46-2.48-16.22-3.38-4.69-8.84-7.49-14.61-7.49H112.74c-33.33,0-54.38,16.29-66.16,29.95-14.14,16.39-22.57,38.23-22.57,58.43,0,49.14,39.86,84.23,78.11,88.03l-13.34,39.21c-1.02,2.99-.58,6.13,1.19,8.6,1.78,2.49,4.66,3.98,7.7,3.98l42.57,.03c3.71,0,7.29-.8,10.58-2.35,2.68,1.53,5.72,2.35,8.88,2.35h47.95c48.73,0,88.38-39.65,88.38-88.38,0-22.08-8.69-44.16-23.83-60.57Zm-174.38,8.62c.24-7.79,7.03-14.13,15.13-14.13h17.95c.78,0,1.57,.18,2.23,.6,1.63,1.04,2.25,2.98,1.67,4.68l-6.23,18.46c-1.1,3.25-4.15,5.44-7.58,5.44h-8.59c-3.99,0-7.71-1.57-10.48-4.43-2.77-2.86-4.23-6.63-4.11-10.63Zm87.34,61.39l5.55-18.35c1.02-3.38,4.13-5.69,7.66-5.69h9.46c7.96,0,14.43,6.55,14.43,14.59s-6.55,14.59-14.6,14.59h-18.66c-1.27,0-2.46-.59-3.21-1.61-.75-1.02-.98-2.33-.62-3.54Z"/><g><path class="cls-3" d="M260.83,214.92c6,0,9.54,6.73,6.13,11.67-13.01,18.86-34.75,31.24-59.34,31.24h-45.47c-2.62,0-4.05-2.43-3.35-4.52l10.7-31.98c.94-2.8,3.56-4.69,6.51-4.69h31.61c2.66,0,5.24-.34,7.71-.98,1.75-.45,3.53-.74,5.33-.74h40.16Z"/><path class="cls-3" d="M236.3,163.43c-2.58,0-4.48,2.85-2.79,5.43,3.17,4.85,5.01,10.65,5.01,16.88s-1.88,12.11-5.11,16.99c-1.44,2.18-.02,5.32,2.98,5.32h34.59c3.16,0,5.92-2.16,6.67-5.23,3.7-15.12,1.61-27.43-.06-34.16-.76-3.07-3.51-5.23-6.67-5.23h-34.62Z"/><path class="cls-3" d="M207.62,113.66h-45.88c-3.71,0-6.98,2.36-8.14,5.87l-10.26,30.8c-.7,2.09,.73,4.52,3.35,4.52h61.1c2.52,0,4.97,.31,7.32,.89,2.02,.5,4.08,.82,6.16,.82h40.52c6.14,0,8.71-6.38,5.97-10.6-18.08-27.86-45.91-32.31-60.12-32.31Z"/><path class="cls-5" d="M155.95,214.92c1.98,0,4.12,1.92,3.22,4.64l-10.8,32.41c-1.17,3.51-4.44,5.86-8.14,5.86h-28.07c-2.6,0-4.06-2.42-3.35-4.53l11.42-33.71c.94-2.79,3.56-4.66,6.5-4.66h29.22Z"/><path class="cls-5" d="M175.8,169.67c.7-2.09-.73-4.52-3.35-4.52h-60.07c-1.36,0-3.89-.05-7.25-.87-2.2-.53-4.45-.85-6.72-.85H58.2c-5.31,0-8.93,5.93-5.56,10.89,11.5,16.94,33.13,32.01,56.31,32.01h8.55c.93,0,1.86,.21,2.64,.72,1.08,.71,2.39,1,3.68,1h34.24c2.95,0,5.58-1.89,6.51-4.69l11.23-33.69Z"/><path class="cls-5" d="M81.5,133.29c.26-8.35,2.08-11.36,5.22-15.99,1.48-2.18,.07-5.36-2.95-5.36h-31.67c-4.81,0-8.98,3.31-10.07,8v.03c-1.01,4.31-3.14,14.53-.35,28.34,.97,4.8,5.2,8.26,10.1,8.26h31.8c2.98,0,4.42-3.12,2.98-5.31-2.87-4.38-5.41-6.65-5.05-17.97Z"/><path class="cls-5" d="M208.57,71.21c1.29-3.87-1.2-9.04-6.7-9.04H112.74c-26.21,0-46.94,12.45-59.82,32.33-2.81,4.33-.03,10.57,6,10.57h40.34c2.11,0,4.2-.32,6.24-.82,2.38-.58,4.86-.89,7.41-.89h78.76c3.69,0,6.97-2.36,8.13-5.86l8.77-26.29Z"/></g></g></g></svg>