<svg xmlns="http://www.w3.org/2000/svg" viewBox="0 0 270 269.77"><defs><style>.cls-1{fill:none}.cls-2{isolation:isolate}.cls-3{clip-path:url(#clip-path)}.cls-4{mix-blend-mode:multiply;opacity:.5}.cls-5,.cls-6{fill:#fff;stroke:#120e0b;stroke-miterlimit:10}.cls-5{stroke-width:6.36px}.cls-6{stroke-width:1.23px}</style><clipPath id="clip-path"><path class="cls-1" transform="rotate(90 135 134.88)" d="M0.12 -0.12H269.89V269.88H0.12z"/></clipPath></defs><g class="cls-2"><g id="Layer_2" data-name="Layer 2"><g class="cls-3" id="ARTWORK"><g class="cls-4"><path class="cls-5" d="M45.13 9.92a9.4 9.4 0 0 1-6.49 11.49l-11 3V18l9.49-2.57A3.07 3.07 0 0 0 38.94 14a3 3 0 0 0 .2-2.56 3.13 3.13 0 0 0-3.82-1.87l-9 2.57v-4A3.3 3.3 0 0 1 28.75 5l4.94-1.42a9.18 9.18 0 0 1 7 .82 9.33 9.33 0 0 1 4.44 5.52zM21.9 7l10.71-3v-6.7L20.09.89a9.41 9.41 0 0 0-6.93 8.38 9.56 9.56 0 0 0 4.88 9 9.43 9.43 0 0 0 7.19.81l1.13-.32v6.18l3.75-1.08c1.4-.4 1.25-3.15 1.25-3.15V10.37l-7.71 2.53A3.09 3.09 0 0 1 20 8.44 3.08 3.08 0 0 1 21.9 7z"/><path class="cls-6" d="M45.13 9.92a9.4 9.4 0 0 1-6.49 11.49l-11 3V18l9.49-2.57A3.07 3.07 0 0 0 38.94 14a3 3 0 0 0 .2-2.56 3.13 3.13 0 0 0-3.82-1.87l-9 2.57v-4A3.3 3.3 0 0 1 28.75 5l4.94-1.42a9.18 9.18 0 0 1 7 .82 9.33 9.33 0 0 1 4.44 5.52z"/><path class="cls-6" d="M20 8.44a3.09 3.09 0 0 0 3.63 4.46l7.71-2.53 1.25 6.4v3.94a3.28 3.28 0 0 1-2.38 3.16L26.36 25v-6.24l-1.14.33a9.44 9.44 0 0 1-7.22-.82 9.56 9.56 0 0 1-4.88-9A9.39 9.39 0 0 1 20.08.89l12.53-3.6v6.62L21.9 7A3.08 3.08 0 0 0 20 8.44z"/><path class="cls-5" d="M45.13 51.13a9.42 9.42 0 0 1-6.49 11.5l-11 3v-6.4l9.49-2.57a3.09 3.09 0 0 0 2-4 3.14 3.14 0 0 0-3.82-1.88l-9 2.57v-4a3.31 3.31 0 0 1 2.39-3.16l4.94-1.42a9.18 9.18 0 0 1 7 .83 9.28 9.28 0 0 1 4.49 5.53zm-23.23-3l10.71-3v-6.62L20.09 42.1a9.41 9.41 0 0 0-6.93 8.39 9.55 9.55 0 0 0 4.88 9 9.43 9.43 0 0 0 7.19.82l1.13-.31v6.18l3.75-1.07c1.4-.41 1.25-3.16 1.25-3.16V51.58l-7.71 2.54A3.1 3.1 0 0 1 20 49.65a3.12 3.12 0 0 1 1.9-1.49z"/><path class="cls-6" d="M45.13 51.13a9.42 9.42 0 0 1-6.49 11.5l-11 3v-6.4l9.49-2.57a3.09 3.09 0 0 0 2-4 3.14 3.14 0 0 0-3.82-1.88l-9 2.57v-4a3.31 3.31 0 0 1 2.39-3.16l4.94-1.42a9.18 9.18 0 0 1 7 .83 9.28 9.28 0 0 1 4.49 5.53z"/><path class="cls-6" d="M20 49.65a3.1 3.1 0 0 0 3.63 4.47l7.71-2.54L32.61 58v3.94a3.3 3.3 0 0 1-2.38 3.16l-3.87 1.1V60l-1.14.32a9.44 9.44 0 0 1-7.22-.83 9.57 9.57 0 0 1-4.88-9 9.41 9.41 0 0 1 6.93-8.39l12.53-3.6v6.62l-10.71 3A3.12 3.12 0 0 0 20 49.65z"/><path class="cls-5" d="M45.13 92.34a9.41 9.41 0 0 1-6.49 11.5l-11 3v-6.4l9.49-2.58a3.08 3.08 0 0 0 2-4A3.13 3.13 0 0 0 35.32 92l-9 2.57v-4a3.3 3.3 0 0 1 2.39-3.15L33.69 86a9.14 9.14 0 0 1 7 .82 9.28 9.28 0 0 1 4.44 5.52zm-23.23-3l10.71-3v-6.62l-12.52 3.6a9.39 9.39 0 0 0-6.93 8.38 9.55 9.55 0 0 0 4.88 9 9.39 9.39 0 0 0 7.19.82l1.13-.32v6.17l3.75-1.07c1.4-.4 1.25-3.16 1.25-3.16V92.79l-7.71 2.54a3.14 3.14 0 0 1-3.9-2.08 3.14 3.14 0 0 1 2.15-3.88z"/><path class="cls-6" d="M45.13 92.34a9.41 9.41 0 0 1-6.49 11.5l-11 3v-6.4l9.49-2.58a3.08 3.08 0 0 0 2-4A3.13 3.13 0 0 0 35.32 92l-9 2.57v-4a3.3 3.3 0 0 1 2.39-3.15L33.69 86a9.14 9.14 0 0 1 7 .82 9.28 9.28 0 0 1 4.44 5.52z"/><path class="cls-6" d="M20 90.87a3.1 3.1 0 0 0-.27 2.38 3.14 3.14 0 0 0 3.9 2.08l7.71-2.54 1.25 6.41v3.94a3.29 3.29 0 0 1-2.38 3.16l-3.87 1.11v-6.22l-1.14.33a9.44 9.44 0 0 1-7.2-.82 9.56 9.56 0 0 1-4.88-9 9.39 9.39 0 0 1 6.93-8.38l12.53-3.6v6.61l-10.71 3A3.1 3.1 0 0 0 20 90.87z"/><path class="cls-5" d="M45.13 133.56a9.4 9.4 0 0 1-6.49 11.49l-11 3v-6.41l9.49-2.57a3.07 3.07 0 0 0 1.84-1.47 3 3 0 0 0 .2-2.56 3.13 3.13 0 0 0-3.82-1.87l-9 2.57v-4a3.3 3.3 0 0 1 2.39-3.16l4.94-1.42a9.22 9.22 0 0 1 7 .82 9.33 9.33 0 0 1 4.45 5.58zm-23.23-3l10.71-3v-6.61l-12.52 3.59a9.41 9.41 0 0 0-6.93 8.39 9.56 9.56 0 0 0 4.88 9 9.39 9.39 0 0 0 7.19.81l1.13-.32v6.18l3.75-1.08c1.4-.4 1.25-3.15 1.25-3.15V134l-7.71 2.53a3.09 3.09 0 0 1-3.65-4.45 3.08 3.08 0 0 1 1.9-1.49z"/><path class="cls-6" d="M45.13 133.56a9.4 9.4 0 0 1-6.49 11.49l-11 3v-6.41l9.49-2.57a3.07 3.07 0 0 0 1.84-1.47 3 3 0 0 0 .2-2.56 3.13 3.13 0 0 0-3.82-1.87l-9 2.57v-4a3.3 3.3 0 0 1 2.39-3.16l4.94-1.42a9.22 9.22 0 0 1 7 .82 9.33 9.33 0 0 1 4.45 5.58z"/><path class="cls-6" d="M20 132.08a3.09 3.09 0 0 0 3.63 4.46l7.73-2.54 1.25 6.4v4a3.28 3.28 0 0 1-2.38 3.15l-3.87 1.11v-6.26l-1.14.33a9.4 9.4 0 0 1-7.19-.82 9.56 9.56 0 0 1-4.88-9 9.4 9.4 0 0 1 6.93-8.38l12.53-3.6v6.62l-10.71 3a3.08 3.08 0 0 0-1.9 1.53z"/><path class="cls-5" d="M45.13 174.77a9.42 9.42 0 0 1-6.49 11.5l-11 3v-6.41l9.49-2.57a3.09 3.09 0 0 0 2-4 3.14 3.14 0 0 0-3.82-1.88l-9 2.57v-4a3.32 3.32 0 0 1 2.39-3.16l4.94-1.42a9.18 9.18 0 0 1 7 .83 9.28 9.28 0 0 1 4.49 5.54zm-23.23-3l10.71-3v-6.61l-12.52 3.6a9.39 9.39 0 0 0-6.93 8.38 9.55 9.55 0 0 0 4.88 9 9.43 9.43 0 0 0 7.19.82l1.13-.33v6.18l3.75-1.07c1.4-.41 1.25-3.16 1.25-3.16v-10.36l-7.71 2.54a3.1 3.1 0 0 1-3.65-4.47 3.12 3.12 0 0 1 1.9-1.49z"/><path class="cls-6" d="M45.13 174.77a9.42 9.42 0 0 1-6.49 11.5l-11 3v-6.41l9.49-2.57a3.09 3.09 0 0 0 2-4 3.14 3.14 0 0 0-3.82-1.88l-9 2.57v-4a3.32 3.32 0 0 1 2.39-3.16l4.94-1.42a9.18 9.18 0 0 1 7 .83 9.28 9.28 0 0 1 4.49 5.54z"/><path class="cls-6" d="M20 173.29a3.1 3.1 0 0 0 3.63 4.47l7.71-2.54 1.25 6.41v3.94a3.3 3.3 0 0 1-2.38 3.16l-3.87 1.11v-6.22l-1.14.32a9.44 9.44 0 0 1-7.19-.81 9.57 9.57 0 0 1-4.88-9 9.41 9.41 0 0 1 6.93-8.39l12.53-3.6v6.62l-10.71 3a3.12 3.12 0 0 0-1.88 1.53z"/><path class="cls-5" d="M45.13 216a9.41 9.41 0 0 1-6.49 11.5l-11 3v-6.41l9.49-2.57a3.09 3.09 0 0 0 2-4 3.13 3.13 0 0 0-3.82-1.87l-9 2.57v-4a3.3 3.3 0 0 1 2.39-3.15l4.94-1.42a9.14 9.14 0 0 1 7 .82 9.28 9.28 0 0 1 4.49 5.53zm-23.23-3l10.71-3v-6.61L20.09 207a9.4 9.4 0 0 0-6.93 8.38 9.57 9.57 0 0 0 4.88 9 9.43 9.43 0 0 0 7.19.81l1.13-.32V231l3.75-1.07c1.4-.4 1.25-3.16 1.25-3.16v-10.34L23.65 219a3.14 3.14 0 0 1-3.9-2.08A3.14 3.14 0 0 1 21.9 213z"/><path class="cls-6" d="M45.13 216a9.41 9.41 0 0 1-6.49 11.5l-11 3v-6.41l9.49-2.57a3.09 3.09 0 0 0 2-4 3.13 3.13 0 0 0-3.82-1.87l-9 2.57v-4a3.3 3.3 0 0 1 2.39-3.15l4.94-1.42a9.14 9.14 0 0 1 7 .82 9.28 9.28 0 0 1 4.49 5.53z"/><path class="cls-6" d="M20 214.51a3.1 3.1 0 0 0-.27 2.38 3.14 3.14 0 0 0 3.9 2.08l7.71-2.54 1.25 6.41v3.94a3.28 3.28 0 0 1-2.38 3.16l-3.87 1.11v-6.22l-1.14.33a9.44 9.44 0 0 1-7.19-.82 9.56 9.56 0 0 1-4.88-9 9.39 9.39 0 0 1 6.95-8.34l12.53-3.6v6.6l-10.71 3a3.1 3.1 0 0 0-1.9 1.51z"/><path class="cls-5" d="M45.13 257.2a9.4 9.4 0 0 1-6.49 11.49l-11 3v-6.39l9.49-2.57a3.07 3.07 0 0 0 1.84-1.47 3 3 0 0 0 .2-2.56 3.13 3.13 0 0 0-3.82-1.87l-9 2.57v-4a3.3 3.3 0 0 1 2.39-3.16l4.94-1.42a9.22 9.22 0 0 1 7 .82 9.33 9.33 0 0 1 4.45 5.56zm-23.23-3l10.71-3v-6.61l-12.52 3.59a9.41 9.41 0 0 0-6.93 8.39 9.56 9.56 0 0 0 4.88 9 9.43 9.43 0 0 0 7.19.82l1.13-.33v6.18l3.75-1.07c1.4-.41 1.25-3.16 1.25-3.16v-10.36l-7.71 2.53a3.1 3.1 0 1 1-1.75-6z"/><path class="cls-6" d="M45.13 257.2a9.4 9.4 0 0 1-6.49 11.49l-11 3v-6.39l9.49-2.57a3.07 3.07 0 0 0 1.84-1.47 3 3 0 0 0 .2-2.56 3.13 3.13 0 0 0-3.82-1.87l-9 2.57v-4a3.3 3.3 0 0 1 2.39-3.16l4.94-1.42a9.22 9.22 0 0 1 7 .82 9.33 9.33 0 0 1 4.45 5.56z"/><path class="cls-6" d="M20 255.72a3.09 3.09 0 0 0 3.63 4.46l7.71-2.53 1.25 6.4V268a3.28 3.28 0 0 1-2.38 3.15l-3.87 1.12v-6.22l-1.14.32a9.4 9.4 0 0 1-7.19-.82 9.56 9.56 0 0 1-4.88-9 9.41 9.41 0 0 1 6.93-8.38l12.53-3.6v6.62l-10.71 3a3.12 3.12 0 0 0-1.88 1.53z"/><path class="cls-5" d="M83.16-8.64a9.41 9.41 0 0 1-6.48 11.5l-10.32 3v-6.4l8.77-2.57A3.07 3.07 0 0 0 77-4.57a3.08 3.08 0 0 0 .19-2.56A3.12 3.12 0 0 0 73.36-9l-8.25 2.57v-4c-.71-1.46.26-2.75 1.67-3.16L71.72-15a9.18 9.18 0 0 1 7 .83 9.28 9.28 0 0 1 4.44 5.53zm-23.23-3l11.43-3V-21l-13 3.49A9.39 9.39 0 0 0 51.88-6a9.15 9.15 0 0 0 4.39 5.49 9.15 9.15 0 0 0 7 .8l.59-.29v6.43l3.87-1.11a3.3 3.3 0 0 0 2.38-3.16V-8.19l-8.43 2.54a3.14 3.14 0 0 1-3.89-2.08 3.13 3.13 0 0 1 .26-2.39 3.14 3.14 0 0 1 1.88-1.49z"/><path class="cls-6" d="M83.16-8.64a9.41 9.41 0 0 1-6.48 11.5l-10.32 3v-6.4l8.77-2.57A3.07 3.07 0 0 0 77-4.57a3.08 3.08 0 0 0 .19-2.56A3.12 3.12 0 0 0 73.36-9l-8.25 2.57v-4c-.71-1.46.26-2.75 1.67-3.16L71.72-15a9.18 9.18 0 0 1 7 .83 9.28 9.28 0 0 1 4.44 5.53z"/><path class="cls-6" d="M58.05-10.12a3.13 3.13 0 0 0-.26 2.39 3.14 3.14 0 0 0 3.89 2.08l8.43-2.54 1.25 6.41v3.93s-1.81 2.76-3.22 3.16l-4.28 1.07V.21l-1.14.32a9.39 9.39 0 0 1-7.19-.81 9.57 9.57 0 0 1-4.88-9 9.41 9.41 0 0 1 6.93-8.39l12.53-3.59v6.61l-10.18 3a3.14 3.14 0 0 0-1.88 1.53z"/><path class="cls-5" d="M83.16 32.58a9.4 9.4 0 0 1-6.48 11.49l-10.32 3v-6.39l8.77-2.57a3.07 3.07 0 0 0 2-4 3.12 3.12 0 0 0-3.81-1.87l-8.25 2.57v-4a2.24 2.24 0 0 1 1.67-3.16l4.94-1.42a9.14 9.14 0 0 1 7 .82 9.27 9.27 0 0 1 4.48 5.53zm-23.23-3l11.43-3v-6.37l-13 3.49a9.4 9.4 0 0 0-6.47 11.53 9.24 9.24 0 0 0 11.41 6.28l.57-.32v6.45l3.87-1.11a3.28 3.28 0 0 0 2.38-3.16V33l-8.43 2.54a3.11 3.11 0 1 1-1.75-6z"/><path class="cls-6" d="M83.16 32.58a9.4 9.4 0 0 1-6.48 11.49l-10.32 3v-6.39l8.77-2.57a3.07 3.07 0 0 0 2-4 3.12 3.12 0 0 0-3.81-1.87l-8.25 2.57v-4a2.24 2.24 0 0 1 1.67-3.16l4.94-1.42a9.14 9.14 0 0 1 7 .82 9.27 9.27 0 0 1 4.48 5.53z"/><path class="cls-6" d="M58.05 31.1a3.1 3.1 0 0 0 3.63 4.46L70.11 33l1.25 6.41v3.94s-1.81 2.75-3.22 3.15l-4.28 1.07v-6.15l-1.14.33a9.44 9.44 0 0 1-7.19-.82 9.56 9.56 0 0 1-4.88-9 9.39 9.39 0 0 1 6.93-8.38L70.11 20v6.62l-10.18 3a3.16 3.16 0 0 0-1.88 1.48z"/><path class="cls-5" d="M83.16 73.79a9.41 9.41 0 0 1-6.48 11.5l-10.32 3v-6.4l8.77-2.57a3.07 3.07 0 0 0 2-4 3.13 3.13 0 0 0-3.81-1.87L65.11 76v-4c-.71-1.47.26-2.75 1.67-3.16l4.94-1.42a9.22 9.22 0 0 1 7 .82 9.33 9.33 0 0 1 4.44 5.55zm-23.23-3l11.43-3v-6.37l-13 3.49a9.4 9.4 0 0 0-6.47 11.53 9.24 9.24 0 0 0 11.41 6.28l.57-.32v6.46l3.87-1.12a3.28 3.28 0 0 0 2.38-3.15V74.24l-8.43 2.53a3.1 3.1 0 1 1-1.75-6z"/><path class="cls-6" d="M83.16 73.79a9.41 9.41 0 0 1-6.48 11.5l-10.32 3v-6.4l8.77-2.57a3.07 3.07 0 0 0 2-4 3.13 3.13 0 0 0-3.81-1.87L65.11 76v-4c-.71-1.47.26-2.75 1.67-3.16l4.94-1.42a9.22 9.22 0 0 1 7 .82 9.33 9.33 0 0 1 4.44 5.55z"/><path class="cls-6" d="M58.05 72.31a3.1 3.1 0 0 0 3.63 4.46l8.43-2.53 1.25 6.41v3.93s-1.81 2.75-3.22 3.16l-4.28 1.07v-6.17l-1.14.36a9.4 9.4 0 0 1-7.19-.82 9.55 9.55 0 0 1-4.88-9 9.41 9.41 0 0 1 6.93-8.38l12.53-3.6v6.62l-10.18 3a3.14 3.14 0 0 0-1.88 1.49z"/><path class="cls-5" d="M83.16 115a9.41 9.41 0 0 1-6.48 11.5l-10.32 3v-6.4l8.77-2.58a3.06 3.06 0 0 0 2-4 3.12 3.12 0 0 0-3.81-1.87l-8.25 2.57v-4c-.71-1.46.26-2.75 1.67-3.16l4.94-1.41a9.14 9.14 0 0 1 7 .82 9.28 9.28 0 0 1 4.48 5.53zm-23.23-3l11.43-3v-6.35l-13 3.49a9.39 9.39 0 0 0-6.47 11.52 9.24 9.24 0 0 0 11.41 6.28l.57-.32v6.46l3.86-1.08a3.29 3.29 0 0 0 2.38-3.16v-10.39L61.68 118a3.11 3.11 0 1 1-1.75-6z"/><path class="cls-6" d="M83.16 115a9.41 9.41 0 0 1-6.48 11.5l-10.32 3v-6.4l8.77-2.58a3.06 3.06 0 0 0 2-4 3.12 3.12 0 0 0-3.81-1.87l-8.25 2.57v-4c-.71-1.46.26-2.75 1.67-3.16l4.94-1.41a9.14 9.14 0 0 1 7 .82 9.28 9.28 0 0 1 4.48 5.53z"/><path class="cls-6" d="M58.05 113.52a3.1 3.1 0 0 0 3.63 4.48l8.43-2.54 1.25 6.41v3.93s-1.81 2.76-3.22 3.16L63.86 130v-6.17l-1.14.33a9.44 9.44 0 0 1-7.19-.82 9.57 9.57 0 0 1-4.88-9 9.41 9.41 0 0 1 6.93-8.34l12.53-3.59V109l-10.18 3a3.14 3.14 0 0 0-1.88 1.52z"/><path class="cls-5" d="M83.16 156.22a9.4 9.4 0 0 1-6.48 11.49l-10.32 3v-6.41l8.77-2.57a3.07 3.07 0 0 0 2-4 3.12 3.12 0 0 0-3.81-1.87l-8.25 2.57v-4a2.24 2.24 0 0 1 1.67-3.16l4.94-1.42a9.18 9.18 0 0 1 7 .82 9.3 9.3 0 0 1 4.48 5.55zm-23.23-3l11.43-3v-6.36l-13 3.49a9.4 9.4 0 0 0-6.47 11.53 9.24 9.24 0 0 0 11.41 6.28l.57-.32v6.45l3.87-1.11a3.28 3.28 0 0 0 2.37-3.18v-10.33l-8.43 2.53a3.11 3.11 0 1 1-1.75-6z"/><path class="cls-6" d="M83.16 156.22a9.4 9.4 0 0 1-6.48 11.49l-10.32 3v-6.41l8.77-2.57a3.07 3.07 0 0 0 2-4 3.12 3.12 0 0 0-3.81-1.87l-8.25 2.57v-4a2.24 2.24 0 0 1 1.67-3.16l4.94-1.42a9.18 9.18 0 0 1 7 .82 9.3 9.3 0 0 1 4.48 5.55z"/><path class="cls-6" d="M58.05 154.74a3.1 3.1 0 0 0 3.63 4.46l8.43-2.53 1.25 6.4V167s-1.81 2.75-3.22 3.15l-4.28 1.08v-6.18l-1.14.33a9.44 9.44 0 0 1-7.19-.82 9.56 9.56 0 0 1-4.88-9 9.39 9.39 0 0 1 6.93-8.38l12.53-3.6v6.62l-10.18 3a3.16 3.16 0 0 0-1.88 1.54z"/><path class="cls-5" d="M83.16 197.43a9.41 9.41 0 0 1-6.48 11.5l-10.32 3v-6.41l8.77-2.52a3.07 3.07 0 0 0 2-4 3.13 3.13 0 0 0-3.81-1.87l-8.25 2.57v-4c-.71-1.47.26-2.75 1.67-3.16l4.94-1.42a9.22 9.22 0 0 1 7 .82 9.33 9.33 0 0 1 4.48 5.49zm-23.23-3l11.43-3v-6.36l-13 3.49a9.4 9.4 0 0 0-6.47 11.53 9.24 9.24 0 0 0 11.41 6.28l.57-.32v6.46l3.87-1.11a3.3 3.3 0 0 0 2.38-3.16v-10.36l-8.43 2.54a3.11 3.11 0 1 1-1.75-6z"/><path class="cls-6" d="M83.16 197.43a9.41 9.41 0 0 1-6.48 11.5l-10.32 3v-6.41l8.77-2.52a3.07 3.07 0 0 0 2-4 3.13 3.13 0 0 0-3.81-1.87l-8.25 2.57v-4c-.71-1.47.26-2.75 1.67-3.16l4.94-1.42a9.22 9.22 0 0 1 7 .82 9.33 9.33 0 0 1 4.48 5.49z"/><path class="cls-6" d="M58.05 196a3.1 3.1 0 0 0 3.63 4.47l8.43-2.54 1.25 6.41v3.93s-1.81 2.75-3.22 3.16l-4.28 1.07v-6.17l-1.14.32a9.44 9.44 0 0 1-7.19-.81 9.57 9.57 0 0 1-4.88-9 9.41 9.41 0 0 1 6.93-8.39l12.53-3.6v6.62l-10.18 3a3.14 3.14 0 0 0-1.88 1.53z"/><path class="cls-5" d="M83.16 238.64a9.41 9.41 0 0 1-6.48 11.5l-10.32 3v-6.4l8.77-2.58a3 3 0 0 0 1.87-1.45 3.08 3.08 0 0 0 .19-2.56 3.12 3.12 0 0 0-3.81-1.87l-8.25 2.57v-4c-.71-1.46.26-2.75 1.67-3.16l4.94-1.41a9.14 9.14 0 0 1 7 .82 9.28 9.28 0 0 1 4.42 5.54zm-23.23-3l11.43-3v-6.35l-13 3.49a9.39 9.39 0 0 0-6.47 11.52 9.22 9.22 0 0 0 11.41 6.28l.57-.32v6.46l3.87-1.11a3.29 3.29 0 0 0 2.38-3.16v-10.36l-8.43 2.54a3.11 3.11 0 1 1-1.75-6z"/><path class="cls-6" d="M83.16 238.64a9.41 9.41 0 0 1-6.48 11.5l-10.32 3v-6.4l8.77-2.58a3 3 0 0 0 1.87-1.45 3.08 3.08 0 0 0 .19-2.56 3.12 3.12 0 0 0-3.81-1.87l-8.25 2.57v-4c-.71-1.46.26-2.75 1.67-3.16l4.94-1.41a9.14 9.14 0 0 1 7 .82 9.28 9.28 0 0 1 4.42 5.54z"/><path class="cls-6" d="M58.05 237.16a3.1 3.1 0 0 0 3.63 4.47l8.43-2.54 1.25 6.41v3.93s-1.81 2.76-3.22 3.16l-4.28 1.07v-6.17l-1.14.33a9.44 9.44 0 0 1-7.19-.82 9.56 9.56 0 0 1-4.88-9 9.41 9.41 0 0 1 6.93-8.39L70.11 226v6.61l-10.18 3a3.14 3.14 0 0 0-1.88 1.55z"/><path class="cls-5" d="M83.16 279.86a9.4 9.4 0 0 1-6.48 11.49l-10.32 3V288l8.77-2.57a3.07 3.07 0 0 0 2-4 3.12 3.12 0 0 0-3.81-1.87l-8.25 2.57v-4a2.24 2.24 0 0 1 1.67-3.16l4.94-1.42a9.18 9.18 0 0 1 7 .82 9.33 9.33 0 0 1 4.48 5.49zm-23.23-3l11.43-3v-6.36l-13 3.49a9.4 9.4 0 0 0-6.47 11.53 9.24 9.24 0 0 0 11.41 6.28l.57-.32v6.45l3.87-1.11a3.28 3.28 0 0 0 2.38-3.16v-10.35l-8.43 2.53a3.1 3.1 0 1 1-1.75-5.95z"/><path class="cls-6" d="M58.05 278.38a3.1 3.1 0 0 0 3.63 4.46l8.43-2.53 1.25 6.4v3.94s-1.81 2.75-3.22 3.15l-4.28 1.08v-6.18l-1.14.33a9.44 9.44 0 0 1-7.19-.82 9.56 9.56 0 0 1-4.88-9 9.39 9.39 0 0 1 6.93-8.38l12.53-3.6v6.62l-10.18 3a3.11 3.11 0 0 0-1.88 1.53z"/><path class="cls-5" d="M121.19 9.92a9.4 9.4 0 0 1-6.48 11.49l-10.85 3V18l9.31-2.57a3.09 3.09 0 0 0 2-4 3.13 3.13 0 0 0-3.82-1.87l-8.78 2.57v-4A2.94 2.94 0 0 1 104.81 5l4.94-1.42a9.2 9.2 0 0 1 7 .82 9.35 9.35 0 0 1 4.44 5.52zM98 7l10.9-3v-6.7L96.34.89a9.41 9.41 0 0 0-6.93 8.38 9.56 9.56 0 0 0 4.88 9 9.43 9.43 0 0 0 7.19.81l1.13-.32v6.18l3.56-1.08c1.41-.4 1.44-3.15 1.44-3.15V10.37l-7.9 2.53a3.09 3.09 0 0 1-3.62-4.46A3.06 3.06 0 0 1 98 7z"/><path class="cls-6" d="M121.19 9.92a9.4 9.4 0 0 1-6.48 11.49l-10.85 3V18l9.31-2.57a3.09 3.09 0 0 0 2-4 3.13 3.13 0 0 0-3.82-1.87l-8.78 2.57v-4A2.94 2.94 0 0 1 104.81 5l4.94-1.42a9.2 9.2 0 0 1 7 .82 9.35 9.35 0 0 1 4.44 5.52z"/><path class="cls-6" d="M96.09 8.44a3.09 3.09 0 0 0 3.62 4.46l7.9-2.53 1.25 6.4v3.94a3.28 3.28 0 0 1-2.38 3.16L102.61 25v-6.24l-1.14.33a9.44 9.44 0 0 1-7.19-.82 9.56 9.56 0 0 1-4.88-9A9.39 9.39 0 0 1 96.33.89l12.53-3.6v6.62L98 7a3.06 3.06 0 0 0-1.91 1.44z"/><path class="cls-5" d="M121.19 51.13a9.41 9.41 0 0 1-6.48 11.5l-10.85 3v-6.4l9.31-2.57a3.09 3.09 0 0 0 2-4 3.14 3.14 0 0 0-3.82-1.88l-8.78 2.57v-4a2.94 2.94 0 0 1 2.2-3.16l4.94-1.42a9.2 9.2 0 0 1 7 .83 9.3 9.3 0 0 1 4.48 5.53zM98 48.16l10.9-3v-6.65L96.34 42.1a9.41 9.41 0 0 0-6.93 8.39 9.55 9.55 0 0 0 4.88 9 9.43 9.43 0 0 0 7.19.82l1.13-.33v6.18l3.56-1.07c1.41-.41 1.44-3.16 1.44-3.16V51.58l-7.9 2.54a3.1 3.1 0 0 1-3.62-4.47A3.1 3.1 0 0 1 98 48.16z"/><path class="cls-6" d="M121.19 51.13a9.41 9.41 0 0 1-6.48 11.5l-10.85 3v-6.4l9.31-2.57a3.09 3.09 0 0 0 2-4 3.14 3.14 0 0 0-3.82-1.88l-8.78 2.57v-4a2.94 2.94 0 0 1 2.2-3.16l4.94-1.42a9.2 9.2 0 0 1 7 .83 9.3 9.3 0 0 1 4.48 5.53z"/><path class="cls-6" d="M96.09 49.65a3.1 3.1 0 0 0 3.62 4.47l7.9-2.54 1.25 6.42v3.94a3.3 3.3 0 0 1-2.38 3.16l-3.87 1.11V60l-1.14.32a9.44 9.44 0 0 1-7.19-.81 9.57 9.57 0 0 1-4.88-9 9.41 9.41 0 0 1 6.93-8.39l12.53-3.6v6.62l-10.9 3a3.1 3.1 0 0 0-1.87 1.51z"/><path class="cls-5" d="M121.19 92.34a9.41 9.41 0 0 1-6.48 11.5l-10.85 3v-6.4l9.31-2.58a3 3 0 0 0 1.83-1.45 3.08 3.08 0 0 0 .2-2.56 3.13 3.13 0 0 0-3.81-1.85l-8.78 2.57v-4a2.93 2.93 0 0 1 2.2-3.15l4.94-1.42a9.16 9.16 0 0 1 7 .82 9.3 9.3 0 0 1 4.44 5.52zM98 89.37l10.9-3v-6.65l-12.52 3.6a9.39 9.39 0 0 0-6.93 8.38 9.55 9.55 0 0 0 4.88 9 9.39 9.39 0 0 0 7.19.82l1.13-.32v6.17l3.56-1.07c1.41-.4 1.44-3.16 1.44-3.16V92.79l-7.9 2.54a3.14 3.14 0 0 1-3.89-2.08A3.14 3.14 0 0 1 98 89.37z"/><path class="cls-6" d="M121.19 92.34a9.41 9.41 0 0 1-6.48 11.5l-10.85 3v-6.4l9.31-2.58a3 3 0 0 0 1.83-1.45 3.08 3.08 0 0 0 .2-2.56 3.13 3.13 0 0 0-3.81-1.85l-8.78 2.57v-4a2.93 2.93 0 0 1 2.2-3.15l4.94-1.42a9.16 9.16 0 0 1 7 .82 9.3 9.3 0 0 1 4.44 5.52z"/><path class="cls-6" d="M96.09 90.87a3.1 3.1 0 0 0-.27 2.38 3.14 3.14 0 0 0 3.89 2.08l7.9-2.54 1.25 6.41v3.94a3.29 3.29 0 0 1-2.38 3.16l-3.87 1.11v-6.22l-1.14.33a9.44 9.44 0 0 1-7.19-.82 9.56 9.56 0 0 1-4.88-9 9.39 9.39 0 0 1 6.93-8.38l12.53-3.6v6.61l-10.9 3a3.08 3.08 0 0 0-1.87 1.54z"/><path class="cls-5" d="M121.19 133.56a9.4 9.4 0 0 1-6.48 11.49l-10.85 3v-6.41l9.31-2.57a3.09 3.09 0 0 0 2-4 3.13 3.13 0 0 0-3.82-1.87l-8.78 2.57v-4a2.94 2.94 0 0 1 2.2-3.16l4.94-1.42a9.24 9.24 0 0 1 7 .82 9.35 9.35 0 0 1 4.48 5.55zm-23.23-3l10.9-3v-6.61l-12.52 3.59a9.41 9.41 0 0 0-6.93 8.39 9.56 9.56 0 0 0 4.88 9 9.39 9.39 0 0 0 7.19.81l1.13-.32v6.18l3.56-1.08c1.41-.4 1.44-3.15 1.44-3.15V134l-7.9 2.53a3.09 3.09 0 0 1-3.62-4.46 3.06 3.06 0 0 1 1.91-1.48z"/><path class="cls-6" d="M121.19 133.56a9.4 9.4 0 0 1-6.48 11.49l-10.85 3v-6.41l9.31-2.57a3.09 3.09 0 0 0 2-4 3.13 3.13 0 0 0-3.82-1.87l-8.78 2.57v-4a2.94 2.94 0 0 1 2.2-3.16l4.94-1.42a9.24 9.24 0 0 1 7 .82 9.35 9.35 0 0 1 4.48 5.55z"/><path class="cls-6" d="M96.09 132.08a3.09 3.09 0 0 0 3.62 4.46l7.9-2.53 1.25 6.4v4a3.28 3.28 0 0 1-2.38 3.15l-3.87 1.11v-6.27l-1.14.33a9.4 9.4 0 0 1-7.19-.82 9.56 9.56 0 0 1-4.88-9 9.4 9.4 0 0 1 6.93-8.38l12.53-3.6v6.62l-10.9 3a3.06 3.06 0 0 0-1.87 1.53z"/><path class="cls-5" d="M121.19 174.77a9.41 9.41 0 0 1-6.48 11.5l-10.85 3v-6.41l9.31-2.57a3.09 3.09 0 0 0 2-4 3.14 3.14 0 0 0-3.82-1.88l-8.74 2.59v-4a3 3 0 0 1 2.2-3.16l4.94-1.42a9.2 9.2 0 0 1 7 .83 9.3 9.3 0 0 1 4.44 5.52zM98 171.8l10.9-3v-6.61l-12.52 3.6a9.39 9.39 0 0 0-6.93 8.38 9.55 9.55 0 0 0 4.88 9 9.43 9.43 0 0 0 7.19.82l1.13-.33v6.18l3.56-1.07c1.41-.41 1.44-3.16 1.44-3.16v-10.39l-7.9 2.54a3.1 3.1 0 0 1-3.62-4.47A3.1 3.1 0 0 1 98 171.8z"/><path class="cls-6" d="M121.19 174.77a9.41 9.41 0 0 1-6.48 11.5l-10.85 3v-6.41l9.31-2.57a3.09 3.09 0 0 0 2-4 3.14 3.14 0 0 0-3.82-1.88l-8.74 2.59v-4a3 3 0 0 1 2.2-3.16l4.94-1.42a9.2 9.2 0 0 1 7 .83 9.3 9.3 0 0 1 4.44 5.52z"/><path class="cls-6" d="M96.09 173.29a3.1 3.1 0 0 0 3.62 4.47l7.9-2.54 1.25 6.41v3.94a3.3 3.3 0 0 1-2.38 3.16l-3.87 1.11v-6.22l-1.14.32a9.44 9.44 0 0 1-7.19-.81 9.57 9.57 0 0 1-4.88-9 9.41 9.41 0 0 1 6.93-8.39l12.53-3.6v6.62l-10.9 3a3.1 3.1 0 0 0-1.87 1.53z"/><path class="cls-5" d="M121.19 216a9.4 9.4 0 0 1-6.48 11.5l-10.85 3v-6.41l9.31-2.57a3.09 3.09 0 0 0 2-4 3.13 3.13 0 0 0-3.82-1.87l-8.78 2.57v-4a2.93 2.93 0 0 1 2.2-3.15l4.94-1.42a9.16 9.16 0 0 1 7 .82 9.3 9.3 0 0 1 4.48 5.53zM98 213l10.9-3v-6.61L96.34 207a9.4 9.4 0 0 0-6.93 8.38 9.57 9.57 0 0 0 4.88 9 9.43 9.43 0 0 0 7.19.81l1.13-.32V231l3.56-1.07c1.41-.4 1.44-3.16 1.44-3.16v-10.34l-7.9 2.57a3.14 3.14 0 0 1-3.89-2.08A3.14 3.14 0 0 1 98 213z"/><path class="cls-6" d="M121.19 216a9.4 9.4 0 0 1-6.48 11.5l-10.85 3v-6.41l9.31-2.57a3.09 3.09 0 0 0 2-4 3.13 3.13 0 0 0-3.82-1.87l-8.78 2.57v-4a2.93 2.93 0 0 1 2.2-3.15l4.94-1.42a9.16 9.16 0 0 1 7 .82 9.3 9.3 0 0 1 4.48 5.53z"/><path class="cls-6" d="M96.09 214.51a3.1 3.1 0 0 0-.27 2.38 3.14 3.14 0 0 0 3.89 2.11l7.9-2.54 1.25 6.41v3.94a3.28 3.28 0 0 1-2.38 3.16l-3.87 1.11v-6.22l-1.14.33a9.44 9.44 0 0 1-7.19-.82 9.56 9.56 0 0 1-4.88-9 9.39 9.39 0 0 1 6.93-8.37l12.53-3.6v6.6L98 213a3.08 3.08 0 0 0-1.91 1.51z"/><path class="cls-5" d="M121.19 257.2a9.4 9.4 0 0 1-6.48 11.49l-10.85 3v-6.39l9.31-2.57a3.09 3.09 0 0 0 2-4 3.13 3.13 0 0 0-3.82-1.87l-8.78 2.57v-4a2.94 2.94 0 0 1 2.2-3.16l4.94-1.42a9.24 9.24 0 0 1 7 .82 9.35 9.35 0 0 1 4.48 5.53zm-23.23-3l10.9-3v-6.61l-12.52 3.59a9.41 9.41 0 0 0-6.93 8.39 9.56 9.56 0 0 0 4.88 9 9.43 9.43 0 0 0 7.19.82l1.13-.33v6.18l3.56-1.07c1.41-.41 1.44-3.16 1.44-3.16v-10.36l-7.9 2.53a3.09 3.09 0 0 1-3.62-4.46 3.1 3.1 0 0 1 1.91-1.49z"/><path class="cls-6" d="M121.19 257.2a9.4 9.4 0 0 1-6.48 11.49l-10.85 3v-6.39l9.31-2.57a3.09 3.09 0 0 0 2-4 3.13 3.13 0 0 0-3.82-1.87l-8.78 2.57v-4a2.94 2.94 0 0 1 2.2-3.16l4.94-1.42a9.24 9.24 0 0 1 7 .82 9.35 9.35 0 0 1 4.48 5.53z"/><path class="cls-6" d="M96.09 255.72a3.09 3.09 0 0 0 3.62 4.46l7.9-2.53 1.25 6.4V268a3.28 3.28 0 0 1-2.38 3.15l-3.87 1.12v-6.22l-1.14.32a9.4 9.4 0 0 1-7.19-.82 9.56 9.56 0 0 1-4.88-9 9.41 9.41 0 0 1 6.93-8.38l12.53-3.6v6.62l-10.9 3a3.1 3.1 0 0 0-1.87 1.53z"/><path class="cls-5" d="M159.22-8.64a9.4 9.4 0 0 1-6.48 11.5l-11.38 3v-6.4l9.84-2.57a3.05 3.05 0 0 0 1.8-1.46 3.08 3.08 0 0 0 .2-2.56A3.13 3.13 0 0 0 149.42-9l-9.31 2.57v-4a4.22 4.22 0 0 1 2.73-3.16l4.95-1.41a9.18 9.18 0 0 1 7 .83 9.26 9.26 0 0 1 4.43 5.53zm-23.23-3l11.62-3V-21l-13.19 3.49A9.4 9.4 0 0 0 127.94-6a9.22 9.22 0 0 0 4.39 5.48 9.18 9.18 0 0 0 7 .8l.75-.32v6.47L144 5.32a3.3 3.3 0 0 0 2.38-3.16V-8.19l-8.62 2.54a3.15 3.15 0 0 1-3.89-2.08 3.13 3.13 0 0 1 .27-2.39 3.12 3.12 0 0 1 1.86-1.49z"/><path class="cls-6" d="M159.22-8.64a9.4 9.4 0 0 1-6.48 11.5l-11.38 3v-6.4l9.84-2.57a3.05 3.05 0 0 0 1.8-1.46 3.08 3.08 0 0 0 .2-2.56A3.13 3.13 0 0 0 149.42-9l-9.31 2.57v-4a4.22 4.22 0 0 1 2.73-3.16l4.95-1.41a9.18 9.18 0 0 1 7 .83 9.26 9.26 0 0 1 4.43 5.53z"/><path class="cls-6" d="M134.12-10.12a3.13 3.13 0 0 0-.27 2.39 3.15 3.15 0 0 0 3.89 2.08l8.62-2.54 1.25 6.41v3.93s-2 2.76-3.41 3.16l-4.09 1.07V.21L139 .53a9.39 9.39 0 0 1-7.19-.81 9.57 9.57 0 0 1-4.88-9 9.41 9.41 0 0 1 6.93-8.39l12.53-3.59v6.61l-10.37 3a3.12 3.12 0 0 0-1.9 1.53z"/><path class="cls-5" d="M159.22 32.58a9.39 9.39 0 0 1-6.48 11.49l-11.38 3v-6.39l9.84-2.57a3.09 3.09 0 0 0 2-4 3.13 3.13 0 0 0-3.82-1.87l-9.31 2.57v-4a4.19 4.19 0 0 1 2.73-3.16l4.95-1.42a9.14 9.14 0 0 1 7 .82 9.25 9.25 0 0 1 4.47 5.53zM136 29.6l11.62-3v-6.39l-13.2 3.49a9.4 9.4 0 0 0-6.48 11.53 9.25 9.25 0 0 0 11.42 6.28l.75-.32v6.45l3.89-1.11a3.28 3.28 0 0 0 2.38-3.16V33l-8.62 2.54a3.14 3.14 0 0 1-3.89-2.08 3.1 3.1 0 0 1 .27-2.38A3.14 3.14 0 0 1 136 29.6z"/><path class="cls-6" d="M159.22 32.58a9.39 9.39 0 0 1-6.48 11.49l-11.38 3v-6.39l9.84-2.57a3.09 3.09 0 0 0 2-4 3.13 3.13 0 0 0-3.82-1.87l-9.31 2.57v-4a4.19 4.19 0 0 1 2.73-3.16l4.95-1.42a9.14 9.14 0 0 1 7 .82 9.25 9.25 0 0 1 4.47 5.53z"/><path class="cls-6" d="M134.12 31.1a3.1 3.1 0 0 0-.27 2.38 3.14 3.14 0 0 0 3.89 2.08l8.62-2.56 1.25 6.41v3.94s-2 2.75-3.41 3.15l-4.09 1.07v-6.15l-1.14.33a9.44 9.44 0 0 1-7.19-.82 9.56 9.56 0 0 1-4.88-9 9.39 9.39 0 0 1 6.93-8.38L146.36 20v6.62L136 29.6a3.14 3.14 0 0 0-1.88 1.5z"/><path class="cls-5" d="M159.22 73.79a9.4 9.4 0 0 1-6.48 11.5l-11.38 3v-6.4l9.84-2.57a3 3 0 0 0 1.8-1.47 3.07 3.07 0 0 0 .2-2.56 3.14 3.14 0 0 0-3.82-1.87L140.11 76v-4a4.2 4.2 0 0 1 2.73-3.16l4.95-1.42a9.27 9.27 0 0 1 11.43 6.36zm-23.23-3l11.62-3v-6.37l-13.19 3.49a9.4 9.4 0 0 0-6.48 11.53 9.25 9.25 0 0 0 11.42 6.28l.75-.32v6.46l3.89-1.12a3.28 3.28 0 0 0 2.38-3.15V74.24l-8.62 2.53a3.1 3.1 0 1 1-1.75-6z"/><path class="cls-6" d="M159.22 73.79a9.4 9.4 0 0 1-6.48 11.5l-11.38 3v-6.4l9.84-2.57a3 3 0 0 0 1.8-1.47 3.07 3.07 0 0 0 .2-2.56 3.14 3.14 0 0 0-3.82-1.87L140.11 76v-4a4.2 4.2 0 0 1 2.73-3.16l4.95-1.42a9.27 9.27 0 0 1 11.43 6.36z"/><path class="cls-6" d="M134.12 72.31a3.09 3.09 0 0 0 3.62 4.46l8.62-2.53 1.25 6.41v3.93s-2 2.75-3.41 3.16l-4.09 1.07v-6.17L139 83a9.4 9.4 0 0 1-7.19-.82 9.55 9.55 0 0 1-4.88-9 9.41 9.41 0 0 1 6.93-8.38l12.53-3.6v6.62l-10.37 3a3.12 3.12 0 0 0-1.9 1.49z"/><path class="cls-5" d="M159.22 115a9.4 9.4 0 0 1-6.48 11.5l-11.38 3v-6.4l9.84-2.58a3.08 3.08 0 0 0 2-4 3.13 3.13 0 0 0-3.82-1.87l-9.31 2.57v-4a4.22 4.22 0 0 1 2.73-3.16l4.95-1.41a9.14 9.14 0 0 1 7 .82 9.26 9.26 0 0 1 4.47 5.53zM136 112l11.62-3v-6.35l-13.19 3.49a9.4 9.4 0 0 0-6.48 11.52 9.25 9.25 0 0 0 11.42 6.28l.75-.32v6.46L144 129a3.29 3.29 0 0 0 2.38-3.16v-10.39l-8.64 2.55a3.11 3.11 0 1 1-1.75-6z"/><path class="cls-6" d="M159.22 115a9.4 9.4 0 0 1-6.48 11.5l-11.38 3v-6.4l9.84-2.58a3.08 3.08 0 0 0 2-4 3.13 3.13 0 0 0-3.82-1.87l-9.31 2.57v-4a4.22 4.22 0 0 1 2.73-3.16l4.95-1.41a9.14 9.14 0 0 1 7 .82 9.26 9.26 0 0 1 4.47 5.53z"/><path class="cls-6" d="M134.12 113.52a3.1 3.1 0 0 0 3.62 4.47l8.62-2.54 1.25 6.41v3.93s-2 2.76-3.41 3.16l-4.09 1.05v-6.17l-1.14.33a9.44 9.44 0 0 1-7.19-.82 9.57 9.57 0 0 1-4.88-9 9.41 9.41 0 0 1 6.93-8.39l12.53-3.59V109L136 112a3.12 3.12 0 0 0-1.88 1.52z"/><path class="cls-5" d="M159.22 156.22a9.39 9.39 0 0 1-6.48 11.49l-11.38 3v-6.41l9.84-2.57a3.09 3.09 0 0 0 2-4 3.13 3.13 0 0 0-3.82-1.87l-9.31 2.57v-4a4.19 4.19 0 0 1 2.73-3.16l4.95-1.42a9.18 9.18 0 0 1 7 .82 9.28 9.28 0 0 1 4.47 5.55zm-23.23-3l11.62-3v-6.36l-13.19 3.49a9.4 9.4 0 0 0-6.48 11.53 9.25 9.25 0 0 0 11.42 6.28l.75-.32v6.45l3.87-1.11a3.28 3.28 0 0 0 2.38-3.16v-10.35l-8.62 2.53a3.14 3.14 0 0 1-3.89-2.08 3.1 3.1 0 0 1 .27-2.38 3.14 3.14 0 0 1 1.88-1.5z"/><path class="cls-6" d="M159.22 156.22a9.39 9.39 0 0 1-6.48 11.49l-11.38 3v-6.41l9.84-2.57a3.09 3.09 0 0 0 2-4 3.13 3.13 0 0 0-3.82-1.87l-9.31 2.57v-4a4.19 4.19 0 0 1 2.73-3.16l4.95-1.42a9.18 9.18 0 0 1 7 .82 9.28 9.28 0 0 1 4.47 5.55z"/><path class="cls-6" d="M134.12 154.74a3.1 3.1 0 0 0-.27 2.38 3.14 3.14 0 0 0 3.89 2.08l8.62-2.53 1.25 6.4V167s-2 2.75-3.41 3.15l-4.09 1.08v-6.18l-1.14.33a9.44 9.44 0 0 1-7.19-.82 9.56 9.56 0 0 1-4.88-9 9.39 9.39 0 0 1 6.93-8.38l12.53-3.6v6.62l-10.37 3a3.14 3.14 0 0 0-1.87 1.54z"/><path class="cls-5" d="M159.22 197.43a9.4 9.4 0 0 1-6.48 11.5l-11.38 3v-6.41l9.84-2.52a3 3 0 0 0 1.84-1.47 3.07 3.07 0 0 0 .2-2.56 3.14 3.14 0 0 0-3.82-1.87l-9.31 2.57v-4a4.2 4.2 0 0 1 2.73-3.16l4.95-1.42a9.27 9.27 0 0 1 11.43 6.36zm-23.23-3l11.62-3v-6.36l-13.19 3.49a9.41 9.41 0 0 0-6.48 11.53 9.25 9.25 0 0 0 11.42 6.28l.75-.32v6.46l3.87-1.11a3.3 3.3 0 0 0 2.38-3.16v-10.36l-8.62 2.54a3.11 3.11 0 1 1-1.75-6z"/><path class="cls-6" d="M159.22 197.43a9.4 9.4 0 0 1-6.48 11.5l-11.38 3v-6.41l9.84-2.52a3 3 0 0 0 1.84-1.47 3.07 3.07 0 0 0 .2-2.56 3.14 3.14 0 0 0-3.82-1.87l-9.31 2.57v-4a4.2 4.2 0 0 1 2.73-3.16l4.95-1.42a9.27 9.27 0 0 1 11.43 6.36z"/><path class="cls-6" d="M134.12 196a3.1 3.1 0 0 0 3.62 4.47l8.62-2.54 1.25 6.41v3.93s-2 2.75-3.41 3.16l-4.09 1.07v-6.17l-1.14.32a9.44 9.44 0 0 1-7.19-.81 9.57 9.57 0 0 1-4.88-9 9.41 9.41 0 0 1 6.93-8.39l12.53-3.6v6.62l-10.37 3a3.12 3.12 0 0 0-1.87 1.53z"/><path class="cls-5" d="M159.22 238.64a9.4 9.4 0 0 1-6.48 11.5l-11.38 3v-6.4l9.84-2.58a3 3 0 0 0 1.84-1.46 3.08 3.08 0 0 0 .2-2.56 3.13 3.13 0 0 0-3.82-1.87l-9.31 2.57v-4a4.22 4.22 0 0 1 2.73-3.16l4.95-1.41a9.14 9.14 0 0 1 7 .82 9.26 9.26 0 0 1 4.43 5.55zm-23.23-3l11.62-3v-6.35l-13.19 3.49a9.4 9.4 0 0 0-6.48 11.52 9.23 9.23 0 0 0 11.42 6.28l.75-.32v6.46l3.89-1.12a3.29 3.29 0 0 0 2.38-3.16v-10.35l-8.62 2.54a3.11 3.11 0 1 1-1.75-6z"/><path class="cls-6" d="M159.22 238.64a9.4 9.4 0 0 1-6.48 11.5l-11.38 3v-6.4l9.84-2.58a3 3 0 0 0 1.84-1.46 3.08 3.08 0 0 0 .2-2.56 3.13 3.13 0 0 0-3.82-1.87l-9.31 2.57v-4a4.22 4.22 0 0 1 2.73-3.16l4.95-1.41a9.14 9.14 0 0 1 7 .82 9.26 9.26 0 0 1 4.43 5.55z"/><path class="cls-6" d="M134.12 237.16a3.1 3.1 0 0 0 3.62 4.47l8.62-2.54 1.25 6.41v3.93s-2 2.76-3.41 3.16l-4.09 1.07v-6.17l-1.14.33a9.44 9.44 0 0 1-7.19-.82 9.56 9.56 0 0 1-4.88-9 9.41 9.41 0 0 1 6.93-8.39l12.53-3.61v6.61l-10.37 3a3.12 3.12 0 0 0-1.87 1.55z"/><path class="cls-5" d="M159.22 279.86a9.39 9.39 0 0 1-6.48 11.49l-11.38 3V288l9.84-2.57a3.09 3.09 0 0 0 2-4 3.13 3.13 0 0 0-3.82-1.87l-9.31 2.57v-4a4.19 4.19 0 0 1 2.73-3.16l4.95-1.42a9.18 9.18 0 0 1 7 .82 9.31 9.31 0 0 1 4.47 5.49zm-23.23-3l11.62-3v-6.36l-13.19 3.5a9.4 9.4 0 0 0-6.48 11.53 9.25 9.25 0 0 0 11.42 6.28l.75-.32v6.45l3.87-1.11a3.28 3.28 0 0 0 2.38-3.16v-10.36l-8.62 2.53a3.09 3.09 0 0 1-3.62-4.46 3.09 3.09 0 0 1 1.88-1.49z"/><path class="cls-6" d="M134.12 278.38a3.09 3.09 0 0 0 3.62 4.46l8.62-2.53 1.25 6.4v3.94s-2 2.75-3.41 3.15l-4.09 1.08v-6.18l-1.11.3a9.44 9.44 0 0 1-7.19-.82 9.56 9.56 0 0 1-4.88-9 9.39 9.39 0 0 1 6.93-8.38l12.53-3.6v6.62l-10.37 3a3.09 3.09 0 0 0-1.9 1.56z"/><path class="cls-5" d="M197.26 9.92a9.4 9.4 0 0 1-6.49 11.49l-10.66 3V18l9.12-2.57a3.12 3.12 0 0 0 1.85-1.43 3.07 3.07 0 0 0 .19-2.56 3.13 3.13 0 0 0-3.82-1.87l-8.59 2.57v-4a2.66 2.66 0 0 1 2-3.16l4.94-1.42a9.18 9.18 0 0 1 7 .82 9.33 9.33 0 0 1 4.46 5.54zM174 7l11.08-3v-6.7L172.59.89a9.41 9.41 0 0 0-6.93 8.38 9.56 9.56 0 0 0 4.88 9 9.43 9.43 0 0 0 7.19.81l1.13-.32v6.18l3.38-1.08c1.4-.4 1.62-3.15 1.62-3.15V10.37l-8.08 2.53a3.09 3.09 0 0 1-3.63-4.46A3.11 3.11 0 0 1 174 7z"/><path class="cls-6" d="M197.26 9.92a9.4 9.4 0 0 1-6.49 11.49l-10.66 3V18l9.12-2.57a3.12 3.12 0 0 0 1.85-1.43 3.07 3.07 0 0 0 .19-2.56 3.13 3.13 0 0 0-3.82-1.87l-8.59 2.57v-4a2.66 2.66 0 0 1 2-3.16l4.94-1.42a9.18 9.18 0 0 1 7 .82 9.33 9.33 0 0 1 4.46 5.54z"/><path class="cls-6" d="M172.15 8.44a3.09 3.09 0 0 0 3.63 4.46l8.08-2.53 1.25 6.4v3.94a3.28 3.28 0 0 1-2.38 3.16L178.86 25v-6.24l-1.14.33a9.44 9.44 0 0 1-7.19-.82 9.56 9.56 0 0 1-4.88-9 9.39 9.39 0 0 1 6.93-8.38l12.53-3.6v6.62L174 7a3.11 3.11 0 0 0-1.85 1.44z"/><path class="cls-5" d="M197.26 51.13a9.42 9.42 0 0 1-6.49 11.5l-10.66 3v-6.4l9.12-2.57a3.07 3.07 0 0 0 2-4 3.14 3.14 0 0 0-3.82-1.88l-8.59 2.57v-4a2.66 2.66 0 0 1 2-3.16l4.94-1.42a9.18 9.18 0 0 1 7 .83 9.28 9.28 0 0 1 4.5 5.53zm-23.23-3l11.08-3v-6.62l-12.52 3.59a9.41 9.41 0 0 0-6.93 8.39 9.55 9.55 0 0 0 4.88 9 9.43 9.43 0 0 0 7.19.82l1.13-.33v6.18l3.38-1.07c1.4-.41 1.62-3.16 1.62-3.16V51.58l-8.08 2.54a3.11 3.11 0 1 1-1.75-6z"/><path class="cls-6" d="M197.26 51.13a9.42 9.42 0 0 1-6.49 11.5l-10.66 3v-6.4l9.12-2.57a3.07 3.07 0 0 0 2-4 3.14 3.14 0 0 0-3.82-1.88l-8.59 2.57v-4a2.66 2.66 0 0 1 2-3.16l4.94-1.42a9.18 9.18 0 0 1 7 .83 9.28 9.28 0 0 1 4.5 5.53z"/><path class="cls-6" d="M172.15 49.65a3.1 3.1 0 0 0 3.63 4.47l8.08-2.54 1.25 6.42v3.94a3.3 3.3 0 0 1-2.38 3.16l-3.87 1.11V60l-1.14.32a9.44 9.44 0 0 1-7.19-.81 9.57 9.57 0 0 1-4.88-9 9.41 9.41 0 0 1 6.93-8.39l12.53-3.6v6.62l-11.08 3a3.14 3.14 0 0 0-1.88 1.51z"/><path class="cls-5" d="M197.26 92.34a9.41 9.41 0 0 1-6.49 11.5l-10.66 3v-6.4l9.12-2.58a3.06 3.06 0 0 0 2-4 3.13 3.13 0 0 0-3.78-1.86l-8.59 2.57v-4a2.65 2.65 0 0 1 2-3.15l4.96-1.42a9.14 9.14 0 0 1 7 .82 9.28 9.28 0 0 1 4.44 5.52zm-23.23-3l11.08-3v-6.62l-12.52 3.6a9.39 9.39 0 0 0-6.93 8.38 9.55 9.55 0 0 0 4.88 9 9.39 9.39 0 0 0 7.19.82l1.13-.32v6.17l3.38-1.07c1.4-.4 1.62-3.16 1.62-3.16V92.79l-8.08 2.54a3.14 3.14 0 0 1-3.9-2.08 3.14 3.14 0 0 1 2.12-3.88z"/><path class="cls-6" d="M197.26 92.34a9.41 9.41 0 0 1-6.49 11.5l-10.66 3v-6.4l9.12-2.58a3.06 3.06 0 0 0 2-4 3.13 3.13 0 0 0-3.78-1.86l-8.59 2.57v-4a2.65 2.65 0 0 1 2-3.15l4.96-1.42a9.14 9.14 0 0 1 7 .82 9.28 9.28 0 0 1 4.44 5.52z"/><path class="cls-6" d="M172.15 90.87a3.1 3.1 0 0 0-.27 2.38 3.14 3.14 0 0 0 3.9 2.08l8.08-2.54 1.25 6.41v3.94a3.29 3.29 0 0 1-2.38 3.16l-3.87 1.11v-6.22l-1.14.33a9.44 9.44 0 0 1-7.19-.82 9.56 9.56 0 0 1-4.88-9 9.39 9.39 0 0 1 6.93-8.38l12.53-3.6v6.61l-11.08 3a3.12 3.12 0 0 0-1.88 1.54z"/><path class="cls-5" d="M197.26 133.56a9.4 9.4 0 0 1-6.49 11.49l-10.66 3v-6.41l9.12-2.57a3.12 3.12 0 0 0 1.85-1.47 3.07 3.07 0 0 0 .19-2.56 3.13 3.13 0 0 0-3.82-1.87l-8.59 2.57v-4a2.66 2.66 0 0 1 2-3.16l4.94-1.42a9.22 9.22 0 0 1 7 .82 9.33 9.33 0 0 1 4.46 5.58zm-23.23-3l11.08-3v-6.61l-12.52 3.59a9.41 9.41 0 0 0-6.93 8.39 9.56 9.56 0 0 0 4.88 9 9.39 9.39 0 0 0 7.19.81l1.13-.32v6.18l3.38-1.08c1.4-.4 1.62-3.15 1.62-3.15V134l-8.08 2.53a3.09 3.09 0 0 1-3.63-4.46 3.11 3.11 0 0 1 1.85-1.48z"/><path class="cls-6" d="M197.26 133.56a9.4 9.4 0 0 1-6.49 11.49l-10.66 3v-6.41l9.12-2.57a3.12 3.12 0 0 0 1.85-1.47 3.07 3.07 0 0 0 .19-2.56 3.13 3.13 0 0 0-3.82-1.87l-8.59 2.57v-4a2.66 2.66 0 0 1 2-3.16l4.94-1.42a9.22 9.22 0 0 1 7 .82 9.33 9.33 0 0 1 4.46 5.58z"/><path class="cls-6" d="M172.15 132.08a3.09 3.09 0 0 0 3.63 4.46l8.08-2.53 1.25 6.4v4a3.28 3.28 0 0 1-2.38 3.15l-3.87 1.11v-6.27l-1.14.33a9.4 9.4 0 0 1-7.19-.82 9.56 9.56 0 0 1-4.88-9 9.4 9.4 0 0 1 6.93-8.38l12.53-3.6v6.62l-11.08 3a3.11 3.11 0 0 0-1.88 1.53z"/><path class="cls-5" d="M197.26 174.77a9.42 9.42 0 0 1-6.49 11.5l-10.66 3v-6.41l9.12-2.57a3.08 3.08 0 0 0 1.85-1.47 3.05 3.05 0 0 0 .19-2.55 3.14 3.14 0 0 0-3.82-1.88l-8.59 2.61v-4a2.66 2.66 0 0 1 2-3.16l4.94-1.42a9.18 9.18 0 0 1 7 .83 9.28 9.28 0 0 1 4.46 5.52zm-23.23-3l11.08-3v-6.61l-12.52 3.6a9.39 9.39 0 0 0-6.93 8.38 9.55 9.55 0 0 0 4.88 9 9.43 9.43 0 0 0 7.19.82l1.13-.33v6.18l3.38-1.07c1.4-.41 1.62-3.16 1.62-3.16v-10.36l-8.08 2.54a3.11 3.11 0 1 1-1.75-6z"/><path class="cls-6" d="M197.26 174.77a9.42 9.42 0 0 1-6.49 11.5l-10.66 3v-6.41l9.12-2.57a3.08 3.08 0 0 0 1.85-1.47 3.05 3.05 0 0 0 .19-2.55 3.14 3.14 0 0 0-3.82-1.88l-8.59 2.61v-4a2.66 2.66 0 0 1 2-3.16l4.94-1.42a9.18 9.18 0 0 1 7 .83 9.28 9.28 0 0 1 4.46 5.52z"/><path class="cls-6" d="M172.15 173.29a3.1 3.1 0 0 0 3.63 4.47l8.08-2.54 1.25 6.41v3.94a3.3 3.3 0 0 1-2.38 3.16l-3.87 1.11v-6.22l-1.14.32a9.44 9.44 0 0 1-7.19-.81 9.57 9.57 0 0 1-4.88-9 9.41 9.41 0 0 1 6.93-8.39l12.53-3.6v6.62l-11.08 3a3.14 3.14 0 0 0-1.88 1.53z"/><path class="cls-5" d="M197.26 216a9.41 9.41 0 0 1-6.49 11.5l-10.66 3v-6.41l9.12-2.57a3.12 3.12 0 0 0 1.85-1.47 3.08 3.08 0 0 0 .19-2.56 3.13 3.13 0 0 0-3.82-1.87l-8.59 2.57v-4a2.65 2.65 0 0 1 2-3.15l4.94-1.42a9.14 9.14 0 0 1 7 .82 9.28 9.28 0 0 1 4.46 5.56zM174 213l11.08-3v-6.61L172.59 207a9.4 9.4 0 0 0-6.93 8.38 9.57 9.57 0 0 0 4.88 9 9.43 9.43 0 0 0 7.19.81l1.13-.32V231l3.38-1.07c1.4-.4 1.62-3.16 1.62-3.16v-10.34l-8.08 2.57a3.14 3.14 0 0 1-3.9-2.08A3.14 3.14 0 0 1 174 213z"/><path class="cls-6" d="M197.26 216a9.41 9.41 0 0 1-6.49 11.5l-10.66 3v-6.41l9.12-2.57a3.12 3.12 0 0 0 1.85-1.47 3.08 3.08 0 0 0 .19-2.56 3.13 3.13 0 0 0-3.82-1.87l-8.59 2.57v-4a2.65 2.65 0 0 1 2-3.15l4.94-1.42a9.14 9.14 0 0 1 7 .82 9.28 9.28 0 0 1 4.46 5.56z"/><path class="cls-6" d="M172.15 214.51a3.1 3.1 0 0 0-.27 2.38 3.14 3.14 0 0 0 3.9 2.08l8.08-2.54 1.25 6.41v3.94a3.28 3.28 0 0 1-2.38 3.16l-3.87 1.11v-6.22l-1.14.33a9.44 9.44 0 0 1-7.19-.82 9.56 9.56 0 0 1-4.88-9 9.39 9.39 0 0 1 6.93-8.38l12.53-3.6V210L174 213a3.12 3.12 0 0 0-1.85 1.51z"/><path class="cls-5" d="M197.26 257.2a9.4 9.4 0 0 1-6.49 11.49l-10.66 3v-6.39l9.12-2.57a3.12 3.12 0 0 0 1.85-1.47 3.07 3.07 0 0 0 .19-2.56 3.13 3.13 0 0 0-3.82-1.87l-8.59 2.57v-4a2.66 2.66 0 0 1 2-3.16l4.94-1.42a9.22 9.22 0 0 1 7 .82 9.33 9.33 0 0 1 4.46 5.56zm-23.23-3l11.08-3v-6.61l-12.52 3.59a9.41 9.41 0 0 0-6.93 8.39 9.56 9.56 0 0 0 4.88 9 9.43 9.43 0 0 0 7.19.82l1.13-.33v6.18l3.38-1.07c1.4-.41 1.62-3.16 1.62-3.16v-10.36l-8.08 2.53a3.1 3.1 0 1 1-1.75-6z"/><path class="cls-6" d="M197.26 257.2a9.4 9.4 0 0 1-6.49 11.49l-10.66 3v-6.39l9.12-2.57a3.12 3.12 0 0 0 1.85-1.47 3.07 3.07 0 0 0 .19-2.56 3.13 3.13 0 0 0-3.82-1.87l-8.59 2.57v-4a2.66 2.66 0 0 1 2-3.16l4.94-1.42a9.22 9.22 0 0 1 7 .82 9.33 9.33 0 0 1 4.46 5.56z"/><path class="cls-6" d="M172.15 255.72a3.09 3.09 0 0 0 3.63 4.46l8.08-2.53 1.25 6.4V268a3.28 3.28 0 0 1-2.38 3.15l-3.87 1.12v-6.22l-1.14.32a9.4 9.4 0 0 1-7.19-.82 9.56 9.56 0 0 1-4.88-9 9.41 9.41 0 0 1 6.93-8.38l12.53-3.6v6.62l-11.08 3a3.14 3.14 0 0 0-1.88 1.53z"/><path class="cls-5" d="M235.29-8.64a9.41 9.41 0 0 1-6.48 11.5l-11.2 3v-6.4l9.65-2.57a3.07 3.07 0 0 0 1.85-1.46 3 3 0 0 0 .19-2.56A3.12 3.12 0 0 0 225.49-9l-9.13 2.57v-4a3.69 3.69 0 0 1 2.55-3.16l4.94-1.41a9.21 9.21 0 0 1 7 .83 9.3 9.3 0 0 1 4.44 5.53zm-23.23-3l11.8-3V-21l-13.38 3.49A9.39 9.39 0 0 0 204-6a9.19 9.19 0 0 0 4.4 5.49 9.15 9.15 0 0 0 7 .8l.94-.32v6.46l3.87-1.11a3.3 3.3 0 0 0 2.38-3.16V-8.19l-8.8 2.54a3.14 3.14 0 0 1-3.89-2.08 3.13 3.13 0 0 1 .26-2.39 3.14 3.14 0 0 1 1.9-1.49z"/><path class="cls-6" d="M235.29-8.64a9.41 9.41 0 0 1-6.48 11.5l-11.2 3v-6.4l9.65-2.57a3.07 3.07 0 0 0 1.85-1.46 3 3 0 0 0 .19-2.56A3.12 3.12 0 0 0 225.49-9l-9.13 2.57v-4a3.69 3.69 0 0 1 2.55-3.16l4.94-1.41a9.21 9.21 0 0 1 7 .83 9.3 9.3 0 0 1 4.44 5.53z"/><path class="cls-6" d="M210.18-10.12a3.13 3.13 0 0 0-.26 2.39 3.14 3.14 0 0 0 3.89 2.08l8.8-2.54 1.25 6.41v3.93s-2.18 2.76-3.59 3.16l-3.91 1.07V.21l-1.14.32A9.39 9.39 0 0 1 208-.28a9.57 9.57 0 0 1-4.88-9 9.41 9.41 0 0 1 6.93-8.39l12.53-3.59v6.61l-10.55 3a3.14 3.14 0 0 0-1.85 1.53z"/><path class="cls-5" d="M235.29 32.58a9.4 9.4 0 0 1-6.48 11.49l-11.2 3v-6.39l9.65-2.57a3.09 3.09 0 0 0 1.85-1.47 3 3 0 0 0 .19-2.56 3.12 3.12 0 0 0-3.81-1.87l-9.13 2.57v-4a3.66 3.66 0 0 1 2.55-3.16l4.94-1.42a9.17 9.17 0 0 1 7 .82 9.29 9.29 0 0 1 4.44 5.56zm-23.23-3l11.8-3v-6.37l-13.38 3.49A9.4 9.4 0 0 0 204 35.23a9.24 9.24 0 0 0 11.41 6.28l.94-.32v6.45l3.87-1.11a3.28 3.28 0 0 0 2.38-3.16V33l-8.8 2.54a3.11 3.11 0 1 1-1.75-6z"/><path class="cls-6" d="M235.29 32.58a9.4 9.4 0 0 1-6.48 11.49l-11.2 3v-6.39l9.65-2.57a3.09 3.09 0 0 0 1.85-1.47 3 3 0 0 0 .19-2.56 3.12 3.12 0 0 0-3.81-1.87l-9.13 2.57v-4a3.66 3.66 0 0 1 2.55-3.16l4.94-1.42a9.17 9.17 0 0 1 7 .82 9.29 9.29 0 0 1 4.44 5.56z"/><path class="cls-6" d="M210.18 31.1a3.1 3.1 0 0 0 3.63 4.46l8.8-2.54 1.25 6.41v3.94s-2.18 2.75-3.59 3.15l-3.91 1.07v-6.17l-1.14.33a9.44 9.44 0 0 1-7.19-.82 9.56 9.56 0 0 1-4.88-9 9.39 9.39 0 0 1 6.93-8.38L222.61 20v6.62l-10.55 3a3.16 3.16 0 0 0-1.88 1.48z"/><path class="cls-5" d="M235.29 73.79a9.41 9.41 0 0 1-6.48 11.5l-11.2 3v-6.4l9.65-2.57a3.07 3.07 0 0 0 2-4 3.13 3.13 0 0 0-3.81-1.87L216.36 76v-4a3.68 3.68 0 0 1 2.55-3.16l4.94-1.42a9.27 9.27 0 0 1 11.44 6.36zm-23.23-3l11.8-3v-6.37l-13.38 3.49A9.4 9.4 0 0 0 204 76.44a9.24 9.24 0 0 0 11.41 6.28l.94-.32v6.46l3.87-1.12a3.28 3.28 0 0 0 2.38-3.15V74.24l-8.8 2.53a3.1 3.1 0 1 1-1.75-6z"/><path class="cls-6" d="M235.29 73.79a9.41 9.41 0 0 1-6.48 11.5l-11.2 3v-6.4l9.65-2.57a3.07 3.07 0 0 0 2-4 3.13 3.13 0 0 0-3.81-1.87L216.36 76v-4a3.68 3.68 0 0 1 2.55-3.16l4.94-1.42a9.27 9.27 0 0 1 11.44 6.36z"/><path class="cls-6" d="M210.18 72.31a3.1 3.1 0 0 0 3.63 4.46l8.8-2.53 1.25 6.41v3.93s-2.18 2.75-3.59 3.16l-3.91 1.07v-6.17l-1.14.32a9.4 9.4 0 0 1-7.19-.82 9.55 9.55 0 0 1-4.88-9 9.41 9.41 0 0 1 6.93-8.38l12.53-3.6v6.62l-10.55 3a3.14 3.14 0 0 0-1.88 1.53z"/><path class="cls-5" d="M235.29 115a9.41 9.41 0 0 1-6.48 11.5l-11.2 3v-6.4l9.65-2.58a3.07 3.07 0 0 0 1.85-1.46 3 3 0 0 0 .19-2.56 3.12 3.12 0 0 0-3.81-1.87l-9.13 2.57v-4a3.69 3.69 0 0 1 2.55-3.16l4.94-1.41a9.17 9.17 0 0 1 7 .82 9.3 9.3 0 0 1 4.44 5.55zm-23.23-3l11.8-3v-6.35l-13.38 3.49a9.39 9.39 0 0 0-6.48 11.51 9.24 9.24 0 0 0 11.41 6.28l.94-.32v6.46l3.87-1.11a3.29 3.29 0 0 0 2.38-3.16v-10.35l-8.8 2.54a3.11 3.11 0 1 1-1.75-6z"/><path class="cls-6" d="M235.29 115a9.41 9.41 0 0 1-6.48 11.5l-11.2 3v-6.4l9.65-2.58a3.07 3.07 0 0 0 1.85-1.46 3 3 0 0 0 .19-2.56 3.12 3.12 0 0 0-3.81-1.87l-9.13 2.57v-4a3.69 3.69 0 0 1 2.55-3.16l4.94-1.41a9.17 9.17 0 0 1 7 .82 9.3 9.3 0 0 1 4.44 5.55z"/><path class="cls-6" d="M210.18 113.52a3.1 3.1 0 0 0 3.63 4.47l8.8-2.54 1.25 6.41v3.93s-2.18 2.76-3.59 3.16l-3.91 1.05v-6.17l-1.14.33a9.44 9.44 0 0 1-7.19-.82 9.57 9.57 0 0 1-4.88-9 9.41 9.41 0 0 1 6.93-8.39l12.53-3.59V109l-10.55 3a3.14 3.14 0 0 0-1.88 1.52z"/><path class="cls-5" d="M235.29 156.22a9.4 9.4 0 0 1-6.48 11.49l-11.2 3v-6.41l9.65-2.57a3.09 3.09 0 0 0 1.85-1.47 3 3 0 0 0 .19-2.56 3.12 3.12 0 0 0-3.81-1.87l-9.13 2.57v-4a3.66 3.66 0 0 1 2.55-3.16l4.94-1.42a9.21 9.21 0 0 1 7 .82 9.32 9.32 0 0 1 4.44 5.58zm-23.23-3l11.8-3v-6.36l-13.38 3.49a9.4 9.4 0 0 0-6.48 11.52 9.24 9.24 0 0 0 11.41 6.28l.94-.32v6.45l3.87-1.11a3.28 3.28 0 0 0 2.38-3.16v-10.34l-8.8 2.53a3.11 3.11 0 1 1-1.75-6z"/><path class="cls-6" d="M235.29 156.22a9.4 9.4 0 0 1-6.48 11.49l-11.2 3v-6.41l9.65-2.57a3.09 3.09 0 0 0 1.85-1.47 3 3 0 0 0 .19-2.56 3.12 3.12 0 0 0-3.81-1.87l-9.13 2.57v-4a3.66 3.66 0 0 1 2.55-3.16l4.94-1.42a9.21 9.21 0 0 1 7 .82 9.32 9.32 0 0 1 4.44 5.58z"/><path class="cls-6" d="M210.18 154.74a3.1 3.1 0 0 0 3.63 4.46l8.8-2.53 1.25 6.4V167s-2.18 2.75-3.59 3.15l-3.91 1.08v-6.18l-1.14.33a9.44 9.44 0 0 1-7.19-.82 9.56 9.56 0 0 1-4.88-9 9.39 9.39 0 0 1 6.93-8.38l12.53-3.6v6.62l-10.55 3a3.16 3.16 0 0 0-1.88 1.54z"/><path class="cls-5" d="M235.29 197.43a9.41 9.41 0 0 1-6.48 11.5l-11.2 3v-6.41l9.65-2.57a3.07 3.07 0 0 0 2-4 3.13 3.13 0 0 0-3.81-1.87l-9.13 2.57v-4a3.68 3.68 0 0 1 2.55-3.16l4.94-1.42a9.27 9.27 0 0 1 11.44 6.36zm-23.23-3l11.8-3v-6.36l-13.38 3.49a9.4 9.4 0 0 0-6.48 11.52 9.24 9.24 0 0 0 11.41 6.28l.94-.32v6.46l3.87-1.11a3.3 3.3 0 0 0 2.38-3.16v-10.35l-8.8 2.54a3.11 3.11 0 1 1-1.75-6z"/><path class="cls-6" d="M235.29 197.43a9.41 9.41 0 0 1-6.48 11.5l-11.2 3v-6.41l9.65-2.57a3.07 3.07 0 0 0 2-4 3.13 3.13 0 0 0-3.81-1.87l-9.13 2.57v-4a3.68 3.68 0 0 1 2.55-3.16l4.94-1.42a9.27 9.27 0 0 1 11.44 6.36z"/><path class="cls-6" d="M210.18 196a3.1 3.1 0 0 0 3.63 4.47l8.8-2.54 1.25 6.41v3.93s-2.18 2.75-3.59 3.16l-3.91 1.07v-6.17l-1.14.32a9.44 9.44 0 0 1-7.19-.81 9.57 9.57 0 0 1-4.88-9 9.41 9.41 0 0 1 6.93-8.39l12.53-3.6v6.62l-10.55 3a3.14 3.14 0 0 0-1.88 1.53z"/><path class="cls-5" d="M235.29 238.64a9.41 9.41 0 0 1-6.48 11.5l-11.2 3v-6.4l9.65-2.58a3.06 3.06 0 0 0 2-4 3.12 3.12 0 0 0-3.81-1.87l-9.13 2.57v-4a3.69 3.69 0 0 1 2.55-3.16l4.94-1.41a9.17 9.17 0 0 1 7 .82 9.3 9.3 0 0 1 4.48 5.53zm-23.23-3l11.8-3v-6.35l-13.38 3.49a9.39 9.39 0 0 0-6.48 11.51 9.22 9.22 0 0 0 11.41 6.28l.94-.32v6.46l3.87-1.11a3.29 3.29 0 0 0 2.38-3.16v-10.35l-8.8 2.54a3.11 3.11 0 1 1-1.75-6z"/><path class="cls-6" d="M235.29 238.64a9.41 9.41 0 0 1-6.48 11.5l-11.2 3v-6.4l9.65-2.58a3.06 3.06 0 0 0 2-4 3.12 3.12 0 0 0-3.81-1.87l-9.13 2.57v-4a3.69 3.69 0 0 1 2.55-3.16l4.94-1.41a9.17 9.17 0 0 1 7 .82 9.3 9.3 0 0 1 4.48 5.53z"/><path class="cls-6" d="M210.18 237.16a3.1 3.1 0 0 0 3.63 4.47l8.8-2.54 1.25 6.41v3.93s-2.18 2.76-3.59 3.16l-3.91 1.07v-6.17l-1.14.33A9.44 9.44 0 0 1 208 247a9.56 9.56 0 0 1-4.88-9 9.41 9.41 0 0 1 6.93-8.39l12.56-3.61v6.61l-10.55 3a3.14 3.14 0 0 0-1.88 1.55z"/><path class="cls-5" d="M235.29 279.86a9.4 9.4 0 0 1-6.48 11.49l-11.2 3V288l9.65-2.57a3.09 3.09 0 0 0 1.85-1.47 3 3 0 0 0 .19-2.56 3.12 3.12 0 0 0-3.81-1.87l-9.13 2.57v-4a3.66 3.66 0 0 1 2.55-3.16l4.94-1.42a9.21 9.21 0 0 1 7 .82 9.35 9.35 0 0 1 4.44 5.52zm-23.23-3l11.8-3v-6.36l-13.38 3.5a9.4 9.4 0 0 0-6.48 11.51 9.24 9.24 0 0 0 11.41 6.28l.94-.32v6.45l3.87-1.11a3.28 3.28 0 0 0 2.38-3.16v-10.34l-8.8 2.53a3.1 3.1 0 1 1-1.75-5.95z"/><path class="cls-6" d="M210.18 278.38a3.1 3.1 0 0 0 3.63 4.46l8.8-2.53 1.25 6.4v3.94s-2.18 2.75-3.59 3.15l-3.91 1.08v-6.18l-1.14.33a9.44 9.44 0 0 1-7.19-.82 9.56 9.56 0 0 1-4.88-9 9.39 9.39 0 0 1 6.93-8.38l12.53-3.6v6.62l-10.55 3a3.11 3.11 0 0 0-1.88 1.53z"/><path class="cls-5" d="M273.32 9.92a9.39 9.39 0 0 1-6.48 11.49l-10.48 3V18l8.94-2.57a3.09 3.09 0 0 0 2-4 3.13 3.13 0 0 0-3.82-1.87l-8.41 2.57v-4A2.41 2.41 0 0 1 256.94 5l4.94-1.42a9.2 9.2 0 0 1 7 .82 9.31 9.31 0 0 1 4.44 5.52zM250.09 7l11.27-3v-6.7L248.84.89a9.41 9.41 0 0 0-6.93 8.38 9.56 9.56 0 0 0 4.88 9 9.43 9.43 0 0 0 7.19.81l1.13-.32V25l3.89-1.13a3.28 3.28 0 0 0 2.38-3.16V10.37l-9.52 2.53a3.09 3.09 0 0 1-3.62-4.46A3.09 3.09 0 0 1 250.09 7z"/><path class="cls-6" d="M273.32 9.92a9.39 9.39 0 0 1-6.48 11.49l-10.48 3V18l8.94-2.57a3.09 3.09 0 0 0 2-4 3.13 3.13 0 0 0-3.82-1.87l-8.41 2.57v-4A2.41 2.41 0 0 1 256.94 5l4.94-1.42a9.2 9.2 0 0 1 7 .82 9.31 9.31 0 0 1 4.44 5.52z"/><path class="cls-6" d="M248.22 8.44a3.09 3.09 0 0 0 3.62 4.46l8.27-2.53 1.25 6.4v3.94a3.28 3.28 0 0 1-2.36 3.16L255.11 25v-6.24l-1.14.33a9.44 9.44 0 0 1-7.19-.82 9.56 9.56 0 0 1-4.88-9 9.39 9.39 0 0 1 6.93-8.38l12.53-3.6v6.62L250.09 7a3.09 3.09 0 0 0-1.87 1.44z"/><path class="cls-5" d="M273.32 51.13a9.4 9.4 0 0 1-6.48 11.5l-10.48 3v-6.4l8.94-2.57a3.09 3.09 0 0 0 2-4 3.14 3.14 0 0 0-3.82-1.88l-8.41 2.57v-4a2.41 2.41 0 0 1 1.83-3.16l4.94-1.42a9.29 9.29 0 0 1 11.44 6.36zm-23.23-3l11.27-3v-6.62l-12.52 3.59a9.41 9.41 0 0 0-6.93 8.39 9.55 9.55 0 0 0 4.88 9 9.43 9.43 0 0 0 7.19.82l1.13-.33v6.22l3.89-1.11a3.3 3.3 0 0 0 2.38-3.16V51.58l-9.52 2.54a3.11 3.11 0 1 1-1.75-6z"/><path class="cls-6" d="M273.32 51.13a9.4 9.4 0 0 1-6.48 11.5l-10.48 3v-6.4l8.94-2.57a3.09 3.09 0 0 0 2-4 3.14 3.14 0 0 0-3.82-1.88l-8.41 2.57v-4a2.41 2.41 0 0 1 1.83-3.16l4.94-1.42a9.29 9.29 0 0 1 11.44 6.36z"/><path class="cls-6" d="M248.22 49.65a3.1 3.1 0 0 0 3.62 4.47l8.27-2.54 1.25 6.42v3.94a3.3 3.3 0 0 1-2.36 3.15l-3.87 1.11V60l-1.13.3a9.44 9.44 0 0 1-7.19-.81 9.57 9.57 0 0 1-4.88-9 9.41 9.41 0 0 1 6.93-8.39l12.53-3.6v6.62l-11.27 3a3.12 3.12 0 0 0-1.9 1.53z"/><path class="cls-5" d="M273.32 92.34a9.4 9.4 0 0 1-6.48 11.5l-10.48 3v-6.4l8.94-2.58a3 3 0 0 0 1.84-1.46 3.08 3.08 0 0 0 .2-2.56 3.13 3.13 0 0 0-3.82-1.84l-8.41 2.57v-4a2.4 2.4 0 0 1 1.83-3.15l4.94-1.42a9.16 9.16 0 0 1 7 .82 9.26 9.26 0 0 1 4.44 5.52zm-23.23-3l11.27-3v-6.62l-12.52 3.6a9.39 9.39 0 0 0-6.93 8.38 9.55 9.55 0 0 0 4.88 9 9.39 9.39 0 0 0 7.19.82l1.13-.32v6.22l3.89-1.12a3.29 3.29 0 0 0 2.38-3.16V92.79l-9.52 2.54a3.14 3.14 0 0 1-3.86-2.08 3.14 3.14 0 0 1 2.14-3.88z"/><path class="cls-6" d="M273.32 92.34a9.4 9.4 0 0 1-6.48 11.5l-10.48 3v-6.4l8.94-2.58a3 3 0 0 0 1.84-1.46 3.08 3.08 0 0 0 .2-2.56 3.13 3.13 0 0 0-3.82-1.84l-8.41 2.57v-4a2.4 2.4 0 0 1 1.83-3.15l4.94-1.42a9.16 9.16 0 0 1 7 .82 9.26 9.26 0 0 1 4.44 5.52z"/><path class="cls-6" d="M248.22 90.87a3.1 3.1 0 0 0-.27 2.38 3.14 3.14 0 0 0 3.89 2.08l8.27-2.54 1.25 6.41v3.94a3.29 3.29 0 0 1-2.36 3.16l-3.87 1.11v-6.22l-1.14.33a9.44 9.44 0 0 1-7.19-.82 9.56 9.56 0 0 1-4.88-9 9.39 9.39 0 0 1 6.93-8.38l12.53-3.6v6.61l-11.27 3a3.1 3.1 0 0 0-1.89 1.54z"/><path class="cls-5" d="M273.32 133.56a9.39 9.39 0 0 1-6.48 11.49l-10.48 3v-6.41l8.94-2.57a3.09 3.09 0 0 0 2-4 3.13 3.13 0 0 0-3.82-1.87l-8.41 2.57v-4a2.41 2.41 0 0 1 1.83-3.16l4.94-1.42a9.27 9.27 0 0 1 11.44 6.36zm-23.23-3l11.27-3v-6.61l-12.52 3.59a9.41 9.41 0 0 0-6.93 8.39 9.56 9.56 0 0 0 4.88 9 9.39 9.39 0 0 0 7.19.81l1.13-.32v6.22l3.87-1.11a3.28 3.28 0 0 0 2.38-3.15V134l-9.52 2.53a3.09 3.09 0 0 1-3.62-4.46 3.09 3.09 0 0 1 1.87-1.48z"/><path class="cls-6" d="M273.32 133.56a9.39 9.39 0 0 1-6.48 11.49l-10.48 3v-6.41l8.94-2.57a3.09 3.09 0 0 0 2-4 3.13 3.13 0 0 0-3.82-1.87l-8.41 2.57v-4a2.41 2.41 0 0 1 1.83-3.16l4.94-1.42a9.27 9.27 0 0 1 11.44 6.36z"/><path class="cls-6" d="M248.22 132.08a3.09 3.09 0 0 0 3.62 4.46l8.27-2.53 1.25 6.4v4a3.28 3.28 0 0 1-2.38 3.15l-3.87 1.11v-6.27l-1.14.33a9.4 9.4 0 0 1-7.19-.82 9.56 9.56 0 0 1-4.88-9 9.4 9.4 0 0 1 6.93-8.38l12.53-3.6v6.62l-11.27 3a3.09 3.09 0 0 0-1.87 1.53z"/><path class="cls-5" d="M273.32 174.77a9.4 9.4 0 0 1-6.48 11.5l-10.48 3v-6.41l8.94-2.57a3.09 3.09 0 0 0 2-4 3.14 3.14 0 0 0-3.82-1.88l-8.37 2.59v-4a2.42 2.42 0 0 1 1.83-3.16l4.94-1.42a9.29 9.29 0 0 1 11.44 6.36zm-23.23-3l11.27-3v-6.61l-12.52 3.6a9.39 9.39 0 0 0-6.93 8.38 9.55 9.55 0 0 0 4.88 9 9.43 9.43 0 0 0 7.19.82l1.13-.33v6.23l3.87-1.11a3.3 3.3 0 0 0 2.38-3.16v-10.37l-9.52 2.54a3.11 3.11 0 1 1-1.75-6z"/><path class="cls-6" d="M273.32 174.77a9.4 9.4 0 0 1-6.48 11.5l-10.48 3v-6.41l8.94-2.57a3.09 3.09 0 0 0 2-4 3.14 3.14 0 0 0-3.82-1.88l-8.37 2.59v-4a2.42 2.42 0 0 1 1.83-3.16l4.94-1.42a9.29 9.29 0 0 1 11.44 6.36z"/><path class="cls-6" d="M248.22 173.29a3.1 3.1 0 0 0 3.62 4.47l8.27-2.54 1.25 6.41v3.94a3.3 3.3 0 0 1-2.38 3.16l-3.87 1.11v-6.22l-1.14.32a9.44 9.44 0 0 1-7.19-.81 9.57 9.57 0 0 1-4.88-9 9.41 9.41 0 0 1 6.93-8.39l12.53-3.6v6.62l-11.27 3a3.12 3.12 0 0 0-1.87 1.53z"/><path class="cls-5" d="M273.32 216a9.39 9.39 0 0 1-6.48 11.5l-10.48 3v-6.41l8.94-2.57a3.09 3.09 0 0 0 2-4 3.13 3.13 0 0 0-3.82-1.87l-8.41 2.57v-4a2.4 2.4 0 0 1 1.83-3.15l4.94-1.42a9.16 9.16 0 0 1 7 .82 9.26 9.26 0 0 1 4.48 5.53zm-23.23-3l11.27-3v-6.61L248.84 207a9.4 9.4 0 0 0-6.93 8.38 9.57 9.57 0 0 0 4.88 9 9.43 9.43 0 0 0 7.19.81l1.13-.32v6.22l3.87-1.11a3.28 3.28 0 0 0 2.38-3.16v-10.39l-9.52 2.57a3.14 3.14 0 0 1-3.89-2.08 3.14 3.14 0 0 1 2.14-3.88z"/><path class="cls-6" d="M273.32 216a9.39 9.39 0 0 1-6.48 11.5l-10.48 3v-6.41l8.94-2.57a3.09 3.09 0 0 0 2-4 3.13 3.13 0 0 0-3.82-1.87l-8.41 2.57v-4a2.4 2.4 0 0 1 1.83-3.15l4.94-1.42a9.16 9.16 0 0 1 7 .82 9.26 9.26 0 0 1 4.48 5.53z"/><path class="cls-6" d="M248.22 214.51a3.1 3.1 0 0 0-.27 2.38 3.14 3.14 0 0 0 3.89 2.08l8.27-2.54 1.25 6.41v3.94a3.28 3.28 0 0 1-2.38 3.16l-3.87 1.11v-6.22l-1.14.33a9.44 9.44 0 0 1-7.19-.82 9.56 9.56 0 0 1-4.88-9 9.39 9.39 0 0 1 6.93-8.38l12.53-3.6V210l-11.27 3a3.1 3.1 0 0 0-1.87 1.51z"/><path class="cls-5" d="M273.32 257.2a9.39 9.39 0 0 1-6.48 11.49l-10.48 3v-6.39l8.94-2.57a3.09 3.09 0 0 0 2-4 3.13 3.13 0 0 0-3.82-1.87l-8.41 2.57v-4a2.41 2.41 0 0 1 1.83-3.16l4.94-1.42a9.27 9.27 0 0 1 11.44 6.36zm-23.23-3l11.27-3v-6.61l-12.52 3.59a9.41 9.41 0 0 0-6.93 8.39 9.56 9.56 0 0 0 4.88 9 9.43 9.43 0 0 0 7.19.82l1.13-.33v6.22l3.87-1.11a3.28 3.28 0 0 0 2.38-3.15v-10.37l-9.52 2.53a3.1 3.1 0 1 1-1.75-6z"/><path class="cls-6" d="M273.32 257.2a9.39 9.39 0 0 1-6.48 11.49l-10.48 3v-6.39l8.94-2.57a3.09 3.09 0 0 0 2-4 3.13 3.13 0 0 0-3.82-1.87l-8.41 2.57v-4a2.41 2.41 0 0 1 1.83-3.16l4.94-1.42a9.27 9.27 0 0 1 11.44 6.36z"/><path class="cls-6" d="M248.22 255.72a3.09 3.09 0 0 0 3.62 4.46l8.27-2.53 1.25 6.4V268a3.28 3.28 0 0 1-2.38 3.15l-3.87 1.12v-6.22l-1.14.32a9.4 9.4 0 0 1-7.19-.82 9.56 9.56 0 0 1-4.88-9 9.41 9.41 0 0 1 6.93-8.38l12.53-3.6v6.62l-11.27 3a3.12 3.12 0 0 0-1.87 1.53z"/><path class="cls-5" d="M7.09-8.64A9.4 9.4 0 0 1 .61 2.86l-10.5 3v-6.4l9-2.57a3.05 3.05 0 0 0 1.8-1.46 3.08 3.08 0 0 0 .2-2.56A3.13 3.13 0 0 0-2.71-9l-8.43 2.57v-4a2.45 2.45 0 0 1 1.85-3.16L-4.34-15a9.18 9.18 0 0 1 7 .83 9.26 9.26 0 0 1 4.43 5.53zm-23.23-3l11.25-3v-6.61l-12.52 3.6a9.39 9.39 0 0 0-6.93 8.38 9.55 9.55 0 0 0 4.88 9 9.43 9.43 0 0 0 7.19.82l1.13-.35v6.23l3.87-1.11a3.3 3.3 0 0 0 2.38-3.16V-8.19l-9.5 2.54a3.15 3.15 0 0 1-3.89-2.08 3.13 3.13 0 0 1 .28-2.39 3.12 3.12 0 0 1 1.86-1.49z"/><path class="cls-6" d="M7.09-8.64A9.4 9.4 0 0 1 .61 2.86l-10.5 3v-6.4l9-2.57a3.05 3.05 0 0 0 1.8-1.46 3.08 3.08 0 0 0 .2-2.56A3.13 3.13 0 0 0-2.71-9l-8.43 2.57v-4a2.45 2.45 0 0 1 1.85-3.16L-4.34-15a9.18 9.18 0 0 1 7 .83 9.26 9.26 0 0 1 4.43 5.53z"/><path class="cls-5" d="M7.09 32.58A9.39 9.39 0 0 1 .61 44.07l-10.5 3v-6.39l9-2.57a3.07 3.07 0 0 0 1.8-1.47 3.08 3.08 0 0 0 .2-2.56 3.13 3.13 0 0 0-3.82-1.87l-8.43 2.57v-4a2.45 2.45 0 0 1 1.85-3.16l4.95-1.42a9.14 9.14 0 0 1 7 .82 9.25 9.25 0 0 1 4.43 5.56zm-23.23-3l11.25-3V20l-12.52 3.59a9.41 9.41 0 0 0-6.93 8.38 9.57 9.57 0 0 0 4.88 9 9.43 9.43 0 0 0 7.19.81l1.13-.32v6.22l3.87-1.11a3.28 3.28 0 0 0 2.38-3.16V33l-9.5 2.54a3.14 3.14 0 0 1-3.89-2.08A3.1 3.1 0 0 1-18 31.1a3.14 3.14 0 0 1 1.86-1.5z"/><path class="cls-6" d="M7.09 32.58A9.39 9.39 0 0 1 .61 44.07l-10.5 3v-6.39l9-2.57a3.07 3.07 0 0 0 1.8-1.47 3.08 3.08 0 0 0 .2-2.56 3.13 3.13 0 0 0-3.82-1.87l-8.43 2.57v-4a2.45 2.45 0 0 1 1.85-3.16l4.95-1.42a9.14 9.14 0 0 1 7 .82 9.25 9.25 0 0 1 4.43 5.56z"/><path class="cls-5" d="M7.09 73.79a9.4 9.4 0 0 1-6.48 11.5l-10.5 3v-6.4l9-2.57a3 3 0 0 0 1.8-1.47 3.07 3.07 0 0 0 .2-2.56 3.14 3.14 0 0 0-3.82-1.87L-11.14 76v-4a2.45 2.45 0 0 1 1.85-3.16l4.95-1.42a9.22 9.22 0 0 1 7 .82 9.31 9.31 0 0 1 4.43 5.55zm-23.23-3l11.25-3v-6.62l-12.52 3.59a9.41 9.41 0 0 0-6.93 8.39 9.55 9.55 0 0 0 4.88 9 9.43 9.43 0 0 0 7.19.82l1.13-.33v6.23l3.87-1.12a3.28 3.28 0 0 0 2.38-3.15V74.24l-9.5 2.53a3.13 3.13 0 0 1-3.89-2.07 3.13 3.13 0 0 1 .28-2.39 3.12 3.12 0 0 1 1.86-1.49z"/><path class="cls-6" d="M7.09 73.79a9.4 9.4 0 0 1-6.48 11.5l-10.5 3v-6.4l9-2.57a3 3 0 0 0 1.8-1.47 3.07 3.07 0 0 0 .2-2.56 3.14 3.14 0 0 0-3.82-1.87L-11.14 76v-4a2.45 2.45 0 0 1 1.85-3.16l4.95-1.42a9.22 9.22 0 0 1 7 .82 9.31 9.31 0 0 1 4.43 5.55z"/><path class="cls-5" d="M7.09 115a9.4 9.4 0 0 1-6.48 11.5l-10.5 3v-6.4l9-2.58a3.05 3.05 0 0 0 1.84-1.46 3.08 3.08 0 0 0 .2-2.56 3.13 3.13 0 0 0-3.82-1.87l-8.43 2.57v-4a2.45 2.45 0 0 1 1.85-3.16l4.95-1.41a9.14 9.14 0 0 1 7 .82A9.26 9.26 0 0 1 7.09 115zm-23.23-3l11.25-3v-6.61L-17.41 106a9.39 9.39 0 0 0-6.93 8.38 9.55 9.55 0 0 0 4.88 9 9.39 9.39 0 0 0 7.19.82l1.13-.33v6.23l3.87-1.1a3.29 3.29 0 0 0 2.38-3.16v-10.39l-9.5 2.54a3.14 3.14 0 0 1-3.89-2.08 3.13 3.13 0 0 1 .27-2.39 3.12 3.12 0 0 1 1.87-1.52z"/><path class="cls-6" d="M7.09 115a9.4 9.4 0 0 1-6.48 11.5l-10.5 3v-6.4l9-2.58a3.05 3.05 0 0 0 1.84-1.46 3.08 3.08 0 0 0 .2-2.56 3.13 3.13 0 0 0-3.82-1.87l-8.43 2.57v-4a2.45 2.45 0 0 1 1.85-3.16l4.95-1.41a9.14 9.14 0 0 1 7 .82A9.26 9.26 0 0 1 7.09 115z"/><path class="cls-5" d="M7.09 156.22a9.39 9.39 0 0 1-6.48 11.49l-10.5 3v-6.41l9-2.57a3.07 3.07 0 0 0 1.84-1.47 3.07 3.07 0 0 0 .2-2.56 3.13 3.13 0 0 0-3.82-1.87l-8.43 2.57v-4a2.45 2.45 0 0 1 1.85-3.16l4.95-1.42a9.18 9.18 0 0 1 7 .82 9.28 9.28 0 0 1 4.39 5.58zm-23.23-3l11.25-3v-6.62l-12.52 3.59a9.41 9.41 0 0 0-6.93 8.38 9.57 9.57 0 0 0 4.88 9 9.43 9.43 0 0 0 7.19.81l1.13-.32v6.22l3.87-1.11A3.28 3.28 0 0 0-4.89 167v-10.33l-9.5 2.53a3.14 3.14 0 0 1-3.89-2.08 3.1 3.1 0 0 1 .27-2.38 3.14 3.14 0 0 1 1.87-1.5z"/><path class="cls-6" d="M7.09 156.22a9.39 9.39 0 0 1-6.48 11.49l-10.5 3v-6.41l9-2.57a3.07 3.07 0 0 0 1.84-1.47 3.07 3.07 0 0 0 .2-2.56 3.13 3.13 0 0 0-3.82-1.87l-8.43 2.57v-4a2.45 2.45 0 0 1 1.85-3.16l4.95-1.42a9.18 9.18 0 0 1 7 .82 9.28 9.28 0 0 1 4.39 5.58z"/><path class="cls-5" d="M7.09 197.43a9.4 9.4 0 0 1-6.48 11.5l-10.5 3v-6.41l9-2.57a3 3 0 0 0 1.84-1.47 3.07 3.07 0 0 0 .2-2.56 3.14 3.14 0 0 0-3.82-1.87l-8.43 2.57v-4a2.45 2.45 0 0 1 1.85-3.16l4.95-1.42a9.22 9.22 0 0 1 7 .82 9.31 9.31 0 0 1 4.39 5.57zm-23.23-3l11.25-3v-6.61l-12.52 3.59a9.41 9.41 0 0 0-6.93 8.39 9.55 9.55 0 0 0 4.88 9 9.43 9.43 0 0 0 7.19.82l1.13-.33v6.23l3.87-1.11a3.3 3.3 0 0 0 2.38-3.16v-10.37l-9.5 2.54a3.15 3.15 0 0 1-3.89-2.08A3.13 3.13 0 0 1-18 196a3.12 3.12 0 0 1 1.86-1.54z"/><path class="cls-6" d="M7.09 197.43a9.4 9.4 0 0 1-6.48 11.5l-10.5 3v-6.41l9-2.57a3 3 0 0 0 1.84-1.47 3.07 3.07 0 0 0 .2-2.56 3.14 3.14 0 0 0-3.82-1.87l-8.43 2.57v-4a2.45 2.45 0 0 1 1.85-3.16l4.95-1.42a9.22 9.22 0 0 1 7 .82 9.31 9.31 0 0 1 4.39 5.57z"/><path class="cls-5" d="M7.09 238.64a9.4 9.4 0 0 1-6.48 11.5l-10.5 3v-6.4l9-2.58a3 3 0 0 0 1.84-1.46 3.08 3.08 0 0 0 .2-2.56 3.13 3.13 0 0 0-3.82-1.87l-8.43 2.57v-4a2.45 2.45 0 0 1 1.85-3.16l4.95-1.41a9.14 9.14 0 0 1 7 .82 9.26 9.26 0 0 1 4.39 5.55zm-23.23-3l11.25-3V226l-12.52 3.6a9.39 9.39 0 0 0-6.93 8.4 9.55 9.55 0 0 0 4.88 9 9.39 9.39 0 0 0 7.19.82l1.13-.32v6.22l3.87-1.11a3.29 3.29 0 0 0 2.38-3.16v-10.36l-9.5 2.54a3.14 3.14 0 0 1-3.89-2.08 3.13 3.13 0 0 1 .27-2.39 3.12 3.12 0 0 1 1.87-1.49z"/><path class="cls-6" d="M7.09 238.64a9.4 9.4 0 0 1-6.48 11.5l-10.5 3v-6.4l9-2.58a3 3 0 0 0 1.84-1.46 3.08 3.08 0 0 0 .2-2.56 3.13 3.13 0 0 0-3.82-1.87l-8.43 2.57v-4a2.45 2.45 0 0 1 1.85-3.16l4.95-1.41a9.14 9.14 0 0 1 7 .82 9.26 9.26 0 0 1 4.39 5.55z"/><path class="cls-5" d="M7.09 279.86a9.39 9.39 0 0 1-6.48 11.49l-10.5 3V288l9-2.57a3.07 3.07 0 0 0 1.84-1.47 3.07 3.07 0 0 0 .2-2.56 3.13 3.13 0 0 0-3.82-1.87l-8.43 2.57v-4a2.45 2.45 0 0 1 1.85-3.16l4.95-1.42a9.18 9.18 0 0 1 7 .82 9.31 9.31 0 0 1 4.39 5.52zm-23.23-3l11.25-3v-6.61l-12.52 3.59a9.41 9.41 0 0 0-6.93 8.39 9.56 9.56 0 0 0 4.88 9 9.43 9.43 0 0 0 7.19.81l1.13-.32v6.22l3.87-1.11a3.28 3.28 0 0 0 2.38-3.16v-10.36l-9.5 2.53a3.14 3.14 0 0 1-3.89-2.07 3.12 3.12 0 0 1 .27-2.39 3.09 3.09 0 0 1 1.87-1.49z"/></g></g></g></g></svg>