<svg viewBox="0 0 270 269.77" xmlns="http://www.w3.org/2000/svg" xmlns:xlink="http://www.w3.org/1999/xlink"><clipPath id="a"><path d="m.12-.12h269.77v270h-269.77z" transform="matrix(0 1 -1 0 269.88 -.12)"/></clipPath><clipPath id="b"><ellipse cx="137.2" cy="138.74" rx="306.22" ry="224.35"/></clipPath><g clip-path="url(#a)"><g clip-path="url(#b)"><path d="m408.5 288.74-.61-1.51 70.71-166.94-41.34-102.08-71.15 168-168.01-71.16-.44 1.07-1.07-.45.62 1.51-70.71 166.93 41.33 102.08 71.16-167.99 168 71.16.45-1.07z" fill="#5f564f"/><path d="m126.5 284.12-169.07-71.62-71.61 169.07 41.34 102.08 71.61-169.06 169.06 71.61z" fill="#5f564f"/><path d="m356.65 160.7-.61-1.51 70.71-166.94-41.33-102.08-71.16 168-168-71.16-.45 1.06-1.06-.45.61 1.52-70.71 166.93 41.33 102.08 71.16-168 168 71.16.45-1.06z" fill="#484442"/><path d="m74.65 156.07-169.06-71.61-71.61 169.06 41.33 102.09 71.61-169.07 169.06 71.61z" fill="#484442"/><g fill="#2e2b28"><path d="m304.81 32.66-.61-1.51 70.7-166.94-41.33-102.08-71.16 168-168-71.16-.45 1.06-1.06-.45.61 1.51-70.71 166.94 41.34 102.08 71.16-168 168 71.16.45-1.06z"/><path d="m22.8 28.03-169.06-71.61-71.61 169.06 41.33 102.08 71.61-169.06 169.07 71.61z"/></g></g></g></svg>