<svg viewBox="0 0 561 425" xmlns="http://www.w3.org/2000/svg" xmlns:xlink="http://www.w3.org/1999/xlink"><clipPath id="a"><path d="m40.6 142.17h269.77v270h-269.77z" transform="matrix(0 1 -1 0 452.66 101.68)"/></clipPath><filter id="b" height="130%" name="AI_Shadow_2_00000003793201940533875830000010771960283906682028_" width="140%" x="-15%" y="-15%"><feGaussianBlur in="SourceAlpha" result="blur" stdDeviation="3"/><feOffset dx="2" dy="2" in="blur" result="offsetBlurredAlpha"/><feMerge><feMergeNode in="offsetBlurredAlpha"/><feMergeNode in="SourceGraphic"/></feMerge></filter><path d="m40.15 142.17h270.68v270h-270.68z" fill="#b1cb19" transform="matrix(0 1 -1 0 452.66 101.68)"/><g clip-path="url(#a)"><path d="m449.14 249.9c.15 62.39-52.77 113.42-115.15 113.42h-108.79a40.23 40.23 0 0 0 38.67-29.14l13.29-46.29h58.84a37.73 37.73 0 0 0 37.61-40.49c-1.42-19.89-18.68-34.94-38.61-34.94h-114.08l13.44-46.89a40.24 40.24 0 0 1 38.64-29.14h63a112.44 112.44 0 0 1 80 33.44 113.77 113.77 0 0 1 33.14 80.03zm-263.4-113.47h134.84l21.47-74.83h-154.9c-62.6 0-115.51 51.21-115.15 113.81a113.13 113.13 0 0 0 113.14 112.48h14.13l-21.63 75.43h47.56a40.23 40.23 0 0 0 38.67-29.14l13.29-46.29 21.62-75.43h-112.56c-21 0-38.73-16.64-38.8-37.6a38.32 38.32 0 0 1 38.32-38.43z" fill="#1e552c"/><path d="m167.65 370.86c4.51-2.94 8.17-10.1 9.56-15.12.53-1.91 1.49-7.23-1.53-7.91-1.52-.34-2.68 1.8-3 3a5.33 5.33 0 0 0 -.14 1.69c.22-.32.66-.87 1.12-.67.7.3.39 1.6.23 2.11-.39 1.31-1.46 3.26-3.13 2.73-3.17-1-2.44-6.57-1.77-8.83 1.6-5.45 5.91-10 9.38-14.35 3.94-4.9 8-9.65 9.73-15.85.53-1.91 1.49-7.23-1.53-7.91-1.52-.34-2.68 1.8-3 3a5.35 5.35 0 0 0 -.14 1.69c.22-.32.66-.87 1.12-.67.7.31.39 1.6.23 2.11-.39 1.31-1.46 3.27-3.13 2.73-3.17-1-2.44-6.57-1.77-8.83 1.58-5.37 5.81-10.08 9.32-14.27-.09-1.63-2.86-1.22-4.14-1.82-4-1.83-7.85-3.42-12.35-3.86-2-.19-7.1-.29-7.42 2.67-.16 1.57 2.12 2.45 3.31 2.57a5.4 5.4 0 0 0 1.7-.11c-.35-.17-1-.52-.84-1 .2-.73 1.5-.63 2-.57 1.34.17 3.43.87 3.24 2.59-.4 3.43-6.28 3.52-8.62 3.16-5.76-.91-10.84-5-15.22-8.54-4.73-3.86-9-8.26-14.62-10.84-1.8-.82-6.61-2.58-7.88.12-.66 1.43 1.21 3 2.3 3.5a5.2 5.2 0 0 0 1.64.45c-.28-.28-.74-.8-.46-1.22.42-.63 1.62-.12 2.1.12 1.22.6 3 1.93 2.23 3.5-1.49 3.12-7.09 1.29-9.18.18-5.15-2.73-8.63-8.24-11.6-13-3.23-5.2-5.81-10.74-10.33-15-1.44-1.35-5.36-4.42-7.38-2.29-1.08 1.12.14 3.19 1 4a4.85 4.85 0 0 0 1.33.87c-.19-.37-.43-1 0-1.29.6-.48 1.55.39 1.94.78 1 1 2.18 2.79 1 4-2.36 2.42-7-.94-8.63-2.65-4-4.2-5.5-10.48-6.77-15.93-1.39-5.91-2.06-11.94-5-17.37-.94-1.75-3.68-6-6.31-4.63-1.39.73-.87 3.09-.31 4.15a5.38 5.38 0 0 0 1 1.34c-.05-.39-.1-1.08.38-1.25.71-.24 1.35.88 1.59 1.36.61 1.22 1.17 3.32-.36 4.11-3.06 1.57-6.39-3.21-7.38-5.36-2.43-5.26-1.85-11.7-1.3-17.27.6-6 1.91-12 .91-18-.33-2-1.55-6.87-4.49-6.42-1.55.25-1.81 2.65-1.63 3.83a5.06 5.06 0 0 0 .55 1.6c.07-.38.25-1.05.76-1.06.75 0 1 1.27 1.07 1.8.18 1.35 0 3.52-1.67 3.77-3.41.5-5-5.09-5.26-7.45-.61-5.76 2-11.41 4.3-16.5 2.48-5.54 5.62-10.74 6.61-16.83.33-2 .75-7-2.18-7.52-1.54-.28-2.57 1.92-2.77 3.1a5 5 0 0 0 0 1.69c.19-.34.58-.92 1.06-.76.71.24.53 1.52.43 2-.26 1.33-1.09 3.35-2.79 3-3.39-.61-3.11-6.45-2.58-8.76 1.28-5.65 5.69-10.41 9.54-14.49 4.17-4.41 8.84-8.29 11.78-13.71 1-1.75 3-6.38.41-7.83-1.37-.76-3.06 1-3.63 2a5.08 5.08 0 0 0 -.56 1.6c.3-.26.85-.68 1.25-.37.6.46 0 1.62-.27 2.08-.68 1.17-2.13 2.8-3.63 2-3-1.69-.82-7.11.43-9.11 3.07-4.92 8.77-8 13.73-10.6 5.19-2.75 10.85-4.83 15.19-8.94 1.44-1.36 4.86-5.14 2.83-7.32-1.07-1.16-3.22 0-4.09.8a5 5 0 0 0 -1 1.35c.36-.15 1-.38 1.3 0 .43.63-.5 1.54-.9 1.9-1 .9-2.9 2-4.06.74-2.33-2.55 1.43-7 3.25-8.55 4.44-3.73 10.82-4.89 16.35-5.87 6-1.06 12.08-1.41 17.69-4.06 1.79-.85 6.22-3.38 5-6.09-.66-1.43-3.06-1-4.14-.51a5 5 0 0 0 -1.4 1c.39 0 1.09-.05 1.23.44.21.72-.95 1.31-1.45 1.52-1.24.54-3.38 1-4.09-.57-1.41-3.14 3.55-6.22 5.74-7.11 5.39-2.17 11.81-1.29 17.36-.51 6 .86 11.92 2.41 18.07 1.66 2-.25 7-1.26 6.62-4.22-.17-1.56-2.57-1.92-3.76-1.79a5.38 5.38 0 0 0 -1.63.48c.38.09 1 .3 1 .8 0 .76-1.32.95-1.85 1-1.36.12-3.53-.11-3.71-1.82-.37-3.43 5.33-4.8 7.69-5 5.68-.36 10.53 2.64 15.57 4.77 5.77 2.43 11.44 5 17.85 5 2 0 7.33-.56 7.15-3.64-.09-1.56-2.46-2.08-3.65-2a5.26 5.26 0 0 0 -1.66.32c.37.13 1 .4.95.9-.1.75-1.42.81-2 .8-1.36 0-3.52-.51-3.47-2.25.1-3.32 5.62-4.16 8-4.14 5.67 0 11.24 2.92 16.33 5.07 5.77 2.43 11.44 5 17.85 5 2 0 7.33-.56 7.15-3.64-.09-1.56-2.46-2.08-3.65-2a5.26 5.26 0 0 0 -1.66.32c.37.13 1 .4 1 .9-.1.75-1.42.81-2 .8-1.36 0-3.52-.51-3.47-2.25.1-3.32 5.62-4.16 8-4.14 5.67 0 11.24 2.92 16.33 5.07 5.77 2.43 11.44 5 17.85 5 2 0 7.33-.56 7.15-3.64-.09-1.56-2.46-2.08-3.65-2a5.26 5.26 0 0 0 -1.66.32c.37.13 1 .4.95.9-.1.75-1.42.81-2 .8-1.36 0-3.52-.51-3.47-2.25.1-3.32 5.62-4.16 8-4.14 5.67 0 11.24 2.92 16.33 5.07 5.77 2.43 11.44 5 17.85 5 2 0 7.33-.56 7.15-3.64-.09-1.56-2.46-2.08-3.65-2a5.26 5.26 0 0 0 -1.66.32c.37.13 1 .4 1 .9-.1.75-1.42.81-2 .8-1.36 0-3.52-.51-3.47-2.25.1-3.32 5.62-4.16 8-4.14 5.58 0 11.26 2.81 16.23 5-4.57 1.25-8 9.69-9.21 13.89-.53 1.91-1.53 7.3 1.5 8 1.53.34 2.69-1.84 3-3a5.48 5.48 0 0 0 .14-1.71c-.22.32-.66.88-1.12.68-.71-.31-.38-1.62-.23-2.13.39-1.31 1.47-3.31 3.14-2.77 3.19 1 2.41 6.66 1.75 8.92-1.62 5.5-5.94 10.14-9.44 14.51-4 5-8.05 9.78-9.79 16-.53 1.91-1.53 7.3 1.51 8 1.53.34 2.69-1.84 3-3a5.46 5.46 0 0 0 .15-1.71c-.22.32-.66.88-1.12.68-.71-.31-.39-1.62-.23-2.13.39-1.31 1.46-3.3 3.14-2.77 3.19 1 2.41 6.66 1.75 8.92-1.6 5.42-5.85 10.19-9.38 14.43.12 1 3.08 1.55 4 1.87 4.14 1.39 7.71 3.28 12.32 3.67 2 .17 7.16.24 7.45-2.74.15-1.58-2.17-2.42-3.37-2.53a4.92 4.92 0 0 0 -1.71.13c.35.16 1 .5.85 1-.18.74-1.51.65-2 .59-1.35-.15-3.48-.82-3.3-2.55.35-3.45 6.31-3.59 8.66-3.24 5.82.85 11 4.88 15.44 8.42 4.82 3.84 9.14 8.23 14.85 10.78 1.81.81 6.68 2.59 7.94-.13.66-1.44-1.25-3-2.34-3.51a5.37 5.37 0 0 0 -1.66-.44c.27.27.75.8.47 1.22-.42.64-1.64.12-2.12-.11-1.22-.59-3-1.93-2.28-3.5 1.48-3.15 7.15-1.3 9.25-.21 5.21 2.73 8.76 8.24 11.8 13 3.29 5.22 5.94 10.78 10.51 15.06 1.52 1.42 4.39 3.24 6.32 1.14.44-.47.68-2.28.15-2.76a5.08 5.08 0 0 0 -1.42-1c.17.35.45 1 .05 1.31-.6.47-1.58-.42-2-.8-1-1-2.22-2.8-1-4 2-2.05 6.44.32 7.93 1.9 3.86 4.08 5.46 10.4 6.83 15.65 1.56 6 2.4 12.13 5.45 17.64 1 1.73 3.8 6.12 6.44 4.69 1.4-.75.8-3.17.22-4.22a5.24 5.24 0 0 0 -1.06-1.36c.06.38.12 1.09-.35 1.27-.72.25-1.39-.9-1.64-1.38-.62-1.21-1.27-3.37.27-4.18 3.08-1.64 6.52 3.29 7.54 5.42 2.55 5.34 2.1 11.91 1.65 17.62-.49 6.18-1.71 12.25-.64 18.45.34 1.95 1.59 7 4.56 6.55 1.56-.26 1.78-2.74 1.59-3.92a5.33 5.33 0 0 0 -.57-1.64c-.06.39-.23 1.08-.74 1.09-.76 0-1-1.31-1.09-1.84-.19-1.35-.1-3.6 1.62-3.86 3.44-.54 5.09 5.24 5.35 7.59.49 4.39-.76 12.79-4.18 15.67-.92.78-1.5 3.11-2 4.22a47.31 47.31 0 0 0 -4.36 12.86c-.3 1.95-.71 7.15 2.25 7.63 1.57.26 2.56-2 2.75-3.21a5.23 5.23 0 0 0 0-1.72c-.19.34-.57.94-1.05.79-.72-.23-.55-1.56-.45-2.09.24-1.33 1-3.43 2.75-3.15 3.44.58 3.17 6.58 2.68 8.9-1.24 5.78-5.62 10.71-9.47 14.93-4.18 4.58-8.87 8.61-11.83 14.15-.94 1.74-3.08 6.51-.44 8 1.39.77 3.09-1.05 3.66-2.1a5.51 5.51 0 0 0 .57-1.64c-.3.26-.86.71-1.26.4-.61-.47 0-1.65.27-2.12.68-1.18 2.14-2.89 3.66-2 3 1.69.78 7.26-.46 9.27-3.1 5-8.86 8.21-13.89 10.94-5.33 2.88-11.07 5.11-15.55 9.33-1.44 1.36-4.89 5.15-2.86 7.33 1.07 1.16 3.23 0 4.1-.8a5.29 5.29 0 0 0 1-1.35c-.36.15-1 .38-1.31 0-.42-.63.51-1.55.91-1.9 1-.91 2.91-2 4.07-.74 2.33 2.55-1.46 7-3.28 8.56-4.46 3.73-10.85 4.89-16.4 5.86-6 1.06-12.12 1.41-17.74 4.05-1.8.85-6.25 3.38-5 6.09.66 1.43 3.07 1 4.15.51a5.2 5.2 0 0 0 1.4-1c-.39 0-1.09 0-1.23-.44-.21-.73 1-1.31 1.46-1.52 1.24-.55 3.39-1 4.1.57 1.41 3.15-3.58 6.23-5.78 7.1-5.4 2.17-11.84 1.28-17.41.48-6-.86-11.95-2.43-18.11-1.69-2 .23-7 1.22-6.66 4.19.17 1.56 2.58 1.93 3.77 1.8a5.25 5.25 0 0 0 1.64-.48c-.38-.09-1.05-.3-1-.8 0-.76 1.32-.94 1.86-1 1.35-.12 3.54.12 3.71 1.84.35 3.43-5.37 4.78-7.73 4.92-5.76.34-11.29-2.64-16.43-4.8-5.77-2.44-11.44-5-17.85-5-2 0-7.34.56-7.16 3.65.09 1.55 2.46 2.08 3.65 2a5.27 5.27 0 0 0 1.66-.33c-.37-.13-1-.39-1-.89.1-.76 1.42-.82 2-.81 1.36 0 3.53.51 3.47 2.26-.1 3.32-5.62 4.15-8 4.14-5.67 0-11.24-2.93-16.34-5.07-5.77-2.44-11.44-5-17.85-5-2 0-7.34.56-7.16 3.65.09 1.55 2.46 2.08 3.65 2a5.27 5.27 0 0 0 1.66-.33c-.37-.13-1-.39-.95-.89.1-.76 1.42-.82 2-.81 1.36 0 3.53.51 3.47 2.26-.1 3.32-5.62 4.15-8 4.14-5.67 0-11.24-2.93-16.34-5.07-5.77-2.44-11.44-5-17.85-5-2 0-7.34.56-7.16 3.65.09 1.55 2.46 2.08 3.65 2a5.27 5.27 0 0 0 1.66-.33c-.37-.13-1-.39-.95-.89.1-.76 1.42-.82 2-.81 1.36 0 3.53.51 3.47 2.26-.1 3.32-5.62 4.15-8 4.14-5.67 0-11.24-2.93-16.34-5.07-5.77-2.44-11.44-5-17.85-5-2 0-7.34.56-7.16 3.65.09 1.55 2.46 2.08 3.65 2a5.27 5.27 0 0 0 1.66-.33c-.37-.13-1-.39-.95-.89.1-.76 1.42-.82 2-.81 1.36 0 3.53.51 3.47 2.26-.1 3.32-5.62 4.15-8 4.14-5.6-.12-11.28-2.9-16.26-5.11zm92.35-15.09h74a109.24 109.24 0 0 0 76.69-32.09c20-20.05 31-46.24 30.92-73.76a105.86 105.86 0 0 0 -31-74.74 104.51 104.51 0 0 0 -74.61-31.18h-63a32.84 32.84 0 0 0 -31.43 23.68l-10.68 37.26h104.11c24.18 0 44.45 18.43 46.14 41.94a45.29 45.29 0 0 1 -45.14 48.55h-53.16l-11.72 40.84a47.49 47.49 0 0 1 -11.12 19.5zm-72.33 0h37.53a32.83 32.83 0 0 0 31.42-23.67l32.15-112.1h-102.55c-25.48 0-46.27-20.24-46.34-45.12a45.87 45.87 0 0 1 45.86-46h129.16l17.1-59.74h-144.85a109.22 109.22 0 0 0 -76.84 32.2c-20 20.12-30.93 46.41-30.77 74a105.59 105.59 0 0 0 105.6 105h24.13zm99.52-75.43h48.81a30.17 30.17 0 0 0 30.09-32.41c-1.09-15.66-14.78-27.93-31.09-27.93h-30.53zm-101.45-136.34a30.78 30.78 0 0 0 -30.74 30.84c.05 16.58 14.07 30.07 31.25 30.07h29l11.87-41.42a47.47 47.47 0 0 1 11.14-19.49z" fill="#1d642e" filter="url(#b)"/><g fill="#8ebf22"><path d="m247.61 192.34c3.4-3.06 11-5.07 15.6-5 2.26 0 7.91 1 7.75 4.28-.08 1.73-2.35 2.15-3.71 2.11-.48 0-1.81-.15-1.73-.92.05-.44.6-.66 1-.78a5.37 5.37 0 0 0 -2-.33c-1.14 0-3.41.64-3.37 2.15.1 3.14 5.37 3.56 7.5 3.54 6.34 0 12.15-2.58 17.84-5.11 5-2.21 10.72-5 16.31-4.94 2.26 0 7.92 1 7.76 4.28-.09 1.73-2.35 2.15-3.72 2.11-.48 0-1.81-.15-1.72-.92.05-.44.59-.66.95-.78a5.4 5.4 0 0 0 -1.95-.33c-1.15 0-3.42.64-3.37 2.15.09 3.14 5.36 3.56 7.49 3.54 6.34 0 12.15-2.58 17.84-5.11 4.32-1.91 9.5-5.16 14.29-4.72 2.26.21 8.5 1.94 7.55 5.46-.45 1.64-2.75 1.63-4.09 1.38-.47-.09-1.76-.41-1.59-1.14.11-.44.69-.58 1.07-.65a4.94 4.94 0 0 0 -1.95-.57c-1.15-.1-3.53.32-3.56 1.88-.06 2.94 4.68 4 6.76 4.31 6 1 12 .4 18 .83 5.77.42 12.57 1.9 16.88 6.08 1.63 1.58 5.39 6.86 2.43 9-1.38 1-3.16-.46-4-1.49-.31-.37-1.12-1.43-.52-1.89.36-.28.9 0 1.24.16a5.23 5.23 0 0 0 -1.16-1.67c-.83-.8-2.95-2-3.95-.77-1.89 2.25 1.15 6 2.55 7.61 4 4.54 9.08 7.86 13.44 12 4.2 4 8.47 9.52 9.05 15.51.3 3.11-.05 7.31-3.94 7.08-1.71-.1-2.13-.68-2.14-2.4 0-.48.07-1.81.83-1.77.45 0 .7.57.84.92a5.28 5.28 0 0 0 .2-2c-.12-1.15-1-3.41-2.52-3.14-2.89.5-3 5.32-3 7.43.08 5.56 2.11 11.1 2.82 16.6.74 5.75.61 12.73-2.68 17.78-1.24 1.9-5.72 6.62-8.38 4.11-1.24-1.17-.14-3.19.71-4.25.29-.38 1.18-1.37 1.75-.87.34.3.19.88.08 1.24a5.3 5.3 0 0 0 1.42-1.45c.62-1 1.37-3.28 0-4-2.57-1.42-5.69 2.28-7 3.95-3.45 4.46-4.82 9.57-7.76 14.45-3 5-7.53 10.48-13.32 12.42-2.14.72-8.71 1.69-9.23-2-.24-1.69 1.93-2.59 3.25-2.9.47-.11 1.81-.35 1.94.4.08.45-.41.82-.72 1a5.44 5.44 0 0 0 2-.26c1.09-.38 3.16-1.73 2.55-3.18-1.15-2.72-6-1.71-8-1.21-5.8 1.41-10.88 4.18-16.23 6.53-5 2.22-10.81 5-16.44 4.95-2.26 0-8-.94-7.82-4.29.08-1.73 2.38-2.14 3.74-2.1.48 0 1.83.15 1.74.91-.05.44-.6.66-1 .79a5.78 5.78 0 0 0 2 .33c1.14 0 3.44-.64 3.4-2.16-.1-3.15-5.43-3.55-7.56-3.54-6.38 0-12 2.63-17.8 5 1.68 1 1.44 2.36 1.59 4.25.26 3.35.47 6.94-.5 10.2-.65 2.17-3.1 7.33-6.26 6.25-1.63-.55-1.41-2.84-1-4.14.15-.46.65-1.69 1.36-1.4.41.17.47.75.49 1.13a5.41 5.41 0 0 0 .85-1.78c.29-1.11.32-3.45-1.14-3.82-3-.78-4.89 4.15-5.47 6.21-1.7 6.09-.75 12.16 0 18.3.71-1.88 2.35-2 4.21-2.66 3.55-1.2 7.34-2.4 11.13-2.37 2.23 0 8.79.8 8.6 4.29-.09 1.82-2.73 2.14-4.11 2.11-.47 0-2-.12-1.92-.92.06-.46.69-.67 1.06-.78a6.37 6.37 0 0 0 -2.16-.33c-1.14 0-3.79.55-3.74 2.15.11 3.28 6.18 3.55 8.3 3.54 7 0 13.41-2.56 19.77-5.11 4.75-1.9 10.42-4.84 15.58-5.08 2.23-.11 8.07.21 8.38 3.45.17 1.81-2.29 2.48-3.67 2.58-.48 0-2 .06-1.93-.74 0-.45.59-.72.94-.87a6.61 6.61 0 0 0 -2.08-.16c-1.13.11-3.58.8-3.48 2.34.21 3.38 6.37 3.17 8.47 2.91 6.9-.86 12.72-4.72 17.86-9.17 4.31-3.74 8.41-8.51 13.5-11.21 2-1.05 7.41-3.26 9.06-.45.92 1.56-1 3.22-2.22 3.9-.41.23-1.75.88-2.06.15-.18-.42.23-.9.48-1.19a6.49 6.49 0 0 0 -1.95.74c-1 .58-2.9 2.26-2.15 3.61 1.64 2.95 7.1.15 8.9-1 5.87-3.7 9.51-9.64 12.3-15.83 2.35-5.2 4.08-11.25 7.57-15.84 1.35-1.78 5.34-6.06 8-4.21 1.5 1 .43 3.35-.37 4.47-.28.38-1.22 1.54-1.81 1-.34-.3-.17-.91-.06-1.27a6.08 6.08 0 0 0 -1.46 1.49c-.64.93-1.68 3.26-.44 4.17 2.73 2 6.52-2.86 7.67-4.64 3.77-5.84 4.55-12.79 4.39-19.59-.12-5.69-1.22-11.86-.14-17.51.42-2.19 2.08-7.78 5.3-7.34 1.8.25 1.88 2.8 1.66 4.17-.07.47-.4 1.92-1.16 1.71-.44-.13-.57-.74-.63-1.12a6.3 6.3 0 0 0 -.64 2c-.16 1.13-.06 3.67 1.46 3.94 3.34.58 4.57-5.47 4.8-7.59.77-7-1.62-13.88-4.94-20-2.68-4.92-6.43-9.87-7.94-15.33-.6-2.15-1.51-7.79 1.56-8.8 1.71-.56 2.9 1.63 3.3 2.95.14.45.48 1.86-.3 2-.44.09-.83-.4-1.05-.71a6.05 6.05 0 0 0 .29 2c.36 1.08 1.57 3.26 3 2.82 3.22-1 1.72-6.78 1-8.78-2.32-6.44-7.32-11.16-12.73-15.1-4.53-3.3-10-6.17-13.73-10.47-1.46-1.69-4.69-6.41-2.34-8.63 1.31-1.23 3.32.24 4.24 1.26.33.35 1.23 1.49.59 1.95-.37.27-.92 0-1.25-.19a5.92 5.92 0 0 0 1.13 1.71c.77.83 2.8 2.28 3.94 1.26 2.5-2.24-1.33-6.86-2.84-8.37-4.84-4.83-11.37-7-17.94-8.25-5.5-1.06-11.69-1.32-16.87-3.61-2-.91-7-3.78-5.81-6.8.65-1.67 3.1-1.21 4.37-.68.44.18 1.74.82 1.37 1.51-.22.4-.84.39-1.22.37a6.08 6.08 0 0 0 1.76 1.06c1.05.41 3.5.85 4.1-.56 1.31-3.09-4.15-5.63-6.15-6.34-6.46-2.29-13.29-1.41-19.76.3-5.18 1.37-10.94 4-16.37 4-2.24 0-8.39-.86-8.22-4.28.09-1.78 2.56-2.15 3.94-2.11.47 0 1.92.13 1.83.91-.06.45-.65.67-1 .78a5.78 5.78 0 0 0 2.06.33c1.14 0 3.63-.59 3.58-2.15-.1-3.22-5.82-3.55-7.94-3.54-6.68 0-12.85 2.57-18.91 5.11-5.33 2.23-11.38 5-17.29 4.95-2.25 0-8.4-.86-8.22-4.28.08-1.78 2.56-2.15 3.93-2.11.48 0 1.93.13 1.83.91 0 .45-.64.67-1 .78a5.83 5.83 0 0 0 2.07.33c1.14 0 3.62-.59 3.57-2.15-.1-3.22-5.81-3.55-7.94-3.54-6.34 0-13 2-17.91 6-4.49 3.65-6 8.36-8.16 13.43-.76 1.78-3.5 6-6 5.09-1.73-.6-1.3-3.27-.88-4.59.2-.62.49-.57 1.07-.4a2.14 2.14 0 0 1 .71.35c.45 0 .47-.4.59-.8.32-1.06.86-3.63-.46-4.3-2.8-1.42-5.33 3.76-5.86 5.65-1.84 6.83-1.11 13.62-.57 20.49z"/><path d="m305.43 116.31c-.84-1-.77-2.88-.93-4.17-.46-3.62-.95-7.66.11-11.23.66-2.19 3.06-6.75 6.11-5.72 1.57.53 1.49 2.6 1.07 3.89-.15.47-.63 1.56-1.32 1.28-.4-.16-.48-.69-.51-1.06a4.65 4.65 0 0 0 -.82 1.65c-.28 1.11-.2 3.23 1.21 3.6 2.94.75 4.75-3.65 5.32-5.71 1.6-5.72.52-11.4-.32-17.12a33 33 0 0 1 -16.79 5c-2.25 0-8.47-.84-8.3-4.28.09-1.79 2.59-2.15 4-2.11.48 0 1.94.13 1.85.92-.06.45-.66.66-1 .78a6.12 6.12 0 0 0 2.08.33c1.14 0 3.66-.58 3.61-2.15-.1-3.23-5.89-3.55-8-3.54-6.73 0-12.95 2.57-19.07 5.11-5.39 2.23-11.48 5-17.44 4.94-2.25 0-8.47-.84-8.3-4.28.09-1.79 2.6-2.15 4-2.11.48 0 1.94.13 1.85.92-.06.45-.66.66-1 .78a6.12 6.12 0 0 0 2.08.33c1.14 0 3.66-.58 3.61-2.15-.1-3.23-5.89-3.55-8-3.54-6.73 0-12.95 2.57-19.07 5.11-5.38 2.23-11.48 5-17.44 4.94-2.25 0-8.47-.84-8.3-4.28.09-1.79 2.6-2.15 4-2.11.48 0 1.94.13 1.85.92-.06.45-.66.66-1 .78a6.12 6.12 0 0 0 2.08.33c1.14 0 3.66-.58 3.61-2.15-.1-3.23-5.89-3.55-8-3.54-6.73 0-13 2.57-19.07 5.11-5 2.08-10 5.19-15.56 6-2.21.33-8.17.65-8.81-2.57-.35-1.79 2.09-2.71 3.46-3 .46-.08 2-.26 2 .54 0 .45-.53.78-.87 1a6.29 6.29 0 0 0 2.12-.06c1.11-.21 3.54-1.14 3.29-2.68-.56-3.36-6.78-2.49-8.85-2-6.87 1.57-12.36 6-17.12 11-4 4.19-7.69 9.38-12.56 12.63-1.85 1.24-7.12 4.08-9.06 1.43-1.09-1.47.73-3.33 1.86-4.13.39-.28 1.67-1.08 2.06-.38.22.4-.15.93-.37 1.24a6.49 6.49 0 0 0 1.89-1c.91-.67 2.71-2.55 1.82-3.82-1.94-2.8-7.18.64-8.86 2-5.52 4.32-8.57 10.62-10.72 17.15-1.79 5.41-2.87 11.6-5.83 16.54-1.15 1.92-4.65 6.6-7.52 5.06-1.6-.86-.79-3.28-.12-4.48.24-.42 1-1.67 1.69-1.2.37.26.27.89.2 1.26a6.24 6.24 0 0 0 1.29-1.64c.54-1 1.32-3.42 0-4.19-2.93-1.7-6.17 3.55-7.12 5.45-3.1 6.23-3.1 13.22-2.17 20 .78 5.64 2.58 11.64 2.16 17.38-.24 3.23-.8 6.44-4.45 6.43-1.8 0-2.18-.7-2.1-2.48 0-.47.17-1.95 1-1.83.45.07.64.67.75 1a6.23 6.23 0 0 0 .41-2.05c0-1.13-.36-3.65-1.9-3.74-3.38-.19-3.91 6-3.9 8.08 0 5.87 3.58 12.12 6.64 16.95 3.16 5 7.39 9.83 9.52 15.39.8 2.07 2.5 7.95-.51 9.28-1.69.75-3.14-1.5-3.67-2.78-.19-.43-.71-1.9.06-2.12.44-.13.88.36 1.14.65a6.78 6.78 0 0 0 -.54-2.09c-.45-1-1.9-3.28-3.35-2.69-3.19 1.28-.89 7.32 0 9.23 3.09 6.47 8.74 10.94 14.79 14.52 4.35 2.57 10.29 4.55 13.89 8 1.61 1.53 5.64 6.11 3.48 8.6-1.21 1.39-3.46 0-4.5-.94-.35-.31-1.44-1.41-.84-1.94.35-.31 1-.06 1.3.1a6.6 6.6 0 0 0 -1.36-1.66c-.86-.74-3.12-2.13-4.18-1-2.32 2.53 2.3 7 3.94 8.3 5.55 4.52 12.53 6.15 19.5 6.8 5.85.54 12.24.16 17.92 1.87 2.13.65 7.78 2.91 7 6.1-.44 1.79-3.09 1.56-4.43 1.2-.45-.13-1.93-.61-1.63-1.36.17-.42.82-.47 1.21-.5a6.5 6.5 0 0 0 -2-.85c-1.1-.28-3.74-.5-4.17 1-.94 3.31 5.2 5.18 7.27 5.63 7 1.52 14-.2 20.46-2.75.89-.35.92-1 1.52-1.31a33.39 33.39 0 0 1 14.73-3.63c2.22 0 8.8.79 8.61 4.28-.09 1.82-2.74 2.15-4.12 2.11-.47 0-2-.12-1.92-.92.06-.46.69-.67 1.06-.78a6.65 6.65 0 0 0 -2.17-.33c-1.13 0-3.79.55-3.74 2.15.1 3.28 6.2 3.55 8.32 3.54 7 0 13.22-2.61 19.61-5 2.71 3 1.93 11.64.79 15.49-.64 2.16-3.11 7.49-6.29 6.4-1.65-.56-1.4-2.91-1-4.21.15-.46.65-1.73 1.37-1.44.41.17.46.77.48 1.15a5.56 5.56 0 0 0 .87-1.82c.29-1.1.36-3.51-1.13-3.89-3.06-.78-4.93 4.31-5.5 6.36-1.74 6.2-.92 12.58-.09 18.86.73 5.5 1.79 11.87.18 17.32-.64 2.17-3.11 7.49-6.3 6.41-1.65-.56-1.4-2.91-1-4.22.14-.45.65-1.73 1.36-1.43.42.17.47.77.49 1.14a5.59 5.59 0 0 0 .86-1.81c.29-1.11.36-3.52-1.12-3.9-3.07-.78-4.93 4.31-5.51 6.36-1.73 6.2-.82 12.4-.11 18.66.29-1.93 2-2 3.72-2.64 3.42-1.2 7.08-2.42 10.75-2.39s6.59.5 6.61 4.29c0 1.81-.43 2.16-2.32 2.11-.47 0-1.93-.14-1.83-.92 0-.45.64-.66 1-.78a5.89 5.89 0 0 0 -2.08-.33c-1.14 0-3.62.59-3.57 2.15.1 3.22 5.83 3.55 8 3.54 6.38 0 12.07-5 14.41-10.65a21.62 21.62 0 0 0 1.6-8.14c0-2-.6-3.29 0-5.27.65-2.18 3.06-6.91 6.14-5.87 1.59.54 1.47 2.67 1.06 4-.15.47-.64 1.6-1.33 1.32-.4-.16-.48-.71-.51-1.08a4.78 4.78 0 0 0 -.82 1.68c-.29 1.11-.24 3.29 1.19 3.66 3 .76 4.78-3.79 5.35-5.84 1.63-5.82.68-11.79-.26-17.63-.81-5.09-2-11.1-.5-16.19.65-2.19 3.07-6.91 6.14-5.87 1.59.54 1.48 2.67 1.06 4-.15.46-.64 1.6-1.33 1.32-.4-.17-.48-.71-.5-1.09a4.68 4.68 0 0 0 -.83 1.69c-.29 1.11-.23 3.29 1.19 3.65 3 .76 4.78-3.78 5.36-5.84 1.62-5.81.67-11.79-.26-17.62-.82-5.1-2-11.11-.51-16.19.65-2.19 3.07-6.91 6.15-5.87 1.59.53 1.47 2.66 1.05 4-.15.47-.63 1.6-1.33 1.32-.4-.16-.48-.71-.5-1.08a4.89 4.89 0 0 0 -.83 1.68c-.29 1.11-.23 3.3 1.19 3.66 3 .76 4.79-3.78 5.36-5.84 1.63-5.82.58-11.6-.23-17.44-3.2 3.11-10.88 5.07-15.39 5-2.27 0-7.87-1-7.71-4.28.08-1.72 2.33-2.15 3.69-2.11.48 0 1.8.15 1.72.91-.05.44-.59.66-1 .79a5.31 5.31 0 0 0 1.94.33c1.14 0 3.39-.65 3.35-2.16-.09-3.13-5.32-3.55-7.45-3.53-6.31 0-12.08 2.58-17.74 5.1-5 2.21-10.65 5-16.21 4.95-2.27 0-7.87-1-7.71-4.28.08-1.72 2.33-2.15 3.69-2.11.48 0 1.8.15 1.72.91 0 .44-.59.66-.95.79a5.35 5.35 0 0 0 1.94.33c1.14 0 3.4-.65 3.35-2.16-.09-3.13-5.32-3.55-7.45-3.53-6.31 0-12.08 2.58-17.73 5.1-5 2.23-10.62 5.2-16.25 4.43-2.27-.31-8.15-2.31-7.08-5.73.51-1.6 2.72-1.54 4-1.24.48.11 1.7.48 1.49 1.2-.12.43-.68.55-1.06.61a5 5 0 0 0 1.87.65c1.14.14 3.44-.21 3.54-1.74.19-2.9-4.3-4.13-6.37-4.57-5.77-1.24-11.69-.77-17.52-1.32-5.6-.53-12.22-2.09-16.31-6.27-1.59-1.63-5-6.82-2.06-8.86 1.38-1 3.08.45 3.94 1.5.3.37 1 1.41.44 1.86-.36.26-.89 0-1.22-.17a4.92 4.92 0 0 0 1.08 1.65c.81.82 2.84 1.95 3.86.8 1.93-2.17-.86-5.89-2.22-7.51-3.79-4.51-8.74-7.78-13-11.83-4.07-3.9-8.26-9.28-8.79-15.12-.23-2.49.34-7.7 4-7.45 1.5.1 2.12 1.65 2.12 2.92 0 .48-.09 1.75-.84 1.72-.44 0-.69-.55-.83-.9a4.82 4.82 0 0 0 -.21 2c.12 1.15 1 3.31 2.49 3.06 2.86-.48 3.06-5.1 3-7.22-.08-5.68-2-11.23-2.77-16.83s-.68-12.5 2.53-17.46c1.24-1.92 5.61-6.48 8.25-4 1.24 1.14.21 3.13-.63 4.2-.3.38-1.16 1.34-1.73.85-.34-.3-.2-.87-.09-1.23a5 5 0 0 0 -1.39 1.42c-.62 1-1.31 3.23.05 4 2.55 1.4 5.6-2.19 6.88-3.87 3.49-4.83 5.49-10.3 8.49-15.3 2.85-4.85 7.1-10.17 12.63-12.07 2.16-.74 8.33-1.6 8.9 2 .26 1.66-1.74 2.59-3 2.91-.47.11-1.73.33-1.87-.41-.09-.43.37-.8.67-1a5 5 0 0 0 -1.95.26c-1.09.39-3 1.73-2.38 3.15 1.13 2.66 5.68 1.76 7.73 1.23 5.46-1.41 9.86-4.53 14.77-6.72s10.66-5 16.23-5c2.26 0 7.88 1 7.72 4.29-.09 1.72-2.33 2.15-3.7 2.11-.48 0-1.8-.16-1.72-.92 0-.44.59-.66.95-.78a5.15 5.15 0 0 0 -1.94-.33c-1.14 0-3.4.64-3.35 2.15.09 3.13 5.32 3.55 7.45 3.54 6.32 0 12.09-2.59 17.75-5.11 5-2.21 10.67-5 16.23-5 2.27 0 7.88 1 7.72 4.29-.08 1.72-2.33 2.15-3.7 2.11-.48 0-1.8-.16-1.71-.92 0-.44.59-.66.94-.78a5.11 5.11 0 0 0 -1.94-.33c-1.14 0-3.4.64-3.35 2.15.09 3.13 5.32 3.55 7.46 3.54 6.31 0 12.09-2.59 17.75-5.11 4.95-2.21 10.66-5 16.22-5 2.27 0 7.88 1 7.72 4.29-.08 1.72-2.33 2.15-3.69 2.11-.49 0-1.81-.16-1.72-.92.05-.44.59-.66.95-.78a5.18 5.18 0 0 0 -1.94-.33c-1.15 0-3.4.64-3.36 2.15.09 3.13 5.33 3.55 7.46 3.54 6.24-.01 11.81-2.6 17.5-5z"/></g></g></svg>