<svg viewBox="0 0 270 270.68" xmlns="http://www.w3.org/2000/svg" xmlns:xlink="http://www.w3.org/1999/xlink"><clipPath id="a"><path d="m.12.34h269.77v270h-269.77z" transform="matrix(0 1 -1 0 270.34 .34)"/></clipPath><path d="m-.34.34h270.68v270h-270.68z" fill="#f29f00" transform="matrix(0 1 -1 0 270.34 .34)"/><g clip-path="url(#a)" fill-rule="evenodd"><path d="m260.19 4.82-5 .32-12.36 1.61c-10.26 2.25-19.83 4.63-28.6 8.36-37.72 16-65.64 45-78.42 86-4.19 13.41-8.3 35.1-5.14 53.19 1.32 7.59 2.13 14.89 4.17 21.7 4.64 15.4 11 29 19.29 40.82 12.39 17.59 28.12 30.7 47.08 41.78 6.5 3.8 14 6.52 21.54 9.16 2.28.8 8.13 1.28 9.32 3.21.87 2.28-3.67 14.29-4.5 17l-10.29 36.47c-1.19 3.92-4.86 12.46-4.34 16.4l.49.16 108.63.16h59.78c13.57 0 27.45.55 38.73-1.93 51.43-11.33 85.43-40.23 103.65-84.68 8.46-20.65 12.44-52.79 5.79-78.9-10-39.38-32.17-67.08-62.84-85.82-7.17-4.41-15.3-7.83-23.62-11.09-3.84-1.49-10.74-1.9-13.5-4.66q7.06-25.14 14.14-50.3c1.18-3.86 5.49-15 5-18.64l-.5-.14z" fill="#120e0b"/><path d="m263.4 45.8h120.69c3.24 0 8.45-.65 10.61.64v.16c0 4.52-2.34 9.08-3.54 13l-7.07 24.59c-1.45 4.67-2 11-4.66 14.62l-89.83.19c-26.72 0-42.66-1.23-54.8 14-5.33 6.69-12.2 17.12-10 30.38 3.07 18.23 13.18 29.75 29.4 34.71 6.74 2.06 16 1.6 24.75 1.6h66.69c3.11 0 8.4-.71 10.61.49 0 3.74-1.64 6.88-2.57 10q-2.82 9.79-5.63 19.61l-16.23 56.56c-4.51 14.61-6.29 25.73-19.76 31.5-8 3.41-21.3 2.41-32.63 2.41-3.55 0-9.64.81-12.05-.64v-.16c.07-5.05 3.1-11.8 4.5-16.4l9-32c.94-3.1 5.46-14.85 4.34-17.51l-26.2-.32c-11.7-1.93-21.34-3.18-30.53-7.07-26.51-11.25-45-31.88-53.83-60.91-2.93-9.66-5.34-24.4-3.06-36.8 1-5.23 1.73-10.38 3.22-15.11a98.61 98.61 0 0 1 15.59-30.05 96 96 0 0 1 48-33.26c5.27-1.65 10.84-2.45 16.72-3.54z" fill="#fff"/></g></svg>