<svg xmlns="http://www.w3.org/2000/svg" viewBox="0 0 270 270.68"><defs><style>.cls-1,.cls-6{fill:none}.cls-2{isolation:isolate}.cls-3{fill:#e34e11}.cls-4{clip-path:url(#clip-path)}.cls-5{mix-blend-mode:multiply;opacity:.5}.cls-6,.cls-7{stroke:#120e0b;stroke-miterlimit:10}.cls-6{stroke-width:6.36px}.cls-7{fill:#fff;stroke-width:1.23px}</style><clipPath id="clip-path"><path class="cls-1" transform="rotate(90 135 135.34)" d="M0.12 0.34H269.89V270.34H0.12z"/></clipPath></defs><g class="cls-2"><g id="Layer_2" data-name="Layer 2"><g id="ARTWORK"><path class="cls-3" transform="rotate(90 135 135.34)" d="M-0.34 0.34H270.34000000000003V270.34H-0.34z"/><g class="cls-4"><g class="cls-5"><path class="cls-6" d="M45.13 10.37a9.41 9.41 0 0 1-6.49 11.5l-11 3v-6.4l9.46-2.57a3.08 3.08 0 0 0 2-4 3.13 3.13 0 0 0-3.78-1.9l-9 2.57v-4a3.32 3.32 0 0 1 2.39-3.16L33.69 4a9.14 9.14 0 0 1 7 .82 9.28 9.28 0 0 1 4.44 5.55zM21.9 7.4l10.71-3v-6.65l-12.52 3.6a9.39 9.39 0 0 0-6.93 8.38 9.55 9.55 0 0 0 4.88 9 9.39 9.39 0 0 0 7.19.82l1.13-.33v6.18l3.75-1.07c1.4-.4 1.25-3.16 1.25-3.16V10.82l-7.71 2.54A3.1 3.1 0 0 1 20 8.89a3.12 3.12 0 0 1 1.9-1.49z"/><path class="cls-7" d="M45.13 10.37a9.41 9.41 0 0 1-6.49 11.5l-11 3v-6.4l9.46-2.57a3.08 3.08 0 0 0 2-4 3.13 3.13 0 0 0-3.78-1.9l-9 2.57v-4a3.32 3.32 0 0 1 2.39-3.16L33.69 4a9.14 9.14 0 0 1 7 .82 9.28 9.28 0 0 1 4.44 5.55z"/><path class="cls-7" d="M20 8.89a3.1 3.1 0 0 0 3.63 4.47l7.71-2.54 1.25 6.41v3.94a3.29 3.29 0 0 1-2.38 3.16l-3.87 1.11v-6.22l-1.14.33a9.44 9.44 0 0 1-7.2-.82 9.57 9.57 0 0 1-4.88-9 9.41 9.41 0 0 1 6.93-8.39l12.56-3.59v6.61L21.9 7.4A3.12 3.12 0 0 0 20 8.89z"/><path class="cls-6" d="M45.13 51.59a9.4 9.4 0 0 1-6.49 11.49l-11 3v-6.39l9.49-2.57a3.09 3.09 0 0 0 2-4 3.13 3.13 0 0 0-3.82-1.87l-9 2.57v-4a3.3 3.3 0 0 1 2.39-3.16l4.94-1.42a9.18 9.18 0 0 1 7 .82 9.3 9.3 0 0 1 4.49 5.53zm-23.23-3l10.71-3V39l-12.52 3.56a9.41 9.41 0 0 0-6.93 8.38 9.57 9.57 0 0 0 4.88 9 9.43 9.43 0 0 0 7.19.81l1.13-.32v6.18l3.75-1.08c1.4-.4 1.25-3.15 1.25-3.15V52l-7.71 2.53a3.14 3.14 0 0 1-3.9-2.08 3.14 3.14 0 0 1 2.15-3.88z"/><path class="cls-7" d="M45.13 51.59a9.4 9.4 0 0 1-6.49 11.49l-11 3v-6.39l9.49-2.57a3.09 3.09 0 0 0 2-4 3.13 3.13 0 0 0-3.82-1.87l-9 2.57v-4a3.3 3.3 0 0 1 2.39-3.16l4.94-1.42a9.18 9.18 0 0 1 7 .82 9.3 9.3 0 0 1 4.49 5.53z"/><path class="cls-7" d="M20 50.11a3.1 3.1 0 0 0-.27 2.38 3.14 3.14 0 0 0 3.9 2.08L31.36 52l1.25 6.4v3.94a3.28 3.28 0 0 1-2.38 3.16l-3.87 1.11v-6.18l-1.14.33a9.44 9.44 0 0 1-7.22-.82 9.56 9.56 0 0 1-4.88-9 9.39 9.39 0 0 1 6.93-8.38L32.61 39v6.62l-10.71 3a3.13 3.13 0 0 0-1.9 1.49z"/><path class="cls-6" d="M45.13 92.8a9.42 9.42 0 0 1-6.49 11.5l-11 3v-6.4l9.49-2.57a3.09 3.09 0 0 0 2-4 3.14 3.14 0 0 0-3.82-1.87l-9 2.57V91a3.31 3.31 0 0 1 2.39-3.16l4.94-1.42a9.22 9.22 0 0 1 7 .82 9.33 9.33 0 0 1 4.49 5.56zm-23.23-3l10.71-3v-6.62l-12.52 3.59a9.41 9.41 0 0 0-6.93 8.39 9.55 9.55 0 0 0 4.88 9 9.43 9.43 0 0 0 7.19.82l1.13-.33v6.18l3.75-1.07c1.4-.41 1.25-3.16 1.25-3.16V93.25l-7.71 2.53a3.1 3.1 0 1 1-1.75-6z"/><path class="cls-7" d="M45.13 92.8a9.42 9.42 0 0 1-6.49 11.5l-11 3v-6.4l9.49-2.57a3.09 3.09 0 0 0 2-4 3.14 3.14 0 0 0-3.82-1.87l-9 2.57V91a3.31 3.31 0 0 1 2.39-3.16l4.94-1.42a9.22 9.22 0 0 1 7 .82 9.33 9.33 0 0 1 4.49 5.56z"/><path class="cls-7" d="M20 91.32a3.09 3.09 0 0 0 3.63 4.46l7.71-2.53 1.25 6.41v3.94a3.3 3.3 0 0 1-2.38 3.16l-3.87 1.11v-6.22l-1.14.32a9.44 9.44 0 0 1-7.19-.81 9.57 9.57 0 0 1-4.88-9 9.41 9.41 0 0 1 6.93-8.39l12.53-3.6v6.62l-10.71 3A3.12 3.12 0 0 0 20 91.32z"/><path class="cls-6" d="M45.13 134a9.41 9.41 0 0 1-6.49 11.5l-11 3v-6.4l9.49-2.58a3.08 3.08 0 0 0 2-4 3.13 3.13 0 0 0-3.82-1.87l-9 2.57v-4a3.32 3.32 0 0 1 2.39-3.16l4.94-1.41a9.14 9.14 0 0 1 7 .82 9.28 9.28 0 0 1 4.49 5.53zm-23.23-3l10.71-3v-6.61L20.09 125a9.39 9.39 0 0 0-6.93 8.38 9.55 9.55 0 0 0 4.88 9 9.39 9.39 0 0 0 7.19.82l1.13-.32V149l3.75-1c1.4-.4 1.25-3.16 1.25-3.16v-10.38L23.65 137a3.11 3.11 0 1 1-1.75-6z"/><path class="cls-7" d="M45.13 134a9.41 9.41 0 0 1-6.49 11.5l-11 3v-6.4l9.49-2.58a3.08 3.08 0 0 0 2-4 3.13 3.13 0 0 0-3.82-1.87l-9 2.57v-4a3.32 3.32 0 0 1 2.39-3.16l4.94-1.41a9.14 9.14 0 0 1 7 .82 9.28 9.28 0 0 1 4.49 5.53z"/><path class="cls-7" d="M20 132.53a3.1 3.1 0 0 0 3.65 4.47l7.71-2.54 1.25 6.41v3.94a3.29 3.29 0 0 1-2.38 3.19l-3.87 1.11v-6.22l-1.14.33a9.44 9.44 0 0 1-7.19-.82 9.56 9.56 0 0 1-4.88-9 9.41 9.41 0 0 1 6.93-8.4l12.53-3.59V128l-10.71 3a3.12 3.12 0 0 0-1.9 1.53z"/><path class="cls-6" d="M45.13 175.23a9.4 9.4 0 0 1-6.49 11.49l-11 3v-6.41l9.49-2.57a3.07 3.07 0 0 0 1.84-1.47 3 3 0 0 0 .2-2.56 3.13 3.13 0 0 0-3.82-1.87l-9 2.57v-4a3.3 3.3 0 0 1 2.39-3.16l4.94-1.42a9.18 9.18 0 0 1 7 .82 9.33 9.33 0 0 1 4.45 5.58zm-23.23-3l10.71-3v-6.61l-12.52 3.58a9.41 9.41 0 0 0-6.93 8.39 9.56 9.56 0 0 0 4.88 9 9.43 9.43 0 0 0 7.19.81l1.13-.32v6.18l3.75-1.08c1.4-.4 1.25-3.15 1.25-3.15v-10.35l-7.71 2.53a3.09 3.09 0 0 1-3.65-4.46 3.08 3.08 0 0 1 1.9-1.49z"/><path class="cls-7" d="M45.13 175.23a9.4 9.4 0 0 1-6.49 11.49l-11 3v-6.41l9.49-2.57a3.07 3.07 0 0 0 1.84-1.47 3 3 0 0 0 .2-2.56 3.13 3.13 0 0 0-3.82-1.87l-9 2.57v-4a3.3 3.3 0 0 1 2.39-3.16l4.94-1.42a9.18 9.18 0 0 1 7 .82 9.33 9.33 0 0 1 4.45 5.58z"/><path class="cls-7" d="M20 173.75a3.09 3.09 0 0 0 3.63 4.46l7.71-2.53 1.25 6.4V186a3.28 3.28 0 0 1-2.38 3.16l-3.87 1.11v-6.22l-1.14.33a9.44 9.44 0 0 1-7.19-.82 9.56 9.56 0 0 1-4.88-9 9.39 9.39 0 0 1 6.93-8.38l12.53-3.6v6.62l-10.71 3a3.08 3.08 0 0 0-1.88 1.55z"/><path class="cls-6" d="M45.13 216.44a9.42 9.42 0 0 1-6.49 11.5l-11 3v-6.41L37.1 222a3.09 3.09 0 0 0 2-4 3.14 3.14 0 0 0-3.82-1.88l-9 2.57v-4a3.32 3.32 0 0 1 2.39-3.16l4.94-1.42a9.18 9.18 0 0 1 7 .83 9.28 9.28 0 0 1 4.52 5.5zm-23.23-3l10.71-3v-6.61l-12.52 3.59a9.41 9.41 0 0 0-6.93 8.39 9.55 9.55 0 0 0 4.88 9 9.43 9.43 0 0 0 7.19.82l1.13-.33v6.18l3.75-1.07c1.4-.41 1.25-3.16 1.25-3.16v-10.36l-7.71 2.54A3.1 3.1 0 0 1 20 215a3.12 3.12 0 0 1 1.9-1.53z"/><path class="cls-7" d="M45.13 216.44a9.42 9.42 0 0 1-6.49 11.5l-11 3v-6.41L37.1 222a3.09 3.09 0 0 0 2-4 3.14 3.14 0 0 0-3.82-1.88l-9 2.57v-4a3.32 3.32 0 0 1 2.39-3.16l4.94-1.42a9.18 9.18 0 0 1 7 .83 9.28 9.28 0 0 1 4.52 5.5z"/><path class="cls-7" d="M20 215a3.1 3.1 0 0 0 3.63 4.47l7.71-2.54 1.25 6.41v3.94a3.3 3.3 0 0 1-2.38 3.16l-3.87 1.11v-6.22l-1.14.32a9.44 9.44 0 0 1-7.2-.85 9.57 9.57 0 0 1-4.88-9 9.41 9.41 0 0 1 6.93-8.39l12.53-3.6v6.62l-10.71 3A3.12 3.12 0 0 0 20 215z"/><path class="cls-6" d="M45.13 257.65a9.41 9.41 0 0 1-6.49 11.5l-11 3v-6.4l9.49-2.58a3.08 3.08 0 0 0 2-4 3.13 3.13 0 0 0-3.82-1.87l-9 2.57v-4a3.3 3.3 0 0 1 2.39-3.15l4.94-1.42a9.14 9.14 0 0 1 7 .82 9.28 9.28 0 0 1 4.49 5.53zm-23.23-3l10.71-3V245l-12.52 3.6a9.39 9.39 0 0 0-6.93 8.4 9.55 9.55 0 0 0 4.84 9 9.39 9.39 0 0 0 7.19.82l1.13-.32v6.17l3.75-1.07c1.4-.4 1.25-3.16 1.25-3.16V258.1l-7.71 2.54a3.14 3.14 0 0 1-3.9-2.08 3.14 3.14 0 0 1 2.15-3.88z"/><path class="cls-7" d="M45.13 257.65a9.41 9.41 0 0 1-6.49 11.5l-11 3v-6.4l9.49-2.58a3.08 3.08 0 0 0 2-4 3.13 3.13 0 0 0-3.82-1.87l-9 2.57v-4a3.3 3.3 0 0 1 2.39-3.15l4.94-1.42a9.14 9.14 0 0 1 7 .82 9.28 9.28 0 0 1 4.49 5.53z"/><path class="cls-7" d="M20 256.18a3.1 3.1 0 0 0-.27 2.38 3.14 3.14 0 0 0 3.9 2.08l7.71-2.54 1.25 6.41v3.94a3.28 3.28 0 0 1-2.38 3.16l-3.87 1.11v-6.22l-1.14.33A9.44 9.44 0 0 1 18 266a9.56 9.56 0 0 1-4.88-9 9.39 9.39 0 0 1 6.93-8.38L32.61 245v6.61l-10.71 3a3.1 3.1 0 0 0-1.9 1.57z"/><path class="cls-6" d="M83.16-8.18a9.4 9.4 0 0 1-6.48 11.49l-10.32 3V-.08l8.77-2.57A3.09 3.09 0 0 0 77-4.12a3.07 3.07 0 0 0 .19-2.56 3.12 3.12 0 0 0-3.81-1.87L65.11-6v-4a2.24 2.24 0 0 1 1.67-3.16l4.94-1.42a9.22 9.22 0 0 1 7 .82 9.33 9.33 0 0 1 4.44 5.58zm-23.23-3l11.43-3v-6.36l-13 3.49a9.4 9.4 0 0 0-6.48 11.52A9.18 9.18 0 0 0 56.27 0a9.24 9.24 0 0 0 7 .8l.57-.32v6.4l3.87-1.11a3.28 3.28 0 0 0 2.38-3.15V-7.73L61.68-5.2a3.12 3.12 0 0 1-3.89-2.07 3.12 3.12 0 0 1 .26-2.39 3.11 3.11 0 0 1 1.88-1.49z"/><path class="cls-7" d="M83.16-8.18a9.4 9.4 0 0 1-6.48 11.49l-10.32 3V-.08l8.77-2.57A3.09 3.09 0 0 0 77-4.12a3.07 3.07 0 0 0 .19-2.56 3.12 3.12 0 0 0-3.81-1.87L65.11-6v-4a2.24 2.24 0 0 1 1.67-3.16l4.94-1.42a9.22 9.22 0 0 1 7 .82 9.33 9.33 0 0 1 4.44 5.58z"/><path class="cls-7" d="M58.05-9.66a3.12 3.12 0 0 0-.26 2.39 3.12 3.12 0 0 0 3.89 2.07l8.43-2.53 1.25 6.4v3.94s-1.81 2.75-3.22 3.16l-4.28 1.07V.66L62.72 1a9.4 9.4 0 0 1-7.19-.83 9.56 9.56 0 0 1-4.88-9 9.41 9.41 0 0 1 6.93-8.38l12.53-3.6v6.62l-10.18 3a3.11 3.11 0 0 0-1.88 1.53z"/><path class="cls-6" d="M83.16 33a9.41 9.41 0 0 1-6.48 11.5l-10.32 3v-6.37l8.77-2.57a3.06 3.06 0 0 0 2-4 3.14 3.14 0 0 0-3.81-1.88l-8.25 2.57v-4c-.71-1.46.26-2.75 1.67-3.16l4.94-1.42a9.18 9.18 0 0 1 7 .83 9.28 9.28 0 0 1 4.48 5.5zm-23.23-3l11.43-3v-6.33l-13 3.49a9.39 9.39 0 0 0-6.47 11.52A9.24 9.24 0 0 0 63.29 42l.57-.32v6.42l3.87-1.1a3.3 3.3 0 0 0 2.38-3.16V33.48L61.68 36a3.11 3.11 0 1 1-1.75-6z"/><path class="cls-7" d="M83.16 33a9.41 9.41 0 0 1-6.48 11.5l-10.32 3v-6.37l8.77-2.57a3.06 3.06 0 0 0 2-4 3.14 3.14 0 0 0-3.81-1.88l-8.25 2.57v-4c-.71-1.46.26-2.75 1.67-3.16l4.94-1.42a9.18 9.18 0 0 1 7 .83 9.28 9.28 0 0 1 4.48 5.5z"/><path class="cls-7" d="M58.05 31.55A3.1 3.1 0 0 0 61.68 36l8.43-2.54 1.25 6.41v3.93s-1.81 2.77-3.22 3.2l-4.28 1.07v-6.19l-1.14.32a9.39 9.39 0 0 1-7.19-.81 9.57 9.57 0 0 1-4.88-9A9.41 9.41 0 0 1 57.58 24l12.53-3.59V27l-10.18 3a3.14 3.14 0 0 0-1.88 1.55z"/><path class="cls-6" d="M83.16 74.25a9.4 9.4 0 0 1-6.48 11.49l-10.32 3v-6.39l8.77-2.57a3.07 3.07 0 0 0 2-4 3.12 3.12 0 0 0-3.81-1.87l-8.25 2.57v-4a2.24 2.24 0 0 1 1.67-3.16l4.94-1.42a9.14 9.14 0 0 1 7 .82 9.27 9.27 0 0 1 4.48 5.53zm-23.23-3l11.43-3v-6.37l-13 3.49a9.4 9.4 0 0 0-6.48 11.53 9.23 9.23 0 0 0 11.41 6.27l.57-.31v6.45l3.87-1.11a3.28 3.28 0 0 0 2.38-3.2V74.69l-8.43 2.54a3.11 3.11 0 1 1-1.75-6z"/><path class="cls-7" d="M83.16 74.25a9.4 9.4 0 0 1-6.48 11.49l-10.32 3v-6.39l8.77-2.57a3.07 3.07 0 0 0 2-4 3.12 3.12 0 0 0-3.81-1.87l-8.25 2.57v-4a2.24 2.24 0 0 1 1.67-3.16l4.94-1.42a9.14 9.14 0 0 1 7 .82 9.27 9.27 0 0 1 4.48 5.53z"/><path class="cls-7" d="M58.05 72.77a3.1 3.1 0 0 0 3.63 4.46l8.43-2.54 1.25 6.41V85s-1.81 2.76-3.22 3.16l-4.28 1.07v-6.14l-1.14.33a9.44 9.44 0 0 1-7.19-.82 9.56 9.56 0 0 1-4.88-9 9.39 9.39 0 0 1 6.93-8.38l12.53-3.6v6.62l-10.18 3a3.16 3.16 0 0 0-1.88 1.53z"/><path class="cls-6" d="M83.16 115.46A9.4 9.4 0 0 1 76.68 127l-10.32 3v-6.41l8.77-2.59a3.07 3.07 0 0 0 2-4 3.13 3.13 0 0 0-3.81-1.87l-8.25 2.57v-4a2.24 2.24 0 0 1 1.67-3.16l4.94-1.42a9.22 9.22 0 0 1 7 .82 9.33 9.33 0 0 1 4.48 5.52zm-23.23-3l11.43-3v-6.36l-13 3.49a9.4 9.4 0 0 0-6.47 11.53 9.24 9.24 0 0 0 11.41 6.28l.57-.32v6.45l3.87-1.11a3.28 3.28 0 0 0 2.38-3.15v-10.36l-8.43 2.53a3.1 3.1 0 1 1-1.75-6z"/><path class="cls-7" d="M83.16 115.46A9.4 9.4 0 0 1 76.68 127l-10.32 3v-6.41l8.77-2.59a3.07 3.07 0 0 0 2-4 3.13 3.13 0 0 0-3.81-1.87l-8.25 2.57v-4a2.24 2.24 0 0 1 1.67-3.16l4.94-1.42a9.22 9.22 0 0 1 7 .82 9.33 9.33 0 0 1 4.48 5.52z"/><path class="cls-7" d="M58.05 114a3.1 3.1 0 0 0 3.63 4.46l8.43-2.53 1.25 6.41v3.93s-1.81 2.75-3.22 3.16l-4.28 1.07v-6.17l-1.14.32a9.4 9.4 0 0 1-7.19-.82 9.55 9.55 0 0 1-4.88-9 9.41 9.41 0 0 1 6.93-8.38l12.53-3.6v6.62l-10.18 3a3.14 3.14 0 0 0-1.88 1.53z"/><path class="cls-6" d="M83.16 156.67a9.41 9.41 0 0 1-6.48 11.5l-10.32 3v-6.41l8.77-2.57a3.06 3.06 0 0 0 2-4 3.12 3.12 0 0 0-3.81-1.87l-8.25 2.57v-4c-.71-1.46.26-2.75 1.67-3.16l4.94-1.41a9.14 9.14 0 0 1 7 .82 9.28 9.28 0 0 1 4.48 5.53zm-23.23-3l11.43-3v-6.35l-13 3.49a9.39 9.39 0 0 0-6.47 11.52 9.24 9.24 0 0 0 11.41 6.28l.57-.32v6.46l3.87-1.11a3.29 3.29 0 0 0 2.38-3.16v-10.36l-8.43 2.54a3.11 3.11 0 1 1-1.75-6z"/><path class="cls-7" d="M83.16 156.67a9.41 9.41 0 0 1-6.48 11.5l-10.32 3v-6.41l8.77-2.57a3.06 3.06 0 0 0 2-4 3.12 3.12 0 0 0-3.81-1.87l-8.25 2.57v-4c-.71-1.46.26-2.75 1.67-3.16l4.94-1.41a9.14 9.14 0 0 1 7 .82 9.28 9.28 0 0 1 4.48 5.53z"/><path class="cls-7" d="M58.05 155.19a3.1 3.1 0 0 0 3.63 4.47l8.43-2.54 1.25 6.41v3.93s-1.81 2.76-3.22 3.16l-4.28 1.07v-6.17l-1.14.33a9.44 9.44 0 0 1-7.19-.82 9.57 9.57 0 0 1-4.88-9 9.41 9.41 0 0 1 6.93-8.39l12.53-3.59v6.61l-10.18 3a3.14 3.14 0 0 0-1.88 1.53z"/><path class="cls-6" d="M83.16 197.89a9.4 9.4 0 0 1-6.48 11.49l-10.32 3V206l8.77-2.57a3.07 3.07 0 0 0 2-4 3.12 3.12 0 0 0-3.81-1.87l-8.25 2.57v-4a2.24 2.24 0 0 1 1.71-3.13l4.94-1.42a9.28 9.28 0 0 1 11.44 6.36zm-23.23-3l11.43-3v-6.36l-13 3.49a9.4 9.4 0 0 0-6.47 11.53 9.24 9.24 0 0 0 11.41 6.28l.57-.32V213l3.87-1.11a3.28 3.28 0 0 0 2.38-3.16v-10.4l-8.43 2.54a3.11 3.11 0 1 1-1.75-6z"/><path class="cls-7" d="M83.16 197.89a9.4 9.4 0 0 1-6.48 11.49l-10.32 3V206l8.77-2.57a3.07 3.07 0 0 0 2-4 3.12 3.12 0 0 0-3.81-1.87l-8.25 2.57v-4a2.24 2.24 0 0 1 1.71-3.13l4.94-1.42a9.28 9.28 0 0 1 11.44 6.36z"/><path class="cls-7" d="M58.05 196.41a3.1 3.1 0 0 0 3.63 4.46l8.43-2.54 1.25 6.41v3.94s-1.81 2.75-3.22 3.15l-4.28 1.07v-6.17l-1.14.33a9.44 9.44 0 0 1-7.19-.82 9.56 9.56 0 0 1-4.88-9 9.39 9.39 0 0 1 6.93-8.38l12.53-3.6v6.62l-10.18 3a3.16 3.16 0 0 0-1.88 1.53z"/><path class="cls-6" d="M83.16 239.1a9.41 9.41 0 0 1-6.48 11.5l-10.32 3v-6.4l8.77-2.57a3.07 3.07 0 0 0 2-4 3.13 3.13 0 0 0-3.81-1.87l-8.25 2.57v-4c-.71-1.47.26-2.75 1.67-3.16l4.94-1.42a9.22 9.22 0 0 1 7 .82 9.33 9.33 0 0 1 4.48 5.53zm-23.23-3l11.43-3v-6.36l-13 3.49a9.4 9.4 0 0 0-6.47 11.53 9.24 9.24 0 0 0 11.4 6.24l.57-.32v6.46l3.87-1.12a3.28 3.28 0 0 0 2.38-3.15v-10.32l-8.43 2.53a3.1 3.1 0 1 1-1.75-6z"/><path class="cls-7" d="M83.16 239.1a9.41 9.41 0 0 1-6.48 11.5l-10.32 3v-6.4l8.77-2.57a3.07 3.07 0 0 0 2-4 3.13 3.13 0 0 0-3.81-1.87l-8.25 2.57v-4c-.71-1.47.26-2.75 1.67-3.16l4.94-1.42a9.22 9.22 0 0 1 7 .82 9.33 9.33 0 0 1 4.48 5.53z"/><path class="cls-7" d="M58.05 237.62a3.1 3.1 0 0 0 3.63 4.46l8.43-2.53 1.25 6.45v3.93s-1.81 2.75-3.22 3.16l-4.28 1.07V248l-1.14.32a9.44 9.44 0 0 1-7.19-.81 9.58 9.58 0 0 1-4.88-9 9.41 9.41 0 0 1 6.93-8.38l12.53-3.6v6.62l-10.18 3a3.14 3.14 0 0 0-1.88 1.47z"/><path class="cls-6" d="M83.16 280.31a9.41 9.41 0 0 1-6.48 11.5l-10.32 3v-6.4l8.77-2.58a3 3 0 0 0 1.87-1.45 3.08 3.08 0 0 0 .19-2.56 3.12 3.12 0 0 0-3.83-1.82l-8.25 2.57v-4c-.71-1.46.26-2.75 1.67-3.16l4.94-1.41a9.14 9.14 0 0 1 7 .82 9.28 9.28 0 0 1 4.44 5.49zm-23.23-3l11.43-3V268l-13 3.49A9.39 9.39 0 0 0 51.88 283a9.24 9.24 0 0 0 11.41 6.28l.57-.32v6.46l3.87-1.11a3.29 3.29 0 0 0 2.38-3.16v-10.39l-8.43 2.54a3.11 3.11 0 1 1-1.75-6z"/><path class="cls-7" d="M58.05 278.83a3.1 3.1 0 0 0 3.63 4.47l8.43-2.54 1.25 6.41v3.93s-1.81 2.76-3.22 3.16l-4.28 1.07v-6.17l-1.14.33a9.44 9.44 0 0 1-7.19-.82 9.56 9.56 0 0 1-4.88-9 9.41 9.41 0 0 1 6.93-8.39l12.53-3.59v6.61l-10.18 3a3.14 3.14 0 0 0-1.88 1.53z"/><path class="cls-6" d="M121.19 10.37a9.41 9.41 0 0 1-6.48 11.5l-10.85 3v-6.4l9.31-2.58a3.08 3.08 0 0 0 2-4 3.13 3.13 0 0 0-3.78-1.89l-8.78 2.57v-4a3 3 0 0 1 2.2-3.16L109.75 4a9.16 9.16 0 0 1 7 .82 9.3 9.3 0 0 1 4.44 5.55zM98 7.4l10.9-3v-6.65l-12.56 3.6a9.39 9.39 0 0 0-6.93 8.38 9.55 9.55 0 0 0 4.88 9 9.39 9.39 0 0 0 7.19.82l1.13-.33v6.18l3.56-1.07c1.41-.4 1.44-3.16 1.44-3.16V10.82l-7.9 2.54a3.1 3.1 0 0 1-3.62-4.47A3.1 3.1 0 0 1 98 7.4z"/><path class="cls-7" d="M121.19 10.37a9.41 9.41 0 0 1-6.48 11.5l-10.85 3v-6.4l9.31-2.58a3.08 3.08 0 0 0 2-4 3.13 3.13 0 0 0-3.78-1.89l-8.78 2.57v-4a3 3 0 0 1 2.2-3.16L109.75 4a9.16 9.16 0 0 1 7 .82 9.3 9.3 0 0 1 4.44 5.55z"/><path class="cls-7" d="M96.09 8.89a3.1 3.1 0 0 0 3.62 4.47l7.9-2.54 1.25 6.41v3.94a3.29 3.29 0 0 1-2.38 3.16l-3.87 1.11v-6.22l-1.14.33a9.44 9.44 0 0 1-7.19-.82 9.57 9.57 0 0 1-4.88-9 9.41 9.41 0 0 1 6.93-8.39l12.53-3.59v6.61L98 7.4a3.1 3.1 0 0 0-1.91 1.49z"/><path class="cls-6" d="M121.19 51.59a9.4 9.4 0 0 1-6.48 11.49l-10.85 3v-6.39l9.31-2.57a3.09 3.09 0 0 0 2-4 3.13 3.13 0 0 0-3.82-1.87l-8.78 2.57v-4a2.94 2.94 0 0 1 2.2-3.16l4.94-1.42a9.2 9.2 0 0 1 7 .82 9.32 9.32 0 0 1 4.48 5.53zM98 48.61l10.9-3V39l-12.56 3.56a9.41 9.41 0 0 0-6.93 8.38 9.57 9.57 0 0 0 4.88 9 9.43 9.43 0 0 0 7.19.81l1.13-.32v6.18l3.56-1.08c1.41-.4 1.44-3.15 1.44-3.15V52l-7.9 2.53a3.14 3.14 0 0 1-3.89-2.08A3.14 3.14 0 0 1 98 48.61z"/><path class="cls-7" d="M121.19 51.59a9.4 9.4 0 0 1-6.48 11.49l-10.85 3v-6.39l9.31-2.57a3.09 3.09 0 0 0 2-4 3.13 3.13 0 0 0-3.82-1.87l-8.78 2.57v-4a2.94 2.94 0 0 1 2.2-3.16l4.94-1.42a9.2 9.2 0 0 1 7 .82 9.32 9.32 0 0 1 4.48 5.53z"/><path class="cls-7" d="M96.09 50.11a3.1 3.1 0 0 0-.27 2.38 3.14 3.14 0 0 0 3.89 2.08l7.9-2.53 1.25 6.4v3.94a3.28 3.28 0 0 1-2.38 3.16l-3.87 1.11v-6.22l-1.14.33a9.44 9.44 0 0 1-7.19-.82 9.56 9.56 0 0 1-4.88-9 9.39 9.39 0 0 1 6.93-8.38L108.86 39v6.62l-10.9 3a3.11 3.11 0 0 0-1.87 1.49z"/><path class="cls-6" d="M121.19 92.8a9.41 9.41 0 0 1-6.48 11.5l-10.85 3v-6.4l9.31-2.57a3.09 3.09 0 0 0 2-4 3.14 3.14 0 0 0-3.82-1.87L102.61 95v-4a2.94 2.94 0 0 1 2.2-3.16l4.94-1.42a9.24 9.24 0 0 1 7 .82 9.35 9.35 0 0 1 4.44 5.56zM98 89.83l10.9-3v-6.65l-12.56 3.59a9.41 9.41 0 0 0-6.93 8.39 9.55 9.55 0 0 0 4.88 9 9.43 9.43 0 0 0 7.19.82l1.13-.33v6.18l3.56-1.07c1.41-.41 1.44-3.16 1.44-3.16V93.25l-7.9 2.53a3.09 3.09 0 0 1-3.62-4.46A3.1 3.1 0 0 1 98 89.83z"/><path class="cls-7" d="M121.19 92.8a9.41 9.41 0 0 1-6.48 11.5l-10.85 3v-6.4l9.31-2.57a3.09 3.09 0 0 0 2-4 3.14 3.14 0 0 0-3.82-1.87L102.61 95v-4a2.94 2.94 0 0 1 2.2-3.16l4.94-1.42a9.24 9.24 0 0 1 7 .82 9.35 9.35 0 0 1 4.44 5.56z"/><path class="cls-7" d="M96.09 91.32a3.09 3.09 0 0 0 3.62 4.46l7.9-2.53 1.25 6.41v3.94a3.3 3.3 0 0 1-2.38 3.16l-3.87 1.11v-6.22l-1.14.32a9.44 9.44 0 0 1-7.19-.81 9.57 9.57 0 0 1-4.88-9 9.41 9.41 0 0 1 6.93-8.39l12.53-3.6v6.62l-10.9 3a3.1 3.1 0 0 0-1.87 1.53z"/><path class="cls-6" d="M121.19 134a9.41 9.41 0 0 1-6.48 11.5l-10.85 3v-6.4l9.31-2.58a3 3 0 0 0 1.84-1.46 3.08 3.08 0 0 0 .2-2.56 3.13 3.13 0 0 0-3.82-1.87l-8.78 2.57v-4a3 3 0 0 1 2.2-3.16l4.94-1.41a9.16 9.16 0 0 1 7 .82 9.3 9.3 0 0 1 4.44 5.55zM98 131l10.9-3v-6.61L96.34 125a9.39 9.39 0 0 0-6.93 8.38 9.55 9.55 0 0 0 4.88 9 9.39 9.39 0 0 0 7.19.82l1.13-.32V149l3.56-1.07c1.41-.4 1.44-3.16 1.44-3.16v-10.31l-7.9 2.54a3.1 3.1 0 0 1-3.62-4.47A3.1 3.1 0 0 1 98 131z"/><path class="cls-7" d="M121.19 134a9.41 9.41 0 0 1-6.48 11.5l-10.85 3v-6.4l9.31-2.58a3 3 0 0 0 1.84-1.46 3.08 3.08 0 0 0 .2-2.56 3.13 3.13 0 0 0-3.82-1.87l-8.78 2.57v-4a3 3 0 0 1 2.2-3.16l4.94-1.41a9.16 9.16 0 0 1 7 .82 9.3 9.3 0 0 1 4.44 5.55z"/><path class="cls-7" d="M96.09 132.53a3.1 3.1 0 0 0 3.62 4.47l7.9-2.54 1.25 6.41v3.94a3.29 3.29 0 0 1-2.38 3.16l-3.87 1.11v-6.22l-1.14.33a9.44 9.44 0 0 1-7.19-.82 9.56 9.56 0 0 1-4.88-9 9.41 9.41 0 0 1 6.93-8.37l12.53-3.59V128L98 131a3.1 3.1 0 0 0-1.91 1.53z"/><path class="cls-6" d="M121.19 175.23a9.4 9.4 0 0 1-6.48 11.49l-10.85 3v-6.41l9.31-2.57a3.09 3.09 0 0 0 2-4 3.13 3.13 0 0 0-3.82-1.87l-8.78 2.57v-4a2.94 2.94 0 0 1 2.2-3.16l4.94-1.42a9.2 9.2 0 0 1 7 .82 9.35 9.35 0 0 1 4.48 5.55zm-23.23-3l10.9-3v-6.61l-12.52 3.58a9.41 9.41 0 0 0-6.93 8.39 9.56 9.56 0 0 0 4.88 9 9.43 9.43 0 0 0 7.19.81l1.13-.32v6.18l3.56-1.08c1.41-.4 1.44-3.15 1.44-3.15v-10.35l-7.9 2.53a3.09 3.09 0 0 1-3.62-4.46 3.06 3.06 0 0 1 1.91-1.49z"/><path class="cls-7" d="M121.19 175.23a9.4 9.4 0 0 1-6.48 11.49l-10.85 3v-6.41l9.31-2.57a3.09 3.09 0 0 0 2-4 3.13 3.13 0 0 0-3.82-1.87l-8.78 2.57v-4a2.94 2.94 0 0 1 2.2-3.16l4.94-1.42a9.2 9.2 0 0 1 7 .82 9.35 9.35 0 0 1 4.48 5.55z"/><path class="cls-7" d="M96.09 173.75a3.09 3.09 0 0 0 3.62 4.46l7.9-2.53 1.25 6.4V186a3.28 3.28 0 0 1-2.38 3.16l-3.87 1.11v-6.22l-1.14.33a9.44 9.44 0 0 1-7.19-.82 9.56 9.56 0 0 1-4.88-9 9.39 9.39 0 0 1 6.93-8.38l12.53-3.6v6.62l-10.9 3a3.06 3.06 0 0 0-1.87 1.55z"/><path class="cls-6" d="M121.19 216.44a9.41 9.41 0 0 1-6.48 11.5l-10.85 3v-6.41l9.31-2.57a3.09 3.09 0 0 0 2-4 3.14 3.14 0 0 0-3.82-1.88l-8.78 2.57v-4a3 3 0 0 1 2.2-3.16l4.94-1.42a9.2 9.2 0 0 1 7 .83 9.3 9.3 0 0 1 4.48 5.54zm-23.23-3l10.9-3v-6.61l-12.52 3.59a9.41 9.41 0 0 0-6.93 8.39 9.55 9.55 0 0 0 4.88 9 9.43 9.43 0 0 0 7.19.82l1.13-.33v6.18l3.56-1.07c1.41-.41 1.44-3.16 1.44-3.16v-10.36l-7.9 2.54a3.1 3.1 0 0 1-3.62-4.43 3.1 3.1 0 0 1 1.91-1.53z"/><path class="cls-7" d="M121.19 216.44a9.41 9.41 0 0 1-6.48 11.5l-10.85 3v-6.41l9.31-2.57a3.09 3.09 0 0 0 2-4 3.14 3.14 0 0 0-3.82-1.88l-8.78 2.57v-4a3 3 0 0 1 2.2-3.16l4.94-1.42a9.2 9.2 0 0 1 7 .83 9.3 9.3 0 0 1 4.48 5.54z"/><path class="cls-7" d="M96.09 215a3.1 3.1 0 0 0 3.62 4.47l7.9-2.54 1.25 6.41v3.94a3.3 3.3 0 0 1-2.38 3.16l-3.87 1.11v-6.22l-1.14.32a9.44 9.44 0 0 1-7.19-.81 9.57 9.57 0 0 1-4.88-9 9.41 9.41 0 0 1 6.93-8.39l12.53-3.6v6.62l-10.9 3a3.1 3.1 0 0 0-1.87 1.53z"/><path class="cls-6" d="M121.19 257.65a9.41 9.41 0 0 1-6.48 11.5l-10.85 3v-6.4l9.31-2.58a3 3 0 0 0 1.84-1.46 3.08 3.08 0 0 0 .2-2.56 3.13 3.13 0 0 0-3.82-1.87l-8.78 2.57v-4a2.93 2.93 0 0 1 2.2-3.15l4.94-1.42a9.16 9.16 0 0 1 7 .82 9.3 9.3 0 0 1 4.44 5.55zm-23.23-3l10.9-3V245l-12.52 3.6a9.39 9.39 0 0 0-6.93 8.4 9.55 9.55 0 0 0 4.88 9 9.39 9.39 0 0 0 7.19.82l1.13-.32v6.17l3.56-1.07c1.41-.4 1.44-3.16 1.44-3.16V258.1l-7.9 2.54a3.14 3.14 0 0 1-3.89-2.08 3.14 3.14 0 0 1 2.18-3.88z"/><path class="cls-7" d="M121.19 257.65a9.41 9.41 0 0 1-6.48 11.5l-10.85 3v-6.4l9.31-2.58a3 3 0 0 0 1.84-1.46 3.08 3.08 0 0 0 .2-2.56 3.13 3.13 0 0 0-3.82-1.87l-8.78 2.57v-4a2.93 2.93 0 0 1 2.2-3.15l4.94-1.42a9.16 9.16 0 0 1 7 .82 9.3 9.3 0 0 1 4.44 5.55z"/><path class="cls-7" d="M96.09 256.18a3.1 3.1 0 0 0-.27 2.38 3.14 3.14 0 0 0 3.89 2.08l7.9-2.54 1.25 6.41v3.94a3.28 3.28 0 0 1-2.38 3.16l-3.87 1.11v-6.22l-1.14.33a9.44 9.44 0 0 1-7.19-.82 9.56 9.56 0 0 1-4.88-9 9.39 9.39 0 0 1 6.93-8.38l12.53-3.6v6.61l-10.9 3a3.08 3.08 0 0 0-1.87 1.54z"/><path class="cls-6" d="M159.22-8.18a9.39 9.39 0 0 1-6.48 11.49l-11.38 3V-.08l9.84-2.57a3.07 3.07 0 0 0 1.8-1.47 3.07 3.07 0 0 0 .2-2.56 3.13 3.13 0 0 0-3.82-1.87L140.11-6v-4a4.19 4.19 0 0 1 2.73-3.16l4.95-1.42a9.22 9.22 0 0 1 7 .82 9.31 9.31 0 0 1 4.43 5.58zm-23.23-3l11.62-3v-6.36l-13.19 3.49a9.4 9.4 0 0 0-6.48 11.53A9.25 9.25 0 0 0 132.33 0a9.27 9.27 0 0 0 7 .8l.75-.32v6.4L144 5.77a3.28 3.28 0 0 0 2.38-3.15V-7.73l-8.64 2.53a3.13 3.13 0 0 1-3.89-2.07 3.12 3.12 0 0 1 .27-2.39 3.09 3.09 0 0 1 1.88-1.49z"/><path class="cls-7" d="M159.22-8.18a9.39 9.39 0 0 1-6.48 11.49l-11.38 3V-.08l9.84-2.57a3.07 3.07 0 0 0 1.8-1.47 3.07 3.07 0 0 0 .2-2.56 3.13 3.13 0 0 0-3.82-1.87L140.11-6v-4a4.19 4.19 0 0 1 2.73-3.16l4.95-1.42a9.22 9.22 0 0 1 7 .82 9.31 9.31 0 0 1 4.43 5.58z"/><path class="cls-7" d="M134.12-9.66a3.12 3.12 0 0 0-.27 2.39 3.13 3.13 0 0 0 3.89 2.07l8.62-2.53 1.25 6.4v3.94s-2 2.75-3.41 3.16l-4.09 1.07V.66L139 1a9.4 9.4 0 0 1-7.19-.82 9.56 9.56 0 0 1-4.88-9 9.41 9.41 0 0 1 6.93-8.38l12.53-3.6v6.62l-10.37 3a3.09 3.09 0 0 0-1.9 1.52z"/><path class="cls-6" d="M159.22 33a9.4 9.4 0 0 1-6.48 11.5l-11.38 3v-6.37l9.84-2.57a3.08 3.08 0 0 0 2-4 3.14 3.14 0 0 0-3.82-1.88l-9.31 2.57v-4a4.22 4.22 0 0 1 2.73-3.16l4.95-1.42A9.29 9.29 0 0 1 159.22 33zm-23.23-3l11.62-3v-6.33l-13.19 3.49a9.4 9.4 0 0 0-6.48 11.52A9.25 9.25 0 0 0 139.36 42l.75-.32v6.42L144 47a3.3 3.3 0 0 0 2.38-3.16V33.48L137.74 36a3.11 3.11 0 1 1-1.75-6z"/><path class="cls-7" d="M159.22 33a9.4 9.4 0 0 1-6.48 11.5l-11.38 3v-6.37l9.84-2.57a3.08 3.08 0 0 0 2-4 3.14 3.14 0 0 0-3.82-1.88l-9.31 2.57v-4a4.22 4.22 0 0 1 2.73-3.16l4.95-1.42A9.29 9.29 0 0 1 159.22 33z"/><path class="cls-7" d="M134.12 31.55a3.1 3.1 0 0 0 3.62 4.45l8.62-2.54 1.25 6.41v3.93s-2 2.75-3.41 3.16l-4.09 1.07v-6.15l-1.11.32a9.39 9.39 0 0 1-7.19-.81 9.57 9.57 0 0 1-4.88-9 9.41 9.41 0 0 1 6.9-8.39l12.53-3.59V27l-10.37 3a3.12 3.12 0 0 0-1.87 1.55z"/><path class="cls-6" d="M159.22 74.25a9.39 9.39 0 0 1-6.48 11.49l-11.38 3v-6.39l9.84-2.57a3.09 3.09 0 0 0 2-4 3.13 3.13 0 0 0-3.82-1.87l-9.31 2.57v-4a4.19 4.19 0 0 1 2.73-3.16l4.95-1.42a9.14 9.14 0 0 1 7 .82 9.25 9.25 0 0 1 4.47 5.53zm-23.23-3l11.62-3v-6.37l-13.19 3.49a9.4 9.4 0 0 0-6.48 11.53 9.23 9.23 0 0 0 11.42 6.27l.75-.31v6.45L144 88.2a3.28 3.28 0 0 0 2.36-3.2V74.69l-8.62 2.54a3.14 3.14 0 0 1-3.89-2.08 3.1 3.1 0 0 1 .27-2.38 3.14 3.14 0 0 1 1.88-1.5z"/><path class="cls-7" d="M159.22 74.25a9.39 9.39 0 0 1-6.48 11.49l-11.38 3v-6.39l9.84-2.57a3.09 3.09 0 0 0 2-4 3.13 3.13 0 0 0-3.82-1.87l-9.31 2.57v-4a4.19 4.19 0 0 1 2.73-3.16l4.95-1.42a9.14 9.14 0 0 1 7 .82 9.25 9.25 0 0 1 4.47 5.53z"/><path class="cls-7" d="M134.12 72.77a3.1 3.1 0 0 0-.27 2.38 3.14 3.14 0 0 0 3.89 2.08l8.62-2.54 1.25 6.41V85s-2 2.76-3.41 3.16l-4.09 1.07v-6.14l-1.14.33a9.44 9.44 0 0 1-7.19-.82 9.56 9.56 0 0 1-4.88-9 9.39 9.39 0 0 1 6.93-8.38l12.53-3.6v6.62l-10.37 3a3.14 3.14 0 0 0-1.87 1.53z"/><path class="cls-6" d="M159.22 115.46a9.39 9.39 0 0 1-6.48 11.54l-11.38 3v-6.41l9.84-2.59a3.09 3.09 0 0 0 2-4 3.14 3.14 0 0 0-3.82-1.87l-9.31 2.57v-4a4.19 4.19 0 0 1 2.73-3.16l4.95-1.42a9.27 9.27 0 0 1 11.43 6.36zm-23.23-3l11.62-3v-6.36l-13.19 3.49a9.4 9.4 0 0 0-6.48 11.53 9.25 9.25 0 0 0 11.42 6.28l.75-.32v6.45l3.87-1.11a3.28 3.28 0 0 0 2.38-3.15v-10.36l-8.62 2.53a3.1 3.1 0 1 1-1.75-6z"/><path class="cls-7" d="M159.22 115.46a9.39 9.39 0 0 1-6.48 11.54l-11.38 3v-6.41l9.84-2.59a3.09 3.09 0 0 0 2-4 3.14 3.14 0 0 0-3.82-1.87l-9.31 2.57v-4a4.19 4.19 0 0 1 2.73-3.16l4.95-1.42a9.27 9.27 0 0 1 11.43 6.36z"/><path class="cls-7" d="M134.12 114a3.09 3.09 0 0 0 3.62 4.46l8.62-2.53 1.25 6.41v3.93s-2 2.75-3.41 3.16l-4.09 1.07v-6.17l-1.14.32a9.4 9.4 0 0 1-7.19-.82 9.55 9.55 0 0 1-4.88-9 9.41 9.41 0 0 1 6.93-8.38l12.53-3.6v6.62l-10.37 3a3.12 3.12 0 0 0-1.87 1.53z"/><path class="cls-6" d="M159.22 156.67a9.4 9.4 0 0 1-6.48 11.5l-11.38 3v-6.41l9.84-2.57a3.08 3.08 0 0 0 2-4 3.13 3.13 0 0 0-3.82-1.87l-9.31 2.57v-4a4.22 4.22 0 0 1 2.73-3.16l4.95-1.41a9.14 9.14 0 0 1 7 .82 9.26 9.26 0 0 1 4.47 5.53zm-23.23-3l11.62-3v-6.35l-13.19 3.49a9.4 9.4 0 0 0-6.48 11.52 9.25 9.25 0 0 0 11.42 6.28l.75-.32v6.46l3.87-1.11a3.29 3.29 0 0 0 2.38-3.16v-10.36l-8.62 2.54a3.11 3.11 0 1 1-1.75-6z"/><path class="cls-7" d="M159.22 156.67a9.4 9.4 0 0 1-6.48 11.5l-11.38 3v-6.41l9.84-2.57a3.08 3.08 0 0 0 2-4 3.13 3.13 0 0 0-3.82-1.87l-9.31 2.57v-4a4.22 4.22 0 0 1 2.73-3.16l4.95-1.41a9.14 9.14 0 0 1 7 .82 9.26 9.26 0 0 1 4.47 5.53z"/><path class="cls-7" d="M134.12 155.19a3.1 3.1 0 0 0 3.62 4.47l8.62-2.54 1.25 6.41v3.93s-2 2.76-3.41 3.16l-4.09 1.07v-6.17l-1.14.33a9.44 9.44 0 0 1-7.19-.82 9.57 9.57 0 0 1-4.88-9 9.41 9.41 0 0 1 6.93-8.39l12.53-3.59v6.61l-10.37 3a3.12 3.12 0 0 0-1.87 1.53z"/><path class="cls-6" d="M159.22 197.89a9.39 9.39 0 0 1-6.48 11.49l-11.38 3V206l9.84-2.57a3.09 3.09 0 0 0 2-4 3.13 3.13 0 0 0-3.82-1.87l-9.31 2.57v-4a4.19 4.19 0 0 1 2.73-3.16l4.95-1.42a9.27 9.27 0 0 1 11.43 6.36zm-23.23-3l11.62-3v-6.36L134.42 189a9.4 9.4 0 0 0-6.48 11.53 9.25 9.25 0 0 0 11.42 6.28l.75-.32V213l3.87-1.11a3.28 3.28 0 0 0 2.38-3.16v-10.4l-8.62 2.54a3.14 3.14 0 0 1-3.89-2.08 3.1 3.1 0 0 1 .27-2.38 3.14 3.14 0 0 1 1.88-1.5z"/><path class="cls-7" d="M159.22 197.89a9.39 9.39 0 0 1-6.48 11.49l-11.38 3V206l9.84-2.57a3.09 3.09 0 0 0 2-4 3.13 3.13 0 0 0-3.82-1.87l-9.31 2.57v-4a4.19 4.19 0 0 1 2.73-3.16l4.95-1.42a9.27 9.27 0 0 1 11.43 6.36z"/><path class="cls-7" d="M134.12 196.41a3.1 3.1 0 0 0-.27 2.38 3.14 3.14 0 0 0 3.89 2.08l8.62-2.54 1.25 6.41v3.94s-2 2.75-3.41 3.15l-4.09 1.07v-6.17l-1.14.33a9.44 9.44 0 0 1-7.19-.82 9.56 9.56 0 0 1-4.88-9 9.39 9.39 0 0 1 6.93-8.38l12.53-3.6v6.62l-10.37 3a3.14 3.14 0 0 0-1.87 1.53z"/><path class="cls-6" d="M159.22 239.1a9.4 9.4 0 0 1-6.48 11.5l-11.38 3v-6.4l9.84-2.57a3 3 0 0 0 1.84-1.47 3.07 3.07 0 0 0 .2-2.56 3.14 3.14 0 0 0-3.82-1.87l-9.31 2.57v-4a4.2 4.2 0 0 1 2.73-3.16l4.95-1.42a9.27 9.27 0 0 1 11.43 6.36zm-23.23-3l11.62-3v-6.36l-13.19 3.49a9.41 9.41 0 0 0-6.48 11.53 9.25 9.25 0 0 0 11.42 6.24l.75-.32v6.46l3.87-1.12a3.28 3.28 0 0 0 2.38-3.15v-10.32l-8.62 2.53a3.1 3.1 0 1 1-1.75-6z"/><path class="cls-7" d="M159.22 239.1a9.4 9.4 0 0 1-6.48 11.5l-11.38 3v-6.4l9.84-2.57a3 3 0 0 0 1.84-1.47 3.07 3.07 0 0 0 .2-2.56 3.14 3.14 0 0 0-3.82-1.87l-9.31 2.57v-4a4.2 4.2 0 0 1 2.73-3.16l4.95-1.42a9.27 9.27 0 0 1 11.43 6.36z"/><path class="cls-7" d="M134.12 237.62a3.09 3.09 0 0 0 3.62 4.46l8.62-2.53 1.25 6.41v3.93s-2 2.75-3.41 3.16l-4.09 1.07V248l-1.14.32a9.44 9.44 0 0 1-7.19-.81 9.58 9.58 0 0 1-4.88-9 9.41 9.41 0 0 1 6.93-8.38l12.53-3.6v6.62l-10.37 3a3.12 3.12 0 0 0-1.87 1.47z"/><path class="cls-6" d="M159.22 280.31a9.4 9.4 0 0 1-6.48 11.5l-11.38 3v-6.4l9.84-2.58a3 3 0 0 0 1.84-1.46 3.08 3.08 0 0 0 .2-2.56 3.13 3.13 0 0 0-3.82-1.87l-9.31 2.57v-4a4.22 4.22 0 0 1 2.73-3.16l4.95-1.41a9.14 9.14 0 0 1 7 .82 9.26 9.26 0 0 1 4.43 5.55zm-23.23-3l11.62-3V268l-13.19 3.49a9.4 9.4 0 0 0-6.48 11.51 9.25 9.25 0 0 0 11.42 6.28l.75-.32v6.46l3.87-1.11a3.29 3.29 0 0 0 2.38-3.16v-10.39l-8.62 2.54a3.11 3.11 0 1 1-1.75-6z"/><path class="cls-7" d="M134.12 278.83a3.1 3.1 0 0 0 3.62 4.47l8.62-2.54 1.25 6.41v3.93s-2 2.76-3.41 3.16l-4.09 1.07v-6.17l-1.14.33a9.44 9.44 0 0 1-7.19-.82 9.56 9.56 0 0 1-4.88-9 9.41 9.41 0 0 1 6.93-8.39l12.53-3.59v6.61l-10.37 3a3.12 3.12 0 0 0-1.87 1.53z"/><path class="cls-6" d="M197.26 10.37a9.41 9.41 0 0 1-6.49 11.5l-10.66 3v-6.4l9.12-2.58a3.08 3.08 0 1 0-1.78-5.89l-8.59 2.57v-4a2.66 2.66 0 0 1 2-3.16L185.82 4a9.14 9.14 0 0 1 7 .82 9.28 9.28 0 0 1 4.44 5.55zM174 7.4l11.08-3v-6.65l-12.52 3.6a9.39 9.39 0 0 0-6.93 8.38 9.55 9.55 0 0 0 4.88 9 9.39 9.39 0 0 0 7.19.82l1.13-.33v6.18l3.38-1.07c1.4-.4 1.62-3.16 1.62-3.16V10.82l-8.08 2.54a3.11 3.11 0 1 1-1.75-6z"/><path class="cls-7" d="M197.26 10.37a9.41 9.41 0 0 1-6.49 11.5l-10.66 3v-6.4l9.12-2.58a3.08 3.08 0 1 0-1.78-5.89l-8.59 2.57v-4a2.66 2.66 0 0 1 2-3.16L185.82 4a9.14 9.14 0 0 1 7 .82 9.28 9.28 0 0 1 4.44 5.55z"/><path class="cls-7" d="M172.15 8.89a3.1 3.1 0 0 0 3.63 4.47l8.08-2.54 1.25 6.41v3.94a3.29 3.29 0 0 1-2.38 3.16l-3.87 1.11v-6.22l-1.14.33a9.44 9.44 0 0 1-7.19-.82 9.57 9.57 0 0 1-4.88-9 9.41 9.41 0 0 1 6.93-8.39l12.53-3.59v6.61L174 7.4a3.14 3.14 0 0 0-1.85 1.49z"/><path class="cls-6" d="M197.26 51.59a9.4 9.4 0 0 1-6.49 11.49l-10.66 3v-6.39l9.12-2.57a3.12 3.12 0 0 0 1.85-1.47 3.08 3.08 0 0 0 .19-2.56 3.13 3.13 0 0 0-3.82-1.87l-8.59 2.57v-4a2.66 2.66 0 0 1 2-3.16l4.94-1.42a9.18 9.18 0 0 1 7 .82 9.3 9.3 0 0 1 4.46 5.56zm-23.23-3l11.08-3V39l-12.52 3.59a9.41 9.41 0 0 0-6.93 8.38 9.57 9.57 0 0 0 4.88 9 9.43 9.43 0 0 0 7.19.81l1.13-.32v6.18l3.38-1.08c1.4-.4 1.62-3.15 1.62-3.15V52l-8.08 2.53a3.14 3.14 0 0 1-3.9-2.08 3.1 3.1 0 0 1 .27-2.38 3.16 3.16 0 0 1 1.85-1.46z"/><path class="cls-7" d="M197.26 51.59a9.4 9.4 0 0 1-6.49 11.49l-10.66 3v-6.39l9.12-2.57a3.12 3.12 0 0 0 1.85-1.47 3.08 3.08 0 0 0 .19-2.56 3.13 3.13 0 0 0-3.82-1.87l-8.59 2.57v-4a2.66 2.66 0 0 1 2-3.16l4.94-1.42a9.18 9.18 0 0 1 7 .82 9.3 9.3 0 0 1 4.46 5.56z"/><path class="cls-7" d="M172.15 50.11a3.1 3.1 0 0 0-.27 2.38 3.14 3.14 0 0 0 3.9 2.08l8.08-2.57 1.25 6.4v3.94a3.28 3.28 0 0 1-2.38 3.16l-3.87 1.11v-6.18l-1.14.33a9.44 9.44 0 0 1-7.19-.82 9.56 9.56 0 0 1-4.88-9 9.39 9.39 0 0 1 6.93-8.38L185.11 39v6.62l-11.08 3a3.16 3.16 0 0 0-1.88 1.49z"/><path class="cls-6" d="M197.26 92.8a9.42 9.42 0 0 1-6.49 11.5l-10.66 3v-6.4l9.12-2.57a3.07 3.07 0 0 0 2-4 3.14 3.14 0 0 0-3.82-1.87L178.86 95v-4a2.66 2.66 0 0 1 2-3.16l4.94-1.42a9.22 9.22 0 0 1 7 .82 9.33 9.33 0 0 1 4.46 5.56zm-23.23-3l11.08-3v-6.62l-12.52 3.59a9.41 9.41 0 0 0-6.93 8.39 9.55 9.55 0 0 0 4.88 9 9.43 9.43 0 0 0 7.19.82l1.13-.33v6.18l3.38-1.07c1.4-.41 1.62-3.16 1.62-3.16V93.25l-8.08 2.53a3.1 3.1 0 1 1-1.75-6z"/><path class="cls-7" d="M197.26 92.8a9.42 9.42 0 0 1-6.49 11.5l-10.66 3v-6.4l9.12-2.57a3.07 3.07 0 0 0 2-4 3.14 3.14 0 0 0-3.82-1.87L178.86 95v-4a2.66 2.66 0 0 1 2-3.16l4.94-1.42a9.22 9.22 0 0 1 7 .82 9.33 9.33 0 0 1 4.46 5.56z"/><path class="cls-7" d="M172.15 91.32a3.09 3.09 0 0 0 3.63 4.46l8.08-2.53 1.25 6.41v3.94a3.3 3.3 0 0 1-2.38 3.16l-3.87 1.11v-6.22l-1.14.32a9.44 9.44 0 0 1-7.19-.81 9.57 9.57 0 0 1-4.88-9 9.41 9.41 0 0 1 6.93-8.39l12.53-3.6v6.62l-11.08 3a3.14 3.14 0 0 0-1.88 1.53z"/><path class="cls-6" d="M197.26 134a9.41 9.41 0 0 1-6.49 11.5l-10.66 3v-6.4l9.12-2.58a3.06 3.06 0 0 0 2-4 3.13 3.13 0 0 0-3.82-1.87l-8.59 2.57v-4a2.66 2.66 0 0 1 2-3.16l4.94-1.41a9.14 9.14 0 0 1 7 .82 9.28 9.28 0 0 1 4.5 5.53zM174 131l11.08-3v-6.61L172.59 125a9.39 9.39 0 0 0-6.93 8.38 9.55 9.55 0 0 0 4.88 9 9.39 9.39 0 0 0 7.19.82l1.13-.32V149l3.38-1.07c1.4-.4 1.62-3.16 1.62-3.16v-10.31l-8.08 2.54a3.11 3.11 0 1 1-1.75-6z"/><path class="cls-7" d="M197.26 134a9.41 9.41 0 0 1-6.49 11.5l-10.66 3v-6.4l9.12-2.58a3.06 3.06 0 0 0 2-4 3.13 3.13 0 0 0-3.82-1.87l-8.59 2.57v-4a2.66 2.66 0 0 1 2-3.16l4.94-1.41a9.14 9.14 0 0 1 7 .82 9.28 9.28 0 0 1 4.5 5.53z"/><path class="cls-7" d="M172.15 132.53a3.1 3.1 0 0 0 3.63 4.47l8.08-2.54 1.25 6.41v3.94a3.29 3.29 0 0 1-2.38 3.16l-3.87 1.11v-6.22l-1.14.33a9.44 9.44 0 0 1-7.19-.82 9.56 9.56 0 0 1-4.88-9 9.41 9.41 0 0 1 6.93-8.39l12.53-3.59V128L174 131a3.14 3.14 0 0 0-1.85 1.53z"/><path class="cls-6" d="M197.26 175.23a9.4 9.4 0 0 1-6.49 11.49l-10.66 3v-6.41l9.12-2.57a3.12 3.12 0 0 0 1.85-1.47 3.07 3.07 0 0 0 .19-2.56 3.13 3.13 0 0 0-3.82-1.87l-8.59 2.57v-4a2.66 2.66 0 0 1 2-3.16l4.94-1.42a9.18 9.18 0 0 1 7 .82 9.33 9.33 0 0 1 4.46 5.58zm-23.23-3l11.08-3v-6.61l-12.52 3.59a9.41 9.41 0 0 0-6.93 8.39 9.56 9.56 0 0 0 4.88 9 9.43 9.43 0 0 0 7.19.81l1.13-.32v6.18l3.38-1.08c1.4-.4 1.62-3.15 1.62-3.15v-10.36l-8.08 2.53a3.09 3.09 0 0 1-3.63-4.46 3.11 3.11 0 0 1 1.85-1.49z"/><path class="cls-7" d="M197.26 175.23a9.4 9.4 0 0 1-6.49 11.49l-10.66 3v-6.41l9.12-2.57a3.12 3.12 0 0 0 1.85-1.47 3.07 3.07 0 0 0 .19-2.56 3.13 3.13 0 0 0-3.82-1.87l-8.59 2.57v-4a2.66 2.66 0 0 1 2-3.16l4.94-1.42a9.18 9.18 0 0 1 7 .82 9.33 9.33 0 0 1 4.46 5.58z"/><path class="cls-7" d="M172.15 173.75a3.09 3.09 0 0 0 3.63 4.46l8.08-2.53 1.25 6.4V186a3.28 3.28 0 0 1-2.38 3.16l-3.87 1.11v-6.22l-1.14.33a9.44 9.44 0 0 1-7.19-.82 9.56 9.56 0 0 1-4.88-9 9.39 9.39 0 0 1 6.93-8.38l12.53-3.6v6.62l-11.08 3a3.11 3.11 0 0 0-1.88 1.55z"/><path class="cls-6" d="M197.26 216.44a9.42 9.42 0 0 1-6.49 11.5l-10.66 3v-6.41l9.12-2.57a3.07 3.07 0 0 0 2-4 3.14 3.14 0 0 0-3.82-1.88l-8.59 2.57v-4a2.66 2.66 0 0 1 2-3.16l4.94-1.42a9.18 9.18 0 0 1 7 .83 9.28 9.28 0 0 1 4.5 5.54zm-23.23-3l11.08-3v-6.61l-12.52 3.59a9.41 9.41 0 0 0-6.93 8.39 9.55 9.55 0 0 0 4.88 9 9.43 9.43 0 0 0 7.19.82l1.13-.33v6.18l3.38-1.07c1.4-.41 1.62-3.16 1.62-3.16v-10.36l-8.08 2.54a3.11 3.11 0 1 1-1.75-6z"/><path class="cls-7" d="M197.26 216.44a9.42 9.42 0 0 1-6.49 11.5l-10.66 3v-6.41l9.12-2.57a3.07 3.07 0 0 0 2-4 3.14 3.14 0 0 0-3.82-1.88l-8.59 2.57v-4a2.66 2.66 0 0 1 2-3.16l4.94-1.42a9.18 9.18 0 0 1 7 .83 9.28 9.28 0 0 1 4.5 5.54z"/><path class="cls-7" d="M172.15 215a3.1 3.1 0 0 0 3.63 4.47l8.08-2.54 1.25 6.41v3.94a3.3 3.3 0 0 1-2.38 3.16l-3.87 1.11v-6.22l-1.14.32a9.44 9.44 0 0 1-7.19-.81 9.57 9.57 0 0 1-4.88-9 9.41 9.41 0 0 1 6.93-8.39l12.53-3.6v6.62l-11.08 3a3.14 3.14 0 0 0-1.88 1.53z"/><path class="cls-6" d="M197.26 257.65a9.41 9.41 0 0 1-6.49 11.5l-10.66 3v-6.4l9.12-2.58a3.06 3.06 0 0 0 2-4 3.13 3.13 0 0 0-3.82-1.87l-8.59 2.57v-4a2.65 2.65 0 0 1 2-3.15l4.94-1.42a9.14 9.14 0 0 1 7 .82 9.28 9.28 0 0 1 4.5 5.53zm-23.23-3l11.08-3V245l-12.52 3.6a9.39 9.39 0 0 0-6.93 8.38 9.55 9.55 0 0 0 4.88 9 9.39 9.39 0 0 0 7.19.82l1.13-.32v6.17l3.38-1.07c1.4-.4 1.62-3.16 1.62-3.16V258.1l-8.08 2.54a3.14 3.14 0 0 1-3.9-2.08 3.14 3.14 0 0 1 2.15-3.88z"/><path class="cls-7" d="M197.26 257.65a9.41 9.41 0 0 1-6.49 11.5l-10.66 3v-6.4l9.12-2.58a3.06 3.06 0 0 0 2-4 3.13 3.13 0 0 0-3.82-1.87l-8.59 2.57v-4a2.65 2.65 0 0 1 2-3.15l4.94-1.42a9.14 9.14 0 0 1 7 .82 9.28 9.28 0 0 1 4.5 5.53z"/><path class="cls-7" d="M172.15 256.18a3.1 3.1 0 0 0-.27 2.38 3.14 3.14 0 0 0 3.9 2.08l8.08-2.54 1.25 6.41v3.94a3.28 3.28 0 0 1-2.38 3.16l-3.87 1.11v-6.22l-1.14.33a9.44 9.44 0 0 1-7.19-.82 9.56 9.56 0 0 1-4.88-9 9.39 9.39 0 0 1 6.93-8.38l12.53-3.6v6.61l-11.08 3a3.12 3.12 0 0 0-1.88 1.54z"/><path class="cls-6" d="M235.29-8.18a9.4 9.4 0 0 1-6.48 11.49l-11.2 3V-.08l9.65-2.57a3.09 3.09 0 0 0 1.85-1.47 3 3 0 0 0 .19-2.56 3.12 3.12 0 0 0-3.81-1.87L216.36-6v-4a3.66 3.66 0 0 1 2.55-3.16l4.94-1.42a9.26 9.26 0 0 1 7 .82 9.35 9.35 0 0 1 4.44 5.58zm-23.23-3l11.8-3v-6.36l-13.38 3.49A9.4 9.4 0 0 0 204-5.53 9.22 9.22 0 0 0 208.4 0a9.24 9.24 0 0 0 7 .8l.94-.32v6.4l3.87-1.11a3.28 3.28 0 0 0 2.38-3.15V-7.73l-8.8 2.53a3.12 3.12 0 0 1-3.89-2.07 3.12 3.12 0 0 1 .26-2.39 3.11 3.11 0 0 1 1.9-1.49z"/><path class="cls-7" d="M235.29-8.18a9.4 9.4 0 0 1-6.48 11.49l-11.2 3V-.08l9.65-2.57a3.09 3.09 0 0 0 1.85-1.47 3 3 0 0 0 .19-2.56 3.12 3.12 0 0 0-3.81-1.87L216.36-6v-4a3.66 3.66 0 0 1 2.55-3.16l4.94-1.42a9.26 9.26 0 0 1 7 .82 9.35 9.35 0 0 1 4.44 5.58z"/><path class="cls-7" d="M210.18-9.66a3.12 3.12 0 0 0-.26 2.39 3.12 3.12 0 0 0 3.89 2.07l8.8-2.53 1.25 6.4v3.94s-2.18 2.75-3.59 3.16l-3.91 1.07V.66l-1.14.34A9.4 9.4 0 0 1 208 .17a9.56 9.56 0 0 1-4.88-9 9.41 9.41 0 0 1 6.93-8.38l12.53-3.6v6.62l-10.55 3a3.11 3.11 0 0 0-1.85 1.53z"/><path class="cls-6" d="M235.29 33a9.41 9.41 0 0 1-6.48 11.5l-11.2 3v-6.37l9.65-2.57a3.07 3.07 0 0 0 1.85-1.46 3 3 0 0 0 .19-2.56 3.14 3.14 0 0 0-3.81-1.88l-9.13 2.57v-4a3.69 3.69 0 0 1 2.55-3.16l4.94-1.42A9.29 9.29 0 0 1 235.29 33zm-23.23-3l11.8-3v-6.33l-13.38 3.49A9.39 9.39 0 0 0 204 35.68 9.24 9.24 0 0 0 215.42 42l.94-.32v6.42l3.87-1.1a3.3 3.3 0 0 0 2.38-3.16V33.48l-8.8 2.52a3.11 3.11 0 1 1-1.75-6z"/><path class="cls-7" d="M235.29 33a9.41 9.41 0 0 1-6.48 11.5l-11.2 3v-6.37l9.65-2.57a3.07 3.07 0 0 0 1.85-1.46 3 3 0 0 0 .19-2.56 3.14 3.14 0 0 0-3.81-1.88l-9.13 2.57v-4a3.69 3.69 0 0 1 2.55-3.16l4.94-1.42A9.29 9.29 0 0 1 235.29 33z"/><path class="cls-7" d="M210.18 31.55a3.1 3.1 0 0 0 3.63 4.45l8.8-2.54 1.25 6.41v3.93s-2.18 2.75-3.59 3.16l-3.91 1.07v-6.15l-1.14.32a9.39 9.39 0 0 1-7.19-.81 9.57 9.57 0 0 1-4.88-9 9.41 9.41 0 0 1 6.93-8.39l12.53-3.59V27l-10.55 3a3.14 3.14 0 0 0-1.88 1.55z"/><path class="cls-6" d="M235.29 74.25a9.4 9.4 0 0 1-6.48 11.49l-11.2 3v-6.39l9.65-2.57a3.09 3.09 0 0 0 1.85-1.47 3 3 0 0 0 .19-2.56 3.12 3.12 0 0 0-3.81-1.87l-9.13 2.57v-4a3.66 3.66 0 0 1 2.55-3.16l4.94-1.42a9.17 9.17 0 0 1 7 .82 9.29 9.29 0 0 1 4.44 5.56zm-23.23-3l11.8-3v-6.37l-13.38 3.49A9.4 9.4 0 0 0 204 76.9a9.23 9.23 0 0 0 11.41 6.27l.94-.31v6.45l3.87-1.11a3.28 3.28 0 0 0 2.39-3.2V74.69l-8.8 2.54a3.11 3.11 0 1 1-1.75-6z"/><path class="cls-7" d="M235.29 74.25a9.4 9.4 0 0 1-6.48 11.49l-11.2 3v-6.39l9.65-2.57a3.09 3.09 0 0 0 1.85-1.47 3 3 0 0 0 .19-2.56 3.12 3.12 0 0 0-3.81-1.87l-9.13 2.57v-4a3.66 3.66 0 0 1 2.55-3.16l4.94-1.42a9.17 9.17 0 0 1 7 .82 9.29 9.29 0 0 1 4.44 5.56z"/><path class="cls-7" d="M210.18 72.77a3.1 3.1 0 0 0 3.63 4.46l8.8-2.54 1.25 6.41V85s-2.18 2.76-3.59 3.16l-3.91 1.07v-6.14l-1.14.33a9.44 9.44 0 0 1-7.22-.82 9.56 9.56 0 0 1-4.88-9 9.39 9.39 0 0 1 6.93-8.38l12.53-3.6v6.62l-10.55 3a3.16 3.16 0 0 0-1.85 1.53z"/><path class="cls-6" d="M235.29 115.46a9.4 9.4 0 0 1-6.48 11.54l-11.2 3v-6.41l9.65-2.57a3.09 3.09 0 0 0 1.85-1.47 3 3 0 0 0 .19-2.56 3.13 3.13 0 0 0-3.81-1.87l-9.13 2.57v-4a3.66 3.66 0 0 1 2.55-3.16l4.94-1.42a9.27 9.27 0 0 1 11.44 6.36zm-23.23-3l11.8-3v-6.36l-13.38 3.49a9.4 9.4 0 0 0-6.48 11.52 9.24 9.24 0 0 0 11.41 6.28l.94-.32v6.45l3.87-1.11a3.28 3.28 0 0 0 2.38-3.15v-10.35l-8.8 2.53a3.1 3.1 0 1 1-1.75-6z"/><path class="cls-7" d="M235.29 115.46a9.4 9.4 0 0 1-6.48 11.54l-11.2 3v-6.41l9.65-2.57a3.09 3.09 0 0 0 1.85-1.47 3 3 0 0 0 .19-2.56 3.13 3.13 0 0 0-3.81-1.87l-9.13 2.57v-4a3.66 3.66 0 0 1 2.55-3.16l4.94-1.42a9.27 9.27 0 0 1 11.44 6.36z"/><path class="cls-7" d="M210.18 114a3.1 3.1 0 0 0 3.63 4.46l8.8-2.53 1.25 6.41v3.93s-2.18 2.75-3.59 3.16l-3.91 1.07v-6.17l-1.14.32a9.4 9.4 0 0 1-7.19-.82 9.55 9.55 0 0 1-4.88-9 9.41 9.41 0 0 1 6.93-8.38l12.53-3.6v6.62l-10.55 3a3.14 3.14 0 0 0-1.88 1.53z"/><path class="cls-6" d="M235.29 156.67a9.41 9.41 0 0 1-6.48 11.5l-11.2 3v-6.41l9.65-2.57a3.07 3.07 0 0 0 1.85-1.46 3 3 0 0 0 .19-2.56 3.12 3.12 0 0 0-3.81-1.87l-9.13 2.57v-4a3.69 3.69 0 0 1 2.55-3.16l4.94-1.41a9.17 9.17 0 0 1 7 .82 9.3 9.3 0 0 1 4.44 5.55zm-23.23-3l11.8-3v-6.35l-13.38 3.49a9.39 9.39 0 0 0-6.48 11.51 9.24 9.24 0 0 0 11.41 6.28l.94-.32v6.46l3.87-1.11a3.29 3.29 0 0 0 2.38-3.16v-10.35l-8.8 2.54a3.11 3.11 0 1 1-1.75-6z"/><path class="cls-7" d="M235.29 156.67a9.41 9.41 0 0 1-6.48 11.5l-11.2 3v-6.41l9.65-2.57a3.07 3.07 0 0 0 1.85-1.46 3 3 0 0 0 .19-2.56 3.12 3.12 0 0 0-3.81-1.87l-9.13 2.57v-4a3.69 3.69 0 0 1 2.55-3.16l4.94-1.41a9.17 9.17 0 0 1 7 .82 9.3 9.3 0 0 1 4.44 5.55z"/><path class="cls-7" d="M210.18 155.19a3.1 3.1 0 0 0 3.63 4.47l8.8-2.54 1.25 6.41v3.93s-2.18 2.76-3.59 3.16l-3.91 1.07v-6.17l-1.14.33A9.44 9.44 0 0 1 208 165a9.57 9.57 0 0 1-4.88-9 9.41 9.41 0 0 1 6.93-8.39l12.53-3.59v6.61l-10.55 3a3.14 3.14 0 0 0-1.85 1.56z"/><path class="cls-6" d="M235.29 197.89a9.4 9.4 0 0 1-6.48 11.49l-11.2 3V206l9.65-2.57a3.09 3.09 0 0 0 1.85-1.47 3 3 0 0 0 .19-2.56 3.12 3.12 0 0 0-3.81-1.87l-9.13 2.57v-4a3.66 3.66 0 0 1 2.55-3.16l4.94-1.42a9.27 9.27 0 0 1 11.44 6.36zm-23.23-3l11.8-3v-6.36L210.48 189a9.4 9.4 0 0 0-6.48 11.54 9.24 9.24 0 0 0 11.41 6.28l.94-.32v6.5l3.87-1.11a3.28 3.28 0 0 0 2.38-3.16v-10.4l-8.8 2.54a3.11 3.11 0 1 1-1.75-6z"/><path class="cls-7" d="M235.29 197.89a9.4 9.4 0 0 1-6.48 11.49l-11.2 3V206l9.65-2.57a3.09 3.09 0 0 0 1.85-1.47 3 3 0 0 0 .19-2.56 3.12 3.12 0 0 0-3.81-1.87l-9.13 2.57v-4a3.66 3.66 0 0 1 2.55-3.16l4.94-1.42a9.27 9.27 0 0 1 11.44 6.36z"/><path class="cls-7" d="M210.18 196.41a3.1 3.1 0 0 0 3.63 4.46l8.8-2.54 1.25 6.41v3.94s-2.18 2.75-3.59 3.15l-3.91 1.07v-6.17l-1.14.33a9.44 9.44 0 0 1-7.19-.82 9.56 9.56 0 0 1-4.88-9 9.39 9.39 0 0 1 6.93-8.38l12.53-3.6v6.62l-10.55 3a3.16 3.16 0 0 0-1.88 1.53z"/><path class="cls-6" d="M235.29 239.1a9.41 9.41 0 0 1-6.48 11.5l-11.2 3v-6.4l9.65-2.57a3.07 3.07 0 0 0 2-4 3.13 3.13 0 0 0-3.81-1.87l-9.13 2.57v-4a3.68 3.68 0 0 1 2.55-3.16l4.94-1.42a9.27 9.27 0 0 1 11.44 6.36zm-23.23-3l11.8-3v-6.36l-13.38 3.49a9.4 9.4 0 0 0-6.48 11.52 9.24 9.24 0 0 0 11.42 6.25l.94-.32v6.46l3.87-1.12a3.28 3.28 0 0 0 2.38-3.15v-10.32l-8.8 2.53a3.1 3.1 0 1 1-1.75-6z"/><path class="cls-7" d="M235.29 239.1a9.41 9.41 0 0 1-6.48 11.5l-11.2 3v-6.4l9.65-2.57a3.07 3.07 0 0 0 2-4 3.13 3.13 0 0 0-3.81-1.87l-9.13 2.57v-4a3.68 3.68 0 0 1 2.55-3.16l4.94-1.42a9.27 9.27 0 0 1 11.44 6.36z"/><path class="cls-7" d="M210.18 237.62a3.1 3.1 0 0 0 3.63 4.46l8.8-2.53 1.25 6.41v3.93s-2.18 2.75-3.59 3.16l-3.91 1.07V248l-1.14.32a9.44 9.44 0 0 1-7.19-.81 9.58 9.58 0 0 1-4.88-9 9.41 9.41 0 0 1 6.93-8.38l12.53-3.6v6.62l-10.55 3a3.14 3.14 0 0 0-1.88 1.47z"/><path class="cls-6" d="M235.29 280.31a9.41 9.41 0 0 1-6.48 11.5l-11.2 3v-6.4l9.65-2.58a3.06 3.06 0 0 0 2-4 3.12 3.12 0 0 0-3.81-1.87l-9.13 2.57v-4a3.69 3.69 0 0 1 2.55-3.16l4.94-1.41a9.17 9.17 0 0 1 7 .82 9.3 9.3 0 0 1 4.48 5.53zm-23.23-3l11.8-3V268l-13.38 3.49A9.39 9.39 0 0 0 204 283a9.24 9.24 0 0 0 11.41 6.28l.94-.32v6.46l3.87-1.11a3.29 3.29 0 0 0 2.38-3.16v-10.39l-8.8 2.54a3.11 3.11 0 1 1-1.75-6z"/><path class="cls-7" d="M210.18 278.83a3.1 3.1 0 0 0 3.63 4.47l8.8-2.54 1.25 6.41v3.93s-2.18 2.76-3.59 3.16l-3.91 1.07v-6.17l-1.14.33a9.44 9.44 0 0 1-7.19-.82 9.56 9.56 0 0 1-4.88-9 9.41 9.41 0 0 1 6.93-8.39l12.53-3.59v6.61l-10.55 3a3.14 3.14 0 0 0-1.88 1.53z"/><path class="cls-6" d="M273.32 10.37a9.4 9.4 0 0 1-6.48 11.5l-10.48 3v-6.4l8.94-2.58a3.08 3.08 0 0 0 2-4 3.13 3.13 0 0 0-3.78-1.89l-8.41 2.57v-4a2.42 2.42 0 0 1 1.83-3.16L261.88 4a9.16 9.16 0 0 1 7 .82 9.26 9.26 0 0 1 4.44 5.55zm-23.23-3l11.27-3v-6.62l-12.52 3.6a9.39 9.39 0 0 0-6.93 8.38 9.55 9.55 0 0 0 4.88 9 9.39 9.39 0 0 0 7.19.82l1.13-.33v6.23l3.89-1.12a3.29 3.29 0 0 0 2.38-3.16V10.82l-9.52 2.54a3.11 3.11 0 1 1-1.75-6z"/><path class="cls-7" d="M273.32 10.37a9.4 9.4 0 0 1-6.48 11.5l-10.48 3v-6.4l8.94-2.58a3.08 3.08 0 0 0 2-4 3.13 3.13 0 0 0-3.78-1.89l-8.41 2.57v-4a2.42 2.42 0 0 1 1.83-3.16L261.88 4a9.16 9.16 0 0 1 7 .82 9.26 9.26 0 0 1 4.44 5.55z"/><path class="cls-7" d="M248.22 8.89a3.1 3.1 0 0 0 3.62 4.47l8.27-2.54 1.25 6.41v3.94a3.29 3.29 0 0 1-2.36 3.16l-3.87 1.11v-6.22l-1.14.33a9.44 9.44 0 0 1-7.19-.82 9.57 9.57 0 0 1-4.88-9 9.41 9.41 0 0 1 6.93-8.39l12.53-3.59v6.61l-11.27 3a3.12 3.12 0 0 0-1.89 1.53z"/><path class="cls-6" d="M273.32 51.59a9.39 9.39 0 0 1-6.48 11.49l-10.48 3v-6.39l8.94-2.57a3.09 3.09 0 0 0 2-4 3.13 3.13 0 0 0-3.82-1.87l-8.41 2.57v-4a2.41 2.41 0 0 1 1.83-3.16l4.94-1.42a9.27 9.27 0 0 1 11.44 6.36zm-23.23-3l11.27-3V39l-12.52 3.59a9.41 9.41 0 0 0-6.93 8.38 9.57 9.57 0 0 0 4.88 9 9.43 9.43 0 0 0 7.19.81l1.13-.32v6.22l3.89-1.14a3.28 3.28 0 0 0 2.38-3.16V52l-9.52 2.53a3.14 3.14 0 0 1-3.86-2.04 3.1 3.1 0 0 1 .27-2.38 3.14 3.14 0 0 1 1.82-1.5z"/><path class="cls-7" d="M273.32 51.59a9.39 9.39 0 0 1-6.48 11.49l-10.48 3v-6.39l8.94-2.57a3.09 3.09 0 0 0 2-4 3.13 3.13 0 0 0-3.82-1.87l-8.41 2.57v-4a2.41 2.41 0 0 1 1.83-3.16l4.94-1.42a9.27 9.27 0 0 1 11.44 6.36z"/><path class="cls-7" d="M248.22 50.11a3.1 3.1 0 0 0-.27 2.38 3.14 3.14 0 0 0 3.89 2.08l8.27-2.57 1.25 6.4v3.94a3.28 3.28 0 0 1-2.36 3.2l-3.87 1.11v-6.22l-1.14.33a9.44 9.44 0 0 1-7.19-.82 9.56 9.56 0 0 1-4.88-9 9.39 9.39 0 0 1 6.93-8.38L261.36 39v6.62l-11.27 3a3.14 3.14 0 0 0-1.87 1.49z"/><path class="cls-6" d="M273.32 92.8a9.4 9.4 0 0 1-6.48 11.5l-10.48 3v-6.4l8.94-2.57a3.09 3.09 0 0 0 2-4 3.14 3.14 0 0 0-3.82-1.87L255.11 95v-4a2.41 2.41 0 0 1 1.83-3.16l4.94-1.42a9.27 9.27 0 0 1 11.44 6.36zm-23.23-3l11.27-3v-6.62l-12.52 3.59a9.41 9.41 0 0 0-6.93 8.39 9.55 9.55 0 0 0 4.88 9 9.43 9.43 0 0 0 7.21.84l1.13-.33v6.23l3.87-1.11a3.3 3.3 0 0 0 2.38-3.16V93.25l-9.52 2.53a3.1 3.1 0 1 1-1.75-6z"/><path class="cls-7" d="M273.32 92.8a9.4 9.4 0 0 1-6.48 11.5l-10.48 3v-6.4l8.94-2.57a3.09 3.09 0 0 0 2-4 3.14 3.14 0 0 0-3.82-1.87L255.11 95v-4a2.41 2.41 0 0 1 1.83-3.16l4.94-1.42a9.27 9.27 0 0 1 11.44 6.36z"/><path class="cls-7" d="M248.22 91.32a3.09 3.09 0 0 0 3.62 4.46l8.27-2.53 1.25 6.41v3.94a3.3 3.3 0 0 1-2.38 3.16l-3.87 1.11v-6.22L254 102a9.44 9.44 0 0 1-7.19-.81 9.57 9.57 0 0 1-4.88-9 9.41 9.41 0 0 1 6.93-8.39l12.53-3.6v6.62l-11.27 3a3.12 3.12 0 0 0-1.9 1.5z"/><path class="cls-6" d="M273.32 134a9.4 9.4 0 0 1-6.48 11.5l-10.48 3v-6.4l8.94-2.58a3 3 0 0 0 1.84-1.46 3.08 3.08 0 0 0 .2-2.56 3.13 3.13 0 0 0-3.82-1.87l-8.41 2.57v-4a2.42 2.42 0 0 1 1.83-3.16l4.94-1.41a9.16 9.16 0 0 1 7 .82 9.26 9.26 0 0 1 4.44 5.55zm-23.23-3l11.27-3v-6.61L248.84 125a9.39 9.39 0 0 0-6.93 8.38 9.55 9.55 0 0 0 4.88 9 9.39 9.39 0 0 0 7.19.82l1.13-.32v6.22L259 148a3.29 3.29 0 0 0 2.38-3.16v-10.38l-9.54 2.54a3.11 3.11 0 1 1-1.75-6z"/><path class="cls-7" d="M273.32 134a9.4 9.4 0 0 1-6.48 11.5l-10.48 3v-6.4l8.94-2.58a3 3 0 0 0 1.84-1.46 3.08 3.08 0 0 0 .2-2.56 3.13 3.13 0 0 0-3.82-1.87l-8.41 2.57v-4a2.42 2.42 0 0 1 1.83-3.16l4.94-1.41a9.16 9.16 0 0 1 7 .82 9.26 9.26 0 0 1 4.44 5.55z"/><path class="cls-7" d="M248.22 132.53a3.1 3.1 0 0 0 3.62 4.47l8.27-2.54 1.25 6.41v3.94A3.29 3.29 0 0 1 259 148l-3.87 1.11v-6.22l-1.14.33a9.44 9.44 0 0 1-7.19-.82 9.56 9.56 0 0 1-4.88-9 9.41 9.41 0 0 1 6.93-8.39l12.53-3.59V128l-11.27 3a3.12 3.12 0 0 0-1.89 1.53z"/><path class="cls-6" d="M273.32 175.23a9.39 9.39 0 0 1-6.48 11.49l-10.48 3v-6.41l8.94-2.57a3.09 3.09 0 0 0 2-4 3.13 3.13 0 0 0-3.82-1.87l-8.41 2.57v-4a2.41 2.41 0 0 1 1.83-3.16l4.94-1.42a9.2 9.2 0 0 1 7 .82 9.31 9.31 0 0 1 4.48 5.55zm-23.23-3l11.27-3v-6.61l-12.52 3.59a9.41 9.41 0 0 0-6.93 8.39 9.56 9.56 0 0 0 4.88 9 9.43 9.43 0 0 0 7.19.81l1.13-.32v6.22l3.87-1.11a3.28 3.28 0 0 0 2.38-3.16v-10.36l-9.52 2.53a3.09 3.09 0 0 1-3.62-4.46 3.09 3.09 0 0 1 1.87-1.49z"/><path class="cls-7" d="M273.32 175.23a9.39 9.39 0 0 1-6.48 11.49l-10.48 3v-6.41l8.94-2.57a3.09 3.09 0 0 0 2-4 3.13 3.13 0 0 0-3.82-1.87l-8.41 2.57v-4a2.41 2.41 0 0 1 1.83-3.16l4.94-1.42a9.2 9.2 0 0 1 7 .82 9.31 9.31 0 0 1 4.48 5.55z"/><path class="cls-7" d="M248.22 173.75a3.09 3.09 0 0 0 3.62 4.46l8.27-2.53 1.25 6.4V186a3.28 3.28 0 0 1-2.38 3.16l-3.87 1.11v-6.22l-1.14.33a9.44 9.44 0 0 1-7.19-.82 9.56 9.56 0 0 1-4.88-9 9.39 9.39 0 0 1 6.93-8.38l12.53-3.6v6.62l-11.27 3a3.09 3.09 0 0 0-1.87 1.55z"/><path class="cls-6" d="M273.32 216.44a9.4 9.4 0 0 1-6.48 11.5l-10.48 3v-6.41l8.94-2.53a3.09 3.09 0 0 0 2-4 3.14 3.14 0 0 0-3.82-1.88l-8.41 2.57v-4a2.42 2.42 0 0 1 1.83-3.16l4.94-1.42a9.29 9.29 0 0 1 11.44 6.36zm-23.23-3l11.27-3v-6.61l-12.52 3.59a9.41 9.41 0 0 0-6.93 8.39 9.55 9.55 0 0 0 4.88 9 9.43 9.43 0 0 0 7.19.82l1.13-.33v6.23l3.89-1.13a3.3 3.3 0 0 0 2.38-3.16v-10.35l-9.52 2.54a3.11 3.11 0 1 1-1.75-6z"/><path class="cls-7" d="M273.32 216.44a9.4 9.4 0 0 1-6.48 11.5l-10.48 3v-6.41l8.94-2.53a3.09 3.09 0 0 0 2-4 3.14 3.14 0 0 0-3.82-1.88l-8.41 2.57v-4a2.42 2.42 0 0 1 1.83-3.16l4.94-1.42a9.29 9.29 0 0 1 11.44 6.36z"/><path class="cls-7" d="M248.22 215a3.1 3.1 0 0 0 3.62 4.47l8.27-2.54 1.25 6.41v3.94a3.3 3.3 0 0 1-2.36 3.12l-3.87 1.11v-6.22l-1.14.32a9.44 9.44 0 0 1-7.19-.81 9.57 9.57 0 0 1-4.88-9 9.41 9.41 0 0 1 6.93-8.39l12.53-3.6v6.62l-11.27 3a3.12 3.12 0 0 0-1.89 1.57z"/><path class="cls-6" d="M273.32 257.65a9.4 9.4 0 0 1-6.48 11.5l-10.48 3v-6.4l8.94-2.58a3 3 0 0 0 1.84-1.46 3.08 3.08 0 0 0 .2-2.56 3.13 3.13 0 0 0-3.82-1.87l-8.41 2.57v-4a2.4 2.4 0 0 1 1.83-3.15l4.94-1.42a9.16 9.16 0 0 1 7 .82 9.26 9.26 0 0 1 4.44 5.55zm-23.23-3l11.27-3V245l-12.52 3.6a9.39 9.39 0 0 0-6.93 8.38 9.55 9.55 0 0 0 4.88 9 9.39 9.39 0 0 0 7.19.82l1.13-.32v6.22l3.87-1.11a3.28 3.28 0 0 0 2.38-3.16V258.1l-9.52 2.54a3.14 3.14 0 0 1-3.89-2.08 3.14 3.14 0 0 1 2.14-3.88z"/><path class="cls-7" d="M273.32 257.65a9.4 9.4 0 0 1-6.48 11.5l-10.48 3v-6.4l8.94-2.58a3 3 0 0 0 1.84-1.46 3.08 3.08 0 0 0 .2-2.56 3.13 3.13 0 0 0-3.82-1.87l-8.41 2.57v-4a2.4 2.4 0 0 1 1.83-3.15l4.94-1.42a9.16 9.16 0 0 1 7 .82 9.26 9.26 0 0 1 4.44 5.55z"/><path class="cls-7" d="M248.22 256.18a3.1 3.1 0 0 0-.27 2.38 3.14 3.14 0 0 0 3.89 2.08l8.27-2.54 1.25 6.41v3.94a3.28 3.28 0 0 1-2.38 3.16l-3.87 1.11v-6.22l-1.14.33a9.44 9.44 0 0 1-7.19-.82 9.56 9.56 0 0 1-4.88-9 9.39 9.39 0 0 1 6.93-8.38l12.53-3.6v6.61l-11.27 3a3.1 3.1 0 0 0-1.87 1.54z"/><path class="cls-6" d="M7.09-8.18A9.39 9.39 0 0 1 .61 3.31l-10.5 3V-.08l9-2.57a3.07 3.07 0 0 0 1.8-1.47 3.07 3.07 0 0 0 .2-2.56 3.13 3.13 0 0 0-3.82-1.87L-11.14-6v-4a2.45 2.45 0 0 1 1.85-3.16l4.95-1.42a9.22 9.22 0 0 1 7 .82 9.31 9.31 0 0 1 4.43 5.58zm-23.23-3l11.25-3v-6.62l-12.52 3.59a9.41 9.41 0 0 0-6.93 8.39 9.56 9.56 0 0 0 4.88 9 9.43 9.43 0 0 0 7.19.82l1.13-.33v6.21l3.87-1.11a3.28 3.28 0 0 0 2.38-3.15V-7.73l-9.5 2.53a3.13 3.13 0 0 1-3.89-2.07A3.12 3.12 0 0 1-18-9.66a3.09 3.09 0 0 1 1.86-1.49z"/><path class="cls-7" d="M7.09-8.18A9.39 9.39 0 0 1 .61 3.31l-10.5 3V-.08l9-2.57a3.07 3.07 0 0 0 1.8-1.47 3.07 3.07 0 0 0 .2-2.56 3.13 3.13 0 0 0-3.82-1.87L-11.14-6v-4a2.45 2.45 0 0 1 1.85-3.16l4.95-1.42a9.22 9.22 0 0 1 7 .82 9.31 9.31 0 0 1 4.43 5.58z"/><path class="cls-6" d="M7.09 33A9.4 9.4 0 0 1 .61 44.53l-10.5 3v-6.4l9-2.57a3.05 3.05 0 0 0 1.8-1.46 3.08 3.08 0 0 0 .2-2.56 3.14 3.14 0 0 0-3.82-1.88l-8.43 2.57v-4a2.45 2.45 0 0 1 1.85-3.16l4.95-1.42a9.18 9.18 0 0 1 7 .83A9.26 9.26 0 0 1 7.09 33zm-23.23-3l11.25-3v-6.59L-17.41 24a9.39 9.39 0 0 0-6.93 8.38 9.55 9.55 0 0 0 4.88 9 9.43 9.43 0 0 0 7.19.82l1.13-.33v6.23l3.87-1.1a3.3 3.3 0 0 0 2.38-3.16V33.48l-9.5 2.52a3.15 3.15 0 0 1-3.89-2.08 3.13 3.13 0 0 1 .28-2.37 3.12 3.12 0 0 1 1.86-1.49z"/><path class="cls-7" d="M7.09 33A9.4 9.4 0 0 1 .61 44.53l-10.5 3v-6.4l9-2.57a3.05 3.05 0 0 0 1.8-1.46 3.08 3.08 0 0 0 .2-2.56 3.14 3.14 0 0 0-3.82-1.88l-8.43 2.57v-4a2.45 2.45 0 0 1 1.85-3.16l4.95-1.42a9.18 9.18 0 0 1 7 .83A9.26 9.26 0 0 1 7.09 33z"/><path class="cls-6" d="M7.09 74.25A9.39 9.39 0 0 1 .61 85.74l-10.5 3v-6.39l9-2.57a3.07 3.07 0 0 0 1.8-1.47 3.08 3.08 0 0 0 .2-2.56 3.13 3.13 0 0 0-3.82-1.87l-8.43 2.57v-4a2.45 2.45 0 0 1 1.85-3.16l4.95-1.42a9.14 9.14 0 0 1 7 .82 9.25 9.25 0 0 1 4.43 5.56zm-23.23-3l11.25-3v-6.63l-12.52 3.6a9.41 9.41 0 0 0-6.93 8.38 9.57 9.57 0 0 0 4.88 9 9.43 9.43 0 0 0 7.19.81l1.13-.32v6.22l3.87-1.11A3.28 3.28 0 0 0-4.89 85V74.69l-9.5 2.54a3.14 3.14 0 0 1-3.89-2.08 3.1 3.1 0 0 1 .28-2.38 3.14 3.14 0 0 1 1.86-1.5z"/><path class="cls-7" d="M7.09 74.25A9.39 9.39 0 0 1 .61 85.74l-10.5 3v-6.39l9-2.57a3.07 3.07 0 0 0 1.8-1.47 3.08 3.08 0 0 0 .2-2.56 3.13 3.13 0 0 0-3.82-1.87l-8.43 2.57v-4a2.45 2.45 0 0 1 1.85-3.16l4.95-1.42a9.14 9.14 0 0 1 7 .82 9.25 9.25 0 0 1 4.43 5.56z"/><path class="cls-6" d="M7.09 115.46A9.39 9.39 0 0 1 .61 127l-10.5 3v-6.41l9-2.57a3.07 3.07 0 0 0 1.84-1.47 3.07 3.07 0 0 0 .2-2.56 3.14 3.14 0 0 0-3.82-1.87l-8.43 2.57v-4a2.45 2.45 0 0 1 1.85-3.16l4.95-1.42a9.22 9.22 0 0 1 7 .82 9.31 9.31 0 0 1 4.39 5.53zm-23.23-3l11.25-3v-6.61l-12.52 3.59a9.41 9.41 0 0 0-6.93 8.39 9.56 9.56 0 0 0 4.88 9 9.43 9.43 0 0 0 7.19.82l1.13-.33v6.22l3.87-1.11a3.28 3.28 0 0 0 2.38-3.15v-10.37l-9.5 2.53a3.13 3.13 0 0 1-3.89-2.07A3.13 3.13 0 0 1-18 114a3.12 3.12 0 0 1 1.86-1.51z"/><path class="cls-7" d="M7.09 115.46A9.39 9.39 0 0 1 .61 127l-10.5 3v-6.41l9-2.57a3.07 3.07 0 0 0 1.84-1.47 3.07 3.07 0 0 0 .2-2.56 3.14 3.14 0 0 0-3.82-1.87l-8.43 2.57v-4a2.45 2.45 0 0 1 1.85-3.16l4.95-1.42a9.22 9.22 0 0 1 7 .82 9.31 9.31 0 0 1 4.39 5.53z"/><path class="cls-6" d="M7.09 156.67a9.4 9.4 0 0 1-6.48 11.5l-10.5 3v-6.41l9-2.57a3.05 3.05 0 0 0 1.84-1.46 3.08 3.08 0 0 0 .2-2.56 3.13 3.13 0 0 0-3.82-1.87l-8.43 2.57v-4a2.45 2.45 0 0 1 1.85-3.16l4.95-1.41a9.14 9.14 0 0 1 7 .82 9.26 9.26 0 0 1 4.39 5.55zm-23.23-3l11.25-3v-6.61l-12.52 3.6a9.39 9.39 0 0 0-6.93 8.34 9.55 9.55 0 0 0 4.88 9 9.43 9.43 0 0 0 7.19.82l1.13-.33v6.23l3.87-1.11a3.29 3.29 0 0 0 2.38-3.16v-10.33l-9.5 2.54a3.15 3.15 0 0 1-3.89-2.08 3.13 3.13 0 0 1 .27-2.39 3.12 3.12 0 0 1 1.87-1.49z"/><path class="cls-7" d="M7.09 156.67a9.4 9.4 0 0 1-6.48 11.5l-10.5 3v-6.41l9-2.57a3.05 3.05 0 0 0 1.84-1.46 3.08 3.08 0 0 0 .2-2.56 3.13 3.13 0 0 0-3.82-1.87l-8.43 2.57v-4a2.45 2.45 0 0 1 1.85-3.16l4.95-1.41a9.14 9.14 0 0 1 7 .82 9.26 9.26 0 0 1 4.39 5.55z"/><path class="cls-6" d="M7.09 197.89a9.39 9.39 0 0 1-6.48 11.49l-10.5 3V206l9-2.57A3.07 3.07 0 0 0 .91 202a3.08 3.08 0 0 0 .2-2.56 3.13 3.13 0 0 0-3.82-1.87l-8.43 2.57v-4A2.45 2.45 0 0 1-9.29 193l4.95-1.42a9.18 9.18 0 0 1 7 .82 9.25 9.25 0 0 1 4.43 5.49zm-23.23-3l11.25-3v-6.61l-12.52 3.59a9.41 9.41 0 0 0-6.93 8.38 9.57 9.57 0 0 0 4.88 9 9.43 9.43 0 0 0 7.19.81l1.13-.32V213l3.87-1.11a3.28 3.28 0 0 0 2.38-3.16v-10.4l-9.5 2.54a3.14 3.14 0 0 1-3.89-2.08 3.1 3.1 0 0 1 .27-2.38 3.14 3.14 0 0 1 1.87-1.5z"/><path class="cls-7" d="M7.09 197.89a9.39 9.39 0 0 1-6.48 11.49l-10.5 3V206l9-2.57A3.07 3.07 0 0 0 .91 202a3.08 3.08 0 0 0 .2-2.56 3.13 3.13 0 0 0-3.82-1.87l-8.43 2.57v-4A2.45 2.45 0 0 1-9.29 193l4.95-1.42a9.18 9.18 0 0 1 7 .82 9.25 9.25 0 0 1 4.43 5.49z"/><path class="cls-6" d="M7.09 239.1a9.4 9.4 0 0 1-6.48 11.5l-10.5 3v-6.4l9-2.57a3 3 0 0 0 1.84-1.47 3.07 3.07 0 0 0 .2-2.56 3.14 3.14 0 0 0-3.82-1.87l-8.43 2.57v-4a2.45 2.45 0 0 1 1.85-3.16l4.95-1.42a9.22 9.22 0 0 1 7 .82 9.31 9.31 0 0 1 4.39 5.56zm-23.23-3l11.25-3v-6.61l-12.52 3.59a9.41 9.41 0 0 0-6.93 8.39 9.55 9.55 0 0 0 4.88 9 9.43 9.43 0 0 0 7.19.82l1.13-.33v6.23l3.87-1.12a3.28 3.28 0 0 0 2.38-3.15v-10.37l-9.5 2.53a3.13 3.13 0 0 1-3.89-2.08 3.13 3.13 0 0 1 .27-2.39 3.12 3.12 0 0 1 1.87-1.48z"/><path class="cls-7" d="M7.09 239.1a9.4 9.4 0 0 1-6.48 11.5l-10.5 3v-6.4l9-2.57a3 3 0 0 0 1.84-1.47 3.07 3.07 0 0 0 .2-2.56 3.14 3.14 0 0 0-3.82-1.87l-8.43 2.57v-4a2.45 2.45 0 0 1 1.85-3.16l4.95-1.42a9.22 9.22 0 0 1 7 .82 9.31 9.31 0 0 1 4.39 5.56z"/><path class="cls-6" d="M7.09 280.31a9.4 9.4 0 0 1-6.48 11.5l-10.5 3v-6.4l9-2.58a3 3 0 0 0 1.84-1.46 3.08 3.08 0 0 0 .2-2.56A3.13 3.13 0 0 0-2.71 280l-8.43 2.57v-4a2.45 2.45 0 0 1 1.85-3.16l4.95-1.41a9.14 9.14 0 0 1 7 .82 9.26 9.26 0 0 1 4.43 5.49zm-23.23-3l11.25-3v-6.61l-12.52 3.6a9.39 9.39 0 0 0-6.93 8.38 9.55 9.55 0 0 0 4.88 9 9.39 9.39 0 0 0 7.19.82l1.13-.33v6.23l3.87-1.11a3.29 3.29 0 0 0 2.38-3.16v-10.37l-9.5 2.54a3.14 3.14 0 0 1-3.89-2.08 3.13 3.13 0 0 1 .27-2.39 3.12 3.12 0 0 1 1.87-1.49z"/></g></g></g></g></g></svg>