<svg xmlns="http://www.w3.org/2000/svg" viewBox="0 0 270 270.68"><defs><style>.cls-1{fill:none}.cls-2{isolation:isolate}.cls-3{fill:#f3b0d0}.cls-4{clip-path:url(#clip-path)}.cls-5{mix-blend-mode:overlay}.cls-6{fill:#2e2b28}.cls-7{fill:#484442}.cls-8{fill:#5f564f}.cls-9{fill:#b0a8a2}</style><clipPath id="clip-path"><path class="cls-1" transform="rotate(90 135 135.34)" d="M0.12 0.34H269.89V270.34H0.12z"/></clipPath></defs><g class="cls-2"><g id="Layer_2" data-name="Layer 2"><g id="ARTWORK"><path class="cls-3" transform="rotate(90 135 135.34)" d="M-0.34 0.34H270.34000000000003V270.34H-0.34z"/><g class="cls-4"><g class="cls-5"><path class="cls-6" d="M342.19-70.14l15 71.56A155.62 155.62 0 0 1 339.3-9c-17.11-11-34.81-22.37-64.3-16.19S233.92-1.5 222.67 15.44c-10.49 15.77-20.41 30.69-45.5 36S137.05 47 121.11 36.72c-17.11-11-34.78-22.38-64.27-16.2S15.73 44.22 4.5 61.16C-6 76.93-15.9 91.84-41 97.1s-40.13-4.43-56.07-14.66c-9.88-6.37-20-12.84-32.42-16l-15.13-72.23c8.6 3 16.15 7.88 23.9 12.88 17.11 11 34.8 22.37 64.27 16.2s41.1-23.7 52.36-40.64C6.4-33.12 16.31-48 41.37-53.29s40.13 4.43 56.1 14.66c17.08 11 34.77 22.38 64.24 16.21s41.13-23.71 52.39-40.65c10.49-15.77 20.4-30.69 45.46-35.93s40.13 4.44 56.1 14.66c8.34 5.34 16.72 10.73 26.53 14.2z"/><path class="cls-7" d="M359.9 14.42l15 71.58A155.22 155.22 0 0 1 357 75.56c-17.11-11-34.8-22.37-64.27-16.2s-41.1 23.7-52.36 40.64c-10.48 15.77-20.37 30.69-45.48 36s-40.13-4.44-56.07-14.67c-17.11-11-34.77-22.38-64.27-16.2s-41.1 23.7-52.33 40.63c-10.52 15.73-20.4 30.64-45.49 35.9S-63.4 177.22-79.34 167c-9.89-6.37-20-12.83-32.42-16l-15.14-72.24c8.6 3.08 16.15 7.89 23.9 12.91 17.1 11 34.8 22.35 64.26 16.17S2.37 84.15 13.63 67.23c10.48-15.79 20.4-30.71 45.46-36S99.22 35.7 115.19 46c17.08 11 34.77 22.36 64.24 16.18s41.13-23.7 52.39-40.61c10.48-15.8 20.4-30.72 45.46-36S317.41-10 333.38.24c8.29 5.3 16.72 10.76 26.52 14.18z"/><path class="cls-8" d="M377.62 99l15 71.55a155.86 155.86 0 0 1-17.88-10.41c-17.11-11-34.8-22.37-64.27-16.2s-41.1 23.7-52.36 40.64c-10.49 15.77-20.4 30.69-45.49 35.94s-40.13-4.43-56.07-14.66c-17.11-11-34.78-22.38-64.27-16.2s-41.1 23.7-52.33 40.63c-10.52 15.78-20.41 30.69-45.49 36s-40.13-4.44-56.07-14.67c-9.89-6.37-20-12.83-32.43-16l-15.14-72.26c8.61 3.08 16.15 7.89 23.91 12.91 17.1 11 34.79 22.35 64.26 16.17s41.1-23.7 52.37-40.61c10.48-15.79 20.39-30.71 45.46-36s40.12 4.43 56.1 14.68c17.07 11 34.77 22.35 64.23 16.18s41.13-23.7 52.4-40.62C260 90.28 269.93 75.36 295 70.11s40.12 4.43 56.1 14.68c8.29 5.31 16.72 10.75 26.52 14.21z"/><path class="cls-9" d="M395.34 183.53l15 71.56a155 155 0 0 1-17.88-10.41c-17.11-11-34.81-22.38-64.27-16.2s-41.11 23.7-52.36 40.64c-10.49 15.77-20.41 30.68-45.49 35.94s-40.13-4.43-56.07-14.66c-17.11-11-34.78-22.38-64.27-16.2s-41.11 23.69-52.33 40.63c-10.52 15.77-20.41 30.69-45.5 35.94S-28 346.34-43.9 336.11c-9.89-6.37-20-12.83-32.43-16l-15.14-72.25c8.61 3.07 16.15 7.89 23.9 12.91 17.11 11 34.8 22.34 64.27 16.17s41.11-23.67 52.36-40.61c10.49-15.8 20.4-30.72 45.46-36s40.13 4.44 56.1 14.69c17.09 11 34.77 22.35 64.24 16.18s41.14-23.68 52.39-40.62c10.49-15.79 20.4-30.71 45.46-36s40.13 4.43 56.1 14.68c8.3 5.42 16.72 10.83 26.53 14.27z"/></g></g></g></g></g></svg>