<svg viewBox="0 0 270 270.68" xmlns="http://www.w3.org/2000/svg" xmlns:xlink="http://www.w3.org/1999/xlink"><clipPath id="a"><path d="m.12.34h269.77v270h-269.77z" transform="matrix(0 1 -1 0 270.34 .34)"/></clipPath><clipPath id="b"><ellipse cx="137.2" cy="139.2" rx="306.22" ry="224.35"/></clipPath><path d="m-.34.34h270.68v270h-270.68z" fill="#1db1a2" transform="matrix(0 1 -1 0 270.34 .34)"/><g clip-path="url(#a)"><g clip-path="url(#b)"><path d="m408.5 289.2-.61-1.51 70.71-166.94-41.34-102.08-71.15 168-168.01-71.16-.44 1.06-1.07-.45.62 1.52-70.71 166.93 41.33 102.08 71.16-168 168 71.16.45-1.06z" fill="#5f564f"/><path d="m126.5 284.57-169.07-71.61-71.61 169.06 41.34 102.08 71.61-169.06 169.06 71.61z" fill="#5f564f"/><path d="m356.65 161.16-.61-1.51 70.71-166.94-41.33-102.08-71.16 168-168-71.16-.45 1.06-1.06-.45.61 1.51-70.71 166.94 41.33 102.08 71.16-168 168 71.16.45-1.06z" fill="#484442"/><path d="m74.65 156.53-169.06-71.61-71.61 169.06 41.33 102.08 71.61-169.06 169.06 71.61z" fill="#484442"/><g fill="#2e2b28"><path d="m304.81 33.12-.61-1.52 70.7-166.94-41.33-102.08-71.16 168-168-71.16-.45 1.07-1.06-.45.61 1.51-70.71 166.93 41.34 102.08 71.16-167.99 168 71.16.45-1.07z"/><path d="m22.8 28.49-169.06-71.62-71.61 169.07 41.33 102.08 71.61-169.06 169.07 71.61z"/></g></g></g></svg>