<svg viewBox="0 0 100 100" xmlns="http://www.w3.org/2000/svg"><path d="M0 0h100v100H0z" fill="none"/><path d="M81.82 38.11a26.3 26.3 0 0 0-11.52-7.29l.8-2.39a9.05 9.05 0 0 0-8.59-11.93H38A26.16 26.16 0 0 0 17.51 26a28.21 28.21 0 0 0-6.58 17.48 26.81 26.81 0 0 0 8.32 19.43 27.44 27.44 0 0 0 10.18 6.25l-1.78 5.25a6.86 6.86 0 0 0 6.49 9.11H45a11.19 11.19 0 0 0 2.59-.31 9.26 9.26 0 0 0 2.36.31h12.16a27 27 0 0 0 27-26.95 27.52 27.52 0 0 0-7.29-18.46zM75.48 44a18.91 18.91 0 0 1 1.92 2.48 1.76 1.76 0 0 1-.26 2.23 1.85 1.85 0 0 1-1.25.47H65.58a7 7 0 0 1-1.58-.26 7.58 7.58 0 0 0-1.86-.23H46.61a.87.87 0 0 1-.85-1.15l2.61-7.83a2.18 2.18 0 0 1 2.07-1.5h11.67A17.94 17.94 0 0 1 75.48 44zM22.76 33.34a22.56 22.56 0 0 1 1.36-1.85A17.5 17.5 0 0 1 38 25.12h22.65a1.8 1.8 0 0 1 1 .29 1.73 1.73 0 0 1 .69 2l-2.22 6.69a2.17 2.17 0 0 1-2.06 1.5H38a7.86 7.86 0 0 0-1.88.22 6.54 6.54 0 0 1-1.59.21H24.29a1.75 1.75 0 0 1-1.53-2.69zM19.91 47a16.66 16.66 0 0 1 .09-7.18c.61-2.63 2.88-2 10.61-2a.87.87 0 0 1 .75 1.36A6.28 6.28 0 0 0 30 43.21c-.09 2.87.56 3.45 1.29 4.57a.88.88 0 0 1-.14 1.12.91.91 0 0 1-.62.23h-8.06A2.61 2.61 0 0 1 19.91 47zm5.4 9.7a18.65 18.65 0 0 1-2.62-3.09 1.8 1.8 0 0 1-.26-1.51 1.74 1.74 0 0 1 1.68-1.26h10.22a7 7 0 0 1 1.71.22 7.47 7.47 0 0 0 1.85.22h15.28a.87.87 0 0 1 .83 1.18L51.16 61a1.74 1.74 0 0 1-1.65 1.19H40.8a1.72 1.72 0 0 1-.94-.25 1.21 1.21 0 0 0-.67-.18H37a17.65 17.65 0 0 1-11.69-5.03zM47 73.39a2.18 2.18 0 0 1-2 1.49h-7.17a1 1 0 0 1-.49-.13.87.87 0 0 1-.36-1l2.9-8.58A1.76 1.76 0 0 1 41.54 64H49a.88.88 0 0 1 .85.66 1 1 0 0 1 0 .52zm30.17-6.45a18.33 18.33 0 0 1-15.1 7.94H50.55a1 1 0 0 1-.49-.13.89.89 0 0 1-.37-1l2.73-8.13a1.74 1.74 0 0 1 1.65-1.2h8a7.69 7.69 0 0 0 2.27-.33A2.3 2.3 0 0 1 65 64h10.65a1.9 1.9 0 0 1 1.56 2.94zm2.71-6a1.74 1.74 0 0 1-1.69 1.33h-8.8a.87.87 0 0 1-.76-1.35 7.87 7.87 0 0 0 0-8.62.87.87 0 0 1-.16-.64.89.89 0 0 1 .87-.74h8.8a1.76 1.76 0 0 1 1.7 1.33 17.91 17.91 0 0 1 0 8.69z" fill="#120e0b"/></svg>