<svg viewBox="0 0 100 100" xmlns="http://www.w3.org/2000/svg"><clipPath id="a"><path d="M80.69 88.18h100v100h-100z" transform="rotate(90 130.695 138.175)"/></clipPath><g clip-path="url(#a)" fill="#100e0c"><path d="M231.99 195.21l-.23-.56 26.19-61.88-15.31-37.84-26.35 62.27-62.23-26.37-.16.39-.4-.17.23.56-26.19 61.89 15.31 37.84 26.36-62.28 62.22 26.38.17-.4zm-104.45-1.71l-62.61-26.55-26.52 62.67 15.3 37.84 26.53-62.67 62.61 26.55z"/><path d="M212.79 147.75l-.23-.56 26.19-61.89-15.31-37.84-26.35 62.28-62.23-26.38-.16.4-.4-.17.23.56-26.19 61.88 15.31 37.84L150 121.6l62.23 26.37.16-.39zm-104.45-1.72l-62.61-26.54-26.53 62.67L34.51 220l26.52-62.67 62.62 26.54z"/><path d="M193.59 100.28l-.23-.56 26.19-61.88L204.24 0l-26.36 62.28-62.22-26.38-.17.39-.39-.16.23.56-26.19 61.88 15.31 37.84 26.35-62.28 62.23 26.38.16-.39z"/><path d="M89.14 98.57L26.52 72.02 0 134.69l15.31 37.84 26.52-62.67 62.62 26.55z"/></g></svg>
