<svg xmlns="http://www.w3.org/2000/svg" viewBox="0 0 1010 1009.943"><path d="M505.057 0C226.123 0 0 226.094 0 505c0 278.932 226.123 504.943 505.057 504.943C783.934 1009.943 1010 783.932 1010 505 1010 226.094 783.934 0 505.057 0zM372.606 536.223l-4.001 12.007-7.946 14.877-8.906 10.202-13.415 11.443-11.102 5.748-16.711 5.242-19.868.958-14.147-2.536-13.301-5.523-12.963-9.187-10.934-10.877-4.622-6.087-9.947-19.445-2.058-7.326-2.31-15.837 4.115-21.363 2.395-6.818 11.356-17.811 5.242-6.369 13.133-10.877 10.709-6.257 14.288-4.959 15.64-2.424 22.094 4.115 6.764 2.536 19.107 11.723 15.668 16.458 4.171 6.199 5.89 13.356 3.184 15.895-1.525 22.937zm403.634 5.187s0 .055-.029.055c-1.466 3.663-3.494 7.159-5.552 10.596-.647 1.072-1.041 2.254-1.717 3.269-1.636 2.481-3.778 4.735-5.722 7.047-1.521 1.803-2.763 3.776-4.454 5.466h-.026v.055L537.83 789.061c-15.527 15.613-35.93 23.391-56.305 23.391-20.347 0-40.722-7.778-56.249-23.276-31.082-31.056-31.14-81.443-.056-112.556l164.604-164.857-159.108-158.715c-31.14-31.055-31.197-81.442-.17-112.582 31.055-31.112 81.443-31.168 112.554-.141l215.5 214.964c.026 0 .026 0 .055.056 23.307 23.221 29.167 57.321 17.585 86.065z" fill="#32383F"/></svg>