<svg xmlns="http://www.w3.org/2000/svg" viewBox="0 0 1007.344 1010"><path d="M678.496 791.835h239.245C826.618 923.545 674.673 1010 502.38 1010 240.93 1010 25.915 811.342 0 556.751h370.559l-187.36 177.466 115.856 120.859 377.137-369.77-330.31-330.381-123.22 101.072 133.114 142.965H8.768C57.45 171.001 259.875 0 502.38 0c278.931 0 504.965 226.091 504.965 504.979 0 66.727-13.266 130.248-36.764 188.541H669.276l116.757-110.572-72.179-75.27-235.03 230.419 205.854 205.799 76.789-62.961-82.971-89.1z" fill="#32383F"/></svg>