<svg viewBox="0 0 330.91 331.86" xmlns="http://www.w3.org/2000/svg"><g stroke="#fff" stroke-miterlimit="10" stroke-width="2"><path d="m57.01 1h64.56v34.77h-64.56z" fill="#e63f8e"/><path d="m119.2 18.34h64.56v34.77h-64.56z" fill="#f3b1d0"/><path d="m181.39 35.67h64.56v34.77h-64.56z" fill="#fff"/><path d="m243.59 53.01h64.56v34.77h-64.56z" fill="#fef7fb"/><path d="m78.77 43.16h64.56v34.77h-64.56z" fill="#fef7fb"/><path d="m140.96 60.49h64.56v34.77h-64.56z" fill="#fff"/><path d="m203.16 77.83h64.56v34.77h-64.56z" fill="#f3b1d0"/><path d="m265.35 95.16h64.56v34.77h-64.56z" fill="#e63f8e"/><path d="m60.1 110.13h64.56v34.77h-64.56z" fill="#e63f8e"/><path d="m122.29 127.47h64.56v34.77h-64.56z" fill="#f3b1d0"/><path d="m184.49 144.8h64.56v34.77h-64.56z" fill="#fff"/><path d="m246.68 162.14h64.56v34.77h-64.56z" fill="#fef7fb"/><path d="m38.34 67.98h64.56v34.77h-64.56z" fill="#fff"/><path d="m100.53 85.31h64.56v34.77h-64.56z" fill="#e63f8e"/><path d="m162.72 102.65h64.56v34.77h-64.56z" fill="#f3b1d0"/><path d="m224.92 119.98h64.56v34.77h-64.56z" fill="#fef7fb"/><path d="m19.67 134.96h64.56v34.77h-64.56z" fill="#f3b1d0"/><path d="m81.86 152.29h64.56v34.77h-64.56z" fill="#fff"/><path d="m144.06 169.63h64.56v34.77h-64.56z" fill="#e63f8e"/><path d="m206.25 186.96h64.56v34.77h-64.56z" fill="#fef7fb"/><path d="m41.43 177.11h64.56v34.77h-64.56z" fill="#fff"/><path d="m103.62 194.45h64.56v34.77h-64.56z" fill="#e63f8e"/><path d="m165.82 211.78h64.56v34.77h-64.56z" fill="#fef7fb"/><path d="m228.01 229.12h64.56v34.77h-64.56z" fill="#f3b1d0"/><path d="m22.76 244.09h64.56v34.77h-64.56z" fill="#e63f8e"/><path d="m84.96 261.43h64.56v34.77h-64.56z" fill="#fef7fb"/><path d="m147.15 278.76h64.56v34.77h-64.56z" fill="#fff"/><path d="m209.34 296.1h64.56v34.77h-64.56z" fill="#f3b1d0"/><path d="m1 201.93h64.56v34.77h-64.56z" fill="#fef7fb"/><path d="m63.19 219.27h64.56v34.77h-64.56z" fill="#f3b1d0"/><path d="m125.39 236.6h64.56v34.77h-64.56z" fill="#fff"/><path d="m187.58 253.94h64.56v34.77h-64.56z" fill="#e63f8e"/></g></svg>