<?xml version="1.0" encoding="utf-8"?>
<!-- Generator: Adobe Illustrator 27.6.1, SVG Export Plug-In . SVG Version: 6.00 Build 0)  -->
<svg version="1.1" id="Layer_1" xmlns="http://www.w3.org/2000/svg" xmlns:xlink="http://www.w3.org/1999/xlink" x="0px" y="0px"
	 viewBox="0 0 1201 401.2" style="enable-background:new 0 0 1201 401.2;" xml:space="preserve">
<style type="text/css">
	.st0{display:none;}
	.st1{display:inline;opacity:0.3;}
	.st2{fill:#EDFEFF;}
	.st3{fill:#2B5E71;}
	.st4{fill:#84ECFA;}
	.st5{fill:#2D6073;}
	.st6{fill:#0E7490;}
	.st7{fill:#A5F3FC;}
	.st8{fill:#6EACBC;}
	.st9{fill:#22D3EE;}
	.st10{fill:#C5DEE4;}
	.st11{fill:#76EAFA;}
	.st12{fill:#CFFAFE;}
	.st13{fill:#22576B;}
	.st14{fill:#D2FAFE;}
	.st15{fill:#7CEBFA;}
	.st16{fill:#06B6D4;}
	.st17{fill:#ECFEFF;}
	.st18{fill:#B2D3DB;}
	.st19{fill:#AEF4FC;}
	.st20{fill:#346577;}
	.st21{fill:#2B859D;}
	.st22{fill:#24596C;}
	.st23{fill:#D3FAFE;}
	.st24{fill:#5E7A85;}
	.st25{fill:#185065;}
	.st26{fill:#326376;}
	.st27{fill:#0DB8D5;}
	.st28{fill:#155E75;}
	.st29{fill:#4B6A76;}
	.st30{fill:#67E8F9;}
	.st31{fill:#D6FBFE;}
	.st32{fill:#1D5368;}
	.st33{fill:#6FE9F9;}
	.st34{fill:#B6F5FD;}
	.st35{fill:#164E63;}
	.st36{fill:#4A97AC;}
	.st37{fill:#083344;}
	.st38{fill:#295C6F;}
	.st39{fill:#26D4EE;}
	.st40{opacity:5.000000e-02;fill:#0891B2;enable-background:new    ;}
	
		.st41{clip-path:url(#SVGID_00000136392220051401273550000017956260161114456764_);fill:url(#SVGID_00000151503197539275237360000001152185630493070007_);}
</style>
<g class="st0">
	<g class="st1">
		<path class="st2" d="M201,244.4l99-11v-43.1l-99,11V244.4z"/>
		<path class="st3" d="M201,156.2l99-11v-43.1l-99,11V156.2z"/>
		<path class="st4" d="M201,200.3l99-11v-43.1l-99,11V200.3z"/>
		<path class="st5" d="M301,365.7l99-11v-43.1l-99,11V365.7z"/>
		<path class="st6" d="M201,288.6l99-11v-43.1l-99,11V288.6z"/>
		<path class="st7" d="M201,67.9l99-11V13.8l-99,11V67.9z"/>
		<path class="st8" d="M101,255.5l99-11v-43.1l-99,11V255.5z"/>
		<path class="st9" d="M201,376.8l99-11v-43.1l-99,11V376.8z"/>
		<path class="st5" d="M101,167.2l99-11v-43.1l-99,11V167.2z"/>
		<path class="st10" d="M101,211.4l99-11v-43.1l-99,11V211.4z"/>
		<path class="st7" d="M201,332.7l99-11v-43.1l-99,11V332.7z"/>
		<path class="st11" d="M101,123.1l99-11V69l-99,11V123.1z"/>
		<path class="st12" d="M101,79l99-11V24.9l-99,11V79z"/>
		<path class="st13" d="M301,321.6l99-11v-43.1l-99,11V321.6z"/>
		<path class="st7" d="M201,112l99-11V58l-99,11V112z"/>
		<path class="st14" d="M401,266.4l99-11v-43.1l-99,11V266.4z"/>
		<path class="st11" d="M401,354.7l99-11v-43.1l-99,11V354.7z"/>
		<path class="st15" d="M401,222.3l99-11v-43.1l-99,11V222.3z"/>
		<path class="st2" d="M301,277.5l99-11v-43.1l-99,11V277.5z"/>
		<path class="st11" d="M401,89.9l99-11V35.8l-99,11V89.9z"/>
		<path class="st16" d="M401,134l99-11V79.9l-99,11V134z"/>
		<path class="st17" d="M401,310.5l99-11v-43.1l-99,11V310.5z"/>
		<path class="st18" d="M301,145.1l99-11V91l-99,11V145.1z"/>
		<path class="st3" d="M301,189.2l99-11v-43.1l-99,11V189.2z"/>
		<path class="st9" d="M401,398.8l99-11v-43.1l-99,11V398.8z"/>
		<path class="st19" d="M301,233.4l99-11v-43.1l-99,11V233.4z"/>
		<path class="st16" d="M301,56.8l99-11v-43l-99,11V56.8z"/>
		<path class="st2" d="M301,101l99-11V46.9l-99,11V101z"/>
		<path class="st2" d="M700,12.6v-12h-99v22.9L700,12.6z"/>
		<path class="st15" d="M401,45.8l99-11V0.7h-81.4l-17.6,2V45.8z"/>
		<path class="st20" d="M600,23.7v-23h-99v34L600,23.7z"/>
		<path class="st2" d="M501,387.7l99-11v-43.1l-99,11V387.7z"/>
		<path class="st9" d="M409.6,0.7H401v0.9L409.6,0.7z"/>
		<path class="st7" d="M200,23.9V0.7h-99v34.2L200,23.9z"/>
		<path class="st21" d="M400,1.7v-1h-99v12L400,1.7z"/>
		<path class="st22" d="M300,12.8V0.7h-99v23.1L300,12.8z"/>
		<path class="st15" d="M800,1.6V0.7h-99v11.9L800,1.6z"/>
		<path class="st23" d="M1,45.9l99-11V0.7H3.4L1,0.9V45.9z"/>
		<path class="st24" d="M1000,23.5V0.7h-99v33.8L1000,23.5z"/>
		<path class="st2" d="M1200,1.4V0.7h-99v11.7L1200,1.4z"/>
		<path class="st25" d="M1100,12.5V0.7h-99v22.8L1100,12.5z"/>
		<path class="st26" d="M801,45.6l99-11V0.7h-83l-16,1.8V45.6z"/>
		<path class="st20" d="M808,0.7h-7v0.8L808,0.7z"/>
		<path class="st27" d="M1,178.3l99-11v-43.1l-99,11V178.3z"/>
		<path class="st19" d="M1,134.2l99-11V80.1l-99,11V134.2z"/>
		<path class="st4" d="M101,299.6l99-11v-43.1l-99,11V299.6z"/>
		<path class="st28" d="M1,90.1l99-11V36L1,47V90.1z"/>
		<path class="st29" d="M101,343.8l99-11v-43.1l-99,11V343.8z"/>
		<path class="st25" d="M1,222.5l99-11v-43.1l-99,11V222.5z"/>
		<path class="st11" d="M101,387.9l99-11v-43.1l-99,11V387.9z"/>
		<path class="st25" d="M1,266.6l99-11v-43.1l-99,11V266.6z"/>
		<path class="st30" d="M1200,355.4l-99,11v34.3h-1v-34.2l-99,11v23.2h-1v-23.1l-99,11v12.1h-1v-12l-99,11v1.1h-1v-1l-8.6,1h404.4
			l4.1-0.5L1200,355.4L1200,355.4z"/>
		<path class="st23" d="M1,399l99-11v-43.1l-99,11V399z"/>
		<path class="st17" d="M400,355.8l-99,11v33.9h-1v-33.8l-99,11v22.9h-1v-22.7l-99,11v11.8h-1V389L1,400v0.7H0.5H384l16-1.8V355.8z"
			/>
		<path class="st31" d="M800,355.6l-99,11v34.1h-1v-34l-99,11v23h-1v-22.9l-99,11v12h-1V389l-99,11v0.9h-1v-0.8l-7,0.8h389.3l17.7-2
			V355.6z"/>
		<path class="st7" d="M1,310.7l99-11v-43.1l-99,11V310.7z"/>
		<path class="st32" d="M1,354.8l99-11v-43.1l-99,11V354.8z"/>
		<path class="st3" d="M401,178.1l99-11V124l-99,11V178.1z"/>
		<path class="st25" d="M901,122.8l99-11V68.7l-99,11V122.8z"/>
		<path class="st7" d="M901,78.6l99-11V24.5l-99,11V78.6z"/>
		<path class="st17" d="M901,166.9l99-11v-43.1l-99,11V166.9z"/>
		<path class="st33" d="M901,211l99-11v-43.1l-99,11V211z"/>
		<path class="st12" d="M1001,332.3l99-11v-43.1l-99,11V332.3z"/>
		<path class="st31" d="M801,178l99-11v-43.1l-99,11V178z"/>
		<path class="st6" d="M901,299.3l99-11v-43.1l-99,11V299.3z"/>
		<path class="st2" d="M901,387.5l99-11v-43.1l-99,11V387.5z"/>
		<path class="st32" d="M801,89.7l99-11V35.6l-99,11V89.7z"/>
		<path class="st18" d="M801,133.8l99-11v-43l-99,11V133.8z"/>
		<path class="st2" d="M901,255.1l99-11V201l-99,11V255.1z"/>
		<path class="st14" d="M1001,288.2l99-11v-43.1l-99,11V288.2z"/>
		<path class="st27" d="M901,343.4l99-11v-43.1l-99,11V343.4z"/>
		<path class="st24" d="M1001,376.5l99-11v-43.1l-99,11V376.5z"/>
		<path class="st2" d="M1101,188.9l99-11v-43.1l-99,11V188.9z"/>
		<path class="st2" d="M1001,244.1l99-11V190l-99,11V244.1z"/>
		<path class="st16" d="M1101,233l99-11v-43.1l-99,11V233z"/>
		<path class="st16" d="M1101,56.5l99-11V2.4l-99,11V56.5z"/>
		<path class="st15" d="M1101,277.1l99-11V223l-99,11V277.1z"/>
		<path class="st2" d="M1101,100.6l99-11V46.5l-99,11V100.6z"/>
		<path class="st24" d="M1101,144.7l99-11v-43l-99,11V144.7z"/>
		<path class="st11" d="M1001,111.7l99-11V57.6l-99,11V111.7z"/>
		<path class="st2" d="M1001,155.8l99-11v-43.1l-99,11V155.8z"/>
		<path class="st18" d="M1001,199.9l99-11v-43.1l-99,11V199.9z"/>
		<path class="st23" d="M1101,365.4l99-11v-43.1l-99,11V365.4z"/>
		<path class="st25" d="M1001,67.6l99-11V13.5l-99,11V67.6z"/>
		<path class="st2" d="M1101,321.3l99-11v-43.1l-99,11V321.3z"/>
		<path class="st34" d="M501,167.1l99-11V113l-99,11V167.1z"/>
		<path class="st31" d="M601,288.4l99-11v-43.1l-99,11V288.4z"/>
		<path class="st3" d="M601,244.2l99-11v-43.1l-99,11V244.2z"/>
		<path class="st2" d="M601,332.5l99-11v-43.1l-99,11V332.5z"/>
		<path class="st35" d="M601,156l99-11v-43.1l-99,11V156z"/>
		<path class="st11" d="M601,200.1l99-11V146l-99,11V200.1z"/>
		<path class="st2" d="M601,376.6l99-11v-43.1l-99,11V376.6z"/>
		<path class="st17" d="M501,255.3l99-11v-43.1l-99,11V255.3z"/>
		<path class="st7" d="M601,111.9l99-11V57.8l-99,11V111.9z"/>
		<path class="st11" d="M801,222.1l99-11V168l-99,11V222.1z"/>
		<path class="st36" d="M501,78.8l99-11V24.7l-99,11V78.8z"/>
		<path class="st15" d="M501,211.2l99-11v-43.1l-99,11V211.2z"/>
		<path class="st30" d="M501,122.9l99-11v-43l-99,11V122.9z"/>
		<path class="st37" d="M501,343.6l99-11v-43.1l-99,11V343.6z"/>
		<path class="st38" d="M501,299.5l99-11v-43.1l-99,11V299.5z"/>
		<path class="st4" d="M801,398.6l99-11v-43.1l-99,11V398.6z"/>
		<path class="st2" d="M701,56.7l99-11V2.6l-99,11V56.7z"/>
		<path class="st33" d="M701,144.9l99-11V90.8l-99,11V144.9z"/>
		<path class="st17" d="M701,100.8l99-11V46.7l-99,11V100.8z"/>
		<path class="st33" d="M801,354.5l99-11v-43.1l-99,11V354.5z"/>
		<path class="st39" d="M801,266.2l99-11v-43.1l-99,11V266.2z"/>
		<path class="st33" d="M801,310.4l99-11v-43.1l-99,11V310.4z"/>
		<path class="st7" d="M601,67.7l99-11V13.6l-99,11V67.7z"/>
		<path class="st22" d="M701,321.4l99-11v-43.1l-99,11V321.4z"/>
		<path class="st5" d="M701,189.1l99-11V135l-99,11V189.1z"/>
		<path class="st4" d="M701,365.6l99-11v-43.1l-99,11V365.6z"/>
		<path class="st13" d="M701,233.2l99-11v-43.1l-99,11V233.2z"/>
		<path class="st17" d="M701,277.3l99-11v-43.1l-99,11V277.3z"/>
		<path class="st40" d="M1200.6,401.2l-0.1-0.5h0.5V0.7h-1v0.7l-99,11V0.7h-1v11.8l-99,11V0.7h-1v22.9l-99,11V0.7h-1v33.9l-99,11
			V2.5l16-1.8 M791.5,400.7l8.6-1v1h1v-1.1l99-11v12h1v-12.1l99-11v23.1h1v-23.2l99-11v34.2h1v-34.3l99-11v44.8l-4.1,0.5
			 M393.1,400.7l7-0.8v0.8h1v-0.9l99-11v11.9h1v-12l99-11v22.9h1v-23l99-11v34h1v-34.1l99-11v43.1l-17.7,2 M0.4,0l0.1,0.7H0v400h1
			V400l99-11v11.7h1v-11.8l99-11v22.8h1v-22.9l99-11v33.8h1v-33.9l99-11v43.1l-16,1.8 M409.6,0.7l-8.6,1v-1h-1v1.1l-99,11v-12h-1
			v12.1l-99,11V0.7h-1v23.2l-99,11V0.7h-1V35L1,46V1l2.4-0.3 M808,0.7l-7,0.8V0.7h-1v0.9l-99,11V0.7h-1v12l-99,11v-23h-1v23l-99,11
			v-34h-1v34.1l-99,11V2.6l17.6-2 M100,388L1,399v-43.1l99-11V388L100,388z M100,343.9l-99,11v-43.1l99-11V343.9L100,343.9z
			 M100,299.8l-99,11v-43.1l99-11V299.8L100,299.8z M100,255.6l-99,11v-43.1l99-11V255.6L100,255.6z M100,211.5l-99,11v-43.1l99-11
			V211.5z M100,167.4l-99,11v-43.1l99-11V167.4z M100,123.2l-99,11V91.1l99-11V123.2z M100,79.1l-99,11V47l99-11V79.1z M200,376.9
			l-99,11v-43.1l99-11V376.9z M200,332.8l-99,11v-43.1l99-11V332.8z M200,288.7l-99,11v-43.1l99-11V288.7z M200,244.5l-99,11v-43.1
			l99-11V244.5z M200,200.4l-99,11v-43.1l99-11V200.4z M200,156.3l-99,11v-43.1l99-11V156.3z M200,112.1l-99,11V80l99-11V112.1z
			 M200,68l-99,11V35.9l99-11V68z M300,365.8l-99,11v-43.1l99-11V365.8z M300,321.7l-99,11v-43.1l99-11V321.7z M300,277.6l-99,11
			v-43.1l99-11V277.6z M300,233.5l-99,11v-43.1l99-11V233.5z M300,189.3l-99,11v-43.1l99-11V189.3z M300,145.2l-99,11V113l99-11
			V145.2z M300,101.1l-99,11V68.9l99-11V101.1z M300,56.9l-99,11V24.8l99-11C300,13.8,300,56.9,300,56.9z M400,354.8l-99,11v-43.1
			l99-11V354.8z M400,310.6l-99,11v-43.1l99-11V310.6z M400,266.5l-99,11v-43.1l99-11V266.5z M400,222.4l-99,11v-43.1l99-11V222.4z
			 M400,178.2l-99,11v-43.1l99-11V178.2z M400,134.1l-99,11V102l99-11V134.1z M400,90l-99,11V57.8l99-11V90z M400,45.9l-99,11V13.7
			l99-11V45.9z M500,387.8l-99,11v-43.1l99-11V387.8z M500,343.7l-99,11v-43.1l99-11V343.7z M500,299.6l-99,11v-43.1l99-11V299.6z
			 M500,255.4l-99,11v-43.1l99-11V255.4z M500,211.3l-99,11v-43.1l99-11V211.3z M500,167.2l-99,11V135l99-11V167.2z M500,123l-99,11
			V90.9l99-11V123z M500,78.9l-99,11V46.8l99-11V78.9z M600,376.7l-99,11v-43.1l99-11V376.7z M600,332.6l-99,11v-43.1l99-11V332.6z
			 M600,288.5l-99,11v-43.1l99-11V288.5z M600,244.3l-99,11v-43.1l99-11V244.3z M600,200.2l-99,11v-43.1l99-11V200.2z M600,156.1
			l-99,11V124l99-11V156.1z M600,112l-99,11V79.8l99-11V112z M600,67.8l-99,11V35.7l99-11V67.8z M700,365.7l-99,11v-43.1l99-11
			V365.7z M700,321.5l-99,11v-43.1l99-11V321.5z M700,277.4l-99,11v-43.1l99-11V277.4z M700,233.3l-99,11v-43.1l99-11V233.3z
			 M700,189.1l-99,11V157l99-11V189.1z M700,145l-99,11v-43.1l99-11V145z M700,100.9l-99,11V68.7l99-11V100.9z M700,56.7l-99,11
			V24.6l99-11V56.7L700,56.7z M800,354.6l-99,11v-43.1l99-11V354.6z M800,310.4l-99,11v-43.1l99-11V310.4z M800,266.3l-99,11v-43.1
			l99-11V266.3z M800,222.2l-99,11V190l99-11V222.2z M800,178.1l-99,11V146l99-11V178.1z M800,133.9l-99,11v-43.1l99-11V133.9z
			 M800,89.8l-99,11V57.6l99-11V89.8z M800,45.7l-99,11V13.5l99-11V45.7L800,45.7z M900,387.6l-99,11v-43.1l99-11V387.6z M900,343.5
			l-99,11v-43.1l99-11V343.5z M900,299.4l-99,11v-43.1l99-11V299.4z M900,255.2l-99,11v-43.1l99-11V255.2z M900,211.1l-99,11V179
			l99-11V211.1z M900,167l-99,11v-43.1l99-11V167z M900,122.8l-99,11V90.7l99-11V122.8z M900,78.7l-99,11V46.6l99-11V78.7z
			 M1000,376.5l-99,11v-43.1l99-11V376.5z M1000,332.4l-99,11v-43.1l99-11V332.4z M1000,288.3l-99,11v-43.1l99-11V288.3z
			 M1000,244.2l-99,11V212l99-11V244.2z M1000,200l-99,11v-43.1l99-11V200z M1000,155.9l-99,11v-43.1l99-11V155.9z M1000,111.8
			l-99,11V79.6l99-11V111.8z M1000,67.6l-99,11V35.5l99-11V67.6z M1100,365.5l-99,11v-43.1l99-11V365.5z M1100,321.3l-99,11v-43.1
			l99-11V321.3z M1100,277.2l-99,11v-43.1l99-11V277.2z M1100,233.1l-99,11V201l99-11V233.1z M1100,188.9l-99,11v-43.1l99-11V188.9z
			 M1100,144.8l-99,11v-43.1l99-11V144.8z M1100,100.7l-99,11V68.5l99-11V100.7z M1100,56.6l-99,11V24.4l99-11V56.6L1100,56.6z
			 M1101,13.3l99-11v43.1l-99,11V13.3L1101,13.3z M1101,57.5l99-11v43.1l-99,11V57.5z M1101,101.6l99-11v43.1l-99,11V101.6z
			 M1101,145.7l99-11v43.1l-99,11V145.7z M1101,189.8l99-11V222l-99,11V189.8z M1101,234l99-11v43.1l-99,11V234z M1101,278.1l99-11
			v43.1l-99,11V278.1z M1101,365.4v-43.1l99-11v43.1L1101,365.4z"/>
	</g>
</g>
<g>
	<g>
		<g>
			<defs>
				<rect id="SVGID_1_" x="0.5" y="1.2" width="1200.1" height="399.5"/>
			</defs>
			<clipPath id="SVGID_00000015350807585995335670000004601112674546104232_">
				<use xlink:href="#SVGID_1_"  style="overflow:visible;"/>
			</clipPath>
			
				<radialGradient id="SVGID_00000155130200177949730250000002892541315485393845_" cx="601.5991" cy="404.7515" r="741.9791" gradientTransform="matrix(1 0 0 0.4796 0 -193.871)" gradientUnits="userSpaceOnUse">
				<stop  offset="0" style="stop-color:#F7FEE7"/>
				<stop  offset="0.8267" style="stop-color:#F7FEE7;stop-opacity:0"/>
			</radialGradient>
			
				<ellipse style="clip-path:url(#SVGID_00000015350807585995335670000004601112674546104232_);fill:url(#SVGID_00000155130200177949730250000002892541315485393845_);" cx="600.1" cy="100.3" rx="727.6" ry="254.1"/>
		</g>
	</g>
</g>
</svg>
