<svg viewBox="0 0 1201 401.17" xmlns="http://www.w3.org/2000/svg" xmlns:xlink="http://www.w3.org/1999/xlink"><linearGradient id="a" gradientUnits="userSpaceOnUse" x1="602.01" x2="602.01" y1="34.62" y2="366.89"><stop offset="0" stop-color="#fff"/><stop offset="1" stop-color="#231f20" stop-opacity="0"/></linearGradient><mask id="b" height="401.17" maskUnits="userSpaceOnUse" width="1202.01" x="0" y="0"><path d="m2.01.3h1200v400h-1200z" fill="url(#a)"/></mask><g fill="none" mask="url(#b)"><g fill="none" opacity=".3"><path d="m201 244.43 99-10.96v-43.13l-99 10.97z" fill="#edfeff"/><path d="m201 156.17 99-10.96v-43.13l-99 10.97z" fill="#2b5e71"/><path d="m201 200.3 99-10.96v-43.13l-99 10.97z" fill="#84ecfa"/><path d="m301 365.74 99-10.96v-43.13l-99 10.97z" fill="#2d6073"/><path d="m201 288.56 99-10.97v-43.12l-99 10.97z" fill="#0e7490"/><path d="m201 67.91 99-10.96v-43.13l-99 10.97z" fill="#a5f3fc"/><path d="m101 255.51 99-10.97v-43.12l-99 10.97z" fill="#6eacbc"/><path d="m201 376.82 99-10.97v-43.12l-99 10.97z" fill="#22d3ee"/><path d="m101 167.25 99-10.97v-43.12l-99 10.97z" fill="#2d6073"/><path d="m101 211.38 99-10.97v-43.12l-99 10.97z" fill="#c5dee4"/><path d="m201 332.69 99-10.97v-43.12l-99 10.97z" fill="#a5f3fc"/><path d="m101 123.12 99-10.97v-43.12l-99 10.97z" fill="#76eafa"/><path d="m101 78.99 99-10.97v-43.12l-99 10.97z" fill="#cffafe"/><path d="m301 321.61 99-10.96v-43.13l-99 10.97z" fill="#22576b"/><path d="m201 112.04 99-10.96v-43.13l-99 10.97z" fill="#a5f3fc"/><path d="m401 266.41 99-10.97v-43.12l-99 10.96z" fill="#d2fafe"/><path d="m401 354.67 99-10.97v-43.12l-99 10.96z" fill="#76eafa"/><path d="m401 222.28 99-10.97v-43.12l-99 10.96z" fill="#7cebfa"/><path d="m301 277.48 99-10.96v-43.13l-99 10.97z" fill="#edfeff"/><path d="m401 89.89 99-10.97v-43.12l-99 10.97z" fill="#76eafa"/><path d="m401 134.02 99-10.97v-43.12l-99 10.97z" fill="#06b6d4"/><path d="m401 310.54 99-10.97v-43.12l-99 10.96z" fill="#ecfeff"/><path d="m301 145.1 99-10.97v-43.12l-99 10.96z" fill="#b2d3db"/><path d="m301 189.23 99-10.97v-43.12l-99 10.96z" fill="#2b5e71"/><path d="m401 398.79 99-10.96v-43.12l-99 10.96z" fill="#22d3ee"/><path d="m301 233.35 99-10.96v-43.12l-99 10.96z" fill="#aef4fc"/><path d="m301 56.84 99-10.97v-43.12l-99 10.96z" fill="#06b6d4"/><path d="m301 100.97 99-10.97v-43.12l-99 10.96z" fill="#edfeff"/><path d="m700 12.64v-11.96h-99v22.93z" fill="#edfeff"/><path d="m401 45.76 99-10.97v-34.11h-81.36l-17.64 1.96z" fill="#7cebfa"/><path d="m600 23.72v-23.04h-99v34z" fill="#346577"/><path d="m501 387.72 99-10.97v-43.12l-99 10.97z" fill="#edfeff"/><path d="m409.56.68h-8.56v.95z" fill="#22d3ee"/><path d="m200 23.9v-23.22h-99v34.18z" fill="#a5f3fc"/><path d="m400 1.74v-1.06h-99v12.03z" fill="#2b859d"/><path d="m300 12.82v-12.14h-99v23.1z" fill="#24596c"/><path d="m800 1.56v-.88h-99v11.85z" fill="#7cebfa"/><path d="m1 45.94 99-10.97v-34.29h-96.63l-2.37.26z" fill="#d3fafe"/><path d="m1000 23.54v-22.86h-99v33.82z" fill="#5e7a85"/><path d="m1200 1.38v-.7h-99v11.67z" fill="#edfeff"/><path d="m1100 12.46v-11.78h-99v22.75z" fill="#185065"/><path d="m801 45.58 99-10.96v-33.94h-82.96l-16.04 1.78z" fill="#326376"/><path d="m807.95.68h-6.95v.77z" fill="#346577"/><path d="m1 178.33 99-10.97v-43.12l-99 10.96z" fill="#0db8d5"/><path d="m1 134.2 99-10.97v-43.12l-99 10.96z" fill="#aef4fc"/><path d="m101 299.64 99-10.97v-43.12l-99 10.96z" fill="#84ecfa"/><path d="m1 90.07 99-10.97v-43.12l-99 10.96z" fill="#155e75"/><path d="m101 343.77 99-10.97v-43.12l-99 10.96z" fill="#4b6a76"/><path d="m1 222.46 99-10.97v-43.12l-99 10.96z" fill="#185065"/><path d="m101 387.9 99-10.97v-43.12l-99 10.96z" fill="#76eafa"/><path d="m1 266.58 99-10.96v-43.12l-99 10.96z" fill="#185065"/><path d="m1200 355.43-99 10.96v34.29h-1v-34.18l-99 10.97v23.21h-1v-23.1l-99 10.97v12.13h-1v-12.02l-99 10.96v1.06h-1v-.95l-8.56.95h404.42l4.14-.46z" fill="#67e8f9"/><path d="m1 398.97 99-10.96v-43.13l-99 10.97z" fill="#d3fafe"/><path d="m400 355.78-99 10.97v33.93h-1v-33.82l-99 10.97v22.85h-1v-22.74l-99 10.96v11.78h-1v-11.67l-99 10.97v.7h-.5 383.46l16.04-1.77z" fill="#ecfeff"/><path d="m800 355.6-99 10.97v34.11h-1v-34l-99 10.97v23.03h-1v-22.92l-99 10.96v11.96h-1v-11.84l-99 10.96v.88h-1v-.77l-6.95.77h389.3l17.65-1.95z" fill="#d6fbfe"/><path d="m1 310.71 99-10.96v-43.12l-99 10.96z" fill="#a5f3fc"/><path d="m1 354.84 99-10.96v-43.13l-99 10.97z" fill="#1d5368"/><path d="m401 178.15 99-10.97v-43.12l-99 10.96z" fill="#2b5e71"/><path d="m901 122.76 99-10.96v-43.13l-99 10.97z" fill="#185065"/><path d="m901 78.63 99-10.96v-43.13l-99 10.97z" fill="#a5f3fc"/><path d="m901 166.89 99-10.96v-43.13l-99 10.97z" fill="#ecfeff"/><path d="m901 211.02 99-10.96v-43.13l-99 10.97z" fill="#6fe9f9"/><path d="m1001 332.33 99-10.96v-43.13l-99 10.97z" fill="#cffafe"/><path d="m801 177.97 99-10.97v-43.12l-99 10.97z" fill="#d6fbfe"/><path d="m901 299.28 99-10.97v-43.12l-99 10.97z" fill="#0e7490"/><path d="m901 387.54 99-10.97v-43.12l-99 10.97z" fill="#edfeff"/><path d="m801 89.71 99-10.96v-43.13l-99 10.97z" fill="#1d5368"/><path d="m801 133.84 99-10.97v-43.12l-99 10.97z" fill="#b2d3db"/><path d="m901 255.15 99-10.96v-43.13l-99 10.97z" fill="#edfeff"/><path d="m1001 288.2 99-10.96v-43.13l-99 10.97z" fill="#d2fafe"/><path d="m901 343.41 99-10.97v-43.12l-99 10.97z" fill="#0db8d5"/><path d="m1001 376.46 99-10.96v-43.13l-99 10.97z" fill="#5e7a85"/><path d="m1101 188.87 99-10.97v-43.12l-99 10.97z" fill="#edfeff"/><path d="m1001 244.07 99-10.96v-43.12l-99 10.96z" fill="#edfeff"/><path d="m1101 233 99-10.97v-43.12l-99 10.97z" fill="#06b6d4"/><path d="m1101 56.48 99-10.97v-43.12l-99 10.97z" fill="#06b6d4"/><path d="m1101 277.13 99-10.97v-43.12l-99 10.96z" fill="#7cebfa"/><path d="m1101 100.61 99-10.97v-43.12l-99 10.97z" fill="#edfeff"/><path d="m1101 144.74 99-10.97v-43.12l-99 10.97z" fill="#5e7a85"/><path d="m1001 111.69 99-10.97v-43.12l-99 10.96z" fill="#76eafa"/><path d="m1001 155.82 99-10.97v-43.12l-99 10.96z" fill="#edfeff"/><path d="m1001 199.95 99-10.97v-43.12l-99 10.96z" fill="#b2d3db"/><path d="m1101 365.39 99-10.97v-43.12l-99 10.96z" fill="#d3fafe"/><path d="m1001 67.56 99-10.97v-43.12l-99 10.96z" fill="#185065"/><path d="m1101 321.26 99-10.97v-43.12l-99 10.96z" fill="#edfeff"/><path d="m501 167.07 99-10.97v-43.12l-99 10.97z" fill="#b6f5fd"/><path d="m601 288.38 99-10.96v-43.13l-99 10.97z" fill="#d6fbfe"/><path d="m601 244.25 99-10.96v-43.13l-99 10.97z" fill="#2b5e71"/><path d="m601 332.51 99-10.96v-43.13l-99 10.97z" fill="#edfeff"/><path d="m601 155.99 99-10.96v-43.12l-99 10.96z" fill="#164e63"/><path d="m601 200.12 99-10.96v-43.13l-99 10.97z" fill="#76eafa"/><path d="m601 376.64 99-10.97v-43.12l-99 10.97z" fill="#edfeff"/><path d="m501 255.33 99-10.97v-43.12l-99 10.97z" fill="#ecfeff"/><path d="m601 111.86 99-10.96v-43.12l-99 10.96z" fill="#a5f3fc"/><path d="m801 222.1 99-10.97v-43.12l-99 10.97z" fill="#76eafa"/><path d="m501 78.81 99-10.96v-43.13l-99 10.97z" fill="#4a97ac"/><path d="m501 211.2 99-10.97v-43.12l-99 10.97z" fill="#7cebfa"/><path d="m501 122.94 99-10.96v-43.13l-99 10.97z" fill="#67e8f9"/><path d="m501 343.59 99-10.97v-43.12l-99 10.97z" fill="#083344"/><path d="m501 299.46 99-10.97v-43.12l-99 10.97z" fill="#295c6f"/><path d="m801 398.62 99-10.97v-43.12l-99 10.96z" fill="#84ecfa"/><path d="m701 56.66 99-10.97v-43.12l-99 10.97z" fill="#edfeff"/><path d="m701 144.92 99-10.97v-43.12l-99 10.96z" fill="#6fe9f9"/><path d="m701 100.79 99-10.97v-43.12l-99 10.97z" fill="#ecfeff"/><path d="m801 354.49 99-10.97v-43.12l-99 10.96z" fill="#6fe9f9"/><path d="m801 266.23 99-10.97v-43.12l-99 10.97z" fill="#26d4ee"/><path d="m801 310.36 99-10.97v-43.12l-99 10.96z" fill="#6fe9f9"/><path d="m601 67.74 99-10.97v-43.12l-99 10.96z" fill="#a5f3fc"/><path d="m701 321.44 99-10.97v-43.12l-99 10.96z" fill="#24596c"/><path d="m701 189.05 99-10.97v-43.12l-99 10.96z" fill="#2d6073"/><path d="m701 365.56 99-10.96v-43.12l-99 10.96z" fill="#84ecfa"/><path d="m701 233.18 99-10.97v-43.12l-99 10.96z" fill="#22576b"/><path d="m701 277.31 99-10.97v-43.12l-99 10.96z" fill="#ecfeff"/><path d="m1200.56 401.17-.05-.49h.5v-400h-1v.7l-99 10.97v-11.67h-1v11.78l-99 10.97v-22.75h-1v22.86l-99 10.97v-33.83h-1v33.93l-99 10.97v-43.12l16.04-1.78m-25.6 400 8.56-.95v.95h1v-1.06l99-10.97v12.03h1v-12.14l99-10.97v23.1h1v-23.21l99-10.97v34.18h1v-34.29l99-10.97v44.8l-4.14.46m-802.81 0 6.95-.77v.77h1v-.88l99-10.97v11.85h1v-11.96l99-10.97v22.92h1v-23.03l99-10.97v34h1v-34.11l99-10.97v43.12l-17.65 1.95m-781.92-400.65.08.68h-.52v400h1v-.7l99-10.97v11.67h1v-11.78l99-10.97v22.75h1v-22.86l99-10.97v33.82h1v-33.93l99-10.97v43.12l-16.04 1.78m25.6-399.99-8.56.95v-.95h-1v1.06l-99 10.97v-12.03h-1v12.14l-99 10.97v-23.11h-1v23.21l-99 10.97v-34.18h-1v34.29l-99 10.97v-45l2.37-.26m804.58 0-6.95.77v-.77h-1v.88l-99 10.97v-11.85h-1v11.96l-99 10.97v-22.93h-1v23.03l-99 10.97v-34h-1v34.11l-99 10.97v-43.12l17.64-1.95m-318.64 387.32-99 10.96v-43.12l99-10.97v43.12zm0-44.13-99 10.96v-43.12l99-10.97v43.12zm0-44.13-99 10.96v-43.12l99-10.97v43.12zm0-44.13-99 10.96v-43.12l99-10.97v43.12zm0-44.13-99 10.97v-43.12l99-10.97zm0-44.13-99 10.97v-43.12l99-10.97zm0-44.13-99 10.97v-43.12l99-10.97zm0-44.13-99 10.97v-43.12l99-10.97zm100 297.83-99 10.97v-43.12l99-10.97zm0-44.13-99 10.97v-43.12l99-10.97zm0-44.13-99 10.97v-43.12l99-10.97zm0-44.13-99 10.97v-43.12l99-10.97zm0-44.13-99 10.97v-43.12l99-10.97zm0-44.13-99 10.97v-43.12l99-10.97zm0-44.13-99 10.97v-43.12l99-10.97zm0-44.13-99 10.97v-43.12l99-10.97zm100 297.83-99 10.97v-43.12l99-10.97zm0-44.13-99 10.97v-43.12l99-10.97zm0-44.13-99 10.97v-43.12l99-10.97zm0-44.13-99 10.97v-43.12l99-10.97zm0-44.13-99 10.97v-43.12l99-10.97zm0-44.13-99 10.97v-43.12l99-10.97zm0-44.13-99 10.97v-43.12l99-10.97zm0-44.13-99 10.97v-43.12l99-10.97v43.12zm100 297.83-99 10.97v-43.12l99-10.97zm0-44.13-99 10.97v-43.12l99-10.97zm0-44.13-99 10.97v-43.12l99-10.97zm0-44.13-99 10.97v-43.12l99-10.97zm0-44.13-99 10.97v-43.12l99-10.97zm0-44.13-99 10.97v-43.12l99-10.97zm0-44.13-99 10.97v-43.12l99-10.97zm0-44.13-99 10.97v-43.12l99-10.97v43.12zm100 341.96-99 10.97v-43.12l99-10.97zm0-44.13-99 10.97v-43.12l99-10.97zm0-44.13-99 10.97v-43.12l99-10.97zm0-44.13-99 10.97v-43.12l99-10.97zm0-44.13-99 10.97v-43.12l99-10.97zm0-44.13-99 10.97v-43.12l99-10.97zm0-44.13-99 10.97v-43.12l99-10.97zm0-44.13-99 10.97v-43.12l99-10.97zm100 297.83-99 10.97v-43.12l99-10.97zm0-44.13-99 10.97v-43.12l99-10.97zm0-44.13-99 10.97v-43.12l99-10.97zm0-44.13-99 10.97v-43.12l99-10.97zm0-44.13-99 10.97v-43.12l99-10.97zm0-44.13-99 10.97v-43.12l99-10.97zm0-44.13-99 10.97v-43.12l99-10.97zm0-44.13-99 10.97v-43.12l99-10.97zm100 297.83-99 10.97v-43.12l99-10.97zm0-44.13-99 10.97v-43.12l99-10.97zm0-44.13-99 10.97v-43.12l99-10.97zm0-44.13-99 10.97v-43.12l99-10.97zm0-44.13-99 10.97v-43.12l99-10.97zm0-44.13-99 10.97v-43.12l99-10.97zm0-44.13-99 10.97v-43.12l99-10.97zm0-44.13-99 10.97v-43.11l99-10.97v43.12zm100 297.83-99 10.97v-43.12l99-10.97zm0-44.13-99 10.97v-43.12l99-10.97zm0-44.13-99 10.97v-43.12l99-10.97zm0-44.13-99 10.97v-43.12l99-10.97zm0-44.13-99 10.97v-43.12l99-10.97zm0-44.13-99 10.97v-43.12l99-10.97zm0-44.13-99 10.97v-43.12l99-10.97zm0-44.13-99 10.97v-43.1l99-10.97v43.12zm100 341.96-99 10.97v-43.12l99-10.97zm0-44.13-99 10.97v-43.12l99-10.97zm0-44.13-99 10.97v-43.12l99-10.97zm0-44.13-99 10.97v-43.12l99-10.97zm0-44.13-99 10.97v-43.12l99-10.97zm0-44.13-99 10.97v-43.12l99-10.97zm0-44.13-99 10.97v-43.12l99-10.97zm0-44.13-99 10.97v-43.12l99-10.97zm100 297.83-99 10.97v-43.12l99-10.97zm0-44.13-99 10.97v-43.12l99-10.97zm0-44.13-99 10.97v-43.12l99-10.97zm0-44.13-99 10.97v-43.12l99-10.97zm0-44.13-99 10.97v-43.12l99-10.97zm0-44.13-99 10.97v-43.12l99-10.97zm0-44.13-99 10.97v-43.12l99-10.97zm0-44.13-99 10.97v-43.12l99-10.97zm100 297.83-99 10.97v-43.12l99-10.97zm0-44.13-99 10.97v-43.12l99-10.97zm0-44.13-99 10.97v-43.12l99-10.97zm0-44.13-99 10.97v-43.12l99-10.97zm0-44.13-99 10.97v-43.12l99-10.97zm0-44.13-99 10.97v-43.12l99-10.97zm0-44.13-99 10.97v-43.12l99-10.97zm0-44.13-99 10.97v-43.1l99-10.97v43.12zm1-43.23 99-10.97v43.12l-99 10.97v-43.09zm0 44.13 99-10.97v43.12l-99 10.97zm0 44.13 99-10.97v43.12l-99 10.97zm0 44.13 99-10.97v43.12l-99 10.97zm0 44.13 99-10.97v43.12l-99 10.97zm0 44.13 99-10.97v43.12l-99 10.97zm0 44.13 99-10.97v43.12l-99 10.97zm0 87.25v-43.12l99-10.97v43.12z" fill="#0891b2" opacity=".05"/></g></g></svg>