<?xml version="1.0" encoding="UTF-8"?>
<svg id="Layer_2" data-name="Layer 2" xmlns="http://www.w3.org/2000/svg" viewBox="0 0 362.71 338.45">
  <defs>
    <style>
      .cls-1 {
        fill: #8fbf25;
      }
    </style>
  </defs>
  <g id="Layer_2-2" data-name="Layer 2">
    <g id="splat-3">
      <path class="cls-1" d="M356.03,154.2c6.99-6.66,8.65-18.36,4.24-26.85-5.79-11.13-18.49-13.17-29.97-11.63-8.53,1.15-15.67,4.92-23.1,9.04-5.62,3.12-13.79,9.57-20.6,8.57-7.76-1.13-10.8-11.12-13.7-17.18-6.23-13.04-18.43-21.62-30.65-28.63-7.39-4.24-18.27-5.56-17.34-16.48,.94-11.03,10.75-22.32,14.76-32.54,4.33-11.02,3.19-26.17-7.48-33.44-14.23-9.7-36.31-5.38-40.49,12.01-4.35,18.09,10.76,36.4,3.85,53.56-8.11,20.12-39.61,13.01-43.53-6.2-1.97-9.67,.96-21.91-10.28-26.8-9.73-4.24-19.2,5.2-19,14.61,.21,10.18,10.86,17.43,11.68,27.75,.89,11.28-6.44,23.6-18.06,25.88-.07,.01-.14,.03-.21,.04-19.83,3.66-23.06-17.06-31.76-29.14-10.47-14.55-34.77-15.4-43.37,2.17-9.33,19.06,12.35,34.28,28.19,39.57,10.25,3.41,19.37,13.4,17.26,24.88-.87,4.75-4.4,8.7-6.41,13.01-3.32,7.11-5.15,14.84-5.38,22.68-.35,11.62,5.67,25.61-4.29,34.87-16.84,15.65-57.06,9.75-59.91,39.43-1.01,10.56,5.6,21.92,16.1,24.22,12.49,2.73,25.05-5.72,33.55-14.03,5.91-5.78,10.54-14.14,18.38-17.59,14.9-6.53,31.29,8.79,34.76,22.69,2.89,11.59-5.22,16.23-19.13,26.66-13.91,10.43-9.86,24.93,0,31.89,9.86,6.96,28.99,2.32,30.15-13.34,.54-7.24,2.7-19.88,10.6-23.21,3.5-1.48,8.24-.06,11.92-.07,5.96-.03,11.73-1.1,17.48-2.6,8.89-2.32,17.29-4.62,21.9,5.17,2.86,6.08,1.98,14.2,8.37,18.29,5.88,3.76,14.41,.39,15.62-6.69,.92-5.32-1.51-11.36-2.77-16.41-2.6-10.42-4.67-22.89,10.29-21.11,16.45,1.97,17.32,15.2,20.2,28.51,3.51,16.17,20.65,26.67,35.95,15.09,18.81-14.24-5.9-32.85-11.96-45.68-8.49-17.99,9.6-30.6,26.22-29.14,14.29,1.25,20.4,20.02,35.33,18.81,17.53-1.41,28-27.25,13.22-38.38-11.99-9.03-30.48-1.19-43.02-10.25-10.94-7.9-8.73-25.93,.78-34.43,17.26-15.45,45.43-2.17,61.6-17.6h0Z"/>
      <path class="cls-1" d="M280.34,64.23c1.41-2.05,2.2-4.4,2.43-6.79,2.48-25.02-35.4-15.03-29.18,4.8,4.03,12.8,20.19,11.57,26.75,1.99h0Z"/>
      <path class="cls-1" d="M29.51,186.27c2.96-2.76,5.77-6.89,7.01-11.03,1.71-5.68,.49-11.36-7.25-13.45-10.75-2.9-29.27,.63-29.27,14.63,0,6,8.11,15.51,13.98,16.43,5.66,.89,11.58-2.92,15.53-6.58h0Z"/>
      <path class="cls-1" d="M314.41,77.83c.76-1.25,1.1-2.45,1.12-3.57,.27-14.42-27.13-6.76-17.11,5.21,3.85,4.6,12.93,3.42,15.98-1.63h0Z"/>
      <path class="cls-1" d="M158.79,318.4c-14.54-12.38-22.2,10.01-14.98,17.64,2.16,2.27,5.63,3.24,10.65,1.57,9.03-2.99,11.9-12.76,4.33-19.21h0Z"/>
      <path class="cls-1" d="M316.62,42.04c-.54-14.11-20.09-7.11-14.12,4.36,3.82,7.35,14.44,3.77,14.12-4.36Z"/>
      <path class="cls-1" d="M61.96,152.78c-.25-.93-.71-1.93-1.42-2.99-7.72-11.58-20.68,1.89-12.46,8.78,4.41,3.71,15.85,1.67,13.88-5.79h0Z"/>
    </g>
  </g>
</svg>