<?xml version="1.0" encoding="UTF-8"?>
<svg id="Layer_2" data-name="Layer 2" xmlns="http://www.w3.org/2000/svg" viewBox="0 0 422.11 476">
  <defs>
    <style>
      .cls-1 {
        fill: #e63f8e;
        fill-rule: evenodd;
      }
    </style>
  </defs>
  <g id="Layer_2-2" data-name="Layer 2">
    <g id="splat-2">
      <g id="splat-2-2" data-name="splat-2">
        <path class="cls-1" d="M264.12,15.63c-13.09,1.28-11.63-20.91,2.7-14.44,8.12,3.66,4.51,13.73-2.7,14.44Z"/>
        <path class="cls-1" d="M268.62,32.77c-.4-9.57,7.12-16.35,17.15-13.54,4.57,1.28,7.13,3.91,8.12,6.32,7.92,19.25-24.4,28.08-25.28,7.22h0Z"/>
        <path class="cls-1" d="M51.26,68.57c-6.14,2.38-6.71-6.48-4.27-10.16,1.18-1.79,3.07-2.35,5.38,.21,2.18,2.42,2.55,8.53-1.11,9.95h0Z"/>
        <path class="cls-1" d="M72.74,97.77c-15.37-1.66-17.24-35.04,5.42-28.89,17.01,4.62,12.53,30.82-5.42,28.89Z"/>
        <path class="cls-1" d="M50.32,83.84c1.96,4.73,.35,10.75-5.56,11.22-2.48,.2-7.18-3.75-8.02-5.98-.89-2.36,.08-4.86,1.72-6.63,.01-.01,.02-.02,.03-.04,3.45-3.69,9.66-3.8,11.84,1.42h0Z"/>
        <path class="cls-1" d="M410.35,234.98c-11.18-1.4-12.31-23.32,3.61-19.86,14.25,3.09,7.7,21.27-3.61,19.86Z"/>
        <path class="cls-1" d="M10.46,223.24c7.12,2.75,6.65,14.04-.9,15.34-13.23,2.31-12.54-20.53,.9-15.34Z"/>
        <path class="cls-1" d="M22.19,244.91c6.46,1,8.7,4.3,9.03,9.02,1.11,15.97-20.77,15.17-21.67,2.71-.57-8.02,4.95-12.92,12.64-11.73h0Z"/>
        <path class="cls-1" d="M411.75,249.18c5.13,3.45,5.01,6.75,2.79,8.96-4.25,4.26-16.19,4.48-13.23-6.01,1.2-4.25,7.41-4.98,10.43-2.95h0Z"/>
        <path class="cls-1" d="M320.08,327.05c10.35,.99,13.42,6.78,13.54,12.64,.4,19.49-31.98,20.33-29.79-.9,.9-8.82,8.75-12.45,16.25-11.74h0Z"/>
        <path class="cls-1" d="M116.98,392.95c-.75,15.54-29.12,10.16-19.86-8.12,8.79-6.64,20.27-.48,19.86,8.12Z"/>
        <path class="cls-1" d="M70.04,210.61c24.61-5.59,25.88-49.67,4.51-57.77-9.87-3.75-21.18,2.15-34.3,0-22.75-3.73-29.73-33.7-8.12-43.33,29.4-13.1,38.9,27.27,71.31,21.67,13.35-2.31,23.18-14.8,27.08-24.37,12.39-30.36-22.2-31.29-25.28-54.16-2.95-22.03,20.89-33.91,36.11-18.96,15.71,15.44-1.04,36.75,16.25,47.84,17.34,11.14,47.71-3.12,50.55-16.25,.98-4.54-.09-10.19-1.8-17.15-3.96-16.09-.3-28.23,16.25-24.37,3.24,.76,11.93,4.41,12.64,13.54,1.16,14.96-9.69,17.34-7.22,30.69,2.54,13.78,40.49,34.59,56.86,19.86,5.37-4.83,6.82-23.4,12.64-31.59,14.16-19.93,50.09-18.64,48.74,9.93-.34,7.2-3.76,15.55-15.34,23.47-12.08,8.26-23.53,8.43-27.98,19.86-6.02,15.44,2.25,36.64,18.05,38.81,16.46,2.27,22.18-10.02,34.3-14.44,10.61-3.87,24.41-3.96,32.5,.9,12.78,7.7,12.03,35.09-4.51,40.62-15.23,5.09-29.7-5.91-45.14-.9-14.16,4.6-22.54,30.3-12.64,45.14,12.27,18.39,59.06-.3,62.28,25.28,1.64,12.96-7.28,21.56-17.15,22.56-18.41,1.88-25.34-18.08-41.52-18.05-12.15,.03-19.43,8.23-18.05,19.86,1.87,15.79,25.61,11.55,27.98,27.99,1.62,11.25-2.97,18.77-12.64,18.96-13.6,.26-14.31-24.59-30.69-24.38-21.73,.28-17.29,46.52-16.25,71.31,.61,14.53,1.14,27.32,3.61,40.62,2.79,15.01,2.76,30.38-10.83,30.69-24.36,.55-11.45-29.55-9.93-46.95,2.25-25.86-2.79-64.12-20.77-66.8-32.24-4.79-30.75,64.2-25.27,92.07,3.54,18,12.33,26.77,9.93,43.33-2.22,15.3-22.38,25.73-36.11,16.25-17.59-12.14-.78-42.43,.9-65.89,1.73-24.2,2.76-59.56-6.32-73.12-2.5-3.73-11.09-10.11-18.05-9.03-26.67,4.13,3.92,73.69-24.38,72.22-18.2-.95-7.74-35.8-9.03-55.07-1.52-22.75-10.09-55.81-34.3-50.55-12.25,2.66-11.52,25.04-29.79,21.67-6.42-1.19-10.15-8-10.83-11.74-5.35-29.23,30.05-21.14,36.11-36.11,6.1-15.06-6.13-34.42-18.05-35.21-12.73-.84-16.38,15.41-32.5,12.64-9.63-1.66-11.23-11.28-9.93-18.05,3.04-15.82,20.12-9.9,36.11-13.53h0Z"/>
      </g>
    </g>
  </g>
</svg>