<svg id="Layer_1" xmlns="http://www.w3.org/2000/svg" viewBox="0 0 24 24"><style>.st0{fill:#e4e4e7}.st1{fill:#52525b}</style><path class="st0" d="M12 0C5.4 0 0 5.4 0 12s5.4 12 12 12 12-5.4 12-12S18.6 0 12 0zm0 22.9C6 22.9 1.1 18 1.1 12S6 1.1 12 1.1 22.9 6 22.9 12 18 22.9 12 22.9z"/><path class="st1" d="M12 1.1C6 1.1 1.1 6 1.1 12S6 22.9 12 22.9 22.9 18 22.9 12 18 1.1 12 1.1zm6.6 5.1L13.7 11c.2.3.2.6.2 1 0 1.1-.9 2-2 2s-2-.9-2-2c0-.3.1-.7.2-1L7 7.8c-.2-.2-.2-.6 0-.8.2-.2.5-.2.8 0l3.2 3.2c.3-.2.6-.3 1-.3s.7.1 1 .3l4.9-4.9c.2-.2.5-.2.8 0 .1.3.1.6-.1.9z"/><path class="st0" d="M18.6 5.4c-.2-.2-.5-.2-.8 0L13 10.3c-.3-.2-.6-.3-1-.3s-.7.1-1 .3L7.8 7c-.2-.2-.6-.2-.8 0-.2.2-.2.6 0 .8l3.2 3.2c-.2.3-.2.6-.2 1 0 1.1.9 2 2 2s2-.9 2-2c0-.3-.1-.7-.2-1l4.9-4.9c.1-.2.1-.5-.1-.7zM12 12.9c-.5 0-.9-.4-.9-.9 0-.2.1-.5.3-.6.2-.2.4-.3.7-.3s.5.1.7.3c.2.2.3.4.3.6-.2.5-.6.9-1.1.9z"/><path class="st0" d="M12.9 12c0 .5-.4.9-.9.9s-.9-.4-.9-.9c0-.2.1-.5.3-.6.2-.2.4-.3.7-.3s.5.1.7.3c0 .1.1.3.1.6z"/></svg>