<svg viewBox="0 0 1751.1 140" xmlns="http://www.w3.org/2000/svg"><path d="m0 110.1 2.85 19.8 3.73-.54c15.2-2.19 30.91-4.45 46.35-6.11 20.39-2.19 39.19-3.25 57.45-3.25h.1c18.25 0 37.03 1.07 57.42 3.26 14.58 1.57 29.43 3.67 43.79 5.71l13.17 1.86c14.54 2.06 29.57 4.19 44.51 5.8 21.11 2.27 40.6 3.37 59.57 3.37h.12c18.97 0 38.45-1.11 59.55-3.38 14.92-1.6 29.94-3.73 44.46-5.79l13.22-1.87c14.36-2.04 29.2-4.14 43.78-5.71 20.39-2.19 39.19-3.25 57.45-3.25h.1c18.25 0 37.03 1.07 57.42 3.26 14.58 1.57 29.43 3.67 43.79 5.71l13.18 1.87c14.54 2.06 29.57 4.19 44.5 5.8 21.11 2.27 40.6 3.37 59.57 3.37h.12c18.97 0 38.45-1.11 59.55-3.38 14.92-1.6 29.93-3.73 44.46-5.79l13.24-1.87c14.35-2.04 29.19-4.14 43.77-5.7 20.39-2.19 39.19-3.25 57.45-3.25h.1c18.25 0 37.03 1.07 57.42 3.26 14.58 1.57 29.43 3.67 43.79 5.71l13.17 1.86c14.54 2.06 29.58 4.19 44.51 5.8 21.11 2.27 40.6 3.37 59.57 3.37h.12c18.96 0 38.44-1.11 59.55-3.38 14.92-1.6 29.93-3.73 44.46-5.79l13.22-1.87c14.36-2.04 29.2-4.14 43.79-5.71 20.39-2.19 39.19-3.25 57.45-3.25h.1c18.25 0 37.03 1.07 57.42 3.26 14.58 1.57 29.43 3.67 43.79 5.71l13.17 1.86c14.54 2.06 29.57 4.19 44.51 5.8 21.11 2.27 40.6 3.37 59.57 3.37h.12c18.97 0 38.45-1.11 59.55-3.38 14.89-1.6 29.88-3.73 44.38-5.78l6.63-.94s-.02-20-.02-20v-10s-.02-10-.02-10v-10-10s-.03-20-.03-20l-.02-20-2.79-19.8-6.65.94c-14.33 2.03-29.15 4.13-43.71 5.7-20.39 2.19-39.17 3.26-57.42 3.26-16.98-.01-34.38-.91-53.13-2.79-1.46-.15-2.94-.3-4.42-.46-14.6-1.57-29.46-3.67-43.83-5.71l-13.17-1.86c-14.52-2.06-29.54-4.19-44.46-5.79-1.58-.17-3.16-.33-4.72-.49-19.3-1.94-37.28-2.88-54.83-2.89h-.11c-18.98 0-38.46 1.1-59.57 3.37-14.92 1.6-29.94 3.73-44.46 5.79l-13.22 1.87c-14.36 2.04-29.2 4.14-43.78 5.71-20.39 2.19-39.17 3.26-57.42 3.26-16.98-.02-34.41-.92-53.17-2.8-1.45-.15-2.91-.3-4.38-.45-14.6-1.57-29.46-3.67-43.83-5.71l-13.17-1.86c-14.52-2.06-29.54-4.19-44.46-5.79-1.58-.17-3.16-.33-4.73-.49-19.3-1.94-37.28-2.88-54.82-2.89h-.11c-18.98 0-38.46 1.1-59.57 3.37-14.91 1.6-29.92 3.73-44.44 5.79l-13.24 1.87c-14.36 2.04-29.2 4.14-43.78 5.71-20.39 2.19-39.17 3.26-57.42 3.26-16.98-.01-34.38-.91-53.13-2.79-1.46-.15-2.94-.3-4.42-.46-14.59-1.57-29.45-3.67-43.82-5.71l-13.18-1.87c-14.52-2.06-29.54-4.19-44.46-5.79-1.58-.17-3.16-.33-4.73-.49-19.3-1.94-37.28-2.88-54.82-2.89h-.11c-18.98 0-38.46 1.1-59.57 3.37-14.92 1.6-29.93 3.73-44.45 5.79l-13.22 1.87c-14.36 2.04-29.21 4.14-43.79 5.71-20.39 2.19-39.17 3.26-57.42 3.26h-.12c-16.9 0-34.27-.91-52.94-2.79-1.49-.15-2.98-.3-4.49-.47-14.6-1.57-29.46-3.67-43.83-5.71l-13.17-1.86c-14.52-2.06-29.54-4.19-44.46-5.79-1.58-.17-3.16-.33-4.73-.49-19.22-1.98-37.2-2.93-54.74-2.93h-.11c-18.98 0-38.46 1.1-59.57 3.37-15.8 1.7-31.69 3.98-47.06 6.2-.04 0-3.69.53-3.73.54l-.02 20s-.02 20-.02 20l-.02 20-.02 20-.02 20z" fill="#120e0b"/><path d="m.02 90.1 2.85 19.8 3.73-.54c15.2-2.19 30.91-4.45 46.35-6.11 20.39-2.19 39.19-3.25 57.45-3.25h.1c18.25 0 37.03 1.07 57.42 3.26 14.58 1.57 29.43 3.67 43.79 5.71l13.17 1.86c14.54 2.06 29.57 4.19 44.51 5.8 21.11 2.27 40.6 3.37 59.57 3.37h.12c18.97 0 38.45-1.11 59.55-3.38 14.92-1.6 29.94-3.73 44.46-5.79l13.22-1.87c14.36-2.04 29.2-4.14 43.78-5.71 20.39-2.19 39.19-3.25 57.45-3.25h.1c18.25 0 37.03 1.07 57.42 3.26 14.58 1.57 29.43 3.67 43.79 5.71l13.18 1.87c14.54 2.06 29.56 4.19 44.5 5.8 21.11 2.27 40.6 3.37 59.57 3.37h.12c18.97 0 38.45-1.11 59.55-3.38 14.92-1.6 29.93-3.73 44.46-5.79l13.24-1.87c14.35-2.04 29.19-4.14 43.77-5.7 20.39-2.19 39.19-3.25 57.45-3.25h.1c18.25 0 37.03 1.07 57.42 3.26 14.58 1.57 29.43 3.67 43.79 5.71l13.17 1.86c14.54 2.06 29.57 4.19 44.51 5.8 21.11 2.27 40.6 3.37 59.57 3.37h.12c18.96 0 38.44-1.11 59.55-3.38 14.92-1.6 29.93-3.73 44.46-5.79l13.22-1.87c14.36-2.04 29.2-4.14 43.79-5.71 20.39-2.19 39.19-3.25 57.44-3.25h.1c18.25 0 37.03 1.07 57.42 3.26 14.58 1.57 29.43 3.67 43.79 5.71l13.17 1.86c14.54 2.06 29.57 4.19 44.51 5.8 21.11 2.27 40.6 3.37 59.57 3.37h.12c18.97 0 38.45-1.11 59.55-3.38 14.89-1.6 29.88-3.73 44.38-5.78l6.63-.94s-.02-20-.02-20v-10s-.02-10-.02-10l-.02-20-.02-20-2.79-19.8-6.65.94c-14.33 2.03-29.15 4.13-43.71 5.7-20.39 2.19-39.17 3.26-57.42 3.26-16.98-.01-34.38-.91-53.13-2.79-1.46-.15-2.94-.3-4.42-.46-14.6-1.57-29.46-3.67-43.83-5.71l-13.17-1.86c-14.52-2.06-29.54-4.19-44.46-5.79-1.58-.17-3.16-.33-4.72-.49-19.3-1.94-37.28-2.88-54.83-2.89h-.11c-18.98 0-38.46 1.1-59.57 3.37-14.92 1.6-29.94 3.73-44.46 5.79l-13.22 1.87c-14.36 2.04-29.2 4.14-43.78 5.71-20.39 2.19-39.17 3.26-57.42 3.26-16.98-.02-34.41-.92-53.17-2.8-1.45-.15-2.91-.3-4.38-.45-14.6-1.57-29.46-3.67-43.83-5.71l-13.17-1.86c-14.52-2.06-29.54-4.19-44.46-5.79-1.58-.17-3.16-.33-4.73-.49-19.3-1.94-37.28-2.88-54.82-2.89h-.11c-18.98 0-38.46 1.1-59.57 3.37-14.91 1.6-29.92 3.73-44.44 5.79l-13.24 1.87c-14.36 2.04-29.2 4.14-43.78 5.71-20.39 2.19-39.17 3.26-57.42 3.26-16.98-.01-34.38-.91-53.13-2.79-1.46-.15-2.94-.3-4.42-.46-14.59-1.57-29.45-3.67-43.82-5.71l-13.18-1.87c-14.52-2.06-29.54-4.19-44.46-5.79-1.58-.17-3.16-.33-4.73-.49-19.3-1.94-37.28-2.88-54.82-2.89h-.11c-18.98 0-38.46 1.1-59.57 3.37-14.92 1.6-29.93 3.73-44.45 5.79l-13.22 1.87c-14.36 2.04-29.21 4.14-43.79 5.71-20.39 2.19-39.17 3.26-57.42 3.26h-.12c-16.9 0-34.27-.91-52.94-2.79-1.49-.15-2.98-.3-4.49-.47-14.6-1.57-29.46-3.67-43.83-5.71l-13.17-1.86c-14.52-2.06-29.54-4.19-44.46-5.79-1.58-.17-3.16-.33-4.73-.49-19.24-1.98-37.22-2.93-54.76-2.93h-.11c-18.98 0-38.46 1.1-59.57 3.37-15.8 1.7-31.69 3.98-47.06 6.2 0 0-3.73.54-3.73.54 0 .03-.02 19.87-.02 20l-.02 20-.02 20-.02 20z" fill="#1b4f4b"/><path d="m.04 70.1 2.85 19.8 3.73-.54c15.2-2.19 30.91-4.45 46.35-6.11 20.39-2.19 39.18-3.25 57.44-3.25h.1c18.25 0 37.03 1.07 57.42 3.26 14.58 1.57 29.43 3.67 43.79 5.71l13.17 1.86c14.54 2.06 29.57 4.19 44.51 5.8 21.11 2.27 40.59 3.37 59.57 3.37h.12c18.97 0 38.44-1.11 59.55-3.38 14.92-1.6 29.94-3.73 44.46-5.79l13.22-1.87c14.36-2.04 29.2-4.14 43.78-5.71 20.39-2.19 39.18-3.25 57.44-3.25h.1c18.25 0 37.03 1.07 57.42 3.26 14.58 1.57 29.43 3.67 43.79 5.71l13.18 1.87c14.54 2.06 29.56 4.19 44.5 5.8 21.11 2.27 40.59 3.37 59.57 3.37h.12c18.97 0 38.44-1.11 59.55-3.38 14.92-1.6 29.93-3.73 44.45-5.79l13.24-1.87c14.35-2.04 29.19-4.14 43.77-5.7 20.39-2.19 39.18-3.25 57.44-3.25h.1c18.25 0 37.03 1.07 57.42 3.26 14.58 1.57 29.43 3.67 43.79 5.71l13.17 1.86c14.54 2.06 29.57 4.19 44.51 5.8 21.11 2.27 40.6 3.37 59.57 3.37h.12c18.96 0 38.44-1.11 59.55-3.38 14.92-1.6 29.93-3.73 44.45-5.79l13.22-1.87c14.36-2.04 29.2-4.14 43.78-5.71 20.39-2.19 39.18-3.25 57.44-3.25h.1c18.25 0 37.03 1.07 57.42 3.26 14.58 1.57 29.43 3.67 43.79 5.71l13.17 1.86c14.54 2.06 29.57 4.19 44.51 5.8 21.11 2.27 40.59 3.37 59.57 3.37h.12c18.97 0 38.44-1.11 59.55-3.38 14.89-1.6 29.88-3.73 44.38-5.78l6.63-.94s-.02-20-.02-20l-.02-20-.02-20-2.79-19.8-6.65.94c-14.33 2.03-29.15 4.13-43.71 5.7-20.39 2.19-39.17 3.26-57.42 3.26-16.98-.01-34.38-.91-53.13-2.79-1.46-.15-2.94-.3-4.42-.46-14.6-1.57-29.46-3.67-43.83-5.71l-13.17-1.86c-14.52-2.06-29.54-4.19-44.46-5.79-1.58-.17-3.16-.33-4.72-.49-19.3-1.94-37.28-2.88-54.83-2.89h-.11c-18.98 0-38.46 1.1-59.57 3.37-14.92 1.6-29.94 3.73-44.46 5.79l-13.22 1.87c-14.36 2.04-29.2 4.14-43.78 5.71-20.39 2.19-39.17 3.26-57.42 3.26-16.98-.02-34.41-.92-53.17-2.8-1.45-.15-2.91-.3-4.38-.45-14.6-1.57-29.46-3.67-43.83-5.71l-13.17-1.86c-14.52-2.06-29.54-4.19-44.46-5.79-1.58-.17-3.16-.33-4.73-.49-19.3-1.94-37.28-2.88-54.82-2.89h-.11c-18.98 0-38.46 1.1-59.57 3.37-14.91 1.6-29.92 3.73-44.44 5.79l-13.24 1.87c-14.36 2.04-29.2 4.14-43.78 5.71-20.39 2.19-39.17 3.26-57.42 3.26-16.98-.01-34.38-.91-53.13-2.79-1.46-.15-2.94-.3-4.42-.46-14.59-1.57-29.45-3.67-43.82-5.71l-13.18-1.87c-14.52-2.06-29.54-4.19-44.46-5.79-1.58-.17-3.16-.33-4.73-.49-19.3-1.94-37.28-2.88-54.82-2.89h-.11c-18.98 0-38.46 1.1-59.57 3.37-14.92 1.6-29.93 3.73-44.45 5.79l-13.22 1.87c-14.36 2.04-29.21 4.14-43.79 5.71-20.39 2.19-39.17 3.26-57.42 3.26h-.12c-16.9 0-34.27-.91-52.94-2.79-1.49-.15-2.98-.3-4.49-.47-14.6-1.57-29.46-3.67-43.83-5.71l-13.17-1.86c-14.52-2.06-29.54-4.19-44.46-5.79-1.58-.17-3.16-.33-4.73-.49-19.22-1.98-37.2-2.93-54.74-2.93h-.11c-18.98 0-38.46 1.1-59.57 3.37-15.8 1.7-31.69 3.98-47.06 6.2l-3.73.53-.02 20-.02 20-.02 20z" fill="#165e59"/><path d="m.05 50.1 2.85 19.8 3.73-.54c15.2-2.19 30.91-4.45 46.35-6.11 20.39-2.19 39.18-3.25 57.44-3.25h.1c18.24 0 37.03 1.07 57.42 3.26 14.58 1.57 29.43 3.67 43.79 5.71l13.17 1.86c14.54 2.06 29.57 4.19 44.51 5.8 21.11 2.27 40.59 3.37 59.56 3.37h.12c18.96 0 38.44-1.11 59.55-3.38 14.92-1.6 29.94-3.73 44.46-5.79l13.22-1.87c14.36-2.04 29.2-4.14 43.78-5.71 20.39-2.19 39.18-3.25 57.44-3.25h.1c18.25 0 37.03 1.07 57.42 3.26 14.58 1.57 29.43 3.67 43.79 5.71l13.18 1.87c14.53 2.06 29.56 4.19 44.49 5.8 21.11 2.27 40.59 3.37 59.56 3.37h.12c18.96 0 38.44-1.11 59.55-3.38 14.92-1.6 29.93-3.73 44.45-5.79l13.24-1.87c14.35-2.04 29.19-4.14 43.77-5.7 20.39-2.19 39.18-3.25 57.44-3.25h.1c18.24 0 37.03 1.07 57.42 3.26 14.58 1.57 29.43 3.67 43.79 5.71l13.17 1.86c14.54 2.06 29.57 4.19 44.51 5.8 21.11 2.27 40.59 3.37 59.56 3.37h.12c18.96 0 38.44-1.11 59.55-3.38 14.92-1.6 29.93-3.73 44.45-5.79l13.22-1.87c14.36-2.04 29.2-4.14 43.78-5.71 20.39-2.19 39.18-3.25 57.44-3.25h.1c18.25 0 37.03 1.07 57.42 3.26 14.58 1.57 29.43 3.67 43.79 5.71l13.17 1.86c14.54 2.06 29.57 4.19 44.51 5.8 21.11 2.27 40.59 3.37 59.56 3.37h.12c18.96 0 38.44-1.11 59.55-3.38 14.89-1.6 29.88-3.73 44.38-5.78l6.63-.94s-.02-20-.02-20l-.02-20-2.79-19.8-6.65.94c-14.33 2.03-29.15 4.13-43.71 5.7-20.39 2.19-39.17 3.26-57.42 3.26-16.98-.01-34.38-.91-53.13-2.79-1.46-.15-2.94-.3-4.42-.46-14.6-1.57-29.46-3.67-43.83-5.71l-13.17-1.86c-14.52-2.06-29.54-4.19-44.46-5.79-1.58-.17-3.16-.33-4.72-.49-19.3-1.94-37.28-2.88-54.83-2.89h-.11c-18.98 0-38.46 1.1-59.57 3.37-14.92 1.6-29.94 3.73-44.46 5.79l-13.22 1.87c-14.36 2.04-29.2 4.14-43.78 5.71-20.39 2.19-39.17 3.26-57.42 3.26-16.98-.02-34.41-.92-53.17-2.8-1.45-.15-2.91-.3-4.38-.45-14.6-1.57-29.46-3.67-43.83-5.71l-13.17-1.86c-14.52-2.06-29.54-4.19-44.46-5.79-1.58-.17-3.16-.33-4.73-.49-19.3-1.94-37.28-2.88-54.82-2.89h-.11c-18.98 0-38.46 1.1-59.57 3.37-14.91 1.6-29.92 3.73-44.44 5.79l-13.24 1.87c-14.36 2.04-29.2 4.14-43.78 5.71-20.39 2.19-39.17 3.26-57.42 3.26-16.98-.01-34.38-.91-53.13-2.79-1.46-.15-2.94-.3-4.42-.46-14.59-1.57-29.45-3.67-43.82-5.71l-13.18-1.87c-14.52-2.06-29.54-4.19-44.46-5.79-1.58-.17-3.16-.33-4.73-.49-19.3-1.94-37.28-2.88-54.82-2.89h-.11c-18.98 0-38.46 1.1-59.57 3.37-14.92 1.6-29.93 3.73-44.45 5.79l-13.22 1.87c-14.36 2.04-29.21 4.14-43.79 5.71-20.39 2.19-39.17 3.26-57.42 3.26h-.12c-16.9 0-34.27-.91-52.94-2.79-1.49-.15-2.98-.3-4.49-.47-14.6-1.57-29.46-3.67-43.83-5.71l-13.17-1.86c-14.52-2.06-29.54-4.19-44.46-5.79-1.58-.17-3.16-.33-4.73-.49-19.2-1.98-37.18-2.93-54.72-2.93h-.11c-18.98 0-38.46 1.1-59.57 3.37-15.8 1.7-31.69 3.98-47.06 6.2l-3.73.53-.02 20z" fill="#04746d"/><path d="m.07 30.1 2.85 19.8 3.73-.54c15.2-2.19 30.91-4.45 46.35-6.11 20.39-2.19 39.18-3.25 57.44-3.25h.1c18.24 0 37.03 1.07 57.42 3.26 14.58 1.57 29.43 3.67 43.79 5.71l13.17 1.86c14.54 2.06 29.57 4.19 44.51 5.8 21.11 2.27 40.59 3.37 59.56 3.37h.12c18.96 0 38.44-1.11 59.55-3.38 14.92-1.6 29.94-3.73 44.46-5.79l13.22-1.87c14.35-2.04 29.2-4.14 43.78-5.71 20.39-2.19 39.18-3.25 57.44-3.25h.1c18.25 0 37.03 1.07 57.42 3.26 14.58 1.57 29.43 3.67 43.79 5.71l13.18 1.87c14.53 2.06 29.56 4.19 44.49 5.8 21.11 2.27 40.59 3.37 59.56 3.37h.12c18.96 0 38.44-1.11 59.55-3.38 14.92-1.6 29.93-3.73 44.45-5.79l13.24-1.87c14.35-2.04 29.19-4.14 43.77-5.7 20.39-2.19 39.18-3.25 57.44-3.25h.1c18.24 0 37.03 1.07 57.42 3.26 14.58 1.57 29.43 3.67 43.79 5.71l13.17 1.86c14.54 2.06 29.57 4.19 44.51 5.8 21.11 2.27 40.59 3.37 59.56 3.37h.12c18.96 0 38.44-1.11 59.55-3.38 14.92-1.6 29.93-3.73 44.45-5.79l13.22-1.87c14.36-2.04 29.2-4.14 43.78-5.71 20.39-2.19 39.18-3.25 57.44-3.25h.1c18.25 0 37.03 1.07 57.42 3.26 14.58 1.57 29.43 3.67 43.79 5.71l13.17 1.86c14.54 2.06 29.57 4.19 44.51 5.8 21.11 2.27 40.59 3.37 59.56 3.37h.12c18.96 0 38.44-1.11 59.55-3.38 14.89-1.6 29.88-3.73 44.38-5.78l6.63-.94-.02-20-2.79-19.8-6.65.94c-14.33 2.03-29.15 4.13-43.71 5.7-20.39 2.19-39.17 3.26-57.42 3.26-16.98-.01-34.38-.91-53.13-2.79-1.46-.15-2.94-.3-4.42-.46-14.6-1.57-29.46-3.67-43.83-5.71l-13.17-1.86c-14.52-2.06-29.54-4.19-44.46-5.79-1.58-.17-3.16-.33-4.72-.49-19.3-1.94-37.28-2.88-54.83-2.89h-.11c-18.98 0-38.46 1.1-59.57 3.37-14.92 1.6-29.94 3.73-44.46 5.79l-13.22 1.87c-14.36 2.04-29.2 4.14-43.78 5.71-20.39 2.19-39.17 3.26-57.42 3.26-16.98-.02-34.41-.92-53.17-2.8-1.45-.15-2.91-.3-4.38-.45-14.6-1.57-29.46-3.67-43.83-5.71l-13.17-1.86c-14.52-2.06-29.54-4.19-44.46-5.79-1.58-.17-3.16-.33-4.73-.49-19.3-1.94-37.28-2.88-54.82-2.89h-.11c-18.98 0-38.46 1.1-59.57 3.37-14.91 1.6-29.92 3.73-44.44 5.79l-13.24 1.87c-14.36 2.04-29.2 4.14-43.78 5.71-20.39 2.19-39.17 3.26-57.42 3.26-16.98-.01-34.38-.91-53.13-2.79-1.46-.15-2.94-.3-4.42-.46-14.59-1.57-29.45-3.67-43.82-5.71l-13.18-1.87c-14.52-2.06-29.54-4.19-44.46-5.79-1.58-.17-3.16-.33-4.73-.49-19.3-1.94-37.28-2.88-54.82-2.89h-.11c-18.98 0-38.46 1.1-59.57 3.37-14.92 1.6-29.93 3.73-44.45 5.79l-13.22 1.87c-14.36 2.04-29.21 4.14-43.79 5.71-20.39 2.19-39.17 3.26-57.42 3.26h-.12c-16.9 0-34.27-.91-52.94-2.79-1.49-.15-2.98-.3-4.49-.47-14.6-1.57-29.46-3.67-43.83-5.71l-13.17-1.86c-14.52-2.06-29.54-4.19-44.46-5.79-1.58-.17-3.16-.33-4.73-.49-19.24-1.98-37.22-2.93-54.76-2.93h-.11c-18.98 0-38.46 1.1-59.57 3.37-15.8 1.7-31.69 3.98-47.06 6.2l-3.73.53z" fill="#009187"/><path d="m1640.33 40c-18.97 0-38.45-1.1-59.56-3.37-14.93-1.6-29.97-3.73-44.51-5.8l-13.17-1.86c-14.36-2.04-29.2-4.14-43.78-5.71-20.39-2.19-39.17-3.26-57.42-3.26h-.1c-18.26 0-37.05 1.06-57.44 3.25-14.58 1.56-29.43 3.67-43.78 5.71l-13.22 1.87c-14.52 2.06-29.54 4.19-44.45 5.79-21.11 2.27-40.59 3.37-59.55 3.38h-.12c-18.97 0-38.45-1.1-59.56-3.37-14.94-1.6-29.97-3.73-44.51-5.8l-13.17-1.86c-14.36-2.04-29.2-4.14-43.78-5.71-20.39-2.19-39.17-3.26-57.42-3.26h-.1c-18.26 0-37.05 1.06-57.44 3.25-14.58 1.56-29.42 3.67-43.77 5.7l-13.24 1.87c-14.52 2.06-29.54 4.19-44.45 5.79-21.11 2.27-40.58 3.37-59.55 3.38h-.12c-18.97 0-38.45-1.1-59.56-3.37-14.93-1.6-29.96-3.73-44.49-5.79l-13.18-1.87c-14.36-2.04-29.2-4.14-43.78-5.71-20.39-2.19-39.17-3.26-57.42-3.26h-.1c-18.26 0-37.05 1.06-57.44 3.25-14.58 1.56-29.42 3.67-43.78 5.71l-13.22 1.87c-14.52 2.06-29.54 4.19-44.46 5.79-21.11 2.27-40.58 3.37-59.55 3.38h-.12c-18.97 0-38.45-1.1-59.56-3.37-14.93-1.6-29.97-3.73-44.51-5.8l-13.17-1.86c-14.36-2.04-29.2-4.14-43.79-5.71-20.39-2.19-39.17-3.26-57.42-3.26h-.1c-18.26 0-37.05 1.06-57.44 3.25-15.44 1.66-31.15 3.92-46.35 6.11l-3.73.54-2.86-19.79 3.73-.54c15.37-2.21 31.27-4.5 47.06-6.2 21.11-2.26 40.6-3.36 59.57-3.36h.11c18.96 0 38.44 1.11 59.55 3.38 14.92 1.6 29.94 3.73 44.46 5.79l13.17 1.86c14.37 2.04 29.24 4.15 43.83 5.71 20.39 2.19 39.18 3.25 57.43 3.25h.12c18.24 0 37.03-1.07 57.42-3.26 14.58-1.57 29.43-3.67 43.79-5.71l13.22-1.87c14.52-2.06 29.53-4.19 44.45-5.79 21.11-2.27 40.6-3.37 59.57-3.37h.11c18.96 0 38.44 1.11 59.55 3.38 14.92 1.6 29.93 3.73 44.46 5.79l13.18 1.87c14.37 2.04 29.23 4.15 43.82 5.71 20.44 2.19 39.24 3.24 57.54 3.25 18.24 0 37.03-1.07 57.42-3.26 14.58-1.57 29.42-3.67 43.78-5.71l13.24-1.87c14.52-2.06 29.53-4.19 44.44-5.79 21.11-2.27 40.6-3.37 59.57-3.37h.11c18.96 0 38.44 1.11 59.55 3.38 14.92 1.6 29.93 3.73 44.46 5.79l13.17 1.86c14.37 2.04 29.24 4.15 43.83 5.71 20.44 2.19 39.25 3.23 57.54 3.25 18.24 0 37.02-1.07 57.42-3.26 14.58-1.57 29.42-3.67 43.78-5.71l13.22-1.87c14.52-2.06 29.54-4.19 44.46-5.79 21.11-2.27 40.6-3.37 59.57-3.37h.11c18.96 0 38.44 1.11 59.55 3.38 14.92 1.6 29.93 3.73 44.46 5.79l13.17 1.86c14.37 2.04 29.24 4.15 43.83 5.71 20.44 2.19 39.24 3.24 57.54 3.25 18.24 0 37.03-1.07 57.42-3.26 14.55-1.56 29.37-3.67 43.71-5.7l6.65-.94 2.79 19.8-6.63.94c-14.5 2.06-29.49 4.18-44.38 5.78-21.11 2.27-40.58 3.37-59.55 3.38h-.12z" fill="#1eb1a3"/></svg>