<?xml version="1.0" encoding="utf-8"?>
<!-- Generator: Adobe Illustrator 27.6.1, SVG Export Plug-In . SVG Version: 6.00 Build 0)  -->
<svg version="1.1" id="Layer_2_00000106110017779060962480000004004802090730298274_"
	 xmlns="http://www.w3.org/2000/svg" xmlns:xlink="http://www.w3.org/1999/xlink" x="0px" y="0px" viewBox="0 0 600 600"
	 style="enable-background:new 0 0 600 600;" xml:space="preserve">
<style type="text/css">
	.st0{clip-path:url(#SVGID_00000153687452264228386840000000204365898409376406_);}
	.st1{fill:#FFFBEB;}
	.st2{fill:#B45309;stroke:#78350F;stroke-width:4;stroke-miterlimit:10;}
	.st3{fill:none;stroke:#78350F;stroke-width:4;stroke-miterlimit:10;}
</style>
<g id="Layer_1-2">
	<g>
		<g>
			<defs>
				<circle id="SVGID_1_" cx="300" cy="300" r="300"/>
			</defs>
			<clipPath id="SVGID_00000105419123067426705260000004815452769418124466_">
				<use xlink:href="#SVGID_1_"  style="overflow:visible;"/>
			</clipPath>
			<g style="clip-path:url(#SVGID_00000105419123067426705260000004815452769418124466_);">
				<g>
					<circle id="BG-CIRCLE-2" class="st1" cx="300" cy="300" r="300"/>
					<g id="LOGO-ELEMENTS">
						<path class="st2" d="M291.2,153.4c104.6-0.1,139.2,118.6,81.4,177.3C307.9,396.4,239.3,360.5,213,302
							C186.6,243.4,202.7,162.3,291.2,153.4L291.2,153.4z"/>
						<circle class="st3" cx="298.5" cy="268.2" r="81.7"/>
						<path class="st3" d="M-17.1,410.5c1.5,1.7,4.3,0,5.8-1.7l17.5-18.5c4.1-4.3-4.6-18.2,52.8-27.4c23.3-3.8,33.2-33,40-41
							c4.6-5.4,10.6-4.7,17.2-2.3c3.3,1.2,8.6,9.9,11.6,11.9c21.8,14.6,37.7,22.7,42.8,47.6c-20.5,10.5-47.3,23.7-63.9,10.5
							c11.8-14.9,36.3-13.4,51.4-36.2c44.7,1.4,25.8-19.4,65.1-33c21.6-7.5,40.9-18.5,60.2-30.4c23.4-14.4,25.5-11.6,33-16.4
							c11.4-7.2,23-25.2,33.8-29.2c4.6-1.7,10.6-0.9,13.2,3.3c1.7,2.7,1.6,6.1,2.2,9.2c4.2,23.7,39.5,38.6,52.8,62.1
							c7.1,12.5,2.7,13.3,6.6,24.5c0.9,2.5,4.6,4.5,6.6,6.2c7.8,6.2,15,7.5,24,3.2c1.7,9.2,15.5,13.2,15.6,22.6
							c0.3,16.4-36.9,13.4-53.3,12.2c-2.5-12.1,17.2-12.9,40.1-39.4c3.5-4,15-9.9,18.5-13.8c6.3-7.1,7.9-12.1,14.1-16.7
							c2-1.5,4.9-1.1,6.5,0.9c3.9,5.1,10.6,8,15.2,12.9c12.5,13.3,1.2,21.2,50.2,57.2c12.1,8.9,27.1,17.9,39.2,7.8"/>
					</g>
				</g>
			</g>
		</g>
	</g>
</g>
</svg>
