<?xml version="1.0" encoding="utf-8"?>
<!-- Generator: Adobe Illustrator 27.6.1, SVG Export Plug-In . SVG Version: 6.00 Build 0)  -->
<svg version="1.1" id="Layer_1" xmlns="http://www.w3.org/2000/svg" xmlns:xlink="http://www.w3.org/1999/xlink" x="0px" y="0px"
	 viewBox="0 0 841.9 595.3" style="enable-background:new 0 0 841.9 595.3;" xml:space="preserve">
<style type="text/css">
	.st0{fill:url(#SVGID_1_);filter:url(#Adobe_OpacityMaskFilter);stroke:#1D1D1B;stroke-miterlimit:10;}
	.st1{opacity:0.25;mask:url(#a_00000142148764523703488080000012148630466935076265_);}
	.st2{fill:none;stroke:#78716C;stroke-width:2;stroke-miterlimit:10;}
</style>
<defs>
	<filter id="Adobe_OpacityMaskFilter" filterUnits="userSpaceOnUse" x="-170.3" y="-112.3" width="1117.9" height="805.9">
		<feColorMatrix  type="matrix" values="1 0 0 0 0  0 1 0 0 0  0 0 1 0 0  0 0 0 1 0"/>
	</filter>
</defs>
<mask maskUnits="userSpaceOnUse" x="-170.3" y="-112.3" width="1117.9" height="805.9" id="a_00000142148764523703488080000012148630466935076265_">
	
		<radialGradient id="SVGID_1_" cx="877.7605" cy="607.9393" r="678.7432" gradientTransform="matrix(0.8785 -0.4777 -0.3369 -0.6197 311.4191 783.3393)" gradientUnits="userSpaceOnUse">
		<stop  offset="0" style="stop-color:#FFFFFF"/>
		<stop  offset="1" style="stop-color:#000000"/>
	</radialGradient>
	<path class="st0" d="M0,0h841.9v595.3H0V0z"/>
</mask>
<g class="st1">
	<path class="st2" d="M371.9-34.8L396.8-18l27.1-13.1l2.1-30.1L401.1-78L374-64.9L371.9-34.8z"/>
	<path class="st2" d="M319.8-38.5l25,16.9l27.1-13.2l2.1-30.1l-25-16.8l-27.1,13.2L319.8-38.5z"/>
	<path class="st2" d="M267.8-42.2l24.9,16.9l27.1-13.2l2.1-30L297-85.4l-27.1,13.2L267.8-42.2z"/>
	<path class="st2" d="M215.7-45.8l25,16.8l27.1-13.2l2.1-30l-25-16.9l-27,13.2L215.7-45.8z"/>
	<path class="st2" d="M163.7-49.5l25,16.9l27-13.2l2.2-30.1l-25-16.8l-27.1,13.2L163.7-49.5z"/>
	<path class="st2" d="M111.7-53.2l24.9,16.9l27.1-13.2l2.1-30l-24.9-16.9l-27.1,13.2L111.7-53.2z"/>
	<path class="st2" d="M59.6-56.8l25,16.8l27.1-13.2l2.1-30l-25-16.9L61.7-86.9L59.6-56.8z"/>
	<path class="st2" d="M7.6-60.5l24.9,16.8l27.1-13.1l2.1-30.1l-24.9-16.9L9.7-90.6L7.6-60.5z"/>
	<path class="st2" d="M-44.5-64.2l25,16.9L7.6-60.5l2.1-30.1l-25-16.8l-27,13.2L-44.5-64.2z"/>
	<path class="st2" d="M-96.5-67.9L-71.6-51l27.1-13.2l2.2-30l-25-16.9l-27.1,13.2L-96.5-67.9z"/>
	<path class="st2" d="M343.1,8.2L368,25.1l27.1-13.2l2.1-30L372.3-35l-27.1,13.2L343.1,8.2z"/>
	<path class="st2" d="M291,4.6l25,16.8l27.1-13.2l2.1-30l-25-16.9l-27.1,13.2L291,4.6z"/>
	<path class="st2" d="M239,0.9l24.9,16.8L291,4.6l2.1-30.1l-24.9-16.8l-27.1,13.1L239,0.9z"/>
	<path class="st2" d="M186.9-2.8l25,16.9L239,0.9l2.1-30.1l-25-16.8L189-32.8L186.9-2.8z"/>
	<path class="st2" d="M134.9-6.5l24.9,16.9l27.1-13.2l2.1-30l-24.9-16.9L137-36.5L134.9-6.5z"/>
	<path class="st2" d="M82.8-10.1l25,16.8l27.1-13.2l2.1-30l-25-16.9L85-40.2L82.8-10.1z"/>
	<path class="st2" d="M30.8-13.8l25,16.9l27-13.2L85-40.2L60-57L32.9-43.8L30.8-13.8z"/>
	<path class="st2" d="M-21.2-17.5L3.7-0.6l27.1-13.2l2.1-30L8-60.7l-27.1,13.2L-21.2-17.5z"/>
	<path class="st2" d="M-73.3-21.1l25,16.8l27.1-13.2l2.1-30l-25-16.9l-27.1,13.2L-73.3-21.1z"/>
	<path class="st2" d="M-125.3-24.8L-100.4-8l27.1-13.1l2.1-30.1l-24.9-16.9l-27.1,13.2L-125.3-24.8z"/>
	<path class="st2" d="M365.5,55.3l25,16.9L417.6,59l2.1-30l-25-16.9l-27.1,13.2L365.5,55.3z"/>
	<path class="st2" d="M313.5,51.7l24.9,16.8l27.1-13.2l2.1-30L342.7,8.4l-27.1,13.2L313.5,51.7z"/>
	<path class="st2" d="M261.4,48l25,16.8l27.1-13.1l2.1-30.1l-25-16.9l-27.1,13.2L261.4,48z"/>
	<path class="st2" d="M209.4,44.3l24.9,16.9L261.4,48l2.1-30.1L238.6,1.1l-27.1,13.2L209.4,44.3z"/>
	<path class="st2" d="M157.3,40.6l25,16.9l27.1-13.2l2.1-30l-25-16.9l-27,13.2L157.3,40.6z"/>
	<path class="st2" d="M105.3,37l25,16.8l27-13.2l2.2-30l-25-16.9L107.4,6.9L105.3,37z"/>
	<path class="st2" d="M53.3,33.3l24.9,16.9L105.3,37l2.1-30.1L82.5-9.9L55.4,3.2L53.3,33.3z"/>
	<path class="st2" d="M1.2,29.6l25,16.9l27.1-13.2l2.1-30.1l-25-16.8L3.3-0.4L1.2,29.6z"/>
	<path class="st2" d="M-50.8,25.9l24.9,16.9L1.2,29.6l2.1-30l-24.9-16.9L-48.7-4.1L-50.8,25.9z"/>
	<path class="st2" d="M-102.9,22.3l25,16.8l27.1-13.2l2.1-30l-25-16.9l-27.1,13.2L-102.9,22.3z"/>
	<path class="st2" d="M336.7,98.4l25,16.8l27-13.2l2.2-30l-25-16.9l-27.1,13.2L336.7,98.4z"/>
	<path class="st2" d="M284.6,94.7l25,16.9l27.1-13.2l2.1-30.1l-25-16.8l-27,13.2L284.6,94.7z"/>
	<path class="st2" d="M232.6,91l25,16.9l27-13.2l2.2-30l-25-16.9L234.7,61L232.6,91z"/>
	<path class="st2" d="M180.6,87.4l24.9,16.8L232.6,91l2.1-30l-24.9-16.9l-27.1,13.2L180.6,87.4z"/>
	<path class="st2" d="M128.5,83.7l25,16.8l27.1-13.1l2.1-30.1l-25-16.8l-27.1,13.1L128.5,83.7z"/>
	<path class="st2" d="M76.5,80l24.9,16.9l27.1-13.2l2.1-30.1l-24.9-16.8L78.6,50L76.5,80z"/>
	<path class="st2" d="M24.4,76.3l25,16.9L76.5,80l2.1-30l-25-16.9l-27,13.2L24.4,76.3z"/>
	<path class="st2" d="M-27.6,72.7l25,16.8l27-13.2l2.2-30l-25-16.9l-27.1,13.2L-27.6,72.7z"/>
	<path class="st2" d="M-79.6,69l24.9,16.9l27.1-13.2l2.1-30.1l-24.9-16.8l-27.1,13.1L-79.6,69z"/>
	<path class="st2" d="M-131.7,65.3l25,16.9L-79.6,69l2.1-30.1l-25-16.8l-27.1,13.2L-131.7,65.3z"/>
	<path class="st2" d="M359.1,145.5l25,16.8l27.1-13.2l2.1-30l-25-16.9l-27,13.2L359.1,145.5z"/>
	<path class="st2" d="M307.1,141.8l25,16.9l27-13.2l2.2-30.1l-25-16.8l-27.1,13.1L307.1,141.8z"/>
	<path class="st2" d="M255.1,138.1L280,155l27.1-13.2l2.1-30.1l-24.9-16.8l-27.1,13.2L255.1,138.1z"/>
	<path class="st2" d="M203,134.5l25,16.8l27.1-13.2l2.1-30l-25-16.9l-27.1,13.2L203,134.5z"/>
	<path class="st2" d="M151,130.8l24.9,16.8l27.1-13.1l2.1-30.1l-24.9-16.9l-27.1,13.2L151,130.8z"/>
	<path class="st2" d="M98.9,127.1l25,16.9l27.1-13.2l2.1-30.1l-25-16.8l-27,13.2L98.9,127.1z"/>
	<path class="st2" d="M46.9,123.4l25,16.9l27-13.2l2.2-30l-25-16.9L49,93.4L46.9,123.4z"/>
	<path class="st2" d="M-5.2,119.8l25,16.8l27.1-13.2l2.1-30L24.1,76.5L-3,89.7L-5.2,119.8z"/>
	<path class="st2" d="M-57.2,116.1l25,16.8l27-13.1L-3,89.7l-25-16.8L-55.1,86L-57.2,116.1z"/>
	<path class="st2" d="M-109.2,112.4l24.9,16.9l27.1-13.2l2.1-30.1L-80,69.2l-27.1,13.2L-109.2,112.4z"/>
	<path class="st2" d="M330.3,188.5l25,16.9l27.1-13.2l2.1-30.1l-25-16.8l-27.1,13.2L330.3,188.5z"/>
	<path class="st2" d="M278.3,184.8l24.9,16.9l27.1-13.2l2.1-30l-24.9-16.9l-27.1,13.2L278.3,184.8z"/>
	<path class="st2" d="M226.2,181.2l25,16.8l27.1-13.2l2.1-30l-25-16.9l-27,13.2L226.2,181.2z"/>
	<path class="st2" d="M174.2,177.5l25,16.9l27-13.2l2.2-30.1l-25-16.8l-27.1,13.2L174.2,177.5z"/>
	<path class="st2" d="M122.2,173.8l24.9,16.9l27.1-13.2l2.1-30l-24.9-16.9l-27.1,13.2L122.2,173.8z"/>
	<path class="st2" d="M70.1,170.2l25,16.8l27.1-13.2l2.1-30l-25-16.9l-27.1,13.2L70.1,170.2z"/>
	<path class="st2" d="M18.1,166.5L43,183.3l27.1-13.1l2.1-30.1l-24.9-16.9l-27.1,13.2L18.1,166.5z"/>
	<path class="st2" d="M-34,162.8l25,16.9l27.1-13.2l2.1-30.1l-25-16.8l-27,13.2L-34,162.8z"/>
	<path class="st2" d="M-86,159.1l24.9,16.9l27.1-13.2l2.2-30l-25-16.9l-27.1,13.2L-86,159.1z"/>
	<path class="st2" d="M-138.1,155.5l25,16.8l27.1-13.2l2.1-30l-25-16.9l-27,13.2L-138.1,155.5z"/>
	<path class="st2" d="M352.8,235.6l24.9,16.9l27.1-13.2l2.1-30.1L382,192.4l-27.1,13.2L352.8,235.6z"/>
	<path class="st2" d="M300.7,231.9l25,16.9l27.1-13.2l2.1-30l-25-16.9l-27,13.2L300.7,231.9z"/>
	<path class="st2" d="M248.7,228.3l25,16.8l27-13.2l2.2-30l-25-16.9l-27.1,13.2L248.7,228.3z"/>
	<path class="st2" d="M196.7,224.6l24.9,16.9l27.1-13.2l2.1-30.1l-24.9-16.8l-27.1,13.1L196.7,224.6z"/>
	<path class="st2" d="M144.6,220.9l25,16.9l27.1-13.2l2.1-30.1l-25-16.8l-27.1,13.2L144.6,220.9z"/>
	<path class="st2" d="M92.6,217.2l24.9,16.9l27.1-13.2l2.1-30L121.8,174l-27.1,13.2L92.6,217.2z"/>
	<path class="st2" d="M40.5,213.6l25,16.8l27.1-13.2l2.1-30l-25-16.9l-27,13.2L40.5,213.6z"/>
	<path class="st2" d="M-11.5,209.9l24.9,16.9l27.1-13.2l2.2-30.1l-25-16.8l-27.1,13.2L-11.5,209.9z"/>
	<path class="st2" d="M-63.6,206.2l25,16.9l27.1-13.2l2.1-30l-25-16.9l-27,13.2L-63.6,206.2z"/>
	<path class="st2" d="M-115.6,202.6l25,16.8l27-13.2l2.2-30l-25-16.9l-27.1,13.2L-115.6,202.6z"/>
	<path class="st2" d="M324,278.7l24.9,16.8l27.1-13.2l2.1-30l-24.9-16.9l-27.1,13.2L324,278.7z"/>
	<path class="st2" d="M271.9,275l25,16.8l27.1-13.1l2.1-30.1l-25-16.9L274,244.9L271.9,275z"/>
	<path class="st2" d="M219.9,271.3l24.9,16.9l27.1-13.2l2.1-30.1l-24.9-16.8L222,241.3L219.9,271.3z"/>
	<path class="st2" d="M167.8,267.6l25,16.9l27.1-13.2l2.1-30l-25-16.9l-27,13.2L167.8,267.6z"/>
	<path class="st2" d="M115.8,264l25,16.8l27-13.2l2.2-30l-25-16.9l-27.1,13.2L115.8,264z"/>
	<path class="st2" d="M63.8,260.3l24.9,16.9l27.1-13.2l2.1-30.1L93,217.1l-27.1,13.1L63.8,260.3z"/>
	<path class="st2" d="M11.7,256.6l25,16.9l27.1-13.2l2.1-30.1l-25-16.8l-27.1,13.2L11.7,256.6z"/>
	<path class="st2" d="M-40.3,252.9l24.9,16.9l27.1-13.2l2.1-30l-24.9-16.9l-27.1,13.2L-40.3,252.9z"/>
	<path class="st2" d="M-92.4,249.3l25,16.8l27.1-13.2l2.1-30l-25-16.9l-27.1,13.2L-92.4,249.3z"/>
	<path class="st2" d="M-144.4,245.6l24.9,16.9l27.1-13.2l2.1-30.1l-24.9-16.8l-27.1,13.2L-144.4,245.6z"/>
	<path class="st2" d="M892.4,0.7l24.9,16.9l27.1-13.2l2.1-30.1l-24.9-16.8l-27.1,13.2L892.4,0.7z"/>
	<path class="st2" d="M840.3-3l25,16.9l27.1-13.2l2.1-30l-25-16.9l-27,13.2L840.3-3z"/>
	<path class="st2" d="M788.3-6.6l25,16.8l27-13.2l2.2-30l-25-16.9l-27.1,13.2L788.3-6.6z"/>
	<path class="st2" d="M736.3-10.3l24.9,16.8l27.1-13.1l2.1-30.1l-24.9-16.9l-27.1,13.2L736.3-10.3z"/>
	<path class="st2" d="M684.2-14l25,16.9l27.1-13.2l2.1-30.1l-25-16.8L686.3-44L684.2-14z"/>
	<path class="st2" d="M632.2-17.7l24.9,16.9L684.2-14l2.1-30l-24.9-16.9l-27.1,13.2L632.2-17.7z"/>
	<path class="st2" d="M580.1-21.3l25,16.8l27.1-13.2l2.1-30l-25-16.9l-27.1,13.2L580.1-21.3z"/>
	<path class="st2" d="M528.1-25L553-8.1l27.1-13.2l2.1-30.1l-24.9-16.8l-27.1,13.1L528.1-25z"/>
	<path class="st2" d="M476-28.7l25,16.9L528.1-25l2.1-30.1l-25-16.8l-27,13.2L476-28.7z"/>
	<path class="st2" d="M424-32.4l25,16.9l27-13.2l2.2-30l-25-16.9l-27.1,13.2L424-32.4z"/>
	<path class="st2" d="M863.6,43.7l24.9,16.9l27.1-13.2l2.1-30L892.8,0.5l-27.1,13.2L863.6,43.7z"/>
	<path class="st2" d="M811.5,40.1l25,16.8l27.1-13.2l2.1-30l-25-16.9L813.6,10L811.5,40.1z"/>
	<path class="st2" d="M759.5,36.4l24.9,16.9l27.1-13.2l2.1-30.1L788.7-6.8L761.6,6.4L759.5,36.4z"/>
	<path class="st2" d="M707.4,32.7l25,16.9l27.1-13.2l2.1-30l-25-16.9l-27,13.2L707.4,32.7z"/>
	<path class="st2" d="M655.4,29.1l25,16.8l27-13.2l2.2-30l-25-16.9L657.5-1L655.4,29.1z"/>
	<path class="st2" d="M603.3,25.4l25,16.8l27.1-13.1L657.5-1l-24.9-16.9L605.5-4.7L603.3,25.4z"/>
	<path class="st2" d="M551.3,21.7l25,16.9l27-13.2l2.2-30.1l-25-16.8L553.4-8.3L551.3,21.7z"/>
	<path class="st2" d="M499.3,18l24.9,16.9l27.1-13.2l2.1-30l-24.9-16.9L501.4-12L499.3,18z"/>
	<path class="st2" d="M447.2,14.4l25,16.8L499.3,18l2.1-30l-25-16.9l-27.1,13.2L447.2,14.4z"/>
	<path class="st2" d="M395.2,10.7l24.9,16.9l27.1-13.2l2.1-30.1l-24.9-16.8l-27.1,13.1L395.2,10.7z"/>
	<path class="st2" d="M886,90.8l25,16.9l27.1-13.2l2.1-30l-25-16.9l-27.1,13.2L886,90.8z"/>
	<path class="st2" d="M834,87.2l24.9,16.8L886,90.8l2.1-30l-24.9-16.9l-27.1,13.2L834,87.2z"/>
	<path class="st2" d="M781.9,83.5l25,16.9L834,87.2l2.1-30.1l-25-16.8l-27,13.1L781.9,83.5z"/>
	<path class="st2" d="M729.9,79.8l25,16.9l27-13.2l2.2-30.1l-25-16.8L732,49.8L729.9,79.8z"/>
	<path class="st2" d="M677.8,76.1l25,16.9l27.1-13.2l2.1-30l-24.9-16.9L680,46.1L677.8,76.1z"/>
	<path class="st2" d="M625.8,72.5l25,16.8l27-13.2l2.2-30l-25-16.9l-27.1,13.2L625.8,72.5z"/>
	<path class="st2" d="M573.8,68.8l24.9,16.9l27.1-13.2l2.1-30.1L603,25.6l-27.1,13.2L573.8,68.8z"/>
	<path class="st2" d="M521.7,65.1l25,16.9l27.1-13.2l2.1-30l-25-16.9l-27.1,13.2L521.7,65.1z"/>
	<path class="st2" d="M469.7,61.5l24.9,16.8l27.1-13.2l2.1-30l-24.9-16.9l-27.1,13.2L469.7,61.5z"/>
	<path class="st2" d="M417.6,57.8l25,16.8l27.1-13.1l2.1-30.1l-25-16.8l-27,13.1L417.6,57.8z"/>
	<path class="st2" d="M857.2,133.9l25,16.8l27-13.1l2.2-30.1l-25-16.8l-27.1,13.1L857.2,133.9z"/>
	<path class="st2" d="M805.2,130.2l24.9,16.9l27.1-13.2l2.1-30.1L834.4,87l-27.1,13.2L805.2,130.2z"/>
	<path class="st2" d="M753.1,126.5l25,16.9l27.1-13.2l2.1-30l-25-16.9l-27.1,13.2L753.1,126.5z"/>
	<path class="st2" d="M701.1,122.9l24.9,16.8l27.1-13.2l2.1-30l-24.9-16.9l-27.1,13.2L701.1,122.9z"/>
	<path class="st2" d="M649,119.2l25,16.9l27.1-13.2l2.1-30.1l-25-16.8l-27,13.1L649,119.2z"/>
	<path class="st2" d="M597,115.5l24.9,16.9l27.1-13.2l2.2-30.1l-25-16.8l-27.1,13.2L597,115.5z"/>
	<path class="st2" d="M544.9,111.9l25,16.8l27.1-13.2l2.1-30l-25-16.9l-27,13.2L544.9,111.9z"/>
	<path class="st2" d="M492.9,108.2l25,16.8l27-13.1l2.2-30.1l-25-16.9L495,78.1L492.9,108.2z"/>
	<path class="st2" d="M440.9,104.5l24.9,16.9l27.1-13.2l2.1-30.1l-24.9-16.8L443,74.5L440.9,104.5z"/>
	<path class="st2" d="M388.8,100.8l25,16.9l27.1-13.2l2.1-30l-25-16.9l-27.1,13.2L388.8,100.8z"/>
	<path class="st2" d="M879.7,181l24.9,16.8l27.1-13.1l2.1-30.1l-24.9-16.9l-27.1,13.2L879.7,181z"/>
	<path class="st2" d="M827.6,177.3l25,16.9l27.1-13.2l2.1-30.1l-25-16.8l-27.1,13.2L827.6,177.3z"/>
	<path class="st2" d="M775.6,173.6l24.9,16.9l27.1-13.2l2.1-30l-24.9-16.9l-27.1,13.2L775.6,173.6z"/>
	<path class="st2" d="M723.5,170l25,16.8l27.1-13.2l2.1-30l-25-16.9l-27,13.2L723.5,170z"/>
	<path class="st2" d="M671.5,166.3l24.9,16.8l27.1-13.1l2.2-30.1l-25-16.8l-27.1,13.1L671.5,166.3z"/>
	<path class="st2" d="M619.4,162.6l25,16.9l27.1-13.2l2.1-30.1l-25-16.8l-27,13.2L619.4,162.6z"/>
	<path class="st2" d="M567.4,158.9l25,16.9l27-13.2l2.2-30l-25-16.9l-27.1,13.2L567.4,158.9z"/>
	<path class="st2" d="M515.4,155.3l24.9,16.8l27.1-13.2l2.1-30L544.6,112l-27.1,13.2L515.4,155.3z"/>
	<path class="st2" d="M463.3,151.6l25,16.9l27.1-13.2l2.1-30.1l-25-16.8l-27.1,13.2L463.3,151.6z"/>
	<path class="st2" d="M411.3,147.9l24.9,16.9l27.1-13.2l2.1-30l-24.9-16.9l-27.1,13.2L411.3,147.9z"/>
	<path class="st2" d="M850.8,224l25,16.9l27.1-13.2l2.1-30l-25-16.9L853,194L850.8,224z"/>
	<path class="st2" d="M798.8,220.4l25,16.8l27-13.2l2.2-30l-25-16.9l-27.1,13.2L798.8,220.4z"/>
	<path class="st2" d="M746.8,216.7l24.9,16.8l27.1-13.1l2.1-30.1L776,173.4l-27.1,13.2L746.8,216.7z"/>
	<path class="st2" d="M694.7,213l25,16.9l27.1-13.2l2.1-30.1l-25-16.8L696.8,183L694.7,213z"/>
	<path class="st2" d="M642.7,209.3l24.9,16.9l27.1-13.2l2.1-30l-24.9-16.9l-27.1,13.2L642.7,209.3z"/>
	<path class="st2" d="M590.6,205.7l25,16.8l27.1-13.2l2.1-30l-25-16.9l-27.1,13.2L590.6,205.7z"/>
	<path class="st2" d="M538.6,202l24.9,16.9l27.1-13.2l2.1-30.1l-24.9-16.8l-27.1,13.1L538.6,202z"/>
	<path class="st2" d="M486.5,198.3l25,16.9l27.1-13.2l2.1-30.1l-25-16.8l-27,13.2L486.5,198.3z"/>
	<path class="st2" d="M434.5,194.6l25,16.9l27-13.2l2.2-30l-25-16.9l-27.1,13.2L434.5,194.6z"/>
	<path class="st2" d="M382.5,191l24.9,16.8l27.1-13.2l2.1-30l-24.9-16.9l-27.1,13.2L382.5,191z"/>
	<path class="st2" d="M873.3,271.1l25,16.9l27-13.2l2.2-30.1l-25-16.8l-27.1,13.2L873.3,271.1z"/>
	<path class="st2" d="M821.3,267.4l24.9,16.9l27.1-13.2l2.1-30l-24.9-16.9l-27.1,13.2L821.3,267.4z"/>
	<path class="st2" d="M769.2,263.8l25,16.8l27.1-13.2l2.1-30l-25-16.9l-27.1,13.2L769.2,263.8z"/>
	<path class="st2" d="M717.2,260.1l24.9,16.9l27.1-13.2l2.1-30.1l-24.9-16.8l-27.1,13.2L717.2,260.1z"/>
	<path class="st2" d="M665.1,256.4l25,16.9l27.1-13.2l2.1-30l-25-16.9l-27.1,13.2L665.1,256.4z"/>
	<path class="st2" d="M613.1,252.8l24.9,16.8l27.1-13.2l2.1-30l-24.9-16.9l-27.1,13.2L613.1,252.8z"/>
	<path class="st2" d="M561,249.1l25,16.8l27.1-13.1l2.1-30.1l-25-16.8l-27,13.1L561,249.1z"/>
	<path class="st2" d="M509,245.4l25,16.9l27-13.2l2.2-30.1l-25-16.8l-27.1,13.2L509,245.4z"/>
	<path class="st2" d="M457,241.7l24.9,16.9l27.1-13.2l2.1-30l-24.9-16.9l-27.1,13.2L457,241.7z"/>
	<path class="st2" d="M404.9,238.1l25,16.8l27.1-13.2l2.1-30l-25-16.9L407,208L404.9,238.1z"/>
	<path class="st2" d="M844.5,314.2l24.9,16.8l27.1-13.2l2.1-30l-24.9-16.9l-27.1,13.2L844.5,314.2z"/>
	<path class="st2" d="M792.4,310.5l25,16.9l27.1-13.2l2.1-30.1l-25-16.8l-27,13.1L792.4,310.5z"/>
	<path class="st2" d="M740.4,306.8l25,16.9l27-13.2l2.2-30.1l-25-16.8l-27.1,13.2L740.4,306.8z"/>
	<path class="st2" d="M688.3,303.1l25,16.9l27.1-13.2l2.1-30l-24.9-16.9l-27.1,13.2L688.3,303.1z"/>
	<path class="st2" d="M636.3,299.5l25,16.8l27-13.2l2.2-30l-25-16.9l-27.1,13.2L636.3,299.5z"/>
	<path class="st2" d="M584.3,295.8l24.9,16.9l27.1-13.2l2.1-30.1l-24.9-16.8l-27.1,13.2L584.3,295.8z"/>
	<path class="st2" d="M532.2,292.1l25,16.9l27.1-13.2l2.1-30l-25-16.9l-27.1,13.2L532.2,292.1z"/>
	<path class="st2" d="M480.2,288.5l24.9,16.8l27.1-13.2l2.1-30l-24.9-16.9l-27.1,13.2L480.2,288.5z"/>
	<path class="st2" d="M428.1,284.8l25,16.8l27.1-13.1l2.1-30.1l-25-16.8l-27,13.1L428.1,284.8z"/>
	<path class="st2" d="M376.1,281.1l25,16.9l27-13.2l2.2-30.1l-25-16.8l-27.1,13.2L376.1,281.1z"/>
	<path class="st2" d="M867.5,362.2l24.9,16.8l27.1-13.2l2.1-30l-24.9-16.9l-27.1,13.2L867.5,362.2z"/>
	<path class="st2" d="M815.4,358.5l25,16.9l27.1-13.2l2.1-30.1l-25-16.8l-27.1,13.2L815.4,358.5z"/>
	<path class="st2" d="M763.4,354.8l24.9,16.9l27.1-13.2l2.1-30l-24.9-16.9l-27.1,13.2L763.4,354.8z"/>
	<path class="st2" d="M711.3,351.2l25,16.8l27.1-13.2l2.1-30l-25-16.9l-27.1,13.2L711.3,351.2z"/>
	<path class="st2" d="M659.3,347.5l24.9,16.8l27.1-13.1l2.1-30.1l-24.9-16.9l-27.1,13.2L659.3,347.5z"/>
	<path class="st2" d="M607.2,343.8l25,16.9l27.1-13.2l2.1-30.1l-25-16.8l-27,13.2L607.2,343.8z"/>
	<path class="st2" d="M555.2,340.1l25,16.9l27-13.2l2.2-30l-25-16.9l-27.1,13.2L555.2,340.1z"/>
	<path class="st2" d="M503.2,336.5l24.9,16.8l27.1-13.2l2.1-30l-24.9-16.9l-27.1,13.2L503.2,336.5z"/>
	<path class="st2" d="M451.1,332.8l25,16.8l27.1-13.1l2.1-30.1l-25-16.8l-27.1,13.1L451.1,332.8z"/>
	<path class="st2" d="M399.1,329.1L424,346l27.1-13.2l2.1-30.1l-24.9-16.8l-27.1,13.2L399.1,329.1z"/>
	<path class="st2" d="M838.6,405.2l25,16.9l27.1-13.2l2.1-30.1l-25-16.8l-27,13.2L838.6,405.2z"/>
	<path class="st2" d="M786.6,401.5l25,16.9l27-13.2l2.2-30l-25-16.9l-27.1,13.2L786.6,401.5z"/>
	<path class="st2" d="M734.6,397.9l24.9,16.8l27.1-13.2l2.1-30l-24.9-16.9l-27.1,13.2L734.6,397.9z"/>
	<path class="st2" d="M682.5,394.2l25,16.9l27.1-13.2l2.1-30.1l-25-16.8l-27.1,13.2L682.5,394.2z"/>
	<path class="st2" d="M630.5,390.5l24.9,16.9l27.1-13.2l2.1-30l-24.9-16.9l-27.1,13.2L630.5,390.5z"/>
	<path class="st2" d="M578.4,386.9l25,16.8l27.1-13.2l2.1-30l-25-16.9l-27.1,13.2L578.4,386.9z"/>
	<path class="st2" d="M526.4,383.2l24.9,16.8l27.1-13.1l2.1-30.1l-24.9-16.9l-27.1,13.2L526.4,383.2z"/>
	<path class="st2" d="M474.3,379.5l25,16.9l27.1-13.2l2.1-30.1l-25-16.8l-27,13.2L474.3,379.5z"/>
	<path class="st2" d="M422.3,375.8l25,16.9l27-13.2l2.2-30l-25-16.9l-27.1,13.2L422.3,375.8z"/>
	<path class="st2" d="M370.3,372.2l24.9,16.8l27.1-13.2l2.1-30l-24.9-16.9l-27.1,13.2L370.3,372.2z"/>
	<path class="st2" d="M861.1,452.3l25,16.9l27-13.2l2.2-30.1l-25-16.8l-27.1,13.2L861.1,452.3z"/>
	<path class="st2" d="M809.1,448.6l24.9,16.9l27.1-13.2l2.1-30l-24.9-16.9l-27.1,13.2L809.1,448.6z"/>
	<path class="st2" d="M757,445l25,16.8l27.1-13.2l2.1-30l-25-16.9l-27.1,13.2L757,445z"/>
	<path class="st2" d="M705,441.3l24.9,16.9L757,445l2.1-30.1l-24.9-16.8l-27.1,13.1L705,441.3z"/>
	<path class="st2" d="M652.9,437.6l25,16.9l27.1-13.2l2.1-30.1l-25-16.8L655,407.6L652.9,437.6z"/>
	<path class="st2" d="M600.9,433.9l24.9,16.9l27.1-13.2l2.1-30l-24.9-16.9L603,403.9L600.9,433.9z"/>
	<path class="st2" d="M548.8,430.3l25,16.8l27.1-13.2l2.1-30L578,387l-27,13.2L548.8,430.3z"/>
	<path class="st2" d="M496.8,426.6l25,16.9l27-13.2l2.2-30.1l-25-16.8l-27.1,13.2L496.8,426.6z"/>
	<path class="st2" d="M444.8,422.9l24.9,16.9l27.1-13.2l2.1-30L474,379.7l-27.1,13.2L444.8,422.9z"/>
	<path class="st2" d="M392.7,419.3l25,16.8l27.1-13.2l2.1-30l-25-16.9l-27.1,13.2L392.7,419.3z"/>
	<path class="st2" d="M832.3,495.4l24.9,16.8l27.1-13.2l2.1-30l-24.9-16.9l-27.1,13.2L832.3,495.4z"/>
	<path class="st2" d="M780.2,491.7l25,16.8l27.1-13.1l2.1-30.1l-25-16.8l-27,13.1L780.2,491.7z"/>
	<path class="st2" d="M728.2,488l25,16.9l27-13.2l2.2-30.1l-25-16.8L730.3,458L728.2,488z"/>
	<path class="st2" d="M676.1,484.3l25,16.9l27.1-13.2l2.1-30l-25-16.9l-27,13.2L676.1,484.3z"/>
	<path class="st2" d="M624.1,480.7l25,16.8l27-13.2l2.2-30l-25-16.9l-27.1,13.2L624.1,480.7z"/>
	<path class="st2" d="M572.1,477l24.9,16.9l27.1-13.2l2.1-30.1l-24.9-16.8l-27.1,13.1L572.1,477z"/>
	<path class="st2" d="M520,473.3l25,16.9l27.1-13.2l2.1-30.1l-25-16.8l-27.1,13.2L520,473.3z"/>
	<path class="st2" d="M468,469.6l24.9,16.9l27.1-13.2l2.1-30l-24.9-16.9l-27.1,13.2L468,469.6z"/>
	<path class="st2" d="M415.9,466l25,16.8l27.1-13.2l2.1-30l-25-16.9l-27,13.2L415.9,466z"/>
	<path class="st2" d="M363.9,462.3l25,16.9l27-13.2l2.2-30.1l-25-16.8L366,432.3L363.9,462.3z"/>
	<path class="st2" d="M854.7,542.5l25,16.8l27.1-13.2l2.1-30l-25-16.9l-27,13.2L854.7,542.5z"/>
	<path class="st2" d="M802.7,538.8l25,16.8l27-13.1l2.2-30.1l-25-16.9l-27.1,13.2L802.7,538.8z"/>
	<path class="st2" d="M750.6,535.1l25,16.9l27.1-13.2l2.1-30.1l-25-16.8l-27,13.2L750.6,535.1z"/>
	<path class="st2" d="M698.6,531.4l25,16.9l27-13.2l2.2-30l-25-16.9l-27.1,13.2L698.6,531.4z"/>
	<path class="st2" d="M646.6,527.8l24.9,16.8l27.1-13.2l2.1-30l-24.9-16.9l-27.1,13.2L646.6,527.8z"/>
	<path class="st2" d="M594.5,524.1l25,16.8l27.1-13.1l2.1-30.1l-25-16.8L596.6,494L594.5,524.1z"/>
	<path class="st2" d="M542.5,520.4l24.9,16.9l27.1-13.2l2.1-30.1l-24.9-16.8l-27.1,13.2L542.5,520.4z"/>
	<path class="st2" d="M490.4,516.7l25,16.9l27.1-13.2l2.1-30l-25-16.9l-27,13.2L490.4,516.7z"/>
	<path class="st2" d="M438.4,513.1l25,16.8l27-13.2l2.2-30l-25-16.9L440.5,483L438.4,513.1z"/>
	<path class="st2" d="M386.3,509.4l25,16.9l27.1-13.2l2.1-30.1l-24.9-16.8l-27.1,13.1L386.3,509.4z"/>
	<path class="st2" d="M825.9,585.5l25,16.9l27.1-13.2l2.1-30.1l-25-16.8L828,555.5L825.9,585.5z"/>
	<path class="st2" d="M773.9,581.8l24.9,16.9l27.1-13.2l2.1-30l-24.9-16.9L776,551.8L773.9,581.8z"/>
	<path class="st2" d="M721.8,578.2l25,16.8l27.1-13.2l2.1-30l-25-16.9l-27.1,13.2L721.8,578.2z"/>
	<path class="st2" d="M669.8,574.5l24.9,16.8l27.1-13.1l2.1-30.1L699,531.2l-27.1,13.2L669.8,574.5z"/>
	<path class="st2" d="M617.7,570.8l25,16.9l27.1-13.2l2.1-30.1l-25-16.8l-27,13.2L617.7,570.8z"/>
	<path class="st2" d="M565.7,567.1l25,16.9l27-13.2l2.2-30l-25-16.9l-27.1,13.2L565.7,567.1z"/>
	<path class="st2" d="M513.7,563.5l24.9,16.8l27.1-13.2l2.1-30l-24.9-16.9l-27.1,13.2L513.7,563.5z"/>
	<path class="st2" d="M461.6,559.8l25,16.8l27.1-13.1l2.1-30.1l-25-16.8l-27.1,13.1L461.6,559.8z"/>
	<path class="st2" d="M409.6,556.1l24.9,16.9l27.1-13.2l2.1-30.1l-24.9-16.8l-27.1,13.2L409.6,556.1z"/>
	<path class="st2" d="M357.5,552.4l25,16.9l27.1-13.2l2.1-30l-25-16.9l-27,13.2L357.5,552.4z"/>
	<path class="st2" d="M848.4,632.6l24.9,16.9l27.1-13.2l2.1-30.1l-24.9-16.8l-27.1,13.1L848.4,632.6z"/>
	<path class="st2" d="M796.3,628.9l25,16.9l27.1-13.2l2.1-30.1l-25-16.8l-27.1,13.2L796.3,628.9z"/>
	<path class="st2" d="M744.3,625.2l24.9,16.9l27.1-13.2l2.1-30L773.5,582l-27.1,13.2L744.3,625.2z"/>
	<path class="st2" d="M692.2,621.6l25,16.8l27.1-13.2l2.1-30l-25-16.9l-27,13.2L692.2,621.6z"/>
	<path class="st2" d="M640.2,617.9l25,16.9l27-13.2l2.2-30.1l-25-16.8l-27.1,13.2L640.2,617.9z"/>
	<path class="st2" d="M588.2,614.2l24.9,16.9l27.1-13.2l2.1-30L617.4,571l-27.1,13.2L588.2,614.2z"/>
	<path class="st2" d="M536.1,610.6l25,16.8l27.1-13.2l2.1-30l-25-16.9l-27.1,13.2L536.1,610.6z"/>
	<path class="st2" d="M484.1,606.9l24.9,16.8l27.1-13.1l2.1-30.1l-24.9-16.9l-27.1,13.2L484.1,606.9z"/>
	<path class="st2" d="M432,603.2l25,16.9l27.1-13.2l2.1-30.1l-25-16.8l-27,13.2L432,603.2z"/>
	<path class="st2" d="M380,599.5l24.9,16.9l27.1-13.2l2.2-30l-25-16.9l-27.1,13.2L380,599.5z"/>
	<path class="st2" d="M819.6,675.6l24.9,16.9l27.1-13.2l2.1-30l-24.9-16.9l-27.1,13.2L819.6,675.6z"/>
	<path class="st2" d="M767.5,672l25,16.8l27.1-13.2l2.1-30l-25-16.9l-27.1,13.2L767.5,672z"/>
	<path class="st2" d="M715.5,668.3l24.9,16.9l27.1-13.2l2.1-30.1l-24.9-16.8l-27.1,13.1L715.5,668.3z"/>
	<path class="st2" d="M663.4,664.6l25,16.9l27.1-13.2l2.1-30.1l-25-16.8l-27.1,13.2L663.4,664.6z"/>
	<path class="st2" d="M611.4,660.9l24.9,16.9l27.1-13.2l2.1-30l-24.9-16.9l-27.1,13.2L611.4,660.9z"/>
	<path class="st2" d="M559.3,657.3l25,16.8l27.1-13.2l2.1-30l-25-16.9l-27,13.2L559.3,657.3z"/>
	<path class="st2" d="M507.3,653.6l25,16.9l27-13.2l2.2-30.1l-25-16.8l-27.1,13.2L507.3,653.6z"/>
	<path class="st2" d="M455.3,649.9l24.9,16.9l27.1-13.2l2.1-30l-24.9-16.9l-27.1,13.2L455.3,649.9z"/>
	<path class="st2" d="M403.2,646.3l25,16.8l27.1-13.2l2.1-30l-25-16.9l-27.1,13.2L403.2,646.3z"/>
	<path class="st2" d="M351.2,642.6l24.9,16.8l27.1-13.1l2.1-30.1l-24.9-16.9l-27.1,13.2L351.2,642.6z"/>
	<path class="st2" d="M347,325.5l25,16.8l27.1-13.2l2.1-30l-25-16.9l-27,13.2L347,325.5z"/>
	<path class="st2" d="M295,321.8l24.9,16.8l27.1-13.1l2.2-30.1l-25-16.9l-27.1,13.2L295,321.8z"/>
	<path class="st2" d="M242.9,318.1l25,16.9l27.1-13.2l2.1-30.1l-25-16.8l-27,13.2L242.9,318.1z"/>
	<path class="st2" d="M190.9,314.4l25,16.9l27-13.2l2.2-30l-25-16.9L193,284.4L190.9,314.4z"/>
	<path class="st2" d="M138.9,310.8l24.9,16.8l27.1-13.2l2.1-30l-24.9-16.9L141,280.7L138.9,310.8z"/>
	<path class="st2" d="M86.8,307.1l25,16.8l27.1-13.1l2.1-30.1l-25-16.8L88.9,277L86.8,307.1z"/>
	<path class="st2" d="M34.8,303.4l24.9,16.9l27.1-13.2l2.1-30.1L64,260.2l-27.1,13.2L34.8,303.4z"/>
	<path class="st2" d="M-17.3,299.7l25,16.9l27.1-13.2l2.1-30l-25-16.9l-27,13.2L-17.3,299.7z"/>
	<path class="st2" d="M-69.3,296.1l25,16.8l27-13.2l2.2-30l-25-16.9L-67.2,266L-69.3,296.1z"/>
	<path class="st2" d="M-121.4,292.4l25,16.9l27.1-13.2l2.1-30.1l-25-16.8l-27,13.2L-121.4,292.4z"/>
	<path class="st2" d="M318.2,368.5l25,16.9l27.1-13.2l2.1-30.1l-25-16.8l-27.1,13.2L318.2,368.5z"/>
	<path class="st2" d="M266.2,364.8l24.9,16.9l27.1-13.2l2.1-30l-24.9-16.9l-27.1,13.2L266.2,364.8z"/>
	<path class="st2" d="M214.1,361.2l25,16.8l27.1-13.2l2.1-30l-25-16.9l-27.1,13.2L214.1,361.2z"/>
	<path class="st2" d="M162.1,357.5l24.9,16.8l27.1-13.1l2.1-30.1l-24.9-16.9l-27.1,13.2L162.1,357.5z"/>
	<path class="st2" d="M110,353.8l25,16.9l27.1-13.2l2.1-30.1l-25-16.8l-27,13.2L110,353.8z"/>
	<path class="st2" d="M58,350.1L83,367l27-13.2l2.2-30l-25-16.9l-27.1,13.2L58,350.1z"/>
	<path class="st2" d="M6,346.5l24.9,16.8L58,350.1l2.1-30l-24.9-16.9L8.1,316.4L6,346.5z"/>
	<path class="st2" d="M-46.1,342.8l25,16.9L6,346.5l2.1-30.1l-25-16.8L-44,312.7L-46.1,342.8z"/>
	<path class="st2" d="M-98.1,339.1l24.9,16.9l27.1-13.2l2.1-30.1l-24.9-16.8L-96,309.1L-98.1,339.1z"/>
	<path class="st2" d="M-150.2,335.4l25,16.9l27.1-13.2l2.1-30l-25-16.9l-27.1,13.2L-150.2,335.4z"/>
	<path class="st2" d="M340.7,415.6l24.9,16.9l27.1-13.2l2.1-30.1l-24.9-16.8l-27.1,13.1L340.7,415.6z"/>
	<path class="st2" d="M288.6,411.9l25,16.9l27.1-13.2l2.1-30.1l-25-16.8l-27.1,13.2L288.6,411.9z"/>
	<path class="st2" d="M236.6,408.2l24.9,16.9l27.1-13.2l2.1-30L265.8,365l-27.1,13.2L236.6,408.2z"/>
	<path class="st2" d="M184.5,404.6l25,16.8l27.1-13.2l2.1-30l-25-16.9l-27,13.2L184.5,404.6z"/>
	<path class="st2" d="M132.5,400.9l25,16.9l27-13.2l2.2-30.1l-25-16.8l-27.1,13.2L132.5,400.9z"/>
	<path class="st2" d="M80.5,397.2l24.9,16.9l27.1-13.2l2.1-30L109.7,354l-27.1,13.2L80.5,397.2z"/>
	<path class="st2" d="M28.4,393.6l25,16.8l27.1-13.2l2.1-30l-25-16.9l-27.1,13.2L28.4,393.6z"/>
	<path class="st2" d="M-23.6,389.9l24.9,16.8l27.1-13.1l2.1-30.1L5.6,346.7l-27.1,13.1L-23.6,389.9z"/>
	<path class="st2" d="M-75.7,386.2l25,16.9l27.1-13.2l2.1-30.1l-25-16.8l-27.1,13.2L-75.7,386.2z"/>
	<path class="st2" d="M-127.7,382.5l24.9,16.9l27.1-13.2l2.1-30l-24.9-16.9l-27.1,13.2L-127.7,382.5z"/>
	<path class="st2" d="M311.8,458.6l25,16.9l27.1-13.2l2.1-30l-24.9-16.9L314,428.6L311.8,458.6z"/>
	<path class="st2" d="M259.8,455l25,16.8l27-13.2l2.2-30l-25-16.9l-27.1,13.2L259.8,455z"/>
	<path class="st2" d="M207.8,451.3l24.9,16.9l27.1-13.2l2.1-30.1L237,408.1l-27.1,13.1L207.8,451.3z"/>
	<path class="st2" d="M155.7,447.6l25,16.9l27.1-13.2l2.1-30.1l-25-16.8l-27.1,13.2L155.7,447.6z"/>
	<path class="st2" d="M103.7,443.9l24.9,16.9l27.1-13.2l2.1-30l-24.9-16.9l-27.1,13.2L103.7,443.9z"/>
	<path class="st2" d="M51.6,440.3l25,16.8l27.1-13.2l2.1-30l-25-16.9l-27,13.2L51.6,440.3z"/>
	<path class="st2" d="M-0.4,436.6l25,16.9l27-13.2l2.2-30.1l-25-16.8L1.7,406.6L-0.4,436.6z"/>
	<path class="st2" d="M-52.4,432.9l24.9,16.9l27.1-13.2l2.1-30l-24.9-16.9l-27.1,13.2L-52.4,432.9z"/>
	<path class="st2" d="M-104.5,429.3l25,16.8l27.1-13.2l2.1-30l-25-16.9l-27.1,13.2L-104.5,429.3z"/>
	<path class="st2" d="M-156.5,425.6l24.9,16.8l27.1-13.1l2.1-30.1l-24.9-16.8l-27.1,13.1L-156.5,425.6z"/>
	<path class="st2" d="M334.3,505.7l25,16.9l27-13.2l2.2-30l-25-16.9l-27.1,13.2L334.3,505.7z"/>
	<path class="st2" d="M282.3,502.1l24.9,16.8l27.1-13.2l2.1-30l-24.9-16.9L284.4,472L282.3,502.1z"/>
	<path class="st2" d="M230.2,498.4l25,16.8l27.1-13.1l2.1-30.1l-25-16.8l-27.1,13.1L230.2,498.4z"/>
	<path class="st2" d="M178.2,494.7l24.9,16.9l27.1-13.2l2.1-30.1l-24.9-16.8l-27.1,13.2L178.2,494.7z"/>
	<path class="st2" d="M126.1,491l25,16.9l27.1-13.2l2.1-30l-25-16.9l-27,13.2L126.1,491z"/>
	<path class="st2" d="M74.1,487.4l25,16.8l27-13.2l2.2-30l-25-16.9l-27.1,13.2L74.1,487.4z"/>
	<path class="st2" d="M22.1,483.7L47,500.6l27.1-13.2l2.1-30.1l-24.9-16.8l-27.1,13.2L22.1,483.7z"/>
	<path class="st2" d="M-30,480l25,16.9l27.1-13.2l2.1-30l-25-16.9L-27.9,450L-30,480z"/>
	<path class="st2" d="M-82,476.4l24.9,16.8L-30,480l2.1-30l-24.9-16.9l-27.1,13.2L-82,476.4z"/>
	<path class="st2" d="M-134.1,472.7l25,16.8l27.1-13.1l2.1-30.1l-25-16.9l-27.1,13.2L-134.1,472.7z"/>
	<path class="st2" d="M305.5,548.8l24.9,16.8l27.1-13.1l2.2-30.1l-25-16.9l-27.1,13.2L305.5,548.8z"/>
	<path class="st2" d="M253.4,545.1l25,16.9l27.1-13.2l2.1-30.1l-25-16.8l-27,13.2L253.4,545.1z"/>
	<path class="st2" d="M201.4,541.4l25,16.9l27-13.2l2.2-30l-25-16.9l-27.1,13.2L201.4,541.4z"/>
	<path class="st2" d="M149.4,537.8l24.9,16.8l27.1-13.2l2.1-30l-24.9-16.9l-27.1,13.2L149.4,537.8z"/>
	<path class="st2" d="M97.3,534.1l25,16.8l27.1-13.1l2.1-30.1l-25-16.8L99.4,504L97.3,534.1z"/>
	<path class="st2" d="M45.3,530.4l24.9,16.9l27.1-13.2l2.1-30.1l-24.9-16.8l-27.1,13.2L45.3,530.4z"/>
	<path class="st2" d="M-6.8,526.7l25,16.9l27.1-13.2l2.1-30l-25-16.9l-27,13.2L-6.8,526.7z"/>
	<path class="st2" d="M-58.8,523.1l25,16.8l27-13.2l2.2-30l-25-16.9L-56.7,493L-58.8,523.1z"/>
	<path class="st2" d="M-110.9,519.4l25,16.9l27.1-13.2l2.1-30.1l-24.9-16.8l-27.1,13.2L-110.9,519.4z"/>
	<path class="st2" d="M-162.9,515.7l25,16.9l27-13.2l2.2-30l-25-16.9l-27.1,13.2L-162.9,515.7z"/>
	<path class="st2" d="M327.9,595.9l25,16.8l27.1-13.2l2.1-30l-25-16.9l-27,13.2L327.9,595.9z"/>
	<path class="st2" d="M275.9,592.2l25,16.9l27-13.2l2.2-30.1l-25-16.8L278,562.2L275.9,592.2z"/>
	<path class="st2" d="M223.9,588.5l24.9,16.9l27.1-13.2l2.1-30l-24.9-16.9L226,558.5L223.9,588.5z"/>
	<path class="st2" d="M171.8,584.9l25,16.8l27.1-13.2l2.1-30l-25-16.9l-27.1,13.2L171.8,584.9z"/>
	<path class="st2" d="M119.8,581.2l24.9,16.8l27.1-13.1l2.1-30.1L149,537.9l-27.1,13.2L119.8,581.2z"/>
	<path class="st2" d="M67.7,577.5l25,16.9l27.1-13.2l2.1-30.1l-25-16.8l-27,13.2L67.7,577.5z"/>
	<path class="st2" d="M15.7,573.8l25,16.9l27-13.2l2.2-30l-25-16.9l-27.1,13.2L15.7,573.8z"/>
	<path class="st2" d="M-36.4,570.2l25,16.8l27.1-13.2l2.1-30l-25-16.9l-27,13.2L-36.4,570.2z"/>
	<path class="st2" d="M-88.4,566.5l25,16.9l27-13.2l2.2-30.1l-25-16.8l-27.1,13.1L-88.4,566.5z"/>
	<path class="st2" d="M-140.4,562.8l24.9,16.9l27.1-13.2l2.1-30.1l-24.9-16.8l-27.1,13.2L-140.4,562.8z"/>
	<path class="st2" d="M299.1,638.9l25,16.9l27.1-13.2l2.1-30.1l-25-16.8l-27.1,13.2L299.1,638.9z"/>
	<path class="st2" d="M247.1,635.2l24.9,16.9l27.1-13.2l2.1-30L276.3,592l-27.1,13.2L247.1,635.2z"/>
	<path class="st2" d="M195,631.6l25,16.8l27.1-13.2l2.1-30l-25-16.9l-27,13.2L195,631.6z"/>
	<path class="st2" d="M143,627.9l25,16.9l27-13.2l2.2-30.1l-25-16.8l-27.1,13.2L143,627.9z"/>
	<path class="st2" d="M91,624.2l24.9,16.9l27.1-13.2l2.1-30L120.2,581l-27.1,13.2L91,624.2z"/>
	<path class="st2" d="M38.9,620.6l25,16.8L91,624.2l2.1-30l-25-16.9L41,590.5L38.9,620.6z"/>
	<path class="st2" d="M-13.1,616.9l24.9,16.8l27.1-13.1l2.1-30.1l-24.9-16.8L-11,586.8L-13.1,616.9z"/>
	<path class="st2" d="M-65.2,613.2l25,16.9l27.1-13.2l2.1-30.1L-36,570l-27.1,13.2L-65.2,613.2z"/>
	<path class="st2" d="M-117.2,609.5l24.9,16.9l27.1-13.2l2.1-30L-88,566.3l-27.1,13.2L-117.2,609.5z"/>
	<path class="st2" d="M-169.3,605.9l25,16.8l27.1-13.2l2.1-30l-25-16.9l-27,13.2L-169.3,605.9z"/>
</g>
</svg>
