<?xml version="1.0" encoding="utf-8"?>
<!-- Generator: Adobe Illustrator 27.6.1, SVG Export Plug-In . SVG Version: 6.00 Build 0)  -->
<svg version="1.1" id="Layer_1" xmlns="http://www.w3.org/2000/svg" xmlns:xlink="http://www.w3.org/1999/xlink" x="0px" y="0px"
	 viewBox="0 0 24 24" style="enable-background:new 0 0 24 24;" xml:space="preserve">
<style type="text/css">
	.st0{fill:#FFFFFF;}
	.st1{fill:#A3E635;stroke:#525252;stroke-width:2;}
	.st2{fill:#404040;}
</style>
<path class="st0" d="M8,4h8c2.2,0,4,1.8,4,4v8c0,2.2-1.8,4-4,4H8c-2.2,0-4-1.8-4-4V8C4,5.8,5.8,4,8,4z"/>
<path class="st1" d="M6,8c0-1.1,0.9-2,2-2h8c1.1,0,2,0.9,2,2v8c0,1.1-0.9,2-2,2H8c-1.1,0-2-0.9-2-2V8z"/>
<path class="st2" d="M8,12c0,0.2,0.1,0.4,0.2,0.6c0.2,0.2,0.4,0.2,0.6,0.2h2.4v2.4c0,0.2,0.1,0.4,0.2,0.6C11.6,16,11.8,16,12,16
	c0.4,0,0.8-0.3,0.8-0.8c0,0,0,0,0-0.1v-2.4h2.4c0.2,0,0.4-0.1,0.6-0.2c0.2-0.2,0.2-0.4,0.2-0.6c0-0.4-0.3-0.8-0.7-0.8
	c0,0-0.1,0-0.1,0h-2.4V8.8c0-0.2-0.1-0.4-0.2-0.6C12.5,8,12.3,7.9,12,7.9c-0.2,0-0.4,0.1-0.6,0.2c-0.2,0.2-0.2,0.4-0.2,0.6v2.4H8.8
	c-0.2,0-0.5,0.1-0.6,0.2C8.1,11.5,8,11.8,8,12L8,12z"/>
</svg>
