<svg width="24" height="24" fill="none" xmlns="http://www.w3.org/2000/svg"><g clip-path="url(#clip0_6994_41631)"><path d="M3 7.602c-.02 1.479.213 2.95.689 4.35a9.666 9.666 0 0 0 1.973 3.357 8.582 8.582 0 0 0 3.083 2.152 10.31 10.31 0 0 0 4.01.75 7.836 7.836 0 0 0 3.67-.826 6.28 6.28 0 0 0 2.502-2.283 6.2 6.2 0 0 0 .909-3.341 5.871 5.871 0 0 0-.91-3.237 6.237 6.237 0 0 0-2.5-2.227 7.948 7.948 0 0 0-3.638-.805 11.89 11.89 0 0 0-2.116.194c-.735.133-1.48.199-2.228.196a4.9 4.9 0 0 1-1.782-.32 4.01 4.01 0 0 1-1.539-1.114 1.212 1.212 0 0 0-.653-.415 1.01 1.01 0 0 0-.735.083 1.031 1.031 0 0 0-.472.724c-.08.32-.135.645-.163.973a19.61 19.61 0 0 0-.077 1.06c-.016.335-.023.575-.023.729zm1.468 0v-.778a6.05 6.05 0 0 1 .05-.735c.015-.087.055-.102.12-.042a5.123 5.123 0 0 0 1.724.944 6.4 6.4 0 0 0 2.071.35c.447.001.893-.023 1.337-.071.421-.048.82-.097 1.196-.147l.955-.12c.29-.035.58-.053.871-.054 1-.02 1.992.192 2.896.62a4.9 4.9 0 0 1 1.969 1.701c.48.74.728 1.605.713 2.486a4.796 4.796 0 0 1-.706 2.604 4.848 4.848 0 0 1-1.97 1.762 6.43 6.43 0 0 1-2.937.637 8.355 8.355 0 0 1-4.4-1.125 7.475 7.475 0 0 1-2.886-3.183c-.669-1.372-1.003-2.989-1.003-4.85zM8.032 9.59c.157.55.466 1.044.891 1.426a5 5 0 0 0 1.452.87c.564.221 1.143.403 1.731.544.76.181 1.424.355 1.99.521.503.145.996.325 1.474.54.394.18.768.405 1.114.667.332.257.636.55.906.871a5.415 5.415 0 0 1 1.067 2.05c.202.751.434 1.543.695 2.377.046.172.15.324.294.43a.785.785 0 0 0 .426.124 1.08 1.08 0 0 0 .826-.385c.231-.254.356-.588.348-.931a3.418 3.418 0 0 0-.37-1.381 14.587 14.587 0 0 0-.891-1.638 36.214 36.214 0 0 0-.98-1.494 5.727 5.727 0 0 0-2.37-1.865 15.633 15.633 0 0 0-4.025-1.082 10.339 10.339 0 0 1-2.148-.561A3.971 3.971 0 0 1 8.68 9.288a.414.414 0 0 0-.332-.203.33.33 0 0 0-.278.154.419.419 0 0 0-.047.352h.01z" fill="#28CD41"/></g><defs><clipPath id="clip0_6994_41631"><path fill="#fff" transform="translate(3 4)" d="M0 0h18.239v16H0z"/></clipPath></defs></svg>