<?xml version="1.0" encoding="utf-8"?>
<!-- Generator: Adobe Illustrator 27.6.1, SVG Export Plug-In . SVG Version: 6.00 Build 0)  -->
<svg version="1.1" id="Layer_1" xmlns="http://www.w3.org/2000/svg" xmlns:xlink="http://www.w3.org/1999/xlink" x="0px" y="0px"
	 viewBox="0 0 24 24" style="enable-background:new 0 0 24 24;" xml:space="preserve">
<style type="text/css">
	.st0{fill:#0891B2;}
	.st1{fill:#FBBF24;}
	.st2{fill:none;stroke:#0891B2;stroke-width:2;stroke-linecap:round;stroke-linejoin:round;}
	.st3{fill:#FDE047;}
	.st4{fill:none;stroke:#0891B2;stroke-width:2;stroke-linecap:square;stroke-linejoin:round;}
	.st5{fill:none;stroke:#0891B2;stroke-linecap:round;stroke-linejoin:round;}
	.st6{fill:none;stroke:#FFFFFF;stroke-linecap:round;stroke-linejoin:round;}
</style>
<path class="st0" d="M18,4H6C4.9,4,4,4.9,4,6v12c0,1.1,0.9,2,2,2h12c1.1,0,2-0.9,2-2V6C20,4.9,19.1,4,18,4z"/>
<path class="st1" d="M6,4h14v14c0,1.1-0.9,2-2,2H6c-1.1,0-2-0.9-2-2V6C4,4.9,4.9,4,6,4z"/>
<path class="st2" d="M4.6,19.4L19.4,4.6"/>
<path class="st3" d="M20,4H4v16L20,4z"/>
<g>
	<path class="st4" d="M14,9l-4-4 M9,14l-4-4 M12,12L5,5"/>
	<path class="st2" d="M17,7l-3-3 M7,17l-3-3"/>
	<path class="st5" d="M6,4.5h12c0.8,0,1.5,0.7,1.5,1.5v12c0,0.8-0.7,1.5-1.5,1.5H6c-0.8,0-1.5-0.7-1.5-1.5V6C4.5,5.2,5.2,4.5,6,4.5z
		"/>
	<path class="st6" d="M18,3.5H6C4.6,3.5,3.5,4.6,3.5,6v12c0,1.4,1.1,2.5,2.5,2.5h12c1.4,0,2.5-1.1,2.5-2.5V6
		C20.5,4.6,19.4,3.5,18,3.5z"/>
</g>
</svg>
