<svg width="24" height="24" fill="none" xmlns="http://www.w3.org/2000/svg"><g clip-path="url(#clip0_6994_41726)"><path d="M7.208 19.846a.713.713 0 0 0 .584.139c.258-.061.5-.18.705-.347l3.869-2.843 3.878 2.843c.205.167.445.285.703.346a.688.688 0 0 0 .584-.138.779.779 0 0 0 .306-.518 1.67 1.67 0 0 0-.106-.765l-1.53-4.554 3.908-2.803c.22-.141.403-.332.535-.557a.73.73 0 0 0 .053-.604.753.753 0 0 0-.39-.445 1.752 1.752 0 0 0-.765-.143l-4.791.037-1.455-4.58a1.716 1.716 0 0 0-.372-.682.746.746 0 0 0-.55-.232.734.734 0 0 0-.548.232c-.172.198-.3.43-.375.681L9.996 9.494l-4.791-.037c-.26-.01-.52.04-.76.143a.746.746 0 0 0-.389.445.734.734 0 0 0 .05.604c.134.225.318.415.538.557l3.908 2.803-1.53 4.554a1.67 1.67 0 0 0-.106.765c.025.205.13.391.292.518z" fill="#FC0"/></g><defs><clipPath id="clip0_6994_41726"><path fill="#fff" transform="translate(4 4)" d="M0 0H16.74V16H0z"/></clipPath></defs></svg>