<?xml version="1.0" encoding="utf-8"?>
<!-- Generator: Adobe Illustrator 27.6.1, SVG Export Plug-In . SVG Version: 6.00 Build 0)  -->
<svg version="1.1" id="Layer_1" xmlns="http://www.w3.org/2000/svg" xmlns:xlink="http://www.w3.org/1999/xlink" x="0px" y="0px"
	 viewBox="0 0 24 24" style="enable-background:new 0 0 24 24;" xml:space="preserve">
<style type="text/css">
	.st0{fill:#22C55E;}
	.st1{fill:#B91C1C;}
	.st2{fill:#FFFFFF;filter:url(#Adobe_OpacityMaskFilter);}
	.st3{mask:url(#a_00000148642201265318982390000010396134674595283631_);fill:#FAFAFA;}
	.st4{fill:#B91C1C;stroke:#7F1D1D;stroke-linecap:round;stroke-linejoin:round;}
	.st5{fill:#22C55E;stroke:#166534;stroke-linecap:round;stroke-linejoin:round;}
</style>
<path class="st0" d="M11.8,4.5l3.3,3.3l-1.7,0.8l3.3,3.3l-2.5,0.8l3.3,3.3H6l3.3-3.3L6.8,12l3.3-3.3L8.5,7.8L11.8,4.5z"/>
<path class="st1" d="M13.5,16.2v2.5c0,0.5-0.4,0.8-0.8,0.8l0,0H11c-0.5,0-0.8-0.4-0.8-0.8l0,0v-2.5H13.5z"/>
<defs>
	<filter id="Adobe_OpacityMaskFilter" filterUnits="userSpaceOnUse" x="4.5" y="3" width="14.7" height="18">
		<feColorMatrix  type="matrix" values="1 0 0 0 0  0 1 0 0 0  0 0 1 0 0  0 0 0 1 0"/>
	</filter>
</defs>
<mask maskUnits="userSpaceOnUse" x="4.5" y="3" width="14.7" height="18" id="a_00000148642201265318982390000010396134674595283631_">
	<path class="st2" d="M4,2.5h16v19H4V2.5z"/>
	<path d="M11.8,4.5l3.3,3.3l-1.7,0.8l3.3,3.3l-2.5,0.8l3.3,3.3H6l3.3-3.3L6.8,12l3.3-3.3L8.5,7.8L11.8,4.5z M13.5,16.2v2.5
		c0,0.5-0.4,0.8-0.8,0.8l0,0H11c-0.5,0-0.8-0.4-0.8-0.8l0,0v-2.5H13.5z"/>
</mask>
<path class="st3" d="M11.8,4.5l1.1-1.1c-0.6-0.6-1.5-0.6-2.1,0L11.8,4.5z M15.2,7.8l0.7,1.3c0.7-0.4,1-1.3,0.7-2
	c-0.1-0.1-0.2-0.3-0.3-0.4L15.2,7.8z M13.5,8.7l-0.7-1.3c-0.7,0.4-1,1.3-0.7,2c0.1,0.1,0.2,0.3,0.3,0.4L13.5,8.7z M16.8,12l0.5,1.4
	c0.8-0.3,1.2-1.1,0.9-1.9c-0.1-0.2-0.2-0.4-0.4-0.6L16.8,12L16.8,12z M14.3,12.8l-0.5-1.4c-0.8,0.3-1.2,1.1-0.9,1.9
	c0.1,0.2,0.2,0.4,0.4,0.6L14.3,12.8L14.3,12.8z M17.7,16.2v1.5c0.8,0,1.5-0.7,1.5-1.5c0-0.4-0.2-0.8-0.4-1.1L17.7,16.2L17.7,16.2z
	 M6,16.2l-1.1-1.1c-0.6,0.6-0.6,1.5,0,2.1c0.3,0.3,0.7,0.4,1.1,0.4V16.2L6,16.2z M9.3,12.8l1.1,1.1c0.6-0.6,0.6-1.5,0-2.1
	c-0.2-0.2-0.4-0.3-0.6-0.4L9.3,12.8z M6.8,12l-1.1-1.1c-0.6,0.6-0.6,1.5,0,2.1c0.2,0.2,0.4,0.3,0.6,0.4L6.8,12z M10.2,8.7l1.1,1.1
	c0.6-0.6,0.6-1.5,0-2.1c-0.1-0.1-0.2-0.2-0.4-0.3L10.2,8.7z M8.5,7.8L7.4,6.8c-0.6,0.6-0.6,1.5,0,2.1C7.6,9,7.7,9.1,7.8,9.2L8.5,7.8
	z M13.5,16.2H15c0-0.8-0.7-1.5-1.5-1.5V16.2z M10.2,16.2v-1.5c-0.8,0-1.5,0.7-1.5,1.5H10.2z M10.8,5.6l3.3,3.3l2.1-2.1l-3.3-3.3
	L10.8,5.6z M14.5,6.5l-1.7,0.8l1.3,2.7l1.7-0.8L14.5,6.5L14.5,6.5z M12.4,9.7l3.3,3.3l2.1-2.1l-3.3-3.3L12.4,9.7z M16.4,10.6
	l-2.5,0.8l0.9,2.8l2.5-0.8L16.4,10.6z M13.3,13.9l3.3,3.3l2.1-2.1l-3.3-3.3L13.3,13.9z M17.7,14.7H6v3h11.7V14.7z M7.1,17.2l3.3-3.3
	l-2.1-2.1l-3.3,3.3L7.1,17.2z M9.8,11.4l-2.5-0.8l-0.9,2.8l2.5,0.8L9.8,11.4z M7.9,13.1l3.3-3.3L9.1,7.6l-3.3,3.3L7.9,13.1L7.9,13.1
	z M10.8,7.3L9.2,6.5L7.8,9.2L9.5,10L10.8,7.3z M9.6,8.9l3.3-3.3l-2.1-2.1L7.4,6.8L9.6,8.9z M12,16.2v2.5h3v-2.5H12z M12,18.7
	c0-0.2,0.1-0.3,0.2-0.5l2.1,2.1c0.4-0.4,0.7-1,0.7-1.6H12z M12.2,18.2c0.1-0.1,0.3-0.2,0.5-0.2v3c0.6,0,1.2-0.2,1.6-0.7L12.2,18.2z
	 M12.7,18H11v3h1.7V18z M11,18c0.2,0,0.3,0.1,0.5,0.2l-2.1,2.1c0.4,0.4,1,0.7,1.6,0.7V18z M11.5,18.2c0.1,0.1,0.2,0.3,0.2,0.5h-3
	c0,0.6,0.2,1.2,0.7,1.6L11.5,18.2z M11.7,18.7v-2.5h-3v2.5H11.7z M13.5,14.7h-3.3v3h3.3V14.7z"/>
<g>
	<path class="st4" d="M13.5,16.2v2.5c0,0.5-0.4,0.8-0.8,0.8c0,0,0,0,0,0H11c-0.5,0-0.8-0.4-0.8-0.8v-2.5H13.5z"/>
	<path class="st5" d="M11.8,4.5l3.3,3.3l-1.7,0.8l3.3,3.3l-2.5,0.8l3.3,3.3H6l3.3-3.3L6.8,12l3.3-3.3L8.5,7.8L11.8,4.5z"/>
</g>
</svg>
