<svg width="24" height="24" fill="none" xmlns="http://www.w3.org/2000/svg"><g clip-path="url(#clip0_6994_41581)"><path d="M8.886 20.004c.207.002.41-.056.584-.17a5.79 5.79 0 0 0 .662-.53l2.607-2.335h4.574a4.31 4.31 0 0 0 2.012-.425c.53-.27.959-.704 1.225-1.236a4.351 4.351 0 0 0 .413-1.993V7.654a4.365 4.365 0 0 0-.413-1.993 2.815 2.815 0 0 0-1.225-1.236 4.334 4.334 0 0 0-2.012-.423H7.65a4.333 4.333 0 0 0-2.011.423c-.53.271-.959.704-1.226 1.236A4.365 4.365 0 0 0 4 7.654v5.665c-.022.688.12 1.37.413 1.993a2.79 2.79 0 0 0 1.226 1.236 4.309 4.309 0 0 0 2.01.425h.278v1.937c-.014.287.074.57.25.797a.867.867 0 0 0 .709.297zm.359-1.594v-2.193a.692.692 0 0 0-.15-.506.71.71 0 0 0-.502-.146H7.65c-.785 0-1.357-.2-1.714-.564-.357-.365-.534-.939-.534-1.684V7.654c0-.746.178-1.305.534-1.678.356-.374.927-.56 1.714-.56h9.663c.786 0 1.357.186 1.715.56.357.373.535.932.534 1.678v5.665c0 .745-.178 1.307-.535 1.684-.356.375-.928.564-1.714.564h-4.652a1.86 1.86 0 0 0-.568.072c-.176.07-.331.182-.453.327L9.245 18.41z" fill="#525252"/><path d="M8.788 9.66c-.012.401.123.794.379 1.104a1.28 1.28 0 0 0 1.032.452c.151 0 .302-.018.449-.054a.684.684 0 0 0 .368-.227h.058a1.972 1.972 0 0 1-.584.73 2.23 2.23 0 0 1-.757.398c-.253.066-.381.2-.381.399a.359.359 0 0 0 .237.346.38.38 0 0 0 .152.025c.244-.01.483-.072.701-.182a2.79 2.79 0 0 0 1.396-1.435c.17-.4.253-.831.243-1.266a1.944 1.944 0 0 0-.453-1.303 1.504 1.504 0 0 0-1.212-.534 1.63 1.63 0 0 0-1.162.432 1.469 1.469 0 0 0-.466 1.114zm4.098 0c-.012.4.12.793.375 1.104a1.272 1.272 0 0 0 1.036.452c.15 0 .298-.018.443-.054a.68.68 0 0 0 .364-.227h.058a1.89 1.89 0 0 1-.574.73 2.25 2.25 0 0 1-.76.398c-.258.066-.388.2-.388.399a.354.354 0 0 0 .112.263.399.399 0 0 0 .287.108c.242-.01.48-.072.695-.182a2.847 2.847 0 0 0 1.391-1.435c.174-.399.259-.83.25-1.266a1.94 1.94 0 0 0-.459-1.303 1.518 1.518 0 0 0-1.215-.534 1.615 1.615 0 0 0-1.153.432 1.47 1.47 0 0 0-.462 1.114z" fill="#171717"/></g><defs><clipPath id="clip0_6994_41581"><path fill="#fff" transform="translate(4 4)" d="M0 0h16.965v16H0z"/></clipPath></defs></svg>