<?xml version="1.0" encoding="utf-8"?>
<!-- Generator: Adobe Illustrator 27.6.1, SVG Export Plug-In . SVG Version: 6.00 Build 0)  -->
<svg version="1.1" id="Layer_1" xmlns="http://www.w3.org/2000/svg" xmlns:xlink="http://www.w3.org/1999/xlink" x="0px" y="0px"
	 viewBox="0 0 24 24" style="enable-background:new 0 0 24 24;" xml:space="preserve">
<style type="text/css">
	.st0{fill:#FFFFFF;}
	.st1{fill:#FFFF33;}
	.st2{fill:#880000;}
	.st3{fill:#AA0000;}
</style>
<path class="st0" d="M9.9,19.2h4.1L14,16.7h-4L9.9,19.2L9.9,19.2z M10.1,13.7l-0.1,1.6H14l-0.1-1.6H10.1L10.1,13.7z M10.8,10.8
	l-0.6,1.6h3.7l-0.6-1.6H10.8L10.8,10.8z"/>
<path class="st1" d="M13.7,7.2h-3.3l-0.1,1.1v1.2h3.5V8.3L13.7,7.2L13.7,7.2z"/>
<path class="st2" d="M12.3,8.8h-0.6v0.7h0.6V8.8z M10.8,8.8h-0.6v0.7h0.6L10.8,8.8L10.8,8.8z M13.8,8.8h-0.6v0.7h0.6V8.8z
	 M10.2,10.2h3.5l-0.5,0.6h-2.5L10.2,10.2z"/>
<path class="st3" d="M13.9,12.4h-3.7l0,1.3h3.8L13.9,12.4z M10,16.7h4l0-1.3h-3.9L10,16.7z M9.9,19.2h4.1l0-1H10L9.9,19.2z
	 M13.6,6.9l-1.3-1.5c0.2-0.1,0.2-0.4,0-0.5c-0.1-0.1-0.2-0.1-0.3-0.1c-0.2,0-0.4,0.2-0.4,0.4c0,0.1,0,0.2,0.1,0.3l-1.3,1.5H9.9v0.3
	h4.1V6.9L13.6,6.9z M14.3,8.3H9.7v0.5h4.6L14.3,8.3L14.3,8.3z M14.3,9.5H9.7v0.7h4.6L14.3,9.5z"/>
</svg>
