<svg width="24" height="24" fill="none" xmlns="http://www.w3.org/2000/svg"><path d="M19.4 12.2l-7.6-7.6c-.4-.4-.8-.6-1.3-.6H6.8C5.3 4 4 5.3 4 6.8v3.6c0 .5.2 1 .6 1.3l7.6 7.6c.7.7 2 .7 2.7 0l4.5-4.5c.8-.7.8-1.9 0-2.6zM9.6 9.6c-.3.3-.8.6-1.3.6s-1-.2-1.3-.6c-.5-.4-.6-.9-.6-1.4 0-1 .8-1.9 1.9-1.9.5 0 1 .2 1.3.6.4.4.6.8.6 1.3-.1.6-.3 1-.6 1.4z" fill="#ECFCCB"/><path d="M4 6.8v3.6c0 .5.2 1 .6 1.3l7.6 7.6c.7.7 2 .7 2.7 0l4.5-4.5c.7-.7.7-2 0-2.7l-7.6-7.6c-.4-.3-.8-.5-1.3-.5H6.8C5.3 4 4 5.3 4 6.8z" stroke="#fff" stroke-width="2" stroke-linecap="round" stroke-linejoin="round"/><path d="M10.5 5c.2 0 .5.1.6.3l7.6 7.6c.4.4.4.9 0 1.3l-4.5 4.5c-.2.2-.4.3-.7.3-.2 0-.5-.1-.6-.3l-7.6-7.6c-.2-.2-.3-.4-.3-.6V6.8C5 5.8 5.8 5 6.8 5h3.7zm0-1H6.8C5.3 4 4 5.3 4 6.8v3.6c0 .5.2 1 .6 1.3l7.6 7.6c.4.4.9.6 1.3.6s1-.2 1.3-.6l4.5-4.5c.7-.7.7-2 0-2.7l-7.6-7.6c-.3-.3-.7-.5-1.2-.5z" fill="#4D7C0F"/><path d="M15.312 15.05l-.554-.553c.458-.639.357-1.326-.07-1.752-.473-.474-1.021-.468-1.793-.143-.66.266-.996.324-1.268.053-.218-.218-.308-.618.102-1.028.34-.34.681-.436.857-.484l-.219-.485a2.008 2.008 0 0 0-.878.506l-.516-.516-.336.335.533.532c-.405.565-.384 1.214.058 1.656.463.463 1.049.378 1.805.048.554-.234.942-.26 1.235.032.304.304.266.777-.117 1.16-.293.293-.67.47-.985.528l.229.484c.32-.053.73-.271 1.043-.575l.538.538.336-.335z" fill="#4D7C0F"/></svg>