<svg width="24" height="24" fill="none" xmlns="http://www.w3.org/2000/svg"><g clip-path="url(#clip0_6994_41739)" fill="#FC0"><path d="M12 20a7.714 7.714 0 0 0 3.091-.625 8.062 8.062 0 0 0 2.554-1.734 8.254 8.254 0 0 0 1.734-2.558 7.865 7.865 0 0 0 0-6.166 8.237 8.237 0 0 0-4.298-4.292 7.938 7.938 0 0 0-6.176 0 8.025 8.025 0 0 0-2.554 1.742 8.277 8.277 0 0 0-1.73 2.558 7.865 7.865 0 0 0 0 6.166 8.26 8.26 0 0 0 1.734 2.558 8.075 8.075 0 0 0 2.552 1.734c.977.416 2.03.626 3.092.617zm0-1.506a6.348 6.348 0 0 1-2.524-.502 6.43 6.43 0 0 1-2.06-1.393 6.528 6.528 0 0 1-1.39-2.07 6.496 6.496 0 0 1 8.497-8.527 6.531 6.531 0 0 1 3.463 3.463c.34.8.512 1.661.506 2.53a6.426 6.426 0 0 1-.5 2.528 6.563 6.563 0 0 1-1.388 2.07 6.426 6.426 0 0 1-4.605 1.894v.007z"/><path d="M9.802 16.025l2.18-1.606 2.192 1.606c.251.19.479.203.684.059a.532.532 0 0 0 .158-.664l-.87-2.586 2.208-1.578a.61.61 0 0 0 .274-.406.5.5 0 0 0-.335-.558.59.59 0 0 0-.256-.037l-2.716.03-.812-2.596c-.094-.292-.262-.437-.51-.437a.526.526 0 0 0-.511.437l-.813 2.597-2.716-.03a.587.587 0 0 0-.475.178.512.512 0 0 0-.116.416.61.61 0 0 0 .274.406l2.211 1.578-.873 2.586a.532.532 0 0 0 .159.664c.19.152.418.132.663-.06z"/></g><defs><clipPath id="clip0_6994_41739"><path fill="#fff" transform="translate(4 4)" d="M0 0h16.01v16H0z"/></clipPath></defs></svg>