<svg fill="none" height="24" width="24" xmlns="http://www.w3.org/2000/svg" xmlns:xlink="http://www.w3.org/1999/xlink"><clipPath id="a"><path d="m0 0h17.025v16h-17.025z" transform="translate(3 4)"/></clipPath><g clip-path="url(#a)"><path d="m3 11.885c0 1.027.278 1.809.834 2.343.555.534 1.365.802 2.43.802h2.548c.872.105 1.736.27 2.585.495.874.23 1.732.518 2.567.862.866.355 1.708.766 2.522 1.228v-1.432a19.17 19.17 0 0 0 -5.025-1.994 21.84 21.84 0 0 0 -2.704-.472h-2.494c-.69 0-1.186-.139-1.49-.417-.305-.277-.453-.75-.453-1.408v-1.027c0-.653.15-1.12.453-1.397.304-.278.8-.419 1.49-.419h2.411a20.606 20.606 0 0 0 2.764-.471 19.436 19.436 0 0 0 5.048-1.994v-1.44c-.809.472-1.652.883-2.522 1.23-.861.345-1.743.637-2.64.875a17.21 17.21 0 0 1 -2.456.47h-2.605c-1.065 0-1.875.27-2.43.808-.554.539-.832 1.318-.833 2.338zm7.086 3.107h-1.246l.623 3.145a.501.501 0 0 1 -.073.45.474.474 0 0 1 -.394.174.5.5 0 0 1 -.36-.124 1.285 1.285 0 0 1 -.245-.376l-1.606-3.401h-1.329l1.714 3.778c.161.398.42.749.751 1.021.318.236.706.357 1.1.344.338.007.67-.078.962-.246a1.44 1.44 0 0 0 .601-.706c.129-.35.153-.728.07-1.091l-.568-2.967zm-2.384-6.628v6.024h1.314v-6.024zm8.38 8.361c-.008.36.076.715.244 1.033.158.292.397.532.687.691.32.17.678.256 1.04.248.36.008.715-.078 1.031-.248.292-.16.532-.4.693-.69.17-.318.256-.674.248-1.034v-10.753a2.095 2.095 0 0 0 -.248-1.04c-.16-.292-.4-.531-.693-.69a2.118 2.118 0 0 0 -1.03-.242 2.144 2.144 0 0 0 -1.04.242 1.69 1.69 0 0 0 -.688.69c-.169.32-.253.678-.244 1.04zm1.314 0v-10.753a.616.616 0 0 1 .652-.652.627.627 0 0 1 .468.188.653.653 0 0 1 .174.473v10.754a.651.651 0 0 1 -.174.473.629.629 0 0 1 -.468.188.616.616 0 0 1 -.652-.652z" fill="#000"/></g></svg>