<?xml version="1.0" encoding="utf-8"?>
<!-- Generator: Adobe Illustrator 27.6.1, SVG Export Plug-In . SVG Version: 6.00 Build 0)  -->
<svg version="1.1" id="Layer_1" xmlns="http://www.w3.org/2000/svg" xmlns:xlink="http://www.w3.org/1999/xlink" x="0px" y="0px"
	 viewBox="0 0 24 24" style="enable-background:new 0 0 24 24;" xml:space="preserve">
<style type="text/css">
	.st0{clip-path:url(#SVGID_00000171696855567205737760000006602522816606880677_);}
	.st1{fill:#FFCC00;}
</style>
<g>
	<defs>
		<rect id="SVGID_1_" x="4" y="4" width="15.9" height="16"/>
	</defs>
	<clipPath id="SVGID_00000108298101187041455020000012801317413682153136_">
		<use xlink:href="#SVGID_1_"  style="overflow:visible;"/>
	</clipPath>
	<g style="clip-path:url(#SVGID_00000108298101187041455020000012801317413682153136_);">
		<path class="st1" d="M11.9,8.2c-0.7,0-1.3,0.2-1.9,0.5C9.4,9,9,9.5,8.6,10.1c-0.7,1.2-0.7,2.6,0,3.8c0.3,0.6,0.8,1,1.4,1.4
			c1.2,0.7,2.6,0.7,3.8,0c0.6-0.3,1-0.8,1.4-1.4c0.7-1.2,0.7-2.6,0-3.8c-0.3-0.6-0.8-1-1.4-1.4C13.3,8.4,12.6,8.2,11.9,8.2z
			 M15.5,7.4c-0.1,0.1-0.2,0.3-0.2,0.5c0,0.2,0.1,0.4,0.2,0.5c0.1,0.1,0.3,0.2,0.5,0.2c0.2,0,0.4-0.1,0.5-0.2l1.1-1.1
			c0.1-0.1,0.2-0.3,0.2-0.5c0-0.4-0.3-0.7-0.7-0.7c0,0,0,0,0,0c-0.2,0-0.4,0.1-0.5,0.2L15.5,7.4z M16.5,15.6
			c-0.1-0.1-0.3-0.2-0.5-0.2c-0.4,0-0.7,0.3-0.7,0.7c0,0,0,0,0,0c0,0.2,0.1,0.4,0.2,0.5l1.1,1.1c0.1,0.1,0.3,0.2,0.5,0.2
			c0.2,0,0.4-0.1,0.5-0.2c0.1-0.1,0.2-0.3,0.2-0.5c0-0.2-0.1-0.4-0.2-0.5L16.5,15.6z M12.7,4.7c0-0.2-0.1-0.4-0.2-0.5
			c-0.3-0.3-0.7-0.3-1,0c0,0,0,0,0,0c-0.1,0.1-0.2,0.3-0.2,0.5v1.5c0,0.4,0.3,0.7,0.7,0.7c0.2,0,0.4-0.1,0.5-0.2
			c0.1-0.1,0.2-0.3,0.2-0.5L12.7,4.7z M12.7,17.8c0-0.2-0.1-0.4-0.2-0.5c-0.3-0.3-0.7-0.3-1,0c0,0,0,0,0,0c-0.1,0.1-0.2,0.3-0.2,0.5
			v1.5c0,0.2,0.1,0.4,0.2,0.5c0.3,0.3,0.7,0.3,1,0c0,0,0,0,0,0c0.1-0.1,0.2-0.3,0.2-0.5L12.7,17.8z M19.2,12.7
			c0.2,0,0.4-0.1,0.5-0.2c0.3-0.3,0.3-0.7,0-1c0,0,0,0,0,0c-0.1-0.1-0.3-0.2-0.5-0.2h-1.5c-0.4,0-0.7,0.4-0.7,0.8
			c0,0.4,0.3,0.7,0.7,0.7L19.2,12.7z M7.4,8.5c0.3,0.3,0.7,0.3,1,0c0.1-0.1,0.2-0.3,0.2-0.5c0-0.2-0.1-0.4-0.2-0.5L7.3,6.3
			C7.2,6.2,7,6.1,6.8,6.1c-0.4,0-0.7,0.3-0.7,0.7c0,0,0,0,0,0c0,0.2,0.1,0.4,0.2,0.5L7.4,8.5z M4.7,11.3C4.3,11.3,4,11.6,4,12
			c0,0.4,0.3,0.7,0.7,0.7h1.5c0.4,0,0.7-0.4,0.7-0.8c0-0.4-0.3-0.7-0.7-0.7H4.7L4.7,11.3z M6.3,16.6c-0.1,0.1-0.2,0.3-0.2,0.5
			c0,0.2,0.1,0.4,0.2,0.5c0.1,0.1,0.3,0.2,0.5,0.2c0.2,0,0.4-0.1,0.5-0.2l1.1-1.1c0.1-0.1,0.2-0.3,0.2-0.5c0-0.2-0.1-0.4-0.2-0.5
			c-0.3-0.3-0.7-0.3-1,0L6.3,16.6z"/>
	</g>
</g>
</svg>
