<?xml version="1.0" encoding="utf-8"?>
<!-- Generator: Adobe Illustrator 27.6.1, SVG Export Plug-In . SVG Version: 6.00 Build 0)  -->
<svg version="1.1" id="Layer_1" xmlns="http://www.w3.org/2000/svg" xmlns:xlink="http://www.w3.org/1999/xlink" x="0px" y="0px"
	 viewBox="0 0 24 24" style="enable-background:new 0 0 24 24;" xml:space="preserve">
<style type="text/css">
	.st0{clip-path:url(#SVGID_00000098188549394044292370000003893294228880587956_);}
	.st1{fill:#4D4D4D;}
	.st2{fill:#212121;}
</style>
<g>
	<defs>
		<rect id="SVGID_1_" x="4" y="4" width="17" height="16"/>
	</defs>
	<clipPath id="SVGID_00000130646803856580904180000014566154771855067522_">
		<use xlink:href="#SVGID_1_"  style="overflow:visible;"/>
	</clipPath>
	<g style="clip-path:url(#SVGID_00000130646803856580904180000014566154771855067522_);">
		<path class="st1" d="M8.9,20c0.2,0,0.4-0.1,0.6-0.2c0.2-0.2,0.5-0.3,0.7-0.5l2.6-2.3h4.6c0.7,0,1.4-0.1,2-0.4
			c0.5-0.3,1-0.7,1.2-1.2c0.3-0.6,0.4-1.3,0.4-2V7.7c0-0.7-0.1-1.4-0.4-2c-0.3-0.5-0.7-1-1.2-1.2C18.7,4.1,18,4,17.3,4H7.7
			C7,4,6.3,4.1,5.6,4.4c-0.5,0.3-1,0.7-1.2,1.2C4.1,6.3,4,7,4,7.7v5.7c0,0.7,0.1,1.4,0.4,2c0.3,0.5,0.7,1,1.2,1.2
			C6.3,16.8,7,17,7.6,17h0.3v1.9c0,0.3,0.1,0.6,0.2,0.8C8.4,19.9,8.6,20,8.9,20z M9.2,18.4v-2.2c0-0.2,0-0.4-0.1-0.5
			c-0.1-0.1-0.3-0.2-0.5-0.1H7.7c-0.8,0-1.4-0.2-1.7-0.6c-0.4-0.4-0.5-0.9-0.5-1.7V7.7c0-0.7,0.2-1.3,0.5-1.7
			c0.4-0.4,0.9-0.6,1.7-0.6h9.7c0.8,0,1.4,0.2,1.7,0.6c0.4,0.4,0.5,0.9,0.5,1.7v5.7c0,0.7-0.2,1.3-0.5,1.7c-0.4,0.4-0.9,0.6-1.7,0.6
			h-4.7c-0.2,0-0.4,0-0.6,0.1c-0.2,0.1-0.3,0.2-0.5,0.3L9.2,18.4z"/>
		<path class="st2" d="M10.7,12.2c0.4,0.4,0.9,0.8,1.4,1.2c0.4,0.3,0.9,0.6,1.4,0.8c0.4,0.2,0.9,0.2,1.4,0.2
			c0.4-0.1,0.8-0.2,1.1-0.6c0,0,0.1-0.1,0.1-0.1l0.1-0.1c0.2-0.2,0.2-0.4,0.3-0.6c0-0.2-0.1-0.5-0.3-0.6l-0.4-0.3l-0.4-0.3
			c-0.1-0.1-0.3-0.2-0.5-0.3c-0.2-0.1-0.4-0.2-0.6-0.2c-0.2,0-0.4,0.1-0.5,0.3l-0.3,0.3c0,0-0.1,0.1-0.2,0.1c-0.1,0-0.1,0-0.2,0
			c-0.2-0.1-0.3-0.2-0.5-0.4c-0.2-0.2-0.4-0.4-0.6-0.6c-0.2-0.2-0.4-0.4-0.6-0.6c-0.1-0.2-0.3-0.3-0.4-0.5c0,0,0-0.1-0.1-0.2
			c0-0.1,0-0.1,0.1-0.2l0.3-0.3c0.1-0.1,0.2-0.3,0.3-0.5c0-0.2-0.1-0.4-0.2-0.6l-0.9-1.3c-0.1-0.1-0.2-0.2-0.4-0.3
			c-0.1,0-0.3,0-0.4,0C9.5,6.6,9.4,6.7,9.2,6.8L9.1,6.9l0,0C8.8,7.2,8.6,7.6,8.5,8.1c0,0.5,0,0.9,0.2,1.4c0.2,0.5,0.5,1,0.8,1.4
			C9.9,11.4,10.3,11.8,10.7,12.2L10.7,12.2z"/>
	</g>
</g>
</svg>
