<?xml version="1.0" encoding="utf-8"?>
<!-- Generator: Adobe Illustrator 27.6.1, SVG Export Plug-In . SVG Version: 6.00 Build 0)  -->
<svg version="1.1" id="Layer_1" xmlns="http://www.w3.org/2000/svg" xmlns:xlink="http://www.w3.org/1999/xlink" x="0px" y="0px"
	 viewBox="0 0 24 24" style="enable-background:new 0 0 24 24;" xml:space="preserve">
<style type="text/css">
	.st0{fill:#8E8E8E;stroke:#FAFAFA;}
	.st1{fill:#212121;}
</style>
<path class="st0" d="M19.8,15.3L19.8,15.3c-0.4,1-1.1,1.9-1.8,2.7c-0.8,0.8-1.7,1.4-2.7,1.8c-1,0.4-2.2,0.7-3.3,0.7
	c-1.1,0-2.3-0.2-3.3-0.7c-1-0.4-1.9-1.1-2.7-1.8L19.8,15.3z M19.8,15.3c0.9-2.1,0.9-4.5,0-6.6 M19.8,15.3V8.7 M19.8,8.7L19.8,8.7
	 M19.8,8.7L19.8,8.7 M19.8,8.7c-0.9-2-2.5-3.7-4.6-4.6 M19.8,8.7l-4.6-4.6 M15.3,4.2L15.3,4.2 M15.3,4.2L15.3,4.2 M15.3,4.2
	c-2.1-0.9-4.5-0.9-6.6,0h0 M15.3,4.2H8.7 M8.7,4.2C7.7,4.6,6.8,5.2,6,6L8.7,4.2z M4.2,8.7C4.6,7.7,5.2,6.8,6,6L4.2,8.7z M4.2,8.7
	L4.2,8.7 M4.2,8.7L4.2,8.7 M4.2,8.7c-0.9,2.1-0.9,4.5,0,6.6 M4.2,8.7v6.6 M4.2,15.3L4.2,15.3 M4.2,15.3L4.2,15.3 M4.2,15.3
	c0.4,1,1.1,1.9,1.8,2.7L4.2,15.3L4.2,15.3z"/>
<path class="st1" d="M7.6,15V8.6c0-0.1,0.1-0.3,0.1-0.4C7.8,8.1,8,8.1,8.1,8.1c0.3,0,0.5,0.2,0.5,0.5v3l1-1c0.2-0.2,0.4-0.3,0.7-0.3
	c0.3,0,0.5,0.1,0.7,0.3l1.4,1.4c0,0,0.1,0,0.1,0l1.3-1.3l-0.5-0.5C13,10.1,12.9,9.9,13,9.8c0.1-0.1,0.2-0.2,0.3-0.3l2.3-0.6
	c0.1,0,0.3,0,0.4,0.1c0.1,0.1,0.1,0.2,0.1,0.4l-0.6,2.3c0,0.1-0.1,0.3-0.3,0.3c-0.1,0.1-0.3,0-0.4-0.1l-0.5-0.6l-1.4,1.5
	c-0.2,0.2-0.4,0.3-0.7,0.3c-0.3,0-0.5-0.1-0.7-0.3l-1.3-1.4c0,0-0.1,0-0.1,0l-1.6,1.6v1.6c0,0,0,0.1,0.1,0.1h7.2
	c0.3,0,0.5,0.2,0.5,0.5c0,0.1-0.1,0.3-0.1,0.4c-0.1,0.1-0.2,0.1-0.3,0.1H8.3c-0.2,0-0.4-0.1-0.5-0.2C7.6,15.4,7.6,15.2,7.6,15z"/>
</svg>
