<svg fill="none" height="24" width="24" xmlns="http://www.w3.org/2000/svg" xmlns:xlink="http://www.w3.org/1999/xlink"><mask id="a" fill="#000" height="19" maskUnits="userSpaceOnUse" width="16" x="4" y="2.5"><path d="m4 2.5h16v19h-16z" fill="#fff"/><path d="m11.833 4.5 3.334 3.333-1.667.834 3.333 3.333-2.5.833 3.334 3.334h-11.667l3.333-3.334-2.5-.833 3.334-3.333-1.667-.834zm1.667 11.667v2.5a.833.833 0 0 1 -.833.833h-1.667a.833.833 0 0 1 -.833-.833v-2.5z" fill="#000"/></mask><path d="m11.833 4.5 3.334 3.333-1.667.834 3.333 3.333-2.5.833 3.334 3.334h-11.667l3.333-3.334-2.5-.833 3.334-3.333-1.667-.834z" fill="#22c55e"/><path d="m13.5 16.167v2.5a.833.833 0 0 1 -.833.833h-1.667a.833.833 0 0 1 -.833-.833v-2.5z" fill="#b91c1c"/><path d="m11.833 4.5 1.061-1.06a1.5 1.5 0 0 0 -2.121 0zm3.334 3.333.67 1.342a1.5 1.5 0 0 0 .39-2.402zm-1.667.834-.67-1.342a1.5 1.5 0 0 0 -.39 2.402zm3.333 3.333.475 1.423a1.5 1.5 0 0 0 .586-2.484l-1.06 1.061zm-2.5.833-.474-1.423a1.5 1.5 0 0 0 -.586 2.484l1.06-1.06zm3.334 3.334v1.5a1.5 1.5 0 0 0 1.06-2.561l-1.06 1.06zm-11.667 0-1.06-1.061a1.5 1.5 0 0 0 1.06 2.56v-1.5zm3.333-3.334 1.061 1.061a1.5 1.5 0 0 0 -.586-2.484zm-2.5-.833-1.06-1.06a1.5 1.5 0 0 0 .586 2.483zm3.334-3.333 1.06 1.06a1.5 1.5 0 0 0 -.39-2.402zm-1.667-.834-1.06-1.06a1.5 1.5 0 0 0 .39 2.402zm5 8.334h1.5a1.5 1.5 0 0 0 -1.5-1.5zm-3.333 0v-1.5a1.5 1.5 0 0 0 -1.5 1.5zm.606-10.606 3.333 3.333 2.121-2.121-3.333-3.334zm3.723.93-1.667.834 1.342 2.683 1.667-.833-1.342-2.683zm-2.057 3.236 3.334 3.334 2.121-2.122-3.333-3.333zm3.92.85-2.5.833.949 2.846 2.5-.833zm-3.086 3.317 3.333 3.333 2.121-2.121-3.333-3.333zm4.394.773h-11.667v3h11.667zm-10.607 2.56 3.333-3.333-2.121-2.121-3.334 3.333zm2.747-5.817-2.5-.833-.949 2.846 2.5.833zm-1.914 1.65 3.333-3.333-2.121-2.121-3.333 3.333 2.121 2.122zm2.944-5.735-1.667-.833-1.341 2.683 1.667.833zm-1.277 1.569 3.333-3.333-2.121-2.122-3.334 3.334zm2.44 7.273v2.5h3v-2.5zm0 2.5c0-.177.07-.347.195-.472l2.122 2.122a2.333 2.333 0 0 0 .683-1.65zm.195-.472a.666.666 0 0 1 .472-.195v3c.619 0 1.212-.246 1.65-.683zm.472-.195h-1.667v3h1.667zm-1.667 0c.177 0 .346.07.471.195l-2.12 2.122a2.333 2.333 0 0 0 1.649.683zm.471.195a.667.667 0 0 1 .196.472h-3c0 .618.245 1.212.683 1.65zm.196.472v-2.5h-3v2.5zm1.833-4h-3.333v3h3.333z" fill="#fafafa" mask="url(#a)"/><g stroke-linecap="round" stroke-linejoin="round"><path d="m13.5 16.166v2.5a.833.833 0 0 1 -.833.834h-1.667a.834.834 0 0 1 -.833-.834v-2.5z" fill="#b91c1c" stroke="#7f1d1d"/><path d="m11.833 4.5 3.334 3.333-1.667.834 3.333 3.333-2.5.833 3.334 3.334h-11.667l3.333-3.334-2.5-.833 3.334-3.333-1.667-.834z" fill="#22c55e" stroke="#166534"/></g></svg>