<?xml version="1.0" encoding="utf-8"?>
<!-- Generator: Adobe Illustrator 27.6.1, SVG Export Plug-In . SVG Version: 6.00 Build 0)  -->
<svg version="1.1" id="Layer_1" xmlns="http://www.w3.org/2000/svg" xmlns:xlink="http://www.w3.org/1999/xlink" x="0px" y="0px"
	 viewBox="0 0 24 24" style="enable-background:new 0 0 24 24;" xml:space="preserve">
<style type="text/css">
	.st0{clip-path:url(#SVGID_00000005986626652787314720000002842642909193305739_);}
	.st1{fill:#F97316;}
	.st2{fill:#FFFFFF;}
</style>
<g>
	<defs>
		<rect id="SVGID_1_" x="4" y="4" width="16" height="16"/>
	</defs>
	<clipPath id="SVGID_00000176737858185118424790000005800162426060732305_">
		<use xlink:href="#SVGID_1_"  style="overflow:visible;"/>
	</clipPath>
	<g style="clip-path:url(#SVGID_00000176737858185118424790000005800162426060732305_);">
		<path class="st1" d="M12,20c1.1,0,2.1-0.2,3.1-0.6c1-0.4,1.8-1,2.6-1.7c0.7-0.7,1.3-1.6,1.7-2.6c0.8-2,0.8-4.2,0-6.2
			C18.5,7,17,5.5,15.1,4.6c-2-0.8-4.2-0.8-6.2,0c-1,0.4-1.8,1-2.6,1.7C5.6,7.1,5,8,4.6,8.9c-0.8,2-0.8,4.2,0,6.2
			c0.4,1,1,1.8,1.7,2.6C7.1,18.4,8,19,8.9,19.4C9.9,19.8,10.9,20,12,20L12,20z"/>
		<path class="st2" d="M11.8,13.7c-0.5,0-0.7-0.2-0.7-0.7v0c0-0.4,0.1-0.7,0.3-1c0.2-0.2,0.4-0.5,0.7-0.7c0.3-0.2,0.5-0.4,0.8-0.6
			c0.2-0.2,0.3-0.4,0.3-0.7c0-0.3-0.1-0.5-0.3-0.7C12.6,9.1,12.3,9,12,9c-0.2,0-0.4,0-0.6,0.1c-0.2,0.1-0.4,0.3-0.5,0.5l-0.2,0.2
			c-0.1,0.1-0.2,0.2-0.3,0.2c-0.1,0.1-0.2,0.1-0.4,0.1c-0.2,0-0.5-0.1-0.6-0.4c0-0.1-0.1-0.2,0-0.3c0-0.1,0-0.3,0.1-0.4
			c0.2-0.4,0.5-0.7,0.9-0.9c0.5-0.3,1.1-0.4,1.7-0.4c0.4,0,0.9,0.1,1.3,0.2c0.4,0.1,0.7,0.4,1,0.7c0.3,0.3,0.4,0.8,0.4,1.2
			c0,0.4-0.1,0.9-0.4,1.2c-0.3,0.3-0.6,0.6-1,0.8c-0.2,0.1-0.4,0.3-0.6,0.5c-0.1,0.2-0.2,0.4-0.2,0.6V13c0,0.2-0.1,0.3-0.2,0.5
			C12.2,13.6,12,13.7,11.8,13.7z M11.8,16.2c-0.2,0-0.5-0.1-0.7-0.3c-0.2-0.2-0.3-0.4-0.3-0.6c0-0.2,0.1-0.5,0.3-0.6
			c0.2-0.2,0.4-0.3,0.7-0.3c0.4,0,0.7,0.2,0.9,0.6c0,0.1,0.1,0.2,0.1,0.4c0,0.2-0.1,0.5-0.3,0.6C12.3,16.1,12.1,16.2,11.8,16.2
			L11.8,16.2z"/>
	</g>
</g>
</svg>
