<svg width="24" height="24" fill="none" xmlns="http://www.w3.org/2000/svg"><g clip-path="url(#clip0_6994_41556)"><path d="M12 20a7.714 7.714 0 0 0 3.091-.625 8.062 8.062 0 0 0 2.554-1.734 8.254 8.254 0 0 0 1.734-2.558 7.865 7.865 0 0 0 0-6.166 8.237 8.237 0 0 0-4.298-4.292 7.938 7.938 0 0 0-6.176 0 8.025 8.025 0 0 0-2.554 1.742 8.277 8.277 0 0 0-1.73 2.558 7.865 7.865 0 0 0 0 6.166 8.26 8.26 0 0 0 1.734 2.558 8.075 8.075 0 0 0 2.552 1.734c.977.416 2.03.626 3.092.617z" fill="#F97316"/><path d="M11.833 13.686c-.489 0-.733-.241-.733-.725v-.048a1.49 1.49 0 0 1 .306-.991c.209-.248.448-.469.713-.656.273-.185.534-.389.78-.609a.863.863 0 0 0 .262-.656.882.882 0 0 0-.307-.702 1.18 1.18 0 0 0-.812-.268c-.21 0-.419.047-.61.138-.21.112-.394.268-.54.457l-.168.217a1.556 1.556 0 0 1-.292.248.68.68 0 0 1-.382.1.67.67 0 0 1-.587-.371.554.554 0 0 1-.046-.255c.006-.146.036-.29.09-.426a1.82 1.82 0 0 1 .858-.94 3.334 3.334 0 0 1 1.74-.407c.449-.004.895.078 1.313.24.387.145.728.39.987.713.258.341.39.761.376 1.19.026.434-.12.861-.406 1.189-.295.303-.625.57-.983.794-.225.14-.43.31-.609.505a.838.838 0 0 0-.203.565v.059a.609.609 0 0 1-.203.456.756.756 0 0 1-.544.183zm-.02 2.469a.942.942 0 0 1-.66-.264.843.843 0 0 1-.283-.64.864.864 0 0 1 .279-.643.921.921 0 0 1 .664-.268.954.954 0 0 1 .88.556.857.857 0 0 1 .072.355.832.832 0 0 1-.289.646.968.968 0 0 1-.655.258h-.008z" fill="#fff"/></g><defs><clipPath id="clip0_6994_41556"><path fill="#fff" transform="translate(4 4)" d="M0 0h16.01v16H0z"/></clipPath></defs></svg>