<?xml version="1.0" encoding="utf-8"?>
<!-- Generator: Adobe Illustrator 27.6.1, SVG Export Plug-In . SVG Version: 6.00 Build 0)  -->
<svg version="1.1" id="Layer_1" xmlns="http://www.w3.org/2000/svg" xmlns:xlink="http://www.w3.org/1999/xlink" x="0px" y="0px"
	 viewBox="0 0 24 24" style="enable-background:new 0 0 24 24;" xml:space="preserve">
<style type="text/css">
	.st0{fill:#FDE047;stroke:#FEFCE8;stroke-width:2;stroke-linecap:round;stroke-linejoin:round;}
	.st1{fill-rule:evenodd;clip-rule:evenodd;fill:#EAB308;}
	.st2{fill-rule:evenodd;clip-rule:evenodd;fill:#FACC15;filter:url(#Adobe_OpacityMaskFilter);}
	.st3{fill-rule:evenodd;clip-rule:evenodd;fill:#FACC15;}
	.st4{mask:url(#a_00000176746113200161479080000011526777318434187706_);}
	.st5{fill:#FACC15;}
	.st6{fill:none;stroke:#EAB308;stroke-linecap:round;stroke-linejoin:bevel;stroke-dasharray:1.5,3;}
	.st7{fill:none;stroke:#CA8A04;stroke-width:2;stroke-linecap:round;stroke-linejoin:round;}
</style>
<path class="st0" d="M12,21c5,0,9-4,9-9s-4-9-9-9l0,0c-5,0-9,4-9,9S7,21,12,21z"/>
<path class="st1" d="M19.9,13.2C20,12.8,20,12.4,20,12c0-0.6-0.1-1.1-0.2-1.7l0.1,0c0.6,0,1,0.4,1.1,0.9c0,0.5,0,1,0,1.6
	c0,0.6-0.5,1-1.1,0.9c0,0,0,0-0.1,0C19.9,13.5,19.9,13.4,19.9,13.2L19.9,13.2z M17.9,17.4C17.9,17.4,18,17.4,17.9,17.4
	c0.5,0.4,1.1,0.2,1.4-0.2c0.3-0.4,0.6-0.9,0.8-1.4c0.2-0.5,0-1.1-0.5-1.3c0,0,0,0-0.1,0C19.3,15.5,18.7,16.5,17.9,17.4L17.9,17.4z
	 M14.5,19.6L14.5,19.6c0.3,0.6,0.9,0.8,1.4,0.5c0.5-0.2,0.9-0.5,1.4-0.8c0.5-0.3,0.6-0.9,0.2-1.4c0,0,0,0,0,0
	C16.5,18.7,15.5,19.3,14.5,19.6z M10.3,19.8L10.3,19.8c-0.1,0.6,0.4,1.1,0.9,1.1c0.5,0,1,0,1.6,0c0.6,0,1-0.5,0.9-1.1c0,0,0,0,0-0.1
	C13.1,19.9,12.6,20,12,20C11.4,20,10.9,19.9,10.3,19.8z M6.6,17.9c-0.3,0.4-0.3,1.1,0.2,1.4c0,0,0,0,0.1,0c0.4,0.3,0.9,0.6,1.4,0.8
	c0.5,0.2,1.1,0,1.3-0.5c0,0,0,0,0-0.1C8.5,19.3,7.5,18.7,6.6,17.9L6.6,17.9z M4.4,14.5L4.4,14.5c-0.6,0.3-0.8,0.9-0.5,1.4
	c0.2,0.5,0.5,0.9,0.8,1.4c0.3,0.5,0.9,0.6,1.4,0.2c0,0,0,0,0,0C5.3,16.5,4.7,15.5,4.4,14.5z M4.2,10.3c-0.5-0.1-1.1,0.3-1.1,0.8
	c0,0,0,0,0,0.1c0,0.5,0,1,0,1.6c0,0.6,0.5,1,1.1,0.9c0,0,0,0,0.1,0C4,12.9,4,12.1,4,11.3C4.1,11,4.1,10.6,4.2,10.3z M6.1,6.6
	C5.6,6.3,5,6.4,4.7,6.8c0,0,0,0,0,0.1C4.3,7.3,4.1,7.7,3.8,8.2c-0.2,0.5,0,1.1,0.5,1.3c0,0,0,0,0.1,0C4.7,8.6,5.1,7.8,5.7,7
	C5.9,6.9,6,6.8,6.1,6.6z M9.6,4.4C9.3,3.9,8.8,3.6,8.3,3.8c0,0,0,0-0.1,0C7.7,4.1,7.3,4.3,6.8,4.6C6.4,4.9,6.3,5.6,6.6,6
	c0,0,0,0,0,0c0.7-0.6,1.5-1.2,2.4-1.5C9.2,4.5,9.4,4.4,9.6,4.4L9.6,4.4z M13.7,4.2L13.7,4.2c0.1-0.6-0.4-1.1-0.9-1.1
	c-0.5,0-1,0-1.6,0c-0.6,0-1,0.5-0.9,1.1c0,0,0,0,0,0.1C11.1,4,11.9,4,12.7,4C13,4.1,13.4,4.1,13.7,4.2z M17.4,6.1
	C17.4,6.1,17.4,6,17.4,6.1c0.4-0.5,0.2-1.1-0.2-1.4c-0.4-0.3-0.9-0.6-1.4-0.8c-0.5-0.2-1.1,0-1.3,0.5c0,0,0,0,0,0.1
	c0.8,0.2,1.5,0.6,2.1,1.1C16.9,5.6,17.1,5.8,17.4,6.1z M19.6,9.6L19.6,9.6c0.6-0.3,0.8-0.9,0.5-1.4c-0.2-0.5-0.5-0.9-0.8-1.4
	c-0.3-0.5-0.9-0.6-1.4-0.2c0,0,0,0,0,0c0.6,0.7,1.2,1.5,1.5,2.4C19.5,9.2,19.6,9.4,19.6,9.6L19.6,9.6z"/>
<defs>
	<filter id="Adobe_OpacityMaskFilter" filterUnits="userSpaceOnUse" x="4" y="4" width="16" height="16">
		<feColorMatrix  type="matrix" values="1 0 0 0 0  0 1 0 0 0  0 0 1 0 0  0 0 0 1 0"/>
	</filter>
</defs>
<mask maskUnits="userSpaceOnUse" x="4" y="4" width="16" height="16" id="a_00000176746113200161479080000011526777318434187706_">
	<path class="st2" d="M12,3c0.6,0,1,0.4,1,1v16c0,0.6-0.4,1-1,1s-1-0.4-1-1V4C11,3.4,11.4,3,12,3z"/>
	<path class="st3" d="M16.8,4.5c0.4,0.4,0.4,1,0,1.4L12.7,10c-0.4,0.4-1,0.4-1.4,0c-0.4-0.4-0.4-1,0-1.4l4.1-4.1
		C15.8,4.1,16.4,4.1,16.8,4.5z M19.3,6.8c0.4,0.4,0.4,1,0,1.4l-6.6,6.6c-0.4,0.4-1,0.4-1.4,0c-0.4-0.4-0.4-1,0-1.4l6.6-6.6
		C18.2,6.4,18.9,6.4,19.3,6.8z M20.6,10.2c0.4,0.4,0.4,1,0,1.4l-7.9,7.9c-0.4,0.4-1,0.4-1.4,0c-0.4-0.4-0.4-1,0-1.4c0,0,0,0,0,0
		l7.9-7.9C19.6,9.8,20.2,9.8,20.6,10.2z"/>
</mask>
<g class="st4">
	<circle class="st5" cx="12" cy="12" r="8"/>
</g>
<path class="st6" d="M9.1,19.5c0.6,0.2,1.1,0.4,1.7,0.5l0,0c0,0.3,0.2,0.5,0.5,0.5c0.5,0,1,0,1.5,0c0.3,0,0.5-0.3,0.5-0.5
	c0,0,0,0,0,0c0.6-0.1,1.2-0.2,1.7-0.5l0,0c0.1,0.2,0.4,0.4,0.7,0.2c0.4-0.2,0.9-0.5,1.3-0.7c0.2-0.2,0.3-0.5,0.1-0.7c0,0,0,0,0,0
	c0.5-0.4,0.9-0.8,1.3-1.3c0.2,0.2,0.5,0.1,0.7-0.1c0,0,0,0,0,0c0.3-0.4,0.5-0.8,0.7-1.3c0.1-0.2,0-0.5-0.2-0.7l0,0
	c0.2-0.6,0.4-1.1,0.5-1.7l0,0c0.3,0,0.5-0.2,0.5-0.5c0-0.5,0-1,0-1.5c0-0.3-0.3-0.5-0.5-0.5c0,0,0,0,0,0c-0.1-0.6-0.2-1.2-0.5-1.7
	c0.3-0.1,0.4-0.4,0.3-0.7c0,0,0,0,0,0C19.5,8,19.2,7.5,19,7.1c-0.2-0.2-0.5-0.3-0.7-0.1c0,0,0,0,0,0c-0.4-0.5-0.8-0.9-1.3-1.3
	c0.2-0.2,0.1-0.5-0.1-0.7c0,0,0,0,0,0c-0.4-0.3-0.8-0.5-1.3-0.7c-0.3-0.1-0.5,0-0.7,0.2c0,0,0,0,0,0c-0.6-0.2-1.1-0.4-1.7-0.5l0,0
	c0-0.3-0.2-0.5-0.5-0.5c-0.5,0-1,0-1.5,0c-0.3,0-0.5,0.3-0.5,0.5c0,0,0,0,0,0c-0.6,0.1-1.2,0.2-1.7,0.5C9,4.3,8.7,4.2,8.4,4.3
	c0,0,0,0,0,0C8,4.5,7.5,4.8,7.1,5C6.9,5.2,6.8,5.5,7,5.7c0,0,0,0,0,0C6.5,6.1,6.1,6.5,5.7,7C5.5,6.8,5.2,6.9,5,7.1c0,0,0,0,0,0
	C4.8,7.5,4.5,8,4.3,8.4C4.2,8.7,4.3,9,4.5,9.1c0,0,0,0,0,0c-0.2,0.6-0.4,1.1-0.5,1.7c-0.3,0-0.5,0.2-0.6,0.4c0,0,0,0,0,0
	c0,0.5,0,1,0,1.5c0,0.3,0.3,0.5,0.5,0.5c0,0,0,0,0,0c0.1,0.6,0.2,1.2,0.5,1.7c-0.3,0.1-0.4,0.4-0.3,0.7c0,0,0,0,0,0
	C4.5,16,4.8,16.5,5,16.9c0.2,0.2,0.5,0.3,0.7,0.1c0,0,0,0,0,0c0.4,0.5,0.8,0.9,1.3,1.3c-0.2,0.2-0.1,0.5,0.1,0.7c0,0,0,0,0,0
	c0.4,0.3,0.8,0.5,1.3,0.7C8.7,19.8,9,19.7,9.1,19.5C9.1,19.5,9.1,19.5,9.1,19.5L9.1,19.5z"/>
<path class="st7" d="M14.8,9c-0.4-0.6-1.1-1-1.8-1h-2c-1.1,0-2,0.9-2,2s0.9,2,2,2h2c1.1,0,2,0.9,2,2c0,1.1-0.9,2-2,2h-2
	c-0.7,0-1.4-0.4-1.8-1 M12,16v2 M12,6v2V6z"/>
</svg>
