<svg fill="none" height="24" width="24" xmlns="http://www.w3.org/2000/svg" xmlns:xlink="http://www.w3.org/1999/xlink"><clipPath id="a"><path d="m0 0h16v11.702h-16z" transform="translate(4 6)"/></clipPath><g clip-path="url(#a)"><path d="m6.803 15.561a.661.661 0 0 1 -.479-.176.627.627 0 0 1 -.176-.467v-1.251a.624.624 0 0 1 .176-.467.66.66 0 0 1 .48-.177h1.656a.653.653 0 0 1 .483.177.63.63 0 0 1 .176.467v1.251a.631.631 0 0 1 -.176.467.65.65 0 0 1 -.483.176zm-2.803-5.185v-1.554h15.998v1.554zm2.194 7.326h11.596c.736 0 1.287-.177 1.652-.53.366-.354.548-.902.548-1.628v-7.368c0-.727-.176-1.268-.547-1.628-.372-.36-.916-.53-1.653-.53h-11.596c-.732 0-1.282.176-1.65.53-.367.353-.55.901-.55 1.628v7.368c0 .726.176 1.267.55 1.628.375.36.925.53 1.65.53z" fill="#000"/></g></svg>