<svg width="24" height="24" fill="none" xmlns="http://www.w3.org/2000/svg"><g clip-path="url(#clip0_6994_41630)"><path d="M7.229 7.673c-1.053 0-1.854.266-2.404.798C4.275 9.004 4 9.775 4 10.784V11.8c0 1.017.275 1.79.825 2.319.55.529 1.35.793 2.404.793H8.77V7.667l-1.541.006zm2.6 7.244a19.678 19.678 0 0 1 4.163 1.007c.702.253 1.39.544 2.06.872V5.806c-.687.332-1.393.625-2.114.878-.697.248-1.407.459-2.127.632-.653.157-1.315.276-1.982.357v7.244zm7.286 2.064a1.534 1.534 0 0 0 .427 1.13 1.495 1.495 0 0 0 1.115.43 1.485 1.485 0 0 0 1.56-1.56V5.551a1.511 1.511 0 0 0-.43-1.126A1.536 1.536 0 0 0 18.656 4a1.507 1.507 0 0 0-1.115.425 1.524 1.524 0 0 0-.427 1.126v11.43zm-6.975 3.02a1.58 1.58 0 0 0 .817-.204 1.17 1.17 0 0 0 .513-.598 1.61 1.61 0 0 0 .031-.956l-.462-2.19a2.274 2.274 0 0 0-.613-.145 13.7 13.7 0 0 0-.88-.082 12.995 12.995 0 0 0-.744-.028H7.097l1.341 2.885c.154.363.38.692.663.966.289.245.66.37 1.039.351v.002z" fill="#000"/></g><defs><clipPath id="clip0_6994_41630"><path fill="#fff" transform="translate(4 4)" d="M0 0h16.217v16H0z"/></clipPath></defs></svg>