<?xml version="1.0" encoding="utf-8"?>
<!-- Generator: Adobe Illustrator 27.6.1, SVG Export Plug-In . SVG Version: 6.00 Build 0)  -->
<svg version="1.1" id="Layer_1" xmlns="http://www.w3.org/2000/svg" xmlns:xlink="http://www.w3.org/1999/xlink" x="0px" y="0px"
	 viewBox="0 0 24 24" style="enable-background:new 0 0 24 24;" xml:space="preserve">
<style type="text/css">
	.st0{fill:#EA580C;stroke:#7C2D12;stroke-width:2;stroke-linecap:round;stroke-linejoin:round;}
	.st1{fill:#FDE047;}
	.st2{fill:#FFFFFF;filter:url(#Adobe_OpacityMaskFilter);}
	.st3{mask:url(#a_00000005250317958176612650000000658957967967970733_);fill:#7C2D12;}
	.st4{fill:none;stroke:#FFFFFF;stroke-linecap:round;stroke-linejoin:round;}
</style>
<path class="st0" d="M19,8.7l-5.3-4.1c-1-0.7-2.3-0.7-3.3,0L5.1,8.7C4.4,9.2,4,10,4,10.8V18c0,1.1,0.9,2,2,2h12c1.1,0,2-0.9,2-2
	v-7.2C20,10,19.6,9.2,19,8.7z"/>
<path class="st1" d="M10,19v-6c0,0,0-1,1-1h2c1,0,1,1,1,1v6"/>
<defs>
	<filter id="Adobe_OpacityMaskFilter" filterUnits="userSpaceOnUse" x="9" y="11" width="6" height="9">
		<feColorMatrix  type="matrix" values="1 0 0 0 0  0 1 0 0 0  0 0 1 0 0  0 0 0 1 0"/>
	</filter>
</defs>
<mask maskUnits="userSpaceOnUse" x="9" y="11" width="6" height="9" id="a_00000005250317958176612650000000658957967967970733_">
	<path class="st2" d="M9,11h6v9H9V11z"/>
	<path d="M10,19v-6c0,0,0-1,1-1h2c1,0,1,1,1,1v6"/>
</mask>
<path class="st3" d="M9,19v1h2v-1H9z M13,12v1V12z M13,19v1h2v-1H13z M10,19h1v-6H9v6H10z M10,13l1,0v0l0,0c0,0,0,0,0-0.1
	c0,0,0,0,0,0c0,0-0.1,0,0,0v-2c-0.4,0-0.8,0.1-1.1,0.3c-0.3,0.2-0.5,0.4-0.6,0.7C9.1,12.3,9,12.7,9,13v0L10,13z M11,13h2v-2h-2V13z
	 M13,13C13.1,13,13.1,13,13,13C13,13,13,12.9,13,13C13,13,13,13,13,13L13,13L13,13L13,13L13,13h1l1,0v0c0,0,0-0.1,0-0.1
	c0-0.3-0.1-0.6-0.2-0.8c-0.1-0.3-0.4-0.5-0.6-0.7C13.8,11.1,13.4,11,13,11V13z M13,13v6h2v-6H13z"/>
<path class="st4" d="M19.3,8.3C19.3,8.3,19.3,8.3,19.3,8.3L14,4.2c-1.2-0.8-2.7-0.8-3.9,0L4.8,8.3C4,8.9,3.5,9.8,3.5,10.8V18
	c0,1.4,1.1,2.5,2.5,2.5h12c1.4,0,2.5-1.1,2.5-2.5v-7.2C20.5,9.8,20,8.9,19.3,8.3z"/>
</svg>
