<?xml version="1.0" encoding="utf-8"?>
<!-- Generator: Adobe Illustrator 27.6.1, SVG Export Plug-In . SVG Version: 6.00 Build 0)  -->
<svg version="1.1" id="Layer_1" xmlns="http://www.w3.org/2000/svg" xmlns:xlink="http://www.w3.org/1999/xlink" x="0px" y="0px"
	 viewBox="0 0 24 24" style="enable-background:new 0 0 24 24;" xml:space="preserve">
<style type="text/css">
	.st0{fill:#FFFFFF;}
	.st1{fill:#FB7185;}
	.st2{fill-rule:evenodd;clip-rule:evenodd;fill:#404040;}
	.st3{fill:none;stroke:#404040;stroke-width:2;stroke-linecap:round;}
</style>
<path class="st0" d="M7,3h10c2.2,0,4,1.8,4,4v10c0,2.2-1.8,4-4,4H7c-2.2,0-4-1.8-4-4V7C3,4.8,4.8,3,7,3z"/>
<path class="st1" d="M5,7c0-1.1,0.9-2,2-2h10c1.1,0,2,0.9,2,2v10c0,1.1-0.9,2-2,2H7c-1.1,0-2-0.9-2-2V7z"/>
<path class="st2" d="M20,10V7c0-1.7-1.3-3-3-3h-3v2h3c0.6,0,1,0.4,1,1v3H20z M4,14v3c0,1.7,1.3,3,3,3h3v-2H7c-0.6,0-1-0.4-1-1v-3H4z
	 M10,4H7C5.3,4,4,5.3,4,7v3h2V7c0-0.6,0.4-1,1-1h3V4z M14,20h3c1.7,0,3-1.3,3-3v-3h-2v3c0,0.6-0.4,1-1,1h-3V20z"/>
<path class="st3" d="M9,12h6"/>
</svg>
