<?xml version="1.0" encoding="utf-8"?>
<!-- Generator: Adobe Illustrator 27.6.1, SVG Export Plug-In . SVG Version: 6.00 Build 0)  -->
<svg version="1.1" id="Layer_1" xmlns="http://www.w3.org/2000/svg" xmlns:xlink="http://www.w3.org/1999/xlink" x="0px" y="0px"
	 viewBox="0 0 24 24" style="enable-background:new 0 0 24 24;" xml:space="preserve">
<style type="text/css">
	.st0{clip-path:url(#SVGID_00000005978693068300280510000015112562827380339340_);}
	.st1{fill:#FFCC00;}
</style>
<g>
	<defs>
		<rect id="SVGID_1_" x="4" y="4" width="16" height="16"/>
	</defs>
	<clipPath id="SVGID_00000055683045192135570840000008917701575387997314_">
		<use xlink:href="#SVGID_1_"  style="overflow:visible;"/>
	</clipPath>
	<g style="clip-path:url(#SVGID_00000055683045192135570840000008917701575387997314_);">
		<path class="st1" d="M12,20c1.1,0,2.1-0.2,3.1-0.6c1-0.4,1.8-1,2.6-1.7c0.7-0.7,1.3-1.6,1.7-2.6c0.8-2,0.8-4.2,0-6.2
			C18.5,7,17,5.5,15.1,4.6c-2-0.8-4.2-0.8-6.2,0c-1,0.4-1.8,1-2.6,1.7C5.6,7.1,5,8,4.6,8.9c-0.8,2-0.8,4.2,0,6.2
			c0.4,1,1,1.8,1.7,2.6C7.1,18.4,8,19,8.9,19.4C9.9,19.8,10.9,20,12,20L12,20z M12,18.5c-0.9,0-1.7-0.2-2.5-0.5
			c-0.8-0.3-1.5-0.8-2.1-1.4C6.8,16,6.4,15.3,6,14.5C4.6,11.2,6.2,7.4,9.5,6c1.6-0.7,3.4-0.7,5.1,0c1.6,0.7,2.8,1.9,3.5,3.5
			c0.3,0.8,0.5,1.7,0.5,2.5c0,0.9-0.2,1.7-0.5,2.5c-0.3,0.8-0.8,1.5-1.4,2.1C15.4,17.8,13.7,18.5,12,18.5L12,18.5L12,18.5z"/>
		<path class="st1" d="M9.8,16l2.2-1.6l2.2,1.6c0.3,0.2,0.5,0.2,0.7,0.1c0.2-0.2,0.3-0.4,0.2-0.7l-0.9-2.6l2.2-1.6
			c0.1-0.1,0.2-0.2,0.3-0.4c0-0.2-0.1-0.5-0.3-0.6c-0.1,0-0.2,0-0.3,0l-2.7,0l-0.8-2.6c-0.1-0.3-0.3-0.4-0.5-0.4
			c-0.3,0-0.5,0.2-0.5,0.4l-0.8,2.6l-2.7,0c-0.2,0-0.4,0-0.5,0.2c-0.1,0.1-0.1,0.3-0.1,0.4c0,0.2,0.1,0.3,0.3,0.4l2.2,1.6L9,15.4
			c-0.1,0.2,0,0.5,0.2,0.7C9.3,16.2,9.6,16.2,9.8,16L9.8,16z"/>
	</g>
</g>
</svg>
