<svg fill="none" height="24" width="24" xmlns="http://www.w3.org/2000/svg" xmlns:xlink="http://www.w3.org/1999/xlink"><clipPath id="a"><path d="m0 0h24v24h-24z"/></clipPath><g clip-path="url(#a)"><path d="m7.77 10.813 4.47 8.687 4.467-8.684-8.935-.003z" fill="#fde68a" stroke="#fde047" stroke-linecap="round" stroke-linejoin="round"/><g fill="#fef9c3"><path clip-rule="evenodd" d="m9.83 4.586a5.238 5.238 0 0 1 7.348 6.397.5.5 0 0 1 -.472.333l-8.877-.003a.5.5 0 0 1 -.53-.33 5.238 5.238 0 0 1 2.532-6.397zm-1.69 5.727 8.198.003a4.24 4.24 0 0 0 -4.1-5.316 4.238 4.238 0 0 0 -4.1 5.313z" fill-rule="evenodd"/><path d="m16.337 10.316-8.198-.003a4.238 4.238 0 1 1 8.198.003z"/></g></g></svg>