<svg width="24" height="24" fill="none" xmlns="http://www.w3.org/2000/svg"><g clip-path="url(#clip0_6994_41602)"><path fill-rule="evenodd" clip-rule="evenodd" d="M15.091 19.375a7.71 7.71 0 0 1-3.092.625 7.714 7.714 0 0 1-3.092-.627 8.121 8.121 0 0 1-2.552-1.734 8.252 8.252 0 0 1-1.733-2.558 7.865 7.865 0 0 1 0-6.166 8.277 8.277 0 0 1 1.73-2.558 8.026 8.026 0 0 1 2.553-1.732 7.938 7.938 0 0 1 6.176 0 8.237 8.237 0 0 1 4.298 4.292 7.865 7.865 0 0 1 0 6.166 8.26 8.26 0 0 1-1.734 2.558 8.096 8.096 0 0 1-2.554 1.734zm-6.245-6.988c.375.528.794 1.023 1.25 1.482.467.465.975.886 1.517 1.259a6.69 6.69 0 0 0 1.527.812c.452.176.938.246 1.421.203a1.982 1.982 0 0 0 1.285-.689l.07-.089a1.16 1.16 0 0 0 .282-.664.692.692 0 0 0-.342-.645c-.146-.11-.294-.211-.442-.313-.148-.101-.3-.209-.455-.32l-.481-.348a.89.89 0 0 0-.636-.203c-.198.05-.377.157-.513.309l-.309.306a.23.23 0 0 1-.178.065.468.468 0 0 1-.187-.044 6.036 6.036 0 0 1-.526-.406c-.211-.183-.418-.37-.646-.59a7.805 7.805 0 0 1-.609-.655 3.922 3.922 0 0 1-.392-.534.406.406 0 0 1-.054-.16.222.222 0 0 1 .065-.187l.306-.319c.153-.141.264-.323.319-.524a.866.866 0 0 0-.22-.625l-.97-1.378a.798.798 0 0 0-.377-.297.76.76 0 0 0-.461 0 1.76 1.76 0 0 0-.54.293.28.28 0 0 0-.065.044l-.045.045a2.018 2.018 0 0 0-.609 1.218c-.044.487.026.978.203 1.433a6.46 6.46 0 0 0 .812 1.52z" fill="#28CD41"/></g><defs><clipPath id="clip0_6994_41602"><path fill="#fff" transform="translate(4 4)" d="M0 0h16.01v16H0z"/></clipPath></defs></svg>