<?xml version="1.0" encoding="utf-8"?>
<!-- Generator: Adobe Illustrator 27.6.1, SVG Export Plug-In . SVG Version: 6.00 Build 0)  -->
<svg version="1.1" id="Layer_1" xmlns="http://www.w3.org/2000/svg" xmlns:xlink="http://www.w3.org/1999/xlink" x="0px" y="0px"
	 viewBox="0 0 24 24" style="enable-background:new 0 0 24 24;" xml:space="preserve">
<style type="text/css">
	.st0{clip-path:url(#SVGID_00000156575786391024201030000008816017324957262472_);}
	.st1{fill-rule:evenodd;clip-rule:evenodd;fill:#28CD41;}
</style>
<g>
	<defs>
		<rect id="SVGID_1_" x="4" y="4" width="16" height="16"/>
	</defs>
	<clipPath id="SVGID_00000076596040565412908540000016766526753595341457_">
		<use xlink:href="#SVGID_1_"  style="overflow:visible;"/>
	</clipPath>
	<g style="clip-path:url(#SVGID_00000076596040565412908540000016766526753595341457_);">
		<path class="st1" d="M15.1,19.4c-1,0.4-2,0.6-3.1,0.6c-1.1,0-2.1-0.2-3.1-0.6c-1-0.4-1.8-1-2.6-1.7C5.6,16.9,5,16,4.6,15.1
			c-0.8-2-0.8-4.2,0-6.2c0.4-1,1-1.8,1.7-2.6C7.1,5.6,8,5,8.9,4.6c2-0.8,4.2-0.8,6.2,0C17,5.5,18.5,7,19.4,8.9c0.8,2,0.8,4.2,0,6.2
			c-0.4,1-1,1.8-1.7,2.6C16.9,18.4,16,19,15.1,19.4z M8.8,12.4c0.4,0.5,0.8,1,1.2,1.5c0.5,0.5,1,0.9,1.5,1.3c0.5,0.3,1,0.6,1.5,0.8
			c0.5,0.2,0.9,0.2,1.4,0.2c0.5-0.1,1-0.3,1.3-0.7l0.1-0.1c0.2-0.2,0.3-0.4,0.3-0.7c0-0.3-0.1-0.5-0.3-0.6c-0.1-0.1-0.3-0.2-0.4-0.3
			c-0.1-0.1-0.3-0.2-0.5-0.3l-0.5-0.3c-0.2-0.1-0.4-0.2-0.6-0.2c-0.2,0.1-0.4,0.2-0.5,0.3L13,13.5c0,0-0.1,0.1-0.2,0.1
			c-0.1,0-0.1,0-0.2,0c-0.2-0.1-0.4-0.3-0.5-0.4c-0.2-0.2-0.4-0.4-0.6-0.6c-0.2-0.2-0.4-0.4-0.6-0.7c-0.1-0.2-0.3-0.3-0.4-0.5
			c0,0,0-0.1-0.1-0.2c0-0.1,0-0.1,0.1-0.2l0.3-0.3c0.2-0.1,0.3-0.3,0.3-0.5c0-0.2-0.1-0.5-0.2-0.6l-1-1.4C9.8,8,9.7,7.9,9.6,7.8
			c-0.1,0-0.3,0-0.5,0C8.9,7.9,8.7,8,8.5,8.1c0,0,0,0-0.1,0l0,0C8.1,8.5,7.9,9,7.8,9.4c0,0.5,0,1,0.2,1.4
			C8.2,11.4,8.5,11.9,8.8,12.4L8.8,12.4z"/>
	</g>
</g>
</svg>
