<?xml version="1.0" encoding="utf-8"?>
<!-- Generator: Adobe Illustrator 27.6.1, SVG Export Plug-In . SVG Version: 6.00 Build 0)  -->
<svg version="1.1" id="Layer_1" xmlns="http://www.w3.org/2000/svg" xmlns:xlink="http://www.w3.org/1999/xlink" x="0px" y="0px"
	 viewBox="0 0 24 24" style="enable-background:new 0 0 24 24;" xml:space="preserve">
<style type="text/css">
	.st0{fill:none;stroke:#FAFAFA;stroke-width:1.5;stroke-linecap:round;stroke-linejoin:round;}
	.st1{fill:#818CF8;stroke:#171717;stroke-linecap:round;stroke-linejoin:round;}
</style>
<g>
	<path class="st0" d="M12,20.2c4.6,0,8.2-3.7,8.2-8.2S16.6,3.8,12,3.8S3.8,7.4,3.8,12S7.4,20.2,12,20.2z"/>
	<path class="st1" d="M12,19.5c4.1,0,7.5-3.4,7.5-7.5S16.1,4.5,12,4.5S4.5,7.9,4.5,12S7.9,19.5,12,19.5z"/>
	<path class="st0" d="M12,16.2L12,16.2 M12,13.2c0-0.6,0.3-1.1,0.8-1.2c1.1-0.4,1.7-1.7,1.3-2.8S12.4,7.5,11.3,8
		c-0.4,0.1-0.7,0.4-1,0.7"/>
</g>
</svg>
