<?xml version="1.0" encoding="utf-8"?>
<!-- Generator: Adobe Illustrator 27.6.1, SVG Export Plug-In . SVG Version: 6.00 Build 0)  -->
<svg version="1.1" id="Layer_1" xmlns="http://www.w3.org/2000/svg" xmlns:xlink="http://www.w3.org/1999/xlink" x="0px" y="0px"
	 viewBox="0 0 24 24" style="enable-background:new 0 0 24 24;" xml:space="preserve">
<style type="text/css">
	.st0{fill:#7F1D1D;stroke:#FFFFFF;stroke-linecap:round;stroke-linejoin:round;}
	.st1{fill:none;stroke:#DC2626;stroke-width:3.319;stroke-linecap:round;stroke-linejoin:round;}
	.st2{fill:none;stroke:#FFFFFF;stroke-width:1.414;stroke-linecap:round;stroke-linejoin:round;}
	.st3{fill:none;stroke:#FFFFFF;stroke-linecap:round;stroke-linejoin:round;}
	.st4{fill:none;stroke:#7F1D1D;stroke-linecap:round;stroke-linejoin:round;}
	.st5{fill:none;stroke:#7F1D1D;stroke-width:0.5;stroke-linecap:round;stroke-linejoin:round;}
</style>
<g>
	<path class="st0" d="M8.7,12c0-1.8,1.5-3.3,3.3-3.3s3.3,1.5,3.3,3.3c0,1.8-1.5,3.3-3.3,3.3C10.2,15.3,8.7,13.8,8.7,12z M12,5.5
		c-3.6,0-6.5,2.9-6.5,6.5s2.9,6.5,6.5,6.5s6.5-2.9,6.5-6.5S15.6,5.5,12,5.5z"/>
	<path class="st1" d="M12,17.4c3,0,5.4-2.3,5.5-5.3s-2.3-5.4-5.3-5.5c0,0-0.1,0-0.1,0c-3,0-5.4,2.5-5.3,5.5C6.7,15,9.1,17.4,12,17.4
		z"/>
	<path class="st2" d="M15,15l2,2 M9,15l-2,2 M7,7l2,2 M17,7l-2,2"/>
	<path class="st3" d="M12,20.5c4.7,0,8.5-3.8,8.5-8.5S16.7,3.5,12,3.5S3.5,7.3,3.5,12S7.3,20.5,12,20.5z"/>
	<g>
		<path class="st4" d="M19.5,12c0,4.1-3.4,7.5-7.5,7.5S4.5,16.1,4.5,12S7.9,4.5,12,4.5S19.5,7.9,19.5,12z"/>
		<path class="st5" d="M12,16c2.2,0,4-1.8,4-4c0-2.2-1.8-4-4-4c0,0,0,0,0,0c-2.2,0-4,1.8-4,4C8,14.2,9.8,16,12,16z"/>
	</g>
</g>
</svg>
