<?xml version="1.0" encoding="utf-8"?>
<!-- Generator: Adobe Illustrator 27.6.1, SVG Export Plug-In . SVG Version: 6.00 Build 0)  -->
<svg version="1.1" id="Layer_1" xmlns="http://www.w3.org/2000/svg" xmlns:xlink="http://www.w3.org/1999/xlink" x="0px" y="0px"
	 viewBox="0 0 24 24" style="enable-background:new 0 0 24 24;" xml:space="preserve">
<style type="text/css">
	.st0{fill:#EC4899;stroke:#FAFAFA;}
	.st1{fill:#FFFFFF;}
</style>
<path class="st0" d="M19.8,15.3L19.8,15.3c-0.4,1-1.1,1.9-1.8,2.7c-0.8,0.8-1.7,1.4-2.7,1.8L19.8,15.3L19.8,15.3z M19.8,15.3
	c0.9-2.1,0.9-4.5,0-6.6 M19.8,15.3V8.7 M19.8,8.7L19.8,8.7 M19.8,8.7L19.8,8.7 M19.8,8.7c-0.9-2-2.5-3.7-4.6-4.6 M19.8,8.7l-4.6-4.6
	 M15.3,4.2L15.3,4.2 M15.3,4.2L15.3,4.2 M15.3,4.2c-2.1-0.9-4.5-0.9-6.6,0 M15.3,4.2H8.7 M8.7,4.2L8.7,4.2 M8.7,4.2L8.7,4.2
	 M8.7,4.2C7.7,4.6,6.8,5.2,6,6C5.2,6.8,4.6,7.7,4.2,8.7 M8.7,4.2L4.2,8.7 M4.2,8.7L4.2,8.7 M4.2,8.7L4.2,8.7 M4.2,8.7
	c-0.9,2.1-0.9,4.5,0,6.6 M4.2,8.7v6.6 M4.2,15.3L4.2,15.3 M4.2,15.3L4.2,15.3 M4.2,15.3c0.4,1,1.1,1.9,1.8,2.7
	c0.8,0.8,1.7,1.4,2.7,1.8 M4.2,15.3l4.5,4.6 M8.7,19.8c1,0.4,2.2,0.7,3.3,0.7 M8.7,19.8l3.3,0.7 M12,20.5c1.1,0,2.2-0.2,3.3-0.7
	L12,20.5z"/>
<path class="st1" d="M9.7,16.2c-0.3,0.2-0.5,0.2-0.7,0.1c-0.2-0.2-0.3-0.4-0.2-0.7l0.9-2.7l-2.3-1.6c-0.2-0.1-0.3-0.2-0.3-0.4
	c0-0.2,0-0.3,0.1-0.4c0.1-0.1,0.3-0.2,0.5-0.2l2.8,0l0.9-2.7c0.1-0.3,0.3-0.5,0.6-0.4c0.2,0,0.4,0.2,0.4,0.4l0.9,2.7l2.8,0
	c0.2,0,0.4,0,0.5,0.2c0.1,0.1,0.2,0.3,0.1,0.4c0,0.2-0.1,0.3-0.3,0.4l-2.3,1.6l0.9,2.7c0.1,0.3,0.1,0.5-0.2,0.7
	c-0.2,0.2-0.4,0.1-0.7-0.1L12,14.5L9.7,16.2L9.7,16.2z"/>
</svg>
