<?xml version="1.0" encoding="utf-8"?>
<!-- Generator: Adobe Illustrator 27.6.1, SVG Export Plug-In . SVG Version: 6.00 Build 0)  -->
<svg version="1.1" id="Layer_1" xmlns="http://www.w3.org/2000/svg" xmlns:xlink="http://www.w3.org/1999/xlink" x="0px" y="0px"
	 viewBox="0 0 24 24" style="enable-background:new 0 0 24 24;" xml:space="preserve">
<style type="text/css">
	.st0{fill:#658920;}
	.st1{fill:none;stroke:#365314;stroke-width:1.125;stroke-linecap:round;stroke-linejoin:round;}
	.st2{fill:#78350F;}
</style>
<g>
	<path class="st0" d="M17.1,8.6c-0.2-0.2-0.3-0.3-0.5-0.5c0.2-0.4,0.1-1,0-1.5c-0.1-0.6-0.5-1.2-1.1-1.5c-0.6-0.4-1.3-0.6-2-0.6
		c-0.6,0-1,0.2-1.5,0.5c-0.5-0.3-1.1-0.4-1.6-0.4C9.7,4.5,9,4.8,8.4,5.1c-0.6,0.4-0.8,0.8-1,1.4C7.3,7,7.3,7.6,7.5,8.1
		C7.3,8.2,7.1,8.4,6.9,8.6C6.4,9.3,6.3,10.2,6.7,11c0.1,0.3,0.4,0.6,0.6,0.8c0,0.3-0.1,0.4,0,0.7c0.1,0.4,0.2,0.8,0.4,1.1
		c0.3,0.3,0.7,0.5,1.1,0.6c0.4,0.2,0.8,0.5,1.2,0.4s1.1-0.6,1.8-0.6s1.3,0.4,1.8,0.4c0.4,0.1,0.9,0,1.3-0.2c0.4-0.2,0.7-0.5,1-0.8
		s0.5-0.6,0.6-1c0.1-0.3,0.3-0.5,0.3-0.7c0.2-0.2,0.3-0.5,0.5-0.7C17.7,10.3,17.6,9.3,17.1,8.6z"/>
	<path class="st1" d="M17.2,8.6C17,8.4,16.7,8.2,16.5,8c0.2-0.4,0.3-0.8,0.2-1.3c-0.1-0.6-0.5-1.3-1.1-1.6c-0.6-0.4-1.3-0.6-2-0.6
		c-0.6,0-1,0.1-1.5,0.4c-0.5-0.3-1.1-0.3-1.7-0.3c-0.7,0-1.4,0.2-2,0.6s-0.8,0.9-1,1.5C7.3,7.2,7.3,7.5,7.5,7.9
		C7.3,8.1,7.1,8.3,7,8.6C6.4,9.3,6.3,10.2,6.7,11c0.1,0.3,0.4,0.6,0.6,0.8c0,0.3-0.1,0.5,0,0.8c0.1,0.4,0.3,0.7,0.6,1
		c0.3,0.3,0.5,0.5,0.9,0.7s0.9,0.3,1.3,0.3c0.4-0.1,1.1-0.5,1.8-0.5s1.2,0.4,1.8,0.5c0.4,0.1,0.8,0,1.2-0.2s0.8-0.3,1.1-0.6
		c0.3-0.3,0.5-0.8,0.6-1.2c0.1-0.3,0.2-0.6,0.1-0.8c0.2-0.2,0.4-0.4,0.6-0.7C17.6,10.3,17.7,9.3,17.2,8.6z"/>
</g>
<g>
	<path class="st2" d="M14.1,9.6c-0.2-0.2-0.6-0.3-0.9,0l0,0l-0.6,0.6V9.7c0-0.3-0.3-0.6-0.6-0.6s-0.6,0.3-0.6,0.6v1.9l-0.9-0.9
		c-0.3-0.2-0.6-0.2-0.9,0c-0.2,0.2-0.2,0.6,0,0.8l1.7,1.7l0.1,0.1v6.1c0,0.3,0.3,0.6,0.6,0.6s0.6-0.3,0.6-0.6V12l1.5-1.5
		C14.3,10.3,14.3,9.9,14.1,9.6z"/>
</g>
</svg>
