<?xml version="1.0" encoding="utf-8"?>
<!-- Generator: Adobe Illustrator 27.6.1, SVG Export Plug-In . SVG Version: 6.00 Build 0)  -->
<svg version="1.1" id="Layer_1" xmlns="http://www.w3.org/2000/svg" xmlns:xlink="http://www.w3.org/1999/xlink" x="0px" y="0px"
	 viewBox="0 0 24 24" style="enable-background:new 0 0 24 24;" xml:space="preserve">
<style type="text/css">
	.st0{fill:#FFFFFF;stroke:#FFFFFF;stroke-width:3;stroke-linejoin:round;}
	.st1{fill:#FFFFFF;stroke:#000000;stroke-linejoin:round;}
	.st2{fill:#FCA5A5;stroke:#000000;stroke-miterlimit:10;}
	.st3{fill:#FF0099;}
	.st4{fill:none;stroke:#FFFFFF;stroke-linecap:round;stroke-linejoin:round;}
	.st5{fill:#854D0E;stroke:#000000;stroke-linejoin:round;}
</style>
<path class="st0" d="M15.4,11c-0.1-0.2-0.1-0.4,0.1-0.6l1-1c0.1-0.2,0.4-0.2,0.5-0.1c0.7,0.5,1.8,0.4,2.3-0.4
	c0.5-0.7,0.4-1.8-0.4-2.3l0,0c-0.2-0.2-0.5-0.4-0.8-0.4c-0.2,0-0.3-0.2-0.3-0.3c-0.2-0.9-1.1-1.4-2-1.2c-0.3,0.1-0.6,0.2-0.8,0.4
	c-0.5,0.5-0.6,1.3-0.3,1.9c0.1,0.2,0,0.4-0.1,0.5l-1,1c-0.2,0.2-0.4,0.2-0.6,0.1c-3.6-2-7,1.4-8,2.6c-0.1,0.1-0.1,0.1-0.1,0.2
	c-0.1,0-0.1,0.1-0.2,0.1c-0.9,0.9,0.1,3.3,2.3,5.4c2.1,2.1,4.6,3.2,5.4,2.3c0.1-0.1,0.1-0.1,0.1-0.2c0.1,0,0.2-0.1,0.2-0.1
	C13.9,17.9,17.3,14.5,15.4,11z"/>
<path class="st1" d="M15.4,11c-0.1-0.2-0.1-0.4,0.1-0.6l1-1c0.1-0.2,0.4-0.2,0.5-0.1c0.7,0.5,1.8,0.4,2.3-0.4
	c0.5-0.7,0.4-1.8-0.4-2.3l0,0c-0.2-0.2-0.5-0.4-0.8-0.4c-0.2,0-0.3-0.2-0.3-0.3c-0.2-0.9-1.1-1.4-2-1.2c-0.3,0.1-0.6,0.2-0.8,0.4
	c-0.5,0.5-0.6,1.3-0.3,1.9c0.1,0.2,0,0.4-0.1,0.5l-1,1c-0.2,0.2-0.4,0.2-0.6,0.1c-3.6-2-7,1.4-8,2.6c-0.1,0.1-0.1,0.1-0.1,0.2
	c-0.1,0-0.1,0.1-0.2,0.1c-0.9,0.9,0.1,3.3,2.3,5.4c2.1,2.1,4.6,3.2,5.4,2.3c0.1-0.1,0.1-0.1,0.1-0.2c0.1,0,0.2-0.1,0.2-0.1
	C13.9,17.9,17.3,14.5,15.4,11z"/>
<path class="st2" d="M12.4,19.3c0.9-0.9-0.2-3.3-2.3-5.4c-2.1-2.1-4.6-3.2-5.4-2.3C3.8,12.4,4.8,14.8,7,17
	C9.1,19.1,11.5,20.1,12.4,19.3z"/>
<path class="st3" d="M8.1,15l0.7,0.7L8.1,15z"/>
<g>
	<path class="st4" d="M8.1,15l0.7,0.7"/>
	<path class="st5" d="M13.4,8.8c0.4,0.2,0.7,0.5,1,0.8c0.3,0.3,0.6,0.7,0.8,1.1c2.8,4.3-2.8,8.6-2.8,8.6c0.9-0.9-0.2-3.3-2.3-5.4
		s-4.6-3.2-5.4-2.3S9,5.9,13.4,8.8z"/>
</g>
</svg>
