<?xml version="1.0" encoding="utf-8"?>
<!-- Generator: Adobe Illustrator 27.6.1, SVG Export Plug-In . SVG Version: 6.00 Build 0)  -->
<svg version="1.1" id="Layer_1" xmlns="http://www.w3.org/2000/svg" xmlns:xlink="http://www.w3.org/1999/xlink" x="0px" y="0px"
	 viewBox="0 0 24 24" style="enable-background:new 0 0 24 24;" xml:space="preserve">
<style type="text/css">
	.st0{fill-rule:evenodd;clip-rule:evenodd;fill:#FFFFFF;}
	.st1{fill:#FFFFFF;}
	.st2{fill:#EAB308;}
	.st3{fill-rule:evenodd;clip-rule:evenodd;fill:#713F12;}
	.st4{fill:#A3E635;}
</style>
<path class="st0" d="M8.8,4.5c-0.5,0-1,0.3-1.3,0.7C7.2,5.5,7.1,5.9,7.1,6.2v2.5L6,11.1c-0.3,0.6-0.4,1.2-0.4,1.9v4.8
	c0,0.4,0.2,0.9,0.5,1.2c0.3,0.3,0.7,0.5,1.1,0.5h9.7c0.4,0,0.8-0.2,1.1-0.5c0.3-0.3,0.5-0.7,0.5-1.2V13c0-0.6-0.1-1.3-0.4-1.9
	l-0.8-1.6C17,9,16.9,8.3,16.9,7.7V6.2c0-0.4-0.2-0.9-0.5-1.2c-0.3-0.3-0.7-0.5-1.1-0.5H8.8z M18.4,7.7V6.2c0-0.8-0.3-1.6-0.9-2.2
	C16.9,3.3,16.1,3,15.2,3H8.8C7.9,3,7.1,3.3,6.5,3.9C5.9,4.5,5.6,5.4,5.6,6.2v2.1l-1,2.1C4.2,11.2,4,12.1,4,13v4.8
	c0,0.8,0.3,1.6,0.9,2.2C5.5,20.7,6.3,21,7.1,21h9.7c0.8,0,1.6-0.3,2.2-0.9c0.6-0.6,0.9-1.4,0.9-2.2V13c0-0.9-0.2-1.7-0.6-2.5
	l-0.8-1.6C18.5,8.5,18.4,8.1,18.4,7.7z"/>
<path class="st1" d="M7.6,5c0.3-0.3,0.7-0.5,1.1-0.5h6.5c0.4,0,0.8,0.2,1.1,0.5c0.3,0.3,0.5,0.7,0.5,1.2v1.5c0,0.6,0.1,1.3,0.4,1.9
	l0.8,1.6c0.3,0.6,0.4,1.2,0.4,1.9v4.8c0,0.4-0.2,0.9-0.5,1.2c-0.3,0.3-0.7,0.5-1.1,0.5H7.1c-0.4,0-0.8-0.2-1.1-0.5
	c-0.3-0.3-0.5-0.7-0.5-1.2V13c0-0.6,0.1-1.3,0.4-1.9l1.2-2.4V6.2C7.1,5.8,7.3,5.3,7.6,5z"/>
<path class="st2" d="M15.2,4.5H8.8C8.3,4.5,7.9,4.7,7.6,5C7.3,5.3,7.1,5.8,7.1,6.2v2.5L6,11.1c-0.3,0.6-0.4,1.2-0.4,1.9v4.8
	c0,0.4,0.2,0.9,0.5,1.2c0.3,0.3,0.7,0.5,1.1,0.5h9.7c0.4,0,0.8-0.2,1.1-0.5c0.3-0.3,0.5-0.7,0.5-1.2V13c0-0.6-0.1-1.3-0.4-1.9
	l-0.8-1.6C17,9,16.8,8.3,16.8,7.7V6.2c0-0.4-0.2-0.9-0.5-1.2C16.1,4.7,15.6,4.5,15.2,4.5L15.2,4.5z"/>
<path class="st3" d="M8.8,5C8.5,5,8.2,5.2,8,5.4C7.8,5.6,7.7,5.9,7.7,6.2v1.5c0,0.6,0.1,1.1,0.4,1.6l0.8,1.6
	c0.3,0.6,0.5,1.4,0.5,2.1v4.8c0,0.4-0.1,0.8-0.3,1.1h7.9c0.3,0,0.6-0.1,0.8-0.3c0.2-0.2,0.3-0.5,0.3-0.8V13c0-0.6-0.1-1.1-0.4-1.6
	l-0.8-1.6c-0.3-0.6-0.5-1.4-0.5-2.1V6.2c0-0.3-0.1-0.6-0.3-0.8C15.8,5.2,15.5,5,15.2,5H8.8z M7.1,19c0.3,0,0.6-0.1,0.8-0.3
	c0.2-0.2,0.3-0.5,0.3-0.8V13c0-0.6-0.1-1.1-0.4-1.6L7.1,9.8l-0.7,1.5C6.2,11.9,6,12.4,6,13v4.8c0,0.3,0.1,0.6,0.3,0.8
	C6.6,18.8,6.9,19,7.1,19z M6.6,6.2c0-0.6,0.2-1.1,0.6-1.5C7.7,4.3,8.2,4,8.8,4h6.5c0.6,0,1.1,0.2,1.5,0.6c0.4,0.4,0.6,1,0.6,1.5v1.5
	c0,0.6,0.1,1.1,0.4,1.6l0.8,1.6c0.3,0.6,0.5,1.4,0.5,2.1v4.8c0,0.6-0.2,1.1-0.6,1.5S17.4,20,16.9,20H7.1c-0.6,0-1.1-0.2-1.5-0.6
	c-0.4-0.4-0.6-1-0.6-1.5V13c0-0.7,0.2-1.4,0.5-2.1l1.1-2.3C6.6,8.6,6.6,6.2,6.6,6.2z"/>
<path class="st4" d="M13.7,16.8c0.9,0,1.7-0.8,1.7-1.8s-0.8-1.8-1.7-1.8c-0.9,0-1.7,0.8-1.7,1.8S12.8,16.8,13.7,16.8L13.7,16.8z"/>
<path class="st3" d="M13.7,14.3c-0.4,0-0.7,0.3-0.7,0.7c0,0,0,0,0,0c0,0.4,0.3,0.7,0.7,0.7c0.4,0,0.7-0.3,0.7-0.7
	C14.4,14.7,14.1,14.4,13.7,14.3z M11,15.1c0-1.5,1.2-2.8,2.7-2.8c1.5,0,2.7,1.3,2.7,2.8s-1.2,2.8-2.7,2.8C12.2,17.9,11,16.6,11,15.1
	L11,15.1z M10.5,8c0-0.6,0.5-1,1-1c0,0,0,0,0,0h1.7c0.6,0,1,0.5,1,1c0,0,0,0,0,0c0,0.6-0.5,1-1,1c0,0,0,0,0,0h-1.7
	C11,9.1,10.5,8.6,10.5,8C10.5,8.1,10.5,8,10.5,8z"/>
</svg>
