<svg fill="none" height="24" width="24" xmlns="http://www.w3.org/2000/svg"><g stroke-linecap="round" stroke-linejoin="round"><path d="m16.5 8a4.5 4.5 0 1 0 -9 0v8a4.5 4.5 0 1 0 9 0z" fill="#f5f5f5" stroke="#fff"/><path d="m12 5.5a2.5 2.5 0 0 1 2.5 2.5v8a2.5 2.5 0 0 1 -5 0v-8a2.5 2.5 0 0 1 2.5-2.5zm4.5 2.5a4.5 4.5 0 1 0 -9 0v8a4.5 4.5 0 1 0 9 0z" fill="#f5f5f5" stroke="#fff"/><path d="m12 4.5a3.5 3.5 0 0 1 3.5 3.5v8a3.5 3.5 0 1 1 -7 0v-8a3.5 3.5 0 0 1 3.5-3.5z" fill="#e5e5e5" stroke="#404040"/></g><path d="m12 9.6a1.6 1.6 0 1 0 0-3.2 1.6 1.6 0 0 0 0 3.2z" fill="#dc2626"/><path d="m12 13.6a1.6 1.6 0 1 0 0-3.2 1.6 1.6 0 0 0 0 3.2z" fill="#fbbf24"/><path d="m12 17.6a1.6 1.6 0 1 0 0-3.2 1.6 1.6 0 0 0 0 3.2z" fill="#84cc16"/></svg>