<svg width="24" height="24" fill="none" xmlns="http://www.w3.org/2000/svg"><g clip-path="url(#clip0_6994_41583)" fill="#FF9500"><path d="M12 20a7.714 7.714 0 0 0 3.091-.625 8.062 8.062 0 0 0 2.554-1.734 8.254 8.254 0 0 0 1.734-2.558 7.865 7.865 0 0 0 0-6.166 8.237 8.237 0 0 0-4.298-4.292 7.938 7.938 0 0 0-6.176 0 8.025 8.025 0 0 0-2.554 1.742 8.277 8.277 0 0 0-1.73 2.558 7.865 7.865 0 0 0 0 6.166 8.26 8.26 0 0 0 1.734 2.558 8.075 8.075 0 0 0 2.552 1.734c.977.416 2.03.626 3.092.617zm0-1.506a6.348 6.348 0 0 1-2.524-.502 6.43 6.43 0 0 1-2.06-1.393 6.528 6.528 0 0 1-1.39-2.07 6.496 6.496 0 0 1 8.497-8.527 6.531 6.531 0 0 1 3.463 3.463c.34.8.512 1.661.506 2.53a6.426 6.426 0 0 1-.5 2.528 6.563 6.563 0 0 1-1.388 2.07 6.426 6.426 0 0 1-4.605 1.894v.007z"/><path d="M11.833 13.625a.722.722 0 0 0 .526-.183.588.588 0 0 0 .187-.44v-.061a.807.807 0 0 1 .203-.54 2.82 2.82 0 0 1 .584-.49c.344-.217.66-.476.942-.769.273-.317.412-.728.386-1.145a1.732 1.732 0 0 0-.777-1.54 3.137 3.137 0 0 0-1.79-.52 3.212 3.212 0 0 0-1.674.391 1.787 1.787 0 0 0-.834.906c-.05.13-.077.267-.08.406a.532.532 0 0 0 .203.442c.114.096.258.15.407.152a.713.713 0 0 0 .377-.089c.106-.066.2-.15.278-.247l.169-.204c.139-.182.314-.334.513-.446.184-.094.389-.141.595-.138.284-.014.562.08.78.262a.871.871 0 0 1 .292.678.843.843 0 0 1-.254.64 6.032 6.032 0 0 1-.747.58 3.658 3.658 0 0 0-.69.64c-.207.27-.31.605-.292.945v.051c0 .48.232.72.696.719zm-.02 2.38a.905.905 0 0 0 .84-.535.85.85 0 0 0-.2-.962.944.944 0 0 0-1.28 0 .836.836 0 0 0 0 1.235.903.903 0 0 0 .648.261h-.008z"/></g><defs><clipPath id="clip0_6994_41583"><path fill="#fff" transform="translate(4 4)" d="M0 0h16.01v16H0z"/></clipPath></defs></svg>