<?xml version="1.0" encoding="utf-8"?>
<!-- Generator: Adobe Illustrator 27.6.1, SVG Export Plug-In . SVG Version: 6.00 Build 0)  -->
<svg version="1.1" id="Layer_1" xmlns="http://www.w3.org/2000/svg" xmlns:xlink="http://www.w3.org/1999/xlink" x="0px" y="0px"
	 viewBox="0 0 24 24" style="enable-background:new 0 0 24 24;" xml:space="preserve">
<style type="text/css">
	.st0{fill:none;stroke:#171717;stroke-width:2;stroke-linecap:round;stroke-linejoin:round;}
</style>
<path class="st0" d="M4,6c0-1.1,0.9-2,2-2L4,6z M9,4h1.5H9z M13.5,4H15H13.5z M18,4c1.1,0,2,0.9,2,2L18,4z M20,9v1.5V9z M20,13.5V15
	V13.5z M20,18c0,1.1-0.9,2-2,2L20,18z M15,20h-1.5H15z M10.5,20H9H10.5z M6,20c-1.1,0-2-0.9-2-2L6,20z M4,15v-1.5V15z M4,10.5V9
	V10.5z"/>
</svg>
