<?xml version="1.0" encoding="utf-8"?>
<!-- Generator: Adobe Illustrator 27.6.1, SVG Export Plug-In . SVG Version: 6.00 Build 0)  -->
<svg version="1.1" id="Layer_1" xmlns="http://www.w3.org/2000/svg" xmlns:xlink="http://www.w3.org/1999/xlink" x="0px" y="0px"
	 viewBox="0 0 24 24" style="enable-background:new 0 0 24 24;" xml:space="preserve">
<style type="text/css">
	.st0{clip-path:url(#SVGID_00000177442514320574921640000015808156972285862036_);}
</style>
<g>
	<defs>
		<rect id="SVGID_1_" x="3" y="4" width="18.4" height="16"/>
	</defs>
	<clipPath id="SVGID_00000169535341335946109680000005046591558837784450_">
		<use xlink:href="#SVGID_1_"  style="overflow:visible;"/>
	</clipPath>
	<g style="clip-path:url(#SVGID_00000169535341335946109680000005046591558837784450_);">
		<path d="M10,19.1h4.4v-5.4c0-0.4-0.2-0.6-0.6-0.6h-3.2c-0.2,0-0.3,0.1-0.4,0.2C10,13.4,10,13.5,10,13.7L10,19.1L10,19.1z M7,20
			h10.2c0.5,0,1-0.1,1.3-0.5c0.3-0.3,0.5-0.8,0.5-1.3V9.9L17.7,9v8.9c0,0.5-0.2,0.7-0.7,0.7H7.3c-0.5,0-0.7-0.2-0.7-0.7V9L5.3,9.9
			v8.3c0,0.5,0.1,0.9,0.5,1.3C6.1,19.9,6.6,20,7,20L7,20z M3,11.6c0,0.3,0.2,0.5,0.5,0.6c0.1,0,0.2,0.1,0.3,0c0.1,0,0.2,0,0.3-0.1
			c0.1-0.1,0.2-0.1,0.3-0.2l7.6-6.4c0.1-0.1,0.4-0.1,0.5,0c0,0,0,0,0,0L20,12c0.1,0.1,0.2,0.1,0.3,0.2c0.1,0.1,0.2,0.1,0.3,0.1
			c0.2,0,0.4-0.1,0.5-0.2c0.1-0.1,0.2-0.3,0.2-0.5c0-0.2-0.1-0.4-0.3-0.6l-7.9-6.7c-0.3-0.2-0.6-0.4-1-0.4c-0.4,0-0.7,0.1-1,0.4
			l-8,6.7C3.1,11.2,3,11.4,3,11.6z M17,8L19,9.7V6.2c0-0.3-0.2-0.6-0.5-0.6c0,0-0.1,0-0.1,0h-0.9c-0.2,0-0.3,0.1-0.4,0.2
			C17,5.9,17,6.1,17,6.2L17,8z"/>
	</g>
</g>
</svg>
