<svg fill="none" height="24" width="24" xmlns="http://www.w3.org/2000/svg" xmlns:xlink="http://www.w3.org/1999/xlink"><clipPath id="a"><path d="m0 0h17.303v16h-17.303z" transform="translate(3 4)"/></clipPath><g clip-path="url(#a)"><path d="m5.135 18.764h7.31c0-.035-.008-.065-.011-.09-.004-.025 0-.057 0-.092l-.709-7.38a1.65 1.65 0 0 1 .147-.905 1.561 1.561 0 0 1 1.454-.894h1.85a1.206 1.206 0 0 0 -.26-.821l-1.314-1.737v-1.325a1.467 1.467 0 0 0 -.423-1.128c-.284-.261-.689-.392-1.22-.392h-5.74c-.523 0-.928.131-1.214.393a1.457 1.457 0 0 0 -.428 1.128v1.324l-1.305 1.737c-.09.117-.16.249-.207.389a1.713 1.713 0 0 0 -.06.51v7.182c0 .708.177 1.235.53 1.58.355.344.888.518 1.6.521zm2.15-11.954a.503.503 0 0 1 -.492-.492.483.483 0 0 1 .147-.354.47.47 0 0 1 .354-.147h3.598a.466.466 0 0 1 .354.147.484.484 0 0 1 0 .7.503.503 0 0 1 -.346.146z" fill="#4d4d4d"/><path d="m14.928 20h3.154c.473 0 .827-.124 1.063-.372.236-.247.381-.628.437-1.14l.708-7.382a.613.613 0 0 0 -.134-.5.592.592 0 0 0 -.471-.192h-6.373a.581.581 0 0 0 -.468.195.628.628 0 0 0 -.13.497l.709 7.382c.046.511.189.891.428 1.14.24.25.599.373 1.077.372zm1.062-9.197h1.062l.043-.639a.875.875 0 0 1 .354-.692l2.264-1.625a.486.486 0 0 0 .228-.354.565.565 0 0 0 -.435-.593.55.55 0 0 0 -.441.117l-2.18 1.573c-.24.17-.442.39-.59.645-.14.27-.222.566-.24.87z" fill="#212121"/></g></svg>