<?xml version="1.0" encoding="utf-8"?>
<!-- Generator: Adobe Illustrator 27.6.1, SVG Export Plug-In . SVG Version: 6.00 Build 0)  -->
<svg version="1.1" id="Layer_1" xmlns="http://www.w3.org/2000/svg" xmlns:xlink="http://www.w3.org/1999/xlink" x="0px" y="0px"
	 viewBox="0 0 24 24" style="enable-background:new 0 0 24 24;" xml:space="preserve">
<style type="text/css">
	.st0{fill:#0284C7;stroke:#FAFAFA;}
	.st1{fill:#FFFFFF;}
</style>
<path class="st0" d="M19.8,15.3L19.8,15.3c-0.4,1-1.1,1.9-1.8,2.7c-0.8,0.8-1.7,1.4-2.7,1.8c-1,0.4-2.2,0.7-3.3,0.7
	c-1.1,0-2.2-0.2-3.3-0.7L19.8,15.3L19.8,15.3z M19.8,15.3c0.9-2.1,0.9-4.5,0-6.6 M19.8,15.3V8.7 M19.8,8.7L19.8,8.7 M19.8,8.7
	c-0.9-2-2.5-3.7-4.6-4.6 M19.8,8.7l-4.6-4.6 M15.3,4.2L15.3,4.2 M15.3,4.2L15.3,4.2 M15.3,4.2c-2.1-0.9-4.5-0.9-6.6,0 M15.3,4.2H8.7
	 M8.7,4.2C7.7,4.6,6.8,5.2,6,6C5.2,6.8,4.6,7.7,4.2,8.7 M8.7,4.2L4.2,8.7 M4.2,8.7L4.2,8.7 M4.2,8.7L4.2,8.7 M4.2,8.7
	c-0.9,2.1-0.9,4.5,0,6.6 M4.2,8.7v6.6 M4.2,15.3L4.2,15.3 M4.2,15.3L4.2,15.3 M4.2,15.3c0.4,1,1.1,1.9,1.8,2.7 M4.2,15.3L6,18 M6,18
	c0.8,0.8,1.7,1.4,2.7,1.8L6,18z"/>
<path class="st1" d="M12,14.5c-0.4,0-0.9-0.1-1.2-0.3c-0.4-0.2-0.7-0.5-0.9-0.9c-0.4-0.8-0.4-1.7,0-2.5c0.2-0.4,0.5-0.7,0.9-0.9
	c0.8-0.4,1.7-0.4,2.5,0c0.4,0.2,0.7,0.5,0.9,0.9c0.4,0.8,0.4,1.7,0,2.5c-0.2,0.4-0.5,0.7-0.9,0.9C12.9,14.4,12.4,14.5,12,14.5z
	 M8.4,15.6c-0.1-0.1-0.2-0.3-0.2-0.4c0-0.1,0.1-0.3,0.2-0.4l0.7-0.7C9.2,14,9.3,14,9.5,14c0.2,0,0.4,0.1,0.5,0.3c0,0.1,0,0.1,0,0.2
	c0,0.1-0.1,0.3-0.2,0.4l-0.7,0.7c-0.1,0.1-0.2,0.2-0.4,0.2C8.7,15.7,8.5,15.7,8.4,15.6L8.4,15.6z M15.6,8.4c0.1,0.1,0.2,0.3,0.2,0.4
	c0,0.1-0.1,0.3-0.2,0.4l-0.7,0.7c-0.2,0.2-0.6,0.2-0.8,0c-0.2-0.2-0.2-0.6,0-0.8c0,0,0,0,0,0l0.7-0.7c0.1-0.1,0.2-0.2,0.4-0.2
	C15.3,8.2,15.5,8.3,15.6,8.4z M15.6,15.6c-0.1,0.1-0.3,0.2-0.4,0.2c-0.1,0-0.3-0.1-0.4-0.2l-0.7-0.7C14,14.8,14,14.7,14,14.5
	c0-0.1,0.1-0.3,0.2-0.4c0.1-0.1,0.2-0.2,0.4-0.2c0.1,0,0.3,0.1,0.4,0.2l0.7,0.7c0.1,0.1,0.2,0.2,0.2,0.4
	C15.8,15.3,15.7,15.5,15.6,15.6z M8.4,8.4c0.1-0.1,0.3-0.2,0.4-0.2c0.1,0,0.3,0.1,0.4,0.2l0.7,0.7C10,9.2,10,9.3,10,9.5
	c0,0.1-0.1,0.3-0.2,0.4C9.8,10,9.6,10,9.5,10C9.3,10,9.2,10,9.1,9.9L8.4,9.2C8.3,9.1,8.2,9,8.3,8.8C8.3,8.7,8.3,8.5,8.4,8.4z
	 M12,17.1c-0.1,0-0.3-0.1-0.4-0.2c-0.1-0.1-0.2-0.3-0.2-0.4v-0.9c0-0.3,0.2-0.6,0.6-0.6c0.1,0,0.3,0.1,0.4,0.2
	c0.1,0.1,0.2,0.2,0.2,0.4v0.9c0,0.2-0.1,0.3-0.2,0.4C12.3,17,12.2,17.1,12,17.1z M12,6.9c0.1,0,0.3,0.1,0.4,0.2
	c0.1,0.1,0.2,0.2,0.2,0.4v0.9c0,0.1-0.1,0.3-0.2,0.4c-0.2,0.2-0.6,0.2-0.8,0c-0.1-0.1-0.2-0.2-0.2-0.4V7.5c0-0.1,0.1-0.3,0.2-0.4
	C11.7,7,11.9,6.9,12,6.9L12,6.9z M6.9,12c0-0.3,0.2-0.6,0.6-0.6h0.9c0.3,0,0.5,0.3,0.5,0.6c0,0.3-0.2,0.5-0.5,0.5H7.5
	C7.2,12.5,6.9,12.3,6.9,12z M17.1,12c0,0.3-0.2,0.6-0.6,0.6h-0.9c-0.3,0-0.5-0.3-0.5-0.6c0-0.3,0.2-0.5,0.5-0.5h0.9
	C16.8,11.4,17.1,11.7,17.1,12L17.1,12L17.1,12z"/>
</svg>
