<?xml version="1.0" encoding="utf-8"?>
<!-- Generator: Adobe Illustrator 27.6.1, SVG Export Plug-In . SVG Version: 6.00 Build 0)  -->
<svg version="1.1" id="Layer_1" xmlns="http://www.w3.org/2000/svg" xmlns:xlink="http://www.w3.org/1999/xlink" x="0px" y="0px"
	 viewBox="0 0 24 24" style="enable-background:new 0 0 24 24;" xml:space="preserve">
<style type="text/css">
	.st0{fill:#FDE047;stroke:#FFFFFF;stroke-width:1.75;stroke-linecap:round;stroke-linejoin:round;}
	.st1{fill:url(#SVGID_1_);stroke:#171717;stroke-linecap:round;stroke-linejoin:round;}
</style>
<g>
	<path class="st0" d="M18.8,4.6c-0.9-0.7-2.2-0.7-3.1,0c-2.9-1.2-6.4-0.4-8.9,2.1c-2.5,2.5-3.3,6-2.1,8.9c-0.3,0.4-0.5,0.9-0.5,1.4
		c-0.1,1.4,1,2.7,2.4,2.8c0.6,0,1.3-0.1,1.8-0.5c2.9,1.2,6.4,0.4,8.9-2.1c2.5-2.5,3.3-6,2.1-8.9c0.5-0.7,0.7-1.6,0.4-2.4l-0.8,0.3
		l0.8-0.3C19.6,5.4,19.2,4.9,18.8,4.6z"/>
	
		<linearGradient id="SVGID_1_" gradientUnits="userSpaceOnUse" x1="17.1684" y1="20.5124" x2="7.1684" y2="6.5124" gradientTransform="matrix(1 0 0 -1 0 25.2756)">
		<stop  offset="0" style="stop-color:#FDE047"/>
		<stop  offset="1" style="stop-color:#EAB308"/>
	</linearGradient>
	<path class="st1" d="M18.6,4.9c-0.9-0.6-2.1-0.6-2.8,0.2C13,3.9,9.5,4.6,7,7c-2.4,2.4-3.2,6-1.9,8.7c-0.8,0.9-0.8,2.3,0.1,3.2
		c0.9,0.8,2.2,0.8,3.1,0c2.7,1.2,6.3,0.5,8.7-1.9c2.4-2.4,3.2-6,1.9-8.7c0.6-0.6,0.7-1.5,0.5-2.2l-0.5,0.2L19.4,6
		C19.2,5.6,19,5.2,18.6,4.9z"/>
</g>
</svg>
