<?xml version="1.0" encoding="utf-8"?>
<!-- Generator: Adobe Illustrator 27.6.1, SVG Export Plug-In . SVG Version: 6.00 Build 0)  -->
<svg version="1.1" id="Layer_1" xmlns="http://www.w3.org/2000/svg" xmlns:xlink="http://www.w3.org/1999/xlink" x="0px" y="0px"
	 viewBox="0 0 24 24" style="enable-background:new 0 0 24 24;" xml:space="preserve">
<style type="text/css">
	.st0{fill:#FACC15;}
	.st1{fill:none;stroke:#FFFFFF;stroke-width:3;stroke-linecap:round;stroke-linejoin:round;}
	.st2{fill:none;stroke:#713F12;stroke-linecap:round;stroke-linejoin:round;}
	.st3{fill:#EAB308;}
</style>
<path class="st0" d="M21.5,9.2l-9.4-4.7C9.6,4.6,7.4,5.8,5.8,7.7c-1.4,1.7-2.3,4-2.3,6.4c0,2,0.6,3.8,1.5,5.4"/>
<path class="st1" d="M21.5,9.2l-9.4-4.7C9.6,4.6,7.4,5.8,5.8,7.7c-1.4,1.7-2.3,4-2.3,6.4c0,2,0.6,3.8,1.5,5.4h16.5 M5,19.5l16.5,0
	v-3.3c-0.5,0-1-0.2-1.4-0.6c-0.4-0.3-0.6-0.8-0.6-1.3c0-0.5,0.2-1,0.6-1.3c0.4-0.4,0.9-0.6,1.4-0.6V9.2"/>
<path class="st0" d="M21.5,9.2l-9.4-4.7C9.6,4.6,7.4,5.8,5.8,7.7c-1.4,1.7-2.3,4-2.3,6.4c0,2,0.6,3.8,1.5,5.4"/>
<path class="st0" d="M5,19.5l16.5,0v-3.3c-0.5,0-1-0.2-1.4-0.6c-0.4-0.3-0.6-0.8-0.6-1.3c0-0.5,0.2-1,0.6-1.3
	c0.4-0.4,0.9-0.6,1.4-0.6V9.2H4.8"/>
<path class="st2" d="M21.5,9.2l-9.4-4.7C9.6,4.6,7.4,5.8,5.8,7.7c-1.4,1.7-2.3,4-2.3,6.4c0,2,0.6,3.8,1.5,5.4h16.5 M5,19.5l16.5,0
	v-3.3c-0.5,0-1-0.2-1.4-0.6c-0.4-0.3-0.6-0.8-0.6-1.3c0-0.5,0.2-1,0.6-1.3c0.4-0.4,0.9-0.6,1.4-0.6V9.2H4.8"/>
<g>
	<circle class="st3" cx="9" cy="13" r="1"/>
	<circle class="st3" cx="15" cy="13" r="1"/>
	<circle class="st3" cx="12" cy="16" r="1"/>
</g>
</svg>
