<svg fill="none" height="24" width="24" xmlns="http://www.w3.org/2000/svg"><g clip-rule="evenodd" fill-rule="evenodd"><path d="m12.243 15.351a.5.5 0 0 1 .5.5v3.649a.5.5 0 0 1 -1 0v-3.649a.5.5 0 0 1 .5-.5z" fill="#d97706"/><path d="m15.945 10.786a.5.5 0 0 1 -.258.659l-.7.306-5.487 2.4-.3.131a.5.5 0 1 1 -.4-.916l.7-.306 5.487-2.4.3-.132a.5.5 0 0 1 .658.258z" fill="#dc2626"/><path d="m15.945 7.543a.5.5 0 0 1 -.258.658l-.7.307-5.487 2.4-.3.131a.5.5 0 0 1 -.4-.916l.7-.306 5.468-2.393.318-.139a.5.5 0 0 1 .659.258z" fill="#facc15"/><path d="m9.597 5.096a3.743 3.743 0 0 1 6.39 2.647v8.108a.5.5 0 0 1 -.5.5h-6.487a.5.5 0 0 1 -.5-.5v-8.108c0-.993.395-1.945 1.097-2.647zm2.645-.096a2.743 2.743 0 0 0 -2.742 2.743v7.608h5.487v-7.608a2.743 2.743 0 0 0 -2.743-2.743z" fill="#f5f5f5"/></g><path d="m9.5 9.817 5.468-2.393a2.743 2.743 0 0 0 -5.468.32z" fill="#22d3ee"/><path d="m9.5 13.06 5.487-2.4v-2.152l-5.487 2.4z" fill="#facc15"/><path d="m14.987 11.751-5.487 2.4v1.2h5.487z" fill="#dc2626"/></svg>