<svg width="24" height="24" fill="none" xmlns="http://www.w3.org/2000/svg"><path d="M11.986 20.5h.033c.18-.008.36-.048.526-.12.15-.058.292-.132.426-.218a27.82 27.82 0 0 0 4.503-3.32 14.763 14.763 0 0 0 2.958-3.647A8.012 8.012 0 0 0 21.5 9.293a5.997 5.997 0 0 0-.73-2.984v-.001a5.402 5.402 0 0 0-2.003-2.057h-.001a5.503 5.503 0 0 0-2.83-.75 4.63 4.63 0 0 0-2.594.726l-.007.005a5.65 5.65 0 0 0-1.334 1.236 5.6 5.6 0 0 0-1.324-1.231l-.007-.005a4.628 4.628 0 0 0-2.607-.73 5.47 5.47 0 0 0-2.823.75h-.001a5.454 5.454 0 0 0-2.002 2.055v.001A5.978 5.978 0 0 0 2.5 9.292a7.985 7.985 0 0 0 1.067 3.902 14.694 14.694 0 0 0 2.944 3.648 28.027 28.027 0 0 0 4.508 3.323c.135.082.276.154.423.213.17.076.356.117.543.122z" fill="#F36" stroke="#FAFAFA"/></svg>