<?xml version="1.0" encoding="utf-8"?>
<!-- Generator: Adobe Illustrator 27.6.1, SVG Export Plug-In . SVG Version: 6.00 Build 0)  -->
<svg version="1.1" id="Layer_1" xmlns="http://www.w3.org/2000/svg" xmlns:xlink="http://www.w3.org/1999/xlink" x="0px" y="0px"
	 viewBox="0 0 24 24" style="enable-background:new 0 0 24 24;" xml:space="preserve">
<style type="text/css">
	.st0{fill:#F5F5F5;stroke:#FFFFFF;stroke-linecap:round;stroke-linejoin:round;}
	.st1{fill:#E5E5E5;stroke:#404040;stroke-linecap:round;stroke-linejoin:round;}
	.st2{fill:#DC2626;}
	.st3{fill:#84CC16;}
	.st4{fill:#FBBF24;}
</style>
<g>
	<path class="st0" d="M16.5,8c0-2.5-2-4.5-4.5-4.5S7.5,5.5,7.5,8v8c0,2.5,2,4.5,4.5,4.5s4.5-2,4.5-4.5V8z"/>
	<path class="st0" d="M12,5.5c1.4,0,2.5,1.1,2.5,2.5v8c0,1.4-1.1,2.5-2.5,2.5S9.5,17.4,9.5,16V8C9.5,6.6,10.6,5.5,12,5.5z M16.5,8
		c0-2.5-2-4.5-4.5-4.5S7.5,5.5,7.5,8v8c0,2.5,2,4.5,4.5,4.5s4.5-2,4.5-4.5V8z"/>
	<path class="st1" d="M12,4.5c1.9,0,3.5,1.6,3.5,3.5v8c0,1.9-1.6,3.5-3.5,3.5S8.5,17.9,8.5,16V8C8.5,6.1,10.1,4.5,12,4.5z"/>
</g>
<path class="st2" d="M12,9.6c0.9,0,1.6-0.7,1.6-1.6S12.9,6.4,12,6.4l0,0c-0.9,0-1.6,0.7-1.6,1.6S11.1,9.6,12,9.6z"/>
<path class="st3" d="M12,17.6c0.9,0,1.6-0.7,1.6-1.6s-0.7-1.6-1.6-1.6l0,0c-0.9,0-1.6,0.7-1.6,1.6C10.4,16.9,11.1,17.6,12,17.6z"/>
<path class="st4" d="M12,13.6c0.9,0,1.6-0.7,1.6-1.6s-0.7-1.6-1.6-1.6l0,0c-0.9,0-1.6,0.7-1.6,1.6C10.4,12.9,11.1,13.6,12,13.6z"/>
</svg>
