<svg width="24" height="24" fill="none" xmlns="http://www.w3.org/2000/svg"><g clip-path="url(#clip0_6994_41765)"><path d="M9.98 19.104h4.394v-5.421c0-.406-.197-.607-.606-.607h-3.182a.605.605 0 0 0-.438.164.59.59 0 0 0-.169.443v5.421zM7.036 20h10.222a1.793 1.793 0 0 0 1.308-.463 1.713 1.713 0 0 0 .47-1.278V9.912L17.66 8.99v8.913c0 .475-.231.712-.693.71H7.332c-.454 0-.682-.236-.683-.71V9l-1.394.921v8.334a1.71 1.71 0 0 0 .47 1.284c.36.321.831.487 1.312.461zM3 11.605a.685.685 0 0 0 .45.646.712.712 0 0 0 .298.045.641.641 0 0 0 .333-.086c.1-.06.194-.125.284-.197l7.567-6.357a.35.35 0 0 1 .5 0l7.566 6.357c.092.073.188.139.29.197a.66.66 0 0 0 .337.086.802.802 0 0 0 .514-.17.59.59 0 0 0 .216-.491.734.734 0 0 0-.26-.591L13.154 4.37a1.495 1.495 0 0 0-.971-.374 1.459 1.459 0 0 0-.963.374l-7.952 6.678a.691.691 0 0 0-.268.557zM16.97 7.96l2.068 1.75V6.212a.527.527 0 0 0-.591-.59h-.865a.604.604 0 0 0-.443.163.591.591 0 0 0-.163.433L16.97 7.96z" fill="#000"/></g><defs><clipPath id="clip0_6994_41765"><path fill="#fff" transform="translate(3 4)" d="M0 0H18.355V16H0z"/></clipPath></defs></svg>