<?xml version="1.0" encoding="utf-8"?>
<!-- Generator: Adobe Illustrator 27.6.1, SVG Export Plug-In . SVG Version: 6.00 Build 0)  -->
<svg version="1.1" id="Layer_1" xmlns="http://www.w3.org/2000/svg" xmlns:xlink="http://www.w3.org/1999/xlink" x="0px" y="0px"
	 viewBox="0 0 24 24" style="enable-background:new 0 0 24 24;" xml:space="preserve">
<style type="text/css">
	.st0{stroke:#FAFAFA;}
</style>
<path class="st0" d="M9.9,7.1c0.6,0.4,1,0.9,1.3,1.4c0.3,0.6,0.5,1.3,0.5,2c0,0.7-0.2,1.4-0.5,2l0,0c-0.3,0.6-0.8,1.1-1.4,1.4h0
	c-0.6,0.4-1.3,0.5-2,0.5c-0.7,0-1.5-0.2-2.1-0.6h0c-0.7-0.4-1.2-1-1.6-1.7l0,0c-0.4-0.8-0.6-1.7-0.6-2.6c0-1.6,0.6-3.2,1.7-4.3
	C5.6,5,6,4.7,6.5,4.4C7,4.1,7.5,3.9,8,3.7c0.1-0.1,0.3-0.1,0.4-0.1l0,0l0,0c0.1,0,0.3,0,0.4,0c0.3,0,0.6,0.1,0.8,0.3l0,0
	C9.8,4,9.9,4.3,9.9,4.6c0,0.1,0,0.3-0.1,0.4 M9.9,7.1l-0.8-2 M9.9,7.1L9.9,7.1C9.1,6.6,8.1,6.5,7.1,6.7 M9.9,7.1L7.1,6.7 M9.9,5
	L9.4,4.8L9.9,5z M9.9,5C9.8,5.1,9.7,5.2,9.6,5.3l0,0l0,0C9.5,5.4,9.4,5.5,9.3,5.6 M9.3,5.6L9.3,5.6L9.1,5.1 M9.3,5.6L9.3,5.6
	L9.1,5.1 M9.3,5.6C9.2,5.6,9,5.7,8.9,5.7 M9.1,5.1C9,5.2,8.9,5.2,8.8,5.2 M8.9,5.7L8.9,5.7L8.8,5.2 M8.9,5.7C8.5,5.8,8.1,6,7.7,6.3
	l0,0C7.5,6.4,7.3,6.6,7.1,6.7 M8.9,5.7L8.9,5.7L8.8,5.2 M8.8,5.2C8.3,5.4,7.8,5.6,7.4,5.9L7.1,6.7 M18.7,7.1
	c-0.6-0.4-1.2-0.5-1.9-0.5c-0.3,0-0.6,0-0.9,0.1c0.2-0.2,0.4-0.3,0.6-0.4l0,0c0.4-0.2,0.8-0.4,1.2-0.6c0.1,0,0.2-0.1,0.4-0.1
	c0.1-0.1,0.2-0.1,0.3-0.2l0,0l0,0c0.2-0.2,0.3-0.5,0.3-0.8c0-0.3-0.1-0.6-0.3-0.8l0,0l0,0c-0.2-0.2-0.5-0.3-0.8-0.3
	c-0.1,0-0.3,0-0.4,0h0c-0.1,0-0.3,0.1-0.4,0.1l0,0l0,0c-0.5,0.2-1,0.4-1.5,0.7c-0.5,0.3-0.9,0.6-1.3,1l0,0c-0.5,0.6-1,1.2-1.2,1.9v0
	c-0.3,0.8-0.5,1.6-0.5,2.4c0,0.9,0.2,1.8,0.6,2.6l0,0c0.4,0.7,0.9,1.3,1.6,1.7l0,0c0.6,0.4,1.4,0.6,2.1,0.6c0.7,0,1.4-0.2,2.1-0.5
	c0.6-0.3,1.1-0.8,1.4-1.4v0c0.4-0.6,0.5-1.3,0.5-2c0-0.7-0.2-1.4-0.5-2C19.7,8,19.2,7.5,18.7,7.1z"/>
</svg>
