<?xml version="1.0" encoding="utf-8"?>
<!-- Generator: Adobe Illustrator 27.6.1, SVG Export Plug-In . SVG Version: 6.00 Build 0)  -->
<svg version="1.1" id="Layer_1" xmlns="http://www.w3.org/2000/svg" xmlns:xlink="http://www.w3.org/1999/xlink" x="0px" y="0px"
	 viewBox="0 0 24 24" style="enable-background:new 0 0 24 24;" xml:space="preserve">
<style type="text/css">
	.st0{clip-path:url(#SVGID_00000124142259563992637850000007049669375479160739_);}
	.st1{stroke:#FAFAFA;}
</style>
<g>
	<defs>
		<rect id="SVGID_1_" x="3" y="3" width="18" height="13"/>
	</defs>
	<clipPath id="SVGID_00000160162155476462690050000016049102737261038753_">
		<use xlink:href="#SVGID_1_"  style="overflow:visible;"/>
	</clipPath>
	<g style="clip-path:url(#SVGID_00000160162155476462690050000016049102737261038753_);">
		<path class="st1" d="M14.1,10.9L14.1,10.9c0.8,0.5,1.8,0.7,2.8,0.4c-0.2,0.1-0.4,0.3-0.6,0.4l0,0c-0.4,0.2-0.8,0.4-1.2,0.6
			c-0.1,0-0.2,0.1-0.4,0.1c-0.1,0.1-0.2,0.1-0.3,0.2l0,0l0,0c-0.1,0.1-0.2,0.2-0.2,0.4c0,0.1-0.1,0.3-0.1,0.4c0,0.1,0,0.3,0.1,0.4
			l0.5-0.2l-0.5,0.2c0.1,0.1,0.1,0.3,0.3,0.4l0,0c0.2,0.2,0.5,0.3,0.8,0.3c0.1,0,0.3,0,0.4,0l0,0l0,0c0.1,0,0.3-0.1,0.4-0.1
			c0.5-0.2,1-0.4,1.5-0.7c0.5-0.3,0.9-0.6,1.3-1c1.1-1.1,1.7-2.7,1.7-4.3c0-0.9-0.2-1.8-0.6-2.5l0,0c-0.4-0.7-0.9-1.3-1.6-1.7l0,0
			c-0.6-0.4-1.4-0.6-2.1-0.6c-0.7,0-1.4,0.2-2,0.5l0,0c-0.6,0.3-1.1,0.8-1.4,1.4l0,0c-0.3,0.6-0.5,1.3-0.5,2c0,0.7,0.2,1.4,0.5,2
			C13.1,10,13.5,10.5,14.1,10.9z M7.3,11.4c0.3,0,0.6,0,0.9-0.1c-0.2,0.1-0.4,0.3-0.5,0.4l0,0c-0.4,0.2-0.8,0.4-1.2,0.6
			c-0.1,0-0.2,0.1-0.4,0.1c-0.1,0.1-0.2,0.1-0.3,0.2l0,0l0,0c-0.2,0.2-0.3,0.5-0.3,0.8c0,0.3,0.1,0.6,0.3,0.8l0,0l0,0
			c0.2,0.2,0.5,0.3,0.8,0.3c0.1,0,0.3,0,0.4,0h0c0.1,0,0.3-0.1,0.4-0.1l0,0l0,0c0.5-0.2,1-0.4,1.5-0.7c0.5-0.3,0.9-0.6,1.3-1l0,0
			c0.5-0.6,1-1.2,1.2-1.9v0c0.3-0.8,0.5-1.6,0.5-2.4c0-0.9-0.2-1.8-0.6-2.5l0,0c-0.4-0.7-0.9-1.3-1.6-1.7l0,0C9,3.7,8.3,3.5,7.5,3.5
			c-0.7,0-1.4,0.2-2,0.5h0C4.9,4.4,4.4,4.9,4,5.5l0,0c-0.4,0.6-0.5,1.3-0.5,2c0,0.7,0.2,1.4,0.5,2c0.3,0.6,0.8,1.1,1.3,1.4
			C5.9,11.2,6.6,11.4,7.3,11.4L7.3,11.4z"/>
	</g>
</g>
</svg>
