<?xml version="1.0" encoding="utf-8"?>
<!-- Generator: Adobe Illustrator 27.6.1, SVG Export Plug-In . SVG Version: 6.00 Build 0)  -->
<svg version="1.1" id="Layer_1" xmlns="http://www.w3.org/2000/svg" xmlns:xlink="http://www.w3.org/1999/xlink" x="0px" y="0px"
	 viewBox="0 0 24 24" style="enable-background:new 0 0 24 24;" xml:space="preserve">
<style type="text/css">
	.st0{clip-path:url(#SVGID_00000038399010982309292790000010082635400212311431_);}
	.st1{fill:#4D4D4D;}
	.st2{fill:#212121;}
</style>
<g>
	<defs>
		<rect id="SVGID_1_" x="3" y="4" width="17.3" height="16"/>
	</defs>
	<clipPath id="SVGID_00000170237831990365059260000006882663209411400606_">
		<use xlink:href="#SVGID_1_"  style="overflow:visible;"/>
	</clipPath>
	<g style="clip-path:url(#SVGID_00000170237831990365059260000006882663209411400606_);">
		<path class="st1" d="M5.1,18.8h7.3c0,0,0-0.1,0-0.1c0,0,0-0.1,0-0.1l-0.7-7.4c0-0.3,0-0.6,0.1-0.9c0.3-0.6,0.8-0.9,1.5-0.9h1.9
			c0-0.3-0.1-0.6-0.3-0.8l-1.3-1.7V5.5c0-0.4-0.1-0.8-0.4-1.1C12.9,4.1,12.5,4,12,4H6.2C5.7,4,5.3,4.1,5,4.4
			C4.7,4.7,4.5,5.1,4.6,5.5v1.3L3.3,8.6C3.2,8.7,3.1,8.8,3.1,9C3,9.1,3,9.3,3,9.5v7.2c0,0.7,0.2,1.2,0.5,1.6
			C3.9,18.6,4.4,18.8,5.1,18.8z M7.3,6.8C7,6.8,6.8,6.6,6.8,6.3c0-0.1,0.1-0.3,0.1-0.4C7,5.9,7.2,5.8,7.3,5.8h3.6
			c0.1,0,0.3,0,0.4,0.1c0.2,0.2,0.2,0.5,0,0.7c0,0,0,0,0,0c-0.1,0.1-0.2,0.1-0.3,0.1L7.3,6.8z"/>
		<path class="st2" d="M14.9,20h3.2c0.5,0,0.8-0.1,1.1-0.4c0.2-0.2,0.4-0.6,0.4-1.1l0.7-7.4c0-0.2,0-0.4-0.1-0.5
			c-0.1-0.1-0.3-0.2-0.5-0.2h-6.4c-0.2,0-0.4,0.1-0.5,0.2c-0.1,0.1-0.2,0.3-0.1,0.5l0.7,7.4c0,0.5,0.2,0.9,0.4,1.1
			C14.1,19.9,14.4,20,14.9,20z M16,10.8h1.1l0-0.6c0-0.3,0.1-0.5,0.4-0.7l2.3-1.6c0.1-0.1,0.2-0.2,0.2-0.4c0-0.3-0.2-0.5-0.4-0.6
			c-0.2,0-0.3,0-0.4,0.1l-2.2,1.6c-0.2,0.2-0.4,0.4-0.6,0.6c-0.1,0.3-0.2,0.6-0.2,0.9L16,10.8z"/>
	</g>
</g>
</svg>
