<?xml version="1.0" encoding="utf-8"?>
<!-- Generator: Adobe Illustrator 27.6.1, SVG Export Plug-In . SVG Version: 6.00 Build 0)  -->
<svg version="1.1" id="Layer_1" xmlns="http://www.w3.org/2000/svg" xmlns:xlink="http://www.w3.org/1999/xlink" x="0px" y="0px"
	 viewBox="0 0 24 24" style="enable-background:new 0 0 24 24;" xml:space="preserve">
<style type="text/css">
	.st0{clip-path:url(#SVGID_00000038380665160446837800000010068057805596692667_);}
	.st1{fill:#8E8E8E;}
	.st2{fill:#212121;}
</style>
<g>
	<defs>
		<rect id="SVGID_1_" x="3" y="4" width="16.9" height="16"/>
	</defs>
	<clipPath id="SVGID_00000018199542268192385970000011079317695960143285_">
		<use xlink:href="#SVGID_1_"  style="overflow:visible;"/>
	</clipPath>
	<g style="clip-path:url(#SVGID_00000018199542268192385970000011079317695960143285_);">
		<path class="st1" d="M7.7,20c0.2,0,0.3,0,0.5-0.1c0.2-0.1,0.4-0.3,0.5-0.4l2.7-2.5h4.9c0.7,0,1.4-0.1,2-0.4c0.5-0.3,1-0.7,1.2-1.2
			c0.3-0.6,0.4-1.3,0.4-2V7.6c0-0.7-0.1-1.4-0.4-2c-0.3-0.5-0.7-1-1.2-1.2C17.6,4.1,17,4,16.3,4H6.6c-0.7,0-1.4,0.1-2,0.4
			c-0.5,0.3-1,0.7-1.2,1.2C3.1,6.3,3,7,3,7.6v5.6c0,0.7,0.1,1.4,0.4,2c0.3,0.5,0.7,1,1.2,1.2c0.6,0.3,1.3,0.4,2,0.4h0.3v2.2
			c0,0.2,0.1,0.5,0.2,0.6C7.3,19.9,7.5,20,7.7,20z"/>
		<path class="st2" d="M7.6,9.6c0-0.4,0.2-0.9,0.5-1.2C8.4,8.1,8.9,8,9.3,8c0.5,0,0.9,0.2,1.3,0.6C10.9,8.9,11,9.4,11,9.9
			c0,0.4-0.1,0.9-0.3,1.3c-0.3,0.7-0.8,1.2-1.4,1.5c-0.2,0.1-0.5,0.2-0.7,0.2c-0.2,0-0.3-0.1-0.4-0.2c0,0,0-0.1,0-0.1
			c0-0.1,0-0.2,0.1-0.3c0.1-0.1,0.2-0.1,0.3-0.2c0.3-0.1,0.5-0.2,0.8-0.4c0.3-0.2,0.5-0.5,0.6-0.8H9.9c-0.1,0.1-0.2,0.2-0.4,0.2
			c-0.1,0-0.3,0.1-0.5,0.1c-0.4,0-0.8-0.2-1.1-0.5C7.8,10.4,7.6,10,7.6,9.6z M11.9,9.6c0-0.4,0.2-0.9,0.5-1.2
			C12.7,8.1,13.1,8,13.5,8c0.5,0,0.9,0.2,1.3,0.6c0.3,0.4,0.5,0.9,0.5,1.4c0,0.4-0.1,0.9-0.3,1.3c-0.1,0.4-0.4,0.7-0.6,0.9
			c-0.2,0.2-0.5,0.4-0.8,0.6c-0.2,0.1-0.5,0.2-0.7,0.2c-0.2,0-0.3-0.1-0.4-0.2c0,0,0-0.1,0-0.1c0-0.1,0-0.2,0.1-0.3
			c0.1-0.1,0.2-0.1,0.3-0.2c0.3-0.1,0.6-0.2,0.8-0.4c0.3-0.2,0.5-0.5,0.6-0.8h-0.1c-0.1,0.1-0.2,0.2-0.4,0.2c-0.2,0-0.3,0.1-0.5,0.1
			c-0.4,0-0.8-0.2-1.1-0.5C12,10.4,11.9,10,11.9,9.6L11.9,9.6L11.9,9.6z"/>
	</g>
</g>
</svg>
