<?xml version="1.0" encoding="utf-8"?>
<!-- Generator: Adobe Illustrator 27.6.1, SVG Export Plug-In . SVG Version: 6.00 Build 0)  -->
<svg version="1.1" id="Layer_1" xmlns="http://www.w3.org/2000/svg" xmlns:xlink="http://www.w3.org/1999/xlink" x="0px" y="0px"
	 viewBox="0 0 24 24" style="enable-background:new 0 0 24 24;" xml:space="preserve">
<style type="text/css">
	.st0{clip-path:url(#SVGID_00000132056893273191351610000004656047020179197079_);}
	.st1{fill:#4D4D4D;}
	.st2{fill:#212121;}
</style>
<g>
	<defs>
		<rect id="SVGID_1_" x="5" y="4" width="15.4" height="16"/>
	</defs>
	<clipPath id="SVGID_00000049918611878197171220000013640661566850317700_">
		<use xlink:href="#SVGID_1_"  style="overflow:visible;"/>
	</clipPath>
	<g style="clip-path:url(#SVGID_00000049918611878197171220000013640661566850317700_);">
		<path class="st1" d="M17.4,13c0.2,0,0.3-0.1,0.3-0.3c0-0.4,0.1-0.8,0.2-1.2c0-0.2,0.2-0.5,0.3-0.7c0.2-0.2,0.4-0.3,0.7-0.3
			c0.4-0.1,0.8-0.2,1.2-0.2c0.2,0,0.3-0.1,0.3-0.3c0-0.2-0.1-0.3-0.3-0.3c0,0,0,0,0,0c-0.5-0.1-0.9-0.2-1.2-0.3
			c-0.3-0.1-0.5-0.2-0.7-0.3c-0.2-0.2-0.3-0.4-0.3-0.6c-0.1-0.4-0.2-0.8-0.2-1.2c0-0.2-0.1-0.3-0.3-0.3c-0.1,0-0.3,0.1-0.3,0.2
			c0,0,0,0,0,0c-0.1,0.5-0.1,0.9-0.2,1.2c0,0.2-0.2,0.5-0.3,0.7c-0.2,0.2-0.4,0.3-0.7,0.3c-0.3,0.1-0.7,0.1-1.2,0.2
			c-0.1,0-0.2,0.1-0.3,0.2c0,0,0,0.1,0,0.1c0,0.2,0.1,0.3,0.3,0.3c0.5,0.1,0.9,0.2,1.2,0.3c0.2,0.1,0.5,0.2,0.7,0.3
			c0.2,0.2,0.3,0.4,0.3,0.6c0.1,0.4,0.2,0.8,0.2,1.2C17.1,12.9,17.2,13,17.4,13C17.4,13,17.4,13,17.4,13L17.4,13z M13.8,7.7
			c0.1,0,0.2-0.1,0.2-0.2C14,7.3,14.1,7,14.2,6.7c0.1-0.2,0.2-0.3,0.4-0.4c0.3-0.1,0.6-0.2,0.9-0.2c0.1,0,0.2-0.1,0.2-0.2
			c0-0.1-0.1-0.2-0.2-0.2c-0.3-0.1-0.6-0.1-0.9-0.2c-0.2-0.1-0.3-0.2-0.4-0.4C14.1,4.8,14,4.5,14,4.1C14,4.1,13.9,4,13.8,4
			c0,0,0,0,0,0c-0.1,0-0.2,0.1-0.2,0.2c-0.1,0.3-0.1,0.6-0.2,0.9c-0.1,0.2-0.2,0.3-0.4,0.4c-0.3,0.1-0.6,0.2-0.9,0.2
			c-0.1,0-0.2,0.1-0.2,0.2C11.9,5.9,12,6,12.1,6c0.3,0.1,0.6,0.1,0.9,0.2c0.2,0.1,0.3,0.2,0.4,0.4c0.1,0.3,0.2,0.6,0.2,0.9
			C13.6,7.7,13.7,7.7,13.8,7.7L13.8,7.7z"/>
		<path class="st2" d="M11.8,20c0.9,0,1.8-0.1,2.6-0.5c0.8-0.3,1.5-0.7,2.1-1.3c0.6-0.6,1.1-1.3,1.4-2.1c0.1-0.1,0.1-0.3,0.1-0.5
			c0-0.1-0.1-0.2-0.1-0.3c-0.1-0.1-0.2-0.1-0.3-0.1c-0.1,0-0.3,0-0.4,0.1c-0.3,0.1-0.6,0.2-1,0.3c-0.4,0.1-0.8,0.1-1.2,0.1
			c-1,0-2-0.2-2.9-0.7c-0.8-0.4-1.5-1.1-1.9-1.9c-0.5-0.9-0.7-1.9-0.7-2.8c0-0.5,0-0.9,0.1-1.4c0.1-0.3,0.1-0.7,0.3-1
			c0.2-0.3,0.2-0.6,0-0.8C9.8,7.1,9.7,7,9.5,7C9.4,7,9.2,7,9,7C8.2,7.4,7.5,7.8,6.9,8.4c-0.6,0.6-1.1,1.4-1.4,2.2
			C5.2,11.5,5,12.4,5,13.4c0,0.9,0.2,1.8,0.5,2.6c0.3,0.8,0.8,1.5,1.4,2.1c0.6,0.6,1.3,1.1,2.1,1.4C9.9,19.8,10.8,20,11.8,20
			L11.8,20z M11.8,18.7c-1,0-2-0.2-2.8-0.7C8.2,17.5,7.5,16.8,7,16c-0.5-0.9-0.7-1.8-0.7-2.8c0-0.6,0.1-1.2,0.2-1.7
			C6.7,11,7,10.4,7.3,10C7.6,9.5,8,9.1,8.4,8.7C8.3,9,8.3,9.3,8.2,9.6c0,0.3-0.1,0.7-0.1,1c0,1.1,0.3,2.3,0.8,3.3
			c0.5,0.9,1.3,1.7,2.3,2.2c1,0.5,2.2,0.8,3.4,0.8c0.3,0,0.6,0,0.9,0c0.2,0,0.4-0.1,0.6-0.1c-0.5,0.6-1.1,1.1-1.9,1.4
			C13.5,18.5,12.6,18.7,11.8,18.7C11.8,18.7,11.8,18.7,11.8,18.7z"/>
	</g>
</g>
</svg>
