<svg width="24" height="24" fill="none" xmlns="http://www.w3.org/2000/svg"><path d="M9.924 7.135a3.82 3.82 0 0 1 1.344 1.439c.332.608.502 1.292.494 1.985a3.992 3.992 0 0 1-.505 2.025l-.003.006a3.929 3.929 0 0 1-1.434 1.439h-.002a3.99 3.99 0 0 1-2.048.53 4.085 4.085 0 0 1-2.125-.579h-.003a4.188 4.188 0 0 1-1.558-1.671l-.002-.005a5.392 5.392 0 0 1-.567-2.553 6.105 6.105 0 0 1 1.728-4.328A6.528 6.528 0 0 1 6.496 4.4a7.092 7.092 0 0 1 1.48-.716c.14-.051.28-.094.424-.13l.008-.001.008-.002c.133-.028.269-.042.404-.043.286-.009.565.09.78.28l.006.004a1.017 1.017 0 0 1 .336.779c0 .132-.023.264-.068.388m.05 2.177l-.847-2.03m.847 2.03l-.004-.002a3.636 3.636 0 0 0-2.786-.427m2.79.43l-2.79-.43m2.74-1.748l-.47-.17.47.17zm0 0c-.05.138-.129.264-.232.368l-.015.016-.017.014a1.357 1.357 0 0 1-.326.205m0 0l.005-.002-.212-.453m.207.455l-.006.003-.201-.458m.207.455a3.32 3.32 0 0 1-.36.143m.153-.598a2.82 2.82 0 0 1-.311.123m.158.475h.002l-.16-.475m.158.475c-.43.145-.841.341-1.225.584l-.004.003a4.199 4.199 0 0 0-.561.415m1.79-1.002h-.001l-.157-.475m0 0a6.194 6.194 0 0 0-1.334.637l-.298.84m11.518.43a3.54 3.54 0 0 0-1.908-.539c-.298 0-.595.036-.882.108a4.33 4.33 0 0 1 .556-.416l.004-.003a5.501 5.501 0 0 1 1.21-.581 3.34 3.34 0 0 0 .367-.14c.128-.054.245-.129.347-.223l.006-.006.007-.006a1.029 1.029 0 0 0 .303-.762 1.02 1.02 0 0 0-.33-.766l-.005-.005-.006-.005a1.138 1.138 0 0 0-.78-.277c-.135 0-.27.014-.402.043h-.003a5.416 5.416 0 0 0-.441.126l-.008.003-.007.002a7.236 7.236 0 0 0-1.473.718c-.46.29-.883.633-1.26 1.023l-.005.004a6.39 6.39 0 0 0-1.249 1.919v.001a6.114 6.114 0 0 0-.467 2.403 5.366 5.366 0 0 0 .57 2.556l.001.003a4.19 4.19 0 0 0 1.556 1.67l.003.002a4.084 4.084 0 0 0 2.125.578 4.003 4.003 0 0 0 2.051-.528 3.909 3.909 0 0 0 1.443-1.44v-.003a3.99 3.99 0 0 0 .523-2.035 4.044 4.044 0 0 0-.5-1.988 3.869 3.869 0 0 0-1.346-1.436z" fill="#000" stroke="#FAFAFA"/></svg>