<svg fill="none" height="24" width="24" xmlns="http://www.w3.org/2000/svg"><path d="m20.875 8.68-8.799-4.68c-2.355.112-4.46 1.331-5.931 3.21a9.724 9.724 0 0 0 -.947 1.47zm0 3.281v-3.28h-15.676c-.521.991-.89 2.099-1.071 3.28h16.748zm0 7.031v-3.28h-16.678c.229 1.193.652 2.305 1.228 3.288h.473l14.979-.008z" fill="#fef9c3"/><path d="m20.876 15.711v-3.75h-16.749a11.062 11.062 0 0 0 .069 3.75z" fill="#ef4444"/><path d="m20.875 8.68v.5a.5.5 0 0 0 .235-.942zm-8.799-4.68.235-.441a.5.5 0 0 0 -.258-.058zm-5.931 3.21-.394-.307.394.308zm-.721 11.79-.431.253a.5.5 0 0 0 .431.247zm15.45.5a.5.5 0 1 0 0-1zm-15.45-1a.5.5 0 1 0 .001 1v-1zm15.452.492v.5a.5.5 0 0 0 .5-.5zm0-10.312h.5a.5.5 0 0 0 -.5-.5zm-15.678 0-.443-.232zm-1.071 3.281-.494-.075zm16.983-3.723-8.799-4.68-.47.883 8.799 4.68zm-9.057-4.737c-2.52.12-4.754 1.423-6.302 3.402l.788.616c1.393-1.78 3.37-2.915 5.561-3.02zm9.323 15.492v-3.283h-1v3.281h1zm0-7.032v-3.28h-1v3.28zm0 3.75v-3.75h-1v3.75zm-15.626-8.808c-.373.477-.707.994-.996 1.545l.885.465c.262-.498.563-.965.899-1.394zm15.126 1.277h-15.678v1h15.678zm-16.12.268a10.966 10.966 0 0 0 -1.123 3.438l.988.151a9.966 9.966 0 0 1 1.02-3.124l-.886-.465zm-1.123 3.438a11.56 11.56 0 0 0 -.133 1.75h1c0-.546.042-1.08.121-1.599zm-.133 1.75c0 .744.07 1.47.205 2.17l.982-.189c-.122-.637-.187-1.3-.187-1.98h-1zm.205 2.17c.24 1.249.682 2.414 1.288 3.447l.862-.506a9.865 9.865 0 0 1 -1.168-3.13l-.982.188zm17.17-7.626h-15.677v1h15.677zm-4.913 3.281h-11.835v1h11.835zm4.914 0h-4.914v1h4.914zm-10.529 3.75h-6.15v1h6.152v-1zm0 1h10.529v-1h-10.529zm-4.922 3.289h.473v-1h-.473zm.473 0 14.98-.008-.001-1-14.98.008zm-.472 0h.472v-1h-.472zm15.45-1h-14.979v1h14.978v-1z" fill="#854d0e"/></svg>