<?xml version="1.0" encoding="utf-8"?>
<!-- Generator: Adobe Illustrator 27.6.1, SVG Export Plug-In . SVG Version: 6.00 Build 0)  -->
<svg version="1.1" id="Layer_1" xmlns="http://www.w3.org/2000/svg" xmlns:xlink="http://www.w3.org/1999/xlink" x="0px" y="0px"
	 viewBox="0 0 24 24" style="enable-background:new 0 0 24 24;" xml:space="preserve">
<style type="text/css">
	.st0{fill:#FF3366;stroke:#FAFAFA;}
</style>
<path class="st0" d="M12,20.5L12,20.5c0.2,0,0.4,0,0.6-0.1c0.1-0.1,0.3-0.1,0.4-0.2c1.6-1,3.1-2.1,4.5-3.3c1.2-1.1,2.2-2.3,3-3.6
	c0.7-1.2,1.1-2.5,1.1-3.9c0-1-0.2-2.1-0.7-3v0c-0.5-0.9-1.2-1.6-2-2.1h0c-0.9-0.5-1.8-0.8-2.8-0.8c-0.9,0-1.8,0.2-2.6,0.7l0,0
	c-0.5,0.3-1,0.8-1.3,1.2c-0.4-0.5-0.8-0.9-1.3-1.2l0,0C9.9,3.7,9,3.5,8.1,3.5c-1,0-2,0.2-2.8,0.8h0c-0.8,0.5-1.5,1.2-2,2.1v0
	c-0.5,0.9-0.8,1.9-0.7,3c0,1.4,0.4,2.7,1.1,3.9c0.8,1.4,1.8,2.6,2.9,3.6c1.4,1.3,2.9,2.4,4.5,3.3c0.1,0.1,0.3,0.2,0.4,0.2
	C11.6,20.5,11.8,20.5,12,20.5L12,20.5z"/>
</svg>
