<svg width="24" height="24" fill="none" xmlns="http://www.w3.org/2000/svg"><g clip-path="url(#clip0_6994_41633)" fill="#84CC16"><path d="M12 20a7.714 7.714 0 0 0 3.091-.625 8.062 8.062 0 0 0 2.554-1.734 8.254 8.254 0 0 0 1.734-2.558 7.865 7.865 0 0 0 0-6.166 8.237 8.237 0 0 0-4.298-4.292 7.938 7.938 0 0 0-6.176 0 8.025 8.025 0 0 0-2.554 1.742 8.277 8.277 0 0 0-1.73 2.558 7.865 7.865 0 0 0 0 6.166 8.26 8.26 0 0 0 1.734 2.558 8.075 8.075 0 0 0 2.552 1.734c.977.416 2.03.626 3.092.617zm0-1.506a6.348 6.348 0 0 1-2.524-.502 6.43 6.43 0 0 1-2.06-1.393 6.528 6.528 0 0 1-1.39-2.07 6.496 6.496 0 0 1 8.497-8.527 6.531 6.531 0 0 1 3.463 3.463c.34.8.512 1.661.506 2.53a6.426 6.426 0 0 1-.5 2.528 6.563 6.563 0 0 1-1.388 2.07 6.426 6.426 0 0 1-4.605 1.894v.007z"/><path d="M8.179 9.096a7.204 7.204 0 0 0-.118 1.13 5 5 0 0 0 .49 2.274 3.628 3.628 0 0 0 1.382 1.517 3.954 3.954 0 0 0 2.093.54 3.03 3.03 0 0 0 1.328-.252c.29-.13.553-.314.777-.54a4.73 4.73 0 0 0 .333-.388l-.485-.028c.223.22.406.48.54.763.139.303.26.614.361.932a.282.282 0 0 0 .289.227.456.456 0 0 0 .34-.148.539.539 0 0 0 .145-.387 1.136 1.136 0 0 0-.193-.55 4.461 4.461 0 0 0-.453-.61 4.869 4.869 0 0 0-.444-.465 3.091 3.091 0 0 0-1.265-.718c-.442-.126-.89-.226-1.344-.299a4.563 4.563 0 0 1-1.15-.327 1.324 1.324 0 0 1-.704-.812.112.112 0 0 1 .04-.138c.047-.032.102-.024.17.029.281.253.622.432.99.521.348.076.7.127 1.056.153.372.027.74.095 1.096.203.417.141.797.375 1.11.684a.202.202 0 0 0 .204.055.171.171 0 0 0 .113-.124c0-.053.012-.116.02-.189.009-.073 0-.146 0-.217 0-.861-.27-1.5-.812-1.919a3.262 3.262 0 0 0-2.06-.63 5.53 5.53 0 0 0-.898.08 5.23 5.23 0 0 1-.858.08 4.15 4.15 0 0 1-.812-.09 1.705 1.705 0 0 1-.833-.467.315.315 0 0 0-.268-.097c-.091.002-.15.075-.18.207z"/></g><defs><clipPath id="clip0_6994_41633"><path fill="#fff" transform="translate(4 4)" d="M0 0h16.01v16H0z"/></clipPath></defs></svg>