<svg fill="none" height="24" width="24" xmlns="http://www.w3.org/2000/svg"><path d="m15.358 10.964a.508.508 0 0 1 .07-.607l.994-.994a.477.477 0 0 1 .547-.11 1.65 1.65 0 0 0 1.95-2.665c-.211-.218-.48-.37-.777-.437a.457.457 0 0 1 -.328-.338 1.642 1.642 0 0 0 -2.74-.8 1.64 1.64 0 0 0 -.322 1.913.477.477 0 0 1 -.11.537l-.994.995a.497.497 0 0 1 -.617.07c-3.6-2-7.04 1.441-8.034 2.625a.348.348 0 0 0 -.1.208.996.996 0 0 0 -.199.14c-.895.855.14 3.281 2.287 5.429 2.148 2.148 4.555 3.172 5.41 2.317a1.32 1.32 0 0 0 .14-.189.428.428 0 0 0 .208-.11c1.143-1.024 4.574-4.464 2.615-7.984z" fill="#fff" stroke="#fff" stroke-linejoin="round" stroke-width="3"/><path d="m15.358 10.964a.508.508 0 0 1 .07-.607l.994-.994a.477.477 0 0 1 .547-.11 1.65 1.65 0 0 0 1.95-2.665c-.211-.218-.48-.37-.777-.437a.457.457 0 0 1 -.328-.338 1.642 1.642 0 0 0 -2.74-.8 1.64 1.64 0 0 0 -.322 1.913.477.477 0 0 1 -.11.537l-.994.995a.497.497 0 0 1 -.617.07c-3.6-2-7.04 1.441-8.034 2.625a.348.348 0 0 0 -.1.208.996.996 0 0 0 -.199.14c-.895.855.14 3.281 2.287 5.429 2.148 2.148 4.555 3.172 5.41 2.317a1.32 1.32 0 0 0 .14-.189.428.428 0 0 0 .208-.11c1.143-1.024 4.574-4.464 2.615-7.984z" fill="#fff" stroke="#000" stroke-linejoin="round"/><path d="m12.365 19.257c.859-.859-.17-3.28-2.298-5.41-2.129-2.127-4.55-3.156-5.41-2.297-.859.859.17 3.28 2.298 5.41 2.129 2.128 4.55 3.156 5.41 2.297z" fill="#fca5a5" stroke="#000" stroke-miterlimit="10"/><path d="m8.11 14.99.7.71z" fill="#f09"/><g stroke-linejoin="round"><path d="m8.11 14.99.7.71" stroke="#fff" stroke-linecap="round"/><path d="m13.36 8.774a7.26 7.26 0 0 1 1 .814c.318.32.6.672.84 1.053 2.85 4.298-2.78 8.586-2.78 8.586.85-.854-.19-3.266-2.33-5.4s-4.58-3.157-5.44-2.313 4.35-5.628 8.71-2.74z" fill="#854d0e" stroke="#000"/></g></svg>