<svg width="24" height="24" fill="none" xmlns="http://www.w3.org/2000/svg"><path fill-rule="evenodd" clip-rule="evenodd" d="M8.763 4.537a1.599 1.599 0 0 0-1.342.731 1.688 1.688 0 0 0-.276.927v2.488l-1.192 2.441a4.23 4.23 0 0 0-.427 1.854v4.827c0 .44.17.862.474 1.173.304.31.715.485 1.145.485h9.71A1.6 1.6 0 0 0 18 18.978a1.68 1.68 0 0 0 .474-1.173v-4.826a4.23 4.23 0 0 0-.427-1.855l-.764-1.565a4.232 4.232 0 0 1-.428-1.855V6.195c0-.44-.17-.862-.474-1.173a1.599 1.599 0 0 0-1.144-.485H8.763zm9.619 3.167V6.195c0-.839-.325-1.648-.912-2.25A3.12 3.12 0 0 0 15.237 3H8.763a3.12 3.12 0 0 0-2.233.945 3.222 3.222 0 0 0-.912 2.25v2.13l-1.034 2.122A5.776 5.776 0 0 0 4 12.978v4.827c0 .839.325 1.648.912 2.25A3.12 3.12 0 0 0 7.145 21h9.71a3.12 3.12 0 0 0 2.233-.945 3.222 3.222 0 0 0 .912-2.25v-4.826c0-.878-.2-1.745-.584-2.532l-.764-1.566a2.685 2.685 0 0 1-.27-1.177z" fill="#fff"/><path d="M7.619 5.022a1.599 1.599 0 0 1 1.144-.485h6.474c.43 0 .84.174 1.144.485.304.311.474.733.474 1.173v1.51c0 .643.147 1.278.428 1.854l.764 1.565a4.23 4.23 0 0 1 .427 1.854v4.827c0 .44-.17.862-.474 1.173a1.599 1.599 0 0 1-1.145.485h-9.71A1.6 1.6 0 0 1 6 18.978a1.68 1.68 0 0 1-.474-1.173v-4.826c0-.644.147-1.279.427-1.855l1.192-2.441V6.195a1.688 1.688 0 0 1 .474-1.173z" fill="#fff"/><path d="M15.21 4.537H8.754a1.59 1.59 0 0 0-1.141.485 1.682 1.682 0 0 0-.473 1.173v2.488l-1.188 2.441a4.24 4.24 0 0 0-.426 1.855v4.826c0 .44.17.862.473 1.173.302.31.713.485 1.14.485h9.685a1.59 1.59 0 0 0 1.141-.485c.303-.311.473-.733.473-1.173v-4.826c0-.644-.146-1.279-.426-1.855L17.25 9.56a4.24 4.24 0 0 1-.426-1.855v-1.51c0-.44-.17-.862-.473-1.173a1.592 1.592 0 0 0-1.14-.485z" fill="#EAB308"/><path fill-rule="evenodd" clip-rule="evenodd" d="M8.763 5.049c-.291 0-.572.118-.781.332-.21.215-.329.507-.329.814v1.51c0 .565.13 1.122.376 1.628l.764 1.565a4.75 4.75 0 0 1 .479 2.08v4.827c0 .407-.113.804-.32 1.146h7.903c.292 0 .573-.118.782-.332.21-.215.328-.507.328-.814v-4.826a3.71 3.71 0 0 0-.375-1.629l-.764-1.565a4.744 4.744 0 0 1-.48-2.08v-1.51c0-.307-.118-.6-.328-.814a1.092 1.092 0 0 0-.781-.332H8.763zM7.145 18.95c.291 0 .572-.118.781-.332.21-.215.328-.507.328-.814v-4.827c0-.565-.128-1.123-.375-1.628l-.734-1.505-.735 1.505a3.716 3.716 0 0 0-.375 1.629v4.826c0 .307.12.6.328.814.21.214.49.332.782.332zM6.636 6.195c0-.573.222-1.124.62-1.532.398-.408.94-.639 1.507-.639h6.474a2.1 2.1 0 0 1 1.507.64c.398.407.62.958.62 1.531v1.51c0 .565.129 1.123.375 1.628l.764 1.566c.316.646.48 1.358.48 2.08v4.826c0 .573-.222 1.124-.62 1.532-.398.408-.94.639-1.508.639h-9.71c-.567 0-1.11-.231-1.508-.64a2.193 2.193 0 0 1-.62-1.531v-4.826c0-.722.165-1.434.48-2.08l1.139-2.335V6.195z" fill="#713F12"/><path d="M13.714 16.83c.946 0 1.713-.787 1.713-1.757 0-.97-.767-1.756-1.713-1.756-.947 0-1.714.786-1.714 1.756s.767 1.756 1.714 1.756z" fill="#A3E635"/><path fill-rule="evenodd" clip-rule="evenodd" d="M13.731 14.341a.714.714 0 0 0-.696.732c0 .421.329.732.696.732.368 0 .696-.31.696-.732a.715.715 0 0 0-.696-.732zm-2.73.732c0-1.518 1.205-2.78 2.73-2.78 1.526 0 2.731 1.262 2.731 2.78 0 1.518-1.205 2.78-2.73 2.78-1.526 0-2.732-1.262-2.732-2.78zm-.495-7.024a1.02 1.02 0 0 1 1.018-1.024h1.714a1.02 1.02 0 0 1 1.017 1.024 1.02 1.02 0 0 1-1.018 1.024h-1.713a1.02 1.02 0 0 1-1.018-1.024z" fill="#713F12"/></svg>