<svg width="24" height="24" fill="none" xmlns="http://www.w3.org/2000/svg"><g clip-path="url(#clip0_6994_41586)"><path d="M4 8.554h1.573v-1.71A1.124 1.124 0 0 1 6.812 5.59h1.69V4h-1.71c-.931 0-1.63.23-2.098.691-.467.462-.7 1.153-.7 2.072L4 8.555zM6.798 20h1.71v-1.59h-1.69a1.125 1.125 0 0 1-1.238-1.252v-1.71H4.007v1.798c0 .921.233 1.612.7 2.072.468.46 1.165.688 2.091.683zm11.61-11.446h1.574V6.756c0-.922-.232-1.613-.697-2.073-.464-.46-1.16-.687-2.088-.683h-1.701v1.591h1.679a1.123 1.123 0 0 1 1.24 1.252l-.006 1.71zM15.488 20h1.71c.935 0 1.636-.23 2.102-.692.466-.462.698-1.152.696-2.072v-1.798h-1.573v1.71a1.249 1.249 0 0 1-.323.94 1.263 1.263 0 0 1-.918.312h-1.678l-.016 1.6zM9.792 5.591h4.412v-1.59H9.792v1.59zm0 14.41h4.412v-1.592H9.792V20zm-5.794-5.845H5.57V9.84H3.998v4.317zm14.408 0h1.574V9.84h-1.574v4.317z" fill="#4D4D4D"/><path d="M7.96 11.99a.78.78 0 0 0 .225.586.836.836 0 0 0 .614.225h2.37v2.392a.836.836 0 0 0 .226.597.768.768 0 0 0 .59.225.809.809 0 0 0 .835-.834V12.8h2.37a.828.828 0 0 0 .605-.225.786.786 0 0 0 .225-.586.786.786 0 0 0-.834-.834h-2.37v-2.37a.822.822 0 0 0-.226-.608.806.806 0 0 0-.598-.225.77.77 0 0 0-.59.225.85.85 0 0 0-.225.609v2.362H8.806a.827.827 0 0 0-.614.225.812.812 0 0 0-.232.618z" fill="#212121"/></g><defs><clipPath id="clip0_6994_41586"><path fill="#fff" transform="translate(4 4)" d="M0 0h15.989v16H0z"/></clipPath></defs></svg>