<?xml version="1.0" encoding="utf-8"?>
<!-- Generator: Adobe Illustrator 27.6.1, SVG Export Plug-In . SVG Version: 6.00 Build 0)  -->
<svg version="1.1" id="Layer_1" xmlns="http://www.w3.org/2000/svg" xmlns:xlink="http://www.w3.org/1999/xlink" x="0px" y="0px"
	 viewBox="0 0 24 24" style="enable-background:new 0 0 24 24;" xml:space="preserve">
<style type="text/css">
	.st0{clip-path:url(#SVGID_00000075878081575922316890000001964764317051474110_);}
	.st1{fill:#4D4D4D;}
	.st2{fill:#212121;}
</style>
<g>
	<defs>
		<rect id="SVGID_1_" x="4" y="4" width="16" height="16"/>
	</defs>
	<clipPath id="SVGID_00000010294436803949089740000004268580794701114264_">
		<use xlink:href="#SVGID_1_"  style="overflow:visible;"/>
	</clipPath>
	<g style="clip-path:url(#SVGID_00000010294436803949089740000004268580794701114264_);">
		<path class="st1" d="M12,20c1.1,0,2.1-0.2,3.1-0.6c1-0.4,1.8-1,2.6-1.7c0.7-0.7,1.3-1.6,1.7-2.6c0.8-2,0.8-4.2,0-6.2
			C18.5,7,17,5.5,15.1,4.6c-2-0.8-4.2-0.8-6.2,0c-1,0.4-1.8,1-2.6,1.7C5.6,7.1,5,8,4.6,8.9c-0.8,2-0.8,4.2,0,6.2
			c0.4,1,1,1.8,1.7,2.6c0.7,0.7,1.6,1.3,2.6,1.7C9.9,19.8,10.9,20,12,20L12,20z M12,18.5c-0.9,0-1.7-0.2-2.5-0.5
			c-0.8-0.3-1.5-0.8-2.1-1.4C6.8,16,6.4,15.3,6,14.5C4.6,11.2,6.2,7.4,9.5,6c1.6-0.7,3.4-0.7,5,0c1.6,0.7,2.8,1.9,3.5,3.5
			c0.3,0.8,0.5,1.7,0.5,2.5c0,0.9-0.2,1.7-0.5,2.5c-0.3,0.8-0.8,1.5-1.4,2.1C15.4,17.8,13.7,18.5,12,18.5L12,18.5z"/>
		<path class="st2" d="M7.7,14.9c0,0.3,0.2,0.6,0.6,0.7c0,0,0.1,0,0.1,0h7.3c0.3,0,0.5-0.2,0.5-0.5c0-0.1,0-0.1,0-0.2
			c0-0.1-0.1-0.1-0.1-0.2c-0.1-0.1-0.2-0.1-0.3-0.1h-7V8.7c0-0.1-0.1-0.3-0.1-0.3C8.4,8.2,8.2,8.2,8,8.3C8,8.3,7.9,8.3,7.9,8.4
			C7.8,8.4,7.7,8.6,7.7,8.7L7.7,14.9z M8.5,13.2l1.7-1.7c0,0,0.1,0,0.1,0l1.3,1.3c0.2,0.2,0.4,0.3,0.6,0.3c0.2,0,0.5-0.1,0.6-0.3
			l1.4-1.4l0.5,0.5C14.8,12,15,12,15.1,12c0.1-0.1,0.2-0.2,0.3-0.3L16,9.4c0-0.1,0-0.3-0.1-0.4C15.8,9,15.6,9,15.5,9l-2.2,0.6
			c-0.1,0-0.3,0.1-0.3,0.3c-0.1,0.1,0,0.3,0.1,0.3l0.5,0.5L12.3,12c0,0-0.1,0-0.1,0l-1.3-1.4c-0.2-0.2-0.4-0.3-0.6-0.3
			c-0.2,0-0.5,0.1-0.6,0.3l-1.8,1.8L8.5,13.2z"/>
	</g>
</g>
</svg>
