<svg width="24" height="24" fill="none" xmlns="http://www.w3.org/2000/svg"><rect x="3" y="3" width="18" height="18" rx="4" fill="#fff"/><path d="M5 7a2 2 0 0 1 2-2h10a2 2 0 0 1 2 2v10a2 2 0 0 1-2 2H7a2 2 0 0 1-2-2V7z" fill="#FB7185"/><path fill-rule="evenodd" clip-rule="evenodd" d="M20 10V7a3 3 0 0 0-3-3h-3v2h3a1 1 0 0 1 1 1v3h2zM4 14v3a3 3 0 0 0 3 3h3v-2H7a1 1 0 0 1-1-1v-3H4zm6-10H7a3 3 0 0 0-3 3v3h2V7a1 1 0 0 1 1-1h3V4zm4 16h3a3 3 0 0 0 3-3v-3h-2v3a1 1 0 0 1-1 1h-3v2z" fill="#404040"/><path d="M9 12h6" stroke="#404040" stroke-width="2" stroke-linecap="round"/></svg>