<?xml version="1.0" encoding="utf-8"?>
<!-- Generator: Adobe Illustrator 27.6.1, SVG Export Plug-In . SVG Version: 6.00 Build 0)  -->
<svg version="1.1" id="Layer_1" xmlns="http://www.w3.org/2000/svg" xmlns:xlink="http://www.w3.org/1999/xlink" x="0px" y="0px"
	 viewBox="0 0 24 24" style="enable-background:new 0 0 24 24;" xml:space="preserve">
<style type="text/css">
	.st0{clip-path:url(#SVGID_00000106124256933438468530000004321406629899908521_);}
	.st1{fill:#FDE68A;stroke:#FDE047;stroke-linecap:round;stroke-linejoin:round;}
	.st2{fill-rule:evenodd;clip-rule:evenodd;fill:#FEF9C3;}
	.st3{fill:#FEF9C3;}
</style>
<g>
	<defs>
		<rect id="SVGID_1_" y="0" width="24" height="24"/>
	</defs>
	<clipPath id="SVGID_00000108296645526573144810000010546111656136005513_">
		<use xlink:href="#SVGID_1_"  style="overflow:visible;"/>
	</clipPath>
	<g style="clip-path:url(#SVGID_00000108296645526573144810000010546111656136005513_);">
		<path class="st1" d="M7.8,10.8l4.5,8.7l4.5-8.7L7.8,10.8L7.8,10.8z"/>
		<g>
			<path class="st2" d="M9.8,4.6c2.6-1.3,5.7-0.3,7.1,2.2c0.7,1.3,0.8,2.8,0.3,4.2c-0.1,0.2-0.3,0.3-0.5,0.3l-8.9,0
				c-0.2,0-0.5-0.1-0.5-0.3C6.4,8.5,7.5,5.8,9.8,4.6L9.8,4.6z M8.1,10.3l8.2,0c0.6-2.3-0.8-4.6-3-5.2C13,5,12.6,5,12.2,5
				C9.9,5,8,6.9,8,9.2C8,9.6,8,10,8.1,10.3L8.1,10.3z"/>
			<path class="st3" d="M16.3,10.3l-8.2,0c-0.6-2.3,0.8-4.6,3-5.2s4.6,0.8,5.2,3C16.5,8.9,16.5,9.6,16.3,10.3z"/>
		</g>
	</g>
</g>
</svg>
