<?xml version="1.0" encoding="utf-8"?>
<!-- Generator: Adobe Illustrator 27.6.1, SVG Export Plug-In . SVG Version: 6.00 Build 0)  -->
<svg version="1.1" id="Layer_1" xmlns="http://www.w3.org/2000/svg" xmlns:xlink="http://www.w3.org/1999/xlink" x="0px" y="0px"
	 viewBox="0 0 24 24" style="enable-background:new 0 0 24 24;" xml:space="preserve">
<style type="text/css">
	.st0{fill-rule:evenodd;clip-rule:evenodd;fill:#0E7490;}
	.st1{fill:#CFFAFE;}
	.st2{fill:#FFFFFF;filter:url(#Adobe_OpacityMaskFilter);}
	.st3{fill-rule:evenodd;clip-rule:evenodd;}
	.st4{mask:url(#a_00000067231716942099018520000008675051565664745883_);fill:#FFFFFF;}
</style>
<path class="st0" d="M4.6,19.9C4.2,19.8,4,19.4,4,19v-8c0-0.3,0.1-0.8,0.4-1.2C4.7,9.3,5.3,9,6,9h7c0.3,0,0.8,0.1,1.2,0.4
	C14.7,9.7,15,10.3,15,11v5c0,0.3-0.1,0.8-0.4,1.2C14.3,17.7,13.7,18,13,18H7.4l-1.7,1.7C5.4,20,5,20.1,4.6,19.9z M7,17h6
	c0.8,0,1-0.7,1-1v-5c0-0.8-0.7-1-1-1H6c-0.8,0-1,0.7-1,1v8L7,17z"/>
<path class="st1" d="M5,11v8l2-2h6c0.8,0,1-0.7,1-1v-5c0-0.8-0.7-1-1-1H6C5.2,10,5,10.7,5,11z"/>
<path class="st0" d="M19.4,14.9c0.4-0.2,0.6-0.5,0.6-0.9V6c0-0.3-0.1-0.8-0.4-1.2C19.3,4.3,18.7,4,18,4h-7c-0.3,0-0.8,0.1-1.2,0.4
	C9.3,4.7,9,5.3,9,6v5c0,0.3,0.1,0.8,0.4,1.2C9.7,12.7,10.3,13,11,13h5.6l1.7,1.7C18.6,15,19,15.1,19.4,14.9z M17,12h-6
	c-0.8,0-1-0.7-1-1V6c0-0.8,0.7-1,1-1h7c0.8,0,1,0.7,1,1v8L17,12z"/>
<path class="st1" d="M19,6v8l-2-2h-6c-0.8,0-1-0.7-1-1V6c0-0.8,0.7-1,1-1h7C18.8,5,19,5.7,19,6z"/>
<defs>
	<filter id="Adobe_OpacityMaskFilter" filterUnits="userSpaceOnUse" x="3" y="3" width="18" height="18">
		<feColorMatrix  type="matrix" values="1 0 0 0 0  0 1 0 0 0  0 0 1 0 0  0 0 0 1 0"/>
	</filter>
</defs>
<mask maskUnits="userSpaceOnUse" x="3" y="3" width="18" height="18" id="a_00000067231716942099018520000008675051565664745883_">
	<path class="st2" d="M3,3h18v18H3V3z"/>
	<path class="st3" d="M4.6,19.9C4.2,19.8,4,19.4,4,19v-8c0-0.3,0.1-0.8,0.4-1.2C4.7,9.3,5.3,9,6,9h7c0.3,0,0.8,0.1,1.2,0.4
		C14.7,9.7,15,10.3,15,11v5c0,0.3-0.1,0.8-0.4,1.2C14.3,17.7,13.7,18,13,18H7.4l-1.7,1.7C5.4,20,5,20.1,4.6,19.9z M7,17h6
		c0.8,0,1-0.7,1-1v-5c0-0.8-0.7-1-1-1H6c-0.8,0-1,0.7-1,1v8L7,17z"/>
	<path d="M5,11v8l2-2h6c0.8,0,1-0.7,1-1v-5c0-0.8-0.7-1-1-1H6C5.2,10,5,10.7,5,11z"/>
	<path class="st3" d="M19.4,14.9c0.4-0.2,0.6-0.5,0.6-0.9V6c0-0.3-0.1-0.8-0.4-1.2C19.3,4.3,18.7,4,18,4h-7c-0.3,0-0.8,0.1-1.2,0.4
		C9.3,4.7,9,5.3,9,6v5c0,0.3,0.1,0.8,0.4,1.2C9.7,12.7,10.3,13,11,13h5.6l1.7,1.7C18.6,15,19,15.1,19.4,14.9z M17,12h-6
		c-0.8,0-1-0.7-1-1V6c0-0.8,0.7-1,1-1h7c0.8,0,1,0.7,1,1v8L17,12z"/>
	<path d="M19,6v8l-2-2h-6c-0.8,0-1-0.7-1-1V6c0-0.8,0.7-1,1-1h7C18.8,5,19,5.7,19,6z"/>
</mask>
<path class="st4" d="M7,17v-0.5c-0.1,0-0.3,0.1-0.4,0.1L7,17z M5,19H4.5c0,0.3,0.2,0.5,0.5,0.5c0.1,0,0.3-0.1,0.4-0.1L5,19z M17,12
	l0.4-0.4c-0.1-0.1-0.2-0.1-0.4-0.1V12z M19,14l-0.4,0.4c0.2,0.2,0.5,0.2,0.7,0c0.1-0.1,0.1-0.2,0.1-0.4H19z M7,17.5h6v-1H7V17.5z
	 M13,17.5c0.6,0,1-0.2,1.2-0.6c0.2-0.3,0.3-0.7,0.3-0.9h-1c0,0.1,0,0.2-0.1,0.3c-0.1,0.1-0.2,0.2-0.4,0.2V17.5z M14.5,16v-5h-1v5
	H14.5z M14.5,11c0-0.6-0.2-1-0.6-1.2c-0.3-0.2-0.6-0.3-0.9-0.3v1c0.1,0,0.2,0,0.3,0.1c0.1,0.1,0.2,0.2,0.2,0.4H14.5z M13,9.5H6v1h7
	V9.5z M6,9.5c-0.6,0-1,0.2-1.2,0.6c-0.2,0.3-0.3,0.7-0.3,0.9h1c0-0.1,0-0.2,0.1-0.3c0.1-0.1,0.2-0.2,0.4-0.2V9.5z M4.5,11v8h1v-8
	H4.5z M5.4,19.4l2-2l-0.7-0.7l-2,2L5.4,19.4z M17,11.5h-6v1h6V11.5z M11,11.5c-0.2,0-0.3-0.1-0.4-0.2c-0.1-0.1-0.1-0.2-0.1-0.3h-1
	c0,0.2,0.1,0.6,0.3,0.9c0.2,0.3,0.6,0.6,1.2,0.6V11.5z M10.5,11V6h-1v5H10.5z M10.5,6c0-0.2,0.1-0.3,0.2-0.4
	c0.1-0.1,0.2-0.1,0.3-0.1v-1c-0.2,0-0.6,0.1-0.9,0.3C9.7,5,9.5,5.4,9.5,6H10.5z M11,5.5h7v-1h-7V5.5z M18,5.5c0.2,0,0.3,0.1,0.4,0.2
	c0.1,0.1,0.1,0.2,0.1,0.3h1c0-0.2-0.1-0.6-0.3-0.9C19,4.7,18.6,4.5,18,4.5V5.5z M18.5,6v8h1V6H18.5z M19.4,13.6l-2-2l-0.7,0.7l2,2
	L19.4,13.6z M4.6,19.9L5,19L4.6,19.9z M4.4,9.8L3.6,9.2L4.4,9.8z M14.2,9.4l0.6-0.8L14.2,9.4z M14.6,17.2l-0.8-0.6L14.6,17.2z
	 M7.4,18v-1c-0.3,0-0.5,0.1-0.7,0.3C6.7,17.3,7.4,18,7.4,18z M5.7,19.7L5,19L5.7,19.7z M19.4,14.9L19,14C19,14,19.4,14.9,19.4,14.9z
	 M19.6,4.8l0.8-0.6L19.6,4.8z M9.8,4.4L9.2,3.6L9.8,4.4z M9.4,12.2l0.8-0.6L9.4,12.2z M16.6,13l0.7-0.7c-0.2-0.2-0.4-0.3-0.7-0.3V13
	z M18.3,14.7L19,14L18.3,14.7L18.3,14.7z M3,19c0,0.8,0.5,1.5,1.2,1.8L5,19H3z M3,11v8h2v-8H3z M3.6,9.2C3.2,9.7,3,10.4,3,11h2
	c0-0.2,0.1-0.4,0.2-0.6C5.2,10.4,3.6,9.2,3.6,9.2z M6,8C4.9,8,4.1,8.5,3.6,9.2l1.6,1.2C5.3,10.2,5.6,10,6,10V8z M13,8H6v2h7V8z
	 M14.8,8.6C14.3,8.2,13.6,8,13,8v2c0.2,0,0.4,0.1,0.6,0.2L14.8,8.6z M16,11c0-1.1-0.5-1.9-1.2-2.4l-1.2,1.6c0.2,0.1,0.4,0.4,0.4,0.8
	H16z M16,16v-5h-2v5H16z M15.4,17.8c0.4-0.5,0.6-1.2,0.6-1.8h-2c0,0.2-0.1,0.4-0.2,0.6L15.4,17.8z M13,19c1.1,0,1.9-0.5,2.4-1.2
	l-1.6-1.2C13.7,16.8,13.4,17,13,17V19z M7.4,19H13v-2H7.4V19z M6.4,20.4l1.7-1.7l-1.4-1.4L5,19L6.4,20.4z M4.2,20.8
	C5,21.2,5.8,21,6.4,20.4L5,19L4.2,20.8L4.2,20.8z M19,14l0.8,1.8c0.7-0.3,1.2-1,1.2-1.8H19z M19,6v8h2V6H19z M18.8,5.4
	C18.9,5.6,19,5.8,19,6h2c0-0.5-0.1-1.2-0.6-1.8L18.8,5.4z M18,5c0.4,0,0.6,0.2,0.8,0.4l1.6-1.2C19.9,3.5,19.1,3,18,3V5z M11,5h7V3
	h-7V5z M10.4,5.2C10.6,5,10.8,5,11,5V3c-0.5,0-1.2,0.1-1.8,0.6L10.4,5.2z M10,6c0-0.4,0.2-0.7,0.4-0.8L9.2,3.6C8.5,4.1,8,4.9,8,6H10
	z M10,11V6H8v5H10z M10.2,11.6C10.1,11.4,10,11.2,10,11H8c0,0.5,0.1,1.2,0.6,1.8L10.2,11.6z M11,12c-0.4,0-0.6-0.2-0.8-0.4l-1.6,1.2
	C9.1,13.5,9.9,14,11,14V12z M16.6,12H11v2h5.6V12z M19,14l-1.7-1.7l-1.4,1.4l1.7,1.7L19,14z M19,14l-1.4,1.4
	c0.6,0.6,1.4,0.7,2.2,0.4L19,14z"/>
</svg>
