<?xml version="1.0" encoding="utf-8"?>
<!-- Generator: Adobe Illustrator 27.6.1, SVG Export Plug-In . SVG Version: 6.00 Build 0)  -->
<svg version="1.1" id="Layer_1" xmlns="http://www.w3.org/2000/svg" xmlns:xlink="http://www.w3.org/1999/xlink" x="0px" y="0px"
	 viewBox="0 0 24 24" style="enable-background:new 0 0 24 24;" xml:space="preserve">
<style type="text/css">
	.st0{fill:#A7F3D0;}
	.st1{fill:#FFFFFF;}
	.st2{fill:#6EE7B7;}
	.st3{fill:#047857;}
</style>
<path class="st0" d="M18.2,20.5C10.3,20.1,3.9,13.7,3.5,5.8c0-1.3,1-2.4,2.3-2.4c0,0,0,0,0,0h3.8c0.2,0,0.4,0.1,0.5,0.3L12,8.5
	c0.1,0.2,0,0.5-0.2,0.6l-2,1.2c0.9,1.6,2.3,3,4,4l1.2-2c0.1-0.2,0.3-0.2,0.4-0.2h0.2l4.7,1.9c0.2,0.1,0.3,0.3,0.3,0.5v3.8
	C20.5,19.5,19.4,20.5,18.2,20.5z"/>
<path class="st1" d="M9.6,3.9l1.9,4.7l-2.4,1.4c1,2.1,2.7,3.7,4.7,4.7l1.4-2.4l4.7,1.9v3.8c0,1-0.8,1.9-1.9,1.9
	C10.5,19.6,4.4,13.5,3.9,5.8c0-1,0.8-1.9,1.9-1.9C5.8,3.9,9.6,3.9,9.6,3.9z M9.6,3H5.8C4.2,3,3,4.2,3,5.8v0.1
	C3.5,14,10,20.5,18.1,21h0.1c1.6,0,2.8-1.2,2.8-2.8v-3.8c0-0.4-0.2-0.8-0.6-0.9l-4.7-1.9c-0.1-0.1-0.3-0.1-0.4-0.1
	c-0.3,0-0.7,0.2-0.9,0.5l-0.9,1.6c-1.3-0.8-2.3-1.9-3.1-3.1L12,9.5c0.4-0.3,0.6-0.8,0.4-1.1l-1.9-4.7C10.4,3.2,10,3,9.6,3z"/>
<path class="st2" d="M18.2,19.6C10.8,19.1,4.9,13.2,4.4,5.8c0-0.8,0.7-1.4,1.4-1.4h3.5L11,8.5L9,9.7c-0.2,0.1-0.3,0.4-0.2,0.6
	c1,2.2,2.8,3.9,4.9,4.9c0.1,0,0.1,0.1,0.2,0.1c0.2,0,0.3-0.1,0.4-0.2l1.2-2l4.1,1.6v3.4C19.6,18.9,18.9,19.6,18.2,19.6L18.2,19.6z"
	/>
<path class="st3" d="M9,4.9l1.3,3.4L8.7,9.3C8.3,9.5,8.1,10,8.3,10.5c1.1,2.3,3,4.1,5.2,5.2c0.1,0.1,0.3,0.1,0.4,0.1
	c0.3,0,0.7-0.2,0.9-0.5l1-1.7l3.4,1.3v3.2c0,0.5-0.4,0.9-0.9,0.9C11.1,18.6,5.4,12.9,4.9,5.8c0-0.5,0.5-0.9,0.9-0.9H9z M9.6,3.9H5.8
	c-1,0-1.9,0.8-1.9,1.9c0.5,7.7,6.6,13.8,14.2,14.2c1,0,1.9-0.8,1.9-1.9v-3.8l-4.7-1.9l-1.4,2.4c-2.1-1-3.7-2.7-4.7-4.7l2.4-1.4
	C11.5,8.7,9.6,3.9,9.6,3.9z"/>
</svg>
