<svg fill="none" height="24" width="24" xmlns="http://www.w3.org/2000/svg" xmlns:xlink="http://www.w3.org/1999/xlink"><clipPath id="a"><path d="m0 0h16v15.99h-16z" transform="translate(4 4)"/></clipPath><g clip-path="url(#a)"><path d="m11.994 19.99a7.71 7.71 0 0 0 3.09-.625 8.058 8.058 0 0 0 2.553-1.733 8.246 8.246 0 0 0 1.732-2.556 7.86 7.86 0 0 0 0-6.162 8.231 8.231 0 0 0 -4.295-4.29 7.933 7.933 0 0 0 -6.172 0 8.02 8.02 0 0 0 -2.552 1.743 8.272 8.272 0 0 0 -1.73 2.555 7.86 7.86 0 0 0 0 6.162c.412.954 1 1.82 1.733 2.556a8.07 8.07 0 0 0 2.55 1.733 7.71 7.71 0 0 0 3.09.617zm0-1.506a6.344 6.344 0 0 1 -2.522-.5 6.423 6.423 0 0 1 -2.059-1.393 6.523 6.523 0 0 1 -1.388-2.07 6.493 6.493 0 0 1 8.491-8.52 6.527 6.527 0 0 1 3.461 3.46c.34.8.512 1.66.506 2.529a6.421 6.421 0 0 1 -.5 2.526 6.558 6.558 0 0 1 -1.387 2.07 6.422 6.422 0 0 1 -4.602 1.892z" fill="#4d4d4d"/><path d="m7.744 14.859a.609.609 0 0 0 .655.653h7.34a.479.479 0 0 0 .448-.658.467.467 0 0 0 -.106-.153.47.47 0 0 0 -.341-.14h-7.034v-5.864a.45.45 0 0 0 -.144-.337.47.47 0 0 0 -.522-.104.463.463 0 0 0 -.152.104.45.45 0 0 0 -.144.337zm.773-1.674 1.704-1.714c.027-.041.057-.041.09 0l1.288 1.337a.931.931 0 0 0 .633.288.864.864 0 0 0 .635-.288l1.386-1.42.505.533a.323.323 0 0 0 .353.08.405.405 0 0 0 .252-.307l.608-2.258a.324.324 0 0 0 -.09-.351.353.353 0 0 0 -.366-.086l-2.248.585a.406.406 0 0 0 -.303.257.3.3 0 0 0 .086.347l.523.516-1.286 1.306c-.027.035-.053.037-.08 0l-1.318-1.367a.85.85 0 0 0 -.623-.286.884.884 0 0 0 -.635.286l-1.773 1.844z" fill="#212121"/></g></svg>