<?xml version="1.0" encoding="utf-8"?>
<!-- Generator: Adobe Illustrator 27.6.1, SVG Export Plug-In . SVG Version: 6.00 Build 0)  -->
<svg version="1.1" id="Layer_1" xmlns="http://www.w3.org/2000/svg" xmlns:xlink="http://www.w3.org/1999/xlink" x="0px" y="0px"
	 viewBox="0 0 24 24" style="enable-background:new 0 0 24 24;" xml:space="preserve">
<style type="text/css">
	.st0{clip-path:url(#SVGID_00000026163119985645552180000010845394261075682978_);}
	.st1{fill:#38BDF8;}
</style>
<g>
	<defs>
		<rect id="SVGID_1_" x="4" y="4" width="16" height="16"/>
	</defs>
	<clipPath id="SVGID_00000035519408082887069510000010694364219024354984_">
		<use xlink:href="#SVGID_1_"  style="overflow:visible;"/>
	</clipPath>
	<g style="clip-path:url(#SVGID_00000035519408082887069510000010694364219024354984_);">
		<path class="st1" d="M12,20c1.1,0,2.1-0.2,3.1-0.6c1-0.4,1.8-1,2.6-1.7c0.7-0.7,1.3-1.6,1.7-2.6c0.8-2,0.8-4.2,0-6.2
			C18.5,7,17,5.5,15.1,4.6c-2-0.8-4.2-0.8-6.2,0c-1,0.4-1.8,1-2.6,1.7C5.6,7.1,5,8,4.6,8.9c-0.8,2-0.8,4.2,0,6.2
			c0.4,1,1,1.8,1.7,2.6C7.1,18.4,8,19,8.9,19.4C9.9,19.8,10.9,20,12,20L12,20z M12,18.5c-0.9,0-1.7-0.2-2.5-0.5
			c-0.8-0.3-1.5-0.8-2.1-1.4C6.8,16,6.4,15.3,6,14.5C4.6,11.2,6.2,7.4,9.5,6c1.6-0.7,3.4-0.7,5.1,0c1.6,0.7,2.8,1.9,3.5,3.5
			c0.3,0.8,0.5,1.7,0.5,2.5c0,0.9-0.2,1.7-0.5,2.5c-0.3,0.8-0.8,1.5-1.4,2.1C15.4,17.8,13.7,18.5,12,18.5L12,18.5L12,18.5z"/>
		<path class="st1" d="M8.3,15c0,0.3,0.1,0.5,0.3,0.7C8.8,15.9,9,16,9.3,16h5.4c0.3,0,0.5-0.1,0.7-0.3c0.2-0.2,0.3-0.4,0.3-0.7v-3.1
			l-3.4-2.9c-0.1-0.1-0.4-0.1-0.5,0l-3.4,2.9L8.3,15L8.3,15z M13.1,15.1h-2.1v-2.6c0-0.2,0.1-0.3,0.2-0.3c0,0,0.1,0,0.1,0h1.5
			c0.2,0,0.3,0.1,0.3,0.2c0,0,0,0.1,0,0.1L13.1,15.1L13.1,15.1z M7,11.4c0,0.1,0,0.2,0.1,0.3c0.1,0.1,0.2,0.1,0.3,0.1
			c0.1,0,0.1,0,0.2,0c0.1,0,0.1-0.1,0.2-0.1l4.1-3.4c0.1-0.1,0.2-0.1,0.3,0l4.1,3.4c0,0,0.1,0.1,0.2,0.1c0.2,0.1,0.3,0.1,0.5-0.1
			c0.1-0.1,0.1-0.2,0.1-0.3c0-0.1,0-0.3-0.1-0.3l-4.3-3.6c-0.3-0.3-0.8-0.3-1.1,0l-4.3,3.6C7,11.2,7,11.3,7,11.4L7,11.4L7,11.4z
			 M14.5,9.4l1.1,1V8.5c0-0.2-0.1-0.3-0.2-0.3c0,0-0.1,0-0.1,0h-0.5c-0.2,0-0.3,0.1-0.3,0.2c0,0,0,0.1,0,0.1
			C14.5,8.5,14.5,9.4,14.5,9.4z"/>
	</g>
</g>
</svg>
