<?xml version="1.0" encoding="utf-8"?>
<!-- Generator: Adobe Illustrator 27.6.1, SVG Export Plug-In . SVG Version: 6.00 Build 0)  -->
<svg version="1.1" id="Layer_1" xmlns="http://www.w3.org/2000/svg" xmlns:xlink="http://www.w3.org/1999/xlink" x="0px" y="0px"
	 viewBox="0 0 24 24" style="enable-background:new 0 0 24 24;" xml:space="preserve">
<style type="text/css">
	.st0{fill:#FB923C;stroke:#FFFFFF;stroke-width:1.786;stroke-linecap:round;stroke-linejoin:round;}
	.st1{fill:#EA580C;stroke:#171717;stroke-linecap:round;stroke-linejoin:round;}
	.st2{fill:#FB923C;}
	.st3{fill:#171717;}
</style>
<path class="st0" d="M17.2,4.2c-0.3-0.3-0.9-0.3-1.3,0L4.1,16.1c-0.3,0.3-0.3,0.9,0,1.3c3.7,3.6,9.5,3.5,13.1-0.2
	C20.6,13.5,20.6,7.8,17.2,4.2z"/>
<path class="st1" d="M16.5,16.7c3.3-3.3,3.3-8.6,0-11.8L4.7,16.7C8,20,13.3,20,16.5,16.7L16.5,16.7z"/>
<path class="st2" d="M6.9,14.7c2.1,2.1,5.6,2.1,7.7-0.1c2.1-2.1,2.1-5.5,0-7.6L6.9,14.7z"/>
<path class="st3" d="M6.9,14.7l-0.4-0.4c-0.2,0.2-0.2,0.5,0,0.7L6.9,14.7z M14.6,7l0.4-0.4c-0.2-0.2-0.5-0.2-0.7,0c0,0,0,0,0,0
	L14.6,7z M10.7,10.9l-0.4-0.4L10.7,10.9z M10.7,10.9v-0.5c-0.3,0-0.5,0.2-0.5,0.5H10.7z M14.2,15.1c0.2,0.2,0.5,0.2,0.7,0
	c0.2-0.2,0.2-0.5,0-0.7c0,0,0,0,0,0L14.2,15.1z M10.2,16.3c0,0.3,0.2,0.5,0.5,0.5s0.5-0.2,0.5-0.5H10.2z M16.2,11.4
	c0.3,0,0.5-0.2,0.5-0.5s-0.2-0.5-0.5-0.5V11.4z M6.5,15.1c1.1,1.1,2.6,1.7,4.2,1.7v-1c-1.3,0-2.6-0.5-3.5-1.4L6.5,15.1z M10.7,16.8
	c1.6,0,3.1-0.6,4.2-1.7l-0.7-0.7c-0.9,0.9-2.2,1.4-3.5,1.4L10.7,16.8L10.7,16.8z M14.9,15.1c1.1-1.1,1.7-2.6,1.7-4.2h-1
	c0,1.3-0.5,2.6-1.4,3.5L14.9,15.1z M16.7,10.9c0-1.6-0.6-3.1-1.7-4.2l-0.7,0.7c0.9,0.9,1.4,2.2,1.4,3.5L16.7,10.9L16.7,10.9z
	 M7.3,15.1l7.7-7.7l-0.7-0.7l-7.7,7.7L7.3,15.1z M7.3,15.1l3.8-3.8l-0.7-0.7l-3.8,3.8L7.3,15.1z M14.2,6.7l-3.8,3.8l0.7,0.7l3.8-3.8
	L14.2,6.7z M10.4,11.2l3.8,3.8l0.7-0.7l-3.8-3.8L10.4,11.2z M10.2,10.9v5.4h1v-5.4H10.2z M10.7,11.4h5.4v-1h-5.4V11.4z"/>
</svg>
