<?xml version="1.0" encoding="utf-8"?>
<!-- Generator: Adobe Illustrator 27.6.1, SVG Export Plug-In . SVG Version: 6.00 Build 0)  -->
<svg version="1.1" id="Layer_1" xmlns="http://www.w3.org/2000/svg" xmlns:xlink="http://www.w3.org/1999/xlink" x="0px" y="0px"
	 viewBox="0 0 24 24" style="enable-background:new 0 0 24 24;" xml:space="preserve">
<style type="text/css">
	.st0{fill:#F9A8D4;stroke:#BE185D;}
	.st1{fill:none;stroke:#BE185D;stroke-width:1.5;stroke-linecap:round;stroke-linejoin:round;}
	.st2{fill:#BE185D;}
	.st3{fill:none;stroke:#FFFFFF;}
	.st4{fill:none;stroke:#BE185D;}
</style>
<path class="st0" d="M12,4.5L12,4.5c4.1,0,7.5,3.4,7.5,7.5l0,0c0,4.1-3.4,7.5-7.5,7.5l0,0c-4.1,0-7.5-3.4-7.5-7.5l0,0
	C4.5,7.9,7.9,4.5,12,4.5z"/>
<path class="st1" d="M9.7,9.7c0-0.5,0.2-0.9,0.6-1.2C10.7,8.2,11.2,8,11.7,8h0.6c0.5,0,1,0.2,1.4,0.5s0.6,0.8,0.6,1.2
	c0,0.8-0.4,1.5-1.1,1.7c-0.4,0.2-0.7,0.5-0.9,0.9c-0.2,0.4-0.3,0.9-0.3,1.4 M12,16L12,16"/>
<path class="st2" d="M5.7,8.4C5.3,8,5.3,7.4,5.7,7L7,5.7c0.4-0.4,1-0.4,1.4,0c0.4,0.4,0.4,1,0,1.4L7.1,8.4C6.7,8.8,6.1,8.8,5.7,8.4
	L5.7,8.4z M5.7,15.6c0.4-0.4,1-0.4,1.4,0l1.2,1.2c0.4,0.4,0.4,1,0,1.4c-0.4,0.4-1,0.4-1.4,0L5.7,17C5.3,16.6,5.3,16,5.7,15.6z
	 M15.6,5.7c0.4-0.4,1-0.4,1.4,0L18.3,7c0.4,0.4,0.4,1,0,1.4c-0.4,0.4-1,0.4-1.4,0l-1.2-1.2C15.2,6.7,15.2,6.1,15.6,5.7
	C15.6,5.7,15.6,5.7,15.6,5.7L15.6,5.7z M15.6,18.3c-0.4-0.4-0.4-1,0-1.4c0,0,0,0,0,0l1.2-1.2c0.4-0.4,1-0.4,1.4,0
	c0.4,0.4,0.4,1,0,1.4L17,18.3C16.6,18.7,16,18.7,15.6,18.3L15.6,18.3z"/>
<path class="st3" d="M12,3.5L12,3.5c4.7,0,8.5,3.8,8.5,8.5l0,0c0,4.7-3.8,8.5-8.5,8.5l0,0c-4.7,0-8.5-3.8-8.5-8.5l0,0
	C3.5,7.3,7.3,3.5,12,3.5z"/>
<path class="st4" d="M12,4.5L12,4.5c4.1,0,7.5,3.4,7.5,7.5l0,0c0,4.1-3.4,7.5-7.5,7.5l0,0c-4.1,0-7.5-3.4-7.5-7.5l0,0
	C4.5,7.9,7.9,4.5,12,4.5z"/>
</svg>
