<?xml version="1.0" encoding="utf-8"?>
<!-- Generator: Adobe Illustrator 27.6.1, SVG Export Plug-In . SVG Version: 6.00 Build 0)  -->
<svg version="1.1" id="Layer_1" xmlns="http://www.w3.org/2000/svg" xmlns:xlink="http://www.w3.org/1999/xlink" x="0px" y="0px"
	 viewBox="0 0 24 24" style="enable-background:new 0 0 24 24;" xml:space="preserve">
<style type="text/css">
	.st0{clip-path:url(#SVGID_00000134959752407790510850000005793025170390621863_);}
	.st1{fill:#FFCC00;}
</style>
<g>
	<defs>
		<rect id="SVGID_1_" x="4" y="4" width="16.7" height="16"/>
	</defs>
	<clipPath id="SVGID_00000036945358001900726640000000289032090154722953_">
		<use xlink:href="#SVGID_1_"  style="overflow:visible;"/>
	</clipPath>
	<g style="clip-path:url(#SVGID_00000036945358001900726640000000289032090154722953_);">
		<path class="st1" d="M7.2,19.8C7.4,20,7.6,20,7.8,20c0.3-0.1,0.5-0.2,0.7-0.3l3.9-2.8l3.9,2.8c0.2,0.2,0.4,0.3,0.7,0.3
			c0.2,0,0.4,0,0.6-0.1c0.2-0.1,0.3-0.3,0.3-0.5c0-0.3,0-0.5-0.1-0.8L16.2,14l3.9-2.8c0.2-0.1,0.4-0.3,0.5-0.6
			c0.1-0.2,0.1-0.4,0.1-0.6c-0.1-0.2-0.2-0.4-0.4-0.4c-0.2-0.1-0.5-0.2-0.8-0.1l-4.8,0l-1.5-4.6c-0.1-0.3-0.2-0.5-0.4-0.7
			C12.8,4.1,12.6,4,12.4,4c-0.2,0-0.4,0.1-0.5,0.2c-0.2,0.2-0.3,0.4-0.4,0.7L10,9.5l-4.8,0c-0.3,0-0.5,0-0.8,0.1
			C4.3,9.7,4.1,9.8,4.1,10C4,10.2,4,10.5,4.1,10.6c0.1,0.2,0.3,0.4,0.5,0.6L8.6,14L7,18.6c-0.1,0.2-0.1,0.5-0.1,0.8
			C6.9,19.5,7,19.7,7.2,19.8z M8.5,18.1C8.4,18.1,8.4,18.1,8.5,18.1L9.9,14c0-0.1,0.1-0.3,0-0.4c0-0.1-0.1-0.3-0.3-0.3l-3.6-2.5
			c0,0,0,0,0-0.1s0,0,0.1,0l4.4,0.1c0.1,0,0.3,0,0.4-0.1c0.1-0.1,0.2-0.2,0.2-0.4l1.2-4.2c0,0,0,0,0,0s0,0,0,0l1.2,4.2
			c0,0.1,0.1,0.3,0.2,0.4c0.1,0.1,0.3,0.1,0.4,0.1l4.3-0.1c0,0,0,0,0.1,0c0,0,0,0,0,0.1l-3.6,2.4c-0.1,0.1-0.2,0.2-0.3,0.3
			c0,0.1,0,0.3,0,0.4l1.4,4.1c0,0,0,0,0,0.1c0,0,0,0-0.1,0l-3.4-2.7c-0.1-0.1-0.3-0.1-0.4-0.2c-0.2,0-0.3,0.1-0.4,0.2L8.5,18.1
			C8.5,18.2,8.5,18.2,8.5,18.1L8.5,18.1z"/>
	</g>
</g>
</svg>
