<svg width="24" height="24" fill="none" xmlns="http://www.w3.org/2000/svg"><g clip-path="url(#clip0_6994_41627)"><path d="M8.886 20.004c.207.002.41-.056.584-.17a5.79 5.79 0 0 0 .662-.53l2.607-2.335h4.574a4.31 4.31 0 0 0 2.012-.425c.53-.27.959-.704 1.225-1.236a4.351 4.351 0 0 0 .413-1.993V7.654a4.365 4.365 0 0 0-.413-1.993 2.815 2.815 0 0 0-1.225-1.236 4.334 4.334 0 0 0-2.012-.423H7.65a4.333 4.333 0 0 0-2.011.423c-.53.271-.959.704-1.226 1.236A4.365 4.365 0 0 0 4 7.654v5.665c-.022.688.12 1.37.413 1.993a2.79 2.79 0 0 0 1.226 1.236 4.309 4.309 0 0 0 2.01.425h.278v1.937c-.014.287.074.57.25.797a.867.867 0 0 0 .709.297zm.359-1.594v-2.193a.692.692 0 0 0-.15-.506.71.71 0 0 0-.502-.146H7.65c-.785 0-1.357-.2-1.714-.564-.357-.365-.534-.939-.534-1.684V7.654c0-.746.178-1.305.534-1.678.356-.374.927-.56 1.714-.56h9.663c.786 0 1.357.186 1.715.56.357.373.535.932.534 1.678v5.665c0 .745-.178 1.307-.535 1.684-.356.375-.928.564-1.714.564h-4.652a1.86 1.86 0 0 0-.568.072c-.176.07-.331.182-.453.327L9.245 18.41z" fill="#4D4D4D"/><path d="M10.685 12.248c.431.434.898.83 1.396 1.186.445.322.93.583 1.445.776.43.168.893.237 1.353.199.433-.05.834-.249 1.135-.564.031-.034.06-.062.081-.088l.074-.088a1.08 1.08 0 0 0 .263-.627.659.659 0 0 0-.32-.598l-.415-.293-.433-.307c-.15-.106-.305-.216-.468-.325a.83.83 0 0 0-.598-.2.975.975 0 0 0-.483.293l-.29.291a.2.2 0 0 1-.166.058.486.486 0 0 1-.176-.048 4.552 4.552 0 0 1-.506-.38 14.43 14.43 0 0 1-.612-.554 5.487 5.487 0 0 1-.56-.622 5.452 5.452 0 0 1-.375-.497.4.4 0 0 1-.053-.155.2.2 0 0 1 .063-.176l.291-.303c.145-.134.25-.306.303-.496a.778.778 0 0 0-.215-.584l-.915-1.303a.693.693 0 0 0-.355-.287.765.765 0 0 0-.438 0c-.185.06-.358.152-.51.273l-.054.05-.044.037a1.927 1.927 0 0 0-.57 1.144c-.04.462.028.927.2 1.358.192.514.452 1 .773 1.445.352.495.747.958 1.18 1.385z" fill="#212121"/></g><defs><clipPath id="clip0_6994_41627"><path fill="#fff" transform="translate(4 4)" d="M0 0h16.965v16H0z"/></clipPath></defs></svg>