<?xml version="1.0" encoding="utf-8"?>
<!-- Generator: Adobe Illustrator 27.6.1, SVG Export Plug-In . SVG Version: 6.00 Build 0)  -->
<svg version="1.1" id="Layer_1" xmlns="http://www.w3.org/2000/svg" xmlns:xlink="http://www.w3.org/1999/xlink" x="0px" y="0px"
	 viewBox="0 0 24 24" style="enable-background:new 0 0 24 24;" xml:space="preserve">
<style type="text/css">
	.st0{clip-path:url(#SVGID_00000142165379263299810560000002482257025043165862_);}
	.st1{fill:#84CC16;}
</style>
<g>
	<defs>
		<rect id="SVGID_1_" x="4" y="4" width="16" height="16"/>
	</defs>
	<clipPath id="SVGID_00000148628299917612141510000013604879253297037471_">
		<use xlink:href="#SVGID_1_"  style="overflow:visible;"/>
	</clipPath>
	<g style="clip-path:url(#SVGID_00000148628299917612141510000013604879253297037471_);">
		<path class="st1" d="M12,20c1.1,0,2.1-0.2,3.1-0.6c1-0.4,1.8-1,2.6-1.7c0.7-0.7,1.3-1.6,1.7-2.6c0.8-2,0.8-4.2,0-6.2
			C18.5,7,17,5.5,15.1,4.6c-2-0.8-4.2-0.8-6.2,0c-1,0.4-1.8,1-2.6,1.7C5.6,7.1,5,8,4.6,8.9c-0.8,2-0.8,4.2,0,6.2
			c0.4,1,1,1.8,1.7,2.6C7.1,18.4,8,19,8.9,19.4C9.9,19.8,10.9,20,12,20L12,20z M12,18.5c-0.9,0-1.7-0.2-2.5-0.5
			c-0.8-0.3-1.5-0.8-2.1-1.4C6.8,16,6.4,15.3,6,14.5C4.6,11.2,6.2,7.4,9.5,6c1.6-0.7,3.4-0.7,5.1,0c1.6,0.7,2.8,1.9,3.5,3.5
			c0.3,0.8,0.5,1.7,0.5,2.5c0,0.9-0.2,1.7-0.5,2.5c-0.3,0.8-0.8,1.5-1.4,2.1C15.4,17.8,13.7,18.5,12,18.5L12,18.5L12,18.5z"/>
		<path class="st1" d="M8.2,9.1c-0.1,0.4-0.1,0.8-0.1,1.1c0,0.8,0.2,1.6,0.5,2.3c0.3,0.6,0.8,1.2,1.4,1.5c0.6,0.4,1.4,0.6,2.1,0.5
			c0.5,0,0.9-0.1,1.3-0.3c0.3-0.1,0.6-0.3,0.8-0.5c0.1-0.1,0.2-0.3,0.3-0.4l-0.5,0c0.2,0.2,0.4,0.5,0.5,0.8c0.1,0.3,0.3,0.6,0.4,0.9
			c0,0.1,0.1,0.2,0.3,0.2c0.1,0,0.3-0.1,0.3-0.1c0.1-0.1,0.2-0.2,0.1-0.4c0-0.2-0.1-0.4-0.2-0.6c-0.1-0.2-0.3-0.4-0.5-0.6
			c-0.1-0.2-0.3-0.3-0.4-0.5c-0.4-0.3-0.8-0.6-1.3-0.7c-0.4-0.1-0.9-0.2-1.3-0.3c-0.4-0.1-0.8-0.2-1.1-0.3c-0.3-0.2-0.6-0.5-0.7-0.8
			c0,0,0-0.1,0-0.1c0,0,0.1,0,0.2,0c0.3,0.3,0.6,0.4,1,0.5c0.3,0.1,0.7,0.1,1.1,0.2c0.4,0,0.7,0.1,1.1,0.2c0.4,0.1,0.8,0.4,1.1,0.7
			c0.1,0.1,0.1,0.1,0.2,0.1c0.1,0,0.1-0.1,0.1-0.1c0-0.1,0-0.1,0-0.2c0-0.1,0-0.1,0-0.2c0-0.9-0.3-1.5-0.8-1.9
			c-0.6-0.4-1.3-0.7-2.1-0.6c-0.3,0-0.6,0-0.9,0.1c-0.3,0.1-0.6,0.1-0.9,0.1c-0.3,0-0.5,0-0.8-0.1C9.1,9.4,8.9,9.2,8.6,9
			C8.6,8.9,8.5,8.9,8.4,8.9C8.3,8.9,8.2,9,8.2,9.1z"/>
	</g>
</g>
</svg>
