<svg width="24" height="24" fill="none" xmlns="http://www.w3.org/2000/svg"><rect x="4.5" y="4.5" width="15" height="15" rx="7.5" fill="#F9A8D4" stroke="#BE185D"/><path d="M9.714 9.715c0-.455.21-.891.586-1.213A2.182 2.182 0 0 1 11.715 8h.572c.53 0 1.04.18 1.415.502s.586.758.586 1.213a1.716 1.716 0 0 1-1.144 1.715c-.35.165-.652.477-.858.89a2.881 2.881 0 0 0-.285 1.397m0 2.287v.006" stroke="#BE185D" stroke-width="1.5" stroke-linecap="round" stroke-linejoin="round"/><path d="M5.725 8.376a1 1 0 0 1 0-1.414l1.237-1.238A1 1 0 1 1 8.376 7.14L7.14 8.376a1 1 0 0 1-1.414 0zm0 7.248a1 1 0 0 1 1.414 0l1.237 1.237a1 1 0 1 1-1.414 1.415l-1.237-1.238a1 1 0 0 1 0-1.414zm9.9-9.9a1 1 0 0 1 1.413 0l1.238 1.238a1 1 0 0 1-1.414 1.414L15.624 7.14a1 1 0 0 1 0-1.415zm0 12.552a1 1 0 0 1 0-1.415l1.237-1.237a1 1 0 0 1 1.414 1.414l-1.238 1.238a1 1 0 0 1-1.414 0z" fill="#BE185D"/><rect x="3.5" y="3.5" width="17" height="17" rx="8.5" stroke="#fff"/><rect x="4.5" y="4.5" width="15" height="15" rx="7.5" stroke="#BE185D"/></svg>