<svg fill="none" height="24" width="24" xmlns="http://www.w3.org/2000/svg" xmlns:xlink="http://www.w3.org/1999/xlink"><clipPath id="a"><path d="m0 0h15.943v16h-15.943z" transform="translate(4 4)"/></clipPath><g clip-path="url(#a)"><path d="m11.97 15.817a3.641 3.641 0 0 0 1.904-.52 3.981 3.981 0 0 0 1.385-1.385 3.785 3.785 0 0 0 0-3.832 3.98 3.98 0 0 0 -1.385-1.385 3.767 3.767 0 0 0 -3.817 0c-.57.339-1.045.815-1.384 1.385a3.785 3.785 0 0 0 0 3.832c.339.57.814 1.046 1.384 1.386.578.346 1.24.525 1.914.519zm0-1.272a2.423 2.423 0 0 1 -1.277-.347 2.663 2.663 0 0 1 -.922-.926 2.52 2.52 0 0 1 0-2.544c.226-.381.542-.7.922-.928a2.44 2.44 0 0 1 1.278-.347c.446-.003.884.117 1.267.347.38.227.697.546.921.928a2.506 2.506 0 0 1 0 2.544c-.224.381-.541.7-.921.926-.383.229-.821.347-1.267.34v.007zm.731-9.815a.705.705 0 0 0 -.216-.51.711.711 0 0 0 -1.03 0 .701.701 0 0 0 -.214.51v1.506a.743.743 0 0 0 .73.73.697.697 0 0 0 .514-.22.71.71 0 0 0 .216-.51zm2.815 2.694a.695.695 0 0 0 -.205.51.727.727 0 0 0 .205.52c.139.134.325.21.52.21a.688.688 0 0 0 .518-.21l1.068-1.068a.724.724 0 0 0 .205-.523.698.698 0 0 0 -.725-.72.694.694 0 0 0 -.51.204zm3.696 5.304a.704.704 0 0 0 .51-.214.71.71 0 0 0 0-1.03.702.702 0 0 0 -.51-.214h-1.496a.73.73 0 0 0 0 1.458zm-2.667 2.826a.686.686 0 0 0 -.51-.205.703.703 0 0 0 -.724.725.695.695 0 0 0 .205.51l1.077 1.076a.682.682 0 0 0 .51.201c.193 0 .38-.076.519-.21a.69.69 0 0 0 .205-.51.72.72 0 0 0 -.205-.52zm-3.845 2.208a.711.711 0 0 0 -.216-.51.713.713 0 0 0 -1.03 0 .71.71 0 0 0 -.214.51v1.508a.71.71 0 0 0 .215.51.716.716 0 0 0 1.029 0 .712.712 0 0 0 .216-.51zm-6.38-1.15a.707.707 0 0 0 -.217.52.69.69 0 0 0 .207.51.712.712 0 0 0 .513.21.694.694 0 0 0 .516-.192l1.065-1.067a.674.674 0 0 0 .216-.51.723.723 0 0 0 -.206-.519.747.747 0 0 0 -1.03 0zm-1.593-5.342a.73.73 0 0 0 0 1.458h1.489a.73.73 0 0 0 0-1.458h-1.49zm2.658-2.817a.726.726 0 0 0 1.235-.515.696.696 0 0 0 -.206-.514l-1.065-1.077a.676.676 0 0 0 -.506-.205.707.707 0 0 0 -.726.72c0 .192.076.377.21.514l1.059 1.077z" fill="#000"/></g></svg>