<svg width="24" height="24" fill="none" xmlns="http://www.w3.org/2000/svg"><path d="M19 8.7l-5.3-4.1c-1-.7-2.3-.7-3.3 0L5.1 8.7C4.4 9.2 4 10 4 10.8V18c0 1.1.9 2 2 2h12c1.1 0 2-.9 2-2v-7.2c0-.8-.4-1.6-1-2.1z" fill="#EA580C" stroke="#7C2D12" stroke-width="2" stroke-linecap="round" stroke-linejoin="round"/><mask id="a" maskUnits="userSpaceOnUse" x="9" y="11" width="6" height="9" fill="#000"><path fill="#fff" d="M9 11h6v9H9z"/><path d="M10 19v-6s0-1 1-1h2c1 0 1 1 1 1v6"/></mask><path d="M10 19v-6s0-1 1-1h2c1 0 1 1 1 1v6" fill="#FDE047"/><path d="M9 19v1h2v-1H9zm4-7v1-1zm0 7v1h2v-1h-2zm-3 0h1V13H9v6h1zm0-6l1 .001v.027l.002-.02a.243.243 0 0 1 .017-.06c.004-.007-.007.017-.042.04-.042.028-.052.012.023.012v-2c-.425 0-.81.11-1.133.324a1.87 1.87 0 0 0-.636.729 2.228 2.228 0 0 0-.231.943v.003L10 13zm1 0h2v-2h-2v2zm2 0c.075 0 .065.016.023-.012-.035-.023-.046-.047-.042-.04.005.01.012.032.017.06l.003.02v-.015L13 13.007V13h1l1-.001V12.981a1.457 1.457 0 0 0-.005-.095 2.23 2.23 0 0 0-.226-.833 1.877 1.877 0 0 0-.636-.729A2.013 2.013 0 0 0 13 11v2zm0 0v6h2v-6h-2z" fill="#7C2D12" mask="url(#a)"/><path d="M19.32 8.316a.565.565 0 0 0-.014-.011l-5.3-4.1a3.355 3.355 0 0 0-3.912 0L4.801 8.299A3.108 3.108 0 0 0 3.5 10.8V18c0 1.376 1.124 2.5 2.5 2.5h12c1.376 0 2.5-1.124 2.5-2.5v-7.2c0-.957-.473-1.895-1.18-2.484z" stroke="#fff" stroke-linecap="round" stroke-linejoin="round"/></svg>