<svg fill="none" height="24" width="24" xmlns="http://www.w3.org/2000/svg" xmlns:xlink="http://www.w3.org/1999/xlink"><radialGradient id="a" cx="0" cy="0" gradientTransform="matrix(7.03495 0 0 7.01009 12 11.976)" gradientUnits="userSpaceOnUse" r="1"><stop offset=".573" stop-color="#b00"/><stop offset="1" stop-color="#d91330"/></radialGradient><circle cx="12" cy="12" r="8.5" stroke="#fff"/><path d="m6.683 6.674c-2.91 2.9-2.91 7.7-.003 10.6 2.91 2.968 7.73 2.968 10.64 0 2.907-2.9 2.907-7.7-.003-10.6-2.909-2.899-7.725-2.899-10.634 0zm2.36 2.291a4.226 4.226 0 0 1 5.977-.003c1.604 1.662 1.651 4.315.003 5.957a4.226 4.226 0 0 1 -5.98 0 4.186 4.186 0 0 1 0-5.954z" fill="url(#a)" stroke="#800" stroke-miterlimit="10"/><path d="m12.5 8 .5-4h-2l.5 4zm-1 8-.5 4h2l-.5-4zm-3.5-4.5-4-.5v2l4-.5zm8 1 4 .5v-2l-4 .5z" fill="#fff" stroke="#fff" stroke-linejoin="round"/></svg>