<svg fill="none" height="24" width="24" xmlns="http://www.w3.org/2000/svg" xmlns:xlink="http://www.w3.org/1999/xlink"><clipPath id="a"><path d="m0 0h15.943v16h-15.943z" transform="translate(4 4)"/></clipPath><g clip-path="url(#a)"><path d="m11.932 8.19a3.662 3.662 0 0 0 -1.916.52c-.57.34-1.045.815-1.384 1.385a3.784 3.784 0 0 0 0 3.833c.339.57.814 1.046 1.384 1.385a3.767 3.767 0 0 0 3.817 0 3.98 3.98 0 0 0 1.385-1.385 3.784 3.784 0 0 0 0-3.833 3.98 3.98 0 0 0 -1.385-1.385 3.64 3.64 0 0 0 -1.901-.52zm3.545-.766a.696.696 0 0 0 -.205.51.73.73 0 0 0 .205.52c.139.134.325.21.52.21a.687.687 0 0 0 .518-.21l1.068-1.068a.722.722 0 0 0 .205-.523.698.698 0 0 0 -.724-.72.694.694 0 0 0 -.51.204zm1.029 8.13a.686.686 0 0 0 -.51-.205.701.701 0 0 0 -.724.725.695.695 0 0 0 .205.51l1.077 1.076a.68.68 0 0 0 .51.201c.193 0 .38-.076.519-.21a.69.69 0 0 0 .205-.51.72.72 0 0 0 -.205-.52zm-3.844-10.824a.705.705 0 0 0 -.217-.51.71.71 0 0 0 -1.029 0 .704.704 0 0 0 -.214.51v1.506a.744.744 0 0 0 .73.73.698.698 0 0 0 .513-.22.71.71 0 0 0 .217-.51zm0 13.03a.71.71 0 0 0 -.217-.51.714.714 0 0 0 -1.029 0 .71.71 0 0 0 -.214.51v1.508a.708.708 0 0 0 .214.51.716.716 0 0 0 1.03 0 .711.711 0 0 0 .216-.51zm6.515-5.034a.703.703 0 0 0 .51-.214.712.712 0 0 0 0-1.03.704.704 0 0 0 -.51-.214h-1.497a.73.73 0 0 0 0 1.458zm-11.827-4.275a.726.726 0 0 0 1.236-.515.696.696 0 0 0 -.207-.514l-1.065-1.077a.677.677 0 0 0 -.506-.205.707.707 0 0 0 -.726.72c0 .192.076.377.21.514zm-2.657 2.817a.73.73 0 0 0 0 1.458h1.489a.73.73 0 0 0 0-1.458h-1.49zm1.592 5.342a.707.707 0 0 0 -.217.52.69.69 0 0 0 .207.51.71.71 0 0 0 .514.21.694.694 0 0 0 .515-.192l1.066-1.067a.675.675 0 0 0 .216-.51.723.723 0 0 0 -.207-.519.747.747 0 0 0 -1.029 0z" fill="#fc0"/></g></svg>