<?xml version="1.0" encoding="utf-8"?>
<!-- Generator: Adobe Illustrator 27.6.1, SVG Export Plug-In . SVG Version: 6.00 Build 0)  -->
<svg version="1.1" id="Layer_1" xmlns="http://www.w3.org/2000/svg" xmlns:xlink="http://www.w3.org/1999/xlink" x="0px" y="0px"
	 viewBox="0 0 24 24" style="enable-background:new 0 0 24 24;" xml:space="preserve">
<style type="text/css">
	.st0{fill:#ECFCCB;}
	.st1{fill:none;stroke:#FFFFFF;stroke-width:2;stroke-linecap:round;stroke-linejoin:round;}
	.st2{fill:#4D7C0F;}
</style>
<path class="st0" d="M19.4,12.2l-7.6-7.6C11.4,4.2,11,4,10.5,4H6.8C5.3,4,4,5.3,4,6.8v3.6c0,0.5,0.2,1,0.6,1.3l7.6,7.6
	c0.7,0.7,2,0.7,2.7,0l4.5-4.5C20.2,14.1,20.2,12.9,19.4,12.2z M9.6,9.6c-0.3,0.3-0.8,0.6-1.3,0.6S7.3,10,7,9.6
	C6.5,9.2,6.4,8.7,6.4,8.2c0-1,0.8-1.9,1.9-1.9c0.5,0,1,0.2,1.3,0.6c0.4,0.4,0.6,0.8,0.6,1.3C10.1,8.8,9.9,9.2,9.6,9.6z"/>
<path class="st1" d="M4,6.8v3.6c0,0.5,0.2,1,0.6,1.3l7.6,7.6c0.7,0.7,2,0.7,2.7,0l4.5-4.5c0.7-0.7,0.7-2,0-2.7l-7.6-7.6
	C11.4,4.2,11,4,10.5,4H6.8C5.3,4,4,5.3,4,6.8z"/>
<path class="st2" d="M10.5,5c0.2,0,0.5,0.1,0.6,0.3l7.6,7.6c0.4,0.4,0.4,0.9,0,1.3l-4.5,4.5C14,18.9,13.8,19,13.5,19
	c-0.2,0-0.5-0.1-0.6-0.3l-7.6-7.6C5.1,10.9,5,10.7,5,10.5V6.8C5,5.8,5.8,5,6.8,5H10.5z M10.5,4H6.8C5.3,4,4,5.3,4,6.8v3.6
	c0,0.5,0.2,1,0.6,1.3l7.6,7.6c0.4,0.4,0.9,0.6,1.3,0.6s1-0.2,1.3-0.6l4.5-4.5c0.7-0.7,0.7-2,0-2.7l-7.6-7.6C11.4,4.2,11,4,10.5,4z"
	/>
<path class="st2" d="M15.3,15.1l-0.6-0.6c0.5-0.6,0.4-1.3-0.1-1.8c-0.5-0.5-1-0.5-1.8-0.1c-0.7,0.3-1,0.3-1.3,0.1
	c-0.2-0.2-0.3-0.6,0.1-1c0.3-0.3,0.7-0.4,0.9-0.5l-0.2-0.5c-0.3,0.1-0.6,0.3-0.9,0.5L11,10.6L10.6,11l0.5,0.5
	c-0.4,0.6-0.4,1.2,0.1,1.7c0.5,0.5,1,0.4,1.8,0c0.6-0.2,0.9-0.3,1.2,0c0.3,0.3,0.3,0.8-0.1,1.2c-0.3,0.3-0.7,0.5-1,0.5l0.2,0.5
	c0.3-0.1,0.7-0.3,1-0.6l0.5,0.5L15.3,15.1L15.3,15.1z"/>
</svg>
