<svg width="24" height="24" fill="none" xmlns="http://www.w3.org/2000/svg"><g clip-path="url(#clip0_6994_41589)" fill="#28CD41"><path d="M12 20a7.714 7.714 0 0 0 3.091-.625 8.062 8.062 0 0 0 2.554-1.734 8.254 8.254 0 0 0 1.734-2.558 7.865 7.865 0 0 0 0-6.166 8.237 8.237 0 0 0-4.298-4.292 7.938 7.938 0 0 0-6.176 0 8.025 8.025 0 0 0-2.554 1.742 8.277 8.277 0 0 0-1.73 2.558 7.865 7.865 0 0 0 0 6.166 8.26 8.26 0 0 0 1.734 2.558 8.075 8.075 0 0 0 2.552 1.734c.977.416 2.03.626 3.092.617zm0-1.506a6.348 6.348 0 0 1-2.524-.502 6.43 6.43 0 0 1-2.06-1.393 6.528 6.528 0 0 1-1.39-2.07 6.496 6.496 0 0 1 8.497-8.527 6.531 6.531 0 0 1 3.463 3.463c.34.8.512 1.661.506 2.53a6.426 6.426 0 0 1-.5 2.528 6.563 6.563 0 0 1-1.388 2.07 6.426 6.426 0 0 1-4.605 1.894v.007z"/><path d="M10.166 13.794c.438.446.913.854 1.421 1.218.453.328.948.593 1.472.787.438.173.91.242 1.379.204.44-.051.848-.255 1.153-.577.03-.028.058-.058.085-.09.022-.026.049-.054.075-.089.156-.178.25-.403.266-.64A.677.677 0 0 0 15.69 14c-.138-.1-.278-.203-.42-.297-.142-.093-.29-.203-.44-.312-.15-.11-.311-.22-.478-.333a.843.843 0 0 0-.609-.203.998.998 0 0 0-.49.296l-.297.299a.204.204 0 0 1-.169.058.492.492 0 0 1-.179-.048 4.7 4.7 0 0 1-.515-.388 16.17 16.17 0 0 1-.626-.564c-.219-.205-.393-.423-.57-.636a5.646 5.646 0 0 1-.382-.505.381.381 0 0 1-.052-.159.202.202 0 0 1 .063-.178l.298-.307a1.09 1.09 0 0 0 .306-.505.791.791 0 0 0-.217-.595l-.932-1.328a.715.715 0 0 0-.361-.292.745.745 0 0 0-.447 0c-.188.06-.365.154-.52.278a.528.528 0 0 1-.054.048 1.947 1.947 0 0 0-.625 1.204c-.042.471.028.946.203 1.385a6.43 6.43 0 0 0 .787 1.472c.36.502.762.972 1.202 1.405z"/></g><defs><clipPath id="clip0_6994_41589"><path fill="#fff" transform="translate(4 4)" d="M0 0h16.01v16H0z"/></clipPath></defs></svg>