<?xml version="1.0" encoding="utf-8"?>
<!-- Generator: Adobe Illustrator 27.6.1, SVG Export Plug-In . SVG Version: 6.00 Build 0)  -->
<svg version="1.1" id="Layer_1" xmlns="http://www.w3.org/2000/svg" xmlns:xlink="http://www.w3.org/1999/xlink" x="0px" y="0px"
	 viewBox="0 0 24 24" style="enable-background:new 0 0 24 24;" xml:space="preserve">
<style type="text/css">
	.st0{clip-path:url(#SVGID_00000088130767317873443700000004035546906197987221_);}
	.st1{fill:#4D4D4D;}
	.st2{fill:#212121;}
</style>
<g>
	<defs>
		<rect id="SVGID_1_" x="4" y="4" width="16" height="16"/>
	</defs>
	<clipPath id="SVGID_00000140703336387051512250000018128545077346111904_">
		<use xlink:href="#SVGID_1_"  style="overflow:visible;"/>
	</clipPath>
	<g style="clip-path:url(#SVGID_00000140703336387051512250000018128545077346111904_);">
		<path class="st1" d="M4,8.6h1.6V6.8c-0.1-0.6,0.4-1.2,1-1.3c0.1,0,0.2,0,0.3,0h1.7V4H6.8C5.9,4,5.2,4.2,4.7,4.7
			C4.2,5.2,4,5.8,4,6.8L4,8.6L4,8.6z M6.8,20h1.7v-1.6H6.8c-0.6,0.1-1.2-0.4-1.2-1c0-0.1,0-0.2,0-0.3v-1.7H4v1.8
			c0,0.9,0.2,1.6,0.7,2.1C5.2,19.8,5.9,20,6.8,20L6.8,20z M18.4,8.6H20V6.8c0-0.9-0.2-1.6-0.7-2.1C18.8,4.2,18.1,4,17.2,4h-1.7v1.6
			h1.7c0.6-0.1,1.2,0.4,1.2,1c0,0.1,0,0.2,0,0.3L18.4,8.6L18.4,8.6z M15.5,20h1.7c0.9,0,1.6-0.2,2.1-0.7s0.7-1.2,0.7-2.1v-1.8h-1.6
			v1.7c0,0.3-0.1,0.7-0.3,0.9c-0.3,0.2-0.6,0.3-0.9,0.3h-1.7L15.5,20z M9.8,5.6h4.4V4H9.8V5.6z M9.8,20h4.4v-1.6H9.8V20L9.8,20z
			 M4,14.2h1.6V9.8H4L4,14.2L4,14.2z M18.4,14.2H20V9.8h-1.6V14.2L18.4,14.2z"/>
		<path class="st2" d="M8,12c0,0.2,0.1,0.4,0.2,0.6c0.2,0.2,0.4,0.2,0.6,0.2h2.4v2.4c0,0.2,0.1,0.4,0.2,0.6c0.2,0.2,0.4,0.2,0.6,0.2
			c0.4,0,0.8-0.3,0.8-0.8c0,0,0,0,0-0.1v-2.4h2.4c0.2,0,0.4-0.1,0.6-0.2c0.2-0.2,0.2-0.4,0.2-0.6c0-0.4-0.3-0.8-0.7-0.8
			c0,0-0.1,0-0.1,0h-2.4V8.8c0-0.2-0.1-0.4-0.2-0.6C12.4,8,12.2,7.9,12,8c-0.2,0-0.4,0.1-0.6,0.2c-0.2,0.2-0.2,0.4-0.2,0.6v2.4H8.8
			c-0.2,0-0.4,0.1-0.6,0.2C8,11.5,7.9,11.8,8,12L8,12z"/>
	</g>
</g>
</svg>
