<?xml version="1.0" encoding="utf-8"?>
<!-- Generator: Adobe Illustrator 27.6.1, SVG Export Plug-In . SVG Version: 6.00 Build 0)  -->
<svg version="1.1" id="Layer_1" xmlns="http://www.w3.org/2000/svg" xmlns:xlink="http://www.w3.org/1999/xlink" x="0px" y="0px"
	 viewBox="0 0 24 24" style="enable-background:new 0 0 24 24;" xml:space="preserve">
<style type="text/css">
	.st0{clip-path:url(#SVGID_00000019651458568976528740000000800939535563136439_);}
</style>
<g>
	<defs>
		<rect id="SVGID_1_" x="3" y="4" width="17" height="16"/>
	</defs>
	<clipPath id="SVGID_00000168812653329190842180000002610137264106393753_">
		<use xlink:href="#SVGID_1_"  style="overflow:visible;"/>
	</clipPath>
	<g style="clip-path:url(#SVGID_00000168812653329190842180000002610137264106393753_);">
		<path d="M3,11.9c0,1,0.3,1.8,0.8,2.3C4.4,14.8,5.2,15,6.3,15h2.5c0.9,0.1,1.7,0.3,2.6,0.5c0.9,0.2,1.7,0.5,2.6,0.9
			c0.9,0.4,1.7,0.8,2.5,1.2v-1.4c-1.6-0.9-3.3-1.6-5-2c-0.9-0.2-1.8-0.4-2.7-0.5H6.3c-0.7,0-1.2-0.1-1.5-0.4
			c-0.3-0.3-0.5-0.8-0.5-1.4v-1c0-0.7,0.2-1.1,0.5-1.4C5.1,9.2,5.6,9,6.3,9h2.4c0.9-0.1,1.9-0.3,2.8-0.5c1.8-0.4,3.5-1.1,5-2V5.1
			C15.7,5.6,14.8,6,14,6.4c-0.9,0.3-1.7,0.6-2.6,0.9c-0.8,0.2-1.6,0.4-2.5,0.5H6.3C5.2,7.7,4.4,8,3.8,8.5C3.3,9.1,3,9.8,3,10.9
			L3,11.9z M10.1,15H8.8l0.6,3.1c0,0.2,0,0.3-0.1,0.5c-0.1,0.1-0.2,0.2-0.4,0.2c-0.1,0-0.3,0-0.4-0.1c-0.1-0.1-0.2-0.2-0.2-0.4
			l-1.6-3.4H5.5l1.7,3.8c0.2,0.4,0.4,0.7,0.8,1C8.2,19.9,8.6,20,9,20c0.3,0,0.7-0.1,1-0.2c0.3-0.2,0.5-0.4,0.6-0.7
			c0.1-0.4,0.2-0.7,0.1-1.1L10.1,15L10.1,15z M7.7,8.4v6H9v-6H7.7z M16.1,16.7c0,0.4,0.1,0.7,0.2,1c0.2,0.3,0.4,0.5,0.7,0.7
			c0.3,0.2,0.7,0.3,1,0.2c0.4,0,0.7-0.1,1-0.2c0.3-0.2,0.5-0.4,0.7-0.7c0.2-0.3,0.3-0.7,0.2-1V6c0-0.4-0.1-0.7-0.2-1
			c-0.2-0.3-0.4-0.5-0.7-0.7c-0.3-0.2-0.7-0.2-1-0.2c-0.4,0-0.7,0.1-1,0.2c-0.3,0.2-0.5,0.4-0.7,0.7c-0.2,0.3-0.3,0.7-0.2,1V16.7z
			 M17.4,16.7V6c0-0.3,0.2-0.6,0.6-0.7c0,0,0,0,0.1,0c0.2,0,0.3,0.1,0.5,0.2c0.1,0.1,0.2,0.3,0.2,0.5v10.8c0,0.2-0.1,0.3-0.2,0.5
			c-0.1,0.1-0.3,0.2-0.5,0.2C17.7,17.4,17.4,17.2,17.4,16.7C17.4,16.8,17.4,16.8,17.4,16.7L17.4,16.7z"/>
	</g>
</g>
</svg>
