<svg fill="none" height="24" width="24" xmlns="http://www.w3.org/2000/svg"><path d="m9.942 19.238h4.149l-.091-2.583h-3.97l-.089 2.583zm.188-5.494-.057 1.603h3.886l-.056-1.603h-3.774zm.651-2.902-.604 1.594h3.68l-.6-1.594h-2.477z" fill="#fff"/><path d="m13.678 7.181h-3.323l-.08 1.13v1.189h3.483v-1.19l-.08-1.13z" fill="#ff3"/><path d="m12.3 8.808h-.563v.698h.563zm-1.486 0h-.562v.698h.563v-.698zm2.967 0h-.562v.698h.562zm-3.534 1.415h3.544l-.535.619h-2.475z" fill="#800"/><path d="m13.856 12.436h-3.68l-.046 1.308h3.773zm-3.825 4.219h3.97l-.042-1.308h-3.886zm-.089 2.582h4.149l-.033-.98h-4.083zm3.633-12.346-1.312-1.481a.368.368 0 0 0 -.244-.647.368.368 0 0 0 -.248.642l-1.346 1.481h-.483v.295h4.12v-.295zm.745 1.41h-4.64v.507h4.64v-.506zm0 1.201h-4.64v.722h4.64z" fill="#a00"/></svg>