<svg width="24" height="24" fill="none" xmlns="http://www.w3.org/2000/svg"><g clip-path="url(#clip0_6994_41634)" fill="#38BDF8"><path d="M12 20a7.714 7.714 0 0 0 3.091-.625 8.062 8.062 0 0 0 2.554-1.734 8.254 8.254 0 0 0 1.734-2.558 7.865 7.865 0 0 0 0-6.166 8.237 8.237 0 0 0-4.298-4.292 7.938 7.938 0 0 0-6.176 0 8.025 8.025 0 0 0-2.554 1.742 8.277 8.277 0 0 0-1.73 2.558 7.865 7.865 0 0 0 0 6.166 8.26 8.26 0 0 0 1.734 2.558 8.075 8.075 0 0 0 2.552 1.734c.977.416 2.03.626 3.092.617zm0-1.506a6.348 6.348 0 0 1-2.524-.502 6.43 6.43 0 0 1-2.06-1.393 6.528 6.528 0 0 1-1.39-2.07 6.496 6.496 0 0 1 8.497-8.527 6.531 6.531 0 0 1 3.463 3.463c.34.8.512 1.661.506 2.53a6.426 6.426 0 0 1-.5 2.528 6.563 6.563 0 0 1-1.388 2.07 6.426 6.426 0 0 1-4.605 1.894v.007z"/><path d="M8.33 15.044a.94.94 0 0 0 .258.698.994.994 0 0 0 .725.252h5.372a.993.993 0 0 0 .725-.252.94.94 0 0 0 .258-.698V11.95l-3.43-2.875a.36.36 0 0 0-.495 0l-3.42 2.875.008 3.094zm4.74.09h-2.13v-2.6a.288.288 0 0 1 .326-.326h1.476a.288.288 0 0 1 .327.327v2.598zm-6.091-3.718a.394.394 0 0 0 .11.262.385.385 0 0 0 .306.124.333.333 0 0 0 .178-.049 1.35 1.35 0 0 0 .159-.12l4.115-3.45a.215.215 0 0 1 .296 0l4.116 3.45c.05.045.105.085.162.12a.42.42 0 0 0 .471-.055.341.341 0 0 0 .12-.264.441.441 0 0 0-.14-.337l-4.33-3.628a.782.782 0 0 0-1.083 0l-4.33 3.628a.427.427 0 0 0-.146.32h-.004zm7.554-2.004l1.13.963V8.46a.29.29 0 0 0-.326-.327h-.477a.29.29 0 0 0-.327.327v.952z"/></g><defs><clipPath id="clip0_6994_41634"><path fill="#fff" transform="translate(4 4)" d="M0 0h16.01v16H0z"/></clipPath></defs></svg>