<?xml version="1.0" encoding="utf-8"?>
<!-- Generator: Adobe Illustrator 27.6.1, SVG Export Plug-In . SVG Version: 6.00 Build 0)  -->
<svg version="1.1" id="Layer_1" xmlns="http://www.w3.org/2000/svg" xmlns:xlink="http://www.w3.org/1999/xlink" x="0px" y="0px"
	 viewBox="0 0 24 24" style="enable-background:new 0 0 24 24;" xml:space="preserve">
<style type="text/css">
	.st0{clip-path:url(#SVGID_00000145779802419250687410000005954514755697940925_);}
	.st1{fill:#28CD41;}
</style>
<g>
	<defs>
		<rect id="SVGID_1_" x="3" y="4" width="18.2" height="16"/>
	</defs>
	<clipPath id="SVGID_00000099642725100534763020000015134182163664454811_">
		<use xlink:href="#SVGID_1_"  style="overflow:visible;"/>
	</clipPath>
	<g style="clip-path:url(#SVGID_00000099642725100534763020000015134182163664454811_);">
		<path class="st1" d="M3,7.6c0,1.5,0.2,2.9,0.7,4.3c0.4,1.2,1.1,2.4,2,3.4c0.9,0.9,1.9,1.7,3.1,2.2c1.3,0.5,2.6,0.8,4,0.8
			c1.3,0,2.5-0.3,3.7-0.8c1-0.5,1.9-1.3,2.5-2.3c0.6-1,0.9-2.2,0.9-3.3c0-1.1-0.3-2.3-0.9-3.2c-0.6-1-1.5-1.7-2.5-2.2
			c-1.1-0.6-2.4-0.8-3.6-0.8c-0.7,0-1.4,0.1-2.1,0.2C9.9,5.8,9.2,5.9,8.4,5.9c-0.6,0-1.2-0.1-1.8-0.3C6.1,5.3,5.5,4.9,5.1,4.4
			C5,4.2,4.7,4.1,4.5,4C4.2,4,4,4,3.7,4.1C3.5,4.3,3.3,4.5,3.3,4.8c-0.1,0.3-0.1,0.6-0.2,1C3.1,6.2,3,6.5,3,6.9C3,7.2,3,7.4,3,7.6z
			 M4.5,7.6V6.8c0-0.2,0-0.5,0.1-0.7C4.5,6,4.6,6,4.6,6C5.1,6.5,5.7,6.8,6.4,7C7,7.2,7.7,7.3,8.4,7.3c0.4,0,0.9,0,1.3-0.1
			c0.4,0,0.8-0.1,1.2-0.1l1-0.1c0.3,0,0.6-0.1,0.9-0.1c1,0,2,0.2,2.9,0.6c0.8,0.4,1.5,1,2,1.7c0.5,0.7,0.7,1.6,0.7,2.5
			c0,0.9-0.2,1.8-0.7,2.6c-0.5,0.8-1.2,1.4-2,1.8c-0.9,0.4-1.9,0.7-2.9,0.6c-1.5,0-3.1-0.4-4.4-1.1c-1.3-0.8-2.3-1.9-2.9-3.2
			C4.8,11.1,4.5,9.5,4.5,7.6L4.5,7.6z M8,9.6c0.2,0.6,0.5,1,0.9,1.4c0.4,0.4,0.9,0.7,1.5,0.9c0.6,0.2,1.1,0.4,1.7,0.5
			c0.8,0.2,1.4,0.4,2,0.5c0.5,0.1,1,0.3,1.5,0.5c0.4,0.2,0.8,0.4,1.1,0.7c0.3,0.3,0.6,0.6,0.9,0.9c0.5,0.6,0.9,1.3,1.1,2
			c0.2,0.8,0.4,1.5,0.7,2.4c0,0.2,0.1,0.3,0.3,0.4c0.1,0.1,0.3,0.1,0.4,0.1c0.3,0,0.6-0.1,0.8-0.4c0.2-0.3,0.4-0.6,0.3-0.9
			c0-0.5-0.2-1-0.4-1.4c-0.3-0.6-0.6-1.1-0.9-1.6c-0.3-0.5-0.6-1-1-1.5c-0.6-0.8-1.4-1.5-2.4-1.9c-1.3-0.5-2.6-0.9-4-1.1
			c-0.7-0.1-1.5-0.3-2.1-0.6c-0.7-0.3-1.3-0.8-1.8-1.4C8.6,9.2,8.5,9.1,8.3,9.1c-0.1,0-0.2,0.1-0.3,0.2C8,9.3,8,9.5,8,9.6L8,9.6
			L8,9.6z"/>
	</g>
</g>
</svg>
