<?xml version="1.0" encoding="utf-8"?>
<!-- Generator: Adobe Illustrator 27.6.1, SVG Export Plug-In . SVG Version: 6.00 Build 0)  -->
<svg version="1.1" id="Layer_1" xmlns="http://www.w3.org/2000/svg" xmlns:xlink="http://www.w3.org/1999/xlink" x="0px" y="0px"
	 viewBox="0 0 24 24" style="enable-background:new 0 0 24 24;" xml:space="preserve">
<style type="text/css">
	.st0{fill-rule:evenodd;clip-rule:evenodd;fill:#D97706;}
	.st1{fill-rule:evenodd;clip-rule:evenodd;fill:#DC2626;}
	.st2{fill-rule:evenodd;clip-rule:evenodd;fill:#FACC15;}
	.st3{fill-rule:evenodd;clip-rule:evenodd;fill:#F5F5F5;}
	.st4{fill:#22D3EE;}
	.st5{fill:#FACC15;}
	.st6{fill:#DC2626;}
</style>
<g>
	<path class="st0" d="M12.2,15.4c0.3,0,0.5,0.2,0.5,0.5v3.6c0,0.3-0.2,0.5-0.5,0.5s-0.5-0.2-0.5-0.5v-3.6
		C11.7,15.6,12,15.4,12.2,15.4z"/>
	<path class="st1" d="M15.9,10.8c0.1,0.3,0,0.5-0.3,0.7c0,0,0,0,0,0L15,11.8l-5.5,2.4l-0.3,0.1c-0.2,0.1-0.5,0-0.7-0.2
		s0-0.5,0.2-0.7c0,0,0,0,0,0l0.7-0.3l5.5-2.4l0.3-0.1C15.5,10.4,15.8,10.5,15.9,10.8z"/>
	<path class="st2" d="M15.9,7.5c0.1,0.3,0,0.5-0.3,0.7L15,8.5l-5.5,2.4L9.2,11c-0.3,0.1-0.5,0-0.7-0.3c-0.1-0.2,0-0.5,0.3-0.6
		l0.7-0.3L15,7.4l0.3-0.1C15.5,7.2,15.8,7.3,15.9,7.5C15.9,7.5,15.9,7.5,15.9,7.5z"/>
	<path class="st3" d="M9.6,5.1c1.5-1.5,3.8-1.5,5.3,0C15.6,5.8,16,6.7,16,7.7v8.1c0,0.3-0.2,0.5-0.5,0.5H9c-0.3,0-0.5-0.2-0.5-0.5
		V7.7C8.5,6.8,8.9,5.8,9.6,5.1z M12.2,5c-1.5,0-2.7,1.2-2.7,2.7v7.6H15V7.7C15,6.2,13.8,5,12.2,5L12.2,5z"/>
</g>
<path class="st4" d="M9.5,9.8L15,7.4c-0.2-1.5-1.5-2.6-3-2.4c-1.4,0.2-2.4,1.3-2.4,2.7V9.8z"/>
<path class="st5" d="M9.5,13.1l5.5-2.4V8.5l-5.5,2.4V13.1z"/>
<path class="st6" d="M15,11.8l-5.5,2.4v1.2H15L15,11.8z"/>
</svg>
