<?xml version="1.0" encoding="utf-8"?>
<!-- Generator: Adobe Illustrator 27.6.1, SVG Export Plug-In . SVG Version: 6.00 Build 0)  -->
<svg version="1.1" id="Layer_1" xmlns="http://www.w3.org/2000/svg" xmlns:xlink="http://www.w3.org/1999/xlink" x="0px" y="0px"
	 viewBox="0 0 24 24" style="enable-background:new 0 0 24 24;" xml:space="preserve">
<style type="text/css">
	.st0{fill:none;stroke:#FFFFFF;}
	.st1{fill:url(#SVGID_1_);stroke:#880000;stroke-miterlimit:10;}
	.st2{fill:#FFFFFF;stroke:#FFFFFF;stroke-linejoin:round;}
</style>
<circle class="st0" cx="12" cy="12" r="8.5"/>
<radialGradient id="SVGID_1_" cx="-350.0038" cy="269.6199" r="1" gradientTransform="matrix(7.0349 0 0 -7.0101 2474.2595 1902.0356)" gradientUnits="userSpaceOnUse">
	<stop  offset="0.573" style="stop-color:#BB0000"/>
	<stop  offset="1" style="stop-color:#D91330"/>
</radialGradient>
<path class="st1" d="M6.7,6.7c-2.9,2.9-2.9,7.7,0,10.6c2.9,3,7.7,3,10.6,0c2.9-2.9,2.9-7.7,0-10.6C14.4,3.8,9.6,3.8,6.7,6.7z M9,9
	c1.6-1.7,4.3-1.7,6,0c0,0,0,0,0,0c1.6,1.7,1.7,4.3,0,6c-1.6,1.7-4.3,1.7-6,0c0,0,0,0,0,0C7.4,13.3,7.4,10.6,9,9C9,9,9,9,9,9z"/>
<path class="st2" d="M12.5,8L13,4h-2l0.5,4H12.5z M11.5,16L11,20h2l-0.5-4H11.5z M8,11.5L4,11v2l4-0.5V11.5z M16,12.5l4,0.5v-2
	l-4,0.5V12.5z"/>
</svg>
