<svg width="24" height="24" fill="none" xmlns="http://www.w3.org/2000/svg"><g clip-path="url(#clip0_6994_41588)"><path d="M15.869 20a4.802 4.802 0 0 0 1.851-.313 3.752 3.752 0 0 0 1.358-1.01l.101-.121a3.34 3.34 0 0 0 .636-.934c.111-.245.17-.51.174-.78a1.63 1.63 0 0 0-.277-.891 3.051 3.051 0 0 0-.86-.83l-2.347-1.639a2.075 2.075 0 0 0-1.188-.395 1.516 1.516 0 0 0-1.12.487l-.629.63a.451.451 0 0 1-.258.153.321.321 0 0 1-.225-.071 7.619 7.619 0 0 1-.903-.722c-.366-.332-.687-.63-.963-.896a18.105 18.105 0 0 1-.84-.903 7.636 7.636 0 0 1-.671-.85.399.399 0 0 1-.063-.235.437.437 0 0 1 .144-.248l.645-.645a1.507 1.507 0 0 0 .487-1.112 2.082 2.082 0 0 0-.405-1.195L8.878 5.148a3.161 3.161 0 0 0-.84-.86A1.698 1.698 0 0 0 7.148 4c-.513 0-1.042.236-1.59.707-.04.034-.08.07-.117.107a1.868 1.868 0 0 1-.118.108c-.438.365-.784.83-1.01 1.354A4.813 4.813 0 0 0 4 8.12c0 1.16.343 2.424 1.03 3.79a15.775 15.775 0 0 0 3.02 4.04c.818.83 1.717 1.575 2.684 2.225a12.287 12.287 0 0 0 2.67 1.362 7.39 7.39 0 0 0 2.465.462zm0-1.394a5.64 5.64 0 0 1-2.204-.455 12.323 12.323 0 0 1-2.362-1.298 15.46 15.46 0 0 1-2.208-1.855 16.675 16.675 0 0 1-1.89-2.24c-.538-.75-.988-1.56-1.341-2.414a5.62 5.62 0 0 1-.472-2.234c0-.412.084-.82.245-1.198.157-.362.396-.682.697-.935l.088-.071.086-.071a1 1 0 0 1 .647-.267.63.63 0 0 1 .573.309l1.558 2.347a.56.56 0 0 1 .109.338.447.447 0 0 1-.16.317l-.739.738a1.308 1.308 0 0 0-.44.958c.01.343.132.673.35.938.252.328.56.693.922 1.098.36.403.68.737.953 1.003.177.185.398.395.66.63.264.235.532.476.805.722.28.24.526.445.739.615.265.212.593.33.932.34a1.305 1.305 0 0 0 .953-.44l.739-.74a.493.493 0 0 1 .323-.149c.123.001.242.04.342.11l2.339 1.557a.557.557 0 0 1 .239.25.768.768 0 0 1 .067.313 1.05 1.05 0 0 1-.266.657c-.021.027-.042.055-.068.082a2.414 2.414 0 0 1-1.003.783c-.381.16-.79.25-1.203.262h-.01z" fill="#28CD41"/></g><defs><clipPath id="clip0_6994_41588"><path fill="#fff" transform="translate(4 4)" d="M0 0h15.989v16H0z"/></clipPath></defs></svg>