<svg width="27" height="27" fill="none" xmlns="http://www.w3.org/2000/svg"><path d="M7.788 19.516c2.39 2.39 5.615 1.532 7.995.159 1.385-.8 2.274-2.237 2.955-3.536.214-.408.427-.843.63-1.256.119-.244.234-.48.344-.698.297-.591.576-1.104.868-1.523a4.2 4.2 0 0 0-5.939-5.938c-.418.291-.931.57-1.522.868-.219.11-.455.225-.698.345-.414.202-.849.415-1.256.629-1.3.681-2.737 1.57-3.536 2.955-1.373 2.38-2.232 5.604.159 7.995z" fill="#EF4444" stroke="#fff" stroke-width="2"/><path d="M8.141 19.162c2.133 2.133 5.054 1.429 7.392.08 1.25-.722 2.084-2.041 2.762-3.336.211-.403.418-.824.617-1.231.12-.246.238-.486.353-.715.307-.61.606-1.16.928-1.617a3.7 3.7 0 0 0-5.232-5.232c-.456.321-1.008.62-1.617.927-.23.115-.47.233-.715.353-.408.2-.829.406-1.232.618-1.294.678-2.614 1.511-3.335 2.762-1.35 2.338-2.053 5.259.08 7.391z" fill="#D9F99D" stroke="#3F6212"/><ellipse cx="12.425" cy="14.96" rx="3" ry="3.5" transform="rotate(45 12.425 14.96)" fill="#B45309"/></svg>