<?xml version="1.0" encoding="utf-8"?>
<!-- Generator: Adobe Illustrator 27.6.1, SVG Export Plug-In . SVG Version: 6.00 Build 0)  -->
<svg version="1.1" id="Layer_1" xmlns="http://www.w3.org/2000/svg" xmlns:xlink="http://www.w3.org/1999/xlink" x="0px" y="0px"
	 viewBox="0 0 24 24" style="enable-background:new 0 0 24 24;" xml:space="preserve">
<style type="text/css">
	.st0{clip-path:url(#SVGID_00000113343957598634001520000016594045902530603415_);}
	.st1{fill:#28CD41;}
</style>
<g>
	<defs>
		<rect id="SVGID_1_" x="4" y="4" width="16" height="16"/>
	</defs>
	<clipPath id="SVGID_00000170979627754001424270000003744822880334282892_">
		<use xlink:href="#SVGID_1_"  style="overflow:visible;"/>
	</clipPath>
	<g style="clip-path:url(#SVGID_00000170979627754001424270000003744822880334282892_);">
		<path class="st1" d="M15.9,20c0.6,0,1.3-0.1,1.9-0.3c0.5-0.2,1-0.6,1.4-1l0.1-0.1c0.3-0.3,0.5-0.6,0.6-0.9
			c0.1-0.2,0.2-0.5,0.2-0.8c0-0.3-0.1-0.6-0.3-0.9c-0.2-0.3-0.5-0.6-0.9-0.8l-2.3-1.6c-0.3-0.3-0.8-0.4-1.2-0.4
			c-0.4,0-0.8,0.2-1.1,0.5l-0.6,0.6c-0.1,0.1-0.2,0.1-0.3,0.2c-0.1,0-0.2,0-0.2-0.1c-0.3-0.2-0.6-0.5-0.9-0.7
			c-0.4-0.3-0.7-0.6-1-0.9c-0.3-0.3-0.6-0.6-0.8-0.9c-0.2-0.3-0.5-0.6-0.7-0.9c0-0.1-0.1-0.2-0.1-0.2c0-0.1,0.1-0.2,0.1-0.2l0.6-0.6
			c0.3-0.3,0.5-0.7,0.5-1.1c0-0.4-0.1-0.8-0.4-1.2L8.9,5.1C8.7,4.8,8.4,4.5,8,4.3C7.8,4.1,7.5,4,7.1,4c-0.5,0-1,0.2-1.6,0.7
			c0,0-0.1,0.1-0.1,0.1c0,0-0.1,0.1-0.1,0.1c-0.4,0.4-0.8,0.8-1,1.4C4.1,6.9,4,7.5,4,8.1c0,1.2,0.3,2.4,1,3.8c0.8,1.5,1.8,2.9,3,4
			c0.8,0.8,1.7,1.6,2.7,2.2c0.8,0.6,1.7,1,2.7,1.4C14.2,19.8,15,20,15.9,20L15.9,20z M15.9,18.6c-0.8,0-1.5-0.2-2.2-0.5
			c-0.8-0.3-1.6-0.8-2.4-1.3c-0.8-0.5-1.5-1.2-2.2-1.9c-0.7-0.7-1.3-1.4-1.9-2.2c-0.5-0.8-1-1.6-1.3-2.4C5.6,9.6,5.4,8.9,5.4,8.1
			c0-0.4,0.1-0.8,0.2-1.2C5.8,6.5,6,6.2,6.3,6l0.1-0.1l0.1-0.1c0.2-0.2,0.4-0.3,0.6-0.3c0.2,0,0.5,0.1,0.6,0.3l1.6,2.3
			c0.1,0.1,0.1,0.2,0.1,0.3c0,0.1-0.1,0.2-0.2,0.3L8.5,9.6c-0.3,0.2-0.4,0.6-0.4,1c0,0.3,0.1,0.7,0.4,0.9c0.3,0.3,0.6,0.7,0.9,1.1
			c0.4,0.4,0.7,0.7,1,1c0.2,0.2,0.4,0.4,0.7,0.6c0.3,0.2,0.5,0.5,0.8,0.7c0.3,0.2,0.5,0.4,0.7,0.6c0.3,0.2,0.6,0.3,0.9,0.3
			c0.4,0,0.7-0.2,1-0.4l0.7-0.7c0.1-0.1,0.2-0.1,0.3-0.1c0.1,0,0.2,0,0.3,0.1l2.3,1.6c0.1,0.1,0.2,0.1,0.2,0.2
			c0,0.1,0.1,0.2,0.1,0.3c0,0.2-0.1,0.5-0.3,0.7c0,0,0,0.1-0.1,0.1c-0.3,0.3-0.6,0.6-1,0.8C16.7,18.5,16.3,18.6,15.9,18.6
			C15.9,18.6,15.9,18.6,15.9,18.6z"/>
	</g>
</g>
</svg>
