<?xml version="1.0" encoding="utf-8"?>
<!-- Generator: Adobe Illustrator 27.6.1, SVG Export Plug-In . SVG Version: 6.00 Build 0)  -->
<svg version="1.1" id="Layer_1" xmlns="http://www.w3.org/2000/svg" xmlns:xlink="http://www.w3.org/1999/xlink" x="0px" y="0px"
	 viewBox="0 0 24 24" style="enable-background:new 0 0 24 24;" xml:space="preserve">
<style type="text/css">
	.st0{clip-path:url(#SVGID_00000026865330703256812100000008442902453626400691_);}
</style>
<g>
	<defs>
		<rect id="SVGID_1_" x="4" y="4" width="16.2" height="16"/>
	</defs>
	<clipPath id="SVGID_00000070812414913405202570000012813490903318656946_">
		<use xlink:href="#SVGID_1_"  style="overflow:visible;"/>
	</clipPath>
	<g style="clip-path:url(#SVGID_00000070812414913405202570000012813490903318656946_);">
		<path d="M7.2,7.7c-1.1,0-1.9,0.3-2.4,0.8C4.3,9,4,9.8,4,10.8v1c0,1,0.3,1.8,0.8,2.3s1.3,0.8,2.4,0.8h1.5V7.7
			C8.8,7.7,7.2,7.7,7.2,7.7z M9.8,14.9c1.4,0.2,2.8,0.5,4.2,1c0.7,0.3,1.4,0.5,2.1,0.9v-11c-0.7,0.3-1.4,0.6-2.1,0.9
			c-0.7,0.2-1.4,0.5-2.1,0.6c-0.7,0.2-1.3,0.3-2,0.4C9.8,7.7,9.8,14.9,9.8,14.9z M17.1,17c0,0.4,0.1,0.8,0.4,1.1
			c0.3,0.3,0.7,0.4,1.1,0.4c0.8,0,1.5-0.6,1.6-1.4c0-0.1,0-0.1,0-0.2V5.6c0-0.4-0.1-0.8-0.4-1.1C19.5,4.1,19.1,4,18.7,4
			c-0.4,0-0.8,0.1-1.1,0.4c-0.3,0.3-0.4,0.7-0.4,1.1L17.1,17L17.1,17z M10.1,20c0.3,0,0.6-0.1,0.8-0.2c0.2-0.1,0.4-0.3,0.5-0.6
			c0.1-0.3,0.1-0.6,0-1L11,16.1c-0.2-0.1-0.4-0.1-0.6-0.1c-0.3,0-0.6-0.1-0.9-0.1c-0.2,0-0.5,0-0.7,0H7.1l1.3,2.9
			c0.2,0.4,0.4,0.7,0.7,1C9.4,19.9,9.8,20,10.1,20L10.1,20L10.1,20z"/>
	</g>
</g>
</svg>
