<?xml version="1.0" encoding="utf-8"?>
<!-- Generator: Adobe Illustrator 27.6.1, SVG Export Plug-In . SVG Version: 6.00 Build 0)  -->
<svg version="1.1" id="Layer_1" xmlns="http://www.w3.org/2000/svg" xmlns:xlink="http://www.w3.org/1999/xlink" x="0px" y="0px"
	 viewBox="0 0 24 24" style="enable-background:new 0 0 24 24;" xml:space="preserve">
<style type="text/css">
	.st0{fill:#171717;}
	.st1{fill-rule:evenodd;clip-rule:evenodd;fill:#171717;}
	.st2{fill:#FFFFFF;filter:url(#Adobe_OpacityMaskFilter);}
	.st3{fill-rule:evenodd;clip-rule:evenodd;}
	.st4{mask:url(#a_00000183931076629696865980000008996259504380898439_);fill:#FFFFFF;}
	.st5{fill:#171717;stroke:#FFFFFF;stroke-linejoin:round;}
	.st6{fill:#B91C1C;}
	.st7{fill:#FFFFFF;}
	.st8{fill-rule:evenodd;clip-rule:evenodd;fill:#B91C1C;}
	.st9{fill:#FEF08A;}
	.st10{fill:#FFFFFF;filter:url(#Adobe_OpacityMaskFilter_00000095300127277430125870000010206026951845668224_);}
	.st11{mask:url(#b_00000149354217005784938610000001815512996167554465_);fill:#7F1D1D;}
</style>
<path class="st0" d="M9.4,7.2h5.1V6.8c0-0.1-0.1-0.4-0.4-0.4h-0.4C13.6,5.9,13,5,12,5s-1.6,0.9-1.7,1.3H9.9c-0.3,0-0.4,0.3-0.4,0.4
	C9.4,6.7,9.4,7.2,9.4,7.2z M10.3,11.1c-0.1,0.3-0.4,1.1-0.4,1.8h4.3c0-0.7-0.3-1.5-0.4-1.8C13.7,11.1,10.3,11.1,10.3,11.1z"/>
<path class="st1" d="M9.9,12.9c0,0.3-0.1,1-0.2,1.9h4.7c-0.1-0.9-0.2-1.7-0.2-1.9H9.9z M14.5,17h-5c-0.1,0.9-0.4,1.4-0.5,2h6
	C14.9,18.4,14.6,17.9,14.5,17z M14.1,9.8l-0.4,1.3h-3.4L9.9,9.8H14.1z"/>
<path class="st0" d="M14.4,14.8H9.6c-0.1,0.6,0,1.5-0.1,2.2h5C14.4,16.4,14.4,15.4,14.4,14.8z M10.3,7.2L9.9,9.8h4.3l-0.4-2.6
	L10.3,7.2L10.3,7.2z"/>
<defs>
	<filter id="Adobe_OpacityMaskFilter" filterUnits="userSpaceOnUse" x="8" y="4" width="8" height="16">
		<feColorMatrix  type="matrix" values="1 0 0 0 0  0 1 0 0 0  0 0 1 0 0  0 0 0 1 0"/>
	</filter>
</defs>
<mask maskUnits="userSpaceOnUse" x="8" y="4" width="8" height="16" id="a_00000183931076629696865980000008996259504380898439_">
	<path class="st2" d="M8,4h8v16H8V4z"/>
	<path d="M9.4,7.2h5.1V6.8c0-0.1-0.1-0.4-0.4-0.4h-0.4C13.6,5.9,13,5,12,5s-1.6,0.9-1.7,1.3H9.9c-0.3,0-0.4,0.3-0.4,0.4
		C9.4,6.7,9.4,7.2,9.4,7.2z M10.3,11.1c-0.1,0.3-0.4,1.1-0.4,1.8h4.3c0-0.7-0.3-1.5-0.4-1.8C13.7,11.1,10.3,11.1,10.3,11.1z"/>
	<path class="st3" d="M9.9,12.9c0,0.3-0.1,1-0.2,1.9h4.7c-0.1-0.9-0.2-1.7-0.2-1.9H9.9z M14.5,17h-5c-0.1,0.9-0.4,1.4-0.5,2h6
		C14.9,18.4,14.6,17.9,14.5,17z M14.1,9.8l-0.4,1.3h-3.4L9.9,9.8H14.1z"/>
	<path d="M14.4,14.8H9.6c-0.1,0.6,0,1.5-0.1,2.2h5C14.4,16.4,14.4,15.4,14.4,14.8z M10.3,7.2L9.9,9.8h4.3l-0.4-2.6L10.3,7.2
		L10.3,7.2z"/>
</mask>
<path class="st4" d="M9.9,6.8h0.4v-1H9.9V6.8z M10.3,7.7h3.4v-1h-3.4C10.3,6.7,10.3,7.7,10.3,7.7z M14.1,9.3H9.9v1h4.3
	C14.1,10.3,14.1,9.3,14.1,9.3z M10.3,11.6h3.4v-1h-3.4C10.3,10.6,10.3,11.6,10.3,11.6z M14.1,12.4H9.9v1h4.3
	C14.1,13.4,14.1,12.4,14.1,12.4z M9.6,15.3h4.7v-1H9.6V15.3z M14.5,16.5h-5v1h5V16.5z M9,19l-1-0.2c-0.1,0.5,0.3,1.1,0.8,1.1
	c0.1,0,0.1,0,0.2,0V19z M10.3,11.1l0.9,0.4c0.1-0.2,0.1-0.5,0.1-0.8L10.3,11.1z M9.9,9.8l-1-0.2c0,0.2,0,0.3,0,0.5L9.9,9.8z
	 M10.3,7.2l1,0.2c0.1-0.5-0.3-1.1-0.8-1.1c-0.1,0-0.1,0-0.2,0C10.3,6.2,10.3,7.2,10.3,7.2z M9.4,7.2h-1c0,0.6,0.4,1,1,1
	C9.4,8.2,9.4,7.2,9.4,7.2z M10.3,6.3v1c0.4,0,0.8-0.3,0.9-0.7L10.3,6.3z M15,19v1c0.6,0,1-0.4,1-1c0-0.1,0-0.1,0-0.2L15,19z
	 M13.7,11.1l-0.9-0.3c-0.1,0.2-0.1,0.5,0.1,0.8L13.7,11.1z M14.1,9.8l0.9,0.3c0-0.2,0.1-0.3,0-0.5L14.1,9.8z M13.7,7.2v-1
	c-0.6,0-1,0.4-1,1c0,0.1,0,0.1,0,0.2C12.7,7.3,13.7,7.2,13.7,7.2z M14.6,7.2v1c0.6,0,1-0.4,1-1C15.6,7.2,14.6,7.2,14.6,7.2z
	 M13.7,6.3l-0.9,0.3c0.1,0.4,0.5,0.7,0.9,0.7V6.3z M9.6,14.8l-1-0.1L9.6,14.8z M14.4,14.8l-1,0.1L14.4,14.8z M14.5,17l1-0.2L14.5,17
	z M9.5,17l-1-0.2L9.5,17z M10.9,12.9c0-0.2,0-0.5,0.1-0.8c0.1-0.3,0.2-0.5,0.2-0.6l-1.8-0.9C9.2,11,8.9,12,8.9,12.9H10.9L10.9,12.9z
	 M11.2,10.8l-0.4-1.3l-1.9,0.6l0.4,1.3L11.2,10.8L11.2,10.8z M10.8,10l0.4-2.6L9.3,7L8.9,9.7L10.8,10z M10.3,6.2H9.4v2h0.9V6.2z
	 M10.4,7.2V6.8h-2v0.4L10.4,7.2L10.4,7.2z M10.4,6.8c0,0.1,0,0.2-0.1,0.3c-0.1,0.1-0.1,0.1-0.2,0.2c-0.1,0-0.2,0.1-0.3,0.1v-2
	c-0.5,0-0.9,0.2-1.2,0.6C8.5,6.1,8.4,6.4,8.4,6.8C8.4,6.8,10.4,6.8,10.4,6.8z M11.2,6.6c0-0.1,0.1-0.3,0.3-0.4C11.6,6.1,11.8,6,12,6
	V4c-0.8,0-1.5,0.4-1.9,0.8C9.8,5.1,9.5,5.5,9.3,6L11.2,6.6L11.2,6.6z M9.9,7.3h0.4v-2H9.9V7.3z M15.1,12.9c0-0.9-0.4-1.8-0.5-2.2
	l-1.8,0.9c0,0.1,0.1,0.3,0.2,0.6c0.1,0.3,0.1,0.5,0.1,0.8C13.1,12.9,15.1,12.9,15.1,12.9z M14.7,11.4l0.4-1.3l-1.9-0.6l-0.4,1.3
	L14.7,11.4L14.7,11.4z M15.1,9.7L14.7,7l-2,0.3l0.4,2.6L15.1,9.7L15.1,9.7z M13.7,8.2h0.9v-2h-0.9V8.2z M15.6,7.2V6.8h-2v0.4
	C13.6,7.2,15.6,7.2,15.6,7.2z M15.6,6.8c0-0.2-0.1-0.6-0.3-0.8c-0.3-0.4-0.7-0.6-1.2-0.6v2c-0.1,0-0.2,0-0.3-0.1
	c-0.1,0-0.2-0.1-0.2-0.2c-0.1-0.1-0.1-0.2-0.1-0.3C13.6,6.8,15.6,6.8,15.6,6.8z M14.7,6c-0.2-0.5-0.4-0.9-0.8-1.2
	C13.4,4.3,12.7,4,12,4v2c0.2,0,0.4,0.1,0.5,0.2c0.2,0.1,0.2,0.3,0.3,0.4L14.7,6L14.7,6z M12,20h3v-2h-3V20z M14.1,5.3h-0.4v2h0.4
	V5.3z M12,18H9v2h3V18z M10.6,15c0.1-0.9,0.2-1.7,0.2-2.1h-2c0,0.2-0.1,0.9-0.2,1.8L10.6,15L10.6,15z M15.4,14.7
	c-0.1-0.9-0.2-1.6-0.2-1.8h-2c0,0.4,0.1,1.2,0.2,2.1L15.4,14.7z M16,18.8c-0.1-0.4-0.2-0.7-0.3-1c-0.1-0.3-0.2-0.6-0.2-1l-2,0.3
	c0.1,0.5,0.2,0.9,0.3,1.2c0.1,0.4,0.2,0.6,0.2,0.8C14,19.2,16,18.8,16,18.8z M15.5,16.8c0-0.3-0.1-0.7-0.1-1c0-0.4,0-0.8-0.1-1.2
	l-2,0.3c0,0.2,0,0.6,0.1,1c0,0.4,0,0.8,0.1,1.2C13.5,17.2,15.5,16.8,15.5,16.8z M10,19.2c0-0.2,0.1-0.4,0.2-0.8
	c0.1-0.3,0.2-0.7,0.3-1.2l-2-0.3c-0.1,0.3-0.1,0.6-0.2,1c-0.1,0.3-0.2,0.7-0.3,1C8,18.8,10,19.2,10,19.2z M10.5,17.2
	c0.1-0.4,0.1-0.9,0.1-1.2c0-0.4,0-0.7,0.1-1l-2-0.3c-0.1,0.4-0.1,0.8-0.1,1.2c0,0.3,0,0.7-0.1,1C8.5,16.8,10.5,17.2,10.5,17.2z"/>
<path class="st5" d="M10.7,6.9c0,0-0.1-0.1-0.1-0.1c0.1-0.1,0.2-0.2,0.2-0.3c0,0,0-0.1,0-0.1C11,6,11.4,5.5,12,5.5s1,0.5,1.2,0.9
	c0,0,0,0.1,0,0.1c0,0.1,0.1,0.2,0.2,0.3c-0.2,0.1-0.3,0.3-0.3,0.5l0.4,2.5L13.2,11c0,0.1,0,0.3,0,0.4c0.1,0.2,0.3,0.6,0.3,1.1
	c0,0.1,0,0.3,0,0.4c0,0.3,0.1,0.8,0.2,1.5c0,0.2,0,0.3,0.1,0.5c0,0.3,0,0.6,0.1,1v0c0,0.2,0,0.5,0,0.7c0,0.2,0,0.4,0.1,0.5
	c0.1,0.4,0.2,0.8,0.2,1.1l0.1,0.2l0,0.2H9.6c0-0.1,0.1-0.2,0.1-0.4c0.1-0.3,0.2-0.7,0.2-1.1c0-0.2,0-0.4,0.1-0.5c0-0.2,0-0.5,0-0.7
	v0c0-0.4,0-0.7,0.1-1l0.1-0.5c0.1-0.7,0.2-1.2,0.2-1.5c0-0.1,0-0.3,0-0.4c0.1-0.4,0.2-0.8,0.3-1.1c0.1-0.1,0.1-0.3,0-0.4l-0.4-1.2
	l0.4-2.5C10.8,7.1,10.8,7,10.7,6.9z M7.8,17.7l0.5,0.1L7.8,17.7L7.8,17.7l0.4,0.2L7.8,17.7l0,0.1c-0.1,0.3-0.2,0.6-0.2,1
	c-0.1,0.8,0.4,1.6,1.2,1.7c0.1,0,0.2,0,0.2,0h6c0.8,0,1.5-0.7,1.5-1.5c0-0.1,0-0.2,0-0.2c-0.1-0.3-0.1-0.7-0.2-1l0,0l0-0.1
	c-0.1-0.3-0.2-0.6-0.2-0.9c0-0.3-0.1-0.6-0.1-0.9l0-0.1v0c0-0.4,0-0.8-0.1-1.1c-0.1-1-0.2-1.6-0.2-1.7c0-0.7-0.2-1.3-0.3-1.8
	l0.3-0.8c0.1-0.2,0.1-0.5,0.1-0.7l-0.2-1.2c0.4-0.3,0.6-0.7,0.6-1.2V6.8c0-0.4-0.1-0.8-0.4-1.1c-0.3-0.4-0.6-0.6-1.1-0.7
	c-0.1-0.2-0.3-0.3-0.4-0.5c-0.6-0.6-1.4-0.9-2.2-0.9c-1,0-1.7,0.4-2.2,0.9C9.6,4.6,9.5,4.7,9.4,4.9C8.9,5,8.5,5.2,8.3,5.6
	C8,6,7.9,6.4,7.9,6.7v0.4c0,0.5,0.3,1,0.6,1.2L8.4,9.6c0,0.2,0,0.5,0.1,0.7l0.5-0.2l-0.5,0.2l0.3,0.8c-0.2,0.5-0.3,1.1-0.3,1.8
	c0,0.1-0.1,0.8-0.2,1.7c-0.1,0.4-0.1,0.8-0.1,1.1v0l0,0.1c0,0.3,0,0.6-0.1,0.9C8,17.1,7.9,17.4,7.8,17.7z"/>
<path class="st6" d="M9.4,7.2h5.1V6.8c0-0.1-0.1-0.4-0.4-0.4h-0.4C13.6,5.9,13,5,12,5s-1.6,0.9-1.7,1.3H9.9c-0.3,0-0.4,0.3-0.4,0.4
	C9.4,6.7,9.4,7.2,9.4,7.2z"/>
<path class="st7" d="M10.3,11.1c-0.1,0.3-0.4,1.1-0.4,1.8h4.3c0-0.7-0.3-1.5-0.4-1.8C13.7,11.1,10.3,11.1,10.3,11.1z"/>
<path class="st8" d="M9.9,12.9c0,0.3-0.1,1-0.2,1.9h4.7c-0.1-0.9-0.2-1.7-0.2-1.9H9.9z M14.5,17h-5c-0.1,0.9-0.4,1.4-0.5,2h6
	C14.9,18.4,14.6,17.9,14.5,17z M14.1,9.8l-0.4,1.3h-3.4L9.9,9.8H14.1z"/>
<path class="st7" d="M14.4,14.8H9.6c-0.1,0.6,0,1.5-0.1,2.2h5C14.4,16.4,14.4,15.4,14.4,14.8z"/>
<path class="st9" d="M10.3,7.2L9.9,9.8h4.3l-0.4-2.6L10.3,7.2L10.3,7.2z"/>
<defs>
	
		<filter id="Adobe_OpacityMaskFilter_00000153673721687921158180000009490928192182196609_" filterUnits="userSpaceOnUse" x="8" y="4" width="8" height="16">
		<feColorMatrix  type="matrix" values="1 0 0 0 0  0 1 0 0 0  0 0 1 0 0  0 0 0 1 0"/>
	</filter>
</defs>
<mask maskUnits="userSpaceOnUse" x="8" y="4" width="8" height="16" id="b_00000149354217005784938610000001815512996167554465_">
	<path style="fill:#FFFFFF;filter:url(#Adobe_OpacityMaskFilter_00000153673721687921158180000009490928192182196609_);" d="M8,4h8
		v16H8V4z"/>
	<path d="M9.4,7.2h5.1V6.8c0-0.1-0.1-0.4-0.4-0.4h-0.4C13.6,5.9,13,5,12,5s-1.6,0.9-1.7,1.3H9.9c-0.3,0-0.4,0.3-0.4,0.4
		C9.4,6.7,9.4,7.2,9.4,7.2z M10.3,11.1c-0.1,0.3-0.4,1.1-0.4,1.8h4.3c0-0.7-0.3-1.5-0.4-1.8C13.7,11.1,10.3,11.1,10.3,11.1z"/>
	<path class="st3" d="M9.9,12.9c0,0.3-0.1,1-0.2,1.9h4.7c-0.1-0.9-0.2-1.7-0.2-1.9H9.9z M14.5,17h-5c-0.1,0.9-0.4,1.4-0.5,2h6
		C14.9,18.4,14.6,17.9,14.5,17z M14.1,9.8l-0.4,1.3h-3.4L9.9,9.8H14.1z"/>
	<path d="M14.4,14.8H9.6c-0.1,0.6,0,1.5-0.1,2.2h5C14.4,16.4,14.4,15.4,14.4,14.8z M10.3,7.2L9.9,9.8h4.3l-0.4-2.6L10.3,7.2
		L10.3,7.2z"/>
</mask>
<path class="st11" d="M9.9,6.8h0.4v-1H9.9V6.8z M10.3,7.7h3.4v-1h-3.4C10.3,6.7,10.3,7.7,10.3,7.7z M14.1,9.3H9.9v1h4.3
	C14.1,10.3,14.1,9.3,14.1,9.3z M10.3,11.6h3.4v-1h-3.4C10.3,10.6,10.3,11.6,10.3,11.6z M14.1,12.4H9.9v1h4.3
	C14.1,13.4,14.1,12.4,14.1,12.4z M9.6,15.3h4.7v-1H9.6V15.3z M14.5,16.5h-5v1h5V16.5z M9,19l-1-0.2c-0.1,0.5,0.3,1.1,0.8,1.1
	c0.1,0,0.1,0,0.2,0V19z M10.3,11.1l0.9,0.4c0.1-0.2,0.1-0.5,0.1-0.8L10.3,11.1z M9.9,9.8l-1-0.2c0,0.2,0,0.3,0,0.5L9.9,9.8z
	 M10.3,7.2l1,0.2c0.1-0.5-0.3-1.1-0.8-1.1c-0.1,0-0.1,0-0.2,0C10.3,6.2,10.3,7.2,10.3,7.2z M9.4,7.2h-1c0,0.6,0.4,1,1,1
	C9.4,8.2,9.4,7.2,9.4,7.2z M10.3,6.3v1c0.4,0,0.8-0.3,0.9-0.7L10.3,6.3z M15,19v1c0.6,0,1-0.4,1-1c0-0.1,0-0.1,0-0.2L15,19z
	 M13.7,11.1l-0.9-0.3c-0.1,0.2-0.1,0.5,0.1,0.8L13.7,11.1z M14.1,9.8l0.9,0.3c0-0.2,0.1-0.3,0-0.5L14.1,9.8z M13.7,7.2v-1
	c-0.6,0-1,0.4-1,1c0,0.1,0,0.1,0,0.2C12.7,7.3,13.7,7.2,13.7,7.2z M14.6,7.2v1c0.6,0,1-0.4,1-1C15.6,7.2,14.6,7.2,14.6,7.2z
	 M13.7,6.3l-0.9,0.3c0.1,0.4,0.5,0.7,0.9,0.7V6.3z M9.6,14.8l-1-0.1L9.6,14.8z M14.4,14.8l-1,0.1L14.4,14.8z M14.5,17l1-0.2L14.5,17
	z M9.5,17l-1-0.2L9.5,17z M10.9,12.9c0-0.2,0-0.5,0.1-0.8c0.1-0.3,0.2-0.5,0.2-0.6l-1.8-0.9C9.2,11,8.9,12,8.9,12.9H10.9L10.9,12.9z
	 M11.2,10.8l-0.4-1.3l-1.9,0.6l0.4,1.3L11.2,10.8L11.2,10.8z M10.8,10l0.4-2.6L9.3,7L8.9,9.7L10.8,10z M10.3,6.2H9.4v2h0.9V6.2z
	 M10.4,7.2V6.8h-2v0.4L10.4,7.2L10.4,7.2z M10.4,6.8c0,0.1,0,0.2-0.1,0.3c-0.1,0.1-0.1,0.1-0.2,0.2c-0.1,0-0.2,0.1-0.3,0.1v-2
	c-0.5,0-0.9,0.2-1.2,0.6C8.5,6.1,8.4,6.4,8.4,6.8C8.4,6.8,10.4,6.8,10.4,6.8z M11.2,6.6c0-0.1,0.1-0.3,0.3-0.4C11.6,6.1,11.8,6,12,6
	V4c-0.8,0-1.5,0.4-1.9,0.8C9.8,5.1,9.5,5.5,9.3,6L11.2,6.6L11.2,6.6z M9.9,7.3h0.4v-2H9.9V7.3z M15.1,12.9c0-0.9-0.4-1.8-0.5-2.2
	l-1.8,0.9c0,0.1,0.1,0.3,0.2,0.6c0.1,0.3,0.1,0.5,0.1,0.8C13.1,12.9,15.1,12.9,15.1,12.9z M14.7,11.4l0.4-1.3l-1.9-0.6l-0.4,1.3
	L14.7,11.4L14.7,11.4z M15.1,9.7L14.7,7l-2,0.3l0.4,2.6L15.1,9.7L15.1,9.7z M13.7,8.2h0.9v-2h-0.9V8.2z M15.6,7.2V6.8h-2v0.4
	C13.6,7.2,15.6,7.2,15.6,7.2z M15.6,6.8c0-0.2-0.1-0.6-0.3-0.8c-0.3-0.4-0.7-0.6-1.2-0.6v2c-0.1,0-0.2,0-0.3-0.1
	c-0.1,0-0.2-0.1-0.2-0.2c-0.1-0.1-0.1-0.2-0.1-0.3C13.6,6.8,15.6,6.8,15.6,6.8z M14.7,6c-0.2-0.5-0.4-0.9-0.8-1.2
	C13.4,4.3,12.7,4,12,4v2c0.2,0,0.4,0.1,0.5,0.2c0.2,0.1,0.2,0.3,0.3,0.4L14.7,6L14.7,6z M12,20h3v-2h-3V20z M14.1,5.3h-0.4v2h0.4
	V5.3z M12,18H9v2h3V18z M10.6,15c0.1-0.9,0.2-1.7,0.2-2.1h-2c0,0.2-0.1,0.9-0.2,1.8L10.6,15L10.6,15z M15.4,14.7
	c-0.1-0.9-0.2-1.6-0.2-1.8h-2c0,0.4,0.1,1.2,0.2,2.1L15.4,14.7z M16,18.8c-0.1-0.4-0.2-0.7-0.3-1c-0.1-0.3-0.2-0.6-0.2-1l-2,0.3
	c0.1,0.5,0.2,0.9,0.3,1.2c0.1,0.4,0.2,0.6,0.2,0.8C14,19.2,16,18.8,16,18.8z M15.5,16.8c0-0.3-0.1-0.7-0.1-1c0-0.4,0-0.8-0.1-1.2
	l-2,0.3c0,0.2,0,0.6,0.1,1c0,0.4,0,0.8,0.1,1.2C13.5,17.2,15.5,16.8,15.5,16.8z M10,19.2c0-0.2,0.1-0.4,0.2-0.8
	c0.1-0.3,0.2-0.7,0.3-1.2l-2-0.3c-0.1,0.3-0.1,0.6-0.2,1c-0.1,0.3-0.2,0.7-0.3,1C8,18.8,10,19.2,10,19.2z M10.5,17.2
	c0.1-0.4,0.1-0.9,0.1-1.2c0-0.4,0-0.7,0.1-1l-2-0.3c-0.1,0.4-0.1,0.8-0.1,1.2c0,0.3,0,0.7-0.1,1C8.5,16.8,10.5,17.2,10.5,17.2z"/>
</svg>
