<svg width="24" height="24" fill="none" xmlns="http://www.w3.org/2000/svg"><g clip-path="url(#clip0_6994_41648)"><path d="M14.928 20h3.154c.473 0 .827-.124 1.063-.372.236-.247.381-.628.437-1.14l.708-7.382a.613.613 0 0 0-.134-.5.592.592 0 0 0-.471-.192h-6.373a.581.581 0 0 0-.468.195.628.628 0 0 0-.13.497l.709 7.382c.046.511.189.891.428 1.14.24.25.599.373 1.077.372zm.051-1.209a.335.335 0 0 1-.354-.354l-.659-6.812h5.083l-.648 6.819c-.03.232-.15.354-.354.354l-3.068-.007zM16 10.803h1.062l.043-.639a.872.872 0 0 1 .354-.692l2.264-1.625a.487.487 0 0 0 .228-.354.564.564 0 0 0-.108-.377.53.53 0 0 0-.327-.216.55.55 0 0 0-.441.117l-2.18 1.573c-.24.17-.442.39-.59.645-.14.27-.222.566-.24.87l-.065.698z" fill="#212121"/><path d="M5.135 18.764h7.311c0-.035-.009-.065-.012-.09-.004-.025 0-.057 0-.092l-.105-1.062H5.151c-.604 0-.907-.303-.907-.908V9.55c-.001-.075.003-.15.013-.225a.3.3 0 0 1 .074-.147l1.339-1.77a.797.797 0 0 0 .113-.221.832.832 0 0 0 .033-.255v-1.24c0-.293.137-.44.408-.44h5.721c.271 0 .407.147.407.44v1.24a.83.83 0 0 0 .034.255.79.79 0 0 0 .113.22l1.348 1.771c.022.03.04.064.053.1.012.04.018.082.017.125h1.254a1.206 1.206 0 0 0-.26-.821l-1.314-1.737V5.52a1.467 1.467 0 0 0-.423-1.128C12.89 4.131 12.485 4 11.954 4h-5.74c-.523 0-.928.131-1.214.393a1.457 1.457 0 0 0-.428 1.128v1.324L3.267 8.582c-.09.117-.16.249-.207.389a1.714 1.714 0 0 0-.06.51v7.182c0 .708.177 1.235.531 1.58.354.344.889.518 1.604.521zm2.15-11.507h3.598a.473.473 0 0 0 .354-.147.483.483 0 0 0 .147-.354.492.492 0 0 0-.147-.354.465.465 0 0 0-.354-.15H7.286a.466.466 0 0 0-.354.15.49.49 0 0 0-.147.354.483.483 0 0 0 .147.354.476.476 0 0 0 .354.15v-.003z" fill="#4D4D4D"/></g><defs><clipPath id="clip0_6994_41648"><path fill="#fff" transform="translate(3 4)" d="M0 0h17.303v16H0z"/></clipPath></defs></svg>