<?xml version="1.0" encoding="utf-8"?>
<!-- Generator: Adobe Illustrator 27.6.1, SVG Export Plug-In . SVG Version: 6.00 Build 0)  -->
<svg version="1.1" id="Layer_1" xmlns="http://www.w3.org/2000/svg" xmlns:xlink="http://www.w3.org/1999/xlink" x="0px" y="0px"
	 viewBox="0 0 24 24" style="enable-background:new 0 0 24 24;" xml:space="preserve">
<style type="text/css">
	.st0{fill-rule:evenodd;clip-rule:evenodd;fill:#4D7C0F;}
	.st1{fill:#84CC16;}
	.st2{fill:#FFFFFF;filter:url(#Adobe_OpacityMaskFilter);}
	.st3{fill-rule:evenodd;clip-rule:evenodd;}
	.st4{mask:url(#a_00000016073139255147637930000011547470493782760602_);fill:#FFFFFF;}
</style>
<path class="st0" d="M7.5,6.4C9.2,4.9,12,4,16,4h3.5C19.8,4,20,4.2,20,4.4v1.8c-0.2,3.9-1.3,6.7-3.1,8.5c-1.8,1.8-4.2,2.6-7.1,2.6
	H7.2c-0.2,0.7-0.4,1.5-0.4,2.3c0,0.2-0.2,0.4-0.5,0.4s-0.4-0.2-0.4-0.5c0,0,0,0,0-0.1c0.1-1,0.3-1.9,0.6-2.8C5,15,5,13.3,5,12.4
	C5,10.1,5.7,8,7.5,6.4z M7.5,16.4c0.2-0.7,0.6-1.3,1-1.9c0.9-1.4,2.3-2.6,4.2-3.5c0.2-0.1,0.3-0.4,0.2-0.6c-0.1-0.2-0.4-0.3-0.6-0.2
	c0,0,0,0,0,0c-2.1,0.9-3.6,2.2-4.6,3.8c-0.4,0.5-0.7,1.1-0.9,1.7c-0.9-1.3-0.9-2.6-0.9-3.3v0c0-2.1,0.6-4,2.2-5.3
	c1.5-1.3,4.1-2.2,8-2.2h3.1v1.3c-0.2,3.8-1.2,6.3-2.8,7.9c-1.6,1.6-3.8,2.3-6.4,2.3L7.5,16.4L7.5,16.4z"/>
<path class="st1" d="M7.5,16.4c0.2-0.7,0.6-1.3,1-1.9c0.9-1.4,2.3-2.6,4.2-3.5c0.2-0.1,0.3-0.4,0.2-0.6c-0.1-0.2-0.4-0.3-0.6-0.2
	c0,0,0,0,0,0c-2.1,0.9-3.6,2.2-4.6,3.8c-0.4,0.5-0.7,1.1-0.9,1.7c-0.9-1.3-0.9-2.6-0.9-3.3v0c0-2.1,0.6-4,2.2-5.3
	c1.5-1.3,4.1-2.2,8-2.2h3.1v1.3c-0.2,3.8-1.2,6.3-2.8,7.9c-1.6,1.6-3.8,2.3-6.4,2.3L7.5,16.4L7.5,16.4z"/>
<defs>
	<filter id="Adobe_OpacityMaskFilter" filterUnits="userSpaceOnUse" x="4" y="3" width="17" height="18">
		<feColorMatrix  type="matrix" values="1 0 0 0 0  0 1 0 0 0  0 0 1 0 0  0 0 0 1 0"/>
	</filter>
</defs>
<mask maskUnits="userSpaceOnUse" x="4" y="3" width="17" height="18" id="a_00000016073139255147637930000011547470493782760602_">
	<path class="st2" d="M4,3h17v19H4V3z"/>
	<path class="st3" d="M7.5,6.4C9.2,4.9,12,4,16,4h3.5C19.8,4,20,4.2,20,4.4v1.8c-0.2,3.9-1.3,6.7-3.1,8.5c-1.8,1.8-4.2,2.6-7.1,2.6
		H7.2c-0.2,0.7-0.4,1.5-0.4,2.3c0,0.2-0.2,0.4-0.5,0.4s-0.4-0.2-0.4-0.5c0,0,0,0,0-0.1c0.1-1,0.3-1.9,0.6-2.8C5,15,5,13.3,5,12.4
		C5,10.1,5.7,8,7.5,6.4z M7.5,16.4c0.2-0.7,0.6-1.3,1-1.9c0.9-1.4,2.3-2.6,4.2-3.5c0.2-0.1,0.3-0.4,0.2-0.6
		c-0.1-0.2-0.4-0.3-0.6-0.2c0,0,0,0,0,0c-2.1,0.9-3.6,2.2-4.6,3.8c-0.4,0.5-0.7,1.1-0.9,1.7c-0.9-1.3-0.9-2.6-0.9-3.3v0
		c0-2.1,0.6-4,2.2-5.3c1.5-1.3,4.1-2.2,8-2.2h3.1v1.3c-0.2,3.8-1.2,6.3-2.8,7.9c-1.6,1.6-3.8,2.3-6.4,2.3L7.5,16.4L7.5,16.4z"/>
	<path d="M7.5,16.4c0.2-0.7,0.6-1.3,1-1.9c0.9-1.4,2.3-2.6,4.2-3.5c0.2-0.1,0.3-0.4,0.2-0.6c-0.1-0.2-0.4-0.3-0.6-0.2c0,0,0,0,0,0
		c-2.1,0.9-3.6,2.2-4.6,3.8c-0.4,0.5-0.7,1.1-0.9,1.7c-0.9-1.3-0.9-2.6-0.9-3.3v0c0-2.1,0.6-4,2.2-5.3c1.5-1.3,4.1-2.2,8-2.2h3.1
		v1.3c-0.2,3.8-1.2,6.3-2.8,7.9c-1.6,1.6-3.8,2.3-6.4,2.3L7.5,16.4L7.5,16.4z"/>
</mask>
<path class="st4" d="M7.5,16.4L7,16.3c-0.1,0.3,0,0.5,0.3,0.6c0.1,0,0.1,0,0.2,0V16.4z M8.5,14.5l0.4,0.3L8.5,14.5z M12.7,11.1
	l0.2,0.5L12.7,11.1z M12.3,10.3l0.2,0.5L12.3,10.3z M7.7,14l0.4,0.3L7.7,14z M6.8,15.7L6.4,16c0.2,0.2,0.5,0.3,0.7,0.1
	c0.1-0.1,0.1-0.1,0.2-0.2L6.8,15.7z M5.9,12.4h0.5H5.9z M5.9,12.4l-0.5,0v0H5.9z M8,7.1L7.7,6.7L8,7.1L8,7.1z M19.1,4.9h0.5
	c0-0.3-0.2-0.5-0.5-0.5V4.9z M19.1,6.2l0.5,0l0,0H19.1L19.1,6.2z M16.3,14.1l0.4,0.4L16.3,14.1z M8,16.6c0.2-0.7,0.6-1.3,0.9-1.8
	L8,14.2c-0.4,0.6-0.8,1.3-1,2L8,16.6L8,16.6z M8.9,14.8c0.9-1.3,2.2-2.4,4-3.3l-0.4-0.9c-2,0.9-3.4,2.1-4.4,3.6L8.9,14.8z
	 M12.9,11.5c0.5-0.2,0.7-0.8,0.5-1.2l-0.9,0.4c0,0,0-0.1,0-0.1c0,0,0,0,0,0L12.9,11.5L12.9,11.5z M13.4,10.3
	c-0.2-0.5-0.8-0.7-1.2-0.5c0,0,0,0,0,0l0.4,0.9c0,0-0.1,0-0.1,0c0,0,0,0,0,0L13.4,10.3L13.4,10.3z M12.1,9.8c-2.1,1-3.7,2.3-4.8,3.9
	l0.8,0.6c1-1.5,2.4-2.7,4.4-3.6L12.1,9.8L12.1,9.8z M7.3,13.8c-0.4,0.6-0.7,1.2-1,1.8l0.9,0.4c0.2-0.6,0.5-1.1,0.9-1.6L7.3,13.8z
	 M7.2,15.5c-0.8-1.2-0.8-2.3-0.8-3h-1c0,0.7,0,2.1,1,3.6L7.2,15.5z M6.4,12.4L6.4,12.4l-1,0v0H6.4z M6.4,12.4c0-2,0.6-3.7,2-5
	L7.7,6.7c-1.7,1.5-2.3,3.5-2.3,5.7L6.4,12.4L6.4,12.4z M8.4,7.5c1.4-1.2,3.8-2.1,7.6-2.1v-1c-4,0-6.6,0.9-8.3,2.3L8.4,7.5z M16,5.4
	h3.1v-1H16L16,5.4L16,5.4z M18.6,4.9v1.3h1V4.9L18.6,4.9L18.6,4.9z M18.6,6.2c-0.2,3.7-1.2,6.1-2.7,7.6l0.7,0.7
	c1.7-1.7,2.8-4.4,3-8.3L18.6,6.2z M15.9,13.8c-1.5,1.5-3.5,2.2-6.1,2.2v1c2.8,0,5.1-0.7,6.8-2.4L15.9,13.8z M9.9,15.9H7.5v1h2.4
	V15.9z M7.5,6.4l0.7,0.8L7.5,6.4z M20,6.2l1,0.1L20,6.2z M16.9,14.8l0.7,0.7L16.9,14.8z M7.2,17.3v-1c-0.4,0-0.8,0.3-1,0.7L7.2,17.3
	L7.2,17.3z M6.8,19.6l1,0.1L6.8,19.6z M6.3,20l-0.1,1L6.3,20z M5.9,19.5l-1-0.1L5.9,19.5L5.9,19.5z M6.5,16.7l1,0.3
	c0.1-0.3,0-0.7-0.2-0.9L6.5,16.7z M5,12.4l-1,0v0H5z M5,12.4l-1,0v0L5,12.4L5,12.4z M16,3c-4.2,0-7.2,0.9-9.2,2.7l1.3,1.5
	C9.6,5.9,12.1,5,16,5V3z M19.6,3H16v2h3.5V3z M21,4.4C21,3.7,20.4,3,19.6,3v2C19.3,5,19,4.8,19,4.4c0,0,0,0,0,0H21z M21,6.2V4.4h-2
	v1.8H21z M21,6.3L21,6.3l-2-0.1v0L21,6.3L21,6.3z M17.6,15.5c2-2,3.1-5.1,3.4-9.2l-2-0.1c-0.2,3.8-1.2,6.3-2.8,7.9L17.6,15.5
	L17.6,15.5z M9.9,18.3c3,0,5.7-0.8,7.8-2.9l-1.4-1.4c-1.5,1.6-3.7,2.3-6.3,2.3L9.9,18.3z M7.2,18.3h2.7v-2H7.2L7.2,18.3L7.2,18.3z
	 M7.8,19.7C7.8,19,8,18.3,8.2,17.6l-1.9-0.5c-0.2,0.8-0.4,1.6-0.5,2.4L7.8,19.7L7.8,19.7z M6.2,21c0.8,0.1,1.5-0.5,1.6-1.3l-2-0.2
	c0-0.3,0.3-0.5,0.6-0.5c0,0,0,0,0,0L6.2,21z M4.9,19.4c-0.1,0.8,0.5,1.5,1.3,1.6l0.2-2c0.3,0,0.5,0.3,0.5,0.6c0,0,0,0,0,0L4.9,19.4
	L4.9,19.4z M5.5,16.4c-0.3,1-0.5,2-0.6,3l2,0.2C7,18.7,7.2,17.8,7.4,17L5.5,16.4L5.5,16.4z M4,12.4c0,0.9,0,2.9,1.7,4.9l1.5-1.3
	C6,14.6,6,13.2,6,12.4L4,12.4z M4,12.4L4,12.4l2,0v0L4,12.4z M6.8,5.7C4.8,7.5,4,9.9,4,12.4l2,0c0-2.1,0.6-3.9,2.1-5.3L6.8,5.7
	L6.8,5.7z"/>
</svg>
