<svg width="24" height="24" fill="none" xmlns="http://www.w3.org/2000/svg"><g clip-path="url(#clip0_6994_41778)"><path d="M7.132 15.234H8.79a.654.654 0 0 0 .482-.176.631.631 0 0 0 .177-.467V13.34a.63.63 0 0 0-.177-.465.648.648 0 0 0-.482-.177H7.132a.653.653 0 0 0-.479.177.62.62 0 0 0-.177.465v1.251a.622.622 0 0 0 .177.467.659.659 0 0 0 .479.176zm-2.511-4.867h14.766V8.814H4.621v1.553zm1.58 7.335h11.597c.737 0 1.287-.177 1.653-.53.365-.354.547-.902.547-1.628V8.176c0-.727-.176-1.268-.547-1.628-.372-.36-.916-.53-1.653-.53H6.194c-.732 0-1.282.176-1.65.53-.367.353-.55.901-.55 1.628v7.368c0 .726.176 1.267.55 1.628.375.36.925.53 1.65.53H6.2zm.016-1.238a.978.978 0 0 1-.72-.25.995.995 0 0 1-.254-.743V8.236a.995.995 0 0 1 .254-.743.979.979 0 0 1 .72-.25H17.78a.981.981 0 0 1 .721.25.995.995 0 0 1 .255.743v7.23a.994.994 0 0 1-.255.742.98.98 0 0 1-.72.251l-11.564.006z" fill="#000"/></g><defs><clipPath id="clip0_6994_41778"><path fill="#fff" transform="translate(4 6)" d="M0 0H16V11.702H0z"/></clipPath></defs></svg>