<svg width="24" height="24" fill="none" xmlns="http://www.w3.org/2000/svg"><g clip-path="url(#clip0_6994_41582)"><path d="M7.673 20.004a.82.82 0 0 0 .46-.137c.184-.125.358-.264.519-.417l2.744-2.54h4.868a4.343 4.343 0 0 0 2.003-.417c.53-.268.957-.7 1.222-1.231.29-.62.431-1.3.41-1.986V7.64a4.349 4.349 0 0 0-.41-1.986 2.804 2.804 0 0 0-1.222-1.23 4.318 4.318 0 0 0-2.003-.422H6.636a4.317 4.317 0 0 0-2.003.421c-.528.27-.955.702-1.222 1.231a4.348 4.348 0 0 0-.41 1.986v5.644a4.335 4.335 0 0 0 .41 1.986c.265.53.693.96 1.222 1.227.625.297 1.312.44 2.003.417h.276v2.22a.965.965 0 0 0 .199.636.7.7 0 0 0 .562.234z" fill="#8E8E8E"/><path d="M7.635 9.618a1.527 1.527 0 0 1 .478-1.167c.323-.302.75-.464 1.192-.451a1.56 1.56 0 0 1 1.257.556c.315.38.481.86.469 1.354.01.45-.078.896-.257 1.309a2.955 2.955 0 0 1-1.44 1.483 1.784 1.784 0 0 1-.716.185.413.413 0 0 1-.388-.234.353.353 0 0 1-.03-.145.397.397 0 0 1 .082-.256.596.596 0 0 1 .326-.161 2.25 2.25 0 0 0 .78-.398c.256-.2.46-.457.596-.752h-.057a.7.7 0 0 1-.38.238 1.935 1.935 0 0 1-.455.054 1.32 1.32 0 0 1-1.076-.47 1.734 1.734 0 0 1-.381-1.145zm4.236 0a1.533 1.533 0 0 1 .476-1.167A1.654 1.654 0 0 1 13.54 8a1.561 1.561 0 0 1 1.257.556c.314.38.48.86.469 1.354.01.45-.077.895-.253 1.309-.15.35-.367.666-.64.931a2.951 2.951 0 0 1-.793.552 1.788 1.788 0 0 1-.72.185.411.411 0 0 1-.386-.234.354.354 0 0 1-.03-.145.397.397 0 0 1 .083-.256.596.596 0 0 1 .316-.161 2.24 2.24 0 0 0 .794-.398c.256-.2.46-.457.596-.752h-.058a.709.709 0 0 1-.383.238 2.008 2.008 0 0 1-.46.054 1.305 1.305 0 0 1-1.067-.47 1.726 1.726 0 0 1-.387-1.145h-.006z" fill="#212121"/></g><defs><clipPath id="clip0_6994_41582"><path fill="#fff" transform="translate(3 4)" d="M0 0h16.902v16H0z"/></clipPath></defs></svg>