<?xml version="1.0" encoding="utf-8"?>
<!-- Generator: Adobe Illustrator 27.6.1, SVG Export Plug-In . SVG Version: 6.00 Build 0)  -->
<svg version="1.1" id="Layer_1" xmlns="http://www.w3.org/2000/svg" xmlns:xlink="http://www.w3.org/1999/xlink" x="0px" y="0px"
	 viewBox="0 0 24 24" style="enable-background:new 0 0 24 24;" xml:space="preserve">
<style type="text/css">
	.st0{clip-path:url(#SVGID_00000031925164564481702560000003966125009414715023_);}
</style>
<g>
	<defs>
		<rect id="SVGID_1_" x="4" y="6" width="16" height="11.7"/>
	</defs>
	<clipPath id="SVGID_00000022545582849036648350000010909089515565963945_">
		<use xlink:href="#SVGID_1_"  style="overflow:visible;"/>
	</clipPath>
	<g style="clip-path:url(#SVGID_00000022545582849036648350000010909089515565963945_);">
		<path d="M7.1,15.2h1.7c0.2,0,0.4-0.1,0.5-0.2c0.1-0.1,0.2-0.3,0.2-0.5v-1.3c0-0.2-0.1-0.3-0.2-0.5c-0.1-0.1-0.3-0.2-0.5-0.2H7.1
			c-0.2,0-0.3,0.1-0.5,0.2c-0.1,0.1-0.2,0.3-0.2,0.5v1.3c0,0.2,0.1,0.3,0.2,0.5C6.8,15.2,7,15.2,7.1,15.2z M4.6,10.4h14.8V8.8H4.6
			C4.6,8.8,4.6,10.4,4.6,10.4z M6.2,17.7h11.6c0.7,0,1.3-0.2,1.7-0.5c0.4-0.4,0.5-0.9,0.5-1.6V8.2c0-0.7-0.2-1.3-0.5-1.6
			C19.1,6.2,18.5,6,17.8,6H6.2C5.5,6,4.9,6.2,4.5,6.5C4.2,6.9,4,7.4,4,8.2v7.4c0,0.7,0.2,1.3,0.5,1.6C4.9,17.5,5.5,17.7,6.2,17.7
			L6.2,17.7L6.2,17.7z M6.2,16.5c-0.3,0-0.5-0.1-0.7-0.2c-0.2-0.2-0.3-0.5-0.3-0.7V8.2c0-0.3,0.1-0.5,0.3-0.7C5.7,7.3,6,7.2,6.2,7.2
			h11.6c0.3,0,0.5,0.1,0.7,0.2c0.2,0.2,0.3,0.5,0.3,0.7v7.2c0,0.3-0.1,0.5-0.3,0.7c-0.2,0.2-0.5,0.3-0.7,0.3L6.2,16.5L6.2,16.5z"/>
	</g>
</g>
</svg>
