<?xml version="1.0" encoding="utf-8"?>
<!-- Generator: Adobe Illustrator 27.6.1, SVG Export Plug-In . SVG Version: 6.00 Build 0)  -->
<svg version="1.1" id="Layer_1" xmlns="http://www.w3.org/2000/svg" xmlns:xlink="http://www.w3.org/1999/xlink" x="0px" y="0px"
	 viewBox="0 0 24 24" style="enable-background:new 0 0 24 24;" xml:space="preserve">
<style type="text/css">
	.st0{fill:#28CD41;}
</style>
<path class="st0" d="M5,12c0,0.5,0.4,0.9,0.9,0.9h5.3v5.3c0,0.5,0.4,0.9,0.9,0.9c0.2,0,0.4-0.1,0.6-0.3c0.2-0.2,0.3-0.4,0.3-0.6
	v-5.3h5.3c0.2,0,0.4-0.1,0.6-0.3c0.3-0.3,0.3-0.9,0-1.2c0,0,0,0,0,0c-0.2-0.2-0.4-0.3-0.6-0.3h-5.3V5.9c0-0.2-0.1-0.4-0.3-0.6
	C12.5,5.1,12.2,5,12,5c-0.2,0-0.5,0.1-0.6,0.3c-0.2,0.2-0.3,0.4-0.3,0.6v5.3H5.9C5.4,11.1,5,11.5,5,12C5,12,5,12,5,12L5,12L5,12z"/>
</svg>
