<svg width="24" height="24" fill="none" xmlns="http://www.w3.org/2000/svg"><path d="M19.84 15.279l-.002.002A8.752 8.752 0 0 1 18 17.994a8.564 8.564 0 0 1-2.712 1.84l4.551-4.555zm0 0a8.365 8.365 0 0 0 0-6.558m0 6.558V8.72m0 0l-.002-.003m.001.003l-.001-.003m0 0a8.737 8.737 0 0 0-4.559-4.552m4.559 4.552l-4.559-4.552m0 0l-.003-.001m.003.001l-.003-.001m0 0a8.439 8.439 0 0 0-6.565 0m6.565 0H8.71m0 0h-.003m.003 0h-.003m0 0a8.525 8.525 0 0 0-2.712 1.85 8.777 8.777 0 0 0-1.834 2.712m4.546-4.561L4.162 8.727m0 0v.002m0-.002v.002m0 0a8.365 8.365 0 0 0 0 6.558m0-6.558v6.558m0 0v.002m0-.002v.002m0 0a8.752 8.752 0 0 0 1.839 2.713 8.576 8.576 0 0 0 2.71 1.84M4.162 15.29l4.55 4.554m0 0A8.216 8.216 0 0 0 12 20.5m-3.289-.657L12 20.5m0 0c1.13.007 2.25-.22 3.288-.666L12 20.5z" fill="#EC4899" stroke="#FAFAFA"/><path d="M9.74 16.183c-.265.203-.504.22-.715.065-.211-.154-.264-.386-.159-.688l.902-2.678-2.298-1.644a.634.634 0 0 1-.285-.423.528.528 0 0 1 .124-.43.595.595 0 0 1 .498-.179l2.813.02.853-2.697a.54.54 0 0 1 1.062 0l.853 2.698 2.813-.02a.588.588 0 0 1 .496.178.523.523 0 0 1 .126.43.634.634 0 0 1-.285.423l-2.298 1.644.902 2.678c.105.303.052.533-.159.688-.203.154-.45.134-.714-.065l-2.27-1.665-2.26 1.665z" fill="#fff"/></svg>