<svg width="24" height="24" fill="none" xmlns="http://www.w3.org/2000/svg"><g clip-path="url(#clip0_6994_41632)"><path d="M8.175 15.35c.423.003.842-.08 1.232-.245a3.165 3.165 0 0 0 1.694-1.698 3.178 3.178 0 0 0-1.694-4.162 3.23 3.23 0 0 0-2.468 0 3.185 3.185 0 0 0-1.698 1.696 3.225 3.225 0 0 0 0 2.466 3.162 3.162 0 0 0 2.934 1.944zm0-.972a2.108 2.108 0 0 1-1.11-.299 2.198 2.198 0 0 1-.797-3.01c.195-.326.47-.598.797-.791a2.198 2.198 0 0 1 2.213 0 2.19 2.19 0 0 1 .79 3 2.276 2.276 0 0 1-.79.801c-.333.2-.715.304-1.103.3zm7.655.973c.423.002.842-.081 1.232-.246a3.189 3.189 0 0 0 1.698-1.698 3.194 3.194 0 0 0 0-2.466 3.207 3.207 0 0 0-1.698-1.696 3.225 3.225 0 0 0-2.467 0 3.173 3.173 0 0 0-1.698 1.696 3.226 3.226 0 0 0 0 2.466c.32.768.93 1.377 1.698 1.697.391.165.811.249 1.235.247zm0-.973a2.108 2.108 0 0 1-1.107-.299 2.276 2.276 0 0 1-.8-.801 2.19 2.19 0 0 1 0-2.21c.196-.326.472-.597.8-.79a2.192 2.192 0 0 1 3.002.79 2.197 2.197 0 0 1 0 2.214 2.286 2.286 0 0 1-.79.797c-.334.2-.716.303-1.105.3zM5.37 11.503h-.966c-.27 0-.405.137-.404.411v.232c0 .28.132.418.404.418h.966v-1.06zm13.258 1.06h.966c.264 0 .405-.137.405-.417v-.232c0-.274-.135-.41-.405-.41h-.966v1.06zm-7.571-.147c.134-.08.281-.14.434-.174a2.25 2.25 0 0 1 1.016 0c.153.035.3.094.435.174v-1.001a1.75 1.75 0 0 0-.47-.145 2.72 2.72 0 0 0-.94 0 1.838 1.838 0 0 0-.475.145v1.001z" fill="#000"/></g><defs><clipPath id="clip0_6994_41632"><path fill="#fff" transform="translate(4 9)" d="M0 0H16V6.349H0z"/></clipPath></defs></svg>