<svg width="24" height="24" fill="none" xmlns="http://www.w3.org/2000/svg"><rect x="4" y="4" width="16" height="16" rx="4" fill="#fff"/><path d="M6 8a2 2 0 0 1 2-2h8a2 2 0 0 1 2 2v8a2 2 0 0 1-2 2H8a2 2 0 0 1-2-2V8z" fill="#A3E635" stroke="#525252" stroke-width="2"/><path d="M8 11.99a.787.787 0 0 0 .225.587.847.847 0 0 0 .616.225h2.375v2.395a.846.846 0 0 0 .225.599.772.772 0 0 0 .594.225.806.806 0 0 0 .835-.835V12.8h2.374a.825.825 0 0 0 .604-.225.781.781 0 0 0 .225-.587.791.791 0 0 0-.835-.835h-2.375V8.78a.824.824 0 0 0-.225-.61.812.812 0 0 0-.599-.225.772.772 0 0 0-.594.225.86.86 0 0 0-.225.61v2.366H8.846a.84.84 0 0 0-.617.225.82.82 0 0 0-.23.619z" fill="#404040"/></svg>