<svg width="24" height="24" fill="none" xmlns="http://www.w3.org/2000/svg"><path d="M12 21a9 9 0 1 0 0-18 9 9 0 0 0 0 18z" fill="#FDE047" stroke="#FEFCE8" stroke-width="2" stroke-linecap="round" stroke-linejoin="round"/><path fill-rule="evenodd" clip-rule="evenodd" d="M19.911 13.194A7.954 7.954 0 0 0 20 12a8.093 8.093 0 0 0-.178-1.687l.062-.007a1 1 0 0 1 1.082.91 9.122 9.122 0 0 1 0 1.568 1 1 0 0 1-1.144.903 7.92 7.92 0 0 0 .09-.493zM17.93 17.37c.016.013.032.026.05.038a1 1 0 0 0 1.392-.245c.3-.427.563-.88.786-1.358a1 1 0 0 0-.54-1.354 7.96 7.96 0 0 1-1.688 2.92zm-3.48 2.248l.026.057a1 1 0 0 0 1.329.483 8.99 8.99 0 0 0 1.358-.786 1 1 0 0 0 .207-1.442 8.023 8.023 0 0 1-2.92 1.688zm-4.137.204l-.007.062a1 1 0 0 0 .91 1.082 9.122 9.122 0 0 0 1.568 0 1 1 0 0 0 .903-1.144A7.92 7.92 0 0 1 12 20a8.093 8.093 0 0 1-1.687-.178zM6.63 17.93a1 1 0 0 0 .207 1.443c.427.299.88.562 1.358.785a1 1 0 0 0 1.354-.54 7.976 7.976 0 0 1-2.92-1.688zm-2.248-3.48l-.057.026a1 1 0 0 0-.483 1.329c.223.477.486.931.786 1.358a1 1 0 0 0 1.442.207 8.023 8.023 0 0 1-1.688-2.92zm-.204-4.137a1 1 0 0 0-1.144.903 9.106 9.106 0 0 0 0 1.568 1 1 0 0 0 1.144.903 7.987 7.987 0 0 1-.148-2.385 8.03 8.03 0 0 1 .148-.989zM6.07 6.63a1 1 0 0 0-1.443.207c-.299.427-.562.88-.785 1.358a1 1 0 0 0 .54 1.354 7.94 7.94 0 0 1 1.364-2.538c.104-.13.212-.258.324-.381zm3.48-2.248a1 1 0 0 0-1.354-.54 8.992 8.992 0 0 0-1.36.786A1 1 0 0 0 6.63 6.07a8.047 8.047 0 0 1 2.448-1.52 7.94 7.94 0 0 1 .471-.168zm4.137-.204l.007-.062a1 1 0 0 0-.91-1.082 9.106 9.106 0 0 0-1.568 0 1 1 0 0 0-.903 1.144 7.98 7.98 0 0 1 2.385-.148 8.03 8.03 0 0 1 .989.148zM17.37 6.07c.013-.016.026-.032.038-.05a1 1 0 0 0-.245-1.392 8.99 8.99 0 0 0-1.358-.786 1 1 0 0 0-1.354.54 7.923 7.923 0 0 1 2.138 1.064 8.006 8.006 0 0 1 .781.624zm2.248 3.48l.057-.026a1 1 0 0 0 .483-1.329 8.993 8.993 0 0 0-.786-1.358 1 1 0 0 0-1.442-.207 8.047 8.047 0 0 1 1.52 2.448c.06.155.116.312.168.471z" fill="#EAB308"/><mask id="a" style="mask-type:alpha" maskUnits="userSpaceOnUse" x="4" y="3" width="17" height="18"><path fill-rule="evenodd" clip-rule="evenodd" d="M12 3a1 1 0 0 1 1 1v16a1 1 0 1 1-2 0V4a1 1 0 0 1 1-1z" fill="#FACC15"/><path fill-rule="evenodd" clip-rule="evenodd" d="M16.84 4.493a1 1 0 0 1 0 1.414l-4.133 4.134a1 1 0 1 1-1.414-1.415l4.133-4.133a1 1 0 0 1 1.414 0zm2.418 2.294a1 1 0 0 1 0 1.414l-6.55 6.55a1 1 0 0 1-1.415-1.413l6.551-6.551a1 1 0 0 1 1.414 0zm1.316 3.395a1 1 0 0 1 0 1.414l-7.867 7.866a1 1 0 1 1-1.414-1.414l7.867-7.866a1 1 0 0 1 1.414 0z" fill="#FACC15"/></mask><g mask="url(#a)"><circle cx="12" cy="12" r="8" fill="#FACC15"/></g><path d="M9.078 19.45a7.935 7.935 0 0 0 1.728.461l-.002.016a.5.5 0 0 0 .455.541 8.605 8.605 0 0 0 1.482 0 .5.5 0 0 0 .453-.557c.6-.09 1.18-.246 1.728-.462l.007.015a.5.5 0 0 0 .664.241 8.5 8.5 0 0 0 1.283-.742.5.5 0 0 0 .113-.709 8.05 8.05 0 0 0 1.265-1.265.5.5 0 0 0 .709-.113c.283-.403.532-.832.742-1.283a.5.5 0 0 0-.241-.664l-.015-.007a7.934 7.934 0 0 0 .462-1.728l.016.002a.5.5 0 0 0 .541-.455 8.605 8.605 0 0 0 0-1.482.5.5 0 0 0-.557-.453 7.935 7.935 0 0 0-.462-1.728.5.5 0 0 0 .256-.671 8.46 8.46 0 0 0-.742-1.283.5.5 0 0 0-.709-.113 8.05 8.05 0 0 0-1.265-1.265.5.5 0 0 0-.113-.71 8.496 8.496 0 0 0-1.283-.741.5.5 0 0 0-.67.256 7.943 7.943 0 0 0-1.729-.462l.002-.016a.5.5 0 0 0-.455-.541 8.6 8.6 0 0 0-1.482 0 .5.5 0 0 0-.453.557c-.6.09-1.18.246-1.728.462a.5.5 0 0 0-.671-.256c-.45.21-.88.459-1.283.742a.5.5 0 0 0-.113.709A8.048 8.048 0 0 0 5.746 7.01a.5.5 0 0 0-.71.113 8.491 8.491 0 0 0-.741 1.283.5.5 0 0 0 .256.67 7.944 7.944 0 0 0-.462 1.729.5.5 0 0 0-.557.454 8.6 8.6 0 0 0 0 1.48.5.5 0 0 0 .557.454c.09.6.246 1.18.462 1.728a.5.5 0 0 0-.256.671c.21.45.459.88.742 1.283a.5.5 0 0 0 .709.113 8.05 8.05 0 0 0 1.265 1.265.5.5 0 0 0 .113.709c.403.283.832.532 1.283.742a.5.5 0 0 0 .67-.256z" stroke="#EAB308" stroke-linecap="round" stroke-linejoin="bevel" stroke-dasharray="1.5 3"/><path d="M14.8 9.001a2 2 0 0 0-1.8-1h-2a2 2 0 0 0 0 4h2a2 2 0 0 1 0 4h-2a2 2 0 0 1-1.8-1M12 16v2m0-12v2-2z" stroke="#CA8A04" stroke-width="2" stroke-linecap="round" stroke-linejoin="round"/></svg>