<svg fill="none" height="24" width="24" xmlns="http://www.w3.org/2000/svg"><path d="m17.18 4.226a.893.893 0 0 0 -1.262 0l-11.834 11.835a.893.893 0 0 0 0 1.262 9.262 9.262 0 0 0 13.096-13.097z" fill="#fb923c" stroke="#fff" stroke-linecap="round" stroke-linejoin="round" stroke-width="1.786"/><path d="m16.55 16.692a8.369 8.369 0 0 0 0-11.835l-11.836 11.835a8.369 8.369 0 0 0 11.834 0z" fill="#ea580c" stroke="#171717" stroke-linecap="round" stroke-linejoin="round"/><path d="m6.897 14.73a5.439 5.439 0 0 0 7.693-7.69z" fill="#fb923c"/><path d="m6.897 14.73-.353-.353a.5.5 0 0 0 0 .707zm7.693-7.69.354-.354a.5.5 0 0 0 -.708 0zm-3.847 3.845-.353-.353zm0 0v-.5a.5.5 0 0 0 -.5.5zm3.493 4.2a.5.5 0 1 0 .707-.707zm-3.993 1.24a.5.5 0 1 0 1 0zm5.937-4.94a.5.5 0 1 0 0-1zm-9.636 3.7a5.938 5.938 0 0 0 4.2 1.74v-1c-1.31 0-2.567-.521-3.493-1.447zm4.2 1.74a5.939 5.939 0 0 0 4.199-1.74l-.707-.707a4.939 4.939 0 0 1 -3.493 1.446v1zm4.199-1.74a5.939 5.939 0 0 0 1.74-4.2h-1c0 1.31-.52 2.567-1.447 3.493zm1.74-4.2a5.94 5.94 0 0 0 -1.74-4.199l-.707.707a4.939 4.939 0 0 1 1.447 3.493h1zm-9.432 4.2 7.692-7.692-.707-.707-7.692 7.692zm0 0 3.846-3.846-.707-.707-3.846 3.846zm6.985-8.399-3.846 3.846.707.707 3.846-3.846zm-3.846 4.553 3.846 3.846.707-.707-3.846-3.846zm-.147-.354v5.44h1v-5.44zm.5.5h5.437v-1h-5.437z" fill="#171717"/></svg>