<svg width="24" height="24" fill="none" xmlns="http://www.w3.org/2000/svg"><path d="M18.158 20.526c-7.863-.473-14.21-6.82-14.684-14.684a2.345 2.345 0 0 1 2.368-2.368h3.79a.52.52 0 0 1 .473.284L12 8.495c.095.19 0 .473-.19.568l-1.989 1.232c.947 1.61 2.274 3.031 3.979 3.979l1.231-1.99c.095-.19.285-.19.38-.19h.189l4.737 1.895c.19.095.284.285.284.474v3.79a2.478 2.478 0 0 1-2.463 2.273z" fill="#A7F3D0"/><path d="M9.632 3.947l1.894 4.737-2.368 1.421a10.426 10.426 0 0 0 4.737 4.737l1.42-2.368 4.738 1.894v3.79a1.9 1.9 0 0 1-1.895 1.895 15.13 15.13 0 0 1-14.21-14.21 1.9 1.9 0 0 1 1.894-1.896h3.79zm0-.947h-3.79C4.232 3 3 4.232 3 5.842v.095c.474 8.052 7.01 14.59 15.063 15.063h.095C19.768 21 21 19.768 21 18.158v-3.79c0-.379-.19-.758-.568-.852l-4.737-1.895c-.095-.095-.284-.095-.38-.095-.283 0-.662.19-.852.474l-.947 1.61a9.852 9.852 0 0 1-3.127-3.126L12 9.537c.379-.284.568-.758.379-1.137l-1.895-4.737C10.39 3.19 10.011 3 9.632 3z" fill="#fff"/><path d="M18.158 19.579A14.696 14.696 0 0 1 4.42 5.842c0-.758.663-1.421 1.42-1.421h3.506l1.61 4.074-1.989 1.231c-.19.095-.284.38-.19.569 1.043 2.178 2.843 3.884 4.927 4.926.095 0 .095.095.19.095.19 0 .284-.095.379-.19l1.231-1.99 4.074 1.611v3.41c0 .759-.663 1.422-1.421 1.422z" fill="#6EE7B7"/><path d="M8.968 4.895l1.327 3.41-1.61.948c-.38.284-.57.757-.38 1.231a11.559 11.559 0 0 0 5.21 5.21c.095.095.285.095.38.095.284 0 .663-.19.852-.473l1.042-1.706 3.41 1.327v3.22a.95.95 0 0 1-.947.948c-7.2-.474-12.884-6.158-13.357-13.263 0-.474.473-.947.947-.947h3.126zm.663-.948H5.842a1.9 1.9 0 0 0-1.895 1.895 15.13 15.13 0 0 0 14.21 14.21 1.9 1.9 0 0 0 1.895-1.894v-3.79l-4.736-1.894-1.421 2.368a10.426 10.426 0 0 1-4.737-4.737l2.368-1.42-1.895-4.738z" fill="#047857"/></svg>