<?xml version="1.0" encoding="utf-8"?>
<!-- Generator: Adobe Illustrator 27.6.1, SVG Export Plug-In . SVG Version: 6.00 Build 0)  -->
<svg version="1.1" id="Layer_1" xmlns="http://www.w3.org/2000/svg" xmlns:xlink="http://www.w3.org/1999/xlink" x="0px" y="0px"
	 viewBox="0 0 27 27" style="enable-background:new 0 0 27 27;" xml:space="preserve">
<style type="text/css">
	.st0{fill:#EF4444;stroke:#FFFFFF;stroke-width:2;}
	.st1{fill:#D9F99D;stroke:#3F6212;}
	.st2{fill:#B45309;}
</style>
<path class="st0" d="M7.8,19.5c2.4,2.4,5.6,1.5,8,0.2c1.4-0.8,2.3-2.2,3-3.5c0.2-0.4,0.4-0.8,0.6-1.3c0.1-0.2,0.2-0.5,0.3-0.7
	c0.3-0.6,0.6-1.1,0.9-1.5c1.6-1.7,1.6-4.3-0.1-5.9c-1.6-1.6-4.2-1.6-5.8,0c-0.4,0.3-0.9,0.6-1.5,0.9c-0.2,0.1-1.5,0.8-2,1
	c-1.3,0.7-2.7,1.6-3.5,3C6.3,13.9,5.4,17.1,7.8,19.5z"/>
<path class="st1" d="M8.1,19.2c2.1,2.1,5.1,1.4,7.4,0.1c1.3-0.7,2.1-2,2.8-3.3c0.2-0.4,0.4-0.8,0.6-1.2c0.1-0.2,0.2-0.5,0.4-0.7
	c0.3-0.6,0.6-1.2,0.9-1.6c1.4-1.5,1.4-3.8-0.1-5.2c-1.4-1.4-3.7-1.4-5.2,0c-0.5,0.3-1,0.6-1.6,0.9c-0.2,0.1-1.5,0.8-1.9,1
	c-1.3,0.7-2.6,1.5-3.3,2.8C6.7,14.1,6,17,8.1,19.2z"/>
<ellipse transform="matrix(0.7071 -0.7071 0.7071 0.7071 -6.9686 13.1883)" class="st2" cx="12.4" cy="15" rx="3.5" ry="3"/>
</svg>
