<svg width="24" height="24" fill="none" xmlns="http://www.w3.org/2000/svg"><g clip-path="url(#clip0_6994_41628)"><path d="M17.428 12.98c.167 0 .264-.094.29-.281.035-.401.097-.8.185-1.193.049-.247.164-.475.334-.66.192-.17.425-.285.676-.334a13.22 13.22 0 0 1 1.213-.229c.199-.032.3-.13.3-.29a.276.276 0 0 0-.26-.292c-.519-.099-.93-.187-1.235-.267a1.623 1.623 0 0 1-.688-.336 1.261 1.261 0 0 1-.34-.64 8.787 8.787 0 0 1-.185-1.193c-.026-.187-.123-.28-.29-.28a.266.266 0 0 0-.293.27c-.063.519-.13.924-.198 1.219-.046.25-.16.482-.33.67a1.4 1.4 0 0 1-.684.336c-.305.07-.72.141-1.243.213a.264.264 0 0 0-.251.183.268.268 0 0 0-.012.109.277.277 0 0 0 .263.29c.523.098.936.187 1.237.267.25.055.485.172.68.34.17.179.287.403.336.646.088.393.154.792.198 1.193a.262.262 0 0 0 .297.258zm-3.64-5.242c.095 0 .154-.056.172-.165.057-.304.132-.604.225-.899a.618.618 0 0 1 .374-.397c.304-.108.617-.188.936-.239a.18.18 0 0 0 .155-.185.167.167 0 0 0-.155-.175 6.235 6.235 0 0 1-.932-.242.625.625 0 0 1-.374-.382 6.998 6.998 0 0 1-.229-.909.162.162 0 0 0-.173-.155.179.179 0 0 0-.185.155c-.056.307-.13.61-.225.909a.597.597 0 0 1-.373.382 6.389 6.389 0 0 1-.927.242c-.11.02-.165.08-.165.175a.183.183 0 0 0 .165.185c.316.052.626.132.927.239a.638.638 0 0 1 .38.397c.095.294.168.594.218.899a.183.183 0 0 0 .185.165z" fill="#4D4D4D"/><path d="M11.757 19.994a7.198 7.198 0 0 0 2.602-.461 6.255 6.255 0 0 0 2.104-1.329 6.1 6.1 0 0 0 1.418-2.087.925.925 0 0 0 .077-.47.597.597 0 0 0-.145-.326.442.442 0 0 0-.286-.12.938.938 0 0 0-.398.063 4.674 4.674 0 0 1-.956.266 6.805 6.805 0 0 1-1.17.092 6.128 6.128 0 0 1-2.932-.664 4.738 4.738 0 0 1-1.927-1.873 5.686 5.686 0 0 1-.684-2.842 7.25 7.25 0 0 1 .121-1.358c.052-.33.145-.654.277-.962.16-.33.16-.589 0-.776a.535.535 0 0 0-.32-.175.903.903 0 0 0-.495.078A5.794 5.794 0 0 0 6.93 8.442a6.736 6.736 0 0 0-1.428 2.203 7.174 7.174 0 0 0-.509 2.71c-.008.896.16 1.785.496 2.617.32.79.797 1.509 1.401 2.111a6.421 6.421 0 0 0 2.146 1.392 7.158 7.158 0 0 0 2.72.519zm.02-1.32a5.535 5.535 0 0 1-2.816-.71 5.092 5.092 0 0 1-1.933-1.937 5.532 5.532 0 0 1-.697-2.783c-.003-.587.08-1.17.246-1.732a5.52 5.52 0 0 1 .724-1.535A5.64 5.64 0 0 1 8.436 8.74a4.21 4.21 0 0 0-.199.863 8.352 8.352 0 0 0-.063 1.03 6.43 6.43 0 0 0 .815 3.267 5.742 5.742 0 0 0 2.273 2.203 6.974 6.974 0 0 0 3.38.795c.293.002.587-.013.879-.044a3.4 3.4 0 0 0 .616-.11 4.982 4.982 0 0 1-1.87 1.41 5.98 5.98 0 0 1-2.49.526v-.006z" fill="#212121"/></g><defs><clipPath id="clip0_6994_41628"><path fill="#fff" transform="translate(5 4)" d="M0 0h15.427v16H0z"/></clipPath></defs></svg>