<?xml version="1.0" encoding="utf-8"?>
<!-- Generator: Adobe Illustrator 27.6.1, SVG Export Plug-In . SVG Version: 6.00 Build 0)  -->
<svg version="1.1" id="Layer_1" xmlns="http://www.w3.org/2000/svg" xmlns:xlink="http://www.w3.org/1999/xlink" x="0px" y="0px"
	 viewBox="0 0 24 24" style="enable-background:new 0 0 24 24;" xml:space="preserve">
<style type="text/css">
	.st0{clip-path:url(#SVGID_00000116195695297447585540000007103288160148669617_);}
</style>
<g>
	<defs>
		<rect id="SVGID_1_" x="4" y="9" width="16" height="6.3"/>
	</defs>
	<clipPath id="SVGID_00000070820688560978691930000005654340627112505508_">
		<use xlink:href="#SVGID_1_"  style="overflow:visible;"/>
	</clipPath>
	<g style="clip-path:url(#SVGID_00000070820688560978691930000005654340627112505508_);">
		<path d="M8.2,15.4c0.4,0,0.8-0.1,1.2-0.2c0.8-0.3,1.4-0.9,1.7-1.7c0.7-1.6-0.1-3.5-1.7-4.2c-0.8-0.3-1.7-0.3-2.5,0
			c-0.8,0.3-1.4,0.9-1.7,1.7c-0.3,0.8-0.3,1.7,0,2.5C5.7,14.6,6.9,15.4,8.2,15.4L8.2,15.4z M8.2,14.4c-0.4,0-0.8-0.1-1.1-0.3
			c-1.1-0.6-1.4-2-0.8-3c0,0,0,0,0,0c0.2-0.3,0.5-0.6,0.8-0.8c0.7-0.4,1.5-0.4,2.2,0c1,0.6,1.4,1.9,0.8,3c0,0,0,0,0,0
			c-0.2,0.3-0.5,0.6-0.8,0.8C8.9,14.3,8.6,14.4,8.2,14.4L8.2,14.4z M15.8,15.4c0.4,0,0.8-0.1,1.2-0.2c0.8-0.3,1.4-0.9,1.7-1.7
			c0.3-0.8,0.3-1.7,0-2.5c-0.3-0.8-0.9-1.4-1.7-1.7c-0.8-0.3-1.7-0.3-2.5,0c-0.8,0.3-1.4,0.9-1.7,1.7c-0.3,0.8-0.3,1.7,0,2.5
			c0.3,0.8,0.9,1.4,1.7,1.7C15,15.3,15.4,15.4,15.8,15.4z M15.8,14.4c-0.4,0-0.8-0.1-1.1-0.3c-0.3-0.2-0.6-0.5-0.8-0.8
			c-0.4-0.7-0.4-1.5,0-2.2c0.2-0.3,0.5-0.6,0.8-0.8c1-0.6,2.4-0.3,3,0.8c0,0,0,0,0,0c0.4,0.7,0.4,1.5,0,2.2
			c-0.2,0.3-0.5,0.6-0.8,0.8C16.6,14.3,16.2,14.4,15.8,14.4L15.8,14.4z M5.4,11.5h-1c-0.3,0-0.4,0.1-0.4,0.4v0.2
			c0,0.3,0.1,0.4,0.4,0.4h1V11.5L5.4,11.5z M18.6,12.6h1c0.3,0,0.4-0.1,0.4-0.4v-0.2c0-0.3-0.1-0.4-0.4-0.4h-1V12.6L18.6,12.6z
			 M11.1,12.4c0.1-0.1,0.3-0.1,0.4-0.2c0.3-0.1,0.7-0.1,1,0c0.2,0,0.3,0.1,0.4,0.2v-1c-0.1-0.1-0.3-0.1-0.5-0.1
			c-0.3-0.1-0.6-0.1-0.9,0c-0.2,0-0.3,0.1-0.5,0.1V12.4z"/>
	</g>
</g>
</svg>
