<svg width="24" height="24" fill="none" xmlns="http://www.w3.org/2000/svg"><g clip-path="url(#clip0_6988_41354)"><path d="M14.085 10.893l.004.003a3.654 3.654 0 0 0 2.78.425c-.173.15-.358.285-.553.405l-.004.003a5.718 5.718 0 0 1-1.227.581c-.123.04-.243.088-.36.142-.117.052-.227.12-.325.203l-.017.014-.016.016a1.02 1.02 0 0 0-.233.367 1.116 1.116 0 0 0-.068.388 1.01 1.01 0 0 0 .08.42l.46-.196-.46.196c.06.136.147.258.257.357l.005.005c.216.188.495.287.78.277.136 0 .27-.014.403-.042l.009-.001.008-.002c.143-.035.285-.078.424-.129a7.15 7.15 0 0 0 1.48-.711c.46-.287.88-.629 1.255-1.019a6.051 6.051 0 0 0 1.731-4.305 5.334 5.334 0 0 0-.569-2.54l-.002-.005a4.176 4.176 0 0 0-1.56-1.661l-.002-.002a4.107 4.107 0 0 0-2.126-.574 4.012 4.012 0 0 0-2.048.525l-.002.001a3.92 3.92 0 0 0-1.436 1.43l-.003.007a3.953 3.953 0 0 0-.506 2.016c-.008.69.163 1.37.495 1.976a3.81 3.81 0 0 0 1.346 1.43zm-6.828.535c.296 0 .59-.035.876-.106-.172.15-.355.285-.548.406l-.004.002a5.522 5.522 0 0 1-1.211.579c-.126.04-.248.086-.368.139a1.187 1.187 0 0 0-.347.221l-.006.006-.007.006a1.024 1.024 0 0 0-.304.761 1.016 1.016 0 0 0 .331.765l.006.005.005.005c.217.185.494.283.779.275.135 0 .27-.015.402-.043h.003c.119-.026.272-.072.442-.125l.007-.003.007-.002a7.258 7.258 0 0 0 1.474-.713 6.87 6.87 0 0 0 1.262-1.017l.005-.005a6.352 6.352 0 0 0 1.25-1.908v-.002a6.05 6.05 0 0 0 .468-2.39 5.31 5.31 0 0 0-.57-2.543l-.002-.003a4.174 4.174 0 0 0-1.558-1.662l-.003-.001A4.107 4.107 0 0 0 7.52 3.5a4.025 4.025 0 0 0-2.05.525h-.001c-.6.342-1.099.836-1.444 1.433l-.001.002A3.953 3.953 0 0 0 3.5 7.486 4.004 4.004 0 0 0 4 9.465a3.858 3.858 0 0 0 1.349 1.428 3.552 3.552 0 0 0 1.909.535z" fill="#000" stroke="#FAFAFA"/></g><defs><clipPath id="clip0_6988_41354"><path fill="#fff" transform="rotate(-180 10.5 8)" d="M0 0h18v13H0z"/></clipPath></defs></svg>