<svg fill="none" height="24" width="24" xmlns="http://www.w3.org/2000/svg"><g stroke-linecap="round" stroke-linejoin="round"><path d="m8.682 12a3.318 3.318 0 1 1 6.636 0 3.318 3.318 0 0 1 -6.636 0zm3.318-6.5a6.5 6.5 0 1 0 0 13 6.5 6.5 0 0 0 0-13z" fill="#7f1d1d" stroke="#fff"/><path d="m12 17.392a5.393 5.393 0 1 0 0-10.785 5.393 5.393 0 0 0 0 10.785z" stroke="#dc2626" stroke-width="3.319"/><path d="m15 15 2 2m-8-2-2 2m0-10 2 2m8-2-2 2" stroke="#fff" stroke-width="1.414"/><path d="m12 20.5a8.5 8.5 0 1 0 0-17 8.5 8.5 0 0 0 0 17z" stroke="#fff"/><g stroke="#7f1d1d"><path d="m19.5 12a7.5 7.5 0 1 1 -15 0 7.5 7.5 0 0 1 15 0z"/><path d="m12 15.983a3.983 3.983 0 1 0 0-7.966 3.983 3.983 0 0 0 0 7.966z" stroke-width=".5"/></g></g></svg>