<svg fill="none" height="24" width="24" xmlns="http://www.w3.org/2000/svg"><path d="m18 4h-12a2 2 0 0 0 -2 2v12a2 2 0 0 0 2 2h12a2 2 0 0 0 2-2v-12a2 2 0 0 0 -2-2z" fill="#0891b2"/><path d="m6 4h14v14a2 2 0 0 1 -2 2h-12a2 2 0 0 1 -2-2v-12a2 2 0 0 1 2-2z" fill="#fbbf24"/><path d="m4.6 19.4 14.8-14.8" stroke="#0891b2" stroke-linecap="round" stroke-linejoin="round" stroke-width="2"/><path d="m20 4h-16v16z" fill="#fde047"/><g stroke-linejoin="round"><path d="m14 9-4-4m-1 9-4-4m7 2-7-7" stroke="#0891b2" stroke-linecap="square" stroke-width="2"/><path d="m17 7-3-3m-7 13-3-3" stroke="#0891b2" stroke-linecap="round" stroke-width="2"/><path d="m6 4.5h12a1.5 1.5 0 0 1 1.5 1.5v12a1.5 1.5 0 0 1 -1.5 1.5h-12a1.5 1.5 0 0 1 -1.5-1.5v-12a1.5 1.5 0 0 1 1.5-1.5z" stroke="#0891b2" stroke-linecap="round"/><path d="m18 3.5h-12a2.5 2.5 0 0 0 -2.5 2.5v12a2.5 2.5 0 0 0 2.5 2.5h12a2.5 2.5 0 0 0 2.5-2.5v-12a2.5 2.5 0 0 0 -2.5-2.5z" stroke="#fff" stroke-linecap="round"/></g></svg>