<svg fill="none" height="24" width="24" xmlns="http://www.w3.org/2000/svg"><path d="m13.526 5.684c0 1.284.4 2.536 1.145 3.582l.04.055a6.389 6.389 0 0 1 1.184 3.706v4.894a1.579 1.579 0 0 1 -1.58 1.579h-4.735a1.579 1.579 0 0 1 -1.58-1.58v-4.894c0-1.328.414-2.622 1.184-3.705l.04-.055a6.176 6.176 0 0 0 1.144-3.582" fill="#f5f5f5"/><g stroke-linejoin="round"><path d="m8.5 14.95c.28-.042.52-.112.698-.2.16-.08.37-.143.614-.187.244-.043.514-.065.787-.063.272-.002.542.02.786.063.244.044.455.108.614.187.159.08.37.143.614.187.244.043.514.065.786.063.273.002.543-.02.787-.063a2.33 2.33 0 0 0 .614-.187c.178-.088.371-.207.651-.25" stroke="#fef08a" stroke-linecap="square"/><path d="m13.526 5.684c0 1.284.4 2.536 1.145 3.582l.04.055a6.389 6.389 0 0 1 1.184 3.706v4.894a1.579 1.579 0 0 1 -1.58 1.579h-4.735a1.579 1.579 0 0 1 -1.58-1.58v-4.894c0-1.328.414-2.622 1.184-3.705l.04-.055a6.176 6.176 0 0 0 1.144-3.582" stroke="#d4d4d4" stroke-linecap="round"/><path d="m10.368 6.868h3.158v-1.578a.79.79 0 0 0 -.79-.789h-1.578a.79.79 0 0 0 -.79.79v1.578z" fill="#fafafa" stroke="#d4d4d4" stroke-linecap="round"/></g></svg>