<?xml version="1.0" encoding="utf-8"?>
<!-- Generator: Adobe Illustrator 27.6.1, SVG Export Plug-In . SVG Version: 6.00 Build 0)  -->
<svg version="1.1" id="Layer_1" xmlns="http://www.w3.org/2000/svg" xmlns:xlink="http://www.w3.org/1999/xlink" x="0px" y="0px"
	 viewBox="0 0 24 24" style="enable-background:new 0 0 24 24;" xml:space="preserve">
<style type="text/css">
	.st0{fill:#FAFAFA;stroke:#171717;stroke-linecap:round;stroke-linejoin:round;}
	.st1{fill:none;stroke:#047857;stroke-width:2;stroke-linecap:round;stroke-linejoin:round;}
</style>
<g>
	<path class="st0" d="M6,20V5.8C6,4.8,6.8,4,7.8,4h8.9c1,0,1.8,0.8,1.8,1.8V20l-2.7-1.8L14,20l-1.8-1.8L10.4,20l-1.8-1.8L6,20z"/>
	<path class="st1" d="M14,8.4h-2.2c-0.7,0-1.3,0.6-1.3,1.3s0.6,1.3,1.3,1.3h0.9c0.7,0,1.3,0.6,1.3,1.3s-0.6,1.3-1.3,1.3h-2.2
		 M12.2,13.8v1.3 M12.2,7.1v1.3"/>
</g>
</svg>
