<svg fill="none" height="24" width="24" xmlns="http://www.w3.org/2000/svg"><path d="m21.499 9.18-9.385-4.68c-2.511.112-4.757 1.331-6.326 3.21-1.423 1.708-2.288 3.959-2.288 6.427 0 1.985.56 3.83 1.519 5.364" fill="#facc15"/><path d="m21.499 9.18-9.385-4.68c-2.511.112-4.757 1.331-6.326 3.21-1.423 1.708-2.288 3.959-2.288 6.427 0 1.985.56 3.83 1.519 5.364h16.48m-16.479 0 16.48-.008v-3.28c-.53 0-1.04-.198-1.414-.55a1.817 1.817 0 0 1 -.586-1.326c0-.497.21-.974.586-1.325a2.07 2.07 0 0 1 1.414-.55v-3.28" stroke="#fff" stroke-linecap="round" stroke-linejoin="round" stroke-width="3"/><path d="m21.499 9.18-9.385-4.68c-2.511.112-4.757 1.331-6.326 3.21-1.423 1.708-2.288 3.959-2.288 6.427 0 1.985.56 3.83 1.519 5.364" fill="#facc15"/><path d="m5.02 19.5 16.48-.008v-3.28c-.53 0-1.04-.198-1.414-.55a1.817 1.817 0 0 1 -.586-1.326c0-.497.21-.974.586-1.325a2.07 2.07 0 0 1 1.414-.55v-3.28h-16.72" fill="#facc15"/><path d="m21.499 9.18-9.385-4.68c-2.511.112-4.757 1.331-6.326 3.21-1.423 1.708-2.288 3.959-2.288 6.427 0 1.985.56 3.83 1.519 5.364h16.48m-16.479 0 16.48-.008v-3.28c-.53 0-1.04-.198-1.414-.55a1.817 1.817 0 0 1 -.586-1.326c0-.497.21-.974.586-1.325a2.07 2.07 0 0 1 1.414-.55v-3.28h-16.72" stroke="#713f12" stroke-linecap="round" stroke-linejoin="round"/><g fill="#eab308"><circle cx="9" cy="13" r="1"/><circle cx="15" cy="13" r="1"/><circle cx="12" cy="16" r="1"/></g></svg>