<?xml version="1.0" encoding="utf-8"?>
<!-- Generator: Adobe Illustrator 26.3.1, SVG Export Plug-In . SVG Version: 6.00 Build 0)  -->
<svg version="1.1" id="Layer_1" xmlns="http://www.w3.org/2000/svg" xmlns:xlink="http://www.w3.org/1999/xlink" x="0px" y="0px"
	 viewBox="0 0 3000 1884" style="enable-background:new 0 0 3000 1884;" xml:space="preserve">
<style type="text/css">
	.st0{display:none;}
	.st1{display:inline;fill:#AF2323;}
	.st2{display:none;stroke:#FCFCFC;stroke-width:3;stroke-miterlimit:10;}
	.st3{fill:#020202;}
</style>
<g class="st0">
	<rect class="st1" width="2996.9" height="1880.3"/>
</g>
<path class="st2" d="M2731.4,320.9C2336.9,46.2,704.4-117.5,299.2,101.8C98.2,210.4-0.1,521.3,0,840.5
	c0.1,321.7,100.2,651.8,295.9,792.2c1.5,1,3,2.2,4.7,3.2c394.3,274.7,1959.8,333.6,2365,114.3
	C3070.6,1531.2,3125.8,595.6,2731.4,320.9L2731.4,320.9z M2864,1460.9c-28,61.2-61.4,115.2-99.2,160c-39.9,47.4-84.6,84.8-133,110.9
	c-118.5,64.2-322.4,95.5-472.4,110.6c-132,13.2-278.6,19.9-432.7,19.9c-80.8,0-163.6-1.9-247.5-5.5c-246.6-10.9-481.1-37-678.3-75.5
	c-103.9-20.3-195.8-43.8-272.7-69.7c-81.8-27.6-147-58.2-193.8-90.8c-0.2-0.2-0.5-0.3-0.7-0.5c-0.1-0.1-0.2-0.1-0.3-0.2
	c-99.6-69.8-179.7-193.1-231.7-356.5c-40.4-127.3-61.9-274.3-61.9-421.1V842c0-0.1,0-0.2,0-0.2v-0.2c0-26.1,0.7-52.1,2.1-78.1
	c8-145.3,36.8-280,83.6-389.4c24.8-58,54.4-108.6,88.2-150.2c35.2-43.6,75-77.7,118.4-101.4c0.6-0.3,1.2-0.6,1.8-1
	C382.1,95.4,449.5,74.1,534.3,58C614,42.6,709,32.1,816.9,26.6c204.4-10.6,447.3-3.5,702.5,20.5c252.5,23.8,494.8,62,700.5,110.3
	c220.5,51.9,385.3,112.9,476.4,176.4c47.2,32.9,89.5,76.5,125.4,129.7c34,50.1,62.3,108.8,84.4,174.2c42,124.5,60,269.2,52,418.3
	C2950.3,1203.6,2917.7,1343.5,2864,1460.9L2864,1460.9z M2767.3,488c-33.7-49.9-73.2-90.7-117.4-121.4
	c-86.8-60.4-244.4-118.6-456.2-168.4c-198.7-46.8-432.5-83.6-676.4-106.5c-246.5-23.2-481-30.1-678.1-19.9
	c-213.4,11-373,42.2-461.2,90c-40.9,22.1-78.4,54.1-111.8,95.3c-31.8,39.2-59.7,86.9-83,141.8c-44.5,104.2-72,232.7-79.4,371.4
	c-1.4,24.7-1.9,49.7-2,74.7v0.4v0.3v0.2c0,140.4,20.3,280.9,59.1,402.7c49.5,155.4,125.1,272.1,219.2,337.6
	c86.1,59.9,240.3,112.8,446.1,153c190.2,37.1,416.5,62.4,654.6,72.8c235.4,10.4,462.5,5.6,656.6-13.8
	c206.4-20.7,362.7-57,451.7-105.3c88-47.6,163.4-135.8,217.9-254.9c51.2-111.9,82.2-245.3,89.8-385.9
	c7.7-142.4-9.5-280.3-49.5-398.9C2826.2,590.8,2799.4,535.4,2767.3,488L2767.3,488z M2668.5,523.4c-31.1-46-67.5-83.7-108.2-112
	c-80-55.7-225.4-109.4-420.6-155.3c-183.2-43.1-398.8-77.1-623.6-98.2c-227.2-21.4-443.5-27.8-625.2-18.3
	c-196.8,10.2-343.9,38.9-425.2,83c-37.7,20.4-72.3,49.9-103,87.9c-29.3,36.2-55,80.1-76.5,130.7c-41.1,96.1-66.3,214.6-73.2,342.4
	c-1.3,22.8-1.8,45.8-1.9,68.8v0.4v0.3v0.2c0,129.5,18.8,259,54.5,371.3c45.6,143.3,115.4,250.9,202.1,311.3
	c79.4,55.3,221.5,104,411.3,141.1c175.4,34.2,384,57.5,603.5,67.1c217.1,9.6,426.4,5.2,605.4-12.8c190.3-19.1,334.4-52.6,416.4-97.1
	c81.2-43.8,150.6-125.2,200.9-235c47.2-103.1,75.8-226.2,82.8-355.8c7.1-131.3-8.8-258.4-45.6-367.8
	C2722.8,618.3,2698,567.1,2668.5,523.4L2668.5,523.4z"/>
<path d="M2665.6,1750.2c-405.2,219.3-1970.7,160.4-2365-114.3c-1.7-1-3.2-2.2-4.7-3.2C100.2,1492.3,0.1,1162.2,0,840.5
	c-0.1-319.2,98.2-630.1,299.2-738.7c405.2-219.3,2037.7-55.6,2432.2,219.1C3125.8,595.6,3070.6,1531.2,2665.6,1750.2z M119.6,386.3
	c-26.3,64.1-46.1,136-59.4,212.5C46.7,676.2,40,757.9,40,840.5c0,81.8,6.7,163.9,19.9,243.2c13.1,78.8,32.5,154.2,58.1,223.1
	c47.5,128.2,115.3,231.6,200.9,293.2c0.1,0.1,0.5,0.3,0.6,0.4c0.9,0.6,3,2.2,4,2.7c46,32,116.3,65.3,215.1,96.5
	c97.9,31,215.1,57.5,345.3,79.1c259.2,43,564.6,65.6,854.6,65.3c0,0,0.1,0,0.1,0c203.6-0.2,396.7-11.7,557.5-34.6
	c166.4-23.6,281.8-57.1,350.6-94.3c86.7-46.9,158-131.8,210.7-240.5c28.6-58.9,51.5-124.3,68.4-193.6
	c17.1-70.1,27.9-143.8,32.2-218.3c4.4-75.7,2-151.7-7.3-225.1c-9.2-72.7-25.1-142.3-47.8-206.3c-42.2-119.3-107.4-217-194.2-277.5
	c-54.5-38-142.9-78.9-270.1-118.9c-123.9-39.1-272.7-74-436.4-103.3c-327.4-58.6-702.3-92.6-1023.3-91.5
	c-154.5,0.5-294.3,9.2-410.6,26.7C451.6,84.1,370,109,318.2,137C233.5,182.8,166.7,271.1,119.6,386.3z M153,410.5
	C129.1,471,110.9,539,98.5,611.9C86.2,685.1,80,762.1,80,840.5c0,78.2,6.3,156.5,18.6,232.1c12.3,75.7,30.5,147.6,54.3,213.2
	c45.7,126.3,110.2,224.7,189,281.5c0.1,0,0.5,0.3,0.6,0.4c0.4,0.3,3.4,2.4,3.9,2.7c38.7,26.9,104.6,60.3,211.6,93.4
	c95.4,29.7,210,55.4,339.1,76.6c253,41.5,551.9,63.8,838.8,63.7c0,0,0.1,0,0.1,0c201.1-0.1,390.5-11.4,547.2-33.2
	c180.8-25.1,286.8-59.7,344.5-90.9c79.4-42.9,146.7-123.2,197-229.7c26.4-55.7,47.7-117.7,63.5-183.8c15.9-66.4,25.9-136.1,30-206.8
	c4.1-71.9,1.9-143.7-6.6-213.1c-8.5-69.3-23.3-135.3-44.1-195.6C2827,534.3,2765.3,442,2685.7,386.6
	c-45.9-32-127.9-72.7-265.7-115.7c-121.1-37.8-266.3-71.8-428.7-100.7c-323-57.5-690.2-90.8-1004.9-90.2
	c-153.4,0.3-289.9,8.5-403.3,24.9c-126.9,18.2-202.7,43.8-245.9,67.2C260.4,213.7,197.6,297.1,153,410.5z M1733.3,1764
	c198.6,0,384.2-11,536.8-31.8c195.2-26.6,291.7-62.3,338.4-87.5c72-38.9,135.4-114.6,183.4-218.8c24.2-52.5,43.8-111.1,58.5-174
	c14.6-62.7,23.9-128.4,27.7-195.3c3.8-68.1,1.8-135.8-6-201.2c-7.9-66-21.5-128.2-40.5-184.9c-38.1-113.8-96.5-200.7-168.9-251
	c-37.3-26-112.9-66.5-261.3-112.4c-118.3-36.5-259.9-69.5-421-98.1c-318.6-56.5-678.1-88.9-986.4-88.9c-152.2,0-285.5,7.8-396,23.2
	c-137.1,19.1-207.2,45.4-241.9,64.2c-68.9,37.2-127.6,115.8-169.8,227.3c-21.6,56.9-38.2,121-49.5,190.3
	C125.7,693.9,120,766.4,120,840.5c0,74.7,5.8,149,17.3,221c11.5,72.6,28.5,141,50.5,203.2c43.9,124.5,105.1,217.7,177.1,269.8
	l0.6,0.3l3.8,2.6c31.3,21.8,92.8,55.2,208.2,90.4c92.9,28.4,204.9,53.3,332.9,74C1157.2,1741.9,1449.5,1764,1733.3,1764
	C1733.2,1764,1733.3,1764,1733.3,1764z"/>
<path class="st3" d="M2872.1,855.3c-7.9-66-21.5-128.2-40.5-184.9c-38.1-113.8-96.5-200.7-168.9-251.1
	c-37.3-25.9-112.9-66.5-261.3-112.4c-118.3-36.5-259.9-69.5-421-98.1c-318.6-56.5-678.1-88.9-986.4-88.9
	c-152.2,0-285.5,7.8-396,23.1c-137.1,19.1-207.2,45.4-241.9,64.2c-68.9,37.2-127.6,115.8-169.8,227.3
	c-21.6,56.9-38.2,121-49.5,190.3C125.7,693.9,120,766.4,120,840.5c0,74.7,5.8,149,17.3,221c11.5,72.6,28.5,141,50.5,203.2
	c43.9,124.5,105.1,217.7,177.1,269.8l0.6,0.3l3.8,2.6c31.3,21.8,92.8,55.2,208.2,90.4c92.9,28.4,204.9,53.3,332.9,74
	c246.9,40,539.2,62,822.9,62.1h0.1c198.6,0,384.2-11,536.8-31.8c195.1-26.6,291.7-62.3,338.4-87.5c72-38.9,135.4-114.6,183.4-218.8
	c24.2-52.5,43.8-111,58.5-174c14.6-62.7,23.9-128.4,27.7-195.3C2881.9,988.4,2879.9,920.7,2872.1,855.3z M2868.1,1056
	c-3.7,66.3-13,131.4-27.5,193.6c-14.5,62.3-34,120.2-57.8,172.1c-47,102.2-109,176.3-179,214.2c-45.9,24.9-141.3,60-335,86.4
	c-152.2,20.7-337.3,31.7-535.5,31.7h-0.1c-283.2,0-574.9-22-821.3-61.9c-127.5-20.7-239.1-45.5-331.6-73.7
	c-114.1-34.8-174.7-67.7-205.4-89.1l-3.8-2.6l-0.3-0.2l-0.3-0.2l-0.2-0.1c-70.1-50.9-130-142.5-173.1-264.8
	c-21.8-61.7-38.6-129.5-50-201.5C135.8,988.4,130,914.6,130,840.5c0-73.6,5.6-145.5,16.8-213.9c11.2-68.7,27.7-132.1,49-188.4
	c41.4-109.2,98.5-186,165.2-222c34-18.4,102.9-44.3,238.5-63.1C709.6,137.8,842.4,130,994.1,130c307.7,0,666.6,32.3,984.6,88.8
	c160.6,28.5,301.9,61.4,419.8,97.8c147.2,45.5,221.9,85.5,258.6,111c70.6,49.2,127.6,134.2,165.1,246c18.8,56,32.2,117.6,40,182.9
	C2869.9,921.3,2871.9,988.4,2868.1,1056z M2911.4,846.5c-8.5-69.3-23.3-135.3-44.1-195.6c-40.2-116.6-101.9-208.9-181.5-264.3
	c-45.9-32-127.9-72.7-265.7-115.7c-121.1-37.8-266.3-71.8-428.7-100.7C1671,113.2,1307.2,80,994.4,80c-2.6,0-5.3,0-7.9,0
	c-153.3,0.3-289.9,8.5-403.3,24.9c-126.9,18.2-202.7,43.9-246,67.2C260.4,213.7,197.7,297.1,153,410.5
	C129.1,471,110.9,539,98.5,611.9C86.2,685.1,80,762.1,80,840.5c0,78.2,6.2,156.5,18.6,232.1c12.3,75.7,30.5,147.6,54.3,213.2
	c45.7,126.3,110.2,224.7,189,281.5c0.1,0.1,0.5,0.3,0.6,0.4c0.4,0.3,3.4,2.4,3.9,2.7c38.6,26.9,104.6,60.3,211.6,93.4
	c95.4,29.7,210,55.4,339.1,76.6c252.3,41.4,550.1,63.7,836.2,63.7h2.6c0,0,0.1,0,0.1,0c201.1-0.1,390.5-11.4,547.2-33.2
	c180.8-25.1,286.8-59.7,344.5-90.9c79.4-42.9,146.7-123.2,197-229.7c26.4-55.7,47.7-117.7,63.5-183.8c15.9-66.4,25.9-136.1,30-206.8
	C2922.1,987.7,2919.9,915.8,2911.4,846.5z M2901.4,1058.6c-4,69.9-13.9,138.5-29.5,203.9c-15.6,65.5-36.6,126.2-62.3,180.6
	c-49.6,105-115.3,181.8-189.9,222.1c-47.7,25.8-145.1,62.2-338.8,89.1c-154.4,21.5-342.8,32.9-544.9,33.1h-2.7
	c-287.9,0-583.9-22.5-833.5-63.5c-129.8-21.3-243.1-46.9-336.9-76c-113.4-35.2-175.2-69-207-91.2l-0.5-0.4l-0.2-0.1
	c-0.4-0.3-1.3-0.9-2.5-1.8l-0.6-0.4c-0.3-0.2-0.6-0.4-0.8-0.5c-74.2-53.7-137.3-148.2-182.6-273.3c-23.3-64.2-41.3-134.9-53.5-210.2
	c-12.2-74.6-18.3-151.8-18.4-229.4c0-77.8,6.1-153.8,18.3-225.8c12.2-72.4,30.2-139.1,53.6-198.1c21.9-55.5,48-103.3,77.8-142
	c29.8-38.9,63.1-68.4,98.9-87.7c35.4-19.2,105.9-46.1,240.4-65.4C697,105.3,831.9,97,986.5,96.7c2.6,0,5.3,0,7.9,0h0
	c310.9,0,673.1,32.8,994,89.9c163.6,29.1,307.1,62.8,426.6,100.2c147,45.8,223.1,87,261.1,113.4c75,52.2,135.6,140.8,175.3,256.1
	c20.3,58.8,34.9,123.4,43.4,192.2C2903.2,916.7,2905.4,987.4,2901.4,1058.6z M2831.7,670.4c-38.1-113.8-96.5-200.7-168.9-251.1
	c-37.3-25.9-112.9-66.5-261.3-112.4c-118.3-36.5-259.9-69.5-421-98.1c-318.6-56.5-678.1-88.9-986.4-88.9
	c-152.2,0-285.5,7.8-396,23.1c-137.1,19.1-207.2,45.4-241.9,64.2c-68.9,37.2-127.6,115.8-169.8,227.3
	c-21.6,56.9-38.2,121-49.5,190.3C125.7,693.9,120,766.4,120,840.5c0,74.7,5.8,149,17.3,221c11.5,72.6,28.5,141,50.5,203.2
	c43.9,124.5,105.1,217.7,177.1,269.8l0.6,0.3l3.8,2.6c31.3,21.8,92.8,55.2,208.2,90.4c92.9,28.4,204.9,53.3,332.9,74
	c246.9,40,539.2,62,822.9,62.1h0.1c198.6,0,384.2-11,536.8-31.8c195.1-26.6,291.7-62.3,338.4-87.5c72-38.9,135.4-114.6,183.4-218.8
	c24.2-52.5,43.8-111,58.5-174c14.6-62.7,23.9-128.4,27.7-195.3c3.8-68.1,1.8-135.8-6-201.2C2864.3,789.3,2850.7,727.1,2831.7,670.4z
	 M2868.1,1056c-3.7,66.3-13,131.4-27.5,193.6c-14.5,62.3-34,120.2-57.8,172.1c-47,102.2-109,176.3-179,214.2
	c-45.9,24.9-141.3,60-335,86.4c-152.2,20.7-337.3,31.7-535.5,31.7h-0.1c-283.2,0-574.9-22-821.3-61.9
	c-127.5-20.7-239.1-45.5-331.6-73.7c-114.1-34.8-174.7-67.7-205.4-89.1l-3.8-2.6l-0.3-0.2l-0.3-0.2l-0.2-0.1
	c-70.1-50.9-130-142.5-173.1-264.8c-21.8-61.7-38.6-129.5-50-201.5C135.8,988.4,130,914.6,130,840.5c0-73.6,5.6-145.5,16.8-213.9
	c11.2-68.7,27.7-132.1,49-188.4c41.4-109.2,98.5-186,165.2-222c34-18.4,102.9-44.3,238.5-63.1C709.6,137.8,842.4,130,994.1,130
	c307.7,0,666.6,32.3,984.6,88.8c160.6,28.5,301.9,61.4,419.8,97.8c147.2,45.5,221.9,85.5,258.6,111c70.6,49.2,127.6,134.2,165.1,246
	c18.8,56,32.2,117.6,40,182.9C2869.9,921.3,2871.9,988.4,2868.1,1056z M2872.1,855.3c-7.9-66-21.5-128.2-40.5-184.9
	c-38.1-113.8-96.5-200.7-168.9-251.1c-37.3-25.9-112.9-66.5-261.3-112.4c-118.3-36.5-259.9-69.5-421-98.1
	c-318.6-56.5-678.1-88.9-986.4-88.9c-152.2,0-285.5,7.8-396,23.1c-137.1,19.1-207.2,45.4-241.9,64.2
	c-68.9,37.2-127.6,115.8-169.8,227.3c-21.6,56.9-38.2,121-49.5,190.3C125.7,693.9,120,766.4,120,840.5c0,74.7,5.8,149,17.3,221
	c11.5,72.6,28.5,141,50.5,203.2c43.9,124.5,105.1,217.7,177.1,269.8l0.6,0.3l3.8,2.6c31.3,21.8,92.8,55.2,208.2,90.4
	c92.9,28.4,204.9,53.3,332.9,74c246.9,40,539.2,62,822.9,62.1h0.1c198.6,0,384.2-11,536.8-31.8c195.1-26.6,291.7-62.3,338.4-87.5
	c72-38.9,135.4-114.6,183.4-218.8c24.2-52.5,43.8-111,58.5-174c14.6-62.7,23.9-128.4,27.7-195.3
	C2881.9,988.4,2879.9,920.7,2872.1,855.3z M2868.1,1056c-3.7,66.3-13,131.4-27.5,193.6c-14.5,62.3-34,120.2-57.8,172.1
	c-47,102.2-109,176.3-179,214.2c-45.9,24.9-141.3,60-335,86.4c-152.2,20.7-337.3,31.7-535.5,31.7h-0.1c-283.2,0-574.9-22-821.3-61.9
	c-127.5-20.7-239.1-45.5-331.6-73.7c-114.1-34.8-174.7-67.7-205.4-89.1l-3.8-2.6l-0.3-0.2l-0.3-0.2l-0.2-0.1
	c-70.1-50.9-130-142.5-173.1-264.8c-21.8-61.7-38.6-129.5-50-201.5C135.8,988.4,130,914.6,130,840.5c0-73.6,5.6-145.5,16.8-213.9
	c11.2-68.7,27.7-132.1,49-188.4c41.4-109.2,98.5-186,165.2-222c34-18.4,102.9-44.3,238.5-63.1C709.6,137.8,842.4,130,994.1,130
	c307.7,0,666.6,32.3,984.6,88.8c160.6,28.5,301.9,61.4,419.8,97.8c147.2,45.5,221.9,85.5,258.6,111c70.6,49.2,127.6,134.2,165.1,246
	c18.8,56,32.2,117.6,40,182.9C2869.9,921.3,2871.9,988.4,2868.1,1056z M2950.6,837.6c-9.2-72.7-25.1-142.3-47.8-206.3
	c-42.2-119.3-107.4-217.1-194.2-277.5c-54.5-38-142.9-78.9-270.1-118.9c-123.9-39.1-272.7-74-436.4-103.3
	C1680,73.9,1311.9,40,994.4,40c-5.2,0-10.4,0-15.6,0c-154.5,0.5-294.3,9.2-410.6,26.7C451.6,84.1,370,109,318.2,137
	c-84.8,45.8-151.6,134-198.6,249.3c-26.2,64.1-46.1,136-59.4,212.5C46.7,676.2,40,757.9,40,840.5c0,81.8,6.7,163.9,19.8,243.2
	c13.1,78.8,32.5,154.2,58.1,223.1c47.5,128.2,115.3,231.6,200.9,293.2c0.1,0.1,0.5,0.3,0.6,0.4c0.9,0.6,3,2.2,4,2.8
	c46,32,116.3,65.3,215.1,96.5c97.9,31,215.1,57.5,345.3,79.1c257.6,42.7,560.9,65.3,849.4,65.3c1.7,0,3.5,0,5.2,0h0.1
	c203.6-0.2,396.7-11.7,557.5-34.6c166.4-23.6,281.8-57.1,350.6-94.3c86.7-46.9,158-131.8,210.7-240.5
	c28.6-58.9,51.5-124.3,68.4-193.7c17.1-70.1,27.9-143.8,32.2-218.3C2962.2,986.9,2959.9,911,2950.6,837.6z M2934.6,1061.3
	c-4.2,73.5-14.9,145.5-31.6,214.1c-16.7,68.7-39.2,132.2-66.8,189c-25.8,53.2-55.8,99.8-89.2,138.3c-34.1,39.3-71.6,70.2-111.6,91.8
	c-70.6,38.2-189.1,69.9-342.7,91.7c-156.6,22.3-348.3,34.2-554.2,34.4h-5.3c-292.5,0-592.8-23.1-845.6-65
	c-132-21.9-247.1-48.2-342.1-78.3c-46.7-14.7-88.6-30.5-124.7-46.9c-33.2-15.1-61.5-30.7-84.1-46.5l-0.7-0.5l-0.5-0.3
	c-0.4-0.3-1.3-0.9-1.8-1.2c-0.4-0.3-0.7-0.5-1-0.7c-0.2-0.1-0.4-0.3-0.7-0.5c-39.4-28.5-76-67.3-108.6-115.4
	c-32-47.3-60.1-103.3-83.6-166.6c-24.8-66.7-44-140.3-57-218.8C69.9,1002,63.4,921.5,63.3,840.5c0-82,6.7-162,19.9-237.7
	c13.3-76.1,32.8-146,58-207.7c23-56.5,50.6-105.3,81.9-145.1c31.9-40.5,67.6-71.6,106.2-92.5c25.2-13.7,57.5-26.2,96-37.2
	c41.8-12,91-22.3,146.3-30.5c112.9-17,249.9-25.9,407.2-26.4c5.1,0,10.3,0,15.5,0h0c314.1,0,679.9,33.2,1003.6,91.1
	c166.5,29.8,312.3,64.3,433.5,102.6c116.4,36.7,207.6,76.7,263.7,115.8c40.2,28,76.5,65.2,108,110.8c30.7,44.5,56.8,96.7,77.6,155.4
	c21.8,61.5,37.5,129.3,46.6,201.4C2936.5,912.2,2938.9,986.5,2934.6,1061.3z M2867.2,650.9c-40.2-116.6-101.9-208.9-181.5-264.3
	c-45.9-32-127.9-72.7-265.7-115.7c-121.1-37.8-266.3-71.8-428.7-100.7C1671,113.2,1307.2,80,994.4,80c-2.6,0-5.3,0-7.9,0
	c-153.3,0.3-289.9,8.5-403.3,24.9c-126.9,18.2-202.7,43.9-246,67.2C260.4,213.7,197.7,297.1,153,410.5
	C129.1,471,110.9,539,98.5,611.9C86.2,685.1,80,762.1,80,840.5c0,78.2,6.2,156.5,18.6,232.1c12.3,75.7,30.5,147.6,54.3,213.2
	c45.7,126.3,110.2,224.7,189,281.5c0.1,0.1,0.5,0.3,0.6,0.4c0.4,0.3,3.4,2.4,3.9,2.7c38.6,26.9,104.6,60.3,211.6,93.4
	c95.4,29.7,210,55.4,339.1,76.6c252.3,41.4,550.1,63.7,836.2,63.7h2.6c0,0,0.1,0,0.1,0c201.1-0.1,390.5-11.4,547.2-33.2
	c180.8-25.1,286.8-59.7,344.5-90.9c79.4-42.9,146.7-123.2,197-229.7c26.4-55.7,47.7-117.7,63.5-183.8c15.9-66.4,25.9-136.1,30-206.8
	c4.1-71.9,1.9-143.7-6.6-213.1C2902.8,777.1,2888,711.2,2867.2,650.9z M2901.4,1058.6c-4,69.9-13.9,138.5-29.5,203.9
	c-15.6,65.5-36.6,126.2-62.3,180.6c-49.6,105-115.3,181.8-189.9,222.1c-47.7,25.8-145.1,62.2-338.8,89.1
	c-154.4,21.5-342.8,32.9-544.9,33.1h-2.7c-287.9,0-583.9-22.5-833.5-63.5c-129.8-21.3-243.1-46.9-336.9-76
	c-113.4-35.2-175.2-69-207-91.2l-0.5-0.4l-0.2-0.1c-0.4-0.3-1.3-0.9-2.5-1.8l-0.6-0.4c-0.3-0.2-0.6-0.4-0.8-0.5
	c-74.2-53.7-137.3-148.2-182.6-273.3c-23.3-64.2-41.3-134.9-53.5-210.2c-12.2-74.6-18.3-151.8-18.4-229.4
	c0-77.8,6.1-153.8,18.3-225.8c12.2-72.4,30.2-139.1,53.6-198.1c21.9-55.5,48-103.3,77.8-142c29.8-38.9,63.1-68.4,98.9-87.7
	c35.4-19.2,105.9-46.1,240.4-65.4C697,105.3,831.9,97,986.5,96.7c2.6,0,5.3,0,7.9,0h0c310.9,0,673.1,32.8,994,89.9
	c163.6,29.1,307.1,62.8,426.6,100.2c147,45.8,223.1,87,261.1,113.4c75,52.2,135.6,140.8,175.3,256.1
	c20.3,58.8,34.9,123.4,43.4,192.2C2903.2,916.7,2905.4,987.4,2901.4,1058.6z M2831.7,670.4c-38.1-113.8-96.5-200.7-168.9-251.1
	c-37.3-25.9-112.9-66.5-261.3-112.4c-118.3-36.5-259.9-69.5-421-98.1c-318.6-56.5-678.1-88.9-986.4-88.9
	c-152.2,0-285.5,7.8-396,23.1c-137.1,19.1-207.2,45.4-241.9,64.2c-68.9,37.2-127.6,115.8-169.8,227.3
	c-21.6,56.9-38.2,121-49.5,190.3C125.7,693.9,120,766.4,120,840.5c0,74.7,5.8,149,17.3,221c11.5,72.6,28.5,141,50.5,203.2
	c43.9,124.5,105.1,217.7,177.1,269.8l0.6,0.3l3.8,2.6c31.3,21.8,92.8,55.2,208.2,90.4c92.9,28.4,204.9,53.3,332.9,74
	c246.9,40,539.2,62,822.9,62.1h0.1c198.6,0,384.2-11,536.8-31.8c195.1-26.6,291.7-62.3,338.4-87.5c72-38.9,135.4-114.6,183.4-218.8
	c24.2-52.5,43.8-111,58.5-174c14.6-62.7,23.9-128.4,27.7-195.3c3.8-68.1,1.8-135.8-6-201.2C2864.3,789.3,2850.7,727.1,2831.7,670.4z
	 M2868.1,1056c-3.7,66.3-13,131.4-27.5,193.6c-14.5,62.3-34,120.2-57.8,172.1c-47,102.2-109,176.3-179,214.2
	c-45.9,24.9-141.3,60-335,86.4c-152.2,20.7-337.3,31.7-535.5,31.7h-0.1c-283.2,0-574.9-22-821.3-61.9
	c-127.5-20.7-239.1-45.5-331.6-73.7c-114.1-34.8-174.7-67.7-205.4-89.1l-3.8-2.6l-0.3-0.2l-0.3-0.2l-0.2-0.1
	c-70.1-50.9-130-142.5-173.1-264.8c-21.8-61.7-38.6-129.5-50-201.5C135.8,988.4,130,914.6,130,840.5c0-73.6,5.6-145.5,16.8-213.9
	c11.2-68.7,27.7-132.1,49-188.4c41.4-109.2,98.5-186,165.2-222c34-18.4,102.9-44.3,238.5-63.1C709.6,137.8,842.4,130,994.1,130
	c307.7,0,666.6,32.3,984.6,88.8c160.6,28.5,301.9,61.4,419.8,97.8c147.2,45.5,221.9,85.5,258.6,111c70.6,49.2,127.6,134.2,165.1,246
	c18.8,56,32.2,117.6,40,182.9C2869.9,921.3,2871.9,988.4,2868.1,1056z M2911.4,846.5c-8.5-69.3-23.3-135.3-44.1-195.6
	c-40.2-116.6-101.9-208.9-181.5-264.3c-45.9-32-127.9-72.7-265.7-115.7c-121.1-37.8-266.3-71.8-428.7-100.7
	C1671,113.2,1307.2,80,994.4,80c-2.6,0-5.3,0-7.9,0c-153.3,0.3-289.9,8.5-403.3,24.9c-126.9,18.2-202.7,43.9-246,67.2
	C260.4,213.7,197.7,297.1,153,410.5C129.1,471,110.9,539,98.5,611.9C86.2,685.1,80,762.1,80,840.5c0,78.2,6.2,156.5,18.6,232.1
	c12.3,75.7,30.5,147.6,54.3,213.2c45.7,126.3,110.2,224.7,189,281.5c0.1,0.1,0.5,0.3,0.6,0.4c0.4,0.3,3.4,2.4,3.9,2.7
	c38.6,26.9,104.6,60.3,211.6,93.4c95.4,29.7,210,55.4,339.1,76.6c252.3,41.4,550.1,63.7,836.2,63.7h2.6c0,0,0.1,0,0.1,0
	c201.1-0.1,390.5-11.4,547.2-33.2c180.8-25.1,286.8-59.7,344.5-90.9c79.4-42.9,146.7-123.2,197-229.7
	c26.4-55.7,47.7-117.7,63.5-183.8c15.9-66.4,25.9-136.1,30-206.8C2922.1,987.7,2919.9,915.8,2911.4,846.5z M2901.4,1058.6
	c-4,69.9-13.9,138.5-29.5,203.9c-15.6,65.5-36.6,126.2-62.3,180.6c-49.6,105-115.3,181.8-189.9,222.1
	c-47.7,25.8-145.1,62.2-338.8,89.1c-154.4,21.5-342.8,32.9-544.9,33.1h-2.7c-287.9,0-583.9-22.5-833.5-63.5
	c-129.8-21.3-243.1-46.9-336.9-76c-113.4-35.2-175.2-69-207-91.2l-0.5-0.4l-0.2-0.1c-0.4-0.3-1.3-0.9-2.5-1.8l-0.6-0.4
	c-0.3-0.2-0.6-0.4-0.8-0.5c-74.2-53.7-137.3-148.2-182.6-273.3c-23.3-64.2-41.3-134.9-53.5-210.2c-12.2-74.6-18.3-151.8-18.4-229.4
	c0-77.8,6.1-153.8,18.3-225.8c12.2-72.4,30.2-139.1,53.6-198.1c21.9-55.5,48-103.3,77.8-142c29.8-38.9,63.1-68.4,98.9-87.7
	c35.4-19.2,105.9-46.1,240.4-65.4C697,105.3,831.9,97,986.5,96.7c2.6,0,5.3,0,7.9,0h0c310.9,0,673.1,32.8,994,89.9
	c163.6,29.1,307.1,62.8,426.6,100.2c147,45.8,223.1,87,261.1,113.4c75,52.2,135.6,140.8,175.3,256.1
	c20.3,58.8,34.9,123.4,43.4,192.2C2903.2,916.7,2905.4,987.4,2901.4,1058.6z M2831.7,670.4c-38.1-113.8-96.5-200.7-168.9-251.1
	c-37.3-25.9-112.9-66.5-261.3-112.4c-118.3-36.5-259.9-69.5-421-98.1c-318.6-56.5-678.1-88.9-986.4-88.9
	c-152.2,0-285.5,7.8-396,23.1c-137.1,19.1-207.2,45.4-241.9,64.2c-68.9,37.2-127.6,115.8-169.8,227.3
	c-21.6,56.9-38.2,121-49.5,190.3C125.7,693.9,120,766.4,120,840.5c0,74.7,5.8,149,17.3,221c11.5,72.6,28.5,141,50.5,203.2
	c43.9,124.5,105.1,217.7,177.1,269.8l0.6,0.3l3.8,2.6c31.3,21.8,92.8,55.2,208.2,90.4c92.9,28.4,204.9,53.3,332.9,74
	c246.9,40,539.2,62,822.9,62.1h0.1c198.6,0,384.2-11,536.8-31.8c195.1-26.6,291.7-62.3,338.4-87.5c72-38.9,135.4-114.6,183.4-218.8
	c24.2-52.5,43.8-111,58.5-174c14.6-62.7,23.9-128.4,27.7-195.3c3.8-68.1,1.8-135.8-6-201.2C2864.3,789.3,2850.7,727.1,2831.7,670.4z
	 M2868.1,1056c-3.7,66.3-13,131.4-27.5,193.6c-14.5,62.3-34,120.2-57.8,172.1c-47,102.2-109,176.3-179,214.2
	c-45.9,24.9-141.3,60-335,86.4c-152.2,20.7-337.3,31.7-535.5,31.7h-0.1c-283.2,0-574.9-22-821.3-61.9
	c-127.5-20.7-239.1-45.5-331.6-73.7c-114.1-34.8-174.7-67.7-205.4-89.1l-3.8-2.6l-0.3-0.2l-0.3-0.2l-0.2-0.1
	c-70.1-50.9-130-142.5-173.1-264.8c-21.8-61.7-38.6-129.5-50-201.5C135.8,988.4,130,914.6,130,840.5c0-73.6,5.6-145.5,16.8-213.9
	c11.2-68.7,27.7-132.1,49-188.4c41.4-109.2,98.5-186,165.2-222c34-18.4,102.9-44.3,238.5-63.1C709.6,137.8,842.4,130,994.1,130
	c307.7,0,666.6,32.3,984.6,88.8c160.6,28.5,301.9,61.4,419.8,97.8c147.2,45.5,221.9,85.5,258.6,111c70.6,49.2,127.6,134.2,165.1,246
	c18.8,56,32.2,117.6,40,182.9C2869.9,921.3,2871.9,988.4,2868.1,1056z M2902.8,631.3c-42.2-119.3-107.4-217.1-194.2-277.5
	c-54.5-38-142.9-78.9-270.1-118.9c-123.9-39.1-272.7-74-436.4-103.3C1680,73.9,1311.9,40,994.4,40c-5.2,0-10.4,0-15.6,0
	c-154.5,0.5-294.3,9.2-410.6,26.7C451.6,84.1,370,109,318.2,137c-84.8,45.8-151.6,134-198.6,249.3c-26.2,64.1-46.1,136-59.4,212.5
	C46.7,676.2,40,757.9,40,840.5c0,81.8,6.7,163.9,19.8,243.2c13.1,78.8,32.5,154.2,58.1,223.1c47.5,128.2,115.3,231.6,200.9,293.2
	c0.1,0.1,0.5,0.3,0.6,0.4c0.9,0.6,3,2.2,4,2.8c46,32,116.3,65.3,215.1,96.5c97.9,31,215.1,57.5,345.3,79.1
	c257.6,42.7,560.9,65.3,849.4,65.3c1.7,0,3.5,0,5.2,0h0.1c203.6-0.2,396.7-11.7,557.5-34.6c166.4-23.6,281.8-57.1,350.6-94.3
	c86.7-46.9,158-131.8,210.7-240.5c28.6-58.9,51.5-124.3,68.4-193.7c17.1-70.1,27.9-143.8,32.2-218.3c4.4-75.7,2-151.7-7.3-225
	C2941.3,764.9,2925.4,695.2,2902.8,631.3z M2934.6,1061.3c-4.2,73.5-14.9,145.5-31.6,214.1c-16.7,68.7-39.2,132.2-66.8,189
	c-25.8,53.2-55.8,99.8-89.2,138.3c-34.1,39.3-71.6,70.2-111.6,91.8c-70.6,38.2-189.1,69.9-342.7,91.7
	c-156.6,22.3-348.3,34.2-554.2,34.4h-5.3c-292.5,0-592.8-23.1-845.6-65c-132-21.9-247.1-48.2-342.1-78.3
	c-46.7-14.7-88.6-30.5-124.7-46.9c-33.2-15.1-61.5-30.7-84.1-46.5l-0.7-0.5l-0.5-0.3c-0.4-0.3-1.3-0.9-1.8-1.2
	c-0.4-0.3-0.7-0.5-1-0.7c-0.2-0.1-0.4-0.3-0.7-0.5c-39.4-28.5-76-67.3-108.6-115.4c-32-47.3-60.1-103.3-83.6-166.6
	c-24.8-66.7-44-140.3-57-218.8C69.9,1002,63.4,921.5,63.3,840.5c0-82,6.7-162,19.9-237.7c13.3-76.1,32.8-146,58-207.7
	c23-56.5,50.6-105.3,81.9-145.1c31.9-40.5,67.6-71.6,106.2-92.5c25.2-13.7,57.5-26.2,96-37.2c41.8-12,91-22.3,146.3-30.5
	c112.9-17,249.9-25.9,407.2-26.4c5.1,0,10.3,0,15.5,0h0c314.1,0,679.9,33.2,1003.6,91.1c166.5,29.8,312.3,64.3,433.5,102.6
	c116.4,36.7,207.6,76.7,263.7,115.8c40.2,28,76.5,65.2,108,110.8c30.7,44.5,56.8,96.7,77.6,155.4c21.8,61.5,37.5,129.3,46.6,201.4
	C2936.5,912.2,2938.9,986.5,2934.6,1061.3z M2731.4,320.9C2464.5,135.1,1630.9,0,994.1,0C689.7,0,430.3,30.9,299.2,101.8
	C98.2,210.4-0.1,521.3,0,840.5c0.1,321.7,100.2,651.8,295.9,792.2c1.5,1,3,2.2,4.7,3.2c231.3,161.2,865.8,248.1,1432.6,248.1
	c399.3,0,764.9-43.1,932.4-133.8C3070.6,1531.2,3125.8,595.6,2731.4,320.9z M2938.1,1272.2c-16.1,68.8-37.7,133.2-64.4,191.2
	c-27.5,59.8-60,112.1-96.6,155.5c-38,45-80.3,80.3-125.7,104.9c-38.7,20.9-90.3,40-153.5,56.5c-61.5,16.1-134,29.9-215.5,41
	c-156.6,21.3-346.4,32.6-549.1,32.6c-288.4,0-585.8-22.4-837.3-63.2c-132-21.4-248-47.2-344.8-76.8
	c-101.6-31-180.1-65.6-233.3-102.7l-1-0.7l-0.8-0.5c-0.2-0.1-0.6-0.4-0.9-0.6c-0.6-0.4-1.2-0.9-2-1.4
	c-44.3-31.9-85-75.5-120.9-129.7c-34.7-52.3-64.7-114.1-89.2-183.8c-23.8-67.4-42.1-141.1-54.5-219.1C36.2,999,30,919.9,30,840.5
	c0-79,6-156.3,18-230c12.3-75.3,30.5-145.2,54.2-207.7c24.5-64.7,54.5-120.7,89.3-166.5c36-47.5,77-83.8,121.9-108.1
	C373.4,95.8,465,70.8,585.8,54c114.6-15.9,252-24,408.4-24c313.3,0,678.5,32.9,1002.1,90.3c164.7,29.2,310,63.1,431.8,100.7
	c62.8,19.4,118.7,39.7,166.3,60.3c48.6,21.1,89,42.7,119.9,64.2c45.1,31.4,85.5,73.4,120.1,124.7c33.2,49.2,61,107,82.7,171.7
	c20.9,62.5,35.9,130.7,44.5,202.8c8.4,70.6,10.6,143.6,6.4,216.9C2963.9,1133.6,2953.8,1204.5,2938.1,1272.2z M2867.2,650.9
	c-40.2-116.6-101.9-208.9-181.5-264.3c-45.9-32-127.9-72.7-265.7-115.7c-121.1-37.8-266.3-71.8-428.7-100.7
	C1671,113.2,1307.2,80,994.4,80c-2.6,0-5.3,0-7.9,0c-153.3,0.3-289.9,8.5-403.3,24.9c-126.9,18.2-202.7,43.9-246,67.2
	C260.4,213.7,197.7,297.1,153,410.5C129.1,471,110.9,539,98.5,611.9C86.2,685.1,80,762.1,80,840.5c0,78.2,6.2,156.5,18.6,232.1
	c12.3,75.7,30.5,147.6,54.3,213.2c45.7,126.3,110.2,224.7,189,281.5c0.1,0.1,0.5,0.3,0.6,0.4c0.4,0.3,3.4,2.4,3.9,2.7
	c38.6,26.9,104.6,60.3,211.6,93.4c95.4,29.7,210,55.4,339.1,76.6c252.3,41.4,550.1,63.7,836.2,63.7h2.6c0,0,0.1,0,0.1,0
	c201.1-0.1,390.5-11.4,547.2-33.2c180.8-25.1,286.8-59.7,344.5-90.9c79.4-42.9,146.7-123.2,197-229.7
	c26.4-55.7,47.7-117.7,63.5-183.8c15.9-66.4,25.9-136.1,30-206.8c4.1-71.9,1.9-143.7-6.6-213.1
	C2902.8,777.1,2888,711.2,2867.2,650.9z M2901.4,1058.6c-4,69.9-13.9,138.5-29.5,203.9c-15.6,65.5-36.6,126.2-62.3,180.6
	c-49.6,105-115.3,181.8-189.9,222.1c-47.7,25.8-145.1,62.2-338.8,89.1c-154.4,21.5-342.8,32.9-544.9,33.1h-2.7
	c-287.9,0-583.9-22.5-833.5-63.5c-129.8-21.3-243.1-46.9-336.9-76c-113.4-35.2-175.2-69-207-91.2l-0.5-0.4l-0.2-0.1
	c-0.4-0.3-1.3-0.9-2.5-1.8l-0.6-0.4c-0.3-0.2-0.6-0.4-0.8-0.5c-74.2-53.7-137.3-148.2-182.6-273.3c-23.3-64.2-41.3-134.9-53.5-210.2
	c-12.2-74.6-18.3-151.8-18.4-229.4c0-77.8,6.1-153.8,18.3-225.8c12.2-72.4,30.2-139.1,53.6-198.1c21.9-55.5,48-103.3,77.8-142
	c29.8-38.9,63.1-68.4,98.9-87.7c35.4-19.2,105.9-46.1,240.4-65.4C697,105.3,831.9,97,986.5,96.7c2.6,0,5.3,0,7.9,0h0
	c310.9,0,673.1,32.8,994,89.9c163.6,29.1,307.1,62.8,426.6,100.2c147,45.8,223.1,87,261.1,113.4c75,52.2,135.6,140.8,175.3,256.1
	c20.3,58.8,34.9,123.4,43.4,192.2C2903.2,916.7,2905.4,987.4,2901.4,1058.6z M2831.7,670.4c-38.1-113.8-96.5-200.7-168.9-251.1
	c-37.3-25.9-112.9-66.5-261.3-112.4c-118.3-36.5-259.9-69.5-421-98.1c-318.6-56.5-678.1-88.9-986.4-88.9
	c-152.2,0-285.5,7.8-396,23.1c-137.1,19.1-207.2,45.4-241.9,64.2c-68.9,37.2-127.6,115.8-169.8,227.3
	c-21.6,56.9-38.2,121-49.5,190.3C125.7,693.9,120,766.4,120,840.5c0,74.7,5.8,149,17.3,221c11.5,72.6,28.5,141,50.5,203.2
	c43.9,124.5,105.1,217.7,177.1,269.8l0.6,0.3l3.8,2.6c31.3,21.8,92.8,55.2,208.2,90.4c92.9,28.4,204.9,53.3,332.9,74
	c246.9,40,539.2,62,822.9,62.1h0.1c198.6,0,384.2-11,536.8-31.8c195.1-26.6,291.7-62.3,338.4-87.5c72-38.9,135.4-114.6,183.4-218.8
	c24.2-52.5,43.8-111,58.5-174c14.6-62.7,23.9-128.4,27.7-195.3c3.8-68.1,1.8-135.8-6-201.2C2864.3,789.3,2850.7,727.1,2831.7,670.4z
	 M2868.1,1056c-3.7,66.3-13,131.4-27.5,193.6c-14.5,62.3-34,120.2-57.8,172.1c-47,102.2-109,176.3-179,214.2
	c-45.9,24.9-141.3,60-335,86.4c-152.2,20.7-337.3,31.7-535.5,31.7h-0.1c-283.2,0-574.9-22-821.3-61.9
	c-127.5-20.7-239.1-45.5-331.6-73.7c-114.1-34.8-174.7-67.7-205.4-89.1l-3.8-2.6l-0.3-0.2l-0.3-0.2l-0.2-0.1
	c-70.1-50.9-130-142.5-173.1-264.8c-21.8-61.7-38.6-129.5-50-201.5C135.8,988.4,130,914.6,130,840.5c0-73.6,5.6-145.5,16.8-213.9
	c11.2-68.7,27.7-132.1,49-188.4c41.4-109.2,98.5-186,165.2-222c34-18.4,102.9-44.3,238.5-63.1C709.6,137.8,842.4,130,994.1,130
	c307.7,0,666.6,32.3,984.6,88.8c160.6,28.5,301.9,61.4,419.8,97.8c147.2,45.5,221.9,85.5,258.6,111c70.6,49.2,127.6,134.2,165.1,246
	c18.8,56,32.2,117.6,40,182.9C2869.9,921.3,2871.9,988.4,2868.1,1056z M2950.6,837.6c-9.2-72.7-25.1-142.3-47.8-206.3
	c-42.2-119.3-107.4-217.1-194.2-277.5c-54.5-38-142.9-78.9-270.1-118.9c-123.9-39.1-272.7-74-436.4-103.3
	C1680,73.9,1311.9,40,994.4,40c-5.2,0-10.4,0-15.6,0c-154.5,0.5-294.3,9.2-410.6,26.7C451.6,84.1,370,109,318.2,137
	c-84.8,45.8-151.6,134-198.6,249.3c-26.2,64.1-46.1,136-59.4,212.5C46.7,676.2,40,757.9,40,840.5c0,81.8,6.7,163.9,19.8,243.2
	c13.1,78.8,32.5,154.2,58.1,223.1c47.5,128.2,115.3,231.6,200.9,293.2c0.1,0.1,0.5,0.3,0.6,0.4c0.9,0.6,3,2.2,4,2.8
	c46,32,116.3,65.3,215.1,96.5c97.9,31,215.1,57.5,345.3,79.1c257.6,42.7,560.9,65.3,849.4,65.3c1.7,0,3.5,0,5.2,0h0.1
	c203.6-0.2,396.7-11.7,557.5-34.6c166.4-23.6,281.8-57.1,350.6-94.3c86.7-46.9,158-131.8,210.7-240.5
	c28.6-58.9,51.5-124.3,68.4-193.7c17.1-70.1,27.9-143.8,32.2-218.3C2962.2,986.9,2959.9,911,2950.6,837.6z M2934.6,1061.3
	c-4.2,73.5-14.9,145.5-31.6,214.1c-16.7,68.7-39.2,132.2-66.8,189c-25.8,53.2-55.8,99.8-89.2,138.3c-34.1,39.3-71.6,70.2-111.6,91.8
	c-70.6,38.2-189.1,69.9-342.7,91.7c-156.6,22.3-348.3,34.2-554.2,34.4h-5.3c-292.5,0-592.8-23.1-845.6-65
	c-132-21.9-247.1-48.2-342.1-78.3c-46.7-14.7-88.6-30.5-124.7-46.9c-33.2-15.1-61.5-30.7-84.1-46.5l-0.7-0.5l-0.5-0.3
	c-0.4-0.3-1.3-0.9-1.8-1.2c-0.4-0.3-0.7-0.5-1-0.7c-0.2-0.1-0.4-0.3-0.7-0.5c-39.4-28.5-76-67.3-108.6-115.4
	c-32-47.3-60.1-103.3-83.6-166.6c-24.8-66.7-44-140.3-57-218.8C69.9,1002,63.4,921.5,63.3,840.5c0-82,6.7-162,19.9-237.7
	c13.3-76.1,32.8-146,58-207.7c23-56.5,50.6-105.3,81.9-145.1c31.9-40.5,67.6-71.6,106.2-92.5c25.2-13.7,57.5-26.2,96-37.2
	c41.8-12,91-22.3,146.3-30.5c112.9-17,249.9-25.9,407.2-26.4c5.1,0,10.3,0,15.5,0h0c314.1,0,679.9,33.2,1003.6,91.1
	c166.5,29.8,312.3,64.3,433.5,102.6c116.4,36.7,207.6,76.7,263.7,115.8c40.2,28,76.5,65.2,108,110.8c30.7,44.5,56.8,96.7,77.6,155.4
	c21.8,61.5,37.5,129.3,46.6,201.4C2936.5,912.2,2938.9,986.5,2934.6,1061.3z M2867.2,650.9c-40.2-116.6-101.9-208.9-181.5-264.3
	c-45.9-32-127.9-72.7-265.7-115.7c-121.1-37.8-266.3-71.8-428.7-100.7C1671,113.2,1307.2,80,994.4,80c-2.6,0-5.3,0-7.9,0
	c-153.3,0.3-289.9,8.5-403.3,24.9c-126.9,18.2-202.7,43.9-246,67.2C260.4,213.7,197.7,297.1,153,410.5
	C129.1,471,110.9,539,98.5,611.9C86.2,685.1,80,762.1,80,840.5c0,78.2,6.2,156.5,18.6,232.1c12.3,75.7,30.5,147.6,54.3,213.2
	c45.7,126.3,110.2,224.7,189,281.5c0.1,0.1,0.5,0.3,0.6,0.4c0.4,0.3,3.4,2.4,3.9,2.7c38.6,26.9,104.6,60.3,211.6,93.4
	c95.4,29.7,210,55.4,339.1,76.6c252.3,41.4,550.1,63.7,836.2,63.7h2.6c0,0,0.1,0,0.1,0c201.1-0.1,390.5-11.4,547.2-33.2
	c180.8-25.1,286.8-59.7,344.5-90.9c79.4-42.9,146.7-123.2,197-229.7c26.4-55.7,47.7-117.7,63.5-183.8c15.9-66.4,25.9-136.1,30-206.8
	c4.1-71.9,1.9-143.7-6.6-213.1C2902.8,777.1,2888,711.2,2867.2,650.9z M2901.4,1058.6c-4,69.9-13.9,138.5-29.5,203.9
	c-15.6,65.5-36.6,126.2-62.3,180.6c-49.6,105-115.3,181.8-189.9,222.1c-47.7,25.8-145.1,62.2-338.8,89.1
	c-154.4,21.5-342.8,32.9-544.9,33.1h-2.7c-287.9,0-583.9-22.5-833.5-63.5c-129.8-21.3-243.1-46.9-336.9-76
	c-113.4-35.2-175.2-69-207-91.2l-0.5-0.4l-0.2-0.1c-0.4-0.3-1.3-0.9-2.5-1.8l-0.6-0.4c-0.3-0.2-0.6-0.4-0.8-0.5
	c-74.2-53.7-137.3-148.2-182.6-273.3c-23.3-64.2-41.3-134.9-53.5-210.2c-12.2-74.6-18.3-151.8-18.4-229.4
	c0-77.8,6.1-153.8,18.3-225.8c12.2-72.4,30.2-139.1,53.6-198.1c21.9-55.5,48-103.3,77.8-142c29.8-38.9,63.1-68.4,98.9-87.7
	c35.4-19.2,105.9-46.1,240.4-65.4C697,105.3,831.9,97,986.5,96.7c2.6,0,5.3,0,7.9,0h0c310.9,0,673.1,32.8,994,89.9
	c163.6,29.1,307.1,62.8,426.6,100.2c147,45.8,223.1,87,261.1,113.4c75,52.2,135.6,140.8,175.3,256.1
	c20.3,58.8,34.9,123.4,43.4,192.2C2903.2,916.7,2905.4,987.4,2901.4,1058.6z M2831.7,670.4c-38.1-113.8-96.5-200.7-168.9-251.1
	c-37.3-25.9-112.9-66.5-261.3-112.4c-118.3-36.5-259.9-69.5-421-98.1c-318.6-56.5-678.1-88.9-986.4-88.9
	c-152.2,0-285.5,7.8-396,23.1c-137.1,19.1-207.2,45.4-241.9,64.2c-68.9,37.2-127.6,115.8-169.8,227.3
	c-21.6,56.9-38.2,121-49.5,190.3C125.7,693.9,120,766.4,120,840.5c0,74.7,5.8,149,17.3,221c11.5,72.6,28.5,141,50.5,203.2
	c43.9,124.5,105.1,217.7,177.1,269.8l0.6,0.3l3.8,2.6c31.3,21.8,92.8,55.2,208.2,90.4c92.9,28.4,204.9,53.3,332.9,74
	c246.9,40,539.2,62,822.9,62.1h0.1c198.6,0,384.2-11,536.8-31.8c195.1-26.6,291.7-62.3,338.4-87.5c72-38.9,135.4-114.6,183.4-218.8
	c24.2-52.5,43.8-111,58.5-174c14.6-62.7,23.9-128.4,27.7-195.3c3.8-68.1,1.8-135.8-6-201.2C2864.3,789.3,2850.7,727.1,2831.7,670.4z
	 M2868.1,1056c-3.7,66.3-13,131.4-27.5,193.6c-14.5,62.3-34,120.2-57.8,172.1c-47,102.2-109,176.3-179,214.2
	c-45.9,24.9-141.3,60-335,86.4c-152.2,20.7-337.3,31.7-535.5,31.7h-0.1c-283.2,0-574.9-22-821.3-61.9
	c-127.5-20.7-239.1-45.5-331.6-73.7c-114.1-34.8-174.7-67.7-205.4-89.1l-3.8-2.6l-0.3-0.2l-0.3-0.2l-0.2-0.1
	c-70.1-50.9-130-142.5-173.1-264.8c-21.8-61.7-38.6-129.5-50-201.5C135.8,988.4,130,914.6,130,840.5c0-73.6,5.6-145.5,16.8-213.9
	c11.2-68.7,27.7-132.1,49-188.4c41.4-109.2,98.5-186,165.2-222c34-18.4,102.9-44.3,238.5-63.1C709.6,137.8,842.4,130,994.1,130
	c307.7,0,666.6,32.3,984.6,88.8c160.6,28.5,301.9,61.4,419.8,97.8c147.2,45.5,221.9,85.5,258.6,111c70.6,49.2,127.6,134.2,165.1,246
	c18.8,56,32.2,117.6,40,182.9C2869.9,921.3,2871.9,988.4,2868.1,1056z"/>
<path class="st3" d="M2868.1,1056c-3.7,66.3-13,131.4-27.5,193.6c-14.5,62.3-34,120.2-57.8,172.1c-47,102.2-109,176.3-179,214.2
	c-45.9,24.9-141.3,60-335,86.4c-152.2,20.7-337.3,31.7-535.5,31.7h-0.1c-283.2,0-574.9-22-821.3-61.9
	c-127.5-20.7-239.1-45.5-331.6-73.7c-114.1-34.8-174.7-67.7-205.4-89.1l-3.8-2.6l-0.3-0.2l-0.3-0.2l-0.2-0.1
	c-70.1-50.9-130-142.5-173.1-264.8c-21.8-61.7-38.6-129.5-50-201.5C135.8,988.4,130,914.6,130,840.5c0-73.6,5.6-145.5,16.8-213.9
	c11.2-68.7,27.7-132.1,49-188.4c41.4-109.2,98.5-186,165.2-222c34-18.4,102.9-44.3,238.5-63.1C709.6,137.8,842.4,130,994.1,130
	c307.7,0,666.6,32.3,984.6,88.8c160.6,28.5,301.9,61.4,419.8,97.8c147.2,45.5,221.9,85.5,258.6,111c70.6,49.2,127.6,134.2,165.1,246
	c18.8,56,32.2,117.6,40,182.9C2869.9,921.3,2871.9,988.4,2868.1,1056z"/>
</svg>
