<svg enable-background="new 0 0 1884 3000" viewBox="0 0 1884 3000" xmlns="http://www.w3.org/2000/svg"><path d="m1563.1 2731.4c274.7-394.4 438.4-2027 219.1-2432.2-108.6-201-419.5-299.3-738.7-299.2-321.7.1-651.8 100.2-792.2 295.9-1 1.5-2.2 3-3.2 4.7-274.7 394.3-333.6 1959.8-114.3 2365 219 405 1154.6 460.2 1429.3 65.8zm-1140 132.6c-61.2-28-115.2-61.4-160-99.2-47.4-39.9-84.8-84.6-110.9-133-64.2-118.5-95.5-322.4-110.6-472.4-13.2-132-19.9-278.6-19.9-432.7 0-80.8 1.9-163.6 5.5-247.5 10.9-246.6 37-481.1 75.5-678.3 20.3-103.9 43.8-195.8 69.7-272.7 27.6-81.8 58.2-147 90.8-193.8.2-.2.3-.5.5-.7.1-.1.1-.2.2-.3 69.8-99.6 193.1-179.7 356.5-231.7 127.3-40.4 274.3-61.9 421.1-61.9h.4.2.2c26.1 0 52.1.7 78.1 2.1 145.3 8 280 36.8 389.4 83.6 58 24.8 108.6 54.4 150.2 88.2 43.6 35.2 77.7 75 101.4 118.4.3.6.6 1.2 1 1.8 26.1 48.2 47.4 115.6 63.5 200.4 15.2 79.6 25.7 174.6 31.2 282.5 10.6 204.4 3.5 447.3-20.5 702.5-23.8 252.5-62 494.8-110.3 700.5-51.9 220.5-112.9 385.3-176.4 476.4-32.9 47.2-76.5 89.5-129.7 125.4-50.1 34-108.8 62.3-174.2 84.4-124.5 42-269.2 60-418.3 52-147.3-7.7-287.2-40.3-404.6-94z"/><path d="m1410.8 2808.6c51.5-34.8 93.7-75.6 125.4-121.2 62.4-89.6 122.5-252.4 173.9-471.1 48.3-205.2 86.3-446.6 110-698.4 24-254.5 31.1-496.7 20.5-700.2-11.4-220.4-43.6-385.1-92.9-476.2-22.8-42.2-55.9-81-98.4-115.4-40.5-32.8-89.7-61.6-146.4-85.7-107.6-46-240.3-74.3-383.5-82-25.5-1.4-51.3-2-77.1-2.1h-.4c-.1 0-.2 0-.3 0h-.2c-145 0-290.1 21-415.8 61-160.5 51.1-281 129.2-348.6 226.3-61.9 88.9-116.5 248.1-158 460.6-38.3 196.4-64.4 430.1-75.2 675.9-10.7 243.1-5.8 477.6 14.3 678 21.4 213.1 58.9 374.5 108.7 466.4 49.1 90.9 140.2 168.7 263.2 225 115.5 52.9 253.3 84.9 398.5 92.7 147 7.9 289.4-9.8 411.9-51.1 64.2-21.7 121.5-49.4 170.4-82.5z"/></svg>