<svg fill="none" height="697" width="1028" xmlns="http://www.w3.org/2000/svg" xmlns:xlink="http://www.w3.org/1999/xlink"><clipPath id="a"><path d="m0 0h1027.5v696.059h-1027.5z"/></clipPath><g clip-path="url(#a)"><path d="m696.248 432.453c42.389 0 76.752-34.363 76.752-76.752s-34.363-76.752-76.752-76.752-76.752 34.363-76.752 76.752 34.363 76.752 76.752 76.752z" fill="#a3a3a3" opacity=".4"/><path d="m698 461.902h-428v116h428z" fill="#262626"/><path d="m698.5 695.902h-429v-640h429zm-427-2h425v-636h-425z" fill="#262626"/><path d="m698 71.083h-427v2h427z" fill="#262626"/><path d="m282 67.902a4 4 0 1 0 0-8 4 4 0 0 0 0 8zm11 0a4 4 0 1 0 0-8 4 4 0 0 0 0 8zm11 0a4 4 0 1 0 0-8 4 4 0 0 0 0 8zm0 17h-18v10h18zm70 79h-88v10h88z" fill="#a3a3a3"/><path d="m599 94.902h88v-10h-88zm-165 86h-148v6h148zm-8 13h-140v6h140zm-38 13h-102v6h102zm-10 178h-58v6h58zm-3.135 13h-54.865v6h54.865zm-14.892 13h-39.973v6h39.973zm153.027-26h-58v6h58zm-3.135 13h-54.865v6h54.865zm-14.892 13h-39.973v6h39.973zm158.027-26h-58v6h58zm-3.135 13h-54.865v6h54.865zm-14.892 13h-39.973v6h39.973z" fill="#f5f5f5"/><path d="m498 611.902h-88v10h88z" fill="#a3a3a3"/><path d="m558 628.902h-148v6h148zm-8 13h-140v6h140zm-38 13h-102v6h102z" fill="#f5f5f5"/><path d="m660.5 271.902h-348v2h348zm-274.5 35h-74v66h74z" fill="#a3a3a3" opacity=".3"/><path d="m521 306.902h-74v66h74zm140 0h-74v66h74z" fill="#262626"/><path d="m474.359 372.624-.977-.019c.021-1.081.631-26.561 10.662-33.604l.561.799c-9.626 6.758-10.242 32.564-10.246 32.824zm14.847-33.944a4.881 4.881 0 1 0 0-9.763 4.881 4.881 0 0 0 0 9.763z" fill="#a3a3a3"/><path d="m488.219 351.034a15.198 15.198 0 0 1 -7.841.338 13.854 13.854 0 0 1 14.24-4.884 15.205 15.205 0 0 1 -6.399 4.546zm126.14 21.59-.977-.019c.021-1.081.631-26.561 10.662-33.604l.561.799c-9.626 6.758-10.242 32.564-10.246 32.824zm14.847-33.944a4.881 4.881 0 1 0 0-9.763 4.881 4.881 0 0 0 0 9.763z" fill="#a3a3a3"/><path d="m628.219 351.034a15.198 15.198 0 0 1 -7.841.338 13.854 13.854 0 0 1 14.24-4.884 15.205 15.205 0 0 1 -6.399 4.546zm-254.219 147.868h-88v10h88z" fill="#a3a3a3"/><path d="m434 515.902h-148v6h148zm-8 13h-140v6h140zm-38 13h-102v6h102z" fill="#f5f5f5"/><path d="m611.752 543.95c17.258 0 31.248-13.99 31.248-31.248s-13.99-31.248-31.248-31.248c-17.257 0-31.248 13.99-31.248 31.248s13.991 31.248 31.248 31.248zm-57.832 5.596c12.106 0 21.92-9.814 21.92-21.92s-9.814-21.92-21.92-21.92-21.92 9.814-21.92 21.92 9.814 21.92 21.92 21.92z" fill="#a3a3a3" opacity=".4"/><path d="m167.5 661.402c43.63 0 79-35.369 79-79 0-43.63-35.37-79-79-79s-79 35.37-79 79c0 43.631 35.37 79 79 79z" fill="#525252"/><path d="m155.5 644.402h-24v43h24zm48 0h-24v43h24z" fill="#525252"/><path d="m151.5 695.402c11.046 0 20-3.358 20-7.5s-8.954-7.5-20-7.5-20 3.358-20 7.5 8.954 7.5 20 7.5zm48-1c11.046 0 20-3.358 20-7.5s-8.954-7.5-20-7.5-20 3.358-20 7.5 8.954 7.5 20 7.5z" fill="#525252"/><path d="m169.5 589.402c14.912 0 27-12.088 27-27 0-14.911-12.088-27-27-27s-27 12.089-27 27c0 14.912 12.088 27 27 27zm.5 47.598c7.732 0 14-6.268 14-14s-6.268-14-14-14-14 6.268-14 14 6.268 14 14 14z" fill="#fff"/><path d="m169.5 559.402a9 9 0 1 0 0-18 9 9 0 0 0 0 18z" fill="#262626"/><g fill="#525252"><path d="m238.522 500.212c9.193-19.784 11.611-38.162 5.4-41.047-6.211-2.886-18.698 10.812-27.891 30.596-9.193 19.783-11.61 38.161-5.4 41.047 6.211 2.886 18.698-10.813 27.891-30.596zm-137.767 53.686c6.053-3.204 2.687-21.432-7.52-40.712-10.205-19.281-23.385-32.314-29.438-29.11s-2.686 21.431 7.52 40.712c10.205 19.281 23.386 32.313 29.438 29.11zm733.454 6.611c6.39-2.463 5.21-20.961-2.635-41.316-7.846-20.356-19.387-34.861-25.777-32.398s-5.21 20.961 2.635 41.317c7.846 20.356 19.387 34.86 25.777 32.397z"/><path d="m893.189 662.104c43.631 0 79-35.37 79-79 0-43.631-35.369-79-79-79-43.63 0-79 35.369-79 79 0 43.63 35.37 79 79 79z"/><path d="m905.48 688.066 24-.067-.12-43-24 .067zm-47.996.138 24-.067-.121-43-24 .067z"/><path d="m909.506 696.058c11.046-.031 19.991-3.414 19.979-7.556s-8.975-7.475-20.021-7.444-19.99 3.414-19.979 7.556c.012 4.142 8.975 7.475 20.021 7.444zm-48.003-.865c11.046-.031 19.991-3.414 19.979-7.556-.011-4.142-8.975-7.475-20.021-7.444-11.045.031-19.99 3.414-19.979 7.556.012 4.142 8.976 7.475 20.021 7.444z"/></g><path d="m891.134 590.109c14.911 0 27-12.088 27-27 0-14.911-12.089-27-27-27-14.912 0-27 12.089-27 27 0 14.912 12.088 27 27 27z" fill="#fff"/><path d="m891.134 572.109a9 9 0 1 0 0-18 9 9 0 0 0 0 18z" fill="#262626"/><path d="m987.412 557.387c19.688-9.403 33.248-22.036 30.298-28.215-2.95-6.18-21.304-3.566-40.988 5.837-19.685 9.404-33.249 22.037-30.297 28.216 2.952 6.18 21.303 3.566 40.987-5.838z" fill="#525252"/><path d="m932.074 611.495c.022 7.732-19.844 23.055-41.936 23.117-22.091.062-42.865-21.648-42.887-29.38-.021-7.732 20.718 1.442 42.809 1.38s41.992-2.849 42.014 4.883z" fill="#fff"/><path d="m913.248 560.496c60.888 0 110.252-49.36 110.252-110.248s-49.364-110.248-110.252-110.248-110.248 49.36-110.248 110.248 49.36 110.248 110.248 110.248z" fill="#a3a3a3" opacity=".4"/><path d="m180.4 470c43.631 0 79-35.37 79-79s-35.369-79-79-79c-43.63 0-79 35.37-79 79s35.37 79 79 79z" fill="#525252"/><path d="m157.548 449.871-23.616-4.275-7.66 42.312 23.617 4.275zm47.232 8.55-23.616-4.275-7.66 42.312 23.616 4.275z" fill="#525252"/><path d="m204.693 516.84c2.677-3.16-1.986-11.51-10.415-18.648-8.429-7.139-17.432-10.363-20.109-7.202-2.677 3.16 1.986 11.51 10.415 18.648 8.429 7.139 17.432 10.363 20.109 7.202zm-46.248-8.373c2.677-3.161-1.986-11.51-10.415-18.648-8.429-7.139-17.432-10.363-20.109-7.202-2.677 3.16 1.986 11.51 10.415 18.648 8.429 7.139 17.432 10.363 20.109 7.202z" fill="#525252"/><path d="m185.931 398.676c14.912 0 27-12.089 27-27 0-14.912-12.088-27-27-27s-27 12.088-27 27c0 14.911 12.088 27 27 27z" fill="#fff"/><path d="m197.028 370.998a9 9 0 1 0 0-18 9 9 0 0 0 0 18z" fill="#262626"/><path d="m256.117 388.694c21.264-4.874 37.261-14.236 35.731-20.912-1.53-6.675-20.008-8.135-41.272-3.261s-37.261 14.236-35.731 20.912c1.53 6.675 20.008 8.135 41.272 3.261zm-155.075 25.789c21.264-4.874 37.262-14.236 35.732-20.912-1.531-6.675-20.009-8.135-41.273-3.261-21.263 4.874-37.26 14.236-35.73 20.912 1.53 6.675 20.008 8.135 41.271 3.261z" fill="#525252"/><path d="m158.703 422.133a18 18 0 0 0 35.424 6.413c1.771-9.782-5.792-13.244-15.574-15.014-9.782-1.771-18.079-1.181-19.85 8.601z" fill="#fff"/><path d="m351.836 310.251-70.883-21.251-18.953 63.22 70.883 21.251z" fill="#262626"/><path d="m288.286 359.811-.93-.299c.331-1.029 8.233-25.261 19.864-29.126l.307.926c-11.162 3.709-19.162 28.252-19.241 28.499zm25.372-28.046a4.881 4.881 0 1 0 0-9.763 4.881 4.881 0 0 0 0 9.763z" fill="#a3a3a3"/><path d="m307.763 343.109a15.205 15.205 0 0 1 -7.609-1.927 13.851 13.851 0 0 1 15.043-.59 15.188 15.188 0 0 1 -7.434 2.517z" fill="#a3a3a3"/><path d="m640.31 219.96a42.826 42.826 0 0 1 -4.43 19.04c-.33.68-.68 1.34-1.05 2h-75.17c-.37-.66-.72-1.32-1.05-2a43.071 43.071 0 1 1 81.7-19.04z" fill="#525252"/><path d="m598.336 223.771c8.13 0 14.72-6.59 14.72-14.719s-6.59-14.719-14.72-14.719c-8.129 0-14.719 6.59-14.719 14.719s6.59 14.719 14.719 14.719z" fill="#fff"/><path d="m598.336 213.959a4.906 4.906 0 1 0 .002-9.812 4.906 4.906 0 0 0 -.002 9.812z" fill="#262626"/><path d="m659 132h-124c-1.326 0-2.597.429-3.535 1.192-.938.762-1.465 1.797-1.465 2.875v100.866c0 1.078.527 2.113 1.465 2.875.938.763 2.209 1.192 3.535 1.192h124c1.326 0 2.597-.429 3.535-1.192.938-.762 1.465-1.797 1.465-2.875v-100.866c0-1.078-.527-2.113-1.465-2.875-.938-.763-2.209-1.192-3.535-1.192zm3 104.933c-.002.646-.319 1.266-.881 1.723-.562.458-1.324.715-2.119.717h-124c-.795-.002-1.557-.259-2.119-.717-.562-.457-.879-1.077-.881-1.723v-100.866c.002-.646.319-1.266.881-1.723.562-.458 1.324-.715 2.119-.717h124c.795.002 1.557.259 2.119.717.562.457.879 1.077.881 1.723z" fill="#262626"/></g></svg>