<?xml version="1.0" encoding="utf-8"?>
<!-- Generator: Adobe Illustrator 27.0.0, SVG Export Plug-In . SVG Version: 6.00 Build 0)  -->
<svg version="1.1" id="Layer_1" xmlns="http://www.w3.org/2000/svg" xmlns:xlink="http://www.w3.org/1999/xlink" x="0px" y="0px"
	 viewBox="0 0 24 24" style="enable-background:new 0 0 24 24;" xml:space="preserve">
<style type="text/css">
	.st0{display:none;}
	.st1{fill:#E63F8E;stroke:#000000;stroke-width:2;stroke-linecap:round;stroke-linejoin:round;}
	.st2{display:inline;fill:#E63F8E;}
	.st3{display:inline;fill:none;stroke:#FFFFFF;stroke-width:2;stroke-linecap:round;stroke-linejoin:round;}
	.st4{fill:none;}
	.st5{fill-rule:evenodd;clip-rule:evenodd;fill:#4460A0;}
</style>
<g class="st0">
	<path class="st1" d="M7,2h10c2.8,0,5,2.2,5,5v10c0,2.8-2.2,5-5,5H7c-2.8,0-5-2.2-5-5V7C2,4.2,4.2,2,7,2z"/>
	<path class="st2" d="M7,2h10c2.8,0,5,2.2,5,5v10c0,2.8-2.2,5-5,5H7c-2.8,0-5-2.2-5-5V7C2,4.2,4.2,2,7,2z"/>
	<circle class="st3" cx="12" cy="12" r="4.4"/>
	<path class="st3" d="M17.6,6.4L17.6,6.4"/>
</g>
<g id="fb-logo">
	<g id="Facebook_1_">
		<rect x="2" y="2" class="st4" width="20" height="20"/>
		<path id="Facebook" class="st5" d="M12.7,22H3.1C2.5,22,2,21.5,2,20.9V3.1C2,2.5,2.5,2,3.1,2h17.8C21.5,2,22,2.5,22,3.1v17.8
			c0,0.6-0.5,1.1-1.1,1.1h-5.1v-7.7h2.6l0.4-3h-3V9.3c0-0.9,0.2-1.5,1.5-1.5l1.6,0V5.1c-0.3,0-1.2-0.1-2.3-0.1c-2.3,0-3.9,1.4-3.9,4
			v2.2h-2.6v3h2.6V22z"/>
	</g>
</g>
</svg>
