<?xml version="1.0" encoding="utf-8"?>
<!-- Generator: Adobe Illustrator 26.3.1, SVG Export Plug-In . SVG Version: 6.00 Build 0)  -->
<svg version="1.1" id="Layer_1" xmlns="http://www.w3.org/2000/svg" xmlns:xlink="http://www.w3.org/1999/xlink" x="0px" y="0px"
	 viewBox="0 0 24 24" style="enable-background:new 0 0 24 24;" xml:space="preserve">
<style type="text/css">
	.st0{fill:#FFFFFF;}
</style>
<g>
	<path class="st0" d="M20.3,5.6c0.3-1.1,0.2-2.3-0.3-3.4c-0.1-0.3-0.4-0.5-0.7-0.5c-0.2-0.1-0.8-0.1-1.3,0c-0.6,0.1-1.5,0.5-2.6,1.2
		c-1.9-0.4-3.9-0.4-5.8,0c-1.1-0.7-2.9-1.5-4-1.2C5.3,1.8,5.1,2,5,2.2C4.5,3.3,4.4,4.5,4.7,5.6C3.9,6.6,3.5,7.8,3.5,9
		c0,3.6,1.6,6,5,6.8c-0.1,0.5,0,0.9,0,1.3v0.7c-0.6,0.1-1,0.1-1.2,0c-1.5-0.4-1.7-2.7-3.5-3.2c-0.5-0.2-1.1,0.1-1.2,0.7
		c-0.1,0.5,0.2,1.1,0.7,1.2c0.4,0.1,0.9,1.2,1.6,1.9c1,1.2,2.2,1.6,3.7,1.4v0.8c0,0.5,0.4,1,0.9,1c0.1,0,0.1,0.1,0.2,0.1
		c0.1,0,1.3,0.7,3,0.7c0.8,0,1.8-0.2,2.8-0.7c0.1,0,0.1-0.1,0.2-0.2c0.5,0,0.9-0.5,0.9-1c0-4.5,0-4.4,0-4.7C20,15,21.5,12.6,21.5,9
		C21.5,7.1,20.5,5.8,20.3,5.6z M14.9,14.1c-0.8,0.1-1.2,1.1-0.6,1.7c0.2,0.2,0.2,0.3,0.2,0.9v3.2c-0.7,0.4-1.4,0.5-2,0.5
		c-1.1,0-1.9-0.4-1.9-0.5h-0.1v-3c0-0.4-0.1-0.6,0-0.8c0-0.1,0.1-0.2,0.2-0.4c0.6-0.6,0.2-1.6-0.6-1.7C7,13.7,5.5,12.4,5.5,9
		c0-0.9,0.4-1.8,1-2.5c0.3-0.3,0.4-0.7,0.2-1.1C6.5,4.9,6.5,4.3,6.6,3.7C7,3.8,7.8,4.1,8.8,4.8C9.1,4.9,9.4,5,9.7,4.9
		c1.9-0.5,3.8-0.5,5.7,0c0.3,0.1,0.6,0,0.8-0.1c1.1-0.7,1.8-1,2.2-1.1c0.1,0.6,0.1,1.2-0.1,1.8c-0.1,0.4-0.1,0.8,0.2,1.1
		c0.7,0.7,1,1.6,1,2.5C19.5,12.4,18,13.7,14.9,14.1z"/>
	<path d="M19.5,9.1c0,3.3-1.5,4.6-4.6,5c-0.8,0.1-1.2,1.1-0.6,1.7c0.2,0.2,0.2,0.3,0.2,0.9v3.2c-0.7,0.4-1.4,0.5-2,0.5
		c-1.1,0-1.9-0.4-1.9-0.5h-0.1v-3c0-0.4-0.1-0.6,0-0.8c0-0.1,0.1-0.2,0.2-0.4c0.6-0.6,0.2-1.6-0.6-1.7C7,13.7,5.5,12.4,5.5,9
		c0-0.9,0.4-1.8,1-2.5c0.3-0.3,0.4-0.7,0.2-1.1C6.5,4.9,6.5,4.3,6.6,3.7C7,3.8,7.8,4.1,8.8,4.8C9.1,4.9,9.4,5,9.7,4.9
		c1.9-0.5,3.8-0.5,5.7,0c0.3,0.1,0.6,0,0.8-0.1c1.1-0.7,1.8-1,2.2-1.1c0.1,0.6,0.1,1.2-0.1,1.8c-0.1,0.4-0.1,0.8,0.2,1.1
		C19.2,7.3,19.5,8.2,19.5,9.1z"/>
</g>
</svg>
