<?xml version="1.0" encoding="utf-8"?>
<!-- Generator: Adobe Illustrator 26.3.1, SVG Export Plug-In . SVG Version: 6.00 Build 0)  -->
<svg version="1.1" id="Layer_1" xmlns="http://www.w3.org/2000/svg" xmlns:xlink="http://www.w3.org/1999/xlink" x="0px" y="0px"
	 viewBox="0 0 24 24" style="enable-background:new 0 0 24 24;" xml:space="preserve">
<style type="text/css">
	.st0{display:none;fill:#E63F8E;stroke:#000000;stroke-width:2;stroke-linecap:round;stroke-linejoin:round;}
	.st1{fill:#E63F8E;}
	.st2{fill:none;stroke:#FFFFFF;stroke-width:2;stroke-linecap:round;stroke-linejoin:round;}
</style>
<g>
	<path class="st0" d="M7,2h10c2.8,0,5,2.2,5,5v10c0,2.8-2.2,5-5,5H7c-2.8,0-5-2.2-5-5V7C2,4.2,4.2,2,7,2z"/>
	<path class="st1" d="M7,2h10c2.8,0,5,2.2,5,5v10c0,2.8-2.2,5-5,5H7c-2.8,0-5-2.2-5-5V7C2,4.2,4.2,2,7,2z"/>
	<circle class="st2" cx="12" cy="12" r="4.4"/>
	<path class="st2" d="M17.6,6.4L17.6,6.4"/>
</g>
</svg>
