<svg clip-rule="evenodd" fill-rule="evenodd" stroke-linecap="round" stroke-linejoin="round" viewBox="0 0 24 24" xmlns="http://www.w3.org/2000/svg"><path d="m0 0h24v24h-24z" fill="none"/><g stroke-width="2"><path d="m18.648 15.254c-1.816 1.763-6.648 1.626-6.648 1.626-1.101.014-2.202-.072-3.288-.256 1.127 1.985 4.12 2.81 8.982 2.475-1.945 2.013-13.598 5.257-13.668-7.636l-.026-1.154c0-3.036.023-4.115 1.352-5.633 1.671-1.91 6.648-1.666 6.648-1.666s4.977-.243 6.648 1.667c1.329 1.518 1.352 2.597 1.352 5.633s-.456 4.074-1.352 4.944z" fill="#595aff" fill-rule="nonzero" stroke="#000"/><path d="m12 11.204v-2.926c0-1.258-.895-2.278-2-2.278s-2 1.02-2 2.278v4.722m4-4.722c0-1.258.895-2.278 2-2.278s2 1.02 2 2.278v4.722" fill="none" stroke="#fff"/></g></svg>